<?xml version="1.0" encoding="utf-8"?>
<svg width="80" height="80" viewBox="0 0 80 80" fill="none" xmlns="http://www.w3.org/2000/svg">
<path d="M16.8 65.5711L39.9844 59.248L61.2 65.6129V34.8126L64.8 33.3726V55.038C64.1116 55.3165 63.5414 55.8257 63.1873 56.4785C62.8331 57.1312 62.7171 57.8868 62.8589 58.6157C63.0008 59.3447 63.3917 60.0016 63.9648 60.4739C64.5379 60.9462 65.2574 61.2045 66 61.2045C66.7426 61.2045 67.4621 60.9462 68.0352 60.4739C68.6082 60.0016 68.9992 59.3447 69.1411 58.6157C69.2829 57.8868 69.1668 57.1312 68.8127 56.4785C68.4585 55.8257 67.8884 55.3165 67.2 55.038V32.4126L73.0195 30.0848L40 14.6758L6.98047 30.0848L16.8 34.0126V65.5711ZM58.8 62.3871L40.0156 56.7519L19.2 62.4289V34.9726L40 43.2926L58.8 35.7726V62.3871ZM66 58.8C65.8418 58.8 65.6871 58.7531 65.5555 58.6652C65.424 58.5773 65.3214 58.4523 65.2609 58.3061C65.2003 58.16 65.1845 57.9991 65.2154 57.8439C65.2462 57.6887 65.3224 57.5462 65.4343 57.4343C65.5462 57.3224 65.6887 57.2462 65.8439 57.2154C65.9991 57.1845 66.16 57.2003 66.3061 57.2609C66.4523 57.3214 66.5773 57.424 66.6652 57.5555C66.7531 57.6871 66.8 57.8418 66.8 58C66.7998 58.2121 66.7154 58.4155 66.5654 58.5654C66.4155 58.7154 66.2121 58.7998 66 58.8ZM13.0195 29.9152L40 17.3242L66.9805 29.9152L40 40.7074L13.0195 29.9152Z" fill="#00ABFF"/>
</svg>
