<?xml version="1.0" encoding="utf-8"?>
<svg width="80" height="80" viewBox="0 0 80 80" fill="none" xmlns="http://www.w3.org/2000/svg">
<path d="M23.75 58.75H11.25V71.25H23.75V58.75ZM21.25 68.75H13.75V61.25H21.25V68.75Z" fill="#00ABFF"/>
<path d="M38.75 71.25V51.25H26.25V71.25H38.75ZM28.75 53.75H36.25V68.75H28.75V53.75Z" fill="#00ABFF"/>
<path d="M53.75 71.25V43.75H41.25V71.25H53.75ZM43.75 46.25H51.25V68.75H43.75V46.25Z" fill="#00ABFF"/>
<path d="M56.25 71.25H68.75V33.75H56.25V71.25ZM58.75 36.25H66.25V68.75H58.75V36.25Z" fill="#00ABFF"/>
<path d="M57.1057 21.186L61.974 22.8086L41.2513 34.806V23.9215C41.4118 23.9548 41.575 23.9734 41.7389 23.9771C44.0522 23.9771 46.9342 21.2378 49.5307 18.4278C51.668 16.1088 53.4282 13.4689 54.7474 10.6043L55.4932 8.99055L53.7226 8.8343C47.4659 8.27949 42.2077 10.4456 40.0141 14.4825L40.0013 14.5093L39.9884 14.4825C37.7948 10.4462 32.5446 8.28069 26.2799 8.83429L24.5093 8.99054L25.2552 10.6043C26.5743 13.4689 28.3346 16.1088 30.4718 18.4278C33.0683 21.2385 35.9504 23.9771 38.2636 23.9771C38.4275 23.9734 38.5907 23.9548 38.7513 23.9215V36.2533L16.875 48.9185L18.1275 51.0816L62.7717 25.2349L61.3153 29.6046L63.6872 30.3956L66.5827 21.7097L57.8968 18.8141L57.1057 21.186ZM42.2113 15.6763C43.6878 12.9584 47.2748 11.3111 51.623 11.2531C50.5435 13.2335 49.2242 15.0733 47.6947 16.731C43.0701 21.7353 41.7841 21.4954 41.6925 21.4716C41.1475 21.1097 40.918 18.0567 42.2113 15.6763V15.6763ZM38.31 21.4716C38.2197 21.4985 36.93 21.7347 32.3078 16.731C30.7784 15.0733 29.459 13.2335 28.3796 11.2531C32.7271 11.3111 36.3154 12.9591 37.7912 15.6763C39.0845 18.0567 38.855 21.1097 38.31 21.4716V21.4716Z" fill="#00ABFF"/>
</svg>
