<?xml version="1.0" encoding="utf-8"?>
<svg width="80" height="80" viewBox="0 0 80 80" fill="none" xmlns="http://www.w3.org/2000/svg">
<path d="M61.25 8.75H29.4824L18.75 19.4824V36.25H8.75V71.25H71.25V36.25H61.25V8.75ZM28.75 13.0176V18.75H23.0176L28.75 13.0176ZM51.25 28.75H53.75V41.25H51.25V28.75ZM53.75 26.25H51.25V25C51.25 24.6685 51.3817 24.3505 51.6161 24.1161C51.8505 23.8817 52.1685 23.75 52.5 23.75C52.8315 23.75 53.1495 23.8817 53.3839 24.1161C53.6183 24.3505 53.75 24.6685 53.75 25V26.25ZM68.75 68.75H11.25V43.75H68.75V68.75ZM11.25 38.75H18.75V41.25H11.25V38.75ZM68.75 41.25H61.25V38.75H68.75V41.25ZM58.75 41.25H56.25V25C56.25 24.0054 55.8549 23.0516 55.1516 22.3483C54.4484 21.6451 53.4946 21.25 52.5 21.25C51.5054 21.25 50.5516 21.6451 49.8484 22.3483C49.1451 23.0516 48.75 24.0054 48.75 25V41.25H21.25V21.25H31.25V11.25H58.75V41.25Z" fill="#00ABFF"/>
<path d="M25 26.25H45V28.75H25V26.25Z" fill="#00ABFF"/>
<path d="M25 31.25H45V33.75H25V31.25Z" fill="#00ABFF"/>
<path d="M25 36.25H45V38.75H25V36.25Z" fill="#00ABFF"/>
<path d="M58.75 58.75H46.25V66.25H63.75V58.75H58.75ZM48.75 63.75V61.25H61.25V63.75H48.75Z" fill="#00ABFF"/>
</svg>
