<?xml version="1.0" encoding="utf-8"?>
<svg width="80" height="80" viewBox="0 0 80 80" fill="none" xmlns="http://www.w3.org/2000/svg">
<path d="M62.4016 9.6001H18.4016C18.2965 9.60004 18.1924 9.62069 18.0953 9.66087C17.9983 9.70105 17.91 9.75998 17.8357 9.83428C17.7614 9.90857 17.7025 9.99679 17.6623 10.0939C17.6222 10.191 17.6015 10.295 17.6016 10.4001V70.4001C17.6015 70.5052 17.6222 70.6092 17.6623 70.7063C17.7025 70.8034 17.7614 70.8916 17.8357 70.9659C17.91 71.0402 17.9983 71.0991 18.0953 71.1393C18.1924 71.1795 18.2965 71.2002 18.4016 71.2001H62.4016C62.5066 71.2002 62.6107 71.1795 62.7078 71.1393C62.8049 71.0991 62.8931 71.0402 62.9674 70.9659C63.0417 70.8916 63.1006 70.8034 63.1408 70.7063C63.181 70.6092 63.2016 70.5052 63.2016 70.4001V10.4001C63.2016 10.295 63.181 10.191 63.1408 10.0939C63.1006 9.99679 63.0417 9.90857 62.9674 9.83428C62.8931 9.75998 62.8049 9.70105 62.7078 9.66087C62.6107 9.62069 62.5066 9.60004 62.4016 9.6001ZM60.8016 68.8001H20.1366V12.2082H40.0016L60.8016 12.0001V68.8001Z" fill="#00ABFF"/>
<path d="M27.1106 30.7072L29.945 31.9173L28.3629 34.5627C28.2903 34.6841 28.2511 34.8226 28.2495 34.9641C28.2479 35.1056 28.2838 35.2451 28.3536 35.3681C28.4234 35.4912 28.5246 35.5936 28.6469 35.6649C28.7692 35.7361 28.9081 35.7736 29.0497 35.7736H29.0622L32.1442 35.7267L31.7747 38.7869C31.7577 38.9284 31.7788 39.0719 31.8358 39.2025C31.8928 39.3331 31.9837 39.4462 32.099 39.5299C32.2143 39.6137 32.3499 39.6652 32.4918 39.679C32.6336 39.6929 32.7766 39.6686 32.9059 39.6087L35.7027 38.3119L36.6098 41.258C36.6517 41.3941 36.7293 41.5166 36.8345 41.6127C36.9397 41.7089 37.0686 41.7752 37.208 41.8048C37.3474 41.8344 37.4921 41.8263 37.6273 41.7813C37.7625 41.7362 37.8832 41.6559 37.977 41.5486L40.0043 39.2267L42.0317 41.5486C42.1254 41.6559 42.2461 41.7362 42.3813 41.7813C42.5165 41.8263 42.6612 41.8344 42.8006 41.8048C42.94 41.7752 43.0689 41.7089 43.1741 41.6127C43.2793 41.5166 43.3569 41.3941 43.3989 41.258L44.3059 38.3119L47.1027 39.6087C47.2321 39.6686 47.375 39.6929 47.5169 39.679C47.6587 39.6652 47.7943 39.6137 47.9096 39.5299C48.0249 39.4461 48.1158 39.3331 48.1728 39.2025C48.2298 39.0719 48.2509 38.9284 48.234 38.7869L47.8644 35.7267L50.9465 35.7736H50.959C51.1005 35.7736 51.2395 35.7361 51.3618 35.6648C51.484 35.5936 51.5853 35.4912 51.6551 35.3681C51.7249 35.245 51.7608 35.1056 51.7591 34.9641C51.7575 34.8226 51.7183 34.6841 51.6457 34.5626L50.0637 31.9173L52.8981 30.7072C53.0291 30.6511 53.1428 30.5611 53.2274 30.4464C53.312 30.3317 53.3644 30.1965 53.3793 30.0547C53.3942 29.913 53.371 29.7699 53.3121 29.6401C53.2532 29.5103 53.1607 29.3986 53.0442 29.3165L50.5231 27.5431L52.6199 25.2853C52.7169 25.1809 52.7843 25.0525 52.8151 24.9133C52.8458 24.7742 52.8389 24.6293 52.7949 24.4938C52.7509 24.3582 52.6716 24.2369 52.565 24.1422C52.4584 24.0476 52.3285 23.9832 52.1887 23.9556L49.1637 23.3611L50.1613 20.4439C50.2074 20.3091 50.2166 20.1644 50.188 20.0249C50.1594 19.8853 50.0941 19.7559 49.9988 19.6501C49.9034 19.5442 49.7815 19.4657 49.6457 19.4228C49.5099 19.3798 49.3651 19.3739 49.2262 19.4056L46.2215 20.0923L45.9457 17.022C45.933 16.8801 45.8826 16.7442 45.7997 16.6283C45.7169 16.5124 45.6045 16.4208 45.4744 16.3628C45.3442 16.3049 45.2009 16.2828 45.0594 16.2989C44.9178 16.3149 44.7831 16.3685 44.6692 16.454L42.2036 18.3032L40.7036 15.6111C40.6281 15.4942 40.5246 15.3981 40.4024 15.3316C40.2803 15.2651 40.1434 15.2302 40.0044 15.2302C39.8653 15.2302 39.7284 15.2651 39.6063 15.3316C39.4841 15.3981 39.3806 15.4942 39.3052 15.6111L37.8052 18.3032L35.3396 16.454C35.2256 16.3685 35.0909 16.3149 34.9494 16.2989C34.8078 16.2828 34.6645 16.3049 34.5343 16.3628C34.4042 16.4208 34.2918 16.5124 34.209 16.6283C34.1261 16.7442 34.0757 16.8801 34.063 17.022L33.7872 20.0923L30.7825 19.4056C30.6436 19.3739 30.4988 19.3798 30.363 19.4228C30.2272 19.4657 30.1053 19.5442 30.0099 19.6501C29.9146 19.7559 29.8493 19.8853 29.8207 20.0249C29.7921 20.1644 29.8013 20.3091 29.8474 20.4439L30.845 23.3611L27.82 23.9556C27.6802 23.9832 27.5503 24.0476 27.4437 24.1422C27.3371 24.2369 27.2578 24.3582 27.2138 24.4938C27.1698 24.6293 27.1629 24.7742 27.1936 24.9133C27.2244 25.0525 27.2918 25.1809 27.3888 25.2853L29.4856 27.5431L26.9645 29.3165C26.848 29.3986 26.7555 29.5103 26.6966 29.6401C26.6377 29.7699 26.6145 29.913 26.6294 30.0547C26.6443 30.1965 26.6967 30.3317 26.7813 30.4464C26.8659 30.5611 26.9796 30.6511 27.1106 30.7072L27.1106 30.7072ZM31.1551 28.3251C31.2484 28.2594 31.3266 28.1744 31.3844 28.0759C31.4422 27.9774 31.4783 27.8677 31.4902 27.7541C31.5021 27.6405 31.4896 27.5257 31.4535 27.4174C31.4174 27.309 31.3585 27.2097 31.2809 27.1259L29.5379 25.2486L32.0528 24.7541C32.1648 24.732 32.2707 24.6862 32.3636 24.6198C32.4564 24.5534 32.5339 24.4679 32.591 24.369C32.648 24.2701 32.6833 24.1602 32.6943 24.0466C32.7054 23.933 32.692 23.8183 32.6551 23.7103L31.8262 21.2853L34.3239 21.8556C34.4351 21.8816 34.5507 21.8832 34.6626 21.8603C34.7746 21.8374 34.8802 21.7905 34.9723 21.7228C35.0646 21.6558 35.1414 21.5698 35.1978 21.4706C35.2541 21.3715 35.2886 21.2614 35.2989 21.1478L35.5278 18.5955L37.5785 20.1329C37.6698 20.2016 37.7748 20.2498 37.8863 20.2745C37.9978 20.2991 38.1133 20.2996 38.2251 20.2758C38.3368 20.2521 38.4421 20.2046 38.5339 20.1367C38.6258 20.0688 38.702 19.982 38.7574 19.8822L40.0043 17.6439L41.2512 19.8822C41.3067 19.982 41.3829 20.0688 41.4747 20.1367C41.5665 20.2046 41.6719 20.2521 41.7836 20.2758C41.8953 20.2996 42.0108 20.2992 42.1223 20.2745C42.2339 20.2499 42.3388 20.2016 42.4301 20.133L44.4809 18.5955L44.7098 21.1478C44.7201 21.2614 44.7546 21.3715 44.8109 21.4706C44.8672 21.5698 44.9441 21.6558 45.0363 21.7228C45.1284 21.7905 45.2341 21.8374 45.346 21.8604C45.4579 21.8833 45.5735 21.8817 45.6848 21.8556L48.1824 21.2853L47.3535 23.7103C47.3166 23.8183 47.3032 23.933 47.3143 24.0466C47.3254 24.1602 47.3606 24.2701 47.4177 24.369C47.4747 24.4679 47.5523 24.5534 47.6451 24.6198C47.7379 24.6862 47.8439 24.732 47.9559 24.7541L50.4707 25.2486L48.7278 27.1259C48.6501 27.2097 48.5912 27.309 48.5551 27.4174C48.519 27.5257 48.5065 27.6405 48.5184 27.7541C48.5303 27.8677 48.5664 27.9774 48.6242 28.0759C48.682 28.1744 48.7602 28.2593 48.8535 28.3251L50.9496 29.7993L48.5926 30.8056C48.4876 30.8505 48.3934 30.9173 48.3163 31.0016C48.2392 31.0859 48.1811 31.1858 48.1458 31.2944C48.1105 31.403 48.0989 31.518 48.1117 31.6315C48.1244 31.745 48.1614 31.8544 48.2199 31.9525L49.5356 34.1517L46.9731 34.1126H46.9606C46.8474 34.1127 46.7355 34.1367 46.6324 34.1832C46.5292 34.2296 46.437 34.2974 46.3619 34.3821C46.2868 34.4668 46.2306 34.5664 46.1968 34.6744C46.163 34.7824 46.1526 34.8963 46.1661 35.0087L46.4731 37.5532L44.1481 36.4751C44.0445 36.4272 43.9318 36.4019 43.8177 36.401C43.7035 36.4002 43.5905 36.4237 43.4862 36.4701C43.3819 36.5165 43.2887 36.5847 43.2128 36.67C43.137 36.7553 43.0803 36.8559 43.0465 36.9649L42.2926 39.4142L40.6066 37.4845C40.5317 37.3984 40.4391 37.3293 40.3352 37.282C40.2313 37.2347 40.1185 37.2102 40.0043 37.2102C39.8901 37.2102 39.7773 37.2347 39.6734 37.282C39.5695 37.3293 39.4769 37.3984 39.402 37.4845L37.716 39.4142L36.9621 36.9649C36.9283 36.8559 36.8716 36.7553 36.7958 36.67C36.7199 36.5847 36.6267 36.5165 36.5224 36.4701C36.4181 36.4237 36.3051 36.4002 36.1909 36.401C36.0768 36.4019 35.9641 36.4272 35.8605 36.4751L33.5355 37.5532L33.8425 35.0087C33.856 34.8963 33.8456 34.7824 33.8118 34.6744C33.778 34.5664 33.7218 34.4668 33.6467 34.3821C33.5716 34.2974 33.4794 34.2296 33.3762 34.1832C33.2731 34.1367 33.1612 34.1127 33.048 34.1126H33.0355L30.473 34.1517L31.7887 31.9525C31.8472 31.8544 31.8842 31.745 31.8969 31.6315C31.9097 31.518 31.8981 31.403 31.8628 31.2944C31.8275 31.1858 31.7694 31.0859 31.6923 31.0016C31.6152 30.9173 31.521 30.8505 31.416 30.8056L29.059 29.7993L31.1551 28.3251Z" fill="#00ABFF"/>
<path d="M37.4362 32.5661C37.5105 32.6404 37.5987 32.6993 37.6957 32.7395C37.7928 32.7797 37.8968 32.8004 38.0018 32.8004C38.1069 32.8004 38.2109 32.7797 38.308 32.7395C38.405 32.6993 38.4932 32.6404 38.5675 32.5661L44.5675 26.5661C44.7159 26.4157 44.7989 26.2128 44.7982 26.0015C44.7975 25.7902 44.7133 25.5878 44.5639 25.4384C44.4145 25.289 44.2121 25.2048 44.0008 25.2041C43.7895 25.2034 43.5865 25.2864 43.4362 25.4349L41.7393 27.1317L38.0018 30.8692L36.756 29.6234L36.5674 29.4349C36.417 29.2871 36.2142 29.2047 36.0033 29.2057C35.7924 29.2066 35.5904 29.2908 35.4413 29.44C35.2922 29.5891 35.208 29.7911 35.207 30.002C35.2061 30.2128 35.2885 30.4156 35.4362 30.5661L37.4362 32.5661Z" fill="#00ABFF"/>
<path d="M34.0031 55.2002C33.8981 55.2001 33.794 55.2208 33.6969 55.261C33.5998 55.3012 33.5116 55.3601 33.4373 55.4344C33.363 55.5087 33.3041 55.5969 33.2639 55.694C33.2237 55.7911 33.2031 55.8951 33.2031 56.0002V60.0002C33.2031 60.1053 33.2237 60.2093 33.2639 60.3064C33.3041 60.4035 33.363 60.4917 33.4373 60.566C33.5116 60.6403 33.5998 60.6992 33.6969 60.7394C33.794 60.7796 33.8981 60.8003 34.0031 60.8002H46.0031C46.1082 60.8003 46.2123 60.7796 46.3093 60.7394C46.4064 60.6992 46.4946 60.6403 46.5689 60.566C46.6432 60.4917 46.7022 60.4035 46.7424 60.3064C46.7825 60.2093 46.8032 60.1053 46.8031 60.0002V56.0002C46.8032 55.8951 46.7825 55.7911 46.7424 55.694C46.7022 55.5969 46.6432 55.5087 46.5689 55.4344C46.4946 55.3601 46.4064 55.3012 46.3093 55.261C46.2123 55.2208 46.1082 55.2001 46.0031 55.2002H34.0031ZM45.2031 59.2002H34.8031V56.8002H45.2031V59.2002Z" fill="#00ABFF"/>
<path d="M26.0031 64.8002H54.0031C54.2153 64.8002 54.4188 64.7159 54.5688 64.5659C54.7188 64.4158 54.8031 64.2124 54.8031 64.0002C54.8031 63.788 54.7188 63.5845 54.5688 63.4345C54.4188 63.2845 54.2153 63.2002 54.0031 63.2002H26.0031C25.791 63.2002 25.5875 63.2845 25.4374 63.4345C25.2874 63.5845 25.2031 63.788 25.2031 64.0002C25.2031 64.2124 25.2874 64.4158 25.4374 64.5659C25.5875 64.7159 25.791 64.8002 26.0031 64.8002Z" fill="#00ABFF"/>
</svg>
