<svg width="66" height="65" viewBox="0 0 66 65" fill="none" xmlns="http://www.w3.org/2000/svg">
<path d="M57.3699 53.5358C58.9974 51.6673 60.4622 49.5551 61.6014 47.1992C62.8221 44.8433 63.6359 42.4874 64.2869 40.0503L57.6954 37.8569C58.1836 35.5822 58.3464 33.3075 58.265 31.0329L65.1006 29.8956C64.6937 24.7776 63.0662 19.822 60.3808 15.5164L54.1149 18.6035C52.8943 16.735 51.4295 14.9478 49.6392 13.4043L53.6266 7.7176C51.755 6.09284 49.6392 4.63056 47.2793 3.49323C44.9194 2.27466 42.5595 1.46228 40.1182 0.812379L37.9211 7.39265C35.6426 6.90522 33.364 6.74275 31.0855 6.82399L29.9463 0C24.8196 0.40619 19.8557 2.03095 15.5428 4.7118L18.635 10.9671C16.7634 12.1857 14.9731 13.648 13.427 15.4352L7.7307 11.4545C6.10318 13.323 4.63841 15.4352 3.49915 17.7911C2.27851 20.147 1.46476 22.5029 0.813758 24.94L7.40518 27.1335C6.91692 29.4081 6.75416 31.6828 6.83554 33.9574L0 35.0948C0.406879 40.2128 2.03438 45.1683 4.71978 49.4739L10.9857 46.3868C12.2064 48.2553 13.6711 50.0426 15.4614 51.5861L11.474 57.2727C13.3456 58.8975 15.4614 60.3598 17.8213 61.4971C20.1812 62.7157 22.541 63.5281 24.9823 64.178L27.1795 57.5977C29.458 58.0851 31.7365 58.2476 34.0151 58.1663L35.1543 64.9903C40.281 64.5841 45.2449 62.9594 49.5578 60.2785L46.4655 54.0232C48.3372 52.8046 50.1275 51.3424 51.6736 49.5551L57.3699 53.5358ZM26.9354 43.5435C20.7508 40.3752 18.3095 32.9014 21.4832 26.7273C24.6568 20.5532 32.1434 18.1161 38.328 21.2843C44.5125 24.4526 46.9538 31.9265 43.7802 38.1006C40.6065 44.1934 33.0385 46.6306 26.9354 43.5435Z" fill="#336383"/>
</svg>
