<svg width="96" height="96" viewBox="0 0 96 96" fill="none" xmlns="http://www.w3.org/2000/svg">
<path d="M83.817 79.2882C86.2582 76.5261 88.374 73.4391 90.1643 70.0271C91.9545 66.6151 93.2565 63.1219 94.2331 59.5474L84.6307 56.1354C85.3631 52.8046 85.6886 49.4739 85.5259 46.1431L95.6165 44.5996C95.1282 37.1257 92.8497 29.8143 89.025 23.3153L79.8296 27.7021C78.0393 24.8588 75.9235 22.2592 73.4009 19.9845L79.4227 11.7795C76.6559 9.34236 73.5636 7.23017 70.1459 5.44294C66.7281 3.65571 63.2289 2.3559 59.6484 1.38104L56.2306 10.9671C52.8942 10.236 49.5578 9.91103 46.2214 10.0735L44.6753 0C37.1887 0.487427 29.8649 2.76209 23.3548 6.58027L27.7491 15.7602C24.901 17.5474 22.2969 19.6596 20.0184 22.1779L11.7995 16.1663C9.35821 18.9284 7.24245 22.0155 5.45218 25.4275C3.66192 28.8395 2.35991 32.3327 1.3834 35.9072L10.9857 39.3191C10.2533 42.6499 9.92783 45.9807 10.0906 49.3114L0 50.8549C0.488254 58.3288 2.76678 65.6402 6.59144 72.1393L15.7869 67.7524C17.5771 70.5957 19.6929 73.1954 22.2156 75.47L16.1938 83.675C18.9605 86.1122 22.0528 88.2244 25.4706 90.0116C28.8884 91.7988 32.3875 93.0986 35.9681 94.0735L39.3858 84.4874C42.7222 85.2186 46.0587 85.5435 49.3951 85.381L50.9412 95.4545C58.4278 94.9671 65.7516 92.6925 72.2616 88.8743L67.8673 79.6944C70.7155 77.9072 73.3195 75.795 75.598 73.2766L83.817 79.2882ZM36.6191 68.8897C24.901 62.7157 20.4253 48.2553 26.6099 36.5571C32.7944 24.8588 47.2793 20.3907 58.9974 26.5648C70.7155 32.7389 75.1911 47.1992 69.0066 58.8975C62.822 70.5957 48.3372 75.0638 36.6191 68.8897ZM39.8741 62.7157C31.5738 58.3288 28.4001 48.0928 32.7944 39.8066C37.1887 31.5203 47.442 28.352 55.7424 32.7389C64.0427 37.1257 67.2163 47.3617 62.8221 55.648C58.5091 63.9342 48.1744 67.1025 39.8741 62.7157Z" fill="#9CD4EF"/>
</svg>
