<svg width="101" height="75" viewBox="0 0 101 75" fill="none" xmlns="http://www.w3.org/2000/svg">
<path d="M13.4925 74.0283H0V4.05963H3.30941V70.1772H13.4925V74.0283" fill="#E9EBEC"/>
<path d="M3.30859 70.1772H100.741V8.13634e-07H3.30859V70.1772Z" fill="#00ABFF"/>
<path d="M3.30859 5.58643H100.608V0.000183342H3.30859V5.58643Z" fill="#A4EFFF"/>
<path d="M88.5798 70.1772H88.3634V58.0819H74.0225V70.1772H73.8061V58.0819H59.4688V70.1772H59.2523V58.0819H44.915V70.1772H44.6985V58.0819H30.3612V70.1772H30.1448V58.0819H15.8074V70.1772H15.591V58.0819H3.64844V57.8654H15.591V44.6036H3.64844V44.3872H15.591V31.1258H3.64844V30.9089H15.591V17.6475H3.64844V17.4307H15.591V5.69354H15.8074V17.4307H30.1448V5.69354H30.3612V17.4307H44.6985V5.69354H44.915V17.4307H59.2523V5.69354H59.4688V17.4307H73.8061V5.69354H74.0225V17.4307H88.3634V5.69354H88.5798V17.4307H100.54V17.6475H88.5798V30.9089H100.54V31.1258H88.5798V44.3872H100.54V44.6036H88.5798V57.8654H100.54V58.0819H88.5798V70.1772ZM74.0225 44.6036V57.8654H88.3634V44.6036H74.0225ZM59.4688 44.6036V57.8654H73.8061V44.6036H59.4688ZM44.915 44.6036V57.8654H59.2523V44.6036H44.915ZM30.3612 44.6036V57.8654H44.6985V44.6036H30.3612ZM15.8074 44.6036V57.8654H30.1448V44.6036H15.8074ZM74.0225 31.1258V44.3872H88.3634V31.1258H74.0225ZM59.4688 31.1258V44.3872H73.8061V31.1258H59.4688ZM44.915 31.1258V44.3872H59.2523V31.1258H44.915ZM30.3612 31.1258V44.3872H44.6985V31.1258H30.3612ZM15.8074 31.1258V44.3872H30.1448V31.1258H15.8074ZM74.0225 17.6475V30.9089H88.3634V17.6475H74.0225ZM59.4688 17.6475V30.9089H73.8061V17.6475H59.4688ZM44.915 17.6475V30.9089H59.2523V17.6475H44.915ZM30.3612 17.6475V30.9089H44.6985V17.6475H30.3612ZM15.8074 17.6475V30.9089H30.1448V17.6475H15.8074Z" fill="#305295"/>
<path d="M90.2554 14.5829C88.6146 14.5829 87.2811 15.9141 87.2811 17.5561C87.2811 18.3845 87.6231 19.1334 88.1677 19.6724C84.7222 22.6414 81.2731 25.6103 77.8276 28.5789C77.5657 28.8048 77.3004 29.0307 77.0386 29.2562C76.5289 28.846 75.8831 28.5992 75.1779 28.5992C73.5372 28.5992 72.2036 29.9304 72.2036 31.5723C72.2036 32.6176 72.7447 33.5347 73.5616 34.065C72.8076 35.8833 72.05 37.7012 71.296 39.5194C70.9748 40.2948 70.6501 41.0698 70.329 41.8452C70.1125 41.795 69.8891 41.766 69.6587 41.766C68.5591 41.766 67.6026 42.3619 67.0894 43.2463C63.759 41.1414 60.4286 39.0362 57.0983 36.9306C54.6302 35.3711 52.1621 33.8109 49.694 32.2513C49.8301 31.9096 49.9104 31.5381 49.9104 31.1474C49.9104 29.5055 48.5769 28.1743 46.9361 28.1743C45.2954 28.1743 43.9618 29.5055 43.9618 31.1474C43.9618 31.3555 43.9863 31.5587 44.0247 31.7545C39.3538 33.6611 34.6829 35.5677 30.0155 37.4739C29.5547 37.661 29.0974 37.8478 28.6401 38.0349C28.1828 36.9816 27.1354 36.2443 25.9136 36.2443C24.2729 36.2443 22.9393 37.5755 22.9393 39.2174C22.9393 40.07 23.3024 40.8363 23.8749 41.3788C23.1837 42.1661 22.489 42.953 21.7943 43.7406C18.4849 47.4993 15.172 51.258 11.8625 55.0163C11.3878 54.6954 10.8153 54.5079 10.2009 54.5079C8.55662 54.5079 7.22656 55.8392 7.22656 57.4811C7.22656 59.123 8.55662 60.4539 10.2009 60.4539C11.8416 60.4539 13.1716 59.123 13.1716 57.4811C13.1716 56.8464 12.9727 56.2595 12.6341 55.7767C15.4617 52.5675 18.2859 49.3584 21.1136 46.1489C22.3424 44.7566 23.5677 43.3636 24.793 41.9709C25.1386 42.1116 25.5156 42.1905 25.9136 42.1905C27.5544 42.1905 28.8844 40.8593 28.8844 39.2174C28.8844 39.1776 28.8809 39.1385 28.8809 39.0987C28.9473 39.0711 29.0136 39.0435 29.0834 39.016C34.2011 36.9271 39.3154 34.8383 44.4331 32.7495C44.9637 33.5735 45.8854 34.1209 46.9361 34.1209C47.7984 34.1209 48.5734 33.7515 49.1145 33.1653C51.3522 34.58 53.5899 35.9946 55.8276 37.4096C59.4582 39.7044 63.0888 41.9996 66.7194 44.2947C66.6984 44.4399 66.6844 44.5876 66.6844 44.7391C66.6844 46.3811 68.0145 47.7123 69.6587 47.7123C71.2995 47.7123 72.6295 46.3811 72.6295 44.7391C72.6295 43.7113 72.1094 42.8057 71.3169 42.2719C72.3956 39.6737 73.4743 37.0762 74.553 34.4784C74.7555 34.5217 74.965 34.5454 75.1779 34.5454C76.8187 34.5454 78.1522 33.2142 78.1522 31.5723C78.1522 31.0256 78.0021 30.5155 77.7438 30.0756C78.3547 29.5502 78.9621 29.0247 79.573 28.4997C82.1843 26.2503 84.799 24.0012 87.4102 21.7518C87.9723 21.2665 88.5378 20.7813 89.0998 20.2963C89.4559 20.4461 89.8469 20.5292 90.2554 20.5292C91.8961 20.5292 93.2296 19.198 93.2296 17.5561C93.2296 15.9141 91.8961 14.5829 90.2554 14.5829" fill="#F7F7F7"/>
</svg>
