<svg width="342" height="239" viewBox="0 0 342 239" fill="none" xmlns="http://www.w3.org/2000/svg">
<path d="M241.811 45.3346C243.208 43.7554 244.418 41.9903 245.442 40.0394C246.465 38.0885 247.21 36.0912 247.768 34.0474L242.277 32.0966C242.696 30.1921 242.882 28.2877 242.789 26.3833L248.56 25.5007C248.28 21.2274 246.977 17.0469 244.79 13.331L239.531 15.8393C238.507 14.2135 237.297 12.7271 235.854 11.4266L239.298 6.73517C237.716 5.34168 235.948 4.134 233.993 3.11211C232.038 2.09022 230.037 1.34703 227.989 0.78964L226.035 6.27067C224.127 5.85263 222.218 5.66683 220.31 5.75973L219.426 0C215.144 0.278697 210.956 1.57928 207.233 3.7624L209.746 9.01119C208.117 10.0331 206.628 11.2408 205.325 12.6807L200.624 9.24344C199.228 10.8227 198.018 12.5878 196.994 14.5387C195.97 16.4895 195.226 18.4869 194.667 20.5306L200.159 22.4815C199.74 24.3859 199.554 26.2904 199.647 28.1948L193.876 29.0773C194.155 33.3507 195.458 37.5311 197.646 41.2471L202.905 38.7388C203.928 40.3645 205.138 41.8509 206.581 43.1515L203.137 47.8429C204.72 49.2364 206.488 50.4441 208.443 51.466C210.397 52.4879 212.399 53.231 214.446 53.7884L216.401 48.3074C218.309 48.7254 220.217 48.9112 222.125 48.8183L223.01 54.5781C227.291 54.2994 231.48 52.9988 235.203 50.8157L232.69 45.5669C234.319 44.545 235.808 43.3373 237.111 41.8974L241.811 45.3346ZM214.819 39.3891C208.117 35.859 205.557 27.591 209.094 20.9022C212.631 14.2135 220.915 11.6588 227.617 15.189C234.319 18.7191 236.878 26.9871 233.341 33.6758C229.804 40.3645 221.52 42.9193 214.819 39.3891ZM216.68 35.859C211.933 33.3507 210.118 27.4981 212.631 22.7602C215.144 18.0224 221.008 16.2108 225.755 18.7191C230.502 21.2274 232.317 27.08 229.804 31.8179C227.338 36.5557 221.427 38.3672 216.68 35.859Z" fill="#9CD4EF"/>
<path d="M290.794 60.3445C291.724 59.2762 292.562 58.0685 293.214 56.7215C293.912 55.3745 294.377 54.0274 294.75 52.6339L290.98 51.3798C291.259 50.0792 291.352 48.7786 291.306 47.4781L295.215 46.8278C294.982 43.9014 294.051 41.068 292.516 38.6062L288.932 40.3713C288.234 39.303 287.396 38.2811 286.372 37.3985L288.653 34.1471C287.582 33.2181 286.372 32.382 285.023 31.7317C283.673 31.035 282.324 30.5705 280.927 30.1989L279.671 33.9613C278.368 33.6826 277.065 33.5897 275.761 33.6361L275.11 29.7344C272.178 29.9666 269.339 30.8956 266.872 32.4284L268.641 36.005C267.571 36.7018 266.547 37.5379 265.662 38.5598L262.405 36.2837C261.474 37.3521 260.636 38.5598 259.985 39.9068C259.286 41.2538 258.821 42.6009 258.449 43.9943L262.218 45.2485C261.939 46.5491 261.846 47.8496 261.893 49.1502L257.983 49.8005C258.216 52.7268 259.147 55.5603 260.683 58.0221L264.266 56.257C264.964 57.3253 265.802 58.3472 266.826 59.2298L264.545 62.4812C265.616 63.4102 266.826 64.2463 268.176 64.8966C269.525 65.5933 270.875 66.0578 272.271 66.4294L273.528 62.667C274.831 62.9457 276.134 63.0386 277.437 62.9922L278.088 66.8939C281.02 66.6617 283.859 65.7327 286.326 64.1998L284.557 60.6232C285.628 59.9265 286.652 59.0904 287.536 58.0685L290.794 60.3445ZM273.388 54.6313C269.851 52.8197 268.455 48.5464 270.27 45.0162C272.085 41.4861 276.366 40.0926 279.903 41.9041C283.44 43.7157 284.837 47.989 283.022 51.5192C281.207 55.0029 276.878 56.3963 273.388 54.6313Z" fill="#336383"/>
<path d="M30.8828 237.856H290.386" stroke="#416F8D" stroke-miterlimit="10"/>
<path d="M276.754 125.79C276.754 184.501 229.152 232.096 170.431 232.096C111.71 232.096 64.1069 184.501 64.1069 125.79C64.1069 67.0777 111.71 19.483 170.431 19.483C229.152 19.483 276.754 67.0777 276.754 125.79Z" fill="#3B455A"/>
<path d="M217.525 218.223H117.846V74.8212H228.476V208.882C228.476 214.041 223.573 218.223 217.525 218.223Z" fill="#F7F7F7"/>
<path d="M117.821 81.479H228.267V74.8214H117.821V81.479Z" fill="#A4EFFF"/>
<path d="M200.579 153.686C202.068 153.686 202.068 152.003 200.579 152.003C182.1 152.003 163.621 152.003 145.142 152.003C143.652 152.003 143.652 153.686 145.142 153.686H200.579Z" fill="#9EA6AD"/>
<path d="M170.637 86.0965C161.754 86.0965 153.804 90.0297 148.414 96.2446L170.637 115.498L192.859 96.2446C187.47 90.0297 179.52 86.0965 170.637 86.0965Z" fill="#D7E8F4"/>
<path d="M201.858 111.189L172.753 115.373V144.774C189.007 144.774 202.159 131.624 202.159 115.373C202.159 113.952 202.053 112.556 201.858 111.189Z" fill="#00ABFF"/>
<path d="M148.445 96.3422C137.969 108.767 139.549 127.298 151.976 137.772C153.063 138.688 154.199 139.506 155.37 140.238L170.929 115.292L148.445 96.3422Z" fill="#7DB5DB"/>
<path d="M170.888 144.732C165.378 144.734 159.849 143.196 154.991 140.063L170.891 115.332L170.888 144.732Z" fill="#A4EFFF"/>
<path d="M203.353 109.57C202.54 103.848 200.08 98.6631 196.471 94.5007L174.248 113.754L203.353 109.57Z" fill="#3B455A"/>
<path d="M141.655 211.779H130.853V185.764H141.655V211.779Z" fill="#A4EFFF"/>
<path d="M141.655 187.916H130.853V175.691H141.655V187.916Z" fill="#D7E8F4"/>
<path d="M212.771 212.953H201.968V186.938H212.771V212.953Z" fill="#A4EFFF"/>
<path d="M212.841 189.09H201.968V164.981H212.841V189.09Z" fill="#D7E8F4"/>
<path d="M189.067 212.366H178.265V184.884H189.067V212.366Z" fill="#A4EFFF"/>
<path d="M189.067 200.679H178.265V182.439H189.067V200.679Z" fill="#D7E8F4"/>
<path d="M165.36 212.22H154.558V175.312H165.36V212.22Z" fill="#A4EFFF"/>
<path d="M165.36 190.541H154.558V161.02H165.36V190.541Z" fill="#D7E8F4"/>
<path d="M122.039 77.429C121.386 77.429 120.855 77.9599 120.855 78.6125C120.855 79.2652 121.386 79.7962 122.039 79.7962C122.692 79.7962 123.223 79.2652 123.223 78.6125C123.223 77.9599 122.692 77.429 122.039 77.429ZM122.039 80.033C121.255 80.033 120.618 79.3958 120.618 78.6125C120.618 77.8294 121.255 77.1922 122.039 77.1922C122.822 77.1922 123.459 77.8294 123.459 78.6125C123.459 79.3958 122.822 80.033 122.039 80.033Z" fill="white"/>
<path d="M126.42 77.429C125.767 77.429 125.236 77.9599 125.236 78.6125C125.236 79.2652 125.767 79.7962 126.42 79.7962C127.073 79.7962 127.604 79.2652 127.604 78.6125C127.604 77.9599 127.073 77.429 126.42 77.429ZM126.42 80.033C125.637 80.033 125 79.3958 125 78.6125C125 77.8294 125.637 77.1922 126.42 77.1922C127.204 77.1922 127.841 77.8294 127.841 78.6125C127.841 79.3958 127.204 80.033 126.42 80.033Z" fill="white"/>
<path d="M130.801 77.429C130.148 77.429 129.617 77.9599 129.617 78.6125C129.617 79.2652 130.148 79.7962 130.801 79.7962C131.454 79.7962 131.985 79.2652 131.985 78.6125C131.985 77.9599 131.454 77.429 130.801 77.429ZM130.801 80.033C130.018 80.033 129.38 79.3958 129.38 78.6125C129.38 77.8294 130.018 77.1922 130.801 77.1922C131.584 77.1922 132.222 77.8294 132.222 78.6125C132.222 79.3958 131.584 80.033 130.801 80.033Z" fill="white"/>
<path d="M120.823 222.399H50.3052V113.507H64.8065C64.3429 117.536 64.1044 121.636 64.1044 125.79C64.1044 165.376 85.746 199.91 117.845 218.207V218.223H117.872C119.912 219.384 121.996 220.482 124.118 221.51C123.15 222.075 122.025 222.399 120.823 222.399Z" fill="#C9DBEA"/>
<path d="M124.121 221.51C121.999 220.482 119.915 219.385 117.875 218.223H126.931C126.392 219.61 125.393 220.768 124.121 221.51ZM117.847 218.207C85.7486 199.91 64.1069 165.377 64.1069 125.79C64.1069 121.636 64.3455 117.536 64.8091 113.507H117.847V218.207Z" fill="#3A455A"/>
<path d="M126.93 218.223H117.846V113.507H127.373V215.851C127.373 216.688 127.216 217.488 126.93 218.223Z" fill="#E9EBEC"/>
<path d="M115.049 219.353H41.5503V105.268H124.59V209.813C124.59 215.081 120.319 219.353 115.049 219.353Z" fill="#7DB5DB"/>
<path d="M117.587 156.88H50.3638V114.378H117.587V156.88Z" fill="white"/>
<path d="M92.9472 129.118C93.2259 129.68 93.7087 130.161 94.6225 130.502C96.3245 131.137 98.6129 130.679 99.5941 129.254C101.234 126.872 100.773 123.463 102.538 120.988C103.255 119.983 104.347 119.168 105.635 118.801C106.922 118.434 108.4 118.542 109.546 119.173C111.412 120.201 112.058 122.325 112.076 124.252C112.111 127.955 111.593 131.782 110.926 135.436C110.604 137.204 110.107 139.02 108.825 140.417C107.087 142.311 104.225 143.1 101.488 143.522C94.5634 144.589 87.4604 143.937 80.4687 143.282C74.8448 142.755 69.2208 142.228 63.5969 141.701C62.0117 141.552 57.3437 141.792 56.3945 140.694C55.4678 139.621 56.1961 135.987 56.7381 134.865C57.9452 132.367 61.2466 130.957 64.3454 131.116C71.3347 131.473 68.5718 124.175 70.809 120.71C71.9974 118.869 74.6148 117.546 76.8688 118.313C79.0186 119.045 79.9165 121.202 80.976 122.993C81.526 123.923 82.3075 124.886 83.4832 125.087C85.4821 125.429 87.1498 123.398 89.1848 123.476C90.3899 123.522 91.4151 124.335 91.9356 125.285C92.6431 126.578 92.3964 128.007 92.9472 129.118Z" fill="#D7E8F4"/>
<path d="M113.193 154.574C113.19 154.573 113.204 151.514 113.204 151.346C113.221 146.782 113.22 142.216 113.226 137.651C113.231 133.289 113.591 128.929 113.52 124.578C113.488 122.565 112.619 121.513 110.499 122.053C108.411 122.585 106.502 123.823 105.188 125.533C104.299 126.69 103.559 128.14 102.175 128.606C99.7018 129.439 97.6781 126.654 95.4572 125.284C93.0656 123.808 89.7367 124.057 87.5908 125.871C84.9978 128.063 84.403 131.854 82.2083 134.446C79.7927 137.298 75.4052 138.263 72.0152 136.689C70.6226 136.042 69.4257 135.034 68.0529 134.346C62.6091 131.617 55.0403 135.543 54.1367 141.564V154.024C54.1367 154.024 113.303 154.683 113.193 154.574Z" fill="#A4EFFF"/>
<path d="M56.5151 168.411H51.4624V163.359H56.5151V168.411Z" fill="#00ABFF"/>
<path d="M56.5151 175.879H51.4624V170.827H56.5151V175.879Z" fill="#A4EFFF"/>
<path d="M75.4077 166.435H60.689V164.897H75.4077V166.435Z" fill="#F7F7F7"/>
<path d="M75.1885 174.562H60.4697V173.024H75.1885V174.562Z" fill="#F7F7F7"/>
<path d="M116.269 186.155H52.1216V184.494H116.269V186.155Z" fill="#F7F7F7"/>
<path d="M80.6803 212.08H52.1216V189.319H80.6803V212.08Z" fill="#3B455A"/>
<path d="M116.268 199.45H85.0732V189.539H116.268V199.45Z" fill="#A4EFFF"/>
<path d="M115.939 211.971H84.7446V202.059H115.939V211.971Z" fill="#00ABFF"/>
<path d="M88.6291 58.1221H36.1459C35.9437 58.1221 35.7798 58.3005 35.7798 58.5209V86.3197C35.7798 93.1732 40.8794 98.729 47.1706 98.729H68.9314L77.829 111.21C78.067 111.544 78.5927 111.38 78.5989 110.97L78.7815 98.729H88.6291C88.8313 98.729 88.9952 98.5503 88.9952 98.3302V58.5209C88.9952 58.3005 88.8313 58.1221 88.6291 58.1221Z" fill="#00ABFF"/>
<path d="M42.6519 66.127H75.3437V64.7652H42.6519V66.127Z" fill="#D7E8F4"/>
<path d="M42.6514 76.5122H81.6433V75.1502H42.6514V76.5122Z" fill="#D7E8F4"/>
<path d="M42.6514 86.897H81.6433V85.535H42.6514V86.897Z" fill="#D7E8F4"/>
<path d="M122.776 71.1555H83.8486V43.5661H120.3L128.107 51.8101V65.4586C128.107 68.605 125.72 71.1555 122.776 71.1555Z" fill="#A4EFFF"/>
<path d="M128.076 51.8757L120.239 52.0728V43.566L128.076 51.8757Z" fill="#00ABFF"/>
<path d="M119.359 51.9089H94.5249V50.7264H119.359V51.9089Z" fill="#7DB5DB"/>
<path d="M119.357 57.6235H90.5894V56.4412H119.357V57.6235Z" fill="#7DB5DB"/>
<path d="M119.357 63.3389H90.5894V62.1563H119.357V63.3389Z" fill="#7DB5DB"/>
<path d="M201.182 126.378C201.035 126.378 200.907 126.27 200.887 126.12C200.831 125.716 200.795 125.304 200.777 124.898C200.771 124.733 200.901 124.593 201.065 124.587C201.232 124.581 201.37 124.709 201.376 124.874C201.392 125.261 201.426 125.653 201.48 126.038C201.502 126.202 201.388 126.353 201.224 126.375L201.182 126.378Z" fill="#EAC5B0"/>
<path d="M276.108 199.37H247.168C247.863 198.647 248.548 197.912 249.223 197.168H254.645V197.308H254.769V197.168H262.969V197.308H263.092V197.168H271.294V197.308H271.418V197.168H276.108V199.37Z" fill="#C9DBEA"/>
<path d="M247.17 199.37H228.477V197.168H229.676V197.308H229.8V197.168H238V197.308H238.124V197.168H246.323V197.308H246.447V197.168H249.224C248.549 197.912 247.865 198.647 247.17 199.37Z" fill="#3A455A"/>
<path d="M228.477 199.37H220.76V159.364H222.653V197.168H228.477V199.37Z" fill="#E9EBEC"/>
<path d="M222.652 197.169H278.375V157.043H222.652V197.169Z" fill="#00ABFF"/>
<path d="M222.652 160.238H278.299V157.044H222.652V160.238Z" fill="#A4EFFF"/>
<path d="M271.418 197.309H271.294V197.169H271.418V197.309ZM263.093 197.309H262.969V197.169H263.093V197.309ZM254.769 197.309H254.646V197.169H254.769V197.309Z" fill="#C4D5E4"/>
<path d="M246.446 197.309H246.323V197.169H246.446V197.309ZM238.123 197.309H237.999V197.169H238.123V197.309ZM229.8 197.309H229.676V197.169H229.8V197.309Z" fill="#394458"/>
<path d="M271.42 197.168H271.296V190.253H263.095V197.168H262.971V190.253H254.771V197.168H254.647V190.253H246.448V197.168H246.324V190.253H238.124V197.168H238.001V190.253H229.801V197.168H229.677V190.253H222.847V190.129H229.677V182.546H222.847V182.422H229.677V174.84H222.847V174.716H229.677V167.134H222.847V167.01H229.677V160.299H229.801V167.01H238.001V160.299H238.124V167.01H246.324V160.299H246.448V167.01H254.647V160.299H254.771V167.01H262.971V160.299H263.095V167.01H271.296V160.299H271.42V167.01H278.26V167.134H271.42V174.716H278.26V174.84H271.42V182.422H278.26V182.546H271.42V190.129H278.26V190.253H271.42V197.168ZM263.095 182.546V190.129H271.296V182.546H263.095ZM254.771 182.546V190.129H262.971V182.546H254.771ZM246.448 182.546V190.129H254.647V182.546H246.448ZM238.124 182.546V190.129H246.324V182.546H238.124ZM229.801 182.546V190.129H238.001V182.546H229.801ZM263.095 174.84V182.422H271.296V174.84H263.095ZM254.771 174.84V182.422H262.971V174.84H254.771ZM246.448 174.84V182.422H254.647V174.84H246.448ZM238.124 174.84V182.422H246.324V174.84H238.124ZM229.801 174.84V182.422H238.001V174.84H229.801ZM263.095 167.134V174.716H271.296V167.134H263.095ZM254.771 167.134V174.716H262.971V167.134H254.771ZM246.448 167.134V174.716H254.647V167.134H246.448ZM238.124 167.134V174.716H246.324V167.134H238.124ZM229.801 167.134V174.716H238.001V167.134H229.801Z" fill="#305295"/>
<path d="M272.378 165.382C271.44 165.382 270.677 166.143 270.677 167.081C270.677 167.555 270.873 167.983 271.184 168.292C269.214 169.989 267.241 171.687 265.271 173.384C265.121 173.513 264.969 173.642 264.82 173.771C264.528 173.537 264.159 173.396 263.755 173.396C262.817 173.396 262.054 174.157 262.054 175.096C262.054 175.693 262.364 176.218 262.831 176.521C262.4 177.56 261.967 178.6 261.535 179.639C261.352 180.083 261.166 180.526 260.982 180.969C260.858 180.941 260.731 180.924 260.599 180.924C259.97 180.924 259.423 181.265 259.129 181.77C257.225 180.567 255.32 179.363 253.416 178.159C252.004 177.268 250.592 176.375 249.181 175.484C249.259 175.288 249.305 175.076 249.305 174.853C249.305 173.914 248.542 173.153 247.604 173.153C246.665 173.153 245.903 173.914 245.903 174.853C245.903 174.972 245.917 175.088 245.939 175.2C243.267 176.29 240.596 177.38 237.927 178.47C237.663 178.577 237.402 178.684 237.14 178.791C236.879 178.188 236.28 177.767 235.581 177.767C234.642 177.767 233.88 178.528 233.88 179.467C233.88 179.954 234.087 180.392 234.415 180.703C234.02 181.153 233.622 181.603 233.225 182.053C231.332 184.202 229.438 186.351 227.545 188.5C227.273 188.317 226.946 188.209 226.595 188.209C225.654 188.209 224.894 188.971 224.894 189.909C224.894 190.848 225.654 191.609 226.595 191.609C227.533 191.609 228.294 190.848 228.294 189.909C228.294 189.546 228.18 189.211 227.986 188.935C229.603 187.1 231.218 185.265 232.836 183.43C233.538 182.634 234.239 181.837 234.94 181.041C235.138 181.122 235.353 181.167 235.581 181.167C236.519 181.167 237.28 180.406 237.28 179.467C237.28 179.444 237.278 179.422 237.278 179.399C237.316 179.383 237.354 179.367 237.394 179.352C240.32 178.157 243.245 176.963 246.172 175.769C246.476 176.24 247.003 176.553 247.604 176.553C248.097 176.553 248.54 176.342 248.85 176.006C250.129 176.815 251.409 177.624 252.689 178.433C254.765 179.745 256.842 181.058 258.918 182.37C258.906 182.453 258.898 182.537 258.898 182.624C258.898 183.563 259.659 184.324 260.599 184.324C261.537 184.324 262.298 183.563 262.298 182.624C262.298 182.036 262 181.518 261.547 181.213C262.164 179.728 262.781 178.243 263.398 176.757C263.514 176.782 263.634 176.795 263.755 176.795C264.694 176.795 265.456 176.034 265.456 175.096C265.456 174.783 265.371 174.491 265.223 174.24C265.572 173.939 265.92 173.639 266.269 173.339C267.762 172.053 269.258 170.767 270.751 169.48C271.073 169.203 271.396 168.926 271.717 168.648C271.921 168.734 272.145 168.781 272.378 168.781C273.317 168.781 274.079 168.02 274.079 167.081C274.079 166.143 273.317 165.382 272.378 165.382Z" fill="#F7F7F7"/>
<path d="M283.085 139.344L276.416 150.023L238.579 126.19L245.247 115.511L283.085 139.344Z" fill="#F7F7F7"/>
<path d="M296.12 154.815L296.042 154.938C293.939 158.307 290.184 159.759 287.658 158.182L258.613 140.358L266.246 127.523L295.353 145.86C297.878 147.437 298.222 151.447 296.12 154.815Z" fill="#00ABFF"/>
<path d="M243.058 129.116L241.992 128.341L243.176 129.086L243.058 129.116Z" fill="#384155"/>
<path d="M243.176 129.086L241.992 128.341L241.5 127.983C243.002 126.329 244.375 124.518 245.601 122.557C246.618 120.928 247.496 119.251 248.239 117.542L259.637 124.813L243.176 129.086Z" fill="#EAEAEB"/>
<path d="M241.11 119.753C231.572 135.025 211.46 139.676 196.185 130.142C180.911 120.607 176.258 100.498 185.794 85.2255C195.33 69.9531 215.443 65.3018 230.718 74.8362C245.993 84.3707 250.645 104.481 241.11 119.753ZM233.523 70.3443C215.766 59.2611 192.387 64.6682 181.302 82.421C170.217 100.174 175.625 123.551 193.38 134.634C211.136 145.717 234.517 140.31 245.602 122.557C256.686 104.804 251.278 81.4275 233.523 70.3443Z" fill="#00ABFF"/>
<path d="M228.475 131.426V103.422C228.561 103.409 228.645 103.397 228.731 103.384C228.894 103.36 229.006 103.208 228.982 103.045C228.96 102.896 228.833 102.789 228.687 102.789C228.673 102.789 228.657 102.79 228.643 102.792C228.587 102.8 228.531 102.808 228.475 102.817V83.7229C230.132 85.2379 231.58 87.0081 232.752 89.0042C233.223 89.8103 233.956 90.1451 234.684 90.1451C236.246 90.1451 237.797 88.613 236.783 86.8859C234.658 83.2592 231.797 80.246 228.475 77.9706V74.8212H222.394C219.335 73.6866 216.073 73.0863 212.751 73.0863C210.844 73.0863 208.918 73.2841 206.999 73.6925C205.677 73.9736 204.395 74.3529 203.158 74.8212H196.195C201.389 71.5884 207.396 69.886 213.478 69.8852C213.48 69.8852 213.482 69.8852 213.482 69.8852C213.483 69.8852 213.483 69.8852 213.483 69.8852C219.295 69.886 225.179 71.4395 230.49 74.6952C230.518 74.7124 230.546 74.7296 230.573 74.7469C230.581 74.7521 230.589 74.7571 230.599 74.7623C230.623 74.7773 230.647 74.7924 230.671 74.8076C230.687 74.817 230.703 74.8268 230.717 74.836C240.556 80.9778 245.988 91.5091 246.058 102.307C245.831 102.292 245.603 102.278 245.378 102.264C245.372 102.264 245.366 102.264 245.362 102.264C245.204 102.264 245.07 102.385 245.06 102.545C245.05 102.71 245.176 102.852 245.342 102.862C245.577 102.876 245.817 102.891 246.058 102.907C245.988 108.677 244.387 114.501 241.109 119.753C241.097 119.772 241.085 119.79 241.073 119.81C241.065 119.82 241.059 119.832 241.051 119.843C241.035 119.868 241.021 119.891 241.005 119.916C237.807 124.974 233.438 128.856 228.475 131.426ZM233.432 102.273C233.424 102.273 233.417 102.273 233.411 102.274C232.604 102.333 231.801 102.405 231.023 102.489C230.857 102.507 230.739 102.655 230.757 102.819C230.773 102.973 230.903 103.087 231.055 103.087L231.087 103.085C231.859 103.001 232.654 102.929 233.452 102.871C233.618 102.859 233.742 102.715 233.73 102.551C233.718 102.393 233.588 102.273 233.432 102.273ZM240.58 102.08C240.418 102.08 240.29 102.214 240.288 102.375C240.286 102.541 240.418 102.677 240.584 102.679C241.359 102.691 242.159 102.712 242.964 102.743L242.976 102.744C243.135 102.744 243.267 102.617 243.273 102.456C243.281 102.29 243.151 102.151 242.986 102.145C242.179 102.114 241.373 102.092 240.592 102.08C240.588 102.08 240.584 102.08 240.58 102.08ZM238.198 102.076C237.39 102.085 236.585 102.106 235.802 102.138C235.637 102.145 235.509 102.284 235.515 102.45C235.523 102.611 235.655 102.737 235.814 102.737L235.826 102.737C236.603 102.705 237.404 102.684 238.204 102.675C238.37 102.673 238.502 102.537 238.5 102.372C238.498 102.207 238.36 102.078 238.198 102.076ZM237.971 93.0028C236.97 93.0028 235.992 93.5032 235.423 94.4143C234.547 95.8196 234.974 97.6697 236.379 98.547C236.874 98.8554 237.423 99.0025 237.967 99.0025C238.967 99.0025 239.945 98.5021 240.514 97.591C241.391 96.1859 240.963 94.3356 239.558 93.4583C239.063 93.1499 238.514 93.0028 237.971 93.0028Z" fill="#8997A7"/>
<path d="M225.597 81.479H200.18C202.106 80.1783 204.254 79.1594 206.58 78.4907C208.633 77.9003 210.725 77.6166 212.795 77.6166C217.353 77.6166 221.82 78.9878 225.597 81.479ZM193.176 81.479H188.517C190.752 78.8195 193.352 76.5912 196.196 74.8214H203.158C199.331 76.2716 195.942 78.5768 193.176 81.479ZM228.266 77.8276C226.432 76.596 224.459 75.5871 222.395 74.8214H228.266V77.8276Z" fill="#98B2DF"/>
<path d="M181.087 106.444C180.925 105.123 180.843 103.792 180.843 102.457C180.843 97.9638 181.772 93.4285 183.698 89.1485C184.891 89.741 186.037 90.4117 187.131 91.1545C186.357 93.2329 185.821 95.4161 185.552 97.6622C185.418 98.7835 185.384 99.9147 185.402 101.043C185.41 101.569 185.564 102.006 185.811 102.351L181.087 106.444ZM190.05 98.6781C190.19 97.1468 190.48 95.6473 190.907 94.1994C191.59 94.8498 192.241 95.5321 192.859 96.2447L190.05 98.6781Z" fill="#D7E8F4"/>
<path d="M197.664 131.014C197.166 130.738 196.672 130.447 196.184 130.142C189.846 126.186 185.337 120.409 182.912 113.913L201.857 111.189C202.053 112.556 202.159 113.952 202.159 115.373C202.159 116.911 202.041 118.42 201.813 119.894C201.801 119.892 201.789 119.891 201.778 119.891C201.652 119.891 201.536 119.97 201.492 120.095C201.228 120.879 201.035 121.675 200.915 122.461C200.891 122.624 201.003 122.777 201.167 122.802L201.213 122.805C200.448 125.746 199.24 128.508 197.664 131.014Z" fill="#849EC7"/>
<path d="M182.447 112.575C181.927 110.975 181.532 109.338 181.263 107.678L186.621 103.036C186.984 103.219 187.393 103.312 187.797 103.312C188.906 103.312 189.979 102.613 189.956 101.176C189.951 100.829 189.953 100.485 189.963 100.141L196.473 94.5006C200.083 98.663 202.542 103.848 203.355 109.57L182.447 112.575Z" fill="#8997A7"/>
<path d="M213.42 135.093C213.42 135.093 213.42 135.093 213.418 135.093C213.42 135.093 213.42 135.093 213.42 135.093ZM213.424 135.093C218.653 135.092 223.828 133.834 228.476 131.426C233.439 128.856 237.808 124.974 241.006 119.916C234.809 129.714 224.237 135.092 213.424 135.093ZM196.185 130.142C186.281 123.959 180.842 113.33 180.843 102.457C180.843 103.792 180.925 105.123 181.087 106.444C181.137 106.855 181.196 107.269 181.262 107.678C181.531 109.338 181.926 110.975 182.446 112.575C182.592 113.024 182.748 113.47 182.913 113.913C185.338 120.409 189.848 126.186 196.185 130.142ZM241.052 119.843C241.06 119.833 241.066 119.82 241.074 119.81C241.066 119.82 241.06 119.833 241.052 119.843ZM241.11 119.753C244.388 114.501 245.989 108.677 246.059 102.908C246.059 102.779 246.061 102.65 246.061 102.521C246.061 108.417 244.462 114.384 241.11 119.753ZM185.795 85.2254C185.828 85.1723 185.861 85.119 185.895 85.0663C185.861 85.119 185.828 85.1723 185.795 85.2254ZM185.906 85.0479C192.105 75.2589 202.671 69.8859 213.478 69.8853C207.397 69.8861 201.39 71.5885 196.196 74.8213C193.352 76.5911 190.753 78.8194 188.517 81.479C187.58 82.5934 186.706 83.7843 185.906 85.0479ZM230.672 74.8077C230.648 74.7926 230.624 74.7774 230.6 74.7624C230.624 74.7774 230.648 74.7926 230.672 74.8077ZM230.574 74.747C230.546 74.7297 230.518 74.7125 230.491 74.6953C230.518 74.7125 230.546 74.7297 230.574 74.747ZM213.484 69.8853C213.484 69.8853 213.484 69.8853 213.482 69.8853C213.484 69.8853 213.484 69.8853 213.484 69.8853Z" fill="#849EC7"/>
<path d="M234.685 90.1453C233.957 90.1453 233.224 89.8105 232.753 89.0044C231.581 87.0083 230.133 85.238 228.476 83.7231V77.9708C231.798 80.2462 234.659 83.2594 236.784 86.8861C237.798 88.6132 236.247 90.1453 234.685 90.1453ZM222.395 74.8214H203.159C204.397 74.3531 205.678 73.9738 207 73.6927C208.919 73.2843 210.845 73.0865 212.752 73.0865C216.074 73.0865 219.336 73.6868 222.395 74.8214Z" fill="#A3AEBA"/>
<path d="M186.621 103.036C186.305 102.876 186.024 102.647 185.812 102.351L190.05 98.678C190.006 99.1623 189.977 99.6506 189.963 100.141L186.621 103.036ZM190.907 94.1994C189.736 93.0851 188.473 92.0655 187.132 91.1544C188.479 87.5375 190.546 84.2384 193.176 81.4789H200.18C195.712 84.4932 192.433 89.0191 190.907 94.1994ZM228.476 83.723C227.574 82.8974 226.61 82.1478 225.597 81.4789H228.267V77.8275C228.337 77.8748 228.406 77.9227 228.476 77.9706V83.723Z" fill="#ECF3F7"/>
<path d="M228.265 81.479H225.596C221.819 78.9878 217.352 77.6166 212.794 77.6166C210.724 77.6166 208.632 77.9003 206.579 78.4907C204.253 79.1594 202.105 80.1783 200.179 81.479H193.175C195.941 78.5768 199.33 76.2716 203.157 74.8214H222.394C224.458 75.5871 226.43 76.596 228.265 77.8276V81.479Z" fill="#AFC3E6"/>
<path d="M185.81 102.351C185.563 102.006 185.409 101.569 185.4 101.043C185.383 99.9146 185.416 98.7834 185.55 97.6622C185.819 95.416 186.355 93.2328 187.13 91.1544C188.471 92.0655 189.734 93.0851 190.905 94.1994C190.478 95.6472 190.189 97.1467 190.049 98.678L185.81 102.351Z" fill="#E0EDF6"/>
<path d="M187.795 103.312C187.392 103.312 186.983 103.219 186.62 103.036L189.962 100.141C189.952 100.485 189.95 100.829 189.955 101.176C189.977 102.613 188.905 103.312 187.795 103.312Z" fill="#A3AEBA"/>
<path d="M237.967 99.0027C237.424 99.0027 236.875 98.8556 236.38 98.5472C234.974 97.6698 234.547 95.8198 235.423 94.4145C235.992 93.5034 236.971 93.003 237.971 93.003C238.514 93.003 239.063 93.1501 239.558 93.4585C240.964 94.3358 241.391 96.1861 240.514 97.5912C239.945 98.5022 238.967 99.0027 237.967 99.0027Z" fill="#AEB7C2"/>
<path d="M258.999 139.933L266.262 127.722C266.512 127.302 266.402 126.762 266.011 126.472L265.883 126.377C265.428 126.04 264.779 126.173 264.495 126.663L257.344 138.959C257.076 139.42 257.238 140.01 257.703 140.268L257.721 140.278C258.171 140.527 258.738 140.374 258.999 139.933Z" fill="#7DB5DB"/>
<path d="M245.256 102.722C245.228 110.557 242.383 118.152 237.207 124.044C232.099 129.86 224.986 133.615 217.337 134.699C209.515 135.807 201.441 133.824 194.907 129.442C188.542 125.174 183.897 118.591 181.861 111.223C179.749 103.582 180.623 95.2502 184.183 88.1811C187.612 81.3713 193.509 75.8908 200.541 72.9463C207.88 69.8722 216.213 69.6875 223.718 72.2859C230.945 74.7881 237.083 79.9904 240.928 86.572C243.785 91.4604 245.236 97.0713 245.256 102.722C245.26 103.84 246.995 103.841 246.991 102.722C246.963 94.8721 244.246 87.3134 239.317 81.2134C234.501 75.2578 227.603 71.0934 220.132 69.4809C212.382 67.8083 204.186 68.9733 197.167 72.6295C190.42 76.1439 184.979 82.0263 181.899 88.967C178.679 96.2219 178.148 104.506 180.314 112.133C182.408 119.504 187.089 125.951 193.283 130.419C199.652 135.013 207.608 137.165 215.423 136.628C223.169 136.095 230.536 132.818 236.216 127.548C243.08 121.182 246.957 112.056 246.991 102.722C246.995 101.603 245.26 101.604 245.256 102.722Z" fill="#F7F7F7"/>
<path d="M79.1668 231.541C73.3494 222.762 61.1095 200.559 71.7205 192.942C77.5379 188.761 85.2634 192.57 88.9866 201.814C92.5235 210.592 93.8732 220.997 95.3624 231.448" fill="white"/>
<path d="M79.3061 231.448C78.003 229.451 76.793 227.454 75.6295 225.364C74.2333 222.855 72.8837 220.254 71.7202 217.606C70.5102 214.866 69.4863 212.079 68.6951 209.199C68.0436 206.598 67.5782 203.904 67.7178 201.256C67.8574 198.98 68.4624 196.658 69.9517 194.8C71.4875 192.849 73.861 191.502 76.3741 191.409C79.1199 191.27 81.6796 192.57 83.6808 194.335C86.3335 196.704 88.0089 199.863 89.2655 203.207C90.7082 207.109 91.7321 211.196 92.5698 215.238C93.4075 219.557 94.059 223.877 94.6641 228.243C94.8037 229.312 94.9898 230.38 95.1295 231.495C95.176 231.727 95.5483 231.634 95.5018 231.402C94.8502 226.943 94.2452 222.484 93.454 218.025C92.7094 213.798 91.7786 209.571 90.429 205.483C89.2655 201.907 87.8693 198.423 85.3562 195.543C83.4946 193.406 80.9815 191.641 78.1426 191.223C75.5364 190.805 72.9768 191.641 70.929 193.313C69.114 194.8 68.0436 196.937 67.5782 199.213C67.0663 201.767 67.2524 204.415 67.7644 206.97C68.3228 209.896 69.2536 212.729 70.3706 215.516C71.4875 218.303 72.7906 221.044 74.1868 223.691C75.3968 225.967 76.7464 228.243 78.1426 230.427C78.4219 230.845 78.7011 231.263 78.9803 231.727C79.1665 231.727 79.3992 231.588 79.3061 231.448Z" fill="#336383"/>
<path d="M74.6987 191.595L88.4744 231.541" stroke="#336383" stroke-miterlimit="10" stroke-linejoin="round"/>
<path d="M55.756 231.541C50.7297 225.038 39.6999 208.642 48.8682 202.975C53.8944 199.863 60.0841 202.696 63.2953 209.524C66.3669 216.027 67.5304 223.691 68.787 231.449" fill="white"/>
<path d="M55.897 231.448C53.4769 228.243 51.1965 224.899 49.3349 221.369C48.2645 219.418 47.3337 217.374 46.5891 215.237C45.9841 213.379 45.5187 211.382 45.5652 209.385C45.6118 207.666 46.0772 205.947 47.1941 204.6C48.4972 203.068 50.4984 202.046 52.4996 201.86C54.6869 201.674 56.8277 202.464 58.5962 203.764C60.737 205.344 62.2728 207.62 63.3432 210.035C66.0425 215.981 67.1595 222.576 68.1833 228.986C68.323 229.822 68.4626 230.659 68.6022 231.448C68.6487 231.68 69.021 231.588 68.9745 231.355C67.9041 224.713 66.9268 217.931 64.4137 211.614C63.3432 208.967 62.0401 206.412 59.9459 204.415C58.2705 202.882 56.2227 201.721 53.8958 201.488C51.755 201.303 49.6141 201.999 47.9387 203.346C46.5425 204.461 45.6583 206.04 45.3325 207.805C45.0068 209.71 45.2394 211.661 45.7048 213.519C46.2633 215.702 47.101 217.792 48.0783 219.789C49.9865 223.645 52.3134 227.268 54.9196 230.705C55.1523 231.03 55.385 231.309 55.6177 231.634C55.7573 231.773 55.99 231.588 55.897 231.448Z" fill="#336383"/>
<path d="M51.4761 201.999L63.3436 231.541" stroke="#336383" stroke-miterlimit="10" stroke-linejoin="round"/>
<path d="M114.631 231.448C100.855 206.459 91.9196 181.701 103.089 169.949C114.119 158.291 125.661 172.086 128.453 184.349C131.897 199.352 132.409 215.563 132.316 231.448" fill="white"/>
<path d="M114.631 231.448C100.855 206.459 91.9196 181.701 103.089 169.949C114.119 158.291 125.661 172.086 128.453 184.349C131.897 199.352 132.409 215.563 132.316 231.448" stroke="#336383" stroke-miterlimit="10" stroke-linejoin="round"/>
<path d="M107.137 166.93L123.705 231.402" stroke="#336383" stroke-miterlimit="10" stroke-linejoin="round"/>
<path d="M93.9188 231.495C88.4272 218.303 76.0943 191.548 84.7971 183.327C90.3353 178.032 100.388 184.535 105.554 196.054C110.44 207.016 111.93 218.303 114.862 231.356" fill="white"/>
<path d="M94.0601 231.495C92.8501 228.522 91.547 225.549 90.337 222.53C88.8943 219.046 87.5446 215.516 86.2881 211.94C85.0315 208.363 83.9146 204.786 83.1234 201.07C82.4253 197.912 81.9134 194.614 82.053 191.362C82.1461 188.854 82.7045 186.207 84.2869 184.209C85.1246 183.187 86.195 182.398 87.405 181.98C88.6616 181.562 90.0577 181.562 91.3608 181.84C94.7117 182.584 97.5971 184.952 99.831 187.414C102.903 190.759 104.997 194.8 106.626 198.98C108.394 203.439 109.651 208.084 110.768 212.729C111.931 217.653 112.862 222.577 113.886 227.5C114.165 228.801 114.444 230.055 114.724 231.355C114.77 231.588 115.142 231.495 115.096 231.263C113.932 226.153 112.955 220.997 111.838 215.841C110.814 211.057 109.651 206.319 108.022 201.674C106.486 197.262 104.625 192.895 101.786 189.133C99.5983 186.207 96.8059 183.513 93.362 182.073C90.8024 181.004 87.8239 180.772 85.4504 182.491C83.3561 183.977 82.2857 186.392 81.8668 188.854C81.3549 191.92 81.6341 195.032 82.1461 198.098C82.7511 201.767 83.7749 205.39 84.8919 208.967C86.1019 212.683 87.4515 216.306 88.8943 219.929C90.1974 223.18 91.547 226.339 92.8966 229.544C93.1759 230.194 93.4551 230.845 93.7343 231.541C93.874 231.727 94.1532 231.634 94.0601 231.495Z" fill="#336383"/>
<path d="M200.821 231.448C196.167 178.31 207.476 158.848 219.856 158.012C225.72 157.594 242.893 160.985 222.136 231.448" fill="white"/>
<path d="M200.913 231.448C200.541 225.828 200.122 220.208 199.982 214.587C199.843 209.803 199.889 204.972 200.122 200.188C200.308 196.147 200.68 192.106 201.239 188.111C201.704 184.813 202.356 181.562 203.193 178.31C203.891 175.663 204.776 173.108 205.846 170.6C206.73 168.602 207.801 166.651 209.104 164.886C210.174 163.446 211.384 162.099 212.827 160.985C214.037 160.056 215.387 159.266 216.829 158.801C217.946 158.43 219.11 158.198 220.32 158.151C220.925 158.151 221.576 158.151 222.088 158.244C222.786 158.337 223.484 158.523 224.136 158.801C224.834 159.08 225.625 159.545 226.23 160.009C227.021 160.613 227.673 161.356 228.231 162.192C228.976 163.214 229.535 164.375 229.953 165.537C230.558 167.069 230.931 168.649 231.257 170.274C231.629 172.365 231.815 174.501 231.908 176.638C232.001 179.379 231.908 182.119 231.722 184.86C231.489 188.343 231.024 191.781 230.512 195.218C229.86 199.445 229.023 203.672 228.138 207.852C227.021 212.961 225.765 217.978 224.369 223.041C223.624 225.828 222.879 228.615 222.042 231.402C221.995 231.588 222.274 231.634 222.321 231.495C223.159 228.615 224.043 225.735 224.834 222.855C225.579 220.208 226.23 217.514 226.928 214.819C228.045 210.175 229.116 205.53 229.953 200.885C230.652 197.122 231.257 193.313 231.675 189.458C232.001 186.392 232.28 183.327 232.327 180.215C232.373 177.799 232.327 175.337 232.048 172.922C231.862 171.064 231.536 169.206 231.024 167.395C230.652 166.001 230.14 164.654 229.441 163.4C228.93 162.425 228.278 161.496 227.487 160.659C226.835 160.009 226.137 159.405 225.346 158.987C224.648 158.616 223.95 158.291 223.159 158.105C222.507 157.919 221.856 157.826 221.158 157.826C220.366 157.78 219.575 157.826 218.831 157.965C217.341 158.198 215.945 158.709 214.642 159.405C213.199 160.195 211.896 161.263 210.733 162.471C209.337 163.911 208.173 165.583 207.196 167.302C205.986 169.438 205.008 171.714 204.171 174.037C203.193 176.917 202.402 179.843 201.844 182.816C201.099 186.439 200.634 190.108 200.308 193.778C199.889 198.191 199.703 202.65 199.703 207.062C199.656 212.358 199.843 217.606 200.122 222.855C200.308 225.689 200.494 228.569 200.82 231.402C200.773 231.541 200.913 231.541 200.913 231.448Z" fill="#336383"/>
<path d="M222.274 158.105L211.337 231.402" stroke="#336383" stroke-miterlimit="10" stroke-linejoin="round"/>
<path d="M237.399 231.448C241.169 199.863 253.967 181.655 265.509 186.578C274.957 190.619 270.07 208.224 255.364 231.402" fill="white"/>
<path d="M237.493 231.448C237.912 228.801 238.237 226.153 238.749 223.505C239.215 221.044 239.727 218.628 240.332 216.166C241.402 211.893 242.705 207.713 244.427 203.625C245.823 200.327 247.452 197.122 249.5 194.196C251.082 191.92 252.99 189.783 255.271 188.157C257.039 186.903 259.134 185.974 261.367 185.928C263.415 185.835 265.649 186.439 267.231 187.786C268.953 189.179 269.791 191.27 270.07 193.453C270.443 196.425 269.931 199.445 269.186 202.324C268.162 206.319 266.626 210.174 264.905 213.937C262.717 218.675 260.157 223.227 257.505 227.686C256.76 228.894 256.015 230.101 255.317 231.355C255.224 231.495 255.457 231.634 255.55 231.495C257.179 229.079 258.668 226.525 260.111 223.97C261.414 221.694 262.671 219.371 263.834 217.003C265.789 213.054 267.604 208.967 268.907 204.74C269.884 201.628 270.629 198.376 270.582 195.078C270.536 192.756 270.024 190.341 268.535 188.529C267.185 186.857 265.091 185.928 262.95 185.649C260.809 185.37 258.622 185.881 256.714 186.857C254.387 188.065 252.385 189.969 250.757 191.966C248.616 194.614 246.847 197.587 245.404 200.652C243.589 204.461 242.147 208.502 240.983 212.543C239.587 217.421 238.563 222.437 237.819 227.454C237.632 228.754 237.446 230.101 237.353 231.402C237.307 231.541 237.493 231.588 237.493 231.448Z" fill="#336383"/>
<path d="M265.51 186.578L246.662 231.402" stroke="#336383" stroke-miterlimit="10" stroke-linejoin="round"/>
<path d="M87.8232 181.701L104.717 231.541" stroke="#336383" stroke-miterlimit="10" stroke-linejoin="round"/>
<path d="M238.842 231.495C246.289 215.702 261.321 179.704 250.012 166.93C243.775 159.916 232.42 168.509 226.37 183.977C220.645 198.655 216.364 213.798 212.78 231.263" fill="white"/>
<path d="M238.935 231.588C240.657 227.918 242.333 224.249 243.868 220.533C245.73 216.027 247.498 211.429 249.034 206.784C250.617 202.046 251.966 197.215 252.944 192.292C253.828 187.879 254.386 183.373 254.2 178.914C254.014 175.291 253.316 171.575 251.315 168.463C250.43 167.069 249.267 165.769 247.778 165.026C246.335 164.329 244.706 164.19 243.17 164.468C241.309 164.84 239.587 165.769 238.051 166.884C236.143 168.277 234.514 169.949 233.025 171.807C231.256 174.037 229.72 176.452 228.417 178.961C226.975 181.748 225.858 184.72 224.741 187.647C222.46 193.731 220.459 199.956 218.644 206.18C216.736 212.776 215.107 219.464 213.618 226.2C213.246 227.918 212.873 229.637 212.547 231.355C212.501 231.588 212.873 231.727 212.92 231.448C214.316 224.667 215.852 217.932 217.62 211.289C219.296 205.019 221.204 198.841 223.345 192.71C224.415 189.69 225.485 186.718 226.649 183.745C227.766 180.958 229.115 178.217 230.744 175.663C232.14 173.48 233.723 171.389 235.538 169.531C237.027 168.045 238.749 166.651 240.657 165.722C242.146 164.979 243.822 164.561 245.497 164.747C247.126 164.933 248.569 165.769 249.639 166.977C252.013 169.578 253.13 173.108 253.549 176.545C254.061 180.772 253.735 185.092 253.037 189.319C252.245 194.149 251.035 198.887 249.593 203.579C248.15 208.27 246.475 212.869 244.66 217.467C243.077 221.415 241.402 225.317 239.633 229.219C239.261 230.008 238.935 230.752 238.563 231.541C238.609 231.588 238.889 231.727 238.935 231.588Z" fill="#336383"/>
<path d="M246.661 164.701L226.696 231.541" stroke="#336383" stroke-miterlimit="10" stroke-linejoin="round"/>
<path d="M252.014 231.448C261.834 211.568 270.397 206.319 278.402 207.898C284.638 209.153 285.616 218.303 272.445 231.448" fill="white"/>
<path d="M252.059 231.495C252.99 229.869 253.781 228.197 254.712 226.571C255.503 225.131 256.341 223.691 257.225 222.298C258.714 219.929 260.343 217.653 262.158 215.563C263.555 213.937 265.137 212.358 266.859 211.057C268.255 210.035 269.744 209.153 271.373 208.549C272.769 208.038 274.259 207.806 275.748 207.806C277.097 207.806 278.54 207.945 279.75 208.549C280.867 209.106 281.705 210.035 282.124 211.196C282.682 212.636 282.636 214.216 282.356 215.702C281.938 217.885 281.007 219.929 279.89 221.833C278.307 224.527 276.306 226.989 274.212 229.312C273.56 230.008 272.955 230.659 272.304 231.355C272.164 231.495 272.35 231.681 272.49 231.541C273.886 230.287 275.143 228.894 276.306 227.454C277.33 226.246 278.261 224.992 279.145 223.691C280.495 221.647 281.705 219.464 282.403 217.095C282.868 215.47 283.148 213.751 282.775 212.079C282.496 210.825 281.844 209.617 280.821 208.827C279.704 207.991 278.354 207.666 277.004 207.527C275.515 207.387 273.979 207.48 272.537 207.852C270.908 208.27 269.372 208.967 267.929 209.849C266.161 210.964 264.625 212.311 263.182 213.844C261.367 215.748 259.738 217.885 258.249 220.068C256.341 222.902 254.666 225.828 253.083 228.847C252.618 229.683 252.199 230.566 251.827 231.448C251.873 231.495 252.013 231.588 252.059 231.495Z" fill="#336383"/>
<path d="M277.609 207.991L262.577 231.448" stroke="#336383" stroke-miterlimit="10" stroke-linejoin="round"/>
</svg>
