<svg width="214" height="165" viewBox="0 0 214 165" fill="none" xmlns="http://www.w3.org/2000/svg">
<circle cx="66" cy="67" r="59" fill="#CCCCCC" fill-opacity="0.4"/>
<path d="M188.035 130.743L176.375 149.42L110.215 107.738L121.875 89.0602L188.035 130.743" fill="#F7F7F7"/>
<path d="M210.827 157.801L210.691 158.017C207.015 163.908 200.449 166.448 196.032 163.69L145.246 132.515L158.592 110.069L209.487 142.138C213.903 144.897 214.503 151.909 210.827 157.801Z" fill="#00ABFF"/>
<path d="M118.253 112.801L116.183 111.498L115.324 110.873C117.949 107.98 120.351 104.813 122.495 101.383C124.272 98.5347 125.808 95.601 127.106 92.6111L147.036 105.329L118.253 112.801Z" fill="#EAEAEB"/>
<path d="M114.641 96.4784C97.9646 123.189 62.7967 131.324 36.0885 114.649C9.3803 97.973 1.24568 62.8021 17.9199 36.0917C34.5937 9.38104 69.7612 1.24614 96.4704 17.9213C123.18 34.5968 131.314 69.7681 114.641 96.4784V96.4784ZM101.375 10.0653C70.3267 -9.31868 29.447 0.13801 10.0645 31.1869C-9.31795 62.2361 0.137644 103.121 31.1844 122.505C62.2312 141.889 103.114 132.432 122.495 101.383C141.877 70.334 132.42 29.4493 101.375 10.0653Z" fill="#00ABFF"/>
<path d="M103.407 44.6963C102.133 44.6963 100.852 44.1108 100.028 42.7011C97.9785 39.2098 95.4475 36.1138 92.5501 33.4643V23.4036C98.359 27.3833 103.362 32.6533 107.076 38.9962C108.849 42.0168 106.137 44.6963 103.407 44.6963V44.6963ZM81.9166 17.8955H48.2812C50.4456 17.0765 52.6868 16.4132 54.9979 15.9216C58.3527 15.2073 61.7214 14.8613 65.0553 14.8613C70.8642 14.8613 76.5684 15.9111 81.9166 17.8955" fill="white" fill-opacity="0.32"/>
<path d="M19.3645 67.2415C18.8118 66.9618 18.3203 66.5617 17.9492 66.0429L25.3612 59.6198C25.2837 60.4667 25.232 61.3207 25.2076 62.1778L19.3645 67.2415V67.2415ZM26.8585 51.7868C24.8117 49.838 22.603 48.0547 20.2574 46.4613C22.6131 40.1356 26.2277 34.3656 30.8266 29.5393H43.0729C35.2601 34.8111 29.5263 42.7268 26.8585 51.7868ZM92.5501 33.4642C90.9722 32.0202 89.2861 30.7092 87.5162 29.5393H92.1836V23.1532C92.3057 23.2359 92.4279 23.3197 92.5501 23.4035V33.4642Z" fill="white" fill-opacity="0.32"/>
<path d="M92.1812 29.5393H87.5137C80.9089 25.1823 73.0996 22.7841 65.1298 22.7841C61.5097 22.7841 57.8512 23.2802 54.2625 24.3129C50.1955 25.4825 46.4392 27.2644 43.0705 29.5393H30.8242C35.6613 24.4634 41.5868 20.4318 48.279 17.8954H81.9143C85.5239 19.2346 88.973 20.9991 92.1812 23.1532V29.5393Z" fill="white" fill-opacity="0.32"/>
<path d="M17.9459 66.043C17.514 65.4397 17.2445 64.6761 17.2302 63.7559C17.1995 61.7826 17.2575 59.8041 17.492 57.8431C17.9623 53.9148 18.9003 50.0964 20.2541 46.4614C22.5996 48.0548 24.8083 49.8381 26.855 51.7869C26.1094 54.3191 25.6028 56.9417 25.3578 59.6198L17.9459 66.043" fill="white" fill-opacity="0.32"/>
<path d="M21.4184 67.7246C20.7125 67.7246 19.9972 67.5623 19.3633 67.2414L25.2064 62.1777C25.189 62.7796 25.1851 63.3822 25.1942 63.9879C25.2333 66.5016 23.3587 67.725 21.4184 67.7246" fill="white" fill-opacity="0.32"/>
<path d="M109.146 60.1875C108.196 60.1875 107.236 59.9302 106.37 59.3908C103.913 57.8564 103.166 54.6207 104.698 52.1629C105.693 50.5695 107.404 49.6942 109.153 49.6942C110.102 49.6942 111.062 49.9516 111.928 50.491C114.386 52.0254 115.133 55.2614 113.6 57.7188C112.605 59.3122 110.895 60.1875 109.146 60.1875Z" fill="white" fill-opacity="0.32"/>
<path d="M145.921 131.772L158.621 110.416C159.057 109.682 158.865 108.737 158.181 108.229L157.957 108.065C157.161 107.475 156.027 107.708 155.531 108.565L143.027 130.07C142.559 130.875 142.842 131.907 143.655 132.359L143.686 132.375C144.472 132.812 145.463 132.545 145.921 131.772" fill="#7DB5DB"/>
<path d="M121.891 66.6926C121.842 80.3964 116.868 93.6791 107.816 103.983C98.8858 114.156 86.4475 120.722 73.0736 122.619C59.3961 124.557 45.2787 121.088 33.8528 113.424C22.7233 105.961 14.6023 94.4458 11.0415 81.5597C7.34911 68.1974 8.87782 53.6246 15.1018 41.2611C21.0976 29.3512 31.4081 19.766 43.7043 14.6161C56.537 9.23962 71.1082 8.91668 84.2307 13.4612C96.868 17.8375 107.599 26.9359 114.323 38.4469C119.318 46.9965 121.856 56.8097 121.891 66.6926C121.898 68.6484 124.932 68.6491 124.925 66.6926C124.876 52.9634 120.125 39.7435 111.506 29.075C103.085 18.6589 91.0241 11.3755 77.961 8.55532C64.4091 5.63002 50.0787 7.66752 37.8049 14.062C26.0079 20.2087 16.494 30.4966 11.1082 42.6356C5.47832 55.3242 4.54902 69.8128 8.3374 83.1527C11.998 96.043 20.1833 107.319 31.0143 115.134C42.1508 123.168 56.0622 126.932 69.7258 125.992C83.2707 125.06 96.1523 119.33 106.084 110.112C118.086 98.9781 124.865 83.0173 124.925 66.6926C124.932 64.7362 121.898 64.7369 121.891 66.6926" fill="#F7F7F7"/>
</svg>
