<svg width="151" height="200" viewBox="0 0 151 200" fill="none" xmlns="http://www.w3.org/2000/svg">
<path d="M149.29 197.552H133.406V14.4082H150.064V193.404C150.064 194.867 149.79 196.267 149.29 197.552Z" fill="#E9EBEC"/>
<path d="M128.515 199.528H0V-8.85344e-05H145.199V182.843C145.199 192.057 137.729 199.528 128.515 199.528Z" fill="#7DB5DB"/>
<path d="M132.952 90.2656H15.4102V15.9318H132.952V90.2656Z" fill="white"/>
<path d="M89.8695 41.7122C90.3568 42.6953 91.201 43.5363 92.7988 44.1326C95.7748 45.2439 99.7761 44.4416 101.492 41.9496C104.36 37.7831 103.554 31.8208 106.64 27.492C107.892 25.7353 109.803 24.3105 112.054 23.6684C114.305 23.0261 116.889 23.2142 118.893 24.3178C122.156 26.1158 123.286 29.8308 123.317 33.2023C123.378 39.6778 122.473 46.3716 121.307 52.7615C120.742 55.8534 119.874 59.03 117.633 61.4732C114.594 64.7864 109.589 66.1664 104.804 66.9038C92.6954 68.7702 80.2757 67.6293 68.0504 66.4834C58.2167 65.5618 48.383 64.6401 38.5494 63.7184C35.7776 63.4587 27.6154 63.878 25.9558 61.9571C24.3353 60.0816 25.6088 53.7248 26.5566 51.7634C28.6672 47.3941 34.4398 44.9286 39.8581 45.2058C52.0793 45.8314 47.2481 33.0675 51.1601 27.0068C53.2379 23.7872 57.8145 21.4732 61.7558 22.8149C65.5149 24.0947 67.0848 27.8681 68.9374 30.9997C69.8992 32.6255 71.2655 34.3108 73.3213 34.6627C76.8165 35.2604 79.7325 31.7073 83.2908 31.8435C85.3979 31.9245 87.1906 33.3465 88.1007 35.009C89.3378 37.2703 88.9064 39.7689 89.8695 41.7122" fill="#D7E8F4"/>
<path d="M125.269 86.2323C125.265 86.232 125.289 80.882 125.29 80.588C125.318 72.6043 125.317 64.6199 125.327 56.6358C125.336 49.0071 125.965 41.3812 125.842 33.7718C125.786 30.2515 124.266 28.4117 120.559 29.356C116.909 30.2854 113.571 32.4517 111.274 35.4409C109.718 37.4655 108.425 40.0008 106.005 40.816C101.68 42.2736 98.1416 37.4023 94.2583 35.0055C90.0765 32.4252 84.2557 32.8595 80.5036 36.0323C75.9696 39.8671 74.9296 46.4969 71.092 51.0292C66.8683 56.0175 59.1966 57.7062 53.2689 54.9523C50.834 53.8208 48.7412 52.0581 46.3408 50.8547C36.822 46.0825 23.5878 52.9491 22.0078 63.48V85.2719C22.0078 85.2719 125.461 86.4243 125.269 86.2323" fill="#A4EFFF"/>
<path d="M26.1669 110.434H17.332V101.598H26.1669V110.434Z" fill="#00ABFF"/>
<path d="M26.1669 123.495H17.332V114.66H26.1669V123.495Z" fill="#A4EFFF"/>
<path d="M59.2012 106.977H33.4648V104.288H59.2012V106.977Z" fill="#F7F7F7"/>
<path d="M58.8184 121.19H33.082V118.501H58.8184V121.19Z" fill="#F7F7F7"/>
<path d="M130.648 141.466H18.4844V138.561H130.648V141.466Z" fill="#F7F7F7"/>
<path d="M68.4203 186.809H18.4844V147.001H68.4203V186.809Z" fill="#3B455A"/>
</svg>
