<svg width="194" height="251" viewBox="0 0 194 251" fill="none" xmlns="http://www.w3.org/2000/svg">
<path d="M174.335 250.802H0.0429688V-5.78982e-05H193.483V234.466C193.483 243.488 184.909 250.802 174.335 250.802Z" fill="#F7F7F7"/>
<path d="M0 11.6436H193.119V-0.000373714H0V11.6436Z" fill="#A4EFFF"/>
<path d="M144.704 137.931C147.309 137.931 147.309 134.986 144.704 134.986C112.393 134.986 80.0813 134.986 47.7701 134.986C45.1652 134.986 45.1652 137.931 47.7701 137.931H144.704Z" fill="#9EA6AD"/>
<path d="M92.3496 19.72C76.8173 19.72 62.916 26.5991 53.4922 37.4687L92.3496 71.1416L131.207 37.4687C121.783 26.5991 107.882 19.72 92.3496 19.72Z" fill="#D7E8F4"/>
<path d="M146.941 63.6055L96.0508 70.9231V122.345C124.471 122.345 147.468 99.3459 147.468 70.9231C147.468 68.4374 147.283 65.9966 146.941 63.6055" fill="#00ABFF"/>
<path d="M53.547 37.639C35.2296 59.3701 37.991 91.7785 59.7208 110.097C61.6213 111.7 63.6073 113.13 65.6547 114.411L92.8604 70.7805L53.547 37.639" fill="#7DB5DB"/>
<path d="M92.7882 122.271C83.1535 122.273 73.4857 119.583 64.9922 114.105L92.7934 70.8515L92.7882 122.271Z" fill="#A4EFFF"/>
<path d="M149.555 60.7732C148.134 50.7663 143.833 41.6982 137.522 34.4183L98.6641 68.0908L149.555 60.7732" fill="#3B455A"/>
<path d="M41.6739 239.533H22.7852V194.034H41.6739V239.533Z" fill="#A4EFFF"/>
<path d="M41.6739 197.797H22.7852V176.415H41.6739V197.797Z" fill="#D7E8F4"/>
<path d="M166.022 241.585H147.133V196.087H166.022V241.585Z" fill="#A4EFFF"/>
<path d="M166.145 199.85H147.133V157.685H166.145V199.85Z" fill="#D7E8F4"/>
<path d="M124.576 240.559H105.688V192.494H124.576V240.559Z" fill="#A4EFFF"/>
<path d="M124.576 220.12H105.688V188.218H124.576V220.12" fill="#D7E8F4"/>
<path d="M83.1229 240.304H64.2344V175.753H83.1229V240.304Z" fill="#A4EFFF"/>
<path d="M83.1229 202.388H64.2344V150.758H83.1229V202.388Z" fill="#D7E8F4"/>
<path d="M7.37444 4.56046C6.23324 4.56046 5.30467 5.48912 5.30467 6.6304C5.30467 7.77202 6.23324 8.70069 7.37444 8.70069C8.51598 8.70069 9.44459 7.77202 9.44459 6.6304C9.44459 5.48912 8.51598 4.56046 7.37444 4.56046ZM7.37444 9.11475C6.00494 9.11475 4.89062 8.00035 4.89062 6.6304C4.89062 5.2608 6.00494 4.14641 7.37444 4.14641C8.74429 4.14641 9.85861 5.2608 9.85861 6.6304C9.85861 8.00035 8.74429 9.11475 7.37444 9.11475Z" fill="white"/>
<path d="M15.035 4.56046C13.8934 4.56046 12.9648 5.48912 12.9648 6.6304C12.9648 7.77202 13.8934 8.70069 15.035 8.70069C16.1761 8.70069 17.1047 7.77202 17.1047 6.6304C17.1047 5.48912 16.1761 4.56046 15.035 4.56046ZM15.035 9.11475C13.6651 9.11475 12.5508 8.00035 12.5508 6.6304C12.5508 5.2608 13.6651 4.14641 15.035 4.14641C16.4048 4.14641 17.5188 5.2608 17.5188 6.6304C17.5188 8.00035 16.4048 9.11475 15.035 9.11475Z" fill="white"/>
<path d="M22.6951 4.56046C21.5539 4.56046 20.625 5.48912 20.625 6.6304C20.625 7.77202 21.5539 8.70069 22.6951 8.70069C23.8363 8.70069 24.7649 7.77202 24.7649 6.6304C24.7649 5.48912 23.8363 4.56046 22.6951 4.56046ZM22.6951 9.11475C21.3252 9.11475 20.2109 8.00035 20.2109 6.6304C20.2109 5.2608 21.3252 4.14641 22.6951 4.14641C24.0646 4.14641 25.1789 5.2608 25.1789 6.6304C25.1789 8.00035 24.0646 9.11475 22.6951 9.11475Z" fill="white"/>
</svg>
