<svg width="94" height="94" viewBox="0 0 94 94" fill="none" xmlns="http://www.w3.org/2000/svg">
<path d="M92.409 -1.86438e-05H0.640243C0.28661 -1.86438e-05 0 0.312079 0 0.697511V49.3164C0 61.3028 8.91694 71.0196 19.9173 71.0196H57.9669L73.5247 92.8488C73.9408 93.4326 74.8599 93.1459 74.8708 92.4292L75.1902 71.0196H92.409C92.7626 71.0196 93.0492 70.7071 93.0492 70.322V0.697511C93.0492 0.312079 92.7626 -1.86438e-05 92.409 -1.86438e-05" fill="#00ABFF"/>
<path d="M12.0156 14.0005H69.1786V11.6188H12.0156V14.0005Z" fill="#D7E8F4"/>
<path d="M12.0156 32.1633H80.1946V29.7813H12.0156V32.1633Z" fill="#D7E8F4"/>
<path d="M12.0156 50.3257H80.1946V47.9436H12.0156V50.3257Z" fill="#D7E8F4"/>
</svg>
