<svg width="146" height="130" viewBox="0 0 146 130" fill="none" xmlns="http://www.w3.org/2000/svg">
<path d="M1.96723 128.793C-6.17034 35.8563 13.604 1.81763 35.2499 0.355351C45.5032 -0.37579 75.5309 5.55459 39.2373 128.793" fill="white"/>
<path d="M2.12823 128.793C1.47723 118.963 0.744848 109.133 0.500721 99.3032C0.256594 90.9357 0.33796 82.4869 0.744838 74.1194C1.07034 67.0517 1.72134 59.984 2.69785 52.9976C3.51161 47.2297 4.65087 41.5431 6.11564 35.8564C7.33627 31.2258 8.88239 26.7577 10.754 22.3709C12.3002 18.8777 14.1718 15.4657 16.4503 12.3786C18.322 9.86024 20.4377 7.50434 22.9604 5.55463C25.0761 3.92988 27.436 2.54883 29.9587 1.73645C31.9117 1.08655 33.9461 0.680367 36.0619 0.599129C37.1198 0.599129 38.259 0.599126 39.1542 0.761602C40.3748 0.924078 41.5954 1.24903 42.7347 1.73645C43.9553 2.22388 45.3387 3.03627 46.3966 3.84865C47.78 4.90474 48.9192 6.20454 49.8957 7.66683C51.1977 9.45406 52.1743 11.485 52.9066 13.516C53.9645 16.1968 54.6155 18.9589 55.1851 21.8022C55.8361 25.4579 56.1616 29.1949 56.3244 32.9318C56.4871 37.7249 56.3244 42.5179 55.9989 47.3109C55.592 53.4038 54.7783 59.4154 53.8831 65.427C52.7439 72.8196 51.2791 80.2123 49.733 87.5237C47.78 96.4599 45.5828 105.234 43.1416 114.089C41.8395 118.963 40.5375 123.837 39.0728 128.711C38.9914 129.036 39.4797 129.118 39.561 128.874C41.0258 123.837 42.5719 118.8 43.9553 113.764C45.2573 109.133 46.3966 104.421 47.6172 99.7094C49.5702 91.5856 51.4419 83.4618 52.9066 75.338C54.1273 68.7577 55.1851 62.0962 55.9175 55.3535C56.4871 49.9918 56.9754 44.6301 57.0568 39.1871C57.1382 34.9628 57.0568 30.6572 56.5685 26.4328C56.243 23.1833 55.6734 19.9338 54.7783 16.7655C54.1273 14.3283 53.2321 11.9724 52.0115 9.77902C51.1164 8.07302 49.9771 6.44825 48.5937 4.98597C47.4545 3.84864 46.2338 2.79256 44.8505 2.06141C43.6298 1.41151 42.4092 0.842838 41.0258 0.517886C39.8865 0.192934 38.7473 0.0304658 37.5266 0.0304658C36.1433 -0.0507722 34.7599 0.0304558 33.4579 0.27417C30.8538 0.680359 28.4126 1.57398 26.1341 2.79255C23.6114 4.17359 21.3329 6.04207 19.2985 8.15426C16.8572 10.6726 14.8228 13.5972 13.1139 16.603C10.9982 20.3399 9.28929 24.3206 7.82453 28.3825C6.11564 33.4192 4.73226 38.5372 3.75575 43.7365C2.45374 50.073 1.63997 56.4908 1.07034 62.9086C0.337955 70.6262 0.0124623 78.4251 0.0124623 86.1427C-0.0689133 95.4038 0.256584 104.584 0.744838 113.764C1.07034 118.719 1.39584 123.756 1.96547 128.711C1.8841 128.955 2.12823 128.955 2.12823 128.793Z" fill="#336383"/>
<path d="M39.4788 0.517822L20.3555 128.711" stroke="#336383" stroke-miterlimit="10" stroke-linejoin="round"/>
<path d="M65.9258 128.792C72.5172 73.5507 94.8955 41.7054 115.077 50.3166C131.596 57.3843 123.051 88.1735 97.3368 128.711" fill="white"/>
<path d="M66.0892 128.793C66.8216 124.162 67.3912 119.531 68.2864 114.901C69.1001 110.595 69.9952 106.371 71.0531 102.065C72.9248 94.5913 75.2033 87.2799 78.2142 80.131C80.6555 74.3631 83.5036 68.7577 87.0841 63.6397C89.8509 59.659 93.1873 55.9221 97.1747 53.0787C100.267 50.8853 103.929 49.2606 107.835 49.1793C111.415 49.0169 115.322 50.073 118.088 52.4289C121.099 54.866 122.564 58.5217 123.052 62.3399C123.703 67.5391 122.808 72.8196 121.506 77.8563C119.716 84.8428 117.03 91.5855 114.02 98.1658C110.195 106.452 105.719 114.413 101.081 122.212C99.7787 124.324 98.4767 126.437 97.2561 128.63C97.0934 128.874 97.5002 129.117 97.663 128.874C100.511 124.649 103.115 120.181 105.638 115.713C107.916 111.733 110.113 107.671 112.148 103.528C115.566 96.6223 118.739 89.4734 121.018 82.0807C122.727 76.6378 124.029 70.9511 123.947 65.1832C123.866 61.1213 122.971 56.8969 120.367 53.7287C118.007 50.8041 114.345 49.1793 110.602 48.6919C106.858 48.2045 103.034 49.0981 99.6974 50.8041C95.6286 52.9163 92.1294 56.247 89.2813 59.7403C85.538 64.3708 82.4457 69.57 79.9231 74.9317C76.7494 81.5933 74.2268 88.661 72.1924 95.7287C69.7511 104.259 67.9609 113.032 66.6588 121.806C66.3333 124.081 66.0078 126.437 65.8451 128.711C65.7637 128.955 66.0892 129.036 66.0892 128.793Z" fill="#336383"/>
<path d="M115.078 50.3167L82.1211 128.711" stroke="#336383" stroke-miterlimit="10" stroke-linejoin="round"/>
<path d="M68.4493 128.874C81.4694 101.253 107.754 38.2935 87.9795 15.9531C77.0751 3.68619 57.2194 18.7152 46.6406 45.7674C36.6314 71.4386 29.1448 97.9221 22.8789 128.468" fill="white"/>
<path d="M68.6119 129.036C71.6228 122.618 74.5523 116.201 77.2377 109.702C80.4927 101.822 83.585 93.779 86.2704 85.6552C89.0372 77.3689 91.397 68.9202 93.1059 60.309C94.6521 52.5914 95.6286 44.7113 95.3031 36.9125C94.9776 30.5759 93.7569 24.0769 90.2578 18.6339C88.7116 16.1968 86.6772 13.9221 84.0732 12.6223C81.5506 11.4038 78.7024 11.16 76.017 11.6475C72.762 12.2974 69.7511 13.9221 67.0657 15.8719C63.7293 18.309 60.8812 21.2336 58.2772 24.4831C55.1849 28.3825 52.4995 32.6069 50.2209 36.9937C47.6983 41.868 45.7453 47.0672 43.7923 52.1852C39.8049 62.8273 36.3057 73.7132 33.1321 84.5991C29.7957 96.1349 26.9475 107.833 24.3435 119.613C23.6925 122.618 23.0415 125.624 22.4719 128.63C22.3905 129.036 23.0415 129.28 23.1229 128.793C25.5641 116.932 28.2495 105.152 31.3418 93.5353C34.2713 82.5682 37.6077 71.7635 41.351 61.0401C43.2226 55.7597 45.0943 50.5604 47.1287 45.3612C49.0817 40.4869 51.4416 35.6939 54.2897 31.2258C56.731 27.4076 59.4978 23.7519 62.6714 20.5024C65.2755 17.9028 68.2864 15.4657 71.6228 13.8409C74.2268 12.5411 77.1563 11.81 80.0858 12.1349C82.934 12.4599 85.4566 13.9221 87.3283 16.0343C91.4784 20.5836 93.4314 26.7577 94.1638 32.7693C95.0589 40.162 94.4893 47.7171 93.2687 55.1097C91.8853 63.5585 89.7695 71.8448 87.2469 80.0498C84.7242 88.2548 81.7947 96.2973 78.6211 104.34C75.8543 111.245 72.9248 118.069 69.8325 124.893C69.1815 126.274 68.6119 127.574 67.9609 128.955C68.0422 129.036 68.5305 129.28 68.6119 129.036Z" fill="#336383"/>
<path d="M82.1211 12.0537L47.2109 128.955" stroke="#336383" stroke-miterlimit="10" stroke-linejoin="round"/>
<path d="M91.4805 128.793C108.651 94.0227 123.624 84.8428 137.621 87.6049C148.525 89.7983 150.234 105.802 127.204 128.793" fill="white"/>
<path d="M91.5592 128.874C93.1867 126.03 94.5701 123.106 96.1976 120.263C97.581 117.744 99.0458 115.226 100.592 112.789C103.196 108.646 106.044 104.665 109.218 101.009C111.659 98.1658 114.426 95.4037 117.437 93.1291C119.878 91.3418 122.482 89.7983 125.33 88.7422C127.771 87.8486 130.375 87.4424 132.979 87.4424C135.339 87.4424 137.862 87.6861 139.978 88.7422C141.931 89.7171 143.396 91.3418 144.128 93.3728C145.104 95.8912 145.023 98.6533 144.535 101.253C143.802 105.071 142.175 108.646 140.222 111.976C137.455 116.688 133.956 120.994 130.294 125.056C129.155 126.274 128.097 127.411 126.958 128.63C126.713 128.874 127.039 129.199 127.283 128.955C129.724 126.762 131.922 124.324 133.956 121.806C135.746 119.694 137.374 117.5 138.92 115.226C141.28 111.651 143.396 107.833 144.616 103.69C145.43 100.847 145.918 97.8409 145.267 94.9163C144.779 92.7229 143.64 90.6107 141.849 89.2296C139.896 87.7674 137.536 87.1987 135.177 86.955C132.573 86.7113 129.887 86.8737 127.364 87.5236C124.516 88.2548 121.831 89.4734 119.308 91.0169C116.216 92.9666 113.531 95.3225 111.008 98.0034C107.834 101.334 104.986 105.071 102.382 108.889C99.0458 113.845 96.1162 118.963 93.3495 124.243C92.5357 125.705 91.8033 127.249 91.1523 128.793C91.2337 128.874 91.4778 129.036 91.5592 128.874Z" fill="#336383"/>
<path d="M136.234 87.7673L109.949 128.793" stroke="#336383" stroke-miterlimit="10" stroke-linejoin="round"/>
</svg>
