<svg width="153" height="117" viewBox="0 0 153 117" fill="none" xmlns="http://www.w3.org/2000/svg">
<path d="M59.4261 116.432C49.2541 101.078 27.8523 62.2461 46.406 48.9231C56.578 41.6117 70.0863 48.2731 76.5964 64.4395C82.7809 79.7935 85.1408 97.9908 87.7448 116.269" fill="white"/>
<path d="M59.6698 116.269C57.3913 112.776 55.2755 109.283 53.2411 105.627C50.7999 101.24 48.44 96.6909 46.4056 92.0604C44.2898 87.2673 42.4995 82.3931 41.1162 77.3563C39.9769 72.807 39.1631 68.0952 39.4073 63.4647C39.6514 59.484 40.7093 55.4221 43.3133 52.1726C45.9987 48.7606 50.1489 46.4047 54.5431 46.2422C59.3443 45.9985 63.82 48.2732 67.3191 51.3602C71.9575 55.5034 74.8871 61.0275 77.0842 66.8766C79.6069 73.7006 81.3971 80.8496 82.8619 87.9173C84.3266 95.4724 85.4659 103.028 86.5238 110.664C86.7679 112.532 87.0934 114.401 87.3375 116.351C87.4189 116.757 88.0699 116.594 87.9886 116.188C86.8493 108.389 85.7914 100.59 84.408 92.7915C83.106 85.3989 81.4785 78.0062 79.1186 70.8573C77.0842 64.602 74.6429 58.5091 70.2486 53.4724C66.9936 49.7354 62.5993 46.6484 57.6354 45.9173C53.0784 45.1861 48.6027 46.6484 45.0222 49.573C41.8485 52.1726 39.9769 55.9095 39.1631 59.8902C38.268 64.3583 38.5935 68.9888 39.4886 73.4569C40.4651 78.5749 42.0927 83.5304 44.0457 88.4047C45.9987 93.2789 48.2772 98.072 50.7185 102.703C52.8343 106.683 55.1942 110.664 57.6354 114.482C58.1237 115.213 58.6119 115.944 59.1002 116.757C59.4257 116.757 59.8326 116.513 59.6698 116.269Z" fill="#336383"/>
<path d="M51.6133 46.5671L75.7005 116.432" stroke="#336383" stroke-miterlimit="10" stroke-linejoin="round"/>
<path d="M18.4909 116.432C9.70228 105.059 -9.58377 76.3816 6.44725 66.4706C15.2358 61.0276 26.0588 65.9831 31.6737 77.9251C37.0445 89.2984 39.0789 102.703 41.2761 116.269" fill="white"/>
<path d="M18.7378 116.269C14.5063 110.664 10.5189 104.815 7.26385 98.6407C5.3922 95.2287 3.76469 91.6543 2.46268 87.9173C1.40479 84.6678 0.591039 81.1746 0.672414 77.6813C0.75379 74.6755 1.56755 71.6697 3.52056 69.3138C5.79908 66.633 9.29824 64.8457 12.7974 64.5208C16.6221 64.1958 20.3653 65.5769 23.4576 67.8515C27.2009 70.6136 29.8863 74.5943 31.7579 78.8187C36.4777 89.2171 38.4307 100.753 40.221 111.964C40.4651 113.426 40.7093 114.888 40.9534 116.269C41.0348 116.676 41.6858 116.513 41.6044 116.107C39.7328 104.49 38.0239 92.6291 33.6296 81.5807C31.7579 76.9502 29.4794 72.4821 25.8175 68.9889C22.888 66.308 19.3075 64.2771 15.2387 63.8709C11.4954 63.5459 7.7521 64.7645 4.82257 67.1204C2.3813 69.0701 0.835166 71.8322 0.265536 74.9192C-0.304094 78.25 0.102784 81.662 0.916541 84.9115C1.89305 88.7297 3.35781 92.3854 5.0667 95.8786C8.40311 102.621 12.4719 108.958 17.0289 114.97C17.4358 115.538 17.8427 116.026 18.2496 116.594C18.4937 116.838 18.9006 116.513 18.7378 116.269Z" fill="#336383"/>
<path d="M11.0078 64.7644L31.7586 116.432" stroke="#336383" stroke-miterlimit="10" stroke-linejoin="round"/>
<path d="M121.437 116.269C97.3494 72.5634 81.7253 29.2636 101.255 8.71036C120.541 -11.6804 140.723 12.4473 145.605 33.8941C151.627 60.134 152.522 88.486 152.359 116.269" fill="white"/>
<path d="M121.437 116.269C97.3494 72.5634 81.7253 29.2636 101.255 8.71036C120.541 -11.6804 140.723 12.4473 145.605 33.8941C151.627 60.134 152.522 88.486 152.359 116.269" stroke="#336383" stroke-miterlimit="10" stroke-linejoin="round"/>
<path d="M108.332 3.42993L137.302 116.188" stroke="#336383" stroke-miterlimit="10" stroke-linejoin="round"/>
<path d="M85.2203 116.35C75.618 93.2789 54.0534 46.4859 69.2707 32.1067C78.9544 22.8456 96.5315 34.2189 105.564 54.3659C114.109 73.5381 116.713 93.2789 121.839 116.107" fill="white"/>
<path d="M85.4672 116.35C83.3515 111.151 81.073 105.952 78.9572 100.672C76.4345 94.5787 74.0746 88.4046 71.8775 82.1493C69.6803 75.894 67.7273 69.6386 66.344 63.1396C65.1233 57.6154 64.2282 51.8475 64.4723 46.1609C64.6351 41.774 65.6116 37.1435 68.3783 33.6502C69.8431 31.863 71.7147 30.482 73.8305 29.7508C76.0277 29.0197 78.4689 29.0197 80.7474 29.5071C86.6065 30.8069 91.6518 34.95 95.5578 39.2556C100.929 45.1048 104.591 52.1725 107.439 59.4839C110.531 67.2827 112.728 75.4065 114.681 83.5303C116.716 92.1415 118.343 100.753 120.133 109.364C120.622 111.639 121.11 113.832 121.598 116.107C121.679 116.513 122.33 116.35 122.249 115.944C120.215 107.008 118.506 97.9907 116.553 88.9733C114.762 80.6057 112.728 72.3195 109.88 64.1957C107.195 56.4781 103.94 48.8417 98.9756 42.2615C95.1509 37.1435 90.2684 32.4317 84.2466 29.9133C79.7709 28.0448 74.5629 27.6386 70.4127 30.6444C66.7508 33.2441 64.8792 37.4684 64.1468 41.774C63.2517 47.1357 63.7399 52.5787 64.6351 57.9404C65.6929 64.3582 67.4832 70.6947 69.4362 76.9501C71.552 83.4491 73.9119 89.7856 76.4345 96.1222C78.7131 101.809 81.073 107.333 83.4328 112.938C83.9211 114.076 84.4093 115.213 84.8976 116.432C85.1417 116.757 85.63 116.594 85.4672 116.35Z" fill="#336383"/>
<path d="M74.5625 29.2634L104.102 116.432" stroke="#336383" stroke-miterlimit="10" stroke-linejoin="round"/>
</svg>
