<svg width="455" height="130" viewBox="0 0 455 130" fill="none" xmlns="http://www.w3.org/2000/svg">
<path d="M67.6488 129.195C57.4768 113.841 36.075 75.0098 54.6286 61.6867C64.8006 54.3753 78.309 61.0368 84.819 77.2032C91.0036 92.5571 93.3635 110.754 95.9675 129.033" fill="white"/>
<path d="M67.8925 129.033C65.6139 125.54 63.4982 122.046 61.4638 118.391C59.0225 114.004 56.6626 109.455 54.6282 104.824C52.5125 100.031 50.7222 95.1568 49.3388 90.12C48.1996 85.5707 47.3858 80.8589 47.6299 76.2283C47.8741 72.2477 48.9319 68.1858 51.536 64.9363C54.2214 61.5243 58.3715 59.1684 62.7658 59.0059C67.567 58.7622 72.0426 61.0369 75.5418 64.1239C80.1802 68.267 83.1097 73.7912 85.3069 79.6403C87.8295 86.4643 89.6198 93.6132 91.0845 100.681C92.5493 108.236 93.6886 115.791 94.7464 123.428C94.9906 125.296 95.3161 127.164 95.5602 129.114C95.6416 129.52 96.2926 129.358 96.2112 128.952C95.0719 121.153 94.0141 113.354 92.6307 105.555C91.3287 98.1626 89.7012 90.7699 87.3413 83.621C85.3069 77.3657 82.8656 71.2728 78.4713 66.2361C75.2163 62.4991 70.822 59.4121 65.8581 58.6809C61.301 57.9498 56.8254 59.4121 53.2448 62.3367C50.0712 64.9363 48.1996 68.6732 47.3858 72.6539C46.4907 77.122 46.8162 81.7525 47.7113 86.2206C48.6878 91.3386 50.3153 96.2941 52.2683 101.168C54.2214 106.043 56.4999 110.836 58.9411 115.466C61.0569 119.447 63.4168 123.428 65.8581 127.246C66.3463 127.977 66.8346 128.708 67.3228 129.52C67.6483 129.52 68.0552 129.277 67.8925 129.033Z" fill="#336383"/>
<path d="M59.8359 59.3308L83.9231 129.195" stroke="#336383" stroke-miterlimit="10" stroke-linejoin="round"/>
<path d="M26.7174 129.195C17.9288 117.822 -1.35721 89.145 14.6738 79.234C23.4624 73.7911 34.2854 78.7466 39.9003 90.6885C45.2711 102.062 47.3055 115.466 49.5026 129.033" fill="white"/>
<path d="M26.9605 129.033C22.7289 123.428 18.7415 117.578 15.4865 111.404C13.6149 107.992 11.9873 104.418 10.6853 100.681C9.62745 97.4315 8.81369 93.9382 8.89507 90.445C8.97645 87.4392 9.7902 84.4334 11.7432 82.0775C14.0217 79.3966 17.5209 77.6094 21.0201 77.2844C24.8447 76.9595 28.588 78.3405 31.6803 80.6152C35.4236 83.3773 38.109 87.358 39.9806 91.5823C44.7004 101.981 46.6534 113.517 48.4437 124.727C48.6878 126.19 48.9319 127.652 49.1761 129.033C49.2574 129.439 49.9084 129.277 49.8271 128.871C47.9554 117.254 46.2465 105.393 41.8522 94.3444C39.9806 89.7139 37.7021 85.2458 34.0402 81.7525C31.1106 79.0717 27.5301 77.0407 23.4613 76.6346C19.718 76.3096 15.9748 77.5282 13.0452 79.8841C10.604 81.8338 9.05782 84.5959 8.48819 87.6829C7.91856 91.0137 8.32544 94.4257 9.1392 97.6752C10.1157 101.493 11.5805 105.149 13.2894 108.642C16.6258 115.385 20.6945 121.722 25.2516 127.733C25.6585 128.302 26.0653 128.789 26.4722 129.358C26.7164 129.602 27.1232 129.277 26.9605 129.033Z" fill="#336383"/>
<path d="M19.2305 77.5283L39.9813 129.196" stroke="#336383" stroke-miterlimit="10" stroke-linejoin="round"/>
<path d="M129.655 129.033C105.568 85.327 89.944 42.0272 109.474 21.474C128.76 1.08331 148.941 25.211 153.824 46.6578C159.846 72.8976 160.741 101.25 160.578 129.033" fill="white"/>
<path d="M129.655 129.033C105.568 85.327 89.944 42.0272 109.474 21.474C128.76 1.08331 148.941 25.211 153.824 46.6578C159.846 72.8976 160.741 101.25 160.578 129.033" stroke="#336383" stroke-miterlimit="10" stroke-linejoin="round"/>
<path d="M116.555 16.1936L145.524 128.952" stroke="#336383" stroke-miterlimit="10" stroke-linejoin="round"/>
<path d="M93.4391 129.114C83.8367 106.043 62.2721 59.2498 77.4894 44.8707C87.1731 35.6095 104.75 46.9828 113.783 67.1298C122.327 86.302 124.931 106.043 130.058 128.871" fill="white"/>
<path d="M93.686 129.114C91.5702 123.915 89.2917 118.716 87.1759 113.435C84.6533 107.343 82.2934 101.169 80.0962 94.9132C77.8991 88.6579 75.9461 82.4026 74.5627 75.9035C73.3421 70.3793 72.4469 64.6114 72.6911 58.9248C72.8538 54.5379 73.8303 49.9074 76.5971 46.4142C78.0619 44.6269 79.9335 43.2459 82.0493 42.5147C84.2464 41.7836 86.6877 41.7836 88.9662 42.271C94.8252 43.5708 99.8705 47.714 103.777 52.0196C109.147 57.8687 112.809 64.9364 115.657 72.2478C118.75 80.0467 120.947 88.1704 122.9 96.2942C124.934 104.905 126.562 113.517 128.352 122.128C128.84 124.403 129.329 126.596 129.817 128.871C129.898 129.277 130.549 129.114 130.468 128.708C128.433 119.772 126.725 110.755 124.772 101.737C122.981 93.3697 120.947 85.0834 118.099 76.9596C115.413 69.242 112.158 61.6056 107.194 55.0254C103.37 49.9074 98.4872 45.1956 92.4654 42.6772C87.9897 40.8087 82.7816 40.4026 78.6315 43.4084C74.9696 46.008 73.0979 50.2323 72.3655 54.5379C71.4704 59.8996 71.9587 65.3426 72.8538 70.7043C73.9117 77.1221 75.702 83.4587 77.655 89.714C79.7707 96.213 82.1306 102.55 84.6533 108.886C86.9318 114.573 89.2917 120.097 91.6516 125.702C92.1399 126.84 92.6281 127.977 93.1164 129.196C93.3605 129.521 93.8487 129.358 93.686 129.114Z" fill="#336383"/>
<path d="M280.362 129.033C272.224 36.0968 291.998 2.05811 313.644 0.59583C323.898 -0.135312 353.925 5.79507 317.632 129.033" fill="white"/>
<path d="M280.527 129.033C279.876 119.203 279.143 109.373 278.899 99.5437C278.655 91.1762 278.736 82.7274 279.143 74.3599C279.469 67.2922 280.12 60.2245 281.096 53.2381C281.91 47.4702 283.049 41.7835 284.514 36.0969C285.735 31.4663 287.281 26.9982 289.152 22.6114C290.699 19.1181 292.57 15.7061 294.849 12.6191C296.72 10.1007 298.836 7.74482 301.359 5.79511C303.475 4.17035 305.834 2.78931 308.357 1.97693C310.31 1.32703 312.345 0.920845 314.46 0.839607C315.518 0.839607 316.657 0.839605 317.553 1.00208C318.773 1.16456 319.994 1.48951 321.133 1.97693C322.354 2.46436 323.737 3.27674 324.795 4.08912C326.178 5.14522 327.318 6.44502 328.294 7.9073C329.596 9.69454 330.573 11.7255 331.305 13.7564C332.363 16.4373 333.014 19.1994 333.584 22.0427C334.235 25.6984 334.56 29.4354 334.723 33.1723C334.886 37.9653 334.723 42.7584 334.397 47.5514C333.99 53.6442 333.177 59.6559 332.282 65.6675C331.142 73.0601 329.678 80.4528 328.131 87.7642C326.178 96.7003 323.981 105.474 321.54 114.329C320.238 119.203 318.936 124.078 317.471 128.952C317.39 129.277 317.878 129.358 317.959 129.114C319.424 124.078 320.97 119.041 322.354 114.004C323.656 109.373 324.795 104.662 326.016 99.9499C327.969 91.8261 329.84 83.7023 331.305 75.5785C332.526 68.9982 333.584 62.3367 334.316 55.594C334.886 50.2323 335.374 44.8705 335.455 39.4276C335.537 35.2032 335.455 30.8976 334.967 26.6733C334.641 23.4238 334.072 20.1742 333.177 17.006C332.526 14.5688 331.631 12.2129 330.41 10.0195C329.515 8.3135 328.376 6.68873 326.992 5.22645C325.853 4.08912 324.632 3.03303 323.249 2.30189C322.028 1.65199 320.808 1.08332 319.424 0.758364C318.285 0.433413 317.146 0.270944 315.925 0.270944C314.542 0.189706 313.158 0.270934 311.856 0.514648C309.252 0.920838 306.811 1.81446 304.532 3.03303C302.01 4.41407 299.731 6.28255 297.697 8.39474C295.256 10.9131 293.221 13.8377 291.512 16.8435C289.397 20.5804 287.688 24.5611 286.223 28.623C284.514 33.6597 283.131 38.7777 282.154 43.9769C280.852 50.3135 280.038 56.7313 279.469 63.1491C278.736 70.8667 278.411 78.6655 278.411 86.3831C278.33 95.6443 278.655 104.824 279.143 114.004C279.469 118.96 279.794 123.996 280.364 128.952C280.283 129.196 280.527 129.196 280.527 129.033Z" fill="#336383"/>
<path d="M317.881 0.758301L298.758 128.952" stroke="#336383" stroke-miterlimit="10" stroke-linejoin="round"/>
<path d="M344.324 129.033C350.916 73.7912 373.294 41.9459 393.475 50.5571C409.994 57.6248 401.45 88.414 375.735 128.952" fill="white"/>
<path d="M344.488 129.033C345.22 124.402 345.79 119.772 346.685 115.141C347.499 110.836 348.394 106.611 349.452 102.306C351.323 94.8318 353.602 87.5204 356.613 80.3715C359.054 74.6036 361.902 68.9981 365.483 63.8802C368.249 59.8995 371.586 56.1626 375.573 53.3192C378.665 51.1258 382.327 49.5011 386.233 49.4198C389.814 49.2573 393.72 50.3134 396.487 52.6693C399.498 55.1065 400.962 58.7622 401.451 62.5803C402.102 67.7796 401.207 73.06 399.905 78.0968C398.114 85.0833 395.429 91.826 392.418 98.4063C388.593 106.693 384.118 114.654 379.479 122.453C378.177 124.565 376.875 126.677 375.655 128.871C375.492 129.114 375.899 129.358 376.061 129.114C378.91 124.89 381.514 120.422 384.036 115.954C386.315 111.973 388.512 107.911 390.546 103.768C393.964 96.8628 397.138 89.7138 399.416 82.3212C401.125 76.8782 402.427 71.1916 402.346 65.4237C402.264 61.3618 401.369 57.1374 398.765 53.9691C396.405 51.0446 392.743 49.4198 389 48.9324C385.257 48.445 381.432 49.3386 378.096 51.0446C374.027 53.1568 370.528 56.4875 367.68 59.9807C363.936 64.6113 360.844 69.8105 358.322 75.1722C355.148 81.8337 352.625 88.9014 350.591 95.9691C348.15 104.499 346.359 113.273 345.057 122.047C344.732 124.321 344.406 126.677 344.244 128.952C344.162 129.195 344.488 129.277 344.488 129.033Z" fill="#336383"/>
<path d="M393.477 50.5571L360.52 128.952" stroke="#336383" stroke-miterlimit="10" stroke-linejoin="round"/>
<path d="M82.7852 42.0273L112.325 129.196" stroke="#336383" stroke-miterlimit="10" stroke-linejoin="round"/>
<path d="M346.848 129.114C359.868 101.493 386.152 38.534 366.378 16.1936C355.474 3.92666 335.618 18.9557 325.039 46.0079C315.03 71.6791 307.543 98.1626 301.277 128.708" fill="white"/>
<path d="M347.01 129.277C350.021 122.859 352.951 116.441 355.636 109.942C358.891 102.062 361.983 94.0195 364.669 85.8957C367.436 77.6094 369.795 69.1607 371.504 60.5494C373.051 52.8318 374.027 44.9518 373.702 37.1529C373.376 30.8164 372.155 24.3174 368.656 18.8744C367.11 16.4373 365.076 14.1626 362.472 12.8628C359.949 11.6442 357.101 11.4005 354.415 11.888C351.16 12.5379 348.15 14.1626 345.464 16.1123C342.128 18.5495 339.28 21.474 336.676 24.7236C333.583 28.623 330.898 32.8473 328.619 37.2342C326.097 42.1085 324.144 47.3077 322.191 52.4257C318.203 63.0678 314.704 73.9537 311.53 84.8396C308.194 96.3754 305.346 108.074 302.742 119.853C302.091 122.859 301.44 125.865 300.87 128.87C300.789 129.277 301.44 129.52 301.521 129.033C303.963 117.172 306.648 105.393 309.74 93.7757C312.67 82.8086 316.006 72.004 319.749 61.2806C321.621 56.0001 323.493 50.8009 325.527 45.6017C327.48 40.7274 329.84 35.9344 332.688 31.4663C335.129 27.6481 337.896 23.9924 341.07 20.7429C343.674 18.1433 346.685 15.7061 350.021 14.0814C352.625 12.7816 355.555 12.0504 358.484 12.3754C361.332 12.7003 363.855 14.1626 365.727 16.2748C369.877 20.8241 371.83 26.9982 372.562 33.0098C373.457 40.4024 372.888 47.9576 371.667 55.3502C370.284 63.799 368.168 72.0852 365.645 80.2903C363.123 88.4953 360.193 96.5378 357.02 104.58C354.253 111.486 351.323 118.31 348.231 125.134C347.58 126.515 347.01 127.814 346.359 129.195C346.441 129.277 346.929 129.52 347.01 129.277Z" fill="#336383"/>
<path d="M360.52 12.2942L325.609 129.196" stroke="#336383" stroke-miterlimit="10" stroke-linejoin="round"/>
<path d="M369.883 129.033C387.053 94.2632 402.026 85.0833 416.023 87.8454C426.927 90.0388 428.636 106.043 405.607 129.033" fill="white"/>
<path d="M369.962 129.114C371.589 126.271 372.972 123.346 374.6 120.503C375.983 117.985 377.448 115.466 378.994 113.029C381.598 108.886 384.446 104.905 387.62 101.25C390.061 98.4063 392.828 95.6442 395.839 93.3696C398.28 91.5823 400.884 90.0388 403.732 88.9827C406.174 88.0891 408.778 87.6829 411.382 87.6829C413.742 87.6829 416.264 87.9266 418.38 88.9827C420.333 89.9575 421.798 91.5823 422.53 93.6133C423.507 96.1316 423.425 98.8937 422.937 101.493C422.205 105.312 420.577 108.886 418.624 112.217C415.857 116.929 412.358 121.234 408.696 125.296C407.557 126.515 406.499 127.652 405.36 128.871C405.116 129.114 405.441 129.439 405.685 129.195C408.127 127.002 410.324 124.565 412.358 122.047C414.149 119.934 415.776 117.741 417.322 115.466C419.682 111.892 421.798 108.074 423.018 103.93C423.832 101.087 424.32 98.0813 423.669 95.1568C423.181 92.9634 422.042 90.8512 420.252 89.4701C418.299 88.0078 415.939 87.4392 413.579 87.1955C410.975 86.9518 408.289 87.1142 405.767 87.7641C402.919 88.4953 400.233 89.7138 397.711 91.2574C394.618 93.2071 391.933 95.563 389.41 98.2438C386.237 101.575 383.389 105.312 380.785 109.13C377.448 114.085 374.519 119.203 371.752 124.484C370.938 125.946 370.206 127.489 369.555 129.033C369.636 129.114 369.88 129.277 369.962 129.114Z" fill="#336383"/>
<path d="M414.636 88.0078L388.352 129.033" stroke="#336383" stroke-miterlimit="10" stroke-linejoin="round"/>
<path d="M0.515625 129.277H454.267" stroke="#416F8D" stroke-miterlimit="10"/>
</svg>
