<svg width="523" height="290" viewBox="0 0 523 290" fill="none" xmlns="http://www.w3.org/2000/svg">
<path d="M201.148 267.785C196.428 251.619 183.082 239.19 165.749 238.783C155.659 238.54 145.894 242.845 137.349 247.72C125.794 254.381 112.123 262.342 98.2888 260.311C89.4189 259.012 78.9214 254.056 76.8057 243.82C74.6085 232.934 83.3971 225.542 92.7553 221.155C100.811 217.418 112.123 208.482 115.703 199.87C130.025 165.913 89.9071 127.163 101.3 88.4121C113.181 47.8744 167.946 41.0504 195.533 68.59C198.137 71.1896 200.659 74.033 202.857 77.0388C208.472 84.5126 211.808 94.6674 219.62 100.273C229.711 107.503 242.893 105.228 253.798 100.923C274.63 92.7177 280.164 87.2747 300.508 78.4198C315.155 72.0833 333.221 66.3966 349.658 72.002C361.458 76.0639 374.478 83.3753 381.069 93.9362C393.357 113.596 387.824 134.718 407.191 162.664C415.98 175.337 429.976 178.83 441.043 188.01C469.932 211.731 460.248 261.611 428.756 278.752C402.878 292.807 371.06 289.557 343.067 285.983C340.951 285.739 338.754 285.414 336.638 285.089" stroke="#336383" stroke-miterlimit="10" stroke-linejoin="round" stroke-dasharray="3.5 3.5"/>
<path d="M405.727 83.7003C408.168 80.9382 410.284 77.8512 412.074 74.4392C413.865 71.0272 415.167 67.534 416.143 63.9595L406.541 60.5475C407.273 57.2168 407.599 53.886 407.436 50.5552L417.527 49.0117C417.038 41.5378 414.76 34.2264 410.935 27.7274L401.74 32.1142C399.949 29.2709 397.834 26.6713 395.311 24.3966L401.333 16.1916C398.566 13.7545 395.474 11.6423 392.056 9.85505C388.638 8.06782 385.139 6.76801 381.559 5.79315L378.141 15.3792C374.804 14.6481 371.468 14.3231 368.132 14.4856L366.585 4.41211C359.099 4.89954 351.775 7.1742 345.265 10.9924L349.659 20.1723C346.811 21.9595 344.207 24.0717 341.929 26.5901L333.71 20.5785C331.268 23.3405 329.153 26.4276 327.362 29.8396C325.572 33.2516 324.27 36.7448 323.294 40.3193L332.896 43.7313C332.163 47.062 331.838 50.3928 332.001 53.7235L321.91 55.267C322.398 62.7409 324.677 70.0523 328.502 76.5514L337.697 72.1645C339.487 75.0079 341.603 77.6075 344.126 79.8821L338.104 88.0872C340.871 90.5243 343.963 92.6365 347.381 94.4237C350.799 96.2109 354.298 97.5107 357.878 98.4856L361.296 88.8995C364.632 89.6307 367.969 89.9556 371.305 89.7932L372.851 99.8666C380.338 99.3792 387.662 97.1046 394.172 93.2864L389.777 84.1065C392.626 82.3193 395.23 80.2071 397.508 77.6887L405.727 83.7003ZM358.529 73.3019C346.811 67.1278 342.335 52.6674 348.52 40.9692C354.705 29.2709 369.189 24.8028 380.908 30.9769C392.626 37.151 397.101 51.6113 390.917 63.3096C384.732 75.0079 370.247 79.4759 358.529 73.3019ZM361.784 67.1278C353.484 62.7409 350.31 52.505 354.705 44.2187C359.099 35.9324 369.352 32.7641 377.653 37.151C385.953 41.5378 389.127 51.7738 384.732 60.0601C380.419 68.3463 370.085 71.5146 361.784 67.1278Z" fill="#9CD4EF"/>
<path d="M187.15 106.853C188.452 104.985 189.591 102.954 190.486 100.76C191.382 98.567 191.951 96.2923 192.358 94.0989L186.255 92.5553C186.499 90.4432 186.499 88.4122 186.174 86.3L192.277 84.6753C191.544 80.1259 189.673 75.7391 186.906 72.0022L181.454 75.2517C180.233 73.6269 178.687 72.1646 177.059 70.8648L180.233 65.4219C178.361 64.1221 176.327 62.9847 174.13 62.0911C171.933 61.1975 169.654 60.6288 167.457 60.2227L165.911 66.3155C163.795 66.0718 161.761 66.0718 159.645 66.3967L158.018 60.3039C153.46 61.035 149.066 62.9035 145.323 65.6656L148.578 71.1085C146.95 72.3271 145.486 73.8706 144.184 75.4954L138.731 72.3271C137.429 74.1956 136.29 76.2265 135.395 78.42C134.5 80.6134 133.93 82.888 133.523 85.0815L139.627 86.625C139.382 88.7372 139.382 90.7681 139.708 92.8803L133.605 94.5051C134.337 99.0544 136.209 103.441 138.976 107.178L144.428 103.929C145.648 105.553 147.195 107.016 148.822 108.316L145.648 113.758C147.52 115.058 149.554 116.196 151.752 117.089C153.949 117.983 156.227 118.551 158.424 118.958L159.971 112.865C162.086 113.109 164.121 113.109 166.236 112.784L167.864 118.876C172.421 118.145 176.815 116.277 180.559 113.515L177.304 108.072C178.931 106.853 180.396 105.31 181.698 103.685L187.15 106.853ZM157.448 103.279C149.88 100.192 146.218 91.5805 149.31 84.0254C152.403 76.4702 161.028 72.8145 168.596 75.9016C176.164 78.9886 179.826 87.5998 176.734 95.155C173.642 102.71 165.016 106.366 157.448 103.279ZM159.075 99.3793C153.705 97.1859 151.101 91.0931 153.298 85.6501C155.495 80.2884 161.598 77.6888 167.05 79.8822C172.421 82.0757 175.025 88.1685 172.828 93.6114C170.549 98.9731 164.446 101.492 159.075 99.3793Z" fill="#9CD4EF"/>
<path d="M211.484 50.474C212.542 49.2554 213.437 47.9556 214.251 46.4933C215.065 45.031 215.634 43.4875 216.041 41.944L211.891 40.4817C212.217 39.0194 212.379 37.5572 212.298 36.1761L216.692 35.5262C216.448 32.2767 215.472 29.1084 213.844 26.3463L209.857 28.2148C209.124 26.9962 208.148 25.8589 207.09 24.884L209.694 21.3096C208.473 20.2535 207.171 19.3599 205.707 18.5475C204.242 17.7351 202.696 17.1664 201.15 16.7603L199.685 20.9034C198.22 20.5784 196.755 20.416 195.372 20.4972L194.721 16.1104C191.466 16.3541 188.292 17.3289 185.525 18.9537L187.234 22.9343C186.014 23.6655 184.874 24.6403 183.898 25.6964L180.317 23.0968C179.26 24.3154 178.364 25.6152 177.551 27.0775C176.737 28.5397 176.167 30.0833 175.76 31.6268L179.911 33.0891C179.585 34.5514 179.422 36.0136 179.504 37.3947L175.109 38.0446C175.354 41.2941 176.33 44.4624 177.958 47.2245L181.945 45.356C182.677 46.5746 183.654 47.7119 184.712 48.6867L182.108 52.2612C183.328 53.3173 184.63 54.2109 186.095 55.0233C187.56 55.8357 189.106 56.4044 190.652 56.8105L192.117 52.6674C193.582 52.9924 195.046 53.1548 196.43 53.0736L197.081 57.4604C200.336 57.2167 203.509 56.2419 206.276 54.6171L204.405 50.6365C205.625 49.9053 206.765 48.9305 207.741 47.8744L211.484 50.474ZM192.442 43.4063C188.78 41.4566 187.397 36.9885 189.35 33.3328C191.303 29.6771 195.779 28.296 199.441 30.2457C203.103 32.1955 204.486 36.6635 202.533 40.3192C200.58 43.8937 196.104 45.356 192.442 43.4063Z" fill="#9CD4EF"/>
<path d="M113.18 115.302C113.18 114.733 113.098 114.164 113.017 113.596C112.447 108.559 109.03 109.046 106.832 109.128C104.717 109.29 102.031 109.371 100.973 107.015C100.485 105.959 100.567 104.741 100.241 103.685C99.5901 101.248 97.3929 99.7853 95.3585 99.7853C93.2427 99.7853 91.2897 101.004 89.5808 102.466C88.6857 103.197 87.7092 104.172 86.6513 103.847C86.0003 103.685 85.4307 103.035 85.0238 102.304C82.5825 98.323 82.5825 92.4739 79.8971 88.7369C76.8862 84.5938 71.3527 84.5126 67.6094 87.5184C63.8661 90.5242 61.669 95.8859 60.6925 101.329C60.367 103.116 60.1228 104.985 58.9836 106.203C57.4374 107.909 55.0775 107.34 52.9618 107.097C50.5205 106.853 47.9978 107.259 46.0448 108.965C44.4173 110.427 43.4408 112.946 43.6036 115.302H113.18Z" fill="white" stroke="#336383" stroke-miterlimit="10" stroke-linejoin="round"/>
<path d="M252.577 27.8899H321.096C321.096 27.8899 318.329 24.7217 315.237 23.5843C311.331 22.2033 309.703 26.0215 307.262 21.066C305.879 18.3039 304.902 14.6482 301.24 13.6733C295.544 12.211 294.079 16.9228 291.394 15.623C289.034 14.4857 289.115 10.0176 286.674 6.28065C284.314 2.62495 278.618 0.431524 274.712 2.3C267.551 5.79323 268.527 11.3174 266.167 13.1046C263.889 14.8919 258.599 8.55532 252.659 15.3793C248.509 20.2536 252.577 27.8899 252.577 27.8899Z" fill="white" stroke="#336383" stroke-miterlimit="10" stroke-linejoin="round"/>
<path d="M324.108 4.41205C324.108 6.03681 322.724 7.41786 321.097 7.41786C319.469 7.41786 318.086 6.03681 318.086 4.41205C318.086 2.78729 319.469 1.40625 321.097 1.40625C322.724 1.40625 324.108 2.78729 324.108 4.41205Z" stroke="#336383" stroke-miterlimit="10" stroke-linejoin="round"/>
<path d="M522.174 246.257C522.174 247.882 520.791 249.263 519.163 249.263C517.536 249.263 516.152 247.882 516.152 246.257C516.152 244.632 517.536 243.251 519.163 243.251C520.791 243.251 522.174 244.551 522.174 246.257Z" stroke="#336383" stroke-miterlimit="10" stroke-linejoin="round"/>
<path d="M378.627 121.882C378.627 123.507 377.244 124.888 375.616 124.888C373.989 124.888 372.605 123.507 372.605 121.882C372.605 120.257 373.989 118.876 375.616 118.876C377.244 118.876 378.627 120.257 378.627 121.882Z" stroke="#336383" stroke-miterlimit="10" stroke-linejoin="round"/>
<path d="M6.82258 157.464C6.82258 159.089 5.4392 160.47 3.81168 160.47C2.18417 160.47 0.800781 159.089 0.800781 157.464C0.800781 155.84 2.18417 154.458 3.81168 154.458C5.52057 154.458 6.82258 155.84 6.82258 157.464Z" stroke="#336383" stroke-miterlimit="10" stroke-linejoin="round"/>
<path d="M129.455 45.031C129.455 46.6557 128.072 48.0368 126.444 48.0368C124.817 48.0368 123.434 46.6557 123.434 45.031C123.434 43.4062 124.817 42.0251 126.444 42.0251C128.153 42.0251 129.455 43.325 129.455 45.031Z" stroke="#336383" stroke-miterlimit="10" stroke-linejoin="round"/>
<path d="M165.1 31.383C165.1 32.5203 164.205 33.4139 163.066 33.4139C161.926 33.4139 161.031 32.5203 161.031 31.383C161.031 30.2457 161.926 29.3521 163.066 29.3521C164.205 29.3521 165.1 30.2457 165.1 31.383Z" stroke="#336383" stroke-miterlimit="10" stroke-linejoin="round"/>
<path d="M497.842 175.743C497.842 176.88 496.947 177.774 495.808 177.774C494.669 177.774 493.773 176.88 493.773 175.743C493.773 174.606 494.669 173.712 495.808 173.712C496.947 173.712 497.842 174.606 497.842 175.743Z" stroke="#336383" stroke-miterlimit="10" stroke-linejoin="round"/>
<path d="M349.417 110.265C350.541 110.265 351.452 109.356 351.452 108.234C351.452 107.112 350.541 106.203 349.417 106.203C348.294 106.203 347.383 107.112 347.383 108.234C347.383 109.356 348.294 110.265 349.417 110.265Z" stroke="#336383" stroke-miterlimit="10" stroke-linejoin="round"/>
<path d="M431.85 56.8918C431.85 58.0291 430.955 58.9227 429.816 58.9227C428.676 58.9227 427.781 58.0291 427.781 56.8918C427.781 55.7545 428.676 54.8608 429.816 54.8608C430.874 54.8608 431.85 55.7545 431.85 56.8918Z" stroke="#336383" stroke-miterlimit="10" stroke-linejoin="round"/>
<path d="M427.456 206.369C427.456 207.507 426.56 208.4 425.421 208.4C424.282 208.4 423.387 207.507 423.387 206.369C423.387 205.232 424.282 204.338 425.421 204.338C426.56 204.338 427.456 205.232 427.456 206.369Z" stroke="#336383" stroke-miterlimit="10" stroke-linejoin="round"/>
<path d="M110.334 225.867C110.334 227.004 109.439 227.898 108.3 227.898C107.161 227.898 106.266 227.004 106.266 225.867C106.266 224.729 107.161 223.836 108.3 223.836C109.439 223.836 110.334 224.729 110.334 225.867Z" stroke="#336383" stroke-miterlimit="10" stroke-linejoin="round"/>
<path d="M116.436 132.687C116.436 133.824 115.541 134.718 114.402 134.718C113.262 134.718 112.367 133.824 112.367 132.687C112.367 131.549 113.262 130.656 114.402 130.656C115.541 130.656 116.436 131.549 116.436 132.687Z" stroke="#336383" stroke-miterlimit="10" stroke-linejoin="round"/>
<path d="M510.373 146.578H507.606C507.118 146.578 506.711 146.172 506.711 145.685V142.923C506.711 142.435 507.118 142.029 507.606 142.029H510.373C510.861 142.029 511.268 142.435 511.268 142.923V145.685C511.268 146.172 510.942 146.578 510.373 146.578Z" fill="#9CD4EF"/>
<path d="M89.5838 240.489H86.817C86.3288 240.489 85.9219 240.083 85.9219 239.596V236.834C85.9219 236.346 86.3288 235.94 86.817 235.94H89.5838C90.072 235.94 90.4789 236.346 90.4789 236.834V239.596C90.4789 240.083 90.072 240.489 89.5838 240.489Z" fill="#9CD4EF"/>
<path d="M84.8611 74.2766H82.0944C81.6061 74.2766 81.1992 73.8704 81.1992 73.383V70.6209C81.1992 70.1335 81.6061 69.7273 82.0944 69.7273H84.8611C85.3494 69.7273 85.7563 70.1335 85.7563 70.6209V73.383C85.7563 73.8704 85.3494 74.2766 84.8611 74.2766Z" fill="#9CD4EF"/>
<path d="M436.08 42.0253H430.791C429.814 42.0253 429.082 41.2941 429.082 40.3193V35.1201C429.082 34.1452 429.814 33.4141 430.791 33.4141H436.08C437.057 33.4141 437.789 34.1452 437.789 35.1201V40.4005C437.789 41.2941 437.057 42.0253 436.08 42.0253Z" fill="#9CD4EF"/>
<path d="M387.092 172.818H384.325C383.837 172.818 383.43 172.412 383.43 171.925V169.163C383.43 168.675 383.837 168.269 384.325 168.269H387.092C387.58 168.269 387.987 168.675 387.987 169.163V171.925C387.987 172.412 387.58 172.818 387.092 172.818Z" fill="#9CD4EF"/>
<path d="M324.836 140.485C324.836 140.079 324.917 139.673 324.917 139.267C325.406 135.611 328.254 136.017 329.963 136.099C331.753 136.18 333.95 136.261 334.764 134.555C335.171 133.824 335.089 132.93 335.333 132.118C335.903 130.331 337.693 129.275 339.402 129.275C341.111 129.275 342.739 130.087 344.122 131.143C348.679 134.555 349.981 125.538 352.097 122.938C354.538 119.932 359.095 118.307 362.187 120.42C365.28 122.613 367.07 126.431 367.884 130.331C368.128 131.631 368.209 133.174 369.267 133.824C372.278 135.855 376.103 131.874 379.765 134.961C381.067 136.017 381.311 138.617 381.148 140.323H324.836V140.485Z" fill="white" stroke="#336383" stroke-miterlimit="10" stroke-linejoin="round"/>
</svg>
