<svg width="430" height="149" viewBox="0 0 430 149" fill="none" xmlns="http://www.w3.org/2000/svg">
<path d="M421.374 53.9516C423.001 52.0831 424.466 49.9709 425.605 47.615C426.826 45.2591 427.64 42.9032 428.291 40.4661L421.699 38.2726C422.188 35.998 422.35 33.7233 422.269 31.4487L429.105 30.3113C428.698 25.1933 427.07 20.2378 424.385 15.9322L418.119 19.0193C416.898 17.1508 415.433 15.3635 413.643 13.82L417.631 8.13337C415.759 6.50862 413.643 5.04633 411.283 3.909C408.923 2.69044 406.563 1.87805 404.122 1.22815L401.925 7.80842C399.646 7.32099 397.368 7.15852 395.089 7.23976L393.95 0.415771C388.824 0.821961 383.86 2.44672 379.547 5.12757L382.639 11.3829C380.767 12.6015 378.977 14.0637 377.431 15.851L371.735 11.8703C370.107 13.7388 368.642 15.851 367.503 18.2069C366.282 20.5628 365.469 22.9187 364.818 25.3558L371.409 27.5492C370.921 29.8239 370.758 32.0986 370.839 34.3732L364.004 35.5106C364.411 40.6285 366.038 45.5841 368.724 49.8897L374.99 46.8026C376.21 48.6711 377.675 50.4583 379.465 52.0019L375.478 57.6885C377.35 59.3133 379.465 60.7755 381.825 61.9129C384.185 63.1314 386.545 63.9438 388.986 64.5937L391.183 58.0135C393.462 58.5009 395.74 58.6634 398.019 58.5821L399.158 65.4061C404.285 64.9999 409.249 63.3752 413.562 60.6943L410.469 54.439C412.341 53.2204 414.131 51.7581 415.678 49.9709L421.374 53.9516ZM390.939 43.9593C384.755 40.791 382.313 33.3171 385.487 27.143C388.661 20.969 396.147 18.5318 402.332 21.7001C408.516 24.8684 410.958 32.3423 407.784 38.5164C404.61 44.6092 397.042 47.0463 390.939 43.9593Z" fill="#336383"/>
<path d="M45.5825 142.176C47.21 140.795 48.6748 139.251 49.9768 137.464C51.2788 135.677 52.3367 133.808 53.1505 131.859L48.0238 129.097C48.7562 127.309 49.1631 125.441 49.4072 123.491H55.2662C55.5917 119.186 54.9407 114.88 53.3946 110.899L47.7797 112.605C47.0473 110.818 46.0708 109.193 44.8501 107.65L49.0003 103.507C47.6169 101.882 46.0708 100.42 44.2805 99.1199C42.4902 97.8201 40.6186 96.764 38.6656 95.9516L35.8988 101.07C34.1085 100.338 32.2369 99.9323 30.2839 99.6886V93.8394C25.971 93.5145 21.6581 94.1644 17.6707 95.7079L19.3795 101.313C17.5893 102.044 15.9618 103.019 14.4156 104.238L10.2655 100.095C8.63795 101.476 7.17319 103.019 5.87118 104.807C4.56917 106.594 3.51128 108.462 2.69752 110.412L7.82419 113.174C7.09181 114.961 6.68493 116.83 6.44081 118.779H0.581757C0.256254 123.085 0.907256 127.391 2.45339 131.371L8.06832 129.665C8.8007 131.453 9.77721 133.077 10.9978 134.621L6.84768 138.764C8.23107 140.389 9.77721 141.851 11.5675 143.151C13.3577 144.451 15.2294 145.507 17.1824 146.319L19.9492 141.201C21.7394 141.932 23.6111 142.338 25.5641 142.582V148.431C29.877 148.756 34.1899 148.106 38.1773 146.563L36.4684 140.957C38.2587 140.226 39.8862 139.251 41.4324 138.033L45.5825 142.176ZM21.8208 129.584C17.2638 126.172 16.2873 119.754 19.6237 115.124C23.0414 110.574 29.4701 109.6 34.1086 112.93C38.6656 116.342 39.6421 122.76 36.3057 127.391C32.8879 132.021 26.3779 132.996 21.8208 129.584Z" fill="#336383"/>
</svg>
