<svg width="146" height="281" viewBox="0 0 146 281" fill="none" xmlns="http://www.w3.org/2000/svg">
<path d="M139.718 13.0381H1.28906V269.48H139.718V13.0381Z" fill="#9CD4EF"/>
<path d="M139.718 13.0381H1.28906V29.0162H139.718V13.0381Z" fill="white"/>
<path opacity="0.3" d="M97.6237 13.0381L1.28906 181.101V241.236L132.094 13.0381H97.6237Z" fill="white"/>
<path opacity="0.3" d="M139.718 118.074L137.43 116.424L54.1602 263.513L56.4352 269.48H139.718V118.074Z" fill="white"/>
<path d="M143.877 63.4936C144.33 63.4936 144.765 63.3135 145.085 62.9929C145.406 62.6722 145.586 62.2374 145.586 61.784V44.6883C145.586 44.2349 145.406 43.8001 145.085 43.4794C144.765 43.1588 144.33 42.9787 143.877 42.9787C143.77 42.9716 143.664 42.9716 143.557 42.9787V11.0224C143.557 9.57436 143.272 8.14051 142.718 6.80278C142.163 5.46504 141.351 4.24965 140.327 3.22604C139.302 2.20243 138.086 1.39066 136.748 0.837123C135.41 0.283587 133.976 -0.000871887 132.528 2.00743e-06H11.0291C9.58101 -0.000871887 8.14699 0.283587 6.80893 0.837123C5.47086 1.39066 4.25497 2.20243 3.23074 3.22604C2.20651 4.24965 1.39402 5.46504 0.839674 6.80278C0.28533 8.14051 -2.63698e-07 9.57436 0 11.0224V269.121C0 272.046 1.16199 274.851 3.23034 276.92C5.29869 278.988 8.10397 280.15 11.0291 280.15H132.528C135.453 280.15 138.259 278.988 140.327 276.92C142.395 274.851 143.557 272.046 143.557 269.121V112.133C143.664 112.144 143.77 112.144 143.877 112.133C144.33 112.133 144.765 111.953 145.085 111.632C145.406 111.312 145.586 110.877 145.586 110.424V93.3212C145.586 92.8678 145.406 92.433 145.085 92.1124C144.765 91.7918 144.33 91.6117 143.877 91.6117C143.769 91.6122 143.662 91.6233 143.557 91.6449V87.8067C143.664 87.8172 143.77 87.8172 143.877 87.8067C144.33 87.8067 144.765 87.6266 145.085 87.306C145.406 86.9854 145.586 86.5506 145.586 86.0971V69.0014C145.586 68.548 145.406 68.1132 145.085 67.7926C144.765 67.472 144.33 67.2919 143.877 67.2919C143.77 67.2814 143.664 67.2814 143.557 67.2919V63.4603C143.662 63.4819 143.769 63.4931 143.877 63.4936ZM137.171 263.513H6.38595V19.0248H137.171V263.513Z" fill="#336383"/>
<path d="M127.453 45.2471H16.2909C13.947 45.2471 12.0469 47.1472 12.0469 49.4911V87.2879C12.0469 89.6318 13.947 91.5319 16.2909 91.5319H127.453C129.797 91.5319 131.697 89.6318 131.697 87.2879V49.4911C131.697 47.1472 129.797 45.2471 127.453 45.2471Z" fill="#336383" stroke="#263238" stroke-linecap="round" stroke-linejoin="round"/>
<path d="M62.4848 50.4956V57.2075H62.0391V50.4956H62.4848Z" fill="white"/>
<path d="M63.6558 57.2075H63.25V50.4956H63.8287L65.8243 56.1698V50.4956H66.2301V57.2075H65.7379L63.6358 51.2207L63.6558 57.2075Z" fill="white"/>
<path d="M69.8729 52.1385V52.6972H69.4539V52.1119C69.4539 51.3868 69.1745 50.8413 68.4361 50.8413C67.6977 50.8413 67.4183 51.3868 67.4183 52.1119V55.6042C67.4183 56.3292 67.6977 56.8614 68.4361 56.8614C69.1745 56.8614 69.4539 56.3292 69.4539 55.6042V54.8059H69.8729V55.5776C69.8729 56.5488 69.4539 57.2805 68.4228 57.2805C67.3917 57.2805 66.9727 56.5488 66.9727 55.5776V52.1385C66.9727 51.1673 67.3984 50.4355 68.4228 50.4355C69.4472 50.4355 69.8729 51.1673 69.8729 52.1385Z" fill="white"/>
<path d="M70.5625 52.1385C70.5625 51.1606 71.0148 50.4355 72.0326 50.4355C73.0504 50.4355 73.5227 51.1606 73.5227 52.1385V55.5776C73.5227 56.5554 73.0703 57.2805 72.0326 57.2805C70.9949 57.2805 70.5625 56.5554 70.5625 55.5776V52.1385ZM71.0082 55.6042C71.0082 56.3359 71.2942 56.8747 72.0326 56.8747C72.771 56.8747 73.077 56.3359 73.077 55.6042V52.1119C73.077 51.3801 72.7843 50.8413 72.0326 50.8413C71.2809 50.8413 71.0082 51.3801 71.0082 52.1119V55.6042Z" fill="white"/>
<path d="M76.5117 57.2075H76.066L74.6491 51.2606V57.2474H74.25V50.4956H74.9152L76.3254 56.4425L77.729 50.4956H78.3609V57.2075H77.9419V51.2207L76.5117 57.2075Z" fill="white"/>
<path d="M81.382 53.6087V54.0079H79.5461V56.815H81.7546V57.2075H79.0938V50.4956H81.7546V50.9014H79.5461V53.6087H81.382Z" fill="white"/>
<path d="M41.8838 66.7796V65.855H43.5335V66.8129C44.9637 67.1056 45.7021 68.2031 45.7021 69.9526V70.3517H43.793V69.8196C43.793 68.9016 43.4271 68.5557 42.7819 68.5557C42.1366 68.5557 41.7707 68.9016 41.7707 69.8196C41.7707 72.4804 45.722 72.5935 45.722 76.2654C45.722 78.0082 44.9637 79.1258 43.5335 79.4251V80.3564H41.8838V79.4251C40.4337 79.1258 39.6953 78.0082 39.6953 76.2654V75.3807H41.5911V76.3918C41.5911 77.3098 41.9969 77.6424 42.6422 77.6424C43.2874 77.6424 43.6865 77.3098 43.6865 76.3918C43.6865 73.731 39.7419 73.6245 39.7419 69.9526C39.7552 68.1898 40.467 67.0923 41.8838 66.7796Z" fill="white"/>
<path d="M48.3203 68.2629C49.8835 68.2629 50.2294 67.5112 50.5421 66.6465H51.9058V79.4982H49.9102V69.6998H48.3469L48.3203 68.2629Z" fill="white"/>
<path d="M56.1623 75.3473V76.5447C56.1623 77.4627 56.5614 77.7886 57.2067 77.7886C57.8519 77.7886 58.251 77.4627 58.251 76.5447V73.7176C58.251 72.7996 57.8519 72.4471 57.2067 72.4471C56.5614 72.4471 56.1623 72.7996 56.1623 73.7176V74.1034H54.2266L54.5924 66.6465H59.914V68.5157H56.4084L56.2421 71.5823C56.4233 71.2812 56.6832 71.0354 56.9939 70.8713C57.3045 70.7071 57.6541 70.631 58.0049 70.651C59.495 70.651 60.2466 71.6954 60.2466 73.5845V76.4516C60.2466 78.507 59.2156 79.6778 57.2333 79.6778C55.251 79.6778 54.2266 78.4937 54.2266 76.4183V75.3473H56.1623Z" fill="white"/>
<path d="M61.6094 79.4983V77.5559H63.5385V79.2987L62.6537 81.3343H61.8289L62.3611 79.4983H61.6094Z" fill="white"/>
<path d="M64.8711 69.8463C64.8711 67.6777 65.8623 66.5203 67.9576 66.5203C69.9533 66.5203 70.9644 67.6977 70.9644 69.7531V70.0857H69.0552V69.6268C69.0552 68.7088 68.6561 68.3562 68.0109 68.3562C67.3656 68.3562 66.8933 68.7088 66.8933 69.9394V72.2876C67.0507 71.9292 67.3144 71.6279 67.6488 71.4245C67.9831 71.221 68.3719 71.1252 68.7625 71.1501C70.2526 71.1501 71.0043 72.1944 71.0043 74.0836V76.4384C71.0043 78.4939 69.92 79.6647 67.9377 79.6647C65.9554 79.6647 64.8711 78.4939 64.8711 76.4185V69.8463ZM66.8667 74.23V76.5449C66.8667 77.4628 67.2658 77.7888 67.9111 77.7888C68.5563 77.7888 68.9554 77.4628 68.9554 76.5449V74.23C68.9554 73.312 68.5563 72.9661 67.9111 72.9661C67.2658 72.9661 66.9199 73.312 66.9199 74.23H66.8667Z" fill="white"/>
<path d="M78.2275 66.6465V68.4093L75.2541 79.4982H73.2585L76.1787 68.5157H72.1875V66.6797L78.2275 66.6465Z" fill="white"/>
<path d="M82.4644 79.6447C80.4289 79.6447 79.3047 78.474 79.3047 76.4185V75.4074C79.3047 74.1767 79.6772 73.2189 80.5553 72.7466C79.7104 72.2876 79.3047 71.4162 79.3047 70.1589V69.7531C79.3047 67.6977 80.4289 66.5203 82.4644 66.5203C84.4999 66.5203 85.6241 67.6977 85.6241 69.7531V70.1589C85.6241 71.4228 85.1984 72.2876 84.3735 72.7466C85.2516 73.2388 85.6241 74.1967 85.6241 75.4074V76.4185C85.6241 78.4939 84.4999 79.6447 82.4644 79.6447ZM81.3269 70.5115C81.3269 71.5359 81.8058 71.8419 82.4644 71.8419C83.1229 71.8419 83.6019 71.5093 83.6019 70.5115V69.7931C83.6019 68.6356 83.1096 68.323 82.4644 68.323C81.8192 68.323 81.3269 68.6356 81.3269 69.7931V70.5115ZM82.4644 77.8287C83.1296 77.8287 83.5819 77.5161 83.6019 76.3786V75.1679C83.6019 74.1568 83.1828 73.7178 82.4644 73.7178C81.746 73.7178 81.3269 74.1568 81.3269 75.1679V76.3586C81.3269 77.4961 81.8192 77.8287 82.4644 77.8287Z" fill="white"/>
<path d="M88.776 77.5559V79.4983H86.8203V77.5559H88.776Z" fill="white"/>
<path d="M93.1996 68.3362C92.5344 68.3362 92.1552 68.6888 92.1552 69.6067V70.9837H90.2461V69.7331C90.2461 67.6777 91.2772 66.5002 93.2595 66.5002C95.2418 66.5002 96.2662 67.6777 96.2662 69.7331C96.2662 73.7709 92.275 75.2743 92.275 77.3896C92.2651 77.4802 92.2651 77.5717 92.275 77.6623H96.0932V79.4983H90.2528V77.9218C90.2528 74.1368 94.244 73.5181 94.244 69.8063C94.2506 68.6488 93.8448 68.3362 93.1996 68.3362Z" fill="white"/>
<path d="M97.3867 69.8463C97.3867 67.6777 98.3779 66.5203 100.473 66.5203C102.469 66.5203 103.487 67.6977 103.487 69.7531V70.0857H101.577V69.6268C101.577 68.7088 101.172 68.3562 100.526 68.3562C99.8812 68.3562 99.4089 68.7088 99.4089 69.9394V72.2876C99.5675 71.9287 99.8324 71.6272 100.168 71.4237C100.503 71.2203 100.893 71.1248 101.285 71.1501C102.768 71.1501 103.52 72.1944 103.52 74.0836V76.4384C103.52 78.4939 102.436 79.6647 100.453 79.6647C98.471 79.6647 97.3867 78.4939 97.3867 76.4384V69.8463ZM99.3823 74.23V76.5449C99.3823 77.4628 99.7881 77.7888 100.427 77.7888C101.065 77.7888 101.478 77.4628 101.478 76.5449V74.23C101.478 73.312 101.072 72.9661 100.427 72.9661C99.7815 72.9661 99.4089 73.312 99.4089 74.23H99.3823Z" fill="white"/>
<path d="M127.91 103.678H15.8299C13.486 103.678 11.5859 105.579 11.5859 107.922V243.238C11.5859 245.582 13.486 247.482 15.8299 247.482H127.91C130.254 247.482 132.154 245.582 132.154 243.238V107.922C132.154 105.579 130.254 103.678 127.91 103.678Z" fill="#F4F4F4" stroke="#263238" stroke-linecap="round" stroke-linejoin="round"/>
<path d="M130.983 156.948H80.481V121.732H11.5859V247.455H130.983C131.294 247.455 131.591 247.332 131.811 247.112C132.031 246.893 132.154 246.595 132.154 246.284V158.119C132.154 157.808 132.031 157.51 131.811 157.291C131.591 157.071 131.294 156.948 130.983 156.948V156.948Z" fill="white" stroke="#263238" stroke-linecap="round" stroke-linejoin="round"/>
<path d="M29.2422 198.104H19.2109V222.337H29.2422V198.104Z" fill="#9CD4EF" stroke="#263238" stroke-linecap="round" stroke-linejoin="round"/>
<path d="M45.4062 182.558H35.375V222.337H45.4062V182.558Z" fill="#336383" stroke="#263238" stroke-linecap="round" stroke-linejoin="round"/>
<path d="M61.5625 195.356H51.5312V222.337H61.5625V195.356Z" fill="#9CD4EF" stroke="#263238" stroke-linecap="round" stroke-linejoin="round"/>
<path d="M77.7305 191.113H67.6992V222.337H77.7305V191.113Z" fill="#263238" stroke="#263238" stroke-linecap="round" stroke-linejoin="round"/>
<path d="M93.8867 189.417H83.8555V222.337H93.8867V189.417Z" fill="#9CD4EF" stroke="#263238" stroke-linecap="round" stroke-linejoin="round"/>
<path d="M110.051 167.924H100.02V222.337H110.051V167.924Z" fill="#336383" stroke="#263238" stroke-linecap="round" stroke-linejoin="round"/>
<path d="M126.211 174.323H116.18V222.337H126.211V174.323Z" fill="#9CD4EF" stroke="#263238" stroke-linecap="round" stroke-linejoin="round"/>
<path d="M22.1621 229.708V229.834H21.8028V229.688C21.8028 229.076 21.57 228.617 20.9447 228.617C20.3194 228.617 20.0866 229.069 20.0866 229.674C20.0866 231.078 22.1687 231.098 22.1687 232.688C22.1687 233.519 21.8095 234.125 20.9314 234.125C20.0534 234.125 19.6875 233.519 19.6875 232.688V232.388H20.0467V232.714C20.0467 233.326 20.2862 233.772 20.9181 233.772C21.5501 233.772 21.7895 233.326 21.7895 232.714C21.7895 231.331 19.7141 231.304 19.7141 229.701C19.7141 228.836 20.0866 228.277 20.9381 228.271C21.7895 228.264 22.1621 228.876 22.1621 229.708Z" fill="#263238"/>
<path d="M23.142 232.688C23.142 233.306 23.3749 233.779 24.0068 233.779C24.6388 233.779 24.8716 233.306 24.8716 232.688V228.317H25.2241V232.668C25.2241 233.493 24.8782 234.125 24.0001 234.125C23.1221 234.125 22.7695 233.493 22.7695 232.668V228.317H23.142V232.688Z" fill="#263238"/>
<path d="M26.2209 234.078H25.875V228.317H26.3672L28.0968 233.18V228.317H28.4427V234.078H28.0236L26.2209 228.943V234.078Z" fill="#263238"/>
<path d="M37.1244 234.071H36.7452L35.5279 228.976V234.078H35.1953V228.317H35.7341L36.9448 233.413L38.1488 228.317H38.6876V234.078H38.3284V228.963L37.1244 234.071Z" fill="#263238"/>
<path d="M39.3281 229.728C39.3281 228.89 39.7139 228.271 40.5853 228.271C41.4568 228.271 41.8625 228.89 41.8625 229.728V232.668C41.8625 233.513 41.4767 234.125 40.5853 234.125C39.694 234.125 39.3281 233.513 39.3281 232.668V229.728ZM39.7073 232.695C39.7073 233.32 39.9534 233.779 40.5853 233.779C41.2173 233.779 41.4834 233.32 41.4834 232.695V229.701C41.4834 229.076 41.2306 228.617 40.5853 228.617C39.9401 228.617 39.7073 229.076 39.7073 229.701V232.695Z" fill="#263238"/>
<path d="M42.8303 234.078H42.4844V228.317H42.9766L44.7061 233.18V228.317H45.052V234.078H44.633L42.8303 228.943V234.078Z" fill="#263238"/>
<path d="M53.4559 234.078V228.663H52.2852V228.317H55.0059V228.663H53.8351V234.078H53.4559Z" fill="#263238"/>
<path d="M55.844 232.688C55.844 233.306 56.0702 233.779 56.7021 233.779C57.3341 233.779 57.5669 233.306 57.5669 232.688V228.317H57.9261V232.668C57.9261 233.493 57.5802 234.125 56.6955 234.125C55.8108 234.125 55.4648 233.493 55.4648 232.668V228.317H55.844V232.688Z" fill="#263238"/>
<path d="M60.524 230.985V231.331H58.9475V233.732H60.8766V234.078H58.6016V228.317H60.8766V228.663H58.9475V230.985H60.524Z" fill="#263238"/>
<path d="M69.3396 234.078H68.8141L67.8828 228.317H68.2553L69.1134 233.566L69.9582 228.344H70.3574L71.1623 233.553L71.9938 228.317H72.333L71.4084 234.078H70.9161L70.1445 229.362L69.3396 234.078Z" fill="#263238"/>
<path d="M74.8471 230.985V231.331H73.2772V233.732H75.1664V234.078H72.918V228.317H75.1863V228.663H73.2971V230.985H74.8471Z" fill="#263238"/>
<path d="M77.0752 228.317C77.9599 228.317 78.3524 228.903 78.3524 229.748V232.648C78.3524 233.493 77.9599 234.078 77.0752 234.078H75.8047V228.317H77.0752ZM77.0752 233.732C77.7404 233.732 77.9799 233.3 77.9799 232.661V229.734C77.9799 229.102 77.7072 228.663 77.0752 228.663H76.1772V233.732H77.0752Z" fill="#263238"/>
<path d="M84.827 234.078V228.663H83.6562V228.317H86.3836V228.663H85.2062V234.078H84.827Z" fill="#263238"/>
<path d="M87.2319 231.371V234.078H86.8594V228.317H87.2319V231.025H89.0279V228.317H89.4137V234.078H89.0279V231.371H87.2319Z" fill="#263238"/>
<path d="M90.4417 232.688C90.4417 233.306 90.6678 233.779 91.2998 233.779C91.9317 233.779 92.1645 233.306 92.1645 232.688V228.317H92.5238V232.668C92.5238 233.493 92.1778 234.125 91.2931 234.125C90.4084 234.125 90.0625 233.493 90.0625 232.668V228.317H90.4417V232.688Z" fill="#263238"/>
<path d="M103.494 231.125V231.49H102.004V234.098H101.625V228.337H103.814V228.683H102.004V231.145L103.494 231.125Z" fill="#263238"/>
<path d="M105.593 228.317C106.471 228.317 106.824 228.803 106.824 229.648V230.147C106.824 230.812 106.564 231.211 105.992 231.337C106.256 231.389 106.489 231.54 106.644 231.76C106.798 231.979 106.863 232.249 106.824 232.515V233.413C106.812 233.643 106.86 233.872 106.963 234.078H106.571C106.472 233.871 106.429 233.642 106.445 233.413V232.508C106.445 231.743 106.025 231.53 105.367 231.53H104.782V234.105H104.402V228.344L105.593 228.317ZM105.38 231.158C106.045 231.158 106.445 230.972 106.445 230.193V229.654C106.445 229.036 106.205 228.663 105.58 228.663H104.782V231.158H105.38Z" fill="#263238"/>
<path d="M107.949 228.317V234.078H107.57V228.317H107.949Z" fill="#263238"/>
<path d="M120.903 229.708V229.834H120.537V229.688C120.537 229.076 120.311 228.617 119.686 228.617C119.06 228.617 118.828 229.069 118.828 229.674C118.828 231.078 120.91 231.098 120.91 232.688C120.91 233.519 120.544 234.125 119.666 234.125C118.788 234.125 118.422 233.519 118.422 232.688V232.388H118.788V232.714C118.788 233.326 119.027 233.772 119.659 233.772C120.291 233.772 120.531 233.326 120.531 232.714C120.531 231.331 118.448 231.304 118.448 229.701C118.448 228.836 118.828 228.277 119.672 228.271C120.517 228.264 120.903 228.876 120.903 229.708Z" fill="#263238"/>
<path d="M122.079 232.821L121.787 234.098H121.414L122.671 228.331H123.223L124.507 234.098H124.128L123.842 232.821H122.079ZM122.132 232.495H123.809L122.964 228.77L122.132 232.495Z" fill="#263238"/>
<path d="M125.765 234.078V228.663H124.594V228.317H127.321V228.663H126.144V234.078H125.765Z" fill="#263238"/>
<path d="M47.4874 110.55V110.69H47.0617V110.517C47.0617 109.812 46.7956 109.273 46.0639 109.273C45.3321 109.273 45.0661 109.798 45.0661 110.51C45.0661 112.146 47.494 112.173 47.494 114.029C47.494 114.993 47.075 115.705 46.0439 115.705C45.0128 115.705 44.5938 114.993 44.5938 114.029V113.683H45.0195V114.056C45.0195 114.774 45.2989 115.293 46.0372 115.293C46.7756 115.293 47.055 114.774 47.055 114.056C47.055 112.439 44.6204 112.413 44.6204 110.537C44.6204 109.532 45.0661 108.874 46.0572 108.867C47.0484 108.86 47.4874 109.579 47.4874 110.55Z" fill="#263238"/>
<path d="M49.5687 108.927C50.6064 108.927 51.0122 109.592 51.0122 110.557V111.288C51.0122 112.353 50.5199 112.885 49.4556 112.885H48.6175V115.652H48.2383V108.927H49.5687ZM49.4556 112.479C50.2339 112.479 50.5665 112.133 50.5665 111.315V110.53C50.5665 109.798 50.3204 109.326 49.5687 109.326H48.6175V112.479H49.4556Z" fill="#263238"/>
<path d="M53.9836 112.04V112.439H52.1476V115.246H54.3561V115.652H51.6953V108.927H54.3561V109.326H52.1476V112.04H53.9836Z" fill="#263238"/>
<path d="M55.4761 115.652H55.0703V108.927H55.6491L57.6447 114.601V108.927H58.0504V115.652H57.5515L55.4495 109.665L55.4761 115.652Z" fill="#263238"/>
<path d="M60.3076 108.927C61.3453 108.927 61.7977 109.592 61.7977 110.596V113.976C61.7977 114.967 61.3453 115.652 60.3076 115.652H58.8242V108.927H60.3076ZM60.3076 115.246C61.0593 115.246 61.3653 114.734 61.3653 113.996V110.576C61.3653 109.838 61.0527 109.326 60.3076 109.326H59.2832V115.246H60.3076Z" fill="#263238"/>
<path d="M62.9691 108.927V115.652H62.5234V108.927H62.9691Z" fill="#263238"/>
<path d="M64.1401 115.652H63.7344V108.927H64.3131L66.3087 114.601V108.927H66.7145V115.652H66.2222L64.1202 109.665L64.1401 115.652Z" fill="#263238"/>
<path d="M70.3557 110.57V111.089H69.9366V110.557C69.9366 109.838 69.6573 109.293 68.9189 109.293C68.1805 109.293 67.8945 109.838 67.8945 110.557V114.056C67.8945 114.774 68.1739 115.313 68.9189 115.313C69.6639 115.313 69.9366 114.774 69.9366 114.056V112.605H69.0386V112.2H70.369V114.029C70.369 115 69.95 115.725 68.9189 115.725C67.8878 115.725 67.4688 115 67.4688 114.029V110.59C67.4688 109.619 67.8945 108.887 68.9189 108.887C69.9433 108.887 70.3557 109.599 70.3557 110.57Z" fill="#263238"/>
<path d="M75.421 110.55V110.69H74.9952V110.517C74.9952 109.812 74.7292 109.273 73.9974 109.273C73.2657 109.273 72.9996 109.798 72.9996 110.51C72.9996 112.146 75.4276 112.173 75.4276 114.029C75.4276 114.993 75.0085 115.705 73.9775 115.705C72.9464 115.705 72.5273 114.993 72.5273 114.029V113.683H72.9531V114.056C72.9531 114.774 73.2324 115.293 73.9708 115.293C74.7092 115.293 74.9886 114.774 74.9886 114.056C74.9886 112.439 72.5539 112.413 72.5539 110.537C72.5539 109.532 72.9996 108.874 73.9908 108.867C74.9819 108.86 75.421 109.579 75.421 110.55Z" fill="#263238"/>
<path d="M76.5562 114.029C76.5562 114.747 76.8289 115.306 77.5673 115.306C78.3057 115.306 78.5784 114.747 78.5784 114.029V108.927H78.9909V114.009C78.9909 114.967 78.5851 115.705 77.5607 115.705C76.5363 115.705 76.1172 114.967 76.1172 114.009V108.927H76.5562V114.029Z" fill="#263238"/>
<path d="M82.0058 115.639H81.5667L80.1698 109.692V115.679H79.7773V108.927H80.4093L81.8195 114.874L83.2231 108.927H83.855V115.652H83.436V109.665L82.0058 115.639Z" fill="#263238"/>
<path d="M86.8566 115.639H86.4176L84.994 109.692V115.679H84.6016V108.927H85.2335L86.6437 114.874L88.0473 108.927H88.7125V115.652H88.2934V109.665L86.8566 115.639Z" fill="#263238"/>
<path d="M90.0899 114.162L89.7573 115.652H89.3516L90.815 108.914H91.4802L92.9769 115.652H92.5379L92.1986 114.162H90.0899ZM90.1498 113.75H92.1454L91.1543 109.399L90.1498 113.75Z" fill="#263238"/>
<path d="M95.0364 108.927C96.0608 108.927 96.4732 109.492 96.4732 110.443V111.029C96.5224 111.34 96.4496 111.658 96.2699 111.917C96.0902 112.176 95.8175 112.356 95.5087 112.419C95.8157 112.481 96.0872 112.658 96.2668 112.914C96.4465 113.171 96.5204 113.487 96.4732 113.796V114.84C96.4519 115.121 96.5095 115.402 96.6395 115.652H96.1805C96.0597 115.4 96.0091 115.119 96.0342 114.84V113.789C96.0342 112.891 95.5419 112.645 94.777 112.645H94.0718V115.652H93.6328V108.927H95.0364ZM94.7836 112.253C95.5752 112.253 96.0342 112.033 96.0342 111.129V110.497C96.0342 109.772 95.7548 109.339 95.0231 109.339H94.0718V112.253H94.7836Z" fill="#263238"/>
<path d="M98.6272 113.084L97.1172 108.947H97.5762L98.8667 112.479L100.151 108.947H100.583L99.0662 113.084V115.672H98.6272V113.084Z" fill="#263238"/>
<path d="M17.751 133.939H17.139L16.0547 127.213H16.4871L17.4915 133.347L18.476 127.247H18.9417L19.8862 133.327L20.8574 127.213H21.2499L20.1723 133.939H19.6002L18.6955 128.437L17.751 133.939Z" fill="#263238"/>
<path d="M24.1996 130.327V130.732H22.3703V133.539H24.5788V133.939H21.918V127.213H24.5788V127.619H22.3703V130.327H24.1996Z" fill="#263238"/>
<path d="M27.5735 130.327V130.732H25.7375V133.539H27.946V133.939H25.2852V127.213H27.946V127.619H25.7375V130.327H27.5735Z" fill="#263238"/>
<path d="M29.5699 130.779L29.1109 131.511V133.939H28.6719V127.213H29.1109V130.772L31.2994 127.213H31.7651L29.8426 130.38L31.8848 133.972H31.4258L29.5699 130.779Z" fill="#263238"/>
<path d="M32.5469 133.939V127.213H32.9859V133.539H35.1012V133.939H32.5469Z" fill="#263238"/>
<path d="M36.553 131.358L35.043 127.213H35.502L36.7925 130.752L38.0763 127.213H38.5087L36.992 131.358V133.939H36.553V131.358Z" fill="#263238"/>
<path d="M17.7718 140.863V140.198H18.9692V140.863C20.0003 141.07 20.5324 141.861 20.5324 143.118V143.411H19.1555V143.019C19.1555 142.353 18.8894 142.107 18.4304 142.107C17.9714 142.107 17.7053 142.36 17.7053 143.019C17.7053 144.921 20.5457 145.014 20.5457 147.675C20.5457 148.932 20.0003 149.737 18.9692 149.95V150.615H17.7718V149.95C16.7275 149.737 16.1953 148.932 16.1953 147.675V147.01H17.5723V147.735C17.5723 148.4 17.865 148.633 18.324 148.633C18.7829 148.633 19.0756 148.394 19.0756 147.735C19.0756 145.832 16.2352 145.739 16.2352 143.079C16.2352 141.875 16.7541 141.083 17.7718 140.863Z" fill="#263238"/>
<path d="M25.7752 147.715C25.7752 149.271 25.0634 150.116 23.5534 150.116C22.0434 150.116 21.3915 149.271 21.3915 147.795V147.555H22.7618V147.888C22.7618 148.553 23.0545 148.799 23.5135 148.799C23.9725 148.799 24.2918 148.546 24.2918 147.675V145.985C24.179 146.24 23.9913 146.455 23.7538 146.601C23.5162 146.747 23.2399 146.818 22.9614 146.804C21.8904 146.804 21.3516 146.052 21.3516 144.688V143.019C21.3516 141.542 22.1298 140.697 23.5534 140.697C24.9769 140.697 25.7618 141.542 25.7618 143.019L25.7752 147.715ZM24.2918 144.555V142.892C24.2918 142.227 24.0057 141.994 23.5401 141.994C23.0744 141.994 22.7884 142.234 22.7884 142.892V144.555C22.7884 145.22 23.0811 145.467 23.5401 145.467C23.9991 145.467 24.2918 145.22 24.2918 144.555Z" fill="#263238"/>
<path d="M26.6211 143.019C26.6211 141.542 27.3994 140.697 28.8229 140.697C30.2464 140.697 31.0314 141.542 31.0314 143.019V147.828C31.0314 149.305 30.2531 150.15 28.8229 150.15C27.3927 150.15 26.6211 149.305 26.6211 147.828V143.019ZM28.0712 147.921C28.0712 148.586 28.3639 148.832 28.8229 148.832C29.2819 148.832 29.5813 148.58 29.5813 147.921V142.925C29.5813 142.26 29.2886 142.014 28.8229 142.014C28.3573 142.014 28.0712 142.267 28.0712 142.925V147.921Z" fill="#263238"/>
<path d="M31.8516 143.019C31.8516 141.542 32.6299 140.697 34.06 140.697C35.4902 140.697 36.2685 141.509 36.2685 143.019V147.828C36.2685 149.305 35.4902 150.15 34.0667 150.15C32.6432 150.15 31.8582 149.305 31.8582 147.828L31.8516 143.019ZM33.3017 147.921C33.3017 148.586 33.5944 148.832 34.06 148.832C34.5257 148.832 34.8117 148.58 34.8117 147.921V142.925C34.8117 142.26 34.519 142.014 34.06 142.014C33.601 142.014 33.3017 142.267 33.3017 142.925V147.921Z" fill="#263238"/>
<path d="M38.5989 148.613V150.01H37.1953V148.613H38.5989Z" fill="#263238"/>
<path d="M41.7414 150.116C40.2779 150.116 39.473 149.271 39.473 147.795V147.07C39.4255 146.696 39.4845 146.317 39.6435 145.975C39.8024 145.634 40.0546 145.345 40.371 145.14C40.0589 144.948 39.8083 144.671 39.6492 144.341C39.49 144.011 39.4289 143.642 39.473 143.278V143.018C39.473 141.542 40.2779 140.697 41.7414 140.697C42.0519 140.666 42.3654 140.705 42.6588 140.811C42.9522 140.917 43.218 141.088 43.4364 141.311C43.6548 141.534 43.8204 141.803 43.9207 142.099C44.0211 142.394 44.0538 142.709 44.0163 143.018V143.311C44.0564 143.675 43.9935 144.042 43.8347 144.371C43.6759 144.701 43.4276 144.979 43.1183 145.174C43.4314 145.381 43.681 145.671 43.8395 146.012C43.998 146.352 44.0592 146.73 44.0163 147.103V147.828C44.0484 148.135 44.0117 148.446 43.9089 148.737C43.8062 149.028 43.6399 149.293 43.4221 149.512C43.2043 149.731 42.9405 149.899 42.6498 150.004C42.3591 150.108 42.0488 150.146 41.7414 150.116V150.116ZM40.9231 143.557C40.9231 144.296 41.2691 144.535 41.7414 144.535C42.2136 144.535 42.5595 144.296 42.5595 143.557V143.018C42.5595 142.187 42.207 141.961 41.7414 141.961C41.2757 141.961 40.9231 142.207 40.9231 143.018V143.557ZM41.7414 148.799C42.207 148.799 42.5462 148.573 42.5595 147.755V146.897C42.5595 146.172 42.2536 145.852 41.7414 145.852C41.2291 145.852 40.9231 146.172 40.9231 146.897V147.755C40.9231 148.573 41.2824 148.799 41.7414 148.799Z" fill="#263238"/>
<path d="M49.1509 147.715C49.1509 149.271 48.4391 150.116 46.9291 150.116C45.4191 150.116 44.7672 149.271 44.7672 147.795V147.555H46.1375V147.888C46.1375 148.553 46.4302 148.799 46.8892 148.799C47.3482 148.799 47.6941 148.546 47.6941 147.662V145.972C47.5813 146.227 47.3937 146.442 47.1561 146.588C46.9186 146.734 46.6422 146.805 46.3637 146.79C45.2927 146.79 44.7539 146.039 44.7539 144.675V143.019C44.7539 141.542 45.5322 140.697 46.9557 140.697C48.3793 140.697 49.1642 141.542 49.1642 143.019L49.1509 147.715ZM47.6941 144.555V142.892C47.6941 142.227 47.408 141.994 46.9424 141.994C46.4768 141.994 46.1907 142.234 46.1907 142.892V144.555C46.1907 145.22 46.4834 145.467 46.9424 145.467C47.4014 145.467 47.6941 145.22 47.6941 144.555Z" fill="#263238"/>
<path d="M87.8936 133.932H87.4879L86.0643 127.985V133.939H85.6719V127.213H86.3038L87.7207 133.16L89.1176 127.213H89.7828V133.939H89.3571V127.952L87.8936 133.932Z" fill="#263238"/>
<path d="M90.4609 128.856C90.4609 127.879 90.9066 127.16 91.931 127.16C92.9554 127.16 93.4144 127.879 93.4144 128.856V132.296C93.4144 133.28 92.9687 133.998 91.931 133.998C90.8933 133.998 90.4609 133.28 90.4609 132.296V128.856ZM90.9 132.329C90.9 133.054 91.186 133.593 91.931 133.593C92.6761 133.593 92.9754 133.054 92.9754 132.329V128.83C92.9754 128.098 92.6761 127.559 91.931 127.559C91.186 127.559 90.9 128.098 90.9 128.83V132.329Z" fill="#263238"/>
<path d="M94.5464 133.939H94.1406V127.213H94.7193L96.715 132.894V127.213H97.1141V133.939H96.6285L94.5198 127.952L94.5464 133.939Z" fill="#263238"/>
<path d="M99.0355 133.939V127.619H97.6719V127.213H100.852V127.619H99.4613V133.939H99.0355Z" fill="#263238"/>
<path d="M101.837 130.779V133.939H101.398V127.213H101.837V130.38H103.933V127.22H104.385V133.945H103.933V130.779H101.837Z" fill="#263238"/>
<path d="M105.148 133.939V127.213H105.594V133.539H107.703V133.939H105.148Z" fill="#263238"/>
<path d="M109.151 131.358L107.641 127.213H108.106L109.39 130.752L110.681 127.213H111.113L109.596 131.358V133.939H109.151V131.358Z" fill="#263238"/>
<path d="M87.273 140.863V140.198H88.4637V140.863C89.4948 141.07 90.0203 141.861 90.0203 143.118V143.411H88.6433V143.019C88.6433 142.353 88.3839 142.107 87.9182 142.107C87.4526 142.107 87.1932 142.36 87.1932 143.019C87.1932 144.921 90.0336 145.014 90.0336 147.675C90.0336 148.932 89.4948 149.737 88.4637 149.95V150.615H87.273V149.95C86.2286 149.737 85.7031 148.932 85.7031 147.675V147.01H87.0734V147.735C87.0734 148.4 87.3661 148.633 87.8251 148.633C88.2841 148.633 88.5768 148.394 88.5768 147.735C88.5768 145.832 85.743 145.739 85.743 143.079C85.743 141.875 86.2552 141.083 87.273 140.863Z" fill="#263238"/>
<path d="M91.9102 141.927C92.2737 141.975 92.6415 141.881 92.9383 141.666C93.2351 141.451 93.4384 141.13 93.5066 140.77H94.4845V150.01H93.0343V142.959H91.9102V141.927Z" fill="#263238"/>
<path d="M96.1328 143.019C96.1328 141.542 96.9111 140.697 98.3413 140.697C99.7715 140.697 100.543 141.542 100.543 143.019V147.828C100.543 149.305 99.7648 150.15 98.3413 150.15C96.9178 150.15 96.1328 149.271 96.1328 147.795V143.019ZM97.5829 147.921C97.5829 148.586 97.8756 148.832 98.3413 148.832C98.8069 148.832 99.093 148.58 99.093 147.921V142.925C99.093 142.26 98.8003 142.014 98.3413 142.014C97.8823 142.014 97.5829 142.267 97.5829 142.925V147.921Z" fill="#263238"/>
<path d="M101.457 150.01V148.613H102.861V149.87L102.195 151.333H101.603L101.989 150.003L101.457 150.01Z" fill="#263238"/>
<path d="M106.055 141.981C105.596 141.981 105.303 142.234 105.303 142.892V143.883H103.926V143.019C103.926 141.542 104.671 140.697 106.095 140.697C107.518 140.697 108.263 141.542 108.263 143.019C108.263 145.926 105.37 147.01 105.37 148.526C105.363 148.593 105.363 148.66 105.37 148.726H108.11V150.056H103.906V148.926C103.906 146.205 106.787 145.753 106.787 143.085C106.78 142.207 106.521 141.981 106.055 141.981Z" fill="#263238"/>
<path d="M109.039 143.019C109.039 141.542 109.818 140.697 111.241 140.697C112.665 140.697 113.43 141.509 113.43 143.019V147.828C113.43 149.305 112.652 150.15 111.221 150.15C109.791 150.15 109.02 149.305 109.02 147.828L109.039 143.019ZM110.49 147.921C110.49 148.586 110.782 148.832 111.241 148.832C111.7 148.832 111.993 148.58 111.993 147.921V142.925C111.993 142.26 111.707 142.014 111.241 142.014C110.776 142.014 110.49 142.267 110.49 142.925V147.921Z" fill="#263238"/>
<path d="M114.266 143.019C114.266 141.542 115.044 140.697 116.467 140.697C117.891 140.697 118.676 141.542 118.676 143.019V147.828C118.676 149.305 117.898 150.15 116.467 150.15C115.037 150.15 114.266 149.305 114.266 147.828V143.019ZM115.716 147.921C115.716 148.586 116.008 148.832 116.467 148.832C116.926 148.832 117.226 148.58 117.226 147.921V142.925C117.226 142.26 116.933 142.014 116.467 142.014C116.002 142.014 115.716 142.267 115.716 142.925V147.921Z" fill="#263238"/>
<path d="M121.014 148.613V150.01H119.617V148.613H121.014Z" fill="#263238"/>
<path d="M123.408 147.01V147.868C123.408 148.533 123.694 148.766 124.16 148.766C124.626 148.766 124.912 148.526 124.912 147.868V145.832C124.912 145.167 124.619 144.921 124.16 144.921C123.701 144.921 123.408 145.174 123.408 145.832V146.112H122.031L122.297 140.75H126.129V142.08H123.608L123.488 144.289C123.618 144.073 123.804 143.897 124.027 143.78C124.25 143.662 124.501 143.608 124.752 143.624C125.823 143.624 126.368 144.382 126.368 145.739V147.801C126.368 149.278 125.623 150.123 124.2 150.123C122.776 150.123 122.031 149.278 122.031 147.801V147.01H123.408Z" fill="#263238"/>
</svg>
