<svg width="247" height="155" viewBox="0 0 247 155" fill="none" xmlns="http://www.w3.org/2000/svg">
<path d="M95.0727 126.078C92.8565 118.487 86.5901 112.651 78.4514 112.46C73.7133 112.346 69.1281 114.368 65.1161 116.656C59.6903 119.784 53.271 123.523 46.7753 122.569C42.6104 121.959 37.6813 119.632 36.6879 114.825C35.6562 109.714 39.7829 106.243 44.177 104.183C47.9598 102.428 53.271 98.2323 54.9522 94.1889C61.6772 78.2442 42.8397 60.0489 48.1891 41.8536C53.7677 22.8191 79.483 19.6149 92.4362 32.5462C93.6589 33.7668 94.8434 35.1019 95.8751 36.5133C98.5116 40.0226 100.078 44.7908 103.746 47.4228C108.484 50.8177 114.674 49.7497 119.795 47.728C129.576 43.8753 132.175 41.3196 141.727 37.1617C148.605 34.1864 157.087 31.5162 164.806 34.1483C170.346 36.0555 176.46 39.4886 179.555 44.4475C185.325 53.6786 182.726 63.5964 191.82 76.7184C195.947 82.669 202.519 84.3093 207.716 88.6197C221.28 99.7581 216.733 123.179 201.946 131.228C189.795 137.827 174.855 136.301 161.711 134.623C160.717 134.508 159.686 134.356 158.692 134.203" stroke="#336383" stroke-miterlimit="10" stroke-linejoin="round" stroke-dasharray="3.5 3.5"/>
<path d="M191.134 39.6412C192.28 38.3442 193.273 36.8947 194.114 35.2926C194.955 33.6905 195.566 32.0502 196.024 30.3719L191.516 28.7698C191.86 27.2058 192.012 25.6418 191.936 24.0779L196.674 23.3531C196.445 19.8438 195.375 16.4107 193.579 13.3591L189.261 15.4189C188.421 14.0838 187.427 12.8632 186.243 11.7951L189.07 7.94244C187.771 6.79808 186.319 5.80631 184.714 4.96711C183.11 4.12791 181.466 3.51759 179.785 3.05985L178.18 7.56099C176.614 7.21768 175.047 7.0651 173.481 7.14139L172.755 2.41138C169.239 2.64025 165.8 3.70832 162.744 5.50114L164.807 9.81156C163.47 10.6508 162.247 11.6425 161.177 12.825L157.318 10.0023C156.171 11.2992 155.178 12.7487 154.337 14.3508C153.497 15.9529 152.885 17.5932 152.427 19.2716L156.936 20.8737C156.592 22.4376 156.439 24.0016 156.515 25.5656L151.777 26.2903C152.007 29.7997 153.076 33.2327 154.872 36.2844L159.19 34.2245C160.031 35.5596 161.024 36.7803 162.209 37.8483L159.381 41.701C160.68 42.8454 162.132 43.8371 163.737 44.6763C165.342 45.5155 166.985 46.1258 168.666 46.5836L170.271 42.0824C171.838 42.4258 173.404 42.5783 174.971 42.502L175.697 47.2321C179.212 47.0032 182.651 45.9351 185.708 44.1423L183.644 39.8319C184.982 38.9927 186.205 38.0009 187.274 36.8184L191.134 39.6412ZM168.972 34.7586C163.47 31.8595 161.368 25.0697 164.272 19.5767C167.176 14.0838 173.977 11.9858 179.48 14.8849C184.982 17.7839 187.083 24.5738 184.179 30.0667C181.275 35.5596 174.474 37.6576 168.972 34.7586ZM170.5 31.8595C166.603 29.7997 165.113 24.9934 167.176 21.1026C169.239 17.2117 174.054 15.7241 177.951 17.7839C181.849 19.8438 183.339 24.6501 181.275 28.5409C179.25 32.4317 174.398 33.9194 170.5 31.8595Z" fill="#9CD4EF"/>
<path d="M88.5002 50.5126C89.1116 49.6352 89.6465 48.6816 90.0668 47.6517C90.4871 46.6218 90.7546 45.5537 90.9456 44.5238L88.0799 43.799C88.1945 42.8072 88.1945 41.8536 88.0417 40.8618L90.9074 40.0989C90.5635 37.9628 89.6847 35.9029 88.3856 34.1483L85.8255 35.6741C85.2523 34.9112 84.5264 34.2245 83.7622 33.6142L85.2523 31.0585C84.3735 30.4482 83.4183 29.9141 82.3866 29.4945C81.3549 29.0749 80.2851 28.8079 79.2534 28.6172L78.5274 31.4781C77.5339 31.3636 76.5787 31.3636 75.5852 31.5162L74.821 28.6553C72.6813 28.9986 70.6179 29.876 68.8603 31.1729L70.3887 33.7287C69.6245 34.3008 68.9367 35.0256 68.3253 35.7885L65.7653 34.3008C65.1539 35.1782 64.619 36.1318 64.1987 37.1617C63.7783 38.1917 63.5109 39.2597 63.3198 40.2896L66.1856 41.0144C66.0709 42.0062 66.0709 42.9598 66.2238 43.9516L63.358 44.7145C63.7019 46.8506 64.5808 48.9105 65.8799 50.6652L68.44 49.1393C69.0131 49.9022 69.7391 50.5889 70.5033 51.1992L69.0131 53.7549C69.8919 54.3652 70.8472 54.8993 71.8789 55.3189C72.9105 55.7385 73.9804 56.0055 75.0121 56.1962L75.7381 53.3353C76.7315 53.4498 77.6868 53.4498 78.6802 53.2972L79.4444 56.1581C81.5842 55.8148 83.6475 54.9374 85.4052 53.6405L83.8768 51.0848C84.641 50.5126 85.3288 49.7878 85.9401 49.0249L88.5002 50.5126ZM74.5536 48.8342C71 47.3847 69.2806 43.3413 70.7326 39.7937C72.1845 36.2462 76.2348 34.5297 79.7883 35.9792C83.3419 37.4287 85.0613 41.4721 83.6093 45.0197C82.1573 48.5672 78.1071 50.2837 74.5536 48.8342ZM75.3178 47.0032C72.7959 45.9733 71.5732 43.1124 72.6048 40.5567C73.6365 38.0391 76.5023 36.8184 79.0623 37.8483C81.5842 38.8783 82.8069 41.7392 81.7752 44.2949C80.7054 46.8125 77.8396 47.995 75.3178 47.0032Z" fill="#9CD4EF"/>
<path d="M99.9265 24.04C100.423 23.4678 100.844 22.8575 101.226 22.1709C101.608 21.4843 101.875 20.7595 102.066 20.0347L100.118 19.3481C100.27 18.6615 100.347 17.9749 100.309 17.3264L102.372 17.0213C102.257 15.4954 101.799 14.0078 101.035 12.7108L99.1623 13.5882C98.8184 13.016 98.3599 12.482 97.8632 12.0242L99.0859 10.3458C98.5128 9.84995 97.9014 9.43035 97.2136 9.0489C96.5258 8.66745 95.7999 8.40043 95.0739 8.2097L94.3861 10.1551C93.6983 10.0025 93.0105 9.92624 92.361 9.96438L92.0553 7.90454C90.5269 8.01898 89.0367 8.47672 87.7376 9.23963L88.54 11.1087C87.9668 11.452 87.4319 11.9098 86.9734 12.4057L85.2921 11.185C84.7954 11.7572 84.3751 12.3675 83.993 13.0542C83.6109 13.7408 83.3434 14.4655 83.1524 15.1903L85.1011 15.8769C84.9482 16.5635 84.8718 17.2501 84.91 17.8986L82.8467 18.2038C82.9613 19.7296 83.4198 21.2172 84.184 22.5142L86.0563 21.6368C86.4002 22.209 86.8587 22.743 87.3555 23.2008L86.1327 24.8792C86.7059 25.3751 87.3172 25.7947 88.005 26.1761C88.6928 26.5576 89.4188 26.8246 90.1448 27.0153L90.8326 25.0699C91.5203 25.2225 92.2081 25.2988 92.8577 25.2606L93.1634 27.3205C94.6918 27.206 96.182 26.7483 97.4811 25.9854L96.6023 24.1163C97.1754 23.773 97.7104 23.3152 98.1689 22.8193L99.9265 24.04ZM90.9854 20.7213C89.2659 19.8059 88.6164 17.7079 89.5334 15.9913C90.4505 14.2748 92.552 13.6263 94.2715 14.5418C95.9909 15.4573 96.6405 17.5553 95.7234 19.2718C94.8064 20.9502 92.7048 21.6368 90.9854 20.7213Z" fill="#9CD4EF"/>
<path d="M53.7676 54.4798C53.7676 54.2127 53.7294 53.9457 53.6912 53.6787C53.4238 51.3137 51.8189 51.5426 50.7873 51.5807C49.7938 51.657 48.5329 51.6952 48.0361 50.5889C47.8069 50.0931 47.8451 49.5209 47.6923 49.025C47.3866 47.8806 46.3549 47.194 45.3997 47.194C44.4062 47.194 43.4892 47.7662 42.6868 48.4528C42.2664 48.7961 41.8079 49.2539 41.3112 49.1013C41.0055 49.025 40.738 48.7198 40.547 48.3765C39.4007 46.5074 39.4007 43.7609 38.1398 42.0063C36.726 40.0608 34.1277 40.0227 32.3701 41.4341C30.6124 42.8455 29.5807 45.363 29.1222 47.9188C28.9694 48.758 28.8547 49.6353 28.3198 50.2075C27.5938 51.0085 26.4857 50.7415 25.4923 50.6271C24.346 50.5127 23.1615 50.7034 22.2444 51.5044C21.4802 52.191 21.0217 53.3735 21.0981 54.4798H53.7676V54.4798Z" fill="white" stroke="#336383" stroke-miterlimit="10" stroke-linejoin="round"/>
<path d="M119.222 13.4353H151.394C151.394 13.4353 150.095 11.9477 148.643 11.4136C146.809 10.7652 146.045 12.558 144.899 10.2311C144.249 8.93418 143.791 7.21765 142.071 6.7599C139.397 6.07329 138.709 8.28571 137.448 7.67539C136.34 7.14135 136.378 5.04337 135.232 3.28868C134.124 1.57215 131.449 0.542223 129.615 1.41956C126.252 3.05981 126.711 5.65369 125.603 6.49289C124.533 7.33208 122.049 4.35675 119.26 7.56095C117.311 9.84967 119.222 13.4353 119.222 13.4353Z" fill="white" stroke="#336383" stroke-miterlimit="10" stroke-linejoin="round"/>
<path d="M152.809 2.41137C152.809 3.17428 152.159 3.82275 151.395 3.82275C150.631 3.82275 149.981 3.17428 149.981 2.41137C149.981 1.64847 150.631 1 151.395 1C152.159 1 152.809 1.64847 152.809 2.41137Z" stroke="#336383" stroke-miterlimit="10" stroke-linejoin="round"/>
<path d="M245.81 115.969C245.81 116.732 245.161 117.381 244.397 117.381C243.632 117.381 242.983 116.732 242.983 115.969C242.983 115.207 243.632 114.558 244.397 114.558C245.161 114.558 245.81 115.168 245.81 115.969Z" stroke="#336383" stroke-miterlimit="10" stroke-linejoin="round"/>
<path d="M178.409 57.5698C178.409 58.3327 177.759 58.9812 176.995 58.9812C176.231 58.9812 175.581 58.3327 175.581 57.5698C175.581 56.8069 176.231 56.1584 176.995 56.1584C177.759 56.1584 178.409 56.8069 178.409 57.5698Z" stroke="#336383" stroke-miterlimit="10" stroke-linejoin="round"/>
<path d="M3.82754 74.2773C3.82754 75.0402 3.17797 75.6887 2.41377 75.6887C1.64957 75.6887 1 75.0402 1 74.2773C1 73.5144 1.64957 72.866 2.41377 72.866C3.21618 72.866 3.82754 73.5144 3.82754 74.2773Z" stroke="#336383" stroke-miterlimit="10" stroke-linejoin="round"/>
<path d="M61.4096 21.4841C61.4096 22.247 60.76 22.8955 59.9958 22.8955C59.2316 22.8955 58.582 22.247 58.582 21.4841C58.582 20.7212 59.2316 20.0728 59.9958 20.0728C60.7982 20.0728 61.4096 20.6831 61.4096 21.4841Z" stroke="#336383" stroke-miterlimit="10" stroke-linejoin="round"/>
<path d="M78.1463 15.0755C78.1463 15.6095 77.726 16.0291 77.1911 16.0291C76.6561 16.0291 76.2358 15.6095 76.2358 15.0755C76.2358 14.5414 76.6561 14.1218 77.1911 14.1218C77.726 14.1218 78.1463 14.5414 78.1463 15.0755Z" stroke="#336383" stroke-miterlimit="10" stroke-linejoin="round"/>
<path d="M234.386 82.8596C234.386 83.3937 233.966 83.8133 233.431 83.8133C232.896 83.8133 232.476 83.3937 232.476 82.8596C232.476 82.3256 232.896 81.906 233.431 81.906C233.966 81.906 234.386 82.3256 234.386 82.8596Z" stroke="#336383" stroke-miterlimit="10" stroke-linejoin="round"/>
<path d="M164.693 52.1145C165.22 52.1145 165.648 51.6876 165.648 51.1609C165.648 50.6342 165.22 50.2073 164.693 50.2073C164.165 50.2073 163.737 50.6342 163.737 51.1609C163.737 51.6876 164.165 52.1145 164.693 52.1145Z" stroke="#336383" stroke-miterlimit="10" stroke-linejoin="round"/>
<path d="M203.399 27.0535C203.399 27.5875 202.978 28.0071 202.444 28.0071C201.909 28.0071 201.488 27.5875 201.488 27.0535C201.488 26.5195 201.909 26.0999 202.444 26.0999C202.94 26.0999 203.399 26.5195 203.399 27.0535Z" stroke="#336383" stroke-miterlimit="10" stroke-linejoin="round"/>
<path d="M201.336 97.2405C201.336 97.7745 200.915 98.1941 200.381 98.1941C199.846 98.1941 199.425 97.7745 199.425 97.2405C199.425 96.7065 199.846 96.2869 200.381 96.2869C200.915 96.2869 201.336 96.7065 201.336 97.2405Z" stroke="#336383" stroke-miterlimit="10" stroke-linejoin="round"/>
<path d="M52.4315 106.395C52.4315 106.929 52.0112 107.349 51.4762 107.349C50.9413 107.349 50.521 106.929 50.521 106.395C50.521 105.861 50.9413 105.442 51.4762 105.442C52.0112 105.442 52.4315 105.861 52.4315 106.395Z" stroke="#336383" stroke-miterlimit="10" stroke-linejoin="round"/>
<path d="M55.2967 62.6426C55.2967 63.1766 54.8764 63.5962 54.3415 63.5962C53.8065 63.5962 53.3862 63.1766 53.3862 62.6426C53.3862 62.1086 53.8065 61.689 54.3415 61.689C54.8764 61.689 55.2967 62.1086 55.2967 62.6426Z" stroke="#336383" stroke-miterlimit="10" stroke-linejoin="round"/>
<path d="M240.269 69.1657H238.97C238.741 69.1657 238.55 68.975 238.55 68.7461V67.4491C238.55 67.2203 238.741 67.0295 238.97 67.0295H240.269C240.498 67.0295 240.69 67.2203 240.69 67.4491V68.7461C240.69 68.975 240.537 69.1657 240.269 69.1657Z" fill="#9CD4EF"/>
<path d="M42.6877 113.262H41.3886C41.1593 113.262 40.9683 113.071 40.9683 112.842V111.545C40.9683 111.316 41.1593 111.125 41.3886 111.125H42.6877C42.917 111.125 43.108 111.316 43.108 111.545V112.842C43.108 113.071 42.917 113.262 42.6877 113.262Z" fill="#9CD4EF"/>
<path d="M40.4709 35.2162H39.1718C38.9425 35.2162 38.7515 35.0255 38.7515 34.7966V33.4997C38.7515 33.2708 38.9425 33.0801 39.1718 33.0801H40.4709C40.7002 33.0801 40.8912 33.2708 40.8912 33.4997V34.7966C40.8912 35.0255 40.7002 35.2162 40.4709 35.2162Z" fill="#9CD4EF"/>
<path d="M205.386 20.0727H202.902C202.444 20.0727 202.1 19.7294 202.1 19.2716V16.8303C202.1 16.3726 202.444 16.0293 202.902 16.0293H205.386C205.845 16.0293 206.189 16.3726 206.189 16.8303V19.3098C206.189 19.7294 205.845 20.0727 205.386 20.0727Z" fill="#9CD4EF"/>
<path d="M182.383 81.4865H181.084C180.855 81.4865 180.664 81.2958 180.664 81.0669V79.7699C180.664 79.5411 180.855 79.3503 181.084 79.3503H182.383C182.612 79.3503 182.803 79.5411 182.803 79.7699V81.0669C182.803 81.2958 182.612 81.4865 182.383 81.4865Z" fill="#9CD4EF"/>
<path d="M153.15 66.3045C153.15 66.1137 153.189 65.923 153.189 65.7323C153.418 64.0158 154.755 64.2065 155.558 64.2446C156.398 64.2828 157.43 64.3209 157.812 63.5199C158.003 63.1766 157.965 62.757 158.079 62.3755C158.347 61.5363 159.188 61.0404 159.99 61.0404C160.792 61.0404 161.557 61.4219 162.206 61.9178C164.346 63.5199 164.957 59.2857 165.951 58.0651C167.097 56.6537 169.237 55.8908 170.689 56.8826C172.141 57.9125 172.981 59.7053 173.363 61.5363C173.478 62.1466 173.516 62.8714 174.013 63.1766C175.427 64.1302 177.223 62.2611 178.942 63.7106C179.553 64.2065 179.668 65.4271 179.592 66.2282H153.15V66.3045Z" fill="white" stroke="#336383" stroke-miterlimit="10" stroke-linejoin="round"/>
<path d="M47.8825 153.505C43.1063 146.295 33.057 128.062 41.7689 121.806C46.5452 118.373 52.888 121.501 55.9448 129.092C58.8488 136.301 59.9569 144.846 61.1796 153.429" fill="white"/>
<path d="M47.9976 153.429C46.9277 151.789 45.9342 150.148 44.979 148.432C43.8327 146.372 42.7246 144.236 41.7693 142.062C40.7759 139.811 39.9353 137.522 39.2857 135.157C38.7507 133.021 38.3686 130.809 38.4833 128.634C38.5979 126.765 39.0946 124.858 40.3174 123.332C41.5783 121.73 43.527 120.624 45.5903 120.548C47.8447 120.433 49.9463 121.501 51.5893 122.951C53.7673 124.896 55.1428 127.49 56.1745 130.237C57.359 133.441 58.1996 136.798 58.8874 140.116C59.5752 143.664 60.1101 147.211 60.6068 150.797C60.7215 151.674 60.8743 152.552 60.9889 153.467C61.0271 153.658 61.3328 153.581 61.2946 153.391C60.7597 149.729 60.263 146.067 59.6134 142.405C59.002 138.934 58.2378 135.462 57.1297 132.106C56.1745 129.169 55.0282 126.308 52.9648 123.943C51.4364 122.188 49.3731 120.738 47.0423 120.395C44.9025 120.052 42.801 120.738 41.1198 122.112C39.6296 123.332 38.7507 125.087 38.3686 126.956C37.9483 129.054 38.1012 131.228 38.5215 133.326C38.98 135.729 39.7442 138.056 40.6612 140.345C41.5783 142.634 42.6482 144.884 43.7945 147.059C44.7879 148.928 45.896 150.797 47.0423 152.59C47.2716 152.933 47.5008 153.276 47.7301 153.658C47.8829 153.658 48.074 153.543 47.9976 153.429Z" fill="#336383"/>
<path d="M44.2144 120.7L55.5245 153.505" stroke="#336383" stroke-miterlimit="10" stroke-linejoin="round"/>
<path d="M28.6636 153.505C24.5369 148.164 15.4812 134.699 23.0085 130.045C27.1352 127.49 32.2171 129.816 34.8536 135.424C37.3755 140.764 38.3307 147.058 39.3624 153.428" fill="white"/>
<path d="M28.7773 153.428C26.7904 150.796 24.9181 148.05 23.3897 145.151C22.5109 143.549 21.7467 141.87 21.1354 140.116C20.6386 138.59 20.2565 136.95 20.2947 135.309C20.3329 133.898 20.715 132.487 21.6321 131.38C22.702 130.122 24.345 129.282 25.988 129.13C27.7839 128.977 29.5415 129.626 30.9935 130.694C32.7512 131.991 34.0121 133.86 34.8909 135.843C37.1071 140.726 38.0242 146.143 38.8648 151.407C38.9794 152.093 39.094 152.78 39.2087 153.428C39.2469 153.619 39.5526 153.543 39.5144 153.352C38.6355 147.897 37.8331 142.328 35.7698 137.14C34.8909 134.966 33.8211 132.868 32.1016 131.228C30.7261 129.969 29.0448 129.015 27.1343 128.825C25.3767 128.672 23.619 129.244 22.2434 130.35C21.0971 131.266 20.3712 132.563 20.1037 134.012C19.8362 135.576 20.0273 137.178 20.4094 138.704C20.8679 140.497 21.5557 142.214 22.3581 143.854C23.9247 147.02 25.8352 149.995 27.9749 152.818C28.166 153.085 28.357 153.314 28.5481 153.581C28.6627 153.695 28.8538 153.543 28.7773 153.428Z" fill="#336383"/>
<path d="M25.1479 129.244L34.8915 153.505" stroke="#336383" stroke-miterlimit="10" stroke-linejoin="round"/>
<path d="M76.9986 153.428C65.6885 132.906 58.3522 112.575 67.5225 102.924C76.5783 93.3494 86.0544 104.679 88.347 114.749C91.1745 127.07 91.5948 140.383 91.5184 153.428" fill="white"/>
<path d="M76.9986 153.428C65.6885 132.906 58.3522 112.575 67.5225 102.924C76.5783 93.3494 86.0544 104.679 88.347 114.749C91.1745 127.07 91.5948 140.383 91.5184 153.428" stroke="#336383" stroke-miterlimit="10" stroke-linejoin="round"/>
<path d="M70.8472 100.444L84.4499 153.39" stroke="#336383" stroke-miterlimit="10" stroke-linejoin="round"/>
<path d="M59.9921 153.467C55.4833 142.633 45.3577 120.662 52.5029 113.91C57.0499 109.561 65.3033 114.902 69.5446 124.362C73.5566 133.364 74.7793 142.633 77.1866 153.352" fill="white"/>
<path d="M60.1076 153.467C59.1141 151.025 58.0442 148.584 57.0508 146.105C55.8662 143.244 54.7582 140.345 53.7265 137.408C52.6948 134.47 51.7778 131.533 51.1282 128.482C50.5551 125.888 50.1347 123.179 50.2494 120.509C50.3258 118.449 50.7843 116.275 52.0835 114.635C52.7712 113.796 53.6501 113.147 54.6435 112.804C55.6752 112.461 56.8215 112.461 57.8914 112.689C60.6425 113.3 63.0115 115.245 64.8456 117.267C67.3674 120.013 69.0869 123.332 70.4242 126.765C71.8762 130.427 72.9079 134.242 73.8249 138.056C74.7802 142.099 75.5444 146.143 76.385 150.186C76.6143 151.254 76.8435 152.284 77.0728 153.352C77.111 153.543 77.4167 153.467 77.3785 153.276C76.4232 149.08 75.6208 144.846 74.7038 140.612C73.8631 136.683 72.9079 132.792 71.5705 128.977C70.3096 125.354 68.7812 121.768 66.4504 118.678C64.6545 116.275 62.3619 114.063 59.5344 112.88C57.4329 112.003 54.9874 111.812 53.0387 113.224C51.3193 114.444 50.4404 116.428 50.0965 118.449C49.6762 120.967 49.9055 123.523 50.3258 126.04C50.8225 129.054 51.6631 132.029 52.5802 134.966C53.5736 138.018 54.6817 140.993 55.8662 143.969C56.9361 146.639 58.0442 149.233 59.1523 151.865C59.3816 152.399 59.6108 152.933 59.8401 153.505C59.9547 153.657 60.184 153.581 60.1076 153.467Z" fill="#336383"/>
<path d="M147.762 153.428C143.941 109.79 153.226 93.8071 163.39 93.1205C168.204 92.7772 182.304 95.5618 165.262 153.428" fill="white"/>
<path d="M147.84 153.428C147.534 148.813 147.19 144.197 147.075 139.581C146.961 135.652 146.999 131.685 147.19 127.756C147.343 124.438 147.649 121.119 148.107 117.839C148.489 115.13 149.024 112.46 149.712 109.79C150.285 107.616 151.011 105.518 151.89 103.458C152.616 101.818 153.495 100.216 154.565 98.766C155.443 97.5835 156.437 96.4773 157.621 95.5618C158.615 94.7989 159.723 94.1504 160.907 93.769C161.824 93.4638 162.78 93.2731 163.773 93.2349C164.27 93.2349 164.805 93.2349 165.225 93.3112C165.798 93.3875 166.371 93.5401 166.906 93.769C167.48 93.9978 168.129 94.3793 168.626 94.7607C169.275 95.2566 169.81 95.867 170.269 96.5536C170.88 97.3928 171.339 98.3464 171.683 99.3C172.179 100.559 172.485 101.856 172.753 103.191C173.058 104.907 173.211 106.662 173.287 108.417C173.364 110.667 173.287 112.918 173.135 115.168C172.944 118.029 172.561 120.852 172.141 123.675C171.606 127.146 170.918 130.617 170.192 134.05C169.275 138.246 168.244 142.366 167.097 146.524C166.486 148.813 165.875 151.101 165.187 153.39C165.149 153.543 165.378 153.581 165.416 153.466C166.104 151.101 166.83 148.736 167.48 146.371C168.091 144.197 168.626 141.985 169.199 139.772C170.116 135.958 170.995 132.143 171.683 128.329C172.256 125.239 172.753 122.111 173.096 118.945C173.364 116.427 173.593 113.91 173.631 111.354C173.67 109.37 173.631 107.349 173.402 105.365C173.249 103.839 172.982 102.314 172.561 100.826C172.256 99.6815 171.835 98.5753 171.262 97.5454C170.842 96.7443 170.307 95.9814 169.658 95.2948C169.123 94.7607 168.549 94.2649 167.9 93.9216C167.327 93.6164 166.754 93.3494 166.104 93.1968C165.569 93.0442 165.034 92.9679 164.461 92.9679C163.811 92.9298 163.162 92.9679 162.55 93.0823C161.328 93.2731 160.181 93.6927 159.112 94.2649C157.927 94.9133 156.857 95.7907 155.902 96.7824C154.756 97.9649 153.8 99.3382 152.998 100.75C152.005 102.504 151.202 104.373 150.514 106.281C149.712 108.646 149.062 111.049 148.604 113.49C147.992 116.465 147.61 119.479 147.343 122.492C146.999 126.116 146.846 129.778 146.846 133.402C146.808 137.75 146.961 142.061 147.19 146.371C147.343 148.698 147.496 151.063 147.763 153.39C147.725 153.504 147.84 153.504 147.84 153.428Z" fill="#336383"/>
<path d="M165.38 93.1973L156.4 153.39" stroke="#336383" stroke-miterlimit="10" stroke-linejoin="round"/>
<path d="M177.795 153.428C180.89 127.489 191.398 112.536 200.874 116.58C208.631 119.898 204.619 134.355 192.544 153.39" fill="white"/>
<path d="M177.872 153.428C178.216 151.254 178.483 149.08 178.903 146.905C179.286 144.884 179.706 142.9 180.203 140.878C181.081 137.369 182.151 133.936 183.565 130.579C184.711 127.871 186.049 125.239 187.73 122.836C189.029 120.967 190.596 119.212 192.468 117.877C193.92 116.847 195.639 116.084 197.473 116.046C199.155 115.97 200.989 116.465 202.288 117.572C203.702 118.716 204.389 120.433 204.619 122.225C204.924 124.667 204.504 127.146 203.893 129.511C203.052 132.792 201.791 135.958 200.377 139.047C198.582 142.938 196.48 146.677 194.302 150.338C193.691 151.33 193.079 152.322 192.506 153.352C192.43 153.466 192.621 153.581 192.697 153.466C194.035 151.483 195.257 149.385 196.442 147.287C197.512 145.418 198.543 143.51 199.499 141.565C201.103 138.323 202.594 134.966 203.663 131.495C204.466 128.939 205.077 126.269 205.039 123.561C205.001 121.653 204.58 119.67 203.358 118.182C202.25 116.809 200.53 116.046 198.773 115.817C197.015 115.588 195.219 116.008 193.652 116.809C191.742 117.801 190.099 119.365 188.762 121.005C187.004 123.179 185.552 125.62 184.367 128.138C182.877 131.266 181.693 134.584 180.737 137.903C179.591 141.908 178.751 146.028 178.139 150.148C177.986 151.216 177.834 152.322 177.757 153.39C177.719 153.505 177.872 153.543 177.872 153.428Z" fill="#336383"/>
<path d="M200.875 116.58L185.4 153.39" stroke="#336383" stroke-miterlimit="10" stroke-linejoin="round"/>
<path d="M54.9902 112.575L68.8605 153.505" stroke="#336383" stroke-miterlimit="10" stroke-linejoin="round"/>
<path d="M178.982 153.466C185.095 140.497 197.437 110.934 188.152 100.444C183.032 94.6845 173.709 101.741 168.741 114.444C164.041 126.498 160.526 138.933 157.584 153.276" fill="white"/>
<path d="M179.058 153.543C180.472 150.529 181.847 147.516 183.108 144.464C184.637 140.764 186.089 136.988 187.35 133.173C188.649 129.282 189.757 125.315 190.559 121.272C191.285 117.648 191.744 113.948 191.591 110.286C191.438 107.311 190.865 104.259 189.222 101.703C188.496 100.559 187.541 99.4908 186.318 98.8805C185.133 98.3083 183.796 98.1939 182.535 98.4228C181.007 98.7279 179.593 99.4908 178.332 100.406C176.765 101.551 175.428 102.924 174.205 104.45C172.753 106.281 171.492 108.264 170.423 110.324C169.238 112.613 168.321 115.054 167.404 117.457C165.532 122.454 163.889 127.566 162.398 132.677C160.832 138.094 159.494 143.587 158.272 149.118C157.966 150.529 157.66 151.941 157.393 153.352C157.355 153.543 157.66 153.657 157.699 153.428C158.845 147.859 160.106 142.328 161.558 136.873C162.933 131.724 164.5 126.65 166.258 121.615C167.136 119.136 168.015 116.694 168.971 114.253C169.888 111.964 170.996 109.714 172.333 107.616C173.479 105.823 174.778 104.106 176.269 102.581C177.491 101.36 178.905 100.216 180.472 99.4527C181.694 98.8424 183.07 98.4991 184.446 98.6516C185.783 98.8042 186.967 99.4908 187.846 100.483C189.795 102.619 190.712 105.518 191.056 108.341C191.476 111.812 191.209 115.359 190.636 118.83C189.986 122.798 188.993 126.688 187.808 130.541C186.624 134.394 185.248 138.17 183.758 141.947C182.459 145.189 181.083 148.393 179.631 151.597C179.325 152.246 179.058 152.856 178.752 153.505C178.791 153.543 179.02 153.657 179.058 153.543Z" fill="#336383"/>
<path d="M185.401 98.6133L169.009 153.504" stroke="#336383" stroke-miterlimit="10" stroke-linejoin="round"/>
<path d="M189.796 153.429C197.859 137.102 204.889 132.792 211.461 134.089C216.582 135.119 217.384 142.634 206.571 153.429" fill="white"/>
<path d="M189.833 153.467C190.597 152.132 191.246 150.759 192.011 149.424C192.66 148.241 193.348 147.059 194.074 145.914C195.297 143.969 196.634 142.1 198.124 140.383C199.271 139.048 200.57 137.751 201.983 136.683C203.13 135.844 204.352 135.119 205.69 134.623C206.836 134.204 208.059 134.013 209.282 134.013C210.39 134.013 211.574 134.127 212.568 134.623C213.485 135.081 214.172 135.844 214.516 136.798C214.975 137.98 214.937 139.277 214.707 140.498C214.363 142.291 213.599 143.969 212.682 145.533C211.383 147.745 209.74 149.767 208.021 151.674C207.486 152.246 206.989 152.781 206.454 153.353C206.339 153.467 206.492 153.62 206.607 153.505C207.753 152.475 208.785 151.331 209.74 150.148C210.581 149.157 211.345 148.127 212.071 147.059C213.179 145.38 214.172 143.587 214.746 141.642C215.128 140.307 215.357 138.896 215.051 137.522C214.822 136.492 214.287 135.501 213.446 134.852C212.529 134.166 211.421 133.899 210.313 133.784C209.09 133.67 207.83 133.746 206.645 134.051C205.308 134.394 204.047 134.967 202.862 135.691C201.41 136.607 200.149 137.713 198.965 138.972C197.475 140.536 196.137 142.291 194.915 144.083C193.348 146.41 191.972 148.813 190.673 151.293C190.291 151.979 189.947 152.704 189.642 153.429C189.68 153.467 189.794 153.543 189.833 153.467Z" fill="#336383"/>
<path d="M210.811 134.165L198.469 153.428" stroke="#336383" stroke-miterlimit="10" stroke-linejoin="round"/>
<path d="M16.3608 153.543H229.42" stroke="#416F8D" stroke-miterlimit="10"/>
<path d="M222.427 54.7845C223.192 53.9071 223.879 52.9153 224.414 51.8091C224.987 50.7029 225.369 49.5967 225.675 48.4523L222.58 47.4224C222.809 46.3544 222.886 45.2863 222.848 44.2182L226.057 43.6842C225.866 41.281 225.102 38.9542 223.841 36.9325L220.899 38.382C220.326 37.5047 219.638 36.6655 218.797 35.9407L220.67 33.2705C219.791 32.5076 218.797 31.821 217.689 31.287C216.581 30.7148 215.473 30.3333 214.327 30.0282L213.295 33.1179C212.225 32.8891 211.155 32.8128 210.085 32.8509L209.551 29.6467C207.143 29.8375 204.812 30.6004 202.787 31.8592L204.239 34.7963C203.361 35.3685 202.52 36.0551 201.794 36.8943L199.119 35.0252C198.355 35.9026 197.667 36.8943 197.132 38.0005C196.559 39.1068 196.177 40.213 195.871 41.3573L198.966 42.3872C198.737 43.4553 198.661 44.5234 198.699 45.5915L195.489 46.1255C195.68 48.5286 196.445 50.8555 197.705 52.8772L200.648 51.4277C201.221 52.305 201.909 53.1442 202.749 53.869L200.877 56.5391C201.756 57.3021 202.749 57.9887 203.857 58.5227C204.965 59.0949 206.073 59.4763 207.22 59.7815L208.251 56.6917C209.321 56.9206 210.391 56.9969 211.461 56.9587L211.996 60.1629C214.403 59.9722 216.734 59.2093 218.759 57.9505L217.307 55.0133C218.186 54.4412 219.027 53.7545 219.753 52.9153L222.427 54.7845ZM208.137 50.0926C205.233 48.6049 204.086 45.0956 205.577 42.1965C207.067 39.2975 210.582 38.1531 213.486 39.6408C216.39 41.1285 217.536 44.6378 216.046 47.5369C214.556 50.3978 211.003 51.5421 208.137 50.0926Z" fill="#336383"/>
<path d="M45.9747 96.2101C46.7389 95.5616 47.4266 94.8369 48.038 93.9977C48.6494 93.1585 49.1461 92.2811 49.5282 91.3656L47.121 90.0687C47.4648 89.2295 47.6559 88.3522 47.7705 87.4367H50.5216C50.6745 85.415 50.3688 83.3933 49.6428 81.5242L47.0063 82.3252C46.6624 81.486 46.2039 80.7231 45.6308 79.9984L47.5795 78.0529C46.9299 77.29 46.2039 76.6034 45.3633 75.9931C44.5227 75.3828 43.6438 74.8869 42.7268 74.5054L41.4277 76.9086C40.587 76.5653 39.7082 76.3746 38.7912 76.2601V73.5137C36.7661 73.3611 34.7409 73.6662 32.8686 74.391L33.671 77.023C32.8304 77.3663 32.0662 77.8241 31.3402 78.3963L29.3915 76.4508C28.6273 77.0993 27.9395 77.8241 27.3282 78.6633C26.7168 79.5025 26.2201 80.3798 25.838 81.2953L28.2452 82.5922C27.9013 83.4314 27.7103 84.3088 27.5957 85.2243H24.8445C24.6917 87.246 24.9974 89.2677 25.7234 91.1368L28.3599 90.3357C28.7037 91.1749 29.1623 91.9378 29.7354 92.6626L27.7867 94.608C28.4363 95.3709 29.1623 96.0575 30.0029 96.6678C30.8435 97.2782 31.7223 97.7741 32.6394 98.1555L33.9385 95.7523C34.7791 96.0957 35.658 96.2864 36.575 96.4008V99.1473C38.6001 99.2999 40.6253 98.9947 42.4975 98.2699L41.6951 95.6379C42.5358 95.2946 43.3 94.8369 44.0259 94.2647L45.9747 96.2101ZM34.8173 90.2976C32.6776 88.6955 32.2191 85.682 33.7857 83.5077C35.3905 81.3716 38.4091 80.9138 40.587 82.4778C42.7268 84.0799 43.1853 87.0934 41.6187 89.2677C40.0139 91.4419 36.9571 91.8997 34.8173 90.2976Z" fill="#336383"/>
<path d="M157.321 28.0615H92.3218V148.474H157.321V28.0615Z" fill="#9CD4EF"/>
<path d="M157.321 28.0615H92.3218V35.5641H157.321V28.0615Z" fill="white"/>
<path opacity="0.3" d="M137.556 28.0615L92.3218 106.976V135.212L153.741 28.0615H137.556Z" fill="white"/>
<path opacity="0.3" d="M157.322 77.3806L156.247 76.606L117.148 145.672L118.216 148.474H157.322V77.3806Z" fill="white"/>
<path d="M159.274 51.7526C159.487 51.7526 159.691 51.668 159.842 51.5175C159.992 51.367 160.077 51.1628 160.077 50.9499V42.9226C160.077 42.7097 159.992 42.5055 159.842 42.355C159.691 42.2044 159.487 42.1199 159.274 42.1199C159.224 42.1165 159.174 42.1165 159.124 42.1199V27.1148C159.124 26.4349 158.99 25.7616 158.73 25.1335C158.47 24.5053 158.088 23.9346 157.607 23.454C157.126 22.9734 156.555 22.5922 155.927 22.3323C155.299 22.0724 154.625 21.9388 153.945 21.9392H96.8955C96.2156 21.9388 95.5422 22.0724 94.9139 22.3323C94.2856 22.5922 93.7147 22.9734 93.2338 23.454C92.7529 23.9346 92.3714 24.5053 92.1111 25.1335C91.8508 25.7616 91.7168 26.4349 91.7168 27.1148V148.305C91.7168 149.678 92.2624 150.996 93.2336 151.967C94.2048 152.938 95.522 153.484 96.8955 153.484H153.945C155.319 153.484 156.636 152.938 157.607 151.967C158.579 150.996 159.124 149.678 159.124 148.305V74.5913C159.174 74.5963 159.224 74.5963 159.274 74.5913C159.487 74.5913 159.691 74.5068 159.842 74.3562C159.992 74.2057 160.077 74.0015 160.077 73.7886V65.7582C160.077 65.5453 159.992 65.3411 159.842 65.1906C159.691 65.04 159.487 64.9555 159.274 64.9555C159.224 64.9557 159.173 64.9609 159.124 64.9711V63.1689C159.174 63.1738 159.224 63.1738 159.274 63.1689C159.487 63.1689 159.691 63.0843 159.842 62.9337C159.992 62.7832 160.077 62.579 160.077 62.3661V54.3388C160.077 54.1259 159.992 53.9218 159.842 53.7712C159.691 53.6207 159.487 53.5361 159.274 53.5361C159.224 53.5312 159.174 53.5312 159.124 53.5361V51.737C159.173 51.7471 159.224 51.7524 159.274 51.7526ZM156.126 145.672H94.7153V30.8723H156.126V145.672Z" fill="#336383"/>
<path d="M151.562 43.1848H99.3663C98.2657 43.1848 97.3735 44.077 97.3735 45.1776V62.9251C97.3735 64.0256 98.2657 64.9178 99.3663 64.9178H151.562C152.663 64.9178 153.555 64.0256 153.555 62.9251V45.1776C153.555 44.077 152.663 43.1848 151.562 43.1848Z" fill="#336383" stroke="#263238" stroke-linecap="round" stroke-linejoin="round"/>
<path d="M121.057 45.6497V48.8012H120.848V45.6497H121.057Z" fill="white"/>
<path d="M121.607 48.8012H121.416V45.6497H121.688L122.625 48.314V45.6497H122.815V48.8012H122.584L121.597 45.9901L121.607 48.8012Z" fill="white"/>
<path d="M124.526 46.4207V46.6831H124.329V46.4082C124.329 46.0677 124.198 45.8116 123.851 45.8116C123.505 45.8116 123.373 46.0677 123.373 46.4082V48.048C123.373 48.3885 123.505 48.6384 123.851 48.6384C124.198 48.6384 124.329 48.3885 124.329 48.048V47.6732H124.526V48.0355C124.526 48.4916 124.329 48.8351 123.845 48.8351C123.361 48.8351 123.164 48.4916 123.164 48.0355V46.4207C123.164 45.9647 123.364 45.6211 123.845 45.6211C124.326 45.6211 124.526 45.9647 124.526 46.4207Z" fill="white"/>
<path d="M124.849 46.4207C124.849 45.9616 125.062 45.6211 125.539 45.6211C126.017 45.6211 126.239 45.9616 126.239 46.4207V48.0355C126.239 48.4947 126.027 48.8351 125.539 48.8351C125.052 48.8351 124.849 48.4947 124.849 48.0355V46.4207ZM125.058 48.048C125.058 48.3916 125.193 48.6446 125.539 48.6446C125.886 48.6446 126.03 48.3916 126.03 48.048V46.4082C126.03 46.0646 125.892 45.8116 125.539 45.8116C125.186 45.8116 125.058 46.0646 125.058 46.4082V48.048Z" fill="white"/>
<path d="M127.643 48.8012H127.433L126.768 46.0089V48.82H126.581V45.6497H126.893L127.555 48.442L128.214 45.6497H128.511V48.8012H128.314V45.9901L127.643 48.8012Z" fill="white"/>
<path d="M129.929 47.1114V47.2988H129.067V48.6169H130.104V48.8012H128.854V45.6497H130.104V45.8402H129.067V47.1114H129.929Z" fill="white"/>
<path d="M111.384 53.2955V52.8613H112.158V53.3111C112.83 53.4485 113.176 53.9639 113.176 54.7854V54.9728H112.28V54.7229C112.28 54.2919 112.108 54.1295 111.805 54.1295C111.502 54.1295 111.33 54.2919 111.33 54.7229C111.33 55.9723 113.186 56.0254 113.186 57.7495C113.186 58.5679 112.83 59.0926 112.158 59.2332V59.6705H111.384V59.2332C110.703 59.0926 110.356 58.5679 110.356 57.7495V57.3341H111.246V57.8089C111.246 58.2399 111.437 58.3961 111.74 58.3961C112.043 58.3961 112.23 58.2399 112.23 57.8089C112.23 56.5595 110.378 56.5095 110.378 54.7854C110.384 53.9577 110.718 53.4423 111.384 53.2955Z" fill="white"/>
<path d="M114.405 53.9922C115.139 53.9922 115.302 53.6392 115.449 53.2332H116.089V59.2677H115.152V54.6668H114.418L114.405 53.9922Z" fill="white"/>
<path d="M118.089 57.3186V57.8809C118.089 58.3119 118.276 58.4649 118.579 58.4649C118.882 58.4649 119.069 58.3119 119.069 57.8809V56.5534C119.069 56.1224 118.882 55.9568 118.579 55.9568C118.276 55.9568 118.089 56.1224 118.089 56.5534V56.7345H117.18L117.351 53.2332H119.85V54.1108H118.204L118.126 55.5508C118.211 55.4094 118.333 55.294 118.479 55.2169C118.625 55.1398 118.789 55.1041 118.954 55.1135C119.653 55.1135 120.006 55.6039 120.006 56.4909V57.8371C120.006 58.8023 119.522 59.352 118.591 59.352C117.661 59.352 117.18 58.796 117.18 57.8215V57.3186H118.089Z" fill="white"/>
<path d="M120.646 59.2678V58.3557H121.552V59.1741L121.136 60.1298H120.749L120.999 59.2678H120.646Z" fill="white"/>
<path d="M122.177 54.7353C122.177 53.7171 122.642 53.1736 123.626 53.1736C124.563 53.1736 125.038 53.7264 125.038 54.6916V54.8478H124.141V54.6322C124.141 54.2012 123.954 54.0357 123.651 54.0357C123.348 54.0357 123.126 54.2012 123.126 54.779V55.8816C123.2 55.7134 123.324 55.5719 123.481 55.4763C123.638 55.3808 123.821 55.3358 124.004 55.3475C124.704 55.3475 125.057 55.8379 125.057 56.725V57.8307C125.057 58.7958 124.547 59.3455 123.617 59.3455C122.686 59.3455 122.177 58.7958 122.177 57.8213V54.7353ZM123.114 56.7937V57.8806C123.114 58.3117 123.301 58.4647 123.604 58.4647C123.907 58.4647 124.095 58.3117 124.095 57.8806V56.7937C124.095 56.3626 123.907 56.2002 123.604 56.2002C123.301 56.2002 123.139 56.3626 123.139 56.7937H123.114Z" fill="white"/>
<path d="M128.448 53.2334V54.0611L127.052 59.2679H126.115L127.486 54.1111H125.612V53.249L128.448 53.2334Z" fill="white"/>
<path d="M130.438 59.3364C129.482 59.3364 128.954 58.7867 128.954 57.8215V57.3468C128.954 56.7689 129.129 56.3192 129.541 56.0974C129.145 55.8819 128.954 55.4727 128.954 54.8824V54.6918C128.954 53.7267 129.482 53.1738 130.438 53.1738C131.394 53.1738 131.921 53.7267 131.921 54.6918V54.8824C131.921 55.4758 131.721 55.8819 131.334 56.0974C131.746 56.3285 131.921 56.7783 131.921 57.3468V57.8215C131.921 58.7961 131.394 59.3364 130.438 59.3364ZM129.904 55.0479C129.904 55.5289 130.129 55.6726 130.438 55.6726C130.747 55.6726 130.972 55.5164 130.972 55.0479V54.7106C130.972 54.1671 130.741 54.0203 130.438 54.0203C130.135 54.0203 129.904 54.1671 129.904 54.7106V55.0479ZM130.438 58.4837C130.75 58.4837 130.962 58.3369 130.972 57.8028V57.2343C130.972 56.7596 130.775 56.5534 130.438 56.5534C130.1 56.5534 129.904 56.7596 129.904 57.2343V57.7934C129.904 58.3275 130.135 58.4837 130.438 58.4837Z" fill="white"/>
<path d="M133.401 58.356V59.268H132.483V58.356H133.401Z" fill="white"/>
<path d="M135.479 54.0266C135.166 54.0266 134.988 54.1922 134.988 54.6232V55.2698H134.092V54.6826C134.092 53.7174 134.576 53.1646 135.507 53.1646C136.438 53.1646 136.919 53.7174 136.919 54.6826C136.919 56.5785 135.044 57.2844 135.044 58.2777C135.04 58.3202 135.04 58.3632 135.044 58.4057H136.837V59.2678H134.095V58.5275C134.095 56.7503 135.969 56.4598 135.969 54.7169C135.972 54.1734 135.782 54.0266 135.479 54.0266Z" fill="white"/>
<path d="M137.445 54.7356C137.445 53.7173 137.91 53.1738 138.894 53.1738C139.831 53.1738 140.309 53.7267 140.309 54.6918V54.848H139.413V54.6325C139.413 54.2014 139.222 54.0359 138.919 54.0359C138.616 54.0359 138.394 54.2014 138.394 54.7793V55.8819C138.469 55.7134 138.593 55.5718 138.751 55.4762C138.908 55.3807 139.091 55.3359 139.275 55.3478C139.972 55.3478 140.325 55.8381 140.325 56.7252V57.8309C140.325 58.7961 139.816 59.3458 138.885 59.3458C137.954 59.3458 137.445 58.7961 137.445 57.8309V54.7356ZM138.382 56.7939V57.8809C138.382 58.3119 138.572 58.465 138.872 58.465C139.172 58.465 139.366 58.3119 139.366 57.8809V56.7939C139.366 56.3629 139.175 56.2005 138.872 56.2005C138.569 56.2005 138.394 56.3629 138.394 56.7939H138.382Z" fill="white"/>
<path d="M151.777 70.6216H99.15C98.0494 70.6216 97.1572 71.5138 97.1572 72.6144V136.152C97.1572 137.252 98.0494 138.145 99.15 138.145H151.777C152.878 138.145 153.77 137.252 153.77 136.152V72.6144C153.77 71.5138 152.878 70.6216 151.777 70.6216Z" fill="#F4F4F4" stroke="#263238" stroke-linecap="round" stroke-linejoin="round"/>
<path d="M153.22 95.634H129.507V79.0984H97.1572V138.132H153.22C153.366 138.132 153.506 138.074 153.609 137.971C153.712 137.868 153.77 137.728 153.77 137.582V96.1837C153.77 96.0379 153.712 95.8981 153.609 95.795C153.506 95.6919 153.366 95.634 153.22 95.634V95.634Z" fill="white" stroke="#263238" stroke-linecap="round" stroke-linejoin="round"/>
<path d="M105.447 114.959H100.737V126.337H105.447V114.959Z" fill="#9CD4EF" stroke="#263238" stroke-linecap="round" stroke-linejoin="round"/>
<path d="M113.037 107.659H108.327V126.338H113.037V107.659Z" fill="#336383" stroke="#263238" stroke-linecap="round" stroke-linejoin="round"/>
<path d="M120.623 113.669H115.913V126.338H120.623V113.669Z" fill="#9CD4EF" stroke="#263238" stroke-linecap="round" stroke-linejoin="round"/>
<path d="M128.216 111.676H123.505V126.337H128.216V111.676Z" fill="#263238" stroke="#263238" stroke-linecap="round" stroke-linejoin="round"/>
<path d="M135.801 110.88H131.091V126.338H135.801V110.88Z" fill="#9CD4EF" stroke="#263238" stroke-linecap="round" stroke-linejoin="round"/>
<path d="M143.391 100.788H138.681V126.338H143.391V100.788Z" fill="#336383" stroke="#263238" stroke-linecap="round" stroke-linejoin="round"/>
<path d="M150.979 103.793H146.269V126.338H150.979V103.793Z" fill="#9CD4EF" stroke="#263238" stroke-linecap="round" stroke-linejoin="round"/>
<path d="M102.123 129.798V129.858H101.954V129.789C101.954 129.502 101.845 129.286 101.551 129.286C101.258 129.286 101.148 129.499 101.148 129.783C101.148 130.442 102.126 130.451 102.126 131.198C102.126 131.588 101.957 131.872 101.545 131.872C101.133 131.872 100.961 131.588 100.961 131.198V131.057H101.13V131.21C101.13 131.498 101.242 131.707 101.539 131.707C101.836 131.707 101.948 131.498 101.948 131.21C101.948 130.561 100.973 130.548 100.973 129.795C100.973 129.389 101.148 129.127 101.548 129.124C101.948 129.121 102.123 129.408 102.123 129.798Z" fill="#263238"/>
<path d="M102.584 131.198C102.584 131.488 102.693 131.71 102.99 131.71C103.286 131.71 103.396 131.488 103.396 131.198V129.146H103.561V131.188C103.561 131.576 103.399 131.873 102.987 131.873C102.574 131.873 102.409 131.576 102.409 131.188V129.146H102.584V131.198Z" fill="#263238"/>
<path d="M104.029 131.851H103.867V129.146H104.098L104.91 131.429V129.146H105.072V131.851H104.876L104.029 129.439V131.851Z" fill="#263238"/>
<path d="M109.148 131.848H108.97L108.399 129.455V131.851H108.243V129.146H108.496L109.064 131.538L109.629 129.146H109.882V131.851H109.714V129.449L109.148 131.848Z" fill="#263238"/>
<path d="M110.184 129.808C110.184 129.414 110.365 129.124 110.774 129.124C111.183 129.124 111.374 129.414 111.374 129.808V131.188C111.374 131.585 111.192 131.872 110.774 131.872C110.355 131.872 110.184 131.585 110.184 131.188V129.808ZM110.362 131.201C110.362 131.494 110.477 131.71 110.774 131.71C111.071 131.71 111.196 131.494 111.196 131.201V129.795C111.196 129.502 111.077 129.286 110.774 129.286C110.471 129.286 110.362 129.502 110.362 129.795V131.201Z" fill="#263238"/>
<path d="M111.828 131.851H111.666V129.146H111.897L112.709 131.429V129.146H112.871V131.851H112.674L111.828 129.439V131.851Z" fill="#263238"/>
<path d="M116.817 131.851V129.308H116.267V129.146H117.545V129.308H116.995V131.851H116.817Z" fill="#263238"/>
<path d="M117.938 131.198C117.938 131.488 118.044 131.71 118.341 131.71C118.637 131.71 118.747 131.488 118.747 131.198V129.146H118.915V131.188C118.915 131.576 118.753 131.873 118.338 131.873C117.922 131.873 117.76 131.576 117.76 131.188V129.146H117.938V131.198Z" fill="#263238"/>
<path d="M120.136 130.398V130.561H119.396V131.688H120.302V131.851H119.233V129.146H120.302V129.308H119.396V130.398H120.136Z" fill="#263238"/>
<path d="M124.275 131.851H124.029L123.591 129.146H123.766L124.169 131.61L124.566 129.158H124.753L125.131 131.604L125.522 129.146H125.681L125.247 131.851H125.016L124.653 129.636L124.275 131.851Z" fill="#263238"/>
<path d="M126.861 130.398V130.561H126.124V131.688H127.011V131.851H125.955V129.146H127.02V129.308H126.133V130.398H126.861Z" fill="#263238"/>
<path d="M127.907 129.146C128.323 129.146 128.507 129.421 128.507 129.817V131.179C128.507 131.576 128.323 131.851 127.907 131.851H127.311V129.146H127.907ZM127.907 131.688C128.219 131.688 128.332 131.485 128.332 131.185V129.811C128.332 129.514 128.204 129.308 127.907 129.308H127.485V131.688H127.907Z" fill="#263238"/>
<path d="M131.547 131.851V129.308H130.998V129.146H132.278V129.308H131.725V131.851H131.547Z" fill="#263238"/>
<path d="M132.677 130.579V131.851H132.502V129.146H132.677V130.417H133.52V129.146H133.701V131.851H133.52V130.579H132.677Z" fill="#263238"/>
<path d="M134.183 131.198C134.183 131.488 134.29 131.71 134.586 131.71C134.883 131.71 134.992 131.488 134.992 131.198V129.146H135.161V131.188C135.161 131.576 134.999 131.873 134.583 131.873C134.168 131.873 134.005 131.576 134.005 131.188V129.146H134.183V131.198Z" fill="#263238"/>
<path d="M140.313 130.464V130.636H139.613V131.86H139.435V129.155H140.463V129.317H139.613V130.473L140.313 130.464Z" fill="#263238"/>
<path d="M141.298 129.146C141.71 129.146 141.876 129.374 141.876 129.77V130.005C141.876 130.317 141.754 130.504 141.485 130.564C141.609 130.588 141.718 130.659 141.791 130.762C141.864 130.865 141.894 130.992 141.876 131.117V131.538C141.87 131.646 141.893 131.754 141.941 131.851H141.757C141.711 131.753 141.69 131.646 141.698 131.538V131.114C141.698 130.754 141.501 130.654 141.192 130.654H140.917V131.863H140.739V129.158L141.298 129.146ZM141.198 130.479C141.51 130.479 141.698 130.392 141.698 130.027V129.774C141.698 129.483 141.585 129.308 141.292 129.308H140.917V130.479H141.198Z" fill="#263238"/>
<path d="M142.404 129.146V131.851H142.226V129.146H142.404Z" fill="#263238"/>
<path d="M148.487 129.798V129.858H148.315V129.789C148.315 129.502 148.209 129.286 147.915 129.286C147.622 129.286 147.512 129.499 147.512 129.783C147.512 130.442 148.49 130.451 148.49 131.198C148.49 131.588 148.318 131.872 147.906 131.872C147.494 131.872 147.322 131.588 147.322 131.198V131.057H147.494V131.21C147.494 131.498 147.606 131.707 147.903 131.707C148.199 131.707 148.312 131.498 148.312 131.21C148.312 130.561 147.334 130.548 147.334 129.795C147.334 129.389 147.512 129.127 147.909 129.124C148.306 129.121 148.487 129.408 148.487 129.798Z" fill="#263238"/>
<path d="M149.039 131.26L148.901 131.86H148.727L149.317 129.152H149.576L150.179 131.86H150.001L149.867 131.26H149.039ZM149.064 131.107H149.851L149.454 129.358L149.064 131.107Z" fill="#263238"/>
<path d="M150.769 131.851V129.308H150.22V129.146H151.5V129.308H150.947V131.851H150.769Z" fill="#263238"/>
<path d="M114.014 73.8479V73.9135H113.814V73.8323C113.814 73.5012 113.689 73.2482 113.346 73.2482C113.002 73.2482 112.877 73.4949 112.877 73.8291C112.877 74.5975 114.017 74.61 114.017 75.4814C114.017 75.9343 113.82 76.2686 113.336 76.2686C112.852 76.2686 112.655 75.9343 112.655 75.4814V75.319H112.855V75.4939C112.855 75.8313 112.986 76.0749 113.333 76.0749C113.68 76.0749 113.811 75.8313 113.811 75.4939C113.811 74.7349 112.668 74.7224 112.668 73.8416C112.668 73.37 112.877 73.0608 113.342 73.0576C113.808 73.0545 114.014 73.3918 114.014 73.8479Z" fill="#263238"/>
<path d="M114.992 73.0859C115.479 73.0859 115.67 73.3983 115.67 73.8512V74.1948C115.67 74.6945 115.439 74.9444 114.939 74.9444H114.545V76.2438H114.367V73.0859H114.992ZM114.939 74.7539C115.304 74.7539 115.46 74.5914 115.46 74.2073V73.8387C115.46 73.4951 115.345 73.2733 114.992 73.2733H114.545V74.7539H114.939Z" fill="#263238"/>
<path d="M117.065 74.5477V74.7351H116.203V76.0532H117.24V76.2438H115.991V73.0859H117.24V73.2733H116.203V74.5477H117.065Z" fill="#263238"/>
<path d="M117.766 76.2438H117.575V73.0859H117.847L118.784 75.7502V73.0859H118.975V76.2438H118.74L117.753 73.4326L117.766 76.2438Z" fill="#263238"/>
<path d="M120.034 73.0859C120.521 73.0859 120.734 73.3983 120.734 73.8699V75.4566C120.734 75.922 120.521 76.2438 120.034 76.2438H119.337V73.0859H120.034ZM120.034 76.0532C120.387 76.0532 120.531 75.8127 120.531 75.466V73.8606C120.531 73.5138 120.384 73.2733 120.034 73.2733H119.553V76.0532H120.034Z" fill="#263238"/>
<path d="M121.284 73.0859V76.2438H121.075V73.0859H121.284Z" fill="#263238"/>
<path d="M121.834 76.2438H121.644V73.0859H121.915L122.852 75.7502V73.0859H123.043V76.2438H122.812L121.825 73.4326L121.834 76.2438Z" fill="#263238"/>
<path d="M124.753 73.8574V74.101H124.556V73.8511C124.556 73.5138 124.425 73.2577 124.078 73.2577C123.731 73.2577 123.597 73.5138 123.597 73.8511V75.4941C123.597 75.8314 123.728 76.0844 124.078 76.0844C124.428 76.0844 124.556 75.8314 124.556 75.4941V74.8132H124.134V74.6226H124.759V75.4816C124.759 75.9376 124.562 76.2781 124.078 76.2781C123.594 76.2781 123.397 75.9376 123.397 75.4816V73.8667C123.397 73.4107 123.597 73.0671 124.078 73.0671C124.559 73.0671 124.753 73.4013 124.753 73.8574Z" fill="#263238"/>
<path d="M127.131 73.8479V73.9135H126.931V73.8323C126.931 73.5012 126.806 73.2482 126.462 73.2482C126.119 73.2482 125.994 73.4949 125.994 73.8291C125.994 74.5975 127.134 74.61 127.134 75.4814C127.134 75.9343 126.937 76.2686 126.453 76.2686C125.969 76.2686 125.772 75.9343 125.772 75.4814V75.319H125.972V75.4939C125.972 75.8313 126.103 76.0749 126.45 76.0749C126.796 76.0749 126.928 75.8313 126.928 75.4939C126.928 74.7349 125.784 74.7224 125.784 73.8416C125.784 73.37 125.994 73.0608 126.459 73.0576C126.925 73.0545 127.131 73.3918 127.131 73.8479Z" fill="#263238"/>
<path d="M127.664 75.4819C127.664 75.8192 127.792 76.0816 128.138 76.0816C128.485 76.0816 128.613 75.8192 128.613 75.4819V73.0862H128.807V75.4725C128.807 75.9223 128.616 76.269 128.135 76.269C127.654 76.269 127.458 75.9223 127.458 75.4725V73.0862H127.664V75.4819Z" fill="#263238"/>
<path d="M130.222 76.2378H130.016L129.36 73.4454V76.2565H129.176V73.0862H129.473L130.135 75.8786L130.794 73.0862H131.09V76.244H130.894V73.4329L130.222 76.2378Z" fill="#263238"/>
<path d="M132.501 76.2378H132.295L131.626 73.4454V76.2565H131.442V73.0862H131.739L132.401 75.8786L133.06 73.0862H133.372V76.244H133.175V73.4329L132.501 76.2378Z" fill="#263238"/>
<path d="M134.019 75.5438L133.863 76.2434H133.672L134.36 73.0793H134.672L135.375 76.2434H135.169L135.009 75.5438H134.019ZM134.047 75.3501H134.984L134.519 73.3074L134.047 75.3501Z" fill="#263238"/>
<path d="M136.341 73.0862C136.822 73.0862 137.016 73.3517 137.016 73.7983V74.0732C137.039 74.2194 137.005 74.3689 136.92 74.4905C136.836 74.6121 136.708 74.6964 136.563 74.726C136.707 74.7548 136.835 74.8381 136.919 74.9585C137.003 75.0789 137.038 75.2272 137.016 75.3726V75.8629C137.006 75.9948 137.033 76.1267 137.094 76.244H136.878C136.822 76.1255 136.798 75.9938 136.81 75.8629V75.3694C136.81 74.9478 136.579 74.8322 136.219 74.8322H135.888V76.244H135.682V73.0862H136.341ZM136.222 74.6479C136.594 74.6479 136.81 74.5448 136.81 74.12V73.8233C136.81 73.4829 136.679 73.2798 136.335 73.2798H135.888V74.6479H136.222Z" fill="#263238"/>
<path d="M138.027 75.0378L137.318 73.095H137.534L138.14 74.7535L138.743 73.095H138.946L138.234 75.0378V76.2528H138.027V75.0378Z" fill="#263238"/>
<path d="M100.052 84.8302H99.7645L99.2554 81.6724H99.4584L99.93 84.5522L100.392 81.688H100.611L101.054 84.5428L101.511 81.6724H101.695L101.189 84.8302H100.92L100.495 82.2471L100.052 84.8302Z" fill="#263238"/>
<path d="M103.08 83.1341V83.3247H102.221V84.6428H103.258V84.8302H102.008V81.6724H103.258V81.8629H102.221V83.1341H103.08Z" fill="#263238"/>
<path d="M104.664 83.1341V83.3247H103.802V84.6428H104.839V84.8302H103.59V81.6724H104.839V81.8629H103.802V83.1341H104.664Z" fill="#263238"/>
<path d="M105.601 83.3465L105.386 83.6901V84.8302H105.18V81.6724H105.386V83.3434L106.413 81.6724H106.632L105.729 83.1591L106.688 84.8458H106.473L105.601 83.3465Z" fill="#263238"/>
<path d="M106.999 84.8302V81.6724H107.205V84.6428H108.198V84.8302H106.999Z" fill="#263238"/>
<path d="M108.88 83.6183L108.171 81.6724H108.386L108.992 83.334L109.595 81.6724H109.798L109.086 83.6183V84.8302H108.88V83.6183Z" fill="#263238"/>
<path d="M100.061 88.0816V87.7693H100.623V88.0816C101.107 88.1785 101.357 88.5501 101.357 89.1405V89.2779H100.711V89.0936C100.711 88.7813 100.586 88.6657 100.37 88.6657C100.155 88.6657 100.03 88.7844 100.03 89.0936C100.03 89.9869 101.364 90.0307 101.364 91.2801C101.364 91.8704 101.107 92.2483 100.623 92.3483V92.6606H100.061V92.3483C99.5707 92.2483 99.3208 91.8704 99.3208 91.2801V90.9677H99.9674V91.3082C99.9674 91.6205 100.105 91.7298 100.32 91.7298C100.536 91.7298 100.673 91.6174 100.673 91.3082C100.673 90.4149 99.3395 90.3711 99.3395 89.1217C99.3395 88.5564 99.5832 88.1847 100.061 88.0816Z" fill="#263238"/>
<path d="M103.82 91.2989C103.82 92.0298 103.486 92.4265 102.777 92.4265C102.068 92.4265 101.761 92.0298 101.761 91.3364V91.2239H102.405V91.3801C102.405 91.6925 102.542 91.808 102.758 91.808C102.973 91.808 103.123 91.6893 103.123 91.2802V90.4868C103.07 90.6066 102.982 90.7074 102.871 90.776C102.759 90.8446 102.629 90.8778 102.499 90.871C101.996 90.871 101.743 90.518 101.743 89.8777V89.0937C101.743 88.4003 102.108 88.0037 102.777 88.0037C103.445 88.0037 103.814 88.4003 103.814 89.0937L103.82 91.2989ZM103.123 89.8153V89.0344C103.123 88.7221 102.989 88.6127 102.77 88.6127C102.552 88.6127 102.417 88.7252 102.417 89.0344V89.8153C102.417 90.1276 102.555 90.2432 102.77 90.2432C102.986 90.2432 103.123 90.1276 103.123 89.8153Z" fill="#263238"/>
<path d="M104.216 89.0937C104.216 88.4003 104.582 88.0037 105.25 88.0037C105.919 88.0037 106.287 88.4003 106.287 89.0937V91.352C106.287 92.0454 105.922 92.4421 105.25 92.4421C104.579 92.4421 104.216 92.0454 104.216 91.352V89.0937ZM104.897 91.3957C104.897 91.7081 105.035 91.8236 105.25 91.8236C105.466 91.8236 105.606 91.705 105.606 91.3957V89.05C105.606 88.7377 105.469 88.6221 105.25 88.6221C105.032 88.6221 104.897 88.7408 104.897 89.05V91.3957Z" fill="#263238"/>
<path d="M106.673 89.0937C106.673 88.4003 107.038 88.0037 107.71 88.0037C108.381 88.0037 108.747 88.3847 108.747 89.0937V91.352C108.747 92.0454 108.381 92.4421 107.713 92.4421C107.045 92.4421 106.676 92.0454 106.676 91.352L106.673 89.0937ZM107.354 91.3957C107.354 91.7081 107.491 91.8236 107.71 91.8236C107.928 91.8236 108.063 91.705 108.063 91.3957V89.05C108.063 88.7377 107.925 88.6221 107.71 88.6221C107.494 88.6221 107.354 88.7408 107.354 89.05V91.3957Z" fill="#263238"/>
<path d="M109.841 91.7205V92.3764H109.182V91.7205H109.841Z" fill="#263238"/>
<path d="M111.316 92.4265C110.629 92.4265 110.251 92.0298 110.251 91.3364V90.9959C110.229 90.8206 110.257 90.6424 110.331 90.4822C110.406 90.3219 110.524 90.186 110.673 90.0901C110.526 90 110.409 89.8696 110.334 89.7146C110.259 89.5596 110.23 89.3864 110.251 89.2156V89.0938C110.251 88.4003 110.629 88.0037 111.316 88.0037C111.462 87.989 111.609 88.0074 111.747 88.0573C111.885 88.1072 112.01 88.1875 112.112 88.2922C112.215 88.3968 112.292 88.5232 112.34 88.662C112.387 88.8007 112.402 88.9483 112.384 89.0938V89.2312C112.403 89.4018 112.374 89.5743 112.299 89.729C112.225 89.8836 112.108 90.0142 111.963 90.1057C112.11 90.2031 112.227 90.3393 112.301 90.4992C112.376 90.659 112.405 90.8364 112.384 91.0116V91.352C112.4 91.4963 112.382 91.6421 112.334 91.7789C112.286 91.9156 112.208 92.04 112.105 92.1428C112.003 92.2457 111.879 92.3245 111.743 92.3736C111.606 92.4226 111.461 92.4407 111.316 92.4265V92.4265ZM110.932 89.3468C110.932 89.6935 111.094 89.8059 111.316 89.8059C111.538 89.8059 111.7 89.6935 111.7 89.3468V89.0938C111.7 88.7033 111.535 88.5971 111.316 88.5971C111.098 88.5971 110.932 88.7127 110.932 89.0938V89.3468ZM111.316 91.808C111.535 91.808 111.694 91.7018 111.7 91.3177V90.9147C111.7 90.5743 111.557 90.4243 111.316 90.4243C111.076 90.4243 110.932 90.5743 110.932 90.9147V91.3177C110.932 91.7018 111.101 91.808 111.316 91.808Z" fill="#263238"/>
<path d="M114.796 91.2989C114.796 92.0298 114.462 92.4265 113.753 92.4265C113.044 92.4265 112.738 92.0298 112.738 91.3364V91.2239H113.381V91.3801C113.381 91.6925 113.519 91.808 113.734 91.808C113.95 91.808 114.112 91.6893 114.112 91.2739V90.4806C114.059 90.6003 113.971 90.7012 113.859 90.7698C113.748 90.8384 113.618 90.8715 113.487 90.8648C112.984 90.8648 112.731 90.5118 112.731 89.8715V89.0937C112.731 88.4003 113.097 88.0037 113.765 88.0037C114.434 88.0037 114.802 88.4003 114.802 89.0937L114.796 91.2989ZM114.112 89.8153V89.0344C114.112 88.7221 113.978 88.6127 113.759 88.6127C113.54 88.6127 113.406 88.7252 113.406 89.0344V89.8153C113.406 90.1276 113.544 90.2432 113.759 90.2432C113.975 90.2432 114.112 90.1276 114.112 89.8153Z" fill="#263238"/>
<path d="M132.987 84.8271H132.797L132.128 82.0347V84.8302H131.944V81.6724H132.241L132.906 84.4647L133.562 81.6724H133.874V84.8302H133.674V82.0191L132.987 84.8271Z" fill="#263238"/>
<path d="M134.192 82.4437C134.192 81.9846 134.402 81.6472 134.883 81.6472C135.364 81.6472 135.579 81.9846 135.579 82.4437V84.0585C135.579 84.5208 135.37 84.8581 134.883 84.8581C134.395 84.8581 134.192 84.5208 134.192 84.0585V82.4437ZM134.399 84.0741C134.399 84.4146 134.533 84.6676 134.883 84.6676C135.232 84.6676 135.373 84.4146 135.373 84.0741V82.4312C135.373 82.0876 135.232 81.8346 134.883 81.8346C134.533 81.8346 134.399 82.0876 134.399 82.4312V84.0741Z" fill="#263238"/>
<path d="M136.111 84.8302H135.92V81.6724H136.192L137.129 84.3398V81.6724H137.317V84.8302H137.089L136.098 82.0191L136.111 84.8302Z" fill="#263238"/>
<path d="M138.219 84.8302V81.8629H137.579V81.6724H139.072V81.8629H138.419V84.8302H138.219Z" fill="#263238"/>
<path d="M139.535 83.3465V84.8302H139.329V81.6724H139.535V83.1591H140.519V81.6755H140.731V84.8333H140.519V83.3465H139.535Z" fill="#263238"/>
<path d="M141.089 84.8302V81.6724H141.298V84.6428H142.288V84.8302H141.089Z" fill="#263238"/>
<path d="M142.968 83.6183L142.259 81.6724H142.478L143.081 83.334L143.687 81.6724H143.89L143.178 83.6183V84.8302H142.968V83.6183Z" fill="#263238"/>
<path d="M132.696 88.0816V87.7693H133.255V88.0816C133.739 88.1785 133.986 88.5501 133.986 89.1405V89.2779H133.339V89.0936C133.339 88.7813 133.217 88.6657 132.999 88.6657C132.78 88.6657 132.658 88.7844 132.658 89.0936C132.658 89.9869 133.992 90.0307 133.992 91.2801C133.992 91.8704 133.739 92.2483 133.255 92.3483V92.6606H132.696V92.3483C132.205 92.2483 131.958 91.8704 131.958 91.2801V90.9677H132.602V91.3082C132.602 91.6205 132.739 91.7298 132.955 91.7298C133.17 91.7298 133.308 91.6174 133.308 91.3082C133.308 90.4149 131.977 90.3711 131.977 89.1217C131.977 88.5564 132.218 88.1847 132.696 88.0816Z" fill="#263238"/>
<path d="M134.873 88.5813C135.044 88.6035 135.216 88.5595 135.356 88.4585C135.495 88.3574 135.591 88.207 135.623 88.0378H136.082V92.3763H135.401V89.0655H134.873V88.5813Z" fill="#263238"/>
<path d="M136.855 89.0937C136.855 88.4003 137.22 88.0037 137.892 88.0037C138.564 88.0037 138.926 88.4003 138.926 89.0937V91.352C138.926 92.0454 138.56 92.4421 137.892 92.4421C137.224 92.4421 136.855 92.0298 136.855 91.3364V89.0937ZM137.536 91.3957C137.536 91.7081 137.673 91.8236 137.892 91.8236C138.111 91.8236 138.245 91.705 138.245 91.3957V89.05C138.245 88.7377 138.107 88.6221 137.892 88.6221C137.676 88.6221 137.536 88.7408 137.536 89.05V91.3957Z" fill="#263238"/>
<path d="M139.356 92.3764V91.7205H140.015V92.3108L139.703 92.998H139.425L139.606 92.3733L139.356 92.3764Z" fill="#263238"/>
<path d="M141.515 88.6065C141.299 88.6065 141.162 88.7252 141.162 89.0344V89.4998H140.515V89.0937C140.515 88.4003 140.865 88.0037 141.533 88.0037C142.202 88.0037 142.552 88.4003 142.552 89.0937C142.552 90.4587 141.193 90.9678 141.193 91.68C141.19 91.7111 141.19 91.7425 141.193 91.7737H142.48V92.3984H140.506V91.8674C140.506 90.5899 141.858 90.3775 141.858 89.125C141.855 88.7127 141.733 88.6065 141.515 88.6065Z" fill="#263238"/>
<path d="M142.916 89.0937C142.916 88.4003 143.282 88.0037 143.95 88.0037C144.618 88.0037 144.978 88.3847 144.978 89.0937V91.352C144.978 92.0454 144.612 92.4421 143.941 92.4421C143.269 92.4421 142.907 92.0454 142.907 91.352L142.916 89.0937ZM143.597 91.3957C143.597 91.7081 143.734 91.8236 143.95 91.8236C144.165 91.8236 144.303 91.705 144.303 91.3957V89.05C144.303 88.7377 144.169 88.6221 143.95 88.6221C143.731 88.6221 143.597 88.7408 143.597 89.05V91.3957Z" fill="#263238"/>
<path d="M145.371 89.0937C145.371 88.4003 145.736 88.0037 146.404 88.0037C147.073 88.0037 147.441 88.4003 147.441 89.0937V91.352C147.441 92.0454 147.076 92.4421 146.404 92.4421C145.733 92.4421 145.371 92.0454 145.371 91.352V89.0937ZM146.052 91.3957C146.052 91.7081 146.189 91.8236 146.404 91.8236C146.62 91.8236 146.761 91.705 146.761 91.3957V89.05C146.761 88.7377 146.623 88.6221 146.404 88.6221C146.186 88.6221 146.052 88.7408 146.052 89.05V91.3957Z" fill="#263238"/>
<path d="M148.539 91.7205V92.3764H147.883V91.7205H148.539Z" fill="#263238"/>
<path d="M149.663 90.9677V91.3707C149.663 91.683 149.797 91.7923 150.016 91.7923C150.235 91.7923 150.369 91.6799 150.369 91.3707V90.4149C150.369 90.1025 150.232 89.987 150.016 89.987C149.801 89.987 149.663 90.1057 149.663 90.4149V90.5461H149.017L149.142 88.0286H150.941V88.6533H149.757L149.701 89.6902C149.762 89.5889 149.849 89.5062 149.954 89.4511C150.058 89.396 150.176 89.3707 150.294 89.3779C150.797 89.3779 151.053 89.734 151.053 90.3712V91.3394C151.053 92.0328 150.703 92.4295 150.035 92.4295C149.366 92.4295 149.017 92.0328 149.017 91.3394V90.9677H149.663Z" fill="#263238"/>
</svg>
