<svg width="376" height="159" viewBox="0 0 376 159" fill="none" xmlns="http://www.w3.org/2000/svg">
<g clip-path="url(#clip0_33_103)">
<path d="M145.889 135.123L145.578 134.502L149.394 132.639L149.704 133.26L145.889 135.123ZM153.52 131.424L153.209 130.803L157.024 128.94L157.335 129.561L153.52 131.424ZM161.151 127.726L160.84 127.104L164.655 125.241L164.966 125.862L161.151 127.726Z" fill="#7AA5BB"/>
<path d="M143.375 205.739C143.375 214.746 150.695 222.087 159.739 222.087H341.352C350.367 222.087 357.715 214.774 357.715 205.739V95.3398H143.375V205.739Z" fill="white"/>
<path d="M132.156 123.518C134.671 115.5 142.585 109.344 151.233 108.695C159.881 108.046 168.727 112.93 172.514 120.497C177.121 120.441 181.671 123.01 183.904 126.907C186.137 130.803 185.995 135.857 183.508 139.612C188.991 140.572 193.909 144.158 196.339 149.015C198.77 153.871 198.629 159.829 196 164.544C202.048 161.466 209.764 161.749 215.558 165.25C221.351 168.751 224.997 175.33 224.799 181.908C228.558 176.007 235.765 172.337 242.944 172.676C250.122 173.014 256.962 177.306 260.127 183.518C263.49 173.466 272.478 165.335 283.076 162.737C293.702 160.139 305.601 163.16 313.571 170.445C325.526 172.309 334.23 185.268 331.122 196.562C337.565 201.899 340.872 210.567 339.515 218.671C338.159 226.774 332.224 234.002 324.339 237.08L118.675 236.939L101.152 158.558L132.156 123.518Z" fill="#9CD4EF"/>
<g opacity="0.8">
<path opacity="0.8" d="M128.877 149.551C131.307 141.532 138.966 135.349 147.332 134.7C155.698 134.05 164.233 138.935 167.879 146.474C172.344 146.417 176.725 148.987 178.873 152.855C181.021 156.751 180.879 161.805 178.477 165.561C183.79 166.492 188.538 170.106 190.884 174.963C193.23 179.819 193.088 185.777 190.545 190.492C196.395 187.414 203.856 187.697 209.424 191.17C215.02 194.671 218.553 201.25 218.327 207.828C221.972 201.927 228.925 198.257 235.849 198.567C242.773 198.878 249.387 203.198 252.467 209.41C255.717 199.358 264.394 191.226 274.653 188.6C284.912 186.003 296.415 188.996 304.102 196.28C315.661 198.144 324.055 211.104 321.031 222.398C327.277 227.734 330.443 236.402 329.143 244.506C327.842 252.609 322.077 259.837 314.474 262.915L115.763 262.943L98.8906 184.563L128.877 149.551Z" fill="white"/>
</g>
<path opacity="0.7" d="M286.86 98.8975C227.339 154.831 185.116 169.909 131.955 175.302L128.422 231.772L184.24 250.83C232.992 249.419 279.794 178.916 308.706 118.408L286.86 98.8975Z" fill="#FFF2E0"/>
<path d="M295.227 99.6316C285.561 111.067 270.95 122.022 253.738 136.789L277.224 127.217C274.341 131.989 270.159 138.652 267.785 141.532C273.211 139.048 281.916 133.542 284.798 130.634C284.798 134.7 279.909 141.504 277.761 145.203C290.281 134.502 301.699 121.401 305.373 109.937L295.227 99.6316Z" fill="url(#paint0_linear_33_103)"/>
<path opacity="0.4" d="M297.965 100.196C292.228 107.763 283.665 115.076 273.547 124.93L287.254 118.436C285.53 121.598 283.043 126.003 281.658 127.895C284.823 126.201 289.911 122.53 291.635 120.582C291.578 123.236 288.695 127.725 287.395 130.182C294.772 123.038 301.498 114.37 303.759 106.832L297.965 100.196Z" fill="white"/>
<path d="M209.113 139.048C209.197 140.827 209.113 143.791 207.332 144.836C204.393 146.53 202.047 142.408 200.973 140.318C199.673 137.834 200.012 134.756 202.923 133.627C206.795 132.158 208.971 135.744 209.113 139.048Z" fill="#9CD4EF"/>
<path d="M193.428 121.542C194.802 121.542 195.916 120.43 195.916 119.057C195.916 117.685 194.802 116.573 193.428 116.573C192.055 116.573 190.941 117.685 190.941 119.057C190.941 120.43 192.055 121.542 193.428 121.542Z" fill="#9CD4EF"/>
<path d="M320.872 166.988C322.731 166.065 323.489 163.811 322.565 161.954C321.641 160.097 319.385 159.339 317.526 160.263C315.667 161.186 314.909 163.44 315.833 165.297C316.757 167.154 319.013 167.911 320.872 166.988Z" fill="#9CD4EF"/>
<path d="M341.324 222.426H159.711C150.497 222.426 143.008 214.944 143.008 205.739V95.0012H358.026V205.739C358.026 214.944 350.537 222.426 341.324 222.426ZM143.714 95.7071V205.739C143.714 214.548 150.893 221.72 159.711 221.72H341.324C350.141 221.72 357.32 214.548 357.32 205.739V95.7071H143.714Z" fill="#7AA5BB"/>
<path d="M341.324 52.5923H159.711C150.696 52.5923 143.348 59.9052 143.348 68.9404V95.3684H357.66V68.9404C357.66 59.9052 350.34 52.5923 341.324 52.5923Z" fill="white"/>
<path d="M358.026 95.7071H143.008V68.912C143.008 59.7074 150.497 52.2251 159.711 52.2251H341.324C350.537 52.2251 358.026 59.7074 358.026 68.912V95.7071ZM143.714 95.0012H357.32V68.912C357.32 60.1027 350.141 52.931 341.324 52.931H159.711C150.893 52.931 143.714 60.1027 143.714 68.912V95.0012Z" fill="#7AA5BB"/>
<path d="M173.713 75.7724C174.697 70.928 171.564 66.2039 166.715 65.2206C161.866 64.2374 157.137 67.3675 156.153 72.2119C155.169 77.0563 158.302 81.7804 163.151 82.7637C168 83.7469 172.729 80.6168 173.713 75.7724Z" fill="#9CD4EF"/>
<path d="M197.685 80.2923C201.183 76.7969 201.183 71.1298 197.685 67.6345C194.186 64.1391 188.513 64.1391 185.015 67.6345C181.516 71.1298 181.516 76.7969 185.015 80.2923C188.513 83.7877 194.186 83.7877 197.685 80.2923Z" fill="white"/>
<path d="M191.366 83.2836C186.222 83.2836 182.039 79.1048 182.039 73.966C182.039 68.8272 186.222 64.6484 191.366 64.6484C196.509 64.6484 200.692 68.8272 200.692 73.966C200.664 79.1048 196.481 83.2836 191.366 83.2836ZM191.366 65.3826C186.618 65.3826 182.746 69.2508 182.746 73.9943C182.746 78.7378 186.618 82.606 191.366 82.606C196.114 82.606 199.986 78.7378 199.986 73.9943C199.957 69.2225 196.114 65.3826 191.366 65.3826Z" fill="#7AA5BB"/>
<path d="M259.591 82.5211H223.895C219.176 82.5211 215.332 78.6811 215.332 73.9659C215.332 69.2506 219.176 65.4106 223.895 65.4106H259.591C264.31 65.4106 268.154 69.2506 268.154 73.9659C268.154 78.7094 264.31 82.5211 259.591 82.5211Z" fill="white"/>
<path d="M259.59 82.8882H223.895C218.977 82.8882 214.992 78.907 214.992 73.9941C214.992 69.0812 218.977 65.1001 223.895 65.1001H259.59C264.508 65.1001 268.493 69.0812 268.493 73.9941C268.493 78.8788 264.508 82.8882 259.59 82.8882ZM223.895 65.7777C219.373 65.7777 215.699 69.4483 215.699 73.9659C215.699 78.4835 219.373 82.1541 223.895 82.1541H259.59C264.112 82.1541 267.786 78.4835 267.786 73.9659C267.786 69.4483 264.112 65.7777 259.59 65.7777H223.895Z" fill="#7AA5BB"/>
<path d="M332.426 33.1099C318.126 45.618 293.425 37.0063 285.766 47.0015L307.697 64.3378L332.426 33.1099Z" fill="#0A82BD"/>
<path d="M285.764 47.0015C284.662 49.9097 285.255 53.185 287.319 55.5567L302.863 73.3166L307.696 64.3378L285.764 47.0015Z" fill="#9CD4EF"/>
<path d="M364.871 58.7756C355.968 75.5755 370.015 97.5989 362.045 107.34L340.113 90.0036L364.871 58.7756Z" fill="#0A82BD"/>
<path d="M362.043 107.34C359.443 109.062 356.108 109.26 353.366 107.792L332.48 96.7518L340.111 89.9753L362.043 107.34Z" fill="#9CD4EF"/>
<path d="M376.005 11.5947L356.504 18.7664L373.518 32.2063L376.005 11.5947Z" fill="#1B1B43"/>
<path d="M373.515 32.2064C370.802 63.0673 347.966 91.8389 320.269 107.82L295.031 87.8577C305.63 54.5403 325.357 30.7099 356.53 18.7383L373.515 32.2064Z" fill="#7CC5EA"/>
<path d="M295.005 87.886L284.039 95.453L315.382 120.243L320.243 107.848L295.005 87.886Z" fill="#0A82BD"/>
<path d="M350.542 57.0718C356.974 56.3075 361.569 50.4785 360.804 44.0524C360.039 37.6263 354.204 33.0365 347.772 33.8007C341.339 34.565 336.745 40.394 337.51 46.8201C338.275 53.2462 344.11 57.8361 350.542 57.0718Z" fill="white"/>
<path d="M350.061 53.7496L349.976 53.0437C350.655 52.959 351.305 52.8178 351.926 52.5637L352.181 53.2131C351.503 53.4955 350.796 53.6931 350.061 53.7496ZM347.857 53.6931C347.122 53.5802 346.415 53.3543 345.737 53.0719L346.02 52.4225C346.641 52.7049 347.291 52.9025 347.942 52.9872L347.857 53.6931ZM354.131 52.1684L353.707 51.6037C354.244 51.2084 354.724 50.7284 355.148 50.192L355.714 50.6437C355.261 51.2367 354.724 51.7449 354.131 52.1684ZM343.872 51.9143C343.306 51.4343 342.798 50.8979 342.374 50.3049L342.939 49.9096C343.335 50.4461 343.787 50.9543 344.324 51.3778L343.872 51.9143ZM356.59 49.3167L355.968 48.9779C356.279 48.3849 356.505 47.7355 356.646 47.0861L357.325 47.2273C357.183 47.9614 356.929 48.6673 356.59 49.3167ZM341.328 48.3567C341.074 47.6791 340.904 46.9449 340.848 46.2108L341.554 46.1544C341.611 46.832 341.752 47.4814 342.006 48.1308L341.328 48.3567ZM356.816 45.0814C356.788 44.4038 356.646 43.7261 356.448 43.105L357.127 42.8791C357.353 43.585 357.494 44.3191 357.522 45.0532L356.816 45.0814ZM341.639 44.1214L340.932 44.0085C341.074 43.2744 341.3 42.5685 341.611 41.9191L342.261 42.2297C341.978 42.7944 341.752 43.4438 341.639 44.1214ZM355.572 41.2697C355.205 40.705 354.753 40.1968 354.244 39.745L354.724 39.2085C355.29 39.6885 355.77 40.2532 356.166 40.8744L355.572 41.2697ZM343.363 40.5073L342.826 40.0556C343.306 39.4909 343.872 38.9827 344.465 38.5874L344.861 39.1803C344.296 39.5191 343.787 39.9709 343.363 40.5073ZM352.577 38.6156C351.983 38.305 351.333 38.1074 350.655 37.9662L350.796 37.2603C351.531 37.4015 352.237 37.6556 352.887 37.9662L352.577 38.6156ZM346.67 38.2485L346.444 37.5709C347.15 37.3168 347.857 37.1756 348.592 37.1191L348.648 37.825C347.97 37.8815 347.291 38.0227 346.67 38.2485Z" fill="#7AA5BB"/>
<path d="M291.418 118.888L290.852 118.436C290.033 117.787 289.891 116.601 290.541 115.782L312.53 88.0553C313.18 87.2365 314.367 87.0953 315.186 87.7447L315.751 88.1965C316.571 88.8459 316.712 90.0317 316.062 90.8506L294.074 118.577C293.452 119.396 292.237 119.537 291.418 118.888Z" fill="#1B1B43"/>
</g>
<defs>
<linearGradient id="paint0_linear_33_103" x1="253.738" y1="122.417" x2="305.394" y2="122.766" gradientUnits="userSpaceOnUse">
<stop stop-color="#FFB800"/>
<stop offset="0.567708" stop-color="#FFA200"/>
<stop offset="0.901042" stop-color="#FFA200"/>
</linearGradient>
<clipPath id="clip0_33_103">
<rect width="376" height="159" fill="white"/>
</clipPath>
</defs>
</svg>
