<svg width="227" height="101" viewBox="0 0 227 101" fill="none" xmlns="http://www.w3.org/2000/svg">
<g clip-path="url(#clip0_33_149)">
<path d="M24.9435 174.46L22.625 173.406L24.6624 168.765L26.9809 169.819L24.9435 174.46ZM28.0348 167.499L25.7163 166.444L27.7538 161.803L30.0722 162.858L28.0348 167.499ZM31.1261 160.537L28.8076 159.482L30.8451 154.841L33.1635 155.896L31.1261 160.537ZM34.2174 153.576L31.8989 152.521L33.9364 147.88L36.2548 148.935L34.2174 153.576ZM37.3087 146.614L34.9902 145.559L37.0277 140.918L39.3461 141.973L37.3087 146.614ZM40.4 139.653L38.0815 138.598L40.119 133.957L42.4374 135.012L40.4 139.653ZM43.4913 132.691L41.1728 131.636L43.2103 126.995L45.5287 128.05L43.4913 132.691ZM46.5826 125.659L44.2641 124.604L46.3016 119.963L48.62 121.018L46.5826 125.659ZM49.6739 118.698L47.3554 117.643L49.3929 113.002L51.7113 114.057L49.6739 118.698ZM112.203 118.487L111.078 118.205L111.5 116.799L111.43 116.729L111.781 116.026L111.851 115.744H111.922L113.046 113.143L115.364 114.197L113.748 117.784L112.203 118.487ZM108.69 117.432L103.772 116.026L104.474 113.564L109.392 114.971L108.69 117.432ZM101.313 115.393L96.3947 113.986L97.0973 111.525L102.015 112.932L101.313 115.393ZM94.006 113.283L89.088 111.877L89.7906 109.416L94.7086 110.822L94.006 113.283ZM116.348 111.806L114.029 110.752L116.067 106.111L118.385 107.165L116.348 111.806ZM52.7652 111.736L50.4467 110.681L52.4842 106.04L54.8027 107.095L52.7652 111.736ZM86.6993 111.174L81.7813 109.767L82.4839 107.306L87.4018 108.712L86.6993 111.174ZM79.3223 109.064L74.4043 107.658L75.1069 105.197L80.0249 106.603L79.3223 109.064ZM72.0156 107.025L67.0976 105.618L67.8002 103.157L72.7182 104.564L72.0156 107.025ZM64.7089 104.915L59.7909 103.509L60.4935 101.048L65.4114 102.454L64.7089 104.915ZM119.439 104.845L117.121 103.79L119.158 99.1492L121.476 100.204L119.439 104.845ZM55.8565 104.775L53.538 103.72L54.9432 100.626L56.4186 99.9227L58.0345 100.415L57.3319 102.876L56.7698 102.735L55.8565 104.775ZM122.53 97.8834L120.212 96.8286L122.249 92.1876L124.568 93.2424L122.53 97.8834ZM125.622 90.9219L123.303 89.8671L125.341 85.2261L127.659 86.2809L125.622 90.9219ZM128.713 83.9603L126.394 82.9056L128.432 78.2645L130.75 79.3193L128.713 83.9603ZM131.804 76.9988L129.486 75.944L131.523 71.303L133.842 72.3578L131.804 76.9988ZM134.896 69.9669L132.577 68.9122L134.614 64.2711L136.933 65.3259L134.896 69.9669ZM193.49 67.2245L191.382 65.8181L194.122 61.5287L196.23 62.9351L193.49 67.2245ZM189.766 66.8729L185.691 63.8492L187.167 61.81L191.242 64.8337L189.766 66.8729ZM137.987 63.0054L135.668 61.9506L137.706 57.3096L140.024 58.3644L137.987 63.0054ZM183.654 62.3725L179.579 59.3488L181.054 57.3096L185.129 60.3333L183.654 62.3725ZM197.635 60.8255L195.527 59.4192L198.267 55.1297L200.375 56.5361L197.635 60.8255ZM177.471 57.8018L173.396 54.7781L174.872 52.7389L178.947 55.7626L177.471 57.8018ZM141.078 56.0439L138.76 54.9891L140.797 50.3481L143.116 51.4028L141.078 56.0439ZM201.78 54.3562L199.672 52.9499L202.412 48.6604L204.52 50.0668L201.78 54.3562ZM171.359 53.3014L167.284 50.2777L168.759 48.2385L172.834 51.2622L171.359 53.3014ZM144.169 49.0823L141.851 48.0276L143.888 43.3865L146.207 44.4413L144.169 49.0823ZM165.176 48.8011L161.101 45.7774L162.577 43.7381L166.652 46.7618L165.176 48.8011ZM205.855 47.9572L203.747 46.5509L206.487 42.2614L208.595 43.6678L205.855 47.9572ZM159.064 44.3007L154.989 41.277L156.464 39.2377L160.539 42.2614L159.064 44.3007ZM147.331 42.1208L145.012 41.066L147.05 36.425L149.368 37.4798L147.331 42.1208ZM210 41.5582L207.892 40.1519L210.632 35.8624L212.74 37.2688L210 41.5582ZM152.881 39.8003L148.806 36.7766L150.282 34.7373L154.357 37.761L152.881 39.8003ZM214.145 35.1592L212.038 33.7529L214.778 29.4634L216.885 30.8698L214.145 35.1592ZM218.29 28.7603L216.183 27.3539L218.923 23.0645L221.03 24.4708L218.29 28.7603Z" fill="#595A5C"/>
<path d="M136.853 101.75C138.444 66.639 111.295 36.8846 76.215 35.2919C41.1344 33.6993 11.4061 60.8715 9.81482 95.9828C8.22356 131.094 35.372 160.849 70.4525 162.441C105.533 164.034 135.261 136.862 136.853 101.75Z" fill="#D9EAF4"/>
<path d="M33.5587 17.6899C34.0715 8.42207 26.9807 0.492887 17.721 -0.0204034C8.4613 -0.533694 0.539075 6.56328 0.026235 15.8311C-0.486605 25.099 6.60414 33.0282 15.8639 33.5415C25.1236 34.0547 33.0458 26.9578 33.5587 17.6899Z" fill="#D9EAF4"/>
<path d="M52.9706 95.141C49.3172 96.3364 47.35 100.274 48.5444 104.001C49.7387 107.658 53.6731 109.627 57.3967 108.431C61.0501 107.236 63.0173 103.298 61.8229 99.5711C60.6286 95.9145 56.6942 93.8753 52.9706 95.141Z" fill="#ADBACD"/>
<path d="M146.697 28.69C143.044 29.8854 141.077 33.8232 142.271 37.5501C143.465 41.2067 147.4 43.1756 151.123 41.9802C154.777 40.7847 156.744 36.8469 155.55 33.12C154.355 29.4635 150.421 27.4945 146.697 28.69Z" fill="#00ABFF"/>
<path d="M189.693 59.6303C186.04 60.8257 184.073 64.7635 185.267 68.4904C186.461 72.147 190.396 74.1159 194.119 72.9205C197.773 71.7251 199.74 67.7872 198.546 64.0603C197.281 60.4038 193.347 58.3645 189.693 59.6303Z" fill="#ADBACD"/>
<path d="M226.647 21.5878C225.453 17.9312 221.518 15.9623 217.795 17.1577C214.141 18.3531 212.174 22.291 213.369 26.0179C214.563 29.6744 218.497 31.6434 222.221 30.4479C225.874 29.1822 227.842 25.2444 226.647 21.5878Z" fill="#ADBACD"/>
</g>
<defs>
<clipPath id="clip0_33_149">
<rect width="227" height="101" fill="white"/>
</clipPath>
</defs>
</svg>
