<svg width="291" height="291" viewBox="0 0 291 291" fill="none" xmlns="http://www.w3.org/2000/svg">
<path opacity="0.7" d="M39.5351 97.2464C39.5351 97.2464 23.3089 139.15 46.1117 181.345C68.9144 223.54 115.882 245.831 153.473 264.892C191.065 283.952 230.099 274.669 248.648 243.451C267.196 212.232 241.757 189.947 241.722 145.43C241.687 100.913 248.386 89.1275 224.262 51.5187C200.138 13.9098 141.001 5.58141 96.2801 33.4767C51.5592 61.3719 39.5351 97.2464 39.5351 97.2464Z" fill="white"/>
<path d="M132.842 29.8682C205.01 23.4662 205.156 64.1655 237.678 102.112C270.2 140.058 277.167 157.256 264.904 200.999C252.641 244.743 211.325 279.028 160.208 259.601C109.091 240.174 79.8103 258.827 47.5675 241.559C15.3247 224.291 3.3355 190.972 26.9589 151.692C50.5823 112.413 43.8311 37.7951 132.842 29.8682Z" fill="#00ABFF"/>
<path opacity="0.7" d="M132.842 29.8682C205.01 23.4662 205.156 64.1655 237.678 102.112C270.2 140.058 277.167 157.256 264.904 200.999C252.641 244.743 211.325 279.028 160.208 259.601C109.091 240.174 79.8103 258.827 47.5675 241.559C15.3247 224.291 3.3355 190.972 26.9589 151.692C50.5823 112.413 43.8311 37.7951 132.842 29.8682Z" fill="white"/>
<path d="M149.229 32.5443L137.354 35.0444C135.753 35.3815 134.729 36.9526 135.066 38.5536L137.566 50.4279C137.903 52.0289 139.474 53.0535 141.075 52.7164L152.95 50.2162C154.551 49.8792 155.575 48.3081 155.238 46.7071L152.738 34.8327C152.401 33.2317 150.83 32.2072 149.229 32.5443Z" stroke="#263238" stroke-linecap="round" stroke-linejoin="round"/>
<path d="M144.4 39.023L145.913 46.2281" stroke="#263238" stroke-linecap="round" stroke-linejoin="round"/>
<path d="M148.761 41.8632L141.556 43.3822" stroke="#263238" stroke-linecap="round" stroke-linejoin="round"/>
<path d="M268.93 159.504L257.056 162.004C255.455 162.341 254.43 163.912 254.767 165.513L257.267 177.387C257.604 178.988 259.175 180.013 260.776 179.676L272.651 177.175C274.252 176.838 275.276 175.267 274.939 173.666L272.439 161.792C272.102 160.191 270.531 159.166 268.93 159.504Z" stroke="#263238" stroke-linecap="round" stroke-linejoin="round"/>
<path d="M266.872 166.493L262.851 172.662" stroke="#263238" stroke-linecap="round" stroke-linejoin="round"/>
<path d="M267.942 171.591L261.773 167.564" stroke="#263238" stroke-linecap="round" stroke-linejoin="round"/>
<path d="M108.608 236.8L96.4736 236.072C94.8375 235.974 93.4317 237.22 93.3335 238.857L92.6054 250.991C92.5072 252.627 93.754 254.033 95.39 254.131L107.525 254.859C109.161 254.958 110.567 253.711 110.665 252.075L111.393 239.94C111.491 238.304 110.244 236.898 108.608 236.8Z" stroke="#263238" stroke-width="1.0018" stroke-linecap="round" stroke-linejoin="round"/>
<path d="M106.087 245.028L98.731 244.603" stroke="#263238" stroke-linecap="round" stroke-linejoin="round"/>
<path d="M36.2041 152.334L24.6851 148.518C23.1321 148.003 21.4559 148.845 20.9414 150.398L17.1252 161.917C16.6106 163.47 17.4525 165.146 19.0056 165.661L30.5246 169.477C32.0777 169.991 33.7538 169.15 34.2683 167.596L38.0845 156.077C38.5991 154.524 37.7572 152.848 36.2041 152.334Z" stroke="#263238" stroke-linecap="round" stroke-linejoin="round"/>
<path d="M32.2135 156.686L23.0005 161.313" stroke="#263238" stroke-linecap="round" stroke-linejoin="round"/>
<path d="M26.9307 154.812C27.0412 155.04 27.0821 155.295 27.0482 155.546C27.0143 155.797 26.9071 156.032 26.7402 156.222C26.5732 156.412 26.3539 156.549 26.1096 156.615C25.8653 156.681 25.6069 156.674 25.3668 156.594C25.1267 156.514 24.9155 156.365 24.7598 156.165C24.604 155.966 24.5105 155.725 24.4911 155.472C24.4717 155.22 24.5271 154.967 24.6505 154.747C24.7739 154.526 24.9597 154.346 25.1847 154.23C25.337 154.151 25.5037 154.103 25.6748 154.089C25.846 154.076 26.0182 154.097 26.1811 154.151C26.344 154.205 26.4943 154.292 26.6231 154.405C26.7518 154.519 26.8565 154.657 26.9307 154.812V154.812Z" stroke="#263238" stroke-linecap="round" stroke-linejoin="round"/>
<path d="M30.584 162.064C30.6945 162.291 30.7354 162.547 30.7015 162.797C30.6676 163.048 30.5605 163.284 30.3935 163.474C30.2266 163.664 30.0072 163.801 29.7629 163.867C29.5186 163.933 29.2602 163.925 29.0201 163.845C28.78 163.765 28.5688 163.616 28.4131 163.417C28.2573 163.217 28.1639 162.976 28.1444 162.724C28.125 162.472 28.1804 162.219 28.3038 161.998C28.4272 161.777 28.613 161.598 28.838 161.482C28.9903 161.402 29.157 161.355 29.3282 161.341C29.4993 161.327 29.6715 161.348 29.8344 161.403C29.9973 161.457 30.1476 161.543 30.2764 161.657C30.4052 161.771 30.5098 161.909 30.584 162.064V162.064Z" stroke="#263238" stroke-linecap="round" stroke-linejoin="round"/>
<path d="M149.983 233.26C148.778 235.004 147.084 236.352 145.113 237.134C143.142 237.915 140.984 238.095 138.911 237.65C136.838 237.205 134.944 236.155 133.468 234.634C131.991 233.112 130.999 231.187 130.617 229.102C130.234 227.017 130.479 224.865 131.319 222.919C132.16 220.972 133.558 219.319 135.338 218.167C137.118 217.016 139.2 216.418 141.32 216.449C143.439 216.48 145.502 217.139 147.248 218.343C149.588 219.959 151.191 222.438 151.704 225.235C152.217 228.032 151.598 230.919 149.983 233.26Z" fill="#00ABFF"/>
<path opacity="0.3" d="M148.587 232.294C147.572 233.761 146.145 234.894 144.486 235.551C142.827 236.207 141.011 236.357 139.267 235.981C137.523 235.606 135.93 234.721 134.688 233.44C133.447 232.159 132.613 230.538 132.293 228.784C131.972 227.029 132.179 225.218 132.888 223.581C133.596 221.943 134.774 220.553 136.272 219.585C137.771 218.617 139.523 218.115 141.306 218.143C143.09 218.17 144.826 218.726 146.294 219.74C148.262 221.101 149.609 223.188 150.039 225.542C150.469 227.896 149.946 230.325 148.587 232.294Z" fill="black" fill-opacity="0.7"/>
<path d="M148.587 232.294C147.572 233.761 146.145 234.894 144.486 235.551C142.827 236.207 141.011 236.357 139.267 235.981C137.523 235.606 135.93 234.721 134.688 233.44C133.447 232.159 132.613 230.538 132.293 228.784C131.972 227.029 132.179 225.218 132.888 223.581C133.596 221.943 134.774 220.553 136.272 219.585C137.771 218.617 139.523 218.115 141.306 218.143C143.09 218.17 144.826 218.726 146.294 219.74C148.262 221.101 149.609 223.188 150.039 225.542C150.469 227.896 149.946 230.325 148.587 232.294V232.294Z" stroke="#263238" stroke-linecap="round" stroke-linejoin="round"/>
<path d="M143.477 222.656L143.914 222.033L144.996 222.778L144.56 223.407C145.369 224.25 145.351 225.304 144.56 226.445L144.373 226.712L143.122 225.845L143.367 225.496C143.78 224.914 143.698 224.501 143.279 224.21C142.86 223.919 142.459 223.977 142.04 224.582C141.621 225.187 141.574 225.746 141.976 227.096C142.459 228.714 142.371 229.634 141.708 230.588C140.916 231.752 139.915 232.125 138.844 231.671L138.42 232.282L137.355 231.543L137.779 230.926C136.959 230.076 136.988 229.011 137.779 227.865L138.175 227.283L139.426 228.15L138.973 228.808C138.553 229.39 138.67 229.809 139.089 230.105C139.508 230.402 139.927 230.361 140.346 229.756C140.765 229.151 140.817 228.557 140.41 227.242C139.915 225.641 140.008 224.71 140.678 223.75C141.429 222.621 142.412 222.219 143.477 222.656Z" fill="#00ABFF" stroke="#263238" stroke-linecap="round" stroke-linejoin="round"/>
<path opacity="0.2" d="M138.174 218.471C138.175 220.977 137.524 223.441 136.286 225.619C135.047 227.798 133.263 229.616 131.108 230.897C130.597 229.522 130.374 228.056 130.452 226.591C130.53 225.127 130.908 223.693 131.563 222.38C132.218 221.068 133.135 219.903 134.258 218.96C135.381 218.016 136.686 217.313 138.092 216.894C138.149 217.418 138.176 217.944 138.174 218.471Z" fill="black" fill-opacity="0.7"/>
<path d="M149.983 233.26C148.778 235.004 147.084 236.352 145.113 237.134C143.142 237.915 140.984 238.095 138.911 237.65C136.838 237.205 134.944 236.155 133.468 234.634C131.991 233.112 130.999 231.187 130.617 229.102C130.234 227.017 130.479 224.865 131.319 222.919C132.16 220.972 133.558 219.319 135.338 218.167C137.118 217.016 139.2 216.418 141.32 216.449C143.439 216.48 145.502 217.139 147.248 218.343C149.588 219.959 151.191 222.438 151.704 225.235C152.217 228.032 151.598 230.919 149.983 233.26V233.26Z" stroke="#263238" stroke-linecap="round" stroke-linejoin="round"/>
<path d="M125.853 228.866C131.777 228.866 136.579 224.063 136.579 218.139C136.579 212.215 131.777 207.413 125.853 207.413C119.929 207.413 115.127 212.215 115.127 218.139C115.127 224.063 119.929 228.866 125.853 228.866Z" fill="#00ABFF" stroke="#263238" stroke-linecap="round" stroke-linejoin="round"/>
<path opacity="0.3" d="M125.853 227.16C130.835 227.16 134.874 223.121 134.874 218.139C134.874 213.157 130.835 209.118 125.853 209.118C120.871 209.118 116.832 213.157 116.832 218.139C116.832 223.121 120.871 227.16 125.853 227.16Z" fill="black" fill-opacity="0.7"/>
<path d="M125.853 227.16C130.835 227.16 134.874 223.121 134.874 218.139C134.874 213.157 130.835 209.118 125.853 209.118C120.871 209.118 116.832 213.157 116.832 218.139C116.832 223.121 120.871 227.16 125.853 227.16Z" stroke="#263238" stroke-linecap="round" stroke-linejoin="round"/>
<path d="M125.196 213.117V212.36H126.511V213.117C127.675 213.355 128.257 214.228 128.257 215.619V215.922H126.733V215.497C126.733 214.764 126.442 214.484 125.929 214.484C125.417 214.484 125.126 214.764 125.126 215.497C125.126 216.23 125.417 216.737 126.5 217.604C127.815 218.657 128.246 219.46 128.246 220.63C128.246 222.021 127.664 222.918 126.5 223.15V223.895H125.184V223.15C124.02 222.918 123.438 222.021 123.438 220.63V219.932H124.957V220.735C124.957 221.468 125.278 221.73 125.79 221.73C126.302 221.73 126.628 221.468 126.628 220.735C126.628 220.002 126.337 219.478 125.248 218.628C123.933 217.586 123.502 216.772 123.502 215.596C123.497 214.246 124.067 213.367 125.196 213.117Z" fill="#00ABFF" stroke="#263238" stroke-linecap="round" stroke-linejoin="round"/>
<path d="M186.053 227.149C189.249 222.161 187.796 215.527 182.808 212.331C177.82 209.135 171.186 210.588 167.99 215.575C164.794 220.563 166.247 227.198 171.234 230.394C176.222 233.59 182.857 232.137 186.053 227.149Z" fill="#00ABFF" stroke="#263238" stroke-linecap="round" stroke-linejoin="round"/>
<path opacity="0.3" d="M183.628 215.229C184.842 216.537 185.642 218.175 185.925 219.936C186.209 221.698 185.964 223.504 185.221 225.127C184.477 226.749 183.27 228.114 181.751 229.05C180.231 229.986 178.469 230.45 176.686 230.385C174.902 230.319 173.179 229.725 171.733 228.68C170.287 227.634 169.184 226.183 168.562 224.51C167.941 222.838 167.83 221.018 168.243 219.282C168.656 217.546 169.574 215.972 170.882 214.758C171.749 213.951 172.767 213.323 173.877 212.91C174.988 212.496 176.169 212.306 177.353 212.35C178.537 212.394 179.7 212.671 180.777 213.165C181.854 213.659 182.822 214.36 183.628 215.229Z" fill="black" fill-opacity="0.7"/>
<path d="M183.628 215.229C184.842 216.537 185.642 218.175 185.925 219.936C186.209 221.698 185.964 223.504 185.221 225.127C184.477 226.749 183.27 228.114 181.751 229.05C180.231 229.986 178.469 230.45 176.686 230.385C174.902 230.319 173.179 229.725 171.733 228.68C170.287 227.634 169.184 226.183 168.562 224.51C167.941 222.838 167.83 221.018 168.243 219.282C168.656 217.546 169.574 215.972 170.882 214.758C171.749 213.951 172.767 213.323 173.877 212.91C174.988 212.496 176.169 212.306 177.353 212.35C178.537 212.394 179.7 212.671 180.777 213.165C181.854 213.659 182.822 214.36 183.628 215.229V215.229Z" stroke="#263238" stroke-linecap="round" stroke-linejoin="round"/>
<path d="M173.122 218.139L172.604 217.557L173.564 216.661L174.082 217.243C175.083 216.661 176.108 216.882 177.05 217.901L177.272 218.134L176.16 219.17L175.869 218.861C175.369 218.326 174.967 218.32 174.594 218.669C174.222 219.018 174.193 219.42 174.688 219.955C175.182 220.491 175.753 220.665 177.132 220.566C178.814 220.438 179.693 220.718 180.49 221.579C181.433 222.598 181.602 223.657 180.927 224.605L181.433 225.153L180.467 226.049L179.96 225.502C178.954 226.119 177.918 225.863 176.975 224.844L176.492 224.332L177.609 223.296L178.156 223.878C178.657 224.413 179.07 224.39 179.448 224.041C179.827 223.692 179.879 223.278 179.378 222.743C178.878 222.208 178.308 222.021 176.94 222.161C175.264 222.295 174.373 222.004 173.582 221.143C172.645 220.118 172.464 219.088 173.122 218.139Z" fill="#00ABFF" stroke="#263238" stroke-linecap="round" stroke-linejoin="round"/>
<path opacity="0.2" d="M172.605 174.745C172.605 174.745 172.558 197.001 172.605 198.299C172.651 199.597 174.351 207.413 174.351 207.413L168.944 217.377L173.6 221.125L182.65 212.232C182.65 212.232 190.356 216.987 191.764 223.796C193.173 230.606 201.559 235.564 210.26 254.421C218.961 273.278 228.884 212.232 228.884 212.232L202.036 178.43L172.605 174.745Z" fill="black" fill-opacity="0.7"/>
<path d="M254.678 55.1793L246.454 135.425L241.397 184.791L170.718 177.551L156.966 176.142L148.16 175.24L155.965 99.0563L161.441 45.6287L254.678 55.1793Z" fill="white"/>
<path d="M227.598 58.1999L187.352 54.0736C187.173 54.0552 186.991 54.0724 186.818 54.1242C186.645 54.176 186.484 54.2613 186.344 54.3754C186.204 54.4894 186.088 54.6299 186.003 54.7888C185.917 54.9477 185.863 55.122 185.845 55.3016C185.827 55.4812 185.844 55.6626 185.896 55.8356C185.947 56.0086 186.033 56.1696 186.147 56.3096C186.261 56.4496 186.401 56.5657 186.56 56.6514C186.719 56.7371 186.893 56.7906 187.073 56.809L227.318 60.9353C227.681 60.9724 228.044 60.8638 228.326 60.6335C228.609 60.4032 228.789 60.07 228.826 59.7073C228.863 59.3446 228.754 58.982 228.524 58.6993C228.294 58.4166 227.96 58.237 227.598 58.1999Z" fill="#263238"/>
<path d="M216.959 62.7686L196.839 60.7025C196.657 60.6846 196.476 60.7394 196.334 60.855C196.192 60.9706 196.102 61.1375 196.083 61.3194C196.074 61.4093 196.083 61.4999 196.109 61.5863C196.135 61.6726 196.178 61.753 196.236 61.8227C196.293 61.8924 196.364 61.9502 196.443 61.9926C196.523 62.0351 196.61 62.0615 196.7 62.0702L216.82 64.1363C217.002 64.1542 217.183 64.0994 217.325 63.9838C217.467 63.8683 217.557 63.7013 217.576 63.5194C217.586 63.4294 217.577 63.3385 217.551 63.2518C217.526 63.1651 217.483 63.0845 217.425 63.0146C217.368 62.9447 217.297 62.8869 217.217 62.8447C217.137 62.8025 217.049 62.7766 216.959 62.7686Z" fill="#263238"/>
<path d="M239.104 121.993L173.78 115.3C173.603 115.28 173.425 115.329 173.284 115.438C173.143 115.547 173.049 115.706 173.023 115.882C173.005 116.064 173.06 116.246 173.176 116.387C173.291 116.529 173.458 116.62 173.64 116.639L238.964 123.384C239.054 123.393 239.144 123.384 239.231 123.358C239.317 123.331 239.397 123.288 239.467 123.231C239.537 123.174 239.595 123.103 239.637 123.024C239.68 122.944 239.706 122.857 239.715 122.767C239.728 122.676 239.722 122.583 239.698 122.494C239.674 122.405 239.632 122.321 239.575 122.249C239.518 122.177 239.447 122.117 239.366 122.073C239.285 122.029 239.195 122.002 239.104 121.993Z" fill="#263238"/>
<path d="M238.62 126.911L162.64 119.129C162.55 119.12 162.46 119.128 162.374 119.154C162.287 119.179 162.207 119.221 162.137 119.278C162.067 119.335 162.009 119.405 161.967 119.485C161.924 119.564 161.898 119.651 161.889 119.741C161.869 119.917 161.919 120.095 162.027 120.236C162.136 120.378 162.295 120.471 162.471 120.497L238.428 128.278C238.518 128.288 238.608 128.279 238.695 128.253C238.781 128.227 238.862 128.185 238.932 128.128C239.002 128.071 239.06 128 239.103 127.921C239.146 127.841 239.172 127.754 239.182 127.664C239.191 127.575 239.182 127.484 239.156 127.397C239.13 127.311 239.088 127.23 239.031 127.16C238.974 127.09 238.903 127.032 238.824 126.99C238.745 126.947 238.657 126.92 238.568 126.911H238.62Z" fill="#263238"/>
<path d="M216.823 129.652L162.115 124.047C161.934 124.028 161.752 124.082 161.611 124.196C161.469 124.311 161.378 124.477 161.359 124.659C161.34 124.84 161.393 125.022 161.508 125.163C161.622 125.305 161.789 125.396 161.97 125.415L216.678 131.02C216.768 131.029 216.858 131.02 216.945 130.993C217.031 130.967 217.111 130.924 217.181 130.867C217.251 130.81 217.309 130.739 217.351 130.66C217.394 130.58 217.42 130.493 217.429 130.403C217.438 130.314 217.43 130.224 217.405 130.138C217.38 130.052 217.338 129.972 217.282 129.902C217.226 129.832 217.156 129.774 217.078 129.731C216.999 129.688 216.913 129.662 216.823 129.652Z" fill="#263238"/>
<path d="M161.277 129.351L159.055 151.039L235.629 158.885L237.851 137.197L161.277 129.351Z" fill="#BFBFBF" stroke="#263238" stroke-miterlimit="10"/>
<path d="M196.394 104.254C203.627 98.2281 204.605 87.4791 198.579 80.2459C192.553 73.0128 181.804 72.0345 174.57 78.061C167.337 84.0874 166.359 94.8364 172.385 102.07C178.412 109.303 189.161 110.281 196.394 104.254Z" fill="#00ABFF"/>
<path opacity="0.5" d="M196.394 104.254C203.627 98.2281 204.605 87.4791 198.579 80.2459C192.553 73.0128 181.804 72.0345 174.57 78.061C167.337 84.0874 166.359 94.8364 172.385 102.07C178.412 109.303 189.161 110.281 196.394 104.254Z" fill="white"/>
<path d="M196.394 104.254C203.627 98.2281 204.605 87.4791 198.579 80.2459C192.553 73.0128 181.804 72.0345 174.57 78.061C167.337 84.0874 166.359 94.8364 172.385 102.07C178.412 109.303 189.161 110.281 196.394 104.254Z" stroke="#263238" stroke-miterlimit="10"/>
<path d="M185.972 91.1178L200.15 98.2473C201.473 95.5002 201.998 92.4371 201.667 89.4062C201.336 86.3752 200.161 83.498 198.276 81.1016L185.972 91.1178Z" fill="white"/>
<path d="M186.067 90.3497L197.94 80.6885C196.167 78.5762 193.886 76.9499 191.311 75.9626L189.152 81.8408L186.067 90.3497Z" fill="#00ABFF"/>
<path d="M187.404 75.0081L185.972 89.0459L190.803 75.7705C189.701 75.3948 188.561 75.1391 187.404 75.0081Z" fill="#757575"/>
<path d="M185.234 90.9898L186.881 74.9499C184.075 74.7142 181.256 75.2097 178.698 76.3881C176.14 77.5664 173.932 79.3875 172.288 81.6736C170.643 83.9597 169.62 86.6329 169.316 89.4325C169.013 92.2321 169.44 95.0625 170.556 97.6479L185.234 90.9898Z" fill="#999999"/>
<path d="M183.826 107.367C187.063 107.697 190.325 107.049 193.19 105.509C196.056 103.969 198.396 101.606 199.907 98.7246L185.479 91.467L170.772 98.1484C171.973 100.677 173.805 102.853 176.091 104.468C178.378 106.083 181.042 107.081 183.826 107.367Z" fill="#BFBFBF"/>
<path d="M212.836 80.0974L210.896 79.8987C210.695 79.8781 210.515 80.0246 210.494 80.2261L210.296 82.1656C210.275 82.3671 210.422 82.5471 210.623 82.5678L212.563 82.7665C212.764 82.7871 212.944 82.6405 212.965 82.4391L213.163 80.4996C213.184 80.2981 213.037 80.1181 212.836 80.0974Z" fill="#00ABFF" stroke="#263238" stroke-miterlimit="10"/>
<path d="M239.86 83.8545L214.799 81.2879C214.741 81.2609 214.692 81.216 214.66 81.1596C214.628 81.1032 214.614 81.0382 214.621 80.9738C214.629 80.9094 214.656 80.8488 214.699 80.8007C214.743 80.7526 214.8 80.7194 214.864 80.7059L239.924 83.2259C240 83.2408 240.067 83.2834 240.113 83.3453C240.159 83.4073 240.18 83.4841 240.172 83.5607C240.164 83.6374 240.127 83.7082 240.07 83.7593C240.012 83.8104 239.937 83.8382 239.86 83.837V83.8545Z" fill="#263238"/>
<path d="M237.27 84.937L214.665 82.609C214.584 82.6002 214.51 82.5598 214.459 82.4965C214.408 82.4333 214.384 82.3524 214.392 82.2714C214.395 82.2311 214.407 82.1918 214.426 82.1561C214.445 82.1203 214.471 82.0887 214.503 82.0632C214.534 82.0377 214.57 82.0188 214.609 82.0076C214.648 81.9963 214.689 81.9931 214.729 81.9979L237.334 84.3259C237.41 84.3407 237.477 84.3833 237.523 84.4453C237.569 84.5072 237.589 84.5841 237.581 84.6607C237.573 84.7373 237.537 84.8081 237.479 84.8593C237.422 84.9104 237.347 84.9381 237.27 84.937Z" fill="#263238"/>
<path d="M212.225 86.0742L210.285 85.8755C210.084 85.8549 209.904 86.0014 209.883 86.2029L209.684 88.1424C209.664 88.3439 209.81 88.5239 210.012 88.5445L211.951 88.7433C212.153 88.7639 212.333 88.6173 212.353 88.4159L212.552 86.4763C212.573 86.2749 212.426 86.0949 212.225 86.0742Z" fill="#757575" stroke="#263238" stroke-linecap="round" stroke-linejoin="round"/>
<path d="M239.248 89.8317L214.175 87.2651C214.1 87.2502 214.032 87.2076 213.987 87.1457C213.941 87.0837 213.92 87.0069 213.928 86.9302C213.936 86.8536 213.972 86.7828 214.03 86.7317C214.088 86.6805 214.162 86.6528 214.239 86.654L239.294 89.2206C239.376 89.2294 239.45 89.2696 239.503 89.3326C239.555 89.3957 239.58 89.4766 239.574 89.5581C239.565 89.6369 239.526 89.7092 239.465 89.7601C239.405 89.811 239.327 89.8366 239.248 89.8317Z" fill="#263238"/>
<path d="M236.654 90.9199L214.055 88.5919C213.973 88.5842 213.897 88.5443 213.845 88.481C213.793 88.4177 213.768 88.3362 213.775 88.2544C213.783 88.1726 213.823 88.0972 213.886 88.0448C213.95 87.9924 214.031 87.9673 214.113 87.975L236.718 90.303C236.758 90.3072 236.798 90.3194 236.833 90.3387C236.869 90.3581 236.901 90.3844 236.926 90.416C236.952 90.4476 236.971 90.484 236.983 90.523C236.995 90.562 236.998 90.603 236.994 90.6435C236.99 90.684 236.978 90.7233 236.958 90.7591C236.939 90.7949 236.913 90.8265 236.881 90.8522C236.85 90.8779 236.813 90.8971 236.774 90.9087C236.735 90.9203 236.694 90.9241 236.654 90.9199Z" fill="#263238"/>
<path d="M211.611 92.0569L209.671 91.8582C209.47 91.8375 209.29 91.9841 209.269 92.1855L209.071 94.1251C209.05 94.3265 209.196 94.5066 209.398 94.5272L211.337 94.7259C211.539 94.7466 211.719 94.6 211.74 94.3986L211.938 92.459C211.959 92.2576 211.812 92.0775 211.611 92.0569Z" fill="#999999" stroke="#263238" stroke-linecap="round" stroke-linejoin="round"/>
<path d="M238.619 95.8146L213.593 93.2421C213.551 93.2415 213.508 93.2319 213.469 93.2141C213.431 93.1962 213.396 93.1705 213.367 93.1384C213.339 93.1064 213.317 93.0688 213.304 93.028C213.291 92.9872 213.287 92.9442 213.291 92.9016C213.296 92.859 213.309 92.8178 213.33 92.7806C213.351 92.7434 213.38 92.711 213.415 92.6856C213.449 92.6601 213.489 92.6421 213.53 92.6328C213.572 92.6234 213.615 92.6228 213.657 92.631L238.713 95.1977C238.753 95.2019 238.792 95.214 238.828 95.2334C238.864 95.2528 238.896 95.279 238.921 95.3106C238.947 95.3423 238.966 95.3786 238.978 95.4176C238.989 95.4567 238.993 95.4976 238.989 95.5381C238.985 95.5786 238.973 95.6179 238.953 95.6537C238.934 95.6895 238.908 95.7212 238.876 95.7469C238.844 95.7725 238.808 95.7917 238.769 95.8033C238.73 95.815 238.689 95.8188 238.649 95.8146H238.619Z" fill="#263238"/>
<path d="M236.042 96.8971L213.437 94.5691C213.356 94.5603 213.282 94.5199 213.231 94.4567C213.18 94.3934 213.156 94.3125 213.164 94.2315C213.172 94.1502 213.213 94.0755 213.276 94.0233C213.339 93.9712 213.42 93.9456 213.501 93.9522L236.106 96.2802C236.188 96.2887 236.263 96.3293 236.315 96.3932C236.367 96.457 236.391 96.5388 236.383 96.6207C236.374 96.7025 236.333 96.7775 236.27 96.8294C236.206 96.8812 236.124 96.9056 236.042 96.8971Z" fill="#263238"/>
<path d="M211.002 98.039L209.062 97.8402C208.861 97.8196 208.681 97.9662 208.66 98.1676L208.461 100.107C208.441 100.309 208.587 100.489 208.789 100.509L210.728 100.708C210.93 100.729 211.11 100.582 211.13 100.381L211.329 98.4411C211.35 98.2396 211.203 98.0596 211.002 98.039Z" fill="#BFBFBF" stroke="#263238" stroke-miterlimit="10"/>
<path d="M238.039 101.792L212.984 99.2251C212.943 99.2215 212.904 99.2098 212.868 99.1908C212.832 99.1719 212.8 99.1459 212.774 99.1145C212.748 99.0832 212.728 99.0469 212.717 99.008C212.705 98.969 212.701 98.9281 212.705 98.8875C212.713 98.8062 212.754 98.7315 212.817 98.6793C212.88 98.6272 212.961 98.6016 213.042 98.6082L238.103 101.181C238.146 101.181 238.188 101.191 238.227 101.209C238.266 101.226 238.301 101.252 238.329 101.284C238.358 101.316 238.379 101.354 238.392 101.395C238.405 101.436 238.41 101.479 238.405 101.521C238.401 101.564 238.388 101.605 238.366 101.642C238.345 101.679 238.316 101.712 238.282 101.737C238.247 101.763 238.208 101.781 238.166 101.79C238.124 101.799 238.081 101.8 238.039 101.792Z" fill="#263238"/>
<path d="M235.43 102.874L212.825 100.546C212.749 100.531 212.682 100.489 212.636 100.427C212.59 100.365 212.569 100.288 212.577 100.211C212.585 100.135 212.622 100.064 212.679 100.013C212.737 99.9618 212.812 99.9341 212.889 99.9352L235.494 102.263C235.541 102.253 235.591 102.254 235.638 102.267C235.685 102.28 235.729 102.303 235.765 102.336C235.801 102.369 235.829 102.41 235.846 102.455C235.864 102.501 235.87 102.55 235.865 102.599C235.859 102.647 235.843 102.694 235.816 102.734C235.789 102.775 235.753 102.809 235.71 102.833C235.668 102.857 235.62 102.871 235.571 102.873C235.523 102.875 235.474 102.866 235.43 102.845V102.874Z" fill="#263238"/>
<path d="M210.388 104.016L208.448 103.817C208.247 103.796 208.067 103.943 208.046 104.144L207.847 106.084C207.827 106.285 207.973 106.465 208.175 106.486L210.114 106.685C210.316 106.705 210.496 106.559 210.516 106.357L210.715 104.418C210.736 104.216 210.589 104.036 210.388 104.016Z" fill="white" stroke="#263238" stroke-linecap="round" stroke-linejoin="round"/>
<path d="M237.41 107.769L212.349 105.202C212.29 105.175 212.241 105.13 212.209 105.074C212.177 105.018 212.164 104.953 212.171 104.888C212.178 104.824 212.205 104.763 212.249 104.715C212.292 104.667 212.349 104.634 212.413 104.62L237.456 107.158C237.504 107.148 237.554 107.149 237.601 107.161C237.648 107.174 237.691 107.198 237.728 107.23C237.764 107.263 237.792 107.304 237.809 107.35C237.827 107.395 237.833 107.445 237.827 107.493C237.822 107.542 237.805 107.588 237.778 107.629C237.752 107.67 237.715 107.704 237.673 107.728C237.63 107.752 237.583 107.765 237.534 107.768C237.485 107.77 237.437 107.76 237.392 107.74L237.41 107.769Z" fill="#263238"/>
<path d="M234.821 108.834L212.216 106.506C212.173 106.505 212.131 106.496 212.092 106.478C212.053 106.46 212.018 106.434 211.99 106.402C211.961 106.37 211.94 106.333 211.927 106.292C211.914 106.251 211.909 106.208 211.914 106.165C211.918 106.123 211.932 106.082 211.953 106.044C211.974 106.007 212.003 105.975 212.037 105.949C212.072 105.924 212.111 105.906 212.153 105.897C212.195 105.887 212.238 105.887 212.28 105.895L234.879 108.223C234.922 108.223 234.965 108.231 235.004 108.249C235.044 108.266 235.079 108.291 235.108 108.323C235.137 108.355 235.159 108.393 235.173 108.433C235.187 108.474 235.192 108.518 235.188 108.561C235.183 108.603 235.17 108.645 235.149 108.683C235.128 108.72 235.099 108.753 235.065 108.779C235.03 108.804 234.991 108.823 234.949 108.832C234.907 108.842 234.863 108.842 234.821 108.834Z" fill="#263238"/>
<path d="M226.259 151.573L227.689 151.719L228.528 143.538L227.098 143.392L226.259 151.573Z" fill="#757575" stroke="#263238" stroke-linecap="round" stroke-linejoin="round"/>
<path d="M226.389 150.335L227.819 150.482L228.214 146.632L226.784 146.485L226.389 150.335Z" fill="#00ABFF" stroke="#263238" stroke-miterlimit="10"/>
<path d="M229.697 149.834L231.127 149.981L231.965 141.8L230.535 141.653L229.697 149.834Z" fill="#757575" stroke="#263238" stroke-linecap="round" stroke-linejoin="round"/>
<path d="M230.308 143.815L229.913 147.665L231.343 147.812L231.738 143.961L230.308 143.815Z" fill="#00ABFF" stroke="#263238" stroke-miterlimit="10"/>
<path d="M232.753 151.726L234.183 151.873L235.021 143.692L233.591 143.545L232.753 151.726Z" fill="#757575" stroke="#263238" stroke-linecap="round" stroke-linejoin="round"/>
<path d="M233.066 148.656L234.496 148.803L234.891 144.953L233.461 144.806L233.066 148.656Z" fill="#00ABFF" stroke="#263238" stroke-miterlimit="10"/>
<path d="M223.204 149.627L224.634 149.774L225.472 141.593L224.042 141.447L223.204 149.627Z" fill="#757575" stroke="#263238" stroke-linecap="round" stroke-linejoin="round"/>
<path d="M223.336 148.384L224.766 148.531L225.161 144.681L223.731 144.534L223.336 148.384Z" fill="#00ABFF" stroke="#263238" stroke-miterlimit="10"/>
<path d="M219.739 151.709L221.169 151.855L222.008 143.674L220.578 143.528L219.739 151.709Z" fill="#757575" stroke="#263238" stroke-linecap="round" stroke-linejoin="round"/>
<path d="M219.83 150.791L221.26 150.937L221.655 147.087L220.225 146.941L219.83 150.791Z" fill="#00ABFF" stroke="#263238" stroke-miterlimit="10"/>
<path d="M216.734 149.267L218.164 149.413L219.002 141.232L217.572 141.086L216.734 149.267Z" fill="#757575" stroke="#263238" stroke-linecap="round" stroke-linejoin="round"/>
<path d="M216.766 148.97L218.196 149.116L218.59 145.266L217.16 145.12L216.766 148.97Z" fill="#00ABFF" stroke="#263238" stroke-miterlimit="10"/>
<path d="M213.071 153.216L214.501 153.363L215.34 145.182L213.91 145.036L213.071 153.216Z" fill="#757575" stroke="#263238" stroke-linecap="round" stroke-linejoin="round"/>
<path d="M213.096 152.913L214.526 153.06L214.921 149.209L213.491 149.063L213.096 152.913Z" fill="#00ABFF" stroke="#263238" stroke-miterlimit="10"/>
<path d="M210.382 147.729L211.812 147.876L212.65 139.695L211.22 139.548L210.382 147.729Z" fill="#757575" stroke="#263238" stroke-linecap="round" stroke-linejoin="round"/>
<path d="M210.509 146.498L211.939 146.645L212.333 142.795L210.903 142.648L210.509 146.498Z" fill="#00ABFF" stroke="#263238" stroke-miterlimit="10"/>
<path d="M207.204 146.931L208.634 147.077L209.472 138.897L208.042 138.75L207.204 146.931Z" fill="#757575" stroke="#263238" stroke-linecap="round" stroke-linejoin="round"/>
<path d="M207.524 143.837L208.954 143.984L209.349 140.134L207.919 139.987L207.524 143.837Z" fill="#00ABFF" stroke="#263238" stroke-miterlimit="10"/>
<path d="M203.466 151.732L204.896 151.879L205.734 143.698L204.304 143.551L203.466 151.732Z" fill="#757575" stroke="#263238" stroke-linecap="round" stroke-linejoin="round"/>
<path d="M203.812 148.337L205.242 148.484L205.636 144.634L204.206 144.487L203.812 148.337Z" fill="#00ABFF" stroke="#263238" stroke-miterlimit="10"/>
<path d="M200.61 147.8L202.041 147.947L202.879 139.766L201.449 139.619L200.61 147.8Z" fill="#757575" stroke="#263238" stroke-linecap="round" stroke-linejoin="round"/>
<path d="M200.77 146.262L202.2 146.408L202.594 142.558L201.164 142.411L200.77 146.262Z" fill="#00ABFF" stroke="#263238" stroke-miterlimit="10"/>
<path d="M197.164 149.615L198.594 149.762L199.432 141.581L198.002 141.434L197.164 149.615Z" fill="#757575" stroke="#263238" stroke-linecap="round" stroke-linejoin="round"/>
<path d="M197.3 148.373L198.73 148.519L199.125 144.669L197.695 144.523L197.3 148.373Z" fill="#00ABFF" stroke="#263238" stroke-miterlimit="10"/>
<path d="M193.568 152.956L194.998 153.102L195.836 144.921L194.406 144.775L193.568 152.956Z" fill="#757575" stroke="#263238" stroke-linecap="round" stroke-linejoin="round"/>
<path d="M193.579 152.949L195.009 153.096L195.403 149.246L193.973 149.099L193.579 152.949Z" fill="#00ABFF" stroke="#263238" stroke-miterlimit="10"/>
<path d="M190.885 147.44L192.315 147.586L193.153 139.406L191.723 139.259L190.885 147.44Z" fill="#757575" stroke="#263238" stroke-linecap="round" stroke-linejoin="round"/>
<path d="M190.978 146.51L192.408 146.656L192.803 142.806L191.373 142.66L190.978 146.51Z" fill="#00ABFF" stroke="#263238" stroke-miterlimit="10"/>
<path d="M188.025 143.52L189.455 143.666L190.293 135.485L188.863 135.339L188.025 143.52Z" fill="#757575" stroke="#263238" stroke-linecap="round" stroke-linejoin="round"/>
<path d="M188.13 142.59L189.56 142.737L189.954 138.887L188.524 138.74L188.13 142.59Z" fill="#00ABFF" stroke="#263238" stroke-miterlimit="10"/>
<path d="M184.364 147.516L185.794 147.663L186.633 139.482L185.203 139.335L184.364 147.516Z" fill="#757575" stroke="#263238" stroke-linecap="round" stroke-linejoin="round"/>
<path d="M184.678 144.44L186.108 144.587L186.503 140.737L185.073 140.59L184.678 144.44Z" fill="#00ABFF" stroke="#263238" stroke-miterlimit="10"/>
<path d="M180.672 151.809L182.103 151.955L182.941 143.775L181.511 143.628L180.672 151.809Z" fill="#757575" stroke="#263238" stroke-linecap="round" stroke-linejoin="round"/>
<path d="M181.05 148.106L182.48 148.253L182.874 144.403L181.444 144.256L181.05 148.106Z" fill="#00ABFF" stroke="#263238" stroke-miterlimit="10"/>
<path d="M177.926 146.854L179.356 147.001L180.195 138.82L178.765 138.673L177.926 146.854Z" fill="#757575" stroke="#263238" stroke-linecap="round" stroke-linejoin="round"/>
<path d="M178.049 145.629L179.479 145.776L179.873 141.925L178.443 141.779L178.049 145.629Z" fill="#00ABFF" stroke="#263238" stroke-miterlimit="10"/>
<path d="M174.843 145.169L176.273 145.316L177.112 137.135L175.682 136.988L174.843 145.169Z" fill="#757575" stroke="#263238" stroke-linecap="round" stroke-linejoin="round"/>
<path d="M175.193 141.774L176.624 141.92L177.018 138.07L175.588 137.924L175.193 141.774Z" fill="#00ABFF" stroke="#263238" stroke-miterlimit="10"/>
<path d="M171.356 147.392L172.786 147.539L173.624 139.358L172.194 139.211L171.356 147.392Z" fill="#757575" stroke="#263238" stroke-linecap="round" stroke-linejoin="round"/>
<path d="M171.36 147.385L172.791 147.531L173.185 143.681L171.755 143.535L171.36 147.385Z" fill="#00ABFF" stroke="#263238" stroke-miterlimit="10"/>
<path d="M168.401 144.501L169.831 144.647L170.669 136.466L169.239 136.32L168.401 144.501Z" fill="#757575" stroke="#263238" stroke-linecap="round" stroke-linejoin="round"/>
<path d="M168.464 143.891L169.894 144.037L170.289 140.187L168.858 140.041L168.464 143.891Z" fill="#00ABFF" stroke="#263238" stroke-miterlimit="10"/>
<path d="M165.068 145.275L166.498 145.422L167.336 137.241L165.906 137.095L165.068 145.275Z" fill="#757575" stroke="#263238" stroke-linecap="round" stroke-linejoin="round"/>
<path d="M165.099 144.967L166.529 145.113L166.924 141.263L165.494 141.117L165.099 144.967Z" fill="#00ABFF" stroke="#263238" stroke-miterlimit="10"/>
<path d="M161.955 143.892L163.385 144.039L164.223 135.858L162.793 135.711L161.955 143.892Z" fill="#757575" stroke="#263238" stroke-linecap="round" stroke-linejoin="round"/>
<path d="M162.367 139.894L163.797 140.04L164.191 136.19L162.761 136.044L162.367 139.894Z" fill="#00ABFF" stroke="#263238" stroke-miterlimit="10"/>
<path d="M235.04 161.61L169.722 154.911C169.54 154.893 169.359 154.948 169.217 155.063C169.075 155.179 168.985 155.346 168.966 155.528C168.956 155.617 168.964 155.708 168.99 155.794C169.015 155.881 169.058 155.961 169.115 156.031C169.172 156.101 169.242 156.158 169.321 156.201C169.4 156.243 169.487 156.27 169.577 156.279L234.901 162.96C235.083 162.978 235.264 162.923 235.406 162.807C235.548 162.692 235.638 162.525 235.657 162.343C235.67 162.165 235.613 161.988 235.498 161.851C235.383 161.714 235.218 161.627 235.04 161.61Z" fill="#263238"/>
<path d="M234.545 166.528L158.583 158.74C158.401 158.722 158.219 158.777 158.077 158.893C157.936 159.008 157.845 159.175 157.826 159.357C157.817 159.447 157.825 159.538 157.851 159.625C157.877 159.712 157.92 159.792 157.977 159.862C158.035 159.932 158.105 159.99 158.185 160.032C158.265 160.074 158.353 160.1 158.443 160.108L234.4 167.895C234.581 167.912 234.761 167.856 234.902 167.741C235.042 167.625 235.132 167.459 235.151 167.278C235.16 167.189 235.152 167.099 235.127 167.013C235.102 166.927 235.06 166.847 235.004 166.777C234.948 166.708 234.878 166.65 234.799 166.607C234.721 166.564 234.634 166.537 234.545 166.528Z" fill="#263238"/>
<path d="M202.129 168.198L158.077 163.682C157.895 163.664 157.714 163.719 157.572 163.834C157.43 163.95 157.34 164.117 157.321 164.299C157.312 164.388 157.321 164.479 157.347 164.565C157.373 164.652 157.416 164.732 157.474 164.802C157.531 164.872 157.601 164.929 157.681 164.972C157.761 165.014 157.848 165.041 157.938 165.049L201.989 169.566C202.079 169.575 202.17 169.566 202.256 169.54C202.343 169.514 202.423 169.472 202.493 169.415C202.563 169.358 202.621 169.288 202.664 169.208C202.707 169.129 202.734 169.042 202.743 168.952C202.752 168.862 202.743 168.771 202.718 168.685C202.692 168.598 202.649 168.518 202.592 168.448C202.535 168.378 202.465 168.32 202.385 168.277C202.306 168.234 202.219 168.207 202.129 168.198Z" fill="#263238"/>
<path opacity="0.2" d="M242.246 124.251C239.994 124.071 239.214 127.662 239.214 127.662C239.214 127.662 235.652 123.006 236.217 112.017C236.217 112.017 234.471 107.152 229.815 110.091C225.159 113.03 220.322 123.384 221.475 134.675L212.43 104.591C209.299 105.255 202.938 109.463 204.614 129.78L194.72 119.304C194.72 119.304 192.043 118.443 190.53 120.812C189.017 123.18 189.738 140.146 190.99 146.489C192.241 152.833 189.051 165.579 189.051 165.579C189.051 165.579 185.641 151.145 179.472 147.49L155.976 99.0563L148.16 175.24L156.966 176.142L171.108 169.257C171.027 172.441 170.951 175.368 170.718 177.551L241.397 184.791L246.454 135.426C244.737 129.274 243.096 124.315 242.246 124.251Z" fill="black" fill-opacity="0.7"/>
<path d="M254.678 55.1793L246.454 135.426L241.397 184.791L170.718 177.551L156.966 176.142L148.16 175.24L155.965 99.0563L161.441 45.6287L254.678 55.1793Z" stroke="#263238" stroke-linecap="round" stroke-linejoin="round"/>
<path d="M253.513 261.766L212.191 268.797C212.191 268.797 204.998 230.588 200.709 224.565C196.419 218.541 197.217 216.067 195.121 212.011C193.864 209.561 187.555 204.992 182.614 200.481C182.184 200.092 181.765 199.702 181.363 199.317C181.188 199.16 181.025 198.992 180.862 198.834C180.205 198.183 179.594 197.548 179.052 196.925C178.855 196.704 178.661 196.483 178.47 196.262C177.553 195.24 176.87 194.031 176.468 192.718C176.451 192.659 176.439 192.598 176.433 192.537C176.417 192.466 176.405 192.394 176.398 192.322C176.288 191.42 176.171 190.39 176.055 189.272C176.055 189.051 176.009 188.818 175.979 188.585L175.945 188.306C175.846 187.375 175.735 186.385 175.607 185.367C175.479 184.348 175.339 183.196 175.176 182.084C175.124 181.7 175.072 181.316 175.008 180.92C174.943 180.49 174.874 180.059 174.804 179.623L174.6 178.499C174.6 178.435 174.571 178.377 174.565 178.325L174.321 177.033C174.305 176.986 174.295 176.937 174.292 176.887C174.21 176.509 174.134 176.136 174.047 175.758C173.867 174.914 173.663 174.088 173.465 173.285C173.065 171.773 172.549 170.294 171.923 168.861C168.943 162.209 172.819 164.613 170.485 147.496C170.485 147.496 172.202 143.527 177.097 146.699C177.475 146.946 177.84 147.212 178.191 147.496C179.183 148.298 180.059 149.235 180.793 150.278C181.788 151.699 182.546 153.271 183.039 154.934C183.839 157.632 184.065 160.467 183.703 163.257C183.703 163.257 187.381 175.863 189.319 178.732C191.257 181.601 199.271 165.119 198.753 163.199C198.571 162.337 198.433 161.467 198.34 160.591C198.305 160.306 198.27 160.009 198.229 159.683C198.189 159.357 198.154 159.031 198.119 158.688C198.119 158.525 198.078 158.35 198.055 158.182C198.055 158.112 198.055 158.042 198.055 157.978C197.985 157.32 197.903 156.622 197.828 155.9C197.828 155.697 197.787 155.505 197.764 155.318C197.729 154.975 197.694 154.62 197.659 154.271C197.655 154.213 197.655 154.154 197.659 154.096C197.659 153.898 197.612 153.694 197.595 153.514C197.548 153.107 197.508 152.693 197.467 152.28C197.426 151.867 197.397 151.57 197.362 151.215C197.292 150.546 197.228 149.877 197.164 149.231C197.118 148.747 197.071 148.27 197.03 147.805C197.03 147.7 197.03 147.595 197.001 147.496C196.757 144.935 196.565 142.84 196.495 141.932C196.495 141.932 190.675 133.307 190.093 129.245C189.511 125.182 189.546 120.905 191.984 119.164C197.758 115.056 196.058 121.679 198.654 124.402C201.25 127.126 205.202 131.637 207.448 133.039C209.52 134.355 211.371 139.441 211.633 140.21C211.336 139.092 208.374 128.104 208.31 125.892C208.234 123.564 206.453 111.249 209.474 106.832C212.494 102.414 216.522 105.842 216.894 106.715C217.267 107.588 217.377 119.519 218.442 122.837C219.507 126.154 223.965 139.988 223.965 139.988C223.965 139.988 224.152 126.533 225.129 120.509C226.107 114.485 228.749 109.777 231.31 109.509C233.871 109.241 236.24 112.064 236.24 112.064C236.24 112.064 235.227 121.667 235.518 123.884C235.809 126.102 235.099 134.11 236.315 138.434C236.315 138.434 236.176 126.963 237.957 125.497C239.738 124.03 241.268 123.326 242.269 124.333C243.27 125.339 243.486 132.114 244.504 136.2C245.523 140.285 245.395 145.837 246.064 152.21C246.733 158.583 249.37 167.43 248.846 172.487C248.322 177.545 246.71 190.087 245.412 197.449C244.114 204.812 240.803 214.909 240.803 214.909C240.803 214.909 242.31 220.293 242.019 225.094C241.728 229.896 253.513 261.766 253.513 261.766Z" fill="white"/>
<path opacity="0.4" d="M218.389 122.802C219.181 125.258 221.829 133.476 223.144 137.579C223.144 137.579 217.371 141.822 217.51 145.768C217.65 149.714 216.457 157.681 213.861 157.448C211.266 157.216 211.533 140.658 210.654 137.87C211.184 139.069 211.522 140.041 211.591 140.233C211.399 139.517 208.315 128.116 208.251 125.857C208.251 125.328 208.129 124.269 208.006 122.901C208.006 122.901 213.751 117.401 217.964 120.765C218.06 121.453 218.202 122.133 218.389 122.802Z" fill="#00ABFF"/>
<path opacity="0.4" d="M235.554 127.528C232.865 130.077 228.808 134.582 228.296 138.929C228.296 138.929 229.792 151.07 229.152 156.389L223.914 139.971C223.914 139.971 224.1 126.515 225.078 120.491C225.078 120.328 225.136 120.16 225.165 119.997C228.434 118.333 232.043 117.443 235.711 117.395C235.486 119.535 235.41 121.688 235.484 123.838C235.572 125.066 235.595 126.297 235.554 127.528Z" fill="#00ABFF"/>
<path opacity="0.4" d="M237.934 125.433C237.87 125.473 237.713 125.601 237.486 125.793C237.621 125.532 237.772 125.279 237.94 125.037L237.934 125.433Z" fill="#00ABFF"/>
<path opacity="0.4" d="M239.301 158.997C239.301 158.997 235.844 146.03 235.809 135.588C235.78 131.724 236.228 128.203 237.48 125.823C237.615 125.561 237.766 125.308 237.934 125.066V125.438C238.56 124.898 239.252 124.441 239.994 124.077C239.022 125.59 237.905 128.552 239.197 133.389C241.228 140.902 239.459 150.115 239.301 158.997Z" fill="#00ABFF"/>
<path opacity="0.4" d="M191.618 183.708C191.618 183.708 192.544 196.064 182.615 200.487C182.184 200.097 181.765 199.707 181.364 199.323C181.189 199.166 181.026 198.997 180.863 198.84C180.205 198.188 179.594 197.554 179.053 196.931C178.849 196.704 178.669 196.483 178.471 196.268C177.554 195.246 176.87 194.037 176.469 192.723C176.451 192.665 176.439 192.604 176.434 192.543C176.417 192.472 176.406 192.4 176.399 192.328C176.289 191.425 176.172 190.395 176.056 189.278C176.056 189.057 176.009 188.824 175.98 188.591L175.945 188.312C175.846 187.381 175.736 186.391 175.608 185.373C175.48 184.354 175.34 183.202 175.177 182.09C175.119 181.706 175.066 181.316 175.008 180.926C174.944 180.496 174.874 180.065 174.804 179.628L174.601 178.499C174.601 178.435 174.572 178.377 174.566 178.325L174.321 177.033C174.305 176.986 174.296 176.937 174.292 176.887C174.211 176.509 174.135 176.136 174.048 175.758C173.862 174.92 173.658 174.094 173.466 173.285C177.394 169.507 186.462 171.876 182.074 163.117C182.074 163.117 184.285 155.621 178.192 147.496C182.359 150.854 184.495 156.762 183.703 163.21C183.703 163.21 187.381 175.816 189.32 178.686C191.258 181.555 199.272 165.073 198.754 163.152C198.572 162.29 198.434 161.42 198.34 160.545C198.306 160.259 198.271 159.963 198.23 159.637C198.189 159.311 198.154 158.985 198.119 158.641C198.119 158.478 198.079 158.304 198.055 158.135C198.055 158.065 198.055 157.995 198.055 157.931C197.985 157.268 197.91 156.575 197.828 155.854C197.828 155.65 197.788 155.458 197.764 155.272C197.729 154.928 197.694 154.573 197.66 154.224C197.656 154.166 197.656 154.108 197.66 154.049C197.66 153.852 197.613 153.648 197.596 153.467C197.549 153.06 197.508 152.647 197.467 152.234C197.427 151.82 197.398 151.524 197.363 151.169C197.293 150.499 197.229 149.83 197.165 149.184C197.118 148.701 197.078 148.218 197.031 147.758C197.031 147.653 197.031 147.549 197.002 147.45C197.159 148.212 200.11 162.261 201.798 165.532C203.491 168.885 196.135 186.618 191.618 183.708Z" fill="#00ABFF"/>
<path opacity="0.4" d="M245.389 197.368C244.091 204.736 240.779 214.828 240.779 214.828C240.779 214.828 242.287 220.211 241.996 225.013C241.914 226.305 242.717 229.57 243.916 233.644C243.567 232.748 239.842 223.133 239.918 219.781C239.994 216.26 238.993 215.288 237.008 210.963C235.023 206.639 232.055 207.116 232.055 207.116C232.055 207.116 230.891 217.901 228.191 210.812C225.49 203.723 224.961 195.476 231.787 166.842C231.787 166.842 232.818 170.433 231.956 181.101C231.095 191.769 233.644 194.999 233.644 194.999C237.475 188.321 240.52 181.222 242.717 173.843C242.717 173.843 241.833 186.292 241.047 191.961C240.261 197.63 243.846 185.39 246.349 177.83C248.677 170.736 248.788 168.035 247.891 162.983C248.555 166.539 249.055 169.967 248.799 172.417C248.299 177.452 246.687 190.006 245.389 197.368Z" fill="#00ABFF"/>
<path opacity="0.4" d="M198.694 221.369C200.708 224.57 205.638 228.802 208.588 240.506C211.539 252.21 209.677 265.019 209.677 265.019L198.694 221.369Z" fill="#00ABFF"/>
<path opacity="0.2" d="M183.045 154.911C183.045 154.911 172.738 160.149 171.923 168.879C168.943 162.227 172.819 164.63 170.485 147.514C170.485 147.514 172.202 143.544 177.097 146.716C177.475 146.963 177.84 147.229 178.191 147.514C179.183 148.316 180.059 149.252 180.793 150.296L183.045 154.911Z" fill="black" fill-opacity="0.7"/>
<path d="M212.193 268.797C212.193 268.797 204.999 230.588 200.71 224.565C196.421 218.541 197.218 216.067 195.123 212.011C193.028 207.954 177.122 198.084 176.417 192.316C175.713 186.548 174.904 175.514 171.924 168.856C168.944 162.197 172.821 164.607 170.481 147.49C170.481 147.49 172.227 143.521 177.098 146.693C181.97 149.865 184.565 156.209 183.71 163.233C183.71 163.233 187.388 175.828 189.332 178.703C191.276 181.578 199.272 165.09 198.755 163.164C198.237 161.237 196.7 144.854 196.461 141.862C196.461 141.862 190.641 133.231 190.059 129.169C189.477 125.107 189.512 120.829 191.951 119.095C197.724 114.986 196.025 121.609 198.621 124.333C201.216 127.056 205.168 131.561 207.409 132.969C209.65 134.378 211.605 140.262 211.605 140.262C211.605 140.262 208.317 128.191 208.253 125.857C208.189 123.524 206.396 111.214 209.417 106.803C212.437 102.391 216.471 105.807 216.843 106.68C217.216 107.553 217.326 119.484 218.397 122.802L223.909 139.953C223.909 139.953 224.101 126.498 225.107 120.474C226.114 114.45 228.728 109.742 231.288 109.474C233.849 109.206 236.218 112.029 236.218 112.029C236.218 112.029 235.205 121.632 235.49 123.849C235.776 126.067 235.077 134.069 236.294 138.399C236.294 138.399 236.154 126.928 237.935 125.462C239.716 123.995 241.246 123.291 242.247 124.298C243.248 125.304 243.464 132.079 244.482 136.165C245.501 140.25 245.373 145.803 246.042 152.175C246.711 158.548 249.348 167.395 248.824 172.446C248.3 177.498 246.688 190.052 245.384 197.42C244.081 204.788 240.787 214.88 240.787 214.88C240.787 214.88 242.288 220.264 241.997 225.065C241.706 229.867 253.509 261.83 253.509 261.83" stroke="#263238" stroke-linecap="round" stroke-linejoin="round"/>
<path d="M223.907 139.942C225.111 142.77 228.085 154.713 229.145 156.366C229.684 157.282 230.471 158.029 231.415 158.519" stroke="#263238" stroke-linecap="round" stroke-linejoin="round"/>
<path d="M236.294 138.37C236.294 138.37 236.038 140.821 237.359 148.619C238.68 156.418 239.326 159.742 240.065 161.482" stroke="#263238" stroke-linecap="round" stroke-linejoin="round"/>
<path d="M211.603 140.262C213.215 145.017 214.128 152.595 215.048 154.876C215.968 157.157 216.794 157.629 216.794 157.629" stroke="#263238" stroke-linecap="round" stroke-linejoin="round"/>
<path d="M214.217 151.657C215.188 152.395 215.957 153.366 216.452 154.48" stroke="#263238" stroke-linecap="round" stroke-linejoin="round"/>
<path d="M189.332 178.709C189.332 178.709 190.211 185.012 194.163 184.529" stroke="#263238" stroke-linecap="round" stroke-linejoin="round"/>
<path d="M198.755 163.169C198.755 163.169 199.779 170.666 198.103 173.843" stroke="#263238" stroke-linecap="round" stroke-linejoin="round"/>
<path d="M230.321 163.239C230.321 163.239 232.975 164.863 231.2 169.641C229.425 174.42 226.334 193.637 226.334 193.637" stroke="#263238" stroke-linecap="round" stroke-linejoin="round"/>
<path d="M241.874 168.268C242.985 172.575 243.084 172.685 241.292 177.976C239.499 183.266 236.572 196.227 236.572 196.227" stroke="#263238" stroke-linecap="round" stroke-linejoin="round"/>
<path d="M240.786 214.816C240.786 214.816 239.04 211.324 240.483 208.414" stroke="#263238" stroke-linecap="round" stroke-linejoin="round"/>
<path d="M200.708 224.57C200.708 224.57 205.097 230.734 207.006 237.631" stroke="#263238" stroke-linecap="round" stroke-linejoin="round"/>
<path d="M232.998 116.534L234.185 115.364L234.721 115.207L234.686 115.789L233.598 117.18L232.998 116.534Z" fill="#757575" stroke="#263238" stroke-linecap="round" stroke-linejoin="round"/>
<path d="M233.965 117.186L232.033 121.562L180.118 190.785L174.339 187.095L182.167 177.248L228.797 118.757L232.911 116.144C233.163 116.209 233.394 116.34 233.579 116.523C233.764 116.706 233.897 116.934 233.965 117.186Z" fill="#00ABFF"/>
<path opacity="0.3" d="M233.965 117.186L232.033 121.562L180.118 190.785L174.339 187.095L182.167 177.248C185.775 176.875 186.38 178.994 186.38 178.994L231.107 120.619C230.665 119.048 228.779 118.745 228.779 118.745L232.894 116.132C233.151 116.195 233.385 116.327 233.574 116.512C233.762 116.697 233.897 116.93 233.965 117.186Z" fill="black" fill-opacity="0.7"/>
<path d="M233.965 117.186L232.033 121.562L180.118 190.785L174.339 187.095L182.167 177.248L228.797 118.757L232.911 116.144C233.163 116.209 233.394 116.34 233.579 116.523C233.764 116.706 233.897 116.934 233.965 117.186Z" stroke="#263238" stroke-linecap="round" stroke-linejoin="round"/>
<path d="M197.048 170.287C197.048 170.287 191.228 181.788 185.676 189.924L181.695 190.954C181.695 190.954 172.558 200.033 166.982 204.567C165.97 203.938 165.053 203.168 164.258 202.28C164.258 202.28 172.173 187.078 180.933 177.458C181.959 177.822 182.926 178.336 183.802 178.982C184.938 179.788 185.95 180.757 186.805 181.857L196.565 169.577L197.048 170.287Z" fill="#00ABFF"/>
<path opacity="0.3" d="M197.048 170.287C197.048 170.287 191.228 181.788 185.676 189.924L181.695 190.954C181.695 190.954 172.557 200.033 166.982 204.567L167.133 202.099C173.18 192.863 180.863 182.789 183.802 178.982C184.938 179.788 185.95 180.757 186.805 181.857L181.381 189.098L184.488 188.516L196.565 169.554L197.048 170.287Z" fill="black" fill-opacity="0.7"/>
<path d="M197.048 170.287C197.048 170.287 191.228 181.788 185.676 189.924L181.695 190.954C181.695 190.954 172.558 200.033 166.982 204.567C165.97 203.938 165.053 203.168 164.258 202.28C164.258 202.28 172.173 187.078 180.933 177.458C181.959 177.822 182.926 178.336 183.802 178.982C184.938 179.788 185.95 180.757 186.805 181.857L196.565 169.577L197.048 170.287Z" stroke="#263238" stroke-linecap="round" stroke-linejoin="round"/>
<path d="M216.784 157.617L200.57 173.331L197.98 175.845C199.755 171.282 198.893 164.205 198.783 163.373C198.783 163.327 198.783 163.297 198.783 163.297C198.783 163.297 198.783 163.204 198.783 163.175C198.601 162.314 198.463 161.443 198.37 160.568C198.335 160.283 198.3 159.986 198.259 159.66C198.218 159.334 198.183 159.008 198.148 158.665C198.148 158.502 198.108 158.327 198.084 158.158C198.084 158.089 198.084 158.019 198.084 157.955C198.015 157.297 197.933 156.599 197.857 155.877C197.857 155.673 197.817 155.481 197.793 155.295C197.759 154.952 197.724 154.597 197.689 154.247C197.685 154.189 197.685 154.131 197.689 154.073C197.689 153.875 197.642 153.671 197.625 153.491C197.578 153.083 197.537 152.67 197.497 152.257C197.456 151.844 197.427 151.547 197.392 151.192C197.322 150.523 197.258 149.853 197.194 149.207C197.147 148.724 197.101 148.247 197.06 147.781C197.06 147.677 197.06 147.572 197.031 147.473C196.787 144.912 196.595 142.817 196.525 141.909C196.525 141.909 190.705 133.284 190.123 129.221C189.541 125.159 189.576 120.881 192.014 119.141C197.788 115.032 196.088 121.655 198.684 124.379C201.28 127.103 205.231 131.613 207.478 133.016C209.724 134.419 211.604 140.262 211.604 140.262C213.216 145.011 214.13 152.589 215.05 154.87C215.969 157.152 216.784 157.617 216.784 157.617Z" fill="white"/>
<path d="M214.217 151.657C215.188 152.395 215.957 153.366 216.452 154.48" stroke="#263238" stroke-linecap="round" stroke-linejoin="round"/>
<path opacity="0.4" d="M198.597 124.356C201.169 127.103 205.121 131.561 207.367 132.981C207.053 132.824 202.915 130.81 200.605 133.051C198.201 135.379 196.461 141.868 196.461 141.868C196.461 141.868 190.641 133.243 190.059 129.181C189.477 125.118 189.512 120.841 191.95 119.1C197.7 114.991 196.013 121.638 198.597 124.356Z" fill="#00ABFF"/>
<path opacity="0.4" d="M200.568 173.343L197.978 175.857C199.754 171.294 198.892 164.217 198.782 163.385C198.789 163.319 198.789 163.253 198.782 163.187C198.6 162.325 198.462 161.455 198.368 160.58C198.333 160.294 198.299 159.998 198.258 159.672C198.217 159.346 198.182 159.02 198.147 158.676C198.147 158.513 198.106 158.339 198.083 158.17C198.083 158.1 198.083 158.03 198.083 157.966C198.013 157.303 197.938 156.61 197.856 155.889C197.856 155.685 197.815 155.493 197.792 155.307C197.757 154.963 197.722 154.608 197.687 154.259C197.684 154.201 197.684 154.143 197.687 154.084C197.687 153.887 197.641 153.683 197.623 153.502C197.577 153.095 197.536 152.682 197.495 152.269C197.455 151.855 197.426 151.559 197.391 151.204C197.321 150.534 197.257 149.865 197.193 149.219C197.146 148.736 197.105 148.253 197.059 147.793C197.059 147.688 197.059 147.583 197.03 147.485C197.187 148.247 200.138 162.296 201.825 165.567C202.396 166.755 201.802 169.944 200.568 173.343Z" fill="#00ABFF"/>
<path d="M216.788 157.617C216.788 157.617 215.968 157.146 215.042 154.864C214.117 152.583 213.209 145.005 211.597 140.25C211.597 140.25 209.624 134.43 207.377 132.999C205.131 131.567 201.173 127.109 198.589 124.362C196.005 121.615 197.693 114.991 191.919 119.124C189.481 120.87 189.428 125.142 190.028 129.198C190.627 133.255 196.43 141.892 196.43 141.892C196.669 144.883 198.205 161.272 198.723 163.193" stroke="#263238" stroke-linecap="round" stroke-linejoin="round"/>
<path d="M198.755 163.169C198.755 163.169 199.779 170.666 198.103 173.843" stroke="#263238" stroke-linecap="round" stroke-linejoin="round"/>
<path opacity="0.2" d="M99.2137 172.336C99.2137 172.336 102.898 189.447 94.9185 201.89C86.9393 214.333 80.7934 217.656 78.0405 221.37C75.2876 225.083 64.4683 245.843 64.4683 245.843L51.8389 208.438L64.4683 162.163L99.2137 172.336Z" fill="black" fill-opacity="0.7"/>
<path d="M173.65 159.259L95.3364 192.217L87.264 195.616L72.0505 159.468L36.7231 75.5262L123.109 39.1686L173.65 159.259Z" fill="white"/>
<path d="M100.788 54.7953L63.4992 70.5093C63.1627 70.6505 62.8961 70.9196 62.758 71.2574C62.62 71.5952 62.6218 71.9741 62.763 72.3106C62.9042 72.6471 63.1733 72.9137 63.5112 73.0517C63.849 73.1898 64.2278 73.188 64.5643 73.0468L101.847 57.327C102.017 57.2592 102.171 57.1584 102.301 57.0304C102.431 56.9025 102.534 56.7499 102.604 56.5816C102.675 56.4133 102.711 56.2326 102.711 56.0502C102.71 55.8678 102.674 55.6872 102.603 55.5191C102.532 55.3509 102.429 55.1985 102.299 55.0708C102.168 54.9431 102.014 54.8427 101.844 54.7753C101.675 54.7079 101.494 54.675 101.311 54.6784C101.129 54.6818 100.949 54.7216 100.782 54.7953H100.788Z" fill="#263238"/>
<path d="M93.6591 63.9269L75.0351 71.7723C74.8668 71.8433 74.7337 71.9782 74.6649 72.1474C74.5962 72.3166 74.5974 72.5061 74.6684 72.6744C74.7394 72.8426 74.8744 72.9758 75.0435 73.0445C75.2127 73.1133 75.4023 73.112 75.5705 73.041L94.1945 65.1898C94.282 65.1579 94.362 65.1085 94.4298 65.0446C94.4976 64.9808 94.5517 64.9038 94.5888 64.8184C94.6259 64.733 94.6452 64.6409 94.6456 64.5478C94.646 64.4547 94.6275 64.3625 94.5911 64.2767C94.5548 64.191 94.5014 64.1136 94.4342 64.0491C94.367 63.9847 94.2874 63.9346 94.2002 63.9018C94.113 63.8691 94.0201 63.8545 93.9271 63.8588C93.834 63.8631 93.7429 63.8863 93.6591 63.9269Z" fill="#263238"/>
<path d="M124.336 111.744C124.336 111.744 125.121 117.919 122.823 118.885C120.722 119.77 117.957 116.458 115.542 117.471C113.126 118.484 115.03 127.248 112.702 128.226C110.374 129.204 107.568 125.607 105.555 126.48C103.541 127.353 104.763 131.835 102.691 132.708C100.98 133.424 98.5357 129.844 96.5802 129.059C96.4001 128.971 96.2042 128.92 96.0041 128.91C95.8041 128.9 95.6041 128.931 95.4162 129C93.3675 129.862 94.386 139.273 92.6168 140.012C92.1219 140.225 91.5826 140.315 91.0454 140.274C90.3871 140.149 89.719 140.085 89.0491 140.082C88.7925 140.108 88.5414 140.172 88.3041 140.274C86.7968 140.908 87.0005 145.861 85.6211 146.443C84.2418 147.025 82.8799 146.303 81.4074 146.92C79.935 147.537 79.9583 150.115 77.7583 151.041L78.6895 153.246L132.298 130.688" fill="#BFBFBF"/>
<path d="M124.336 111.744C124.336 111.744 125.121 117.919 122.823 118.885C120.722 119.77 117.957 116.458 115.542 117.471C113.126 118.484 115.03 127.249 112.702 128.226C110.374 129.204 107.568 125.607 105.555 126.48C103.541 127.353 104.763 131.835 102.691 132.708C100.98 133.424 98.5357 129.844 96.5802 129.059C96.4001 128.971 96.2042 128.92 96.0041 128.91C95.8041 128.9 95.6041 128.931 95.4162 129C93.3675 129.862 94.386 139.273 92.6168 140.012C92.1219 140.225 91.5826 140.315 91.0454 140.274C90.3871 140.149 89.719 140.085 89.0491 140.082C88.7925 140.108 88.5414 140.172 88.3041 140.274C86.7968 140.908 87.0005 145.861 85.6211 146.443C84.2418 147.025 82.8799 146.303 81.4074 146.92C79.935 147.537 79.9583 150.115 77.7583 151.041L78.6895 153.246L132.298 130.688" stroke="#263238" stroke-miterlimit="10"/>
<path d="M67.835 127.411L78.6893 153.2L134.817 129.582" stroke="#263238" stroke-linecap="round" stroke-linejoin="round"/>
<path d="M128.648 121.976C128.648 121.976 128.381 121.65 127.985 121.26C127.292 120.59 126.192 119.741 125.354 120.096C124.516 120.451 124.464 121.795 124.481 123.25C124.481 124.996 124.656 126.917 123.765 127.289C123.009 127.609 122.334 127.132 121.635 126.608C120.838 126.026 120.023 125.363 119.04 125.776C117.387 126.474 117.876 128.628 117.294 130.473C117.135 131.004 116.856 131.49 116.477 131.894C116.098 132.298 115.631 132.609 115.111 132.801C113.685 133.383 112.236 132.801 110.868 131.881C108.54 130.31 106.492 127.761 105.153 128.325C103.017 129.227 105.368 135.001 103.075 135.967C101.795 136.508 99.141 132.475 96.5627 128.983C94.5257 126.23 92.5353 123.832 91.3247 124.327C88.5602 125.491 93.1173 139.302 91.1094 140.146L91.0454 140.175C90.7222 140.308 90.3713 140.36 90.0234 140.327C89.6754 140.293 89.3409 140.175 89.0491 139.983C88.3274 139.575 87.7338 138.987 86.9364 139.325C85.4523 139.954 86.3195 145.366 84.6899 146.053C83.0603 146.74 82.0767 145.744 80.2376 146.518C78.6837 147.176 77.7583 150.942 77.7583 150.942L78.6895 153.147L132.298 130.589" fill="#757575"/>
<path d="M128.648 121.976C128.648 121.976 128.381 121.65 127.985 121.26C127.292 120.59 126.192 119.741 125.354 120.096C124.516 120.451 124.464 121.795 124.481 123.25C124.481 124.996 124.656 126.917 123.765 127.289C123.009 127.609 122.334 127.132 121.635 126.608C120.838 126.026 120.023 125.363 119.04 125.776C117.387 126.474 117.876 128.628 117.294 130.473C117.135 131.004 116.856 131.49 116.477 131.894C116.098 132.298 115.631 132.609 115.111 132.801C113.685 133.383 112.236 132.801 110.868 131.881C108.54 130.31 106.492 127.761 105.153 128.325C103.017 129.227 105.368 135.001 103.075 135.967C101.795 136.508 99.141 132.475 96.5627 128.983C94.5257 126.23 92.5353 123.832 91.3247 124.327C88.5602 125.491 93.1173 139.302 91.1094 140.146L91.0454 140.175C90.7222 140.308 90.3713 140.36 90.0234 140.327C89.6754 140.293 89.3409 140.175 89.0491 139.983C88.3274 139.575 87.7338 138.987 86.9364 139.325C85.4523 139.954 86.3195 145.366 84.6899 146.053C83.0603 146.74 82.0767 145.744 80.2376 146.518C78.6837 147.176 77.7583 150.942 77.7583 150.942L78.6895 153.147L132.298 130.589" stroke="#263238" stroke-linecap="round" stroke-linejoin="round"/>
<path d="M117.298 140.384L98.6743 148.23C98.506 148.301 98.3729 148.436 98.3041 148.605C98.2353 148.774 98.2366 148.963 98.3076 149.132C98.3786 149.3 98.5135 149.433 98.6827 149.502C98.8519 149.571 99.0414 149.569 99.2097 149.498L117.834 141.653C118.002 141.582 118.135 141.447 118.204 141.278C118.273 141.109 118.271 140.919 118.2 140.751C118.129 140.583 117.994 140.45 117.825 140.381C117.656 140.312 117.467 140.313 117.298 140.384Z" fill="#263238"/>
<path d="M132.064 109.498L130.267 110.254C130.081 110.333 129.993 110.548 130.071 110.734L130.828 112.531C130.906 112.718 131.121 112.806 131.308 112.727L133.105 111.971C133.291 111.893 133.379 111.678 133.301 111.491L132.544 109.694C132.466 109.507 132.251 109.42 132.064 109.498Z" fill="#BFBFBF" stroke="#263238" stroke-miterlimit="10"/>
<path d="M141.813 106.448L134.364 109.585C134.287 109.614 134.202 109.613 134.126 109.582C134.05 109.55 133.99 109.491 133.956 109.416C133.925 109.341 133.925 109.257 133.955 109.182C133.986 109.107 134.045 109.046 134.119 109.014L141.575 105.877C141.649 105.846 141.734 105.846 141.809 105.876C141.884 105.907 141.944 105.966 141.976 106.04C141.992 106.078 142.001 106.118 142.002 106.159C142.002 106.2 141.995 106.24 141.98 106.278C141.965 106.316 141.942 106.35 141.913 106.38C141.885 106.409 141.851 106.432 141.813 106.448Z" fill="#263238"/>
<path d="M140.063 108.642L134.883 110.819C134.808 110.85 134.724 110.85 134.649 110.82C134.573 110.789 134.513 110.73 134.481 110.656C134.465 110.618 134.456 110.578 134.456 110.537C134.455 110.496 134.462 110.456 134.478 110.418C134.493 110.38 134.515 110.345 134.544 110.316C134.572 110.287 134.607 110.264 134.644 110.248L139.824 108.072C139.899 108.04 139.983 108.04 140.058 108.071C140.133 108.101 140.193 108.16 140.226 108.234C140.257 108.31 140.257 108.395 140.227 108.471C140.196 108.547 140.138 108.609 140.063 108.642Z" fill="#263238"/>
<path d="M134.399 115.039L132.602 115.795C132.415 115.873 132.328 116.088 132.406 116.275L133.163 118.072C133.241 118.259 133.456 118.346 133.643 118.268L135.44 117.512C135.626 117.433 135.714 117.218 135.636 117.031L134.879 115.234C134.801 115.048 134.586 114.96 134.399 115.039Z" fill="#757575" stroke="#263238" stroke-linecap="round" stroke-linejoin="round"/>
<path d="M144.14 111.988L136.69 115.12C136.652 115.135 136.611 115.143 136.57 115.143C136.528 115.143 136.488 115.135 136.449 115.119C136.411 115.103 136.377 115.08 136.348 115.05C136.319 115.021 136.296 114.986 136.28 114.948C136.264 114.91 136.256 114.869 136.256 114.827C136.256 114.786 136.265 114.745 136.281 114.707C136.297 114.669 136.32 114.635 136.349 114.605C136.379 114.576 136.413 114.553 136.452 114.538L143.901 111.401C143.939 111.385 143.98 111.377 144.022 111.377C144.063 111.377 144.104 111.386 144.142 111.402C144.18 111.417 144.215 111.441 144.244 111.47C144.273 111.499 144.296 111.534 144.311 111.572C144.327 111.611 144.335 111.651 144.335 111.693C144.335 111.734 144.327 111.775 144.311 111.813C144.295 111.851 144.271 111.886 144.242 111.915C144.213 111.944 144.178 111.967 144.14 111.983V111.988Z" fill="#263238"/>
<path d="M142.391 114.177L137.217 116.359C137.14 116.392 137.053 116.392 136.976 116.36C136.898 116.329 136.836 116.268 136.804 116.19C136.772 116.113 136.771 116.026 136.803 115.949C136.834 115.871 136.896 115.81 136.973 115.777L142.152 113.601C142.191 113.585 142.232 113.577 142.273 113.577C142.314 113.577 142.355 113.586 142.393 113.601C142.431 113.617 142.466 113.641 142.495 113.67C142.524 113.699 142.547 113.734 142.563 113.772C142.578 113.81 142.586 113.851 142.586 113.893C142.586 113.934 142.578 113.975 142.562 114.013C142.546 114.051 142.523 114.086 142.493 114.115C142.464 114.144 142.429 114.167 142.391 114.183V114.177Z" fill="#263238"/>
<path d="M153.942 134.826L93.4135 160.294C93.2453 160.365 93.1121 160.5 93.0433 160.669C92.9746 160.839 92.9759 161.028 93.0469 161.196C93.1179 161.365 93.2528 161.498 93.422 161.567C93.5911 161.635 93.7807 161.634 93.949 161.563L154.477 136.089C154.564 136.057 154.644 136.008 154.712 135.944C154.78 135.88 154.834 135.803 154.871 135.717C154.908 135.632 154.928 135.54 154.928 135.447C154.928 135.354 154.91 135.262 154.874 135.176C154.837 135.09 154.784 135.013 154.717 134.948C154.649 134.884 154.57 134.834 154.483 134.801C154.395 134.768 154.303 134.754 154.209 134.758C154.116 134.762 154.025 134.785 153.942 134.826Z" fill="#263238"/>
<path d="M155.864 139.383L85.4823 169.001C85.3949 169.033 85.3148 169.083 85.247 169.146C85.1793 169.21 85.1252 169.287 85.0881 169.373C85.051 169.458 85.0317 169.55 85.0313 169.643C85.0308 169.736 85.0494 169.829 85.0857 169.914C85.1221 170 85.1755 170.078 85.2427 170.142C85.3099 170.206 85.3895 170.257 85.4767 170.289C85.5639 170.322 85.6568 170.337 85.7498 170.332C85.8428 170.328 85.934 170.305 86.0178 170.264L156.393 140.646C156.483 140.616 156.566 140.568 156.636 140.505C156.706 140.442 156.763 140.365 156.802 140.279C156.841 140.192 156.862 140.099 156.864 140.005C156.865 139.91 156.847 139.816 156.81 139.729C156.774 139.642 156.719 139.563 156.651 139.497C156.582 139.432 156.501 139.382 156.412 139.349C156.323 139.317 156.229 139.303 156.134 139.309C156.04 139.315 155.948 139.34 155.864 139.383Z" fill="#263238"/>
<path d="M157.776 143.94L87.4008 173.558C87.3133 173.59 87.2333 173.64 87.1655 173.703C87.0977 173.767 87.0437 173.844 87.0066 173.93C86.9695 174.015 86.9501 174.107 86.9497 174.2C86.9493 174.293 86.9678 174.386 87.0042 174.471C87.0405 174.557 87.0939 174.635 87.1611 174.699C87.2283 174.763 87.308 174.814 87.3951 174.846C87.4823 174.879 87.5752 174.894 87.6683 174.889C87.7613 174.885 87.8524 174.862 87.9362 174.821L158.3 145.203C158.387 145.171 158.468 145.122 158.535 145.058C158.603 144.994 158.657 144.917 158.694 144.832C158.731 144.746 158.751 144.654 158.751 144.561C158.751 144.468 158.733 144.376 158.697 144.29C158.66 144.204 158.607 144.127 158.54 144.062C158.472 143.998 158.393 143.948 158.306 143.915C158.218 143.882 158.126 143.868 158.033 143.872C157.94 143.876 157.848 143.9 157.765 143.94H157.776Z" fill="#263238"/>
<path d="M159.698 148.497L89.3229 178.092C89.2331 178.122 89.1505 178.17 89.0801 178.233C89.0098 178.296 88.9532 178.373 88.9141 178.46C88.8749 178.546 88.854 178.639 88.8526 178.734C88.8512 178.828 88.8694 178.922 88.906 179.009C88.9426 179.097 88.9968 179.175 89.0652 179.241C89.1337 179.306 89.2149 179.356 89.3038 179.389C89.3927 179.421 89.4873 179.435 89.5817 179.429C89.6762 179.423 89.7684 179.398 89.8526 179.355L160.228 149.737C160.318 149.707 160.4 149.659 160.471 149.596C160.541 149.533 160.598 149.455 160.637 149.369C160.676 149.283 160.697 149.19 160.698 149.095C160.7 149.001 160.682 148.907 160.645 148.82C160.608 148.732 160.554 148.654 160.486 148.588C160.417 148.523 160.336 148.472 160.247 148.44C160.158 148.408 160.064 148.394 159.969 148.4C159.875 148.406 159.783 148.431 159.698 148.474V148.497Z" fill="#263238"/>
<path d="M132.054 165.492L91.2387 182.672C91.1512 182.704 91.0712 182.754 91.0034 182.818C90.9356 182.881 90.8815 182.958 90.8444 183.044C90.8074 183.129 90.788 183.221 90.7876 183.314C90.7872 183.407 90.8057 183.5 90.8421 183.585C90.8784 183.671 90.9318 183.749 90.999 183.813C91.0662 183.878 91.1459 183.928 91.233 183.96C91.3202 183.993 91.4131 184.008 91.5062 184.003C91.5992 183.999 91.6903 183.976 91.7741 183.935L132.59 166.76C132.673 166.725 132.749 166.674 132.812 166.61C132.876 166.545 132.926 166.469 132.96 166.385C132.994 166.302 133.011 166.212 133.011 166.121C133.01 166.031 132.992 165.942 132.956 165.858C132.921 165.775 132.87 165.699 132.806 165.636C132.741 165.572 132.665 165.522 132.581 165.488C132.498 165.454 132.408 165.437 132.317 165.438C132.227 165.438 132.138 165.457 132.054 165.492Z" fill="#263238"/>
<path d="M109.576 76.6494C109.576 76.6494 110.362 82.8302 108.063 83.7963C105.962 84.681 103.192 81.3694 100.782 82.3821C98.373 83.3947 100.27 92.1538 97.9423 93.1374C95.6143 94.121 92.8032 90.5184 90.7953 91.3623C88.7874 92.2062 90.0038 96.7167 87.9319 97.5839C86.2208 98.3056 83.7764 94.7263 81.8209 93.9406C81.6408 93.8528 81.4449 93.8024 81.2448 93.7924C81.0448 93.7824 80.8448 93.813 80.6569 93.8824C78.6083 94.7437 79.6268 104.149 77.8575 104.894C77.363 105.108 76.823 105.196 76.2861 105.15C75.6272 105.031 74.9593 104.969 74.2898 104.964C74.0331 104.989 73.7819 105.054 73.5449 105.156C72.0375 105.79 72.2412 110.743 70.8618 111.319C69.4825 111.895 68.1206 111.185 66.6482 111.802C65.1757 112.419 65.199 114.997 62.999 115.923L63.9302 118.128L117.562 95.5702" fill="#BFBFBF"/>
<path d="M109.576 76.6494C109.576 76.6494 110.362 82.8302 108.063 83.7963C105.962 84.681 103.192 81.3694 100.782 82.3821C98.373 83.3947 100.27 92.1538 97.9423 93.1374C95.6143 94.121 92.8032 90.5184 90.7953 91.3623C88.7874 92.2062 90.0038 96.7167 87.9319 97.5839C86.2208 98.3056 83.7764 94.7263 81.8209 93.9406C81.6408 93.8528 81.4449 93.8024 81.2448 93.7924C81.0448 93.7824 80.8448 93.813 80.6569 93.8824C78.6083 94.7437 79.6268 104.149 77.8575 104.894C77.363 105.108 76.823 105.196 76.2861 105.15C75.6272 105.031 74.9593 104.969 74.2898 104.964C74.0331 104.989 73.7819 105.054 73.5449 105.156C72.0375 105.79 72.2412 110.743 70.8618 111.319C69.4825 111.895 68.1206 111.185 66.6482 111.802C65.1757 112.419 65.199 114.997 62.999 115.923L63.9302 118.128L117.562 95.5702" stroke="#263238" stroke-miterlimit="10"/>
<path d="M113.039 84.8846C113.039 84.8846 113.527 87.8761 112.346 88.3766C111.362 88.7899 110.757 88.2137 109.721 88.1788C109.215 88.1634 108.712 88.2608 108.249 88.4639C107.3 88.8597 107.085 90.1401 106.904 91.5136C106.695 93.2072 106.59 95.0464 105.35 95.5876C104.483 95.9543 103.546 95.7389 102.58 95.4014C101.038 94.8659 99.4198 94.0162 97.8542 94.6739C97.0976 94.994 96.568 95.8379 96.1548 96.8331C95.1828 99.2368 94.8802 102.717 93.8268 103.159C92.331 103.794 89.5898 101.221 88.2629 101.78C86.9359 102.339 87.4772 104.644 86.4005 105.098C85.3238 105.551 84.7068 104.213 82.8095 105.01C80.9122 105.808 81.8376 108.613 79.1604 109.742C76.4832 110.871 75.3075 108.793 72.7235 109.882C70.1394 110.97 70.605 112.937 68.7775 113.705C66.95 114.474 66.1818 113.123 64.8781 113.705C63.5744 114.287 63.2601 116.318 63.2427 116.447L63.9585 118.146L117.561 95.5702" fill="#00ABFF"/>
<path d="M113.039 84.8846C113.039 84.8846 113.527 87.8761 112.346 88.3766C111.362 88.7899 110.757 88.2137 109.721 88.1788C109.215 88.1634 108.712 88.2608 108.249 88.4639C107.3 88.8597 107.085 90.1401 106.904 91.5136C106.695 93.2072 106.59 95.0464 105.35 95.5876C104.483 95.9543 103.546 95.7389 102.58 95.4014C101.038 94.8659 99.4198 94.0162 97.8542 94.6739C97.0976 94.994 96.568 95.8379 96.1548 96.8331C95.1828 99.2368 94.8802 102.717 93.8268 103.159C92.331 103.794 89.5898 101.221 88.2629 101.78C86.9359 102.339 87.4772 104.644 86.4005 105.098C85.3238 105.551 84.7068 104.213 82.8095 105.01C80.9122 105.808 81.8376 108.613 79.1604 109.742C76.4832 110.871 75.3075 108.793 72.7235 109.882C70.1394 110.97 70.605 112.937 68.7775 113.705C66.95 114.474 66.1818 113.123 64.8781 113.705C63.5744 114.287 63.2601 116.318 63.2427 116.447L63.9585 118.146L117.561 95.5702" stroke="#263238" stroke-miterlimit="10"/>
<path d="M53.0757 92.3401L63.93 118.128L120.052 94.5051" stroke="#263238" stroke-linecap="round" stroke-linejoin="round"/>
<path d="M102.373 104.911L83.7488 112.757C83.5805 112.827 83.4471 112.961 83.3778 113.13C83.3085 113.298 83.309 113.488 83.3792 113.656C83.4495 113.824 83.5836 113.958 83.7523 114.027C83.9209 114.096 84.1102 114.096 84.2784 114.025L102.902 106.18C102.986 106.145 103.061 106.094 103.125 106.029C103.188 105.965 103.239 105.889 103.273 105.805C103.307 105.721 103.324 105.631 103.323 105.541C103.323 105.451 103.304 105.361 103.269 105.278C103.234 105.195 103.183 105.119 103.118 105.056C103.054 104.992 102.978 104.942 102.894 104.908C102.81 104.874 102.721 104.856 102.63 104.857C102.54 104.858 102.45 104.876 102.367 104.911H102.373Z" fill="#263238"/>
<path d="M116.362 72.1873L114.565 72.9434C114.378 73.022 114.29 73.2369 114.369 73.4236L115.125 75.2207C115.203 75.4073 115.418 75.495 115.605 75.4164L117.402 74.6603C117.589 74.5817 117.676 74.3668 117.598 74.1801L116.842 72.383C116.763 72.1964 116.548 72.1087 116.362 72.1873Z" fill="#BFBFBF" stroke="#263238" stroke-miterlimit="10"/>
<path d="M126.112 69.1358L118.663 72.2728C118.586 72.3022 118.501 72.3011 118.425 72.2697C118.349 72.2383 118.288 72.179 118.255 72.104C118.224 72.0283 118.225 71.9436 118.257 71.8683C118.288 71.793 118.348 71.7334 118.424 71.7024L125.874 68.5654C125.949 68.5347 126.034 68.5352 126.109 68.5668C126.184 68.5985 126.244 68.6587 126.275 68.7342C126.291 68.7712 126.3 68.8111 126.3 68.8515C126.301 68.8918 126.293 68.9319 126.278 68.9694C126.263 69.0068 126.241 69.0408 126.212 69.0694C126.183 69.098 126.15 69.1205 126.112 69.1358Z" fill="#263238"/>
<path d="M124.36 71.3299L119.18 73.5066C119.103 73.5383 119.016 73.538 118.939 73.5058C118.862 73.4736 118.801 73.4121 118.77 73.3349C118.738 73.2578 118.738 73.1712 118.77 73.0942C118.803 73.0173 118.864 72.9563 118.941 72.9246L124.121 70.7421C124.196 70.711 124.28 70.7107 124.355 70.7412C124.43 70.7717 124.491 70.8306 124.523 70.9051C124.541 70.9435 124.551 70.9853 124.553 71.0278C124.554 71.0703 124.547 71.1127 124.532 71.1524C124.517 71.1921 124.494 71.2284 124.464 71.2589C124.435 71.2894 124.399 71.3136 124.36 71.3299Z" fill="#263238"/>
<path d="M118.699 77.7276L116.901 78.4838C116.715 78.5623 116.627 78.7773 116.706 78.9639L117.462 80.761C117.54 80.9477 117.755 81.0353 117.942 80.9568L119.739 80.2006C119.926 80.1221 120.013 79.9071 119.935 79.7204L119.179 77.9234C119.1 77.7367 118.885 77.6491 118.699 77.7276Z" fill="#00ABFF" stroke="#263238" stroke-miterlimit="10"/>
<path d="M128.439 74.6764L120.989 77.8134C120.914 77.8441 120.829 77.8436 120.754 77.812C120.679 77.7803 120.619 77.7201 120.588 77.6446C120.572 77.6076 120.563 77.5677 120.563 77.5273C120.562 77.4869 120.57 77.4469 120.585 77.4094C120.6 77.372 120.622 77.338 120.651 77.3094C120.679 77.2808 120.713 77.2583 120.751 77.243L128.2 74.106C128.239 74.0904 128.28 74.0824 128.321 74.0825C128.362 74.0827 128.403 74.091 128.441 74.1069C128.479 74.1228 128.514 74.1461 128.543 74.1754C128.572 74.2047 128.595 74.2395 128.611 74.2777C128.626 74.3159 128.634 74.3569 128.634 74.3982C128.634 74.4395 128.626 74.4803 128.61 74.5184C128.594 74.5565 128.571 74.5911 128.541 74.6202C128.512 74.6493 128.477 74.6724 128.439 74.688V74.6764Z" fill="#263238"/>
<path d="M126.686 76.8705L121.512 79.0472C121.435 79.0796 121.348 79.0801 121.27 79.0484C121.193 79.0168 121.131 78.9556 121.099 78.8784C121.066 78.8013 121.066 78.7144 121.098 78.6369C121.129 78.5594 121.19 78.4976 121.268 78.4652L126.447 76.2885C126.486 76.2729 126.527 76.2649 126.568 76.265C126.609 76.2652 126.65 76.2735 126.688 76.2894C126.726 76.3053 126.761 76.3286 126.79 76.3579C126.819 76.3872 126.842 76.422 126.858 76.4602C126.873 76.4984 126.881 76.5394 126.881 76.5807C126.881 76.622 126.873 76.6628 126.857 76.7009C126.841 76.739 126.818 76.7736 126.788 76.8027C126.759 76.8318 126.724 76.8549 126.686 76.8705Z" fill="#263238"/>
<path opacity="0.2" d="M95.3356 192.217L87.2633 195.616L72.0498 159.468C73.4088 158.12 74.3001 156.372 74.5931 154.48C75.5011 149.638 74.8609 134.07 86.9839 132.463C99.107 130.857 88.8812 158.118 89.44 163.309C89.9521 168.047 96.8605 181.799 95.3356 192.217Z" fill="black" fill-opacity="0.7"/>
<path d="M173.65 159.259L95.3364 192.217L87.264 195.616L72.0505 159.468L36.7231 75.5262L123.109 39.1686L173.65 159.259Z" stroke="#263238" stroke-linecap="round" stroke-linejoin="round"/>
<path d="M90.4592 165.288C91.8211 160.632 97.129 145.721 96.4306 139.127C96.3737 138.578 96.2486 138.039 96.0581 137.521C94.1957 132.597 86.5831 133.074 83.6557 137.154C80.4489 141.641 77.8357 149.72 77.6029 154.614C77.3971 157.07 76.5982 159.438 75.2749 161.517C74.8177 162.285 74.302 163.016 73.7326 163.705L56.3773 122.529C54.624 123.988 53.0928 125.696 51.8319 127.598C51.123 128.658 50.6652 129.866 50.4933 131.13C50.1383 135.193 45.5405 151.902 43.649 158.886C43.6082 159.037 43.5675 159.183 43.5326 159.323C41.6935 166.085 46.5473 191.204 45.1564 198.503C43.7654 205.801 42.9098 205.632 42.7061 210.818C42.5606 214.601 37.1481 226.101 31.0662 237.91C27.5742 244.679 23.8959 251.535 20.8521 257.116L65.2703 255.271C66.0385 249.876 66.8301 244.178 67.5517 238.661C67.8654 236.366 68.3084 234.09 68.8787 231.846C69.8564 227.888 71.0495 224.309 71.7887 222.213C72.7325 219.136 73.5097 216.01 74.1167 212.849C79.2849 207.378 86.0593 198.782 88.0207 192.962V192.921C88.501 191.726 88.6537 190.424 88.463 189.15C88.2466 188.104 88.1277 187.04 88.108 185.972C87.881 179.652 89.3185 169.158 90.4592 165.288Z" fill="white"/>
<path opacity="0.4" d="M75.2863 161.557C73.907 164.322 72.2483 167.005 71.2123 170.101C70.1763 173.197 69.0182 173.64 65.9103 176.067C62.8024 178.494 60.5326 174.495 60.5326 174.495C60.5326 174.495 64.6473 170.223 63.2796 167.843C61.9119 165.463 56.7903 159.544 57.093 156.279C57.3956 153.014 53.9909 145.692 53.9909 145.692C53.9909 145.692 61.749 141.135 60.2416 135.798C59.421 132.888 55.3586 129.786 51.855 127.58C53.1158 125.679 54.6471 123.971 56.4004 122.511L73.7673 163.728C74.328 163.044 74.8358 162.318 75.2863 161.557Z" fill="#00ABFF"/>
<path opacity="0.4" d="M47.1409 186.822C47.2457 187.171 49.7716 195.511 47.6414 198.986C45.5113 202.46 43.323 207.07 44.3648 211.79C45.1912 215.561 38.2072 229.18 31.0894 237.922C37.1538 226.113 42.5664 214.613 42.7294 210.83C42.9331 205.644 43.7886 205.801 45.1796 198.514C46.5706 191.228 41.6876 166.097 43.5558 159.334C43.5907 159.195 43.6315 159.049 43.6722 158.898C45.0283 166.563 48.1827 181.829 49.0499 186.735C50.1149 192.997 47.234 187.084 47.1409 186.822Z" fill="#00ABFF"/>
<path opacity="0.4" d="M63.1108 237.165C68.2732 214.938 85.6459 197.898 87.9972 192.962C86.0358 198.782 79.2672 207.378 74.0932 212.849C73.4862 216.01 72.709 219.136 71.7652 222.213C71.0377 224.309 69.8446 227.888 68.8552 231.846C63.8325 237.799 63.1108 237.165 63.1108 237.165Z" fill="#00ABFF"/>
<path opacity="0.4" d="M90.4583 165.288C89.2943 169.158 87.88 179.652 88.1012 185.955C87.1875 181.997 85.4298 176.969 85.1388 169.967C84.6441 158.094 91.372 162.378 89.044 156.506C86.716 150.633 80.0114 158.153 83.3055 145.774C85.7092 136.735 92.5593 136.817 96.0746 137.521C96.2651 138.039 96.3903 138.578 96.4471 139.127C97.128 145.721 91.8202 160.632 90.4583 165.288Z" fill="#00ABFF"/>
<path d="M27.6089 244.865C33.1728 234.686 38.5912 224.216 42.4848 212.925C42.9504 211.301 42.3277 209.182 42.7991 207.559C48.072 192.898 42.089 177.632 43.0726 162.611C43.9049 156.692 45.7964 150.738 47.7228 144.761C48.6133 140.448 48.945 135.618 50.3709 131.276C51.8375 128.005 53.2809 124.205 56.4062 122.546C62.3426 136.147 68.2558 149.813 73.7731 163.763C76.2699 162.32 76.6831 159.107 77.0905 156.401C78.4291 149.923 79.7852 143.987 82.2354 138.534C84.7264 134.151 91.0702 132.283 94.9637 135.862C96.0802 136.981 96.7187 138.49 96.7447 140.07C95.9881 147.589 93.6251 155.202 91.2448 162.233C90.3077 165.48 89.3533 168.198 88.9517 171.422C88.9924 172.493 89.0157 173.023 89.0623 174.094C87.6829 179.5 88.9517 184.261 88.6374 189.627C87.4327 199.306 79.6862 206.046 74.0874 213.233C72.7022 218.64 71.3229 224.047 69.4314 229.477C67.1034 237.625 66.3584 245.656 65.5611 253.484" stroke="#263238" stroke-linecap="round" stroke-linejoin="round"/>
<path d="M73.7505 163.746C72.697 165.778 71.8395 167.906 71.1897 170.101C70.4622 172.953 66.7781 172.546 64.875 174.315" stroke="#263238" stroke-linecap="round" stroke-linejoin="round"/>
<path d="M59.8506 158.723C59.8506 158.723 64.8616 160.469 67.7832 162.768C70.7049 165.067 72.8583 165.602 72.8583 165.602" stroke="#263238" stroke-linecap="round" stroke-linejoin="round"/>
<path d="M56.6562 146.297C56.6562 146.297 60.7302 147.432 63.6984 146.006C63.8339 144.554 64.0889 143.116 64.4609 141.705" stroke="#263238" stroke-linecap="round" stroke-linejoin="round"/>
<path d="M64.6655 146.594C64.6655 146.594 64.7063 147.176 66.7665 147.176" stroke="#263238" stroke-linecap="round" stroke-linejoin="round"/>
<path d="M74.0947 212.849C71.2709 215.7 69.1021 219.132 67.7393 222.906" stroke="#263238" stroke-linecap="round" stroke-linejoin="round"/>
<path d="M43.2767 160.586C43.0904 164.078 47.1877 176.463 48.4274 182.62C49.667 188.778 50.1384 193.131 50.1384 193.131" stroke="#263238" stroke-linecap="round" stroke-linejoin="round"/>
</svg>
