<svg width="440" height="443" viewBox="0 0 440 443" fill="none" xmlns="http://www.w3.org/2000/svg">
<path opacity="0.7" d="M42.8865 137.974C42.8865 137.974 15.0065 209.974 54.1865 282.474C93.3665 354.974 174.067 393.274 238.657 426.024C303.247 458.774 370.317 442.824 402.187 389.184C434.057 335.544 390.347 297.254 390.287 220.764C390.227 144.274 401.737 124.024 360.287 59.4043C318.837 -5.21566 217.227 -19.5257 140.387 28.4044C63.5465 76.3344 42.8865 137.974 42.8865 137.974Z" fill="white"/>
<path d="M203.208 22.2042C327.208 11.2042 327.458 81.1342 383.338 146.334C439.218 211.534 451.188 241.084 430.118 316.244C409.048 391.404 338.058 450.314 250.228 416.934C162.398 383.554 112.088 415.604 56.6878 385.934C1.28781 356.264 -19.3122 299.014 21.2778 231.524C61.8678 164.034 50.2678 35.8242 203.208 22.2042Z" fill="#00ABFF"/>
<path opacity="0.7" d="M203.208 22.2042C327.208 11.2042 327.458 81.1342 383.338 146.334C439.218 211.534 451.188 241.084 430.118 316.244C409.048 391.404 338.058 450.314 250.228 416.934C162.398 383.554 112.088 415.604 56.6878 385.934C1.28781 356.264 -19.3122 299.014 21.2778 231.524C61.8678 164.034 50.2678 35.8242 203.208 22.2042Z" fill="white"/>
</svg>
