<svg width="264" height="376" viewBox="0 0 264 376" fill="none" xmlns="http://www.w3.org/2000/svg">
<path opacity="0.2" d="M134.642 229.81C134.642 229.81 140.972 259.21 127.262 280.59C113.552 301.97 102.992 307.68 98.2622 314.06C93.5322 320.44 74.9422 356.11 74.9422 356.11L53.2422 291.84L74.9422 212.33L134.642 229.81Z" fill="black" fill-opacity="0.7"/>
<path d="M262.54 207.34L127.98 263.97L114.11 269.81L87.9695 207.7L27.2695 63.47L175.7 1L262.54 207.34Z" fill="white"/>
<path d="M137.347 27.8499L73.2774 54.8499C72.6992 55.0926 72.2411 55.555 72.0039 56.1354C71.7666 56.7158 71.7697 57.3667 72.0124 57.9449C72.255 58.5231 72.7174 58.9812 73.2979 59.2184C73.8783 59.4556 74.5292 59.4526 75.1074 59.2099L139.167 32.1999C139.458 32.0835 139.723 31.9103 139.947 31.6904C140.17 31.4705 140.347 31.2083 140.468 30.9191C140.589 30.6299 140.651 30.3196 140.651 30.0061C140.651 29.6927 140.588 29.3824 140.466 29.0935C140.345 28.8046 140.167 28.5428 139.943 28.3234C139.719 28.104 139.454 27.9313 139.163 27.8156C138.871 27.6998 138.56 27.6432 138.247 27.6491C137.933 27.655 137.624 27.7233 137.337 27.8499H137.347Z" fill="#263238"/>
<path d="M125.098 43.54L93.0981 57.02C92.809 57.142 92.5802 57.3738 92.4621 57.6645C92.3439 57.9552 92.3461 58.2809 92.4681 58.57C92.5901 58.8591 92.8219 59.0878 93.1126 59.206C93.4033 59.3241 93.729 59.322 94.0181 59.2L126.018 45.71C126.168 45.6551 126.306 45.5702 126.422 45.4604C126.539 45.3507 126.632 45.2185 126.695 45.0717C126.759 44.925 126.792 44.7668 126.793 44.6068C126.794 44.4468 126.762 44.2883 126.7 44.141C126.637 43.9937 126.545 43.8607 126.43 43.7499C126.314 43.6392 126.178 43.5531 126.028 43.4969C125.878 43.4407 125.718 43.4155 125.559 43.4229C125.399 43.4303 125.242 43.4701 125.098 43.54V43.54Z" fill="#263238"/>
<path d="M177.807 125.7C177.807 125.7 179.157 136.31 175.207 137.97C171.597 139.49 166.847 133.8 162.697 135.54C158.547 137.28 161.817 152.34 157.817 154.02C153.817 155.7 148.997 149.52 145.537 151.02C142.077 152.52 144.177 160.22 140.617 161.72C137.677 162.95 133.477 156.8 130.117 155.45C129.808 155.299 129.471 155.213 129.128 155.195C128.784 155.178 128.44 155.231 128.117 155.35C124.597 156.83 126.347 173 123.307 174.27C122.457 174.636 121.531 174.791 120.607 174.72C119.476 174.507 118.328 174.396 117.177 174.39C116.736 174.435 116.305 174.546 115.897 174.72C113.307 175.81 113.657 184.32 111.287 185.32C108.917 186.32 106.577 185.08 104.047 186.14C101.517 187.2 101.557 191.63 97.7773 193.22L99.3773 197.01L191.487 158.25" fill="#BFBFBF"/>
<path d="M177.807 125.7C177.807 125.7 179.157 136.31 175.207 137.97C171.597 139.49 166.847 133.8 162.697 135.54C158.547 137.28 161.817 152.34 157.817 154.02C153.817 155.7 148.997 149.52 145.537 151.02C142.077 152.52 144.177 160.22 140.617 161.72C137.677 162.95 133.477 156.8 130.117 155.45C129.808 155.299 129.471 155.213 129.128 155.195C128.784 155.178 128.44 155.231 128.117 155.35C124.597 156.83 126.347 173 123.307 174.27C122.457 174.636 121.531 174.791 120.607 174.72C119.476 174.507 118.328 174.396 117.177 174.39C116.736 174.435 116.305 174.546 115.897 174.72C113.307 175.81 113.657 184.32 111.287 185.32C108.917 186.32 106.577 185.08 104.047 186.14C101.517 187.2 101.557 191.63 97.7773 193.22L99.3773 197.01L191.487 158.25" stroke="#263238" stroke-miterlimit="10"/>
<path d="M80.7266 152.62L99.3766 196.93L195.817 156.35" stroke="#263238" stroke-linecap="round" stroke-linejoin="round"/>
<path d="M185.217 143.28C185.217 143.28 184.757 142.72 184.077 142.05C182.887 140.9 180.997 139.44 179.557 140.05C178.117 140.66 178.027 142.97 178.057 145.47C178.057 148.47 178.357 151.77 176.827 152.41C175.527 152.96 174.367 152.14 173.167 151.24C171.797 150.24 170.397 149.1 168.707 149.81C165.867 151.01 166.707 154.71 165.707 157.88C165.436 158.792 164.955 159.628 164.304 160.322C163.654 161.017 162.85 161.55 161.957 161.88C159.507 162.88 157.017 161.88 154.667 160.3C150.667 157.6 147.147 153.22 144.847 154.19C141.177 155.74 145.217 165.66 141.277 167.32C139.077 168.25 134.517 161.32 130.087 155.32C126.587 150.59 123.167 146.47 121.087 147.32C116.337 149.32 124.167 173.05 120.717 174.5L120.607 174.55C120.052 174.779 119.449 174.869 118.851 174.811C118.253 174.754 117.679 174.551 117.177 174.22C115.937 173.52 114.917 172.51 113.547 173.09C110.997 174.17 112.487 183.47 109.687 184.65C106.887 185.83 105.197 184.12 102.037 185.45C99.3673 186.58 97.7773 193.05 97.7773 193.05L99.3773 196.84L191.487 158.08" fill="#757575"/>
<path d="M185.217 143.28C185.217 143.28 184.757 142.72 184.077 142.05C182.887 140.9 180.997 139.44 179.557 140.05C178.117 140.66 178.027 142.97 178.057 145.47C178.057 148.47 178.357 151.77 176.827 152.41C175.527 152.96 174.367 152.14 173.167 151.24C171.797 150.24 170.397 149.1 168.707 149.81C165.867 151.01 166.707 154.71 165.707 157.88C165.436 158.792 164.955 159.628 164.304 160.322C163.654 161.017 162.85 161.55 161.957 161.88C159.507 162.88 157.017 161.88 154.667 160.3C150.667 157.6 147.147 153.22 144.847 154.19C141.177 155.74 145.217 165.66 141.277 167.32C139.077 168.25 134.517 161.32 130.087 155.32C126.587 150.59 123.167 146.47 121.087 147.32C116.337 149.32 124.167 173.05 120.717 174.5L120.607 174.55C120.052 174.779 119.449 174.869 118.851 174.811C118.253 174.754 117.679 174.551 117.177 174.22C115.937 173.52 114.917 172.51 113.547 173.09C110.997 174.17 112.487 183.47 109.687 184.65C106.887 185.83 105.197 184.12 102.037 185.45C99.3673 186.58 97.7773 193.05 97.7773 193.05L99.3773 196.84L191.487 158.08" stroke="#263238" stroke-linecap="round" stroke-linejoin="round"/>
<path d="M165.715 174.91L133.715 188.39C133.426 188.512 133.197 188.744 133.079 189.035C132.961 189.325 132.963 189.651 133.085 189.94C133.207 190.229 133.439 190.458 133.73 190.576C134.02 190.694 134.346 190.692 134.635 190.57L166.635 177.09C166.924 176.968 167.153 176.736 167.271 176.445C167.389 176.155 167.387 175.829 167.265 175.54C167.143 175.251 166.911 175.022 166.621 174.904C166.33 174.786 166.004 174.788 165.715 174.91V174.91Z" fill="#263238"/>
<path d="M191.086 121.841L187.999 123.14C187.678 123.275 187.527 123.645 187.662 123.965L188.962 127.053C189.097 127.374 189.466 127.524 189.787 127.389L192.874 126.09C193.195 125.955 193.346 125.586 193.211 125.265L191.911 122.177C191.777 121.857 191.407 121.706 191.086 121.841Z" fill="#BFBFBF" stroke="#263238" stroke-miterlimit="10"/>
<path d="M207.837 116.6L195.037 121.99C194.906 122.04 194.76 122.039 194.629 121.985C194.499 121.931 194.395 121.829 194.337 121.7C194.284 121.571 194.283 121.427 194.336 121.297C194.388 121.168 194.489 121.065 194.617 121.01L207.427 115.62C207.556 115.566 207.701 115.566 207.83 115.618C207.959 115.671 208.062 115.772 208.117 115.9C208.145 115.964 208.16 116.033 208.161 116.103C208.162 116.174 208.15 116.243 208.124 116.308C208.097 116.373 208.059 116.433 208.01 116.483C207.961 116.533 207.902 116.573 207.837 116.6V116.6Z" fill="#263238"/>
<path d="M204.829 120.37L195.929 124.11C195.801 124.163 195.656 124.164 195.527 124.111C195.398 124.059 195.295 123.958 195.239 123.83C195.211 123.766 195.196 123.696 195.195 123.626C195.194 123.556 195.207 123.486 195.233 123.421C195.259 123.356 195.298 123.297 195.347 123.247C195.396 123.197 195.455 123.157 195.519 123.13L204.419 119.39C204.548 119.336 204.693 119.336 204.822 119.388C204.951 119.441 205.054 119.542 205.109 119.67C205.163 119.8 205.164 119.946 205.112 120.077C205.059 120.208 204.958 120.313 204.829 120.37V120.37Z" fill="#263238"/>
<path d="M195.098 131.361L192.01 132.66C191.69 132.795 191.539 133.164 191.674 133.485L192.973 136.573C193.108 136.893 193.478 137.044 193.798 136.909L196.886 135.61C197.207 135.475 197.357 135.106 197.222 134.785L195.923 131.697C195.788 131.376 195.419 131.226 195.098 131.361Z" fill="#757575" stroke="#263238" stroke-linecap="round" stroke-linejoin="round"/>
<path d="M211.834 126.12L199.034 131.5C198.969 131.527 198.898 131.541 198.828 131.54C198.757 131.54 198.686 131.526 198.621 131.498C198.555 131.471 198.496 131.431 198.446 131.381C198.396 131.33 198.356 131.271 198.329 131.205C198.303 131.139 198.289 131.069 198.289 130.998C198.289 130.927 198.304 130.857 198.331 130.791C198.358 130.726 198.398 130.666 198.449 130.616C198.499 130.566 198.559 130.527 198.624 130.5L211.424 125.11C211.49 125.083 211.56 125.069 211.631 125.07C211.702 125.07 211.773 125.084 211.838 125.111C211.904 125.139 211.963 125.179 212.013 125.229C212.063 125.28 212.103 125.339 212.129 125.405C212.156 125.471 212.17 125.541 212.17 125.612C212.17 125.683 212.155 125.753 212.128 125.819C212.101 125.884 212.061 125.943 212.01 125.993C211.96 126.043 211.9 126.083 211.834 126.11V126.12Z" fill="#263238"/>
<path d="M208.83 129.88L199.94 133.63C199.807 133.686 199.658 133.686 199.525 133.632C199.392 133.578 199.286 133.473 199.23 133.34C199.174 133.207 199.173 133.058 199.228 132.925C199.282 132.792 199.387 132.686 199.52 132.63L208.42 128.89C208.485 128.863 208.556 128.849 208.627 128.85C208.698 128.85 208.768 128.864 208.833 128.891C208.899 128.919 208.958 128.959 209.008 129.009C209.058 129.06 209.098 129.119 209.125 129.185C209.152 129.251 209.165 129.321 209.165 129.392C209.165 129.463 209.151 129.533 209.123 129.599C209.096 129.664 209.056 129.723 209.006 129.773C208.955 129.823 208.895 129.863 208.83 129.89V129.88Z" fill="#263238"/>
<path d="M228.676 165.36L124.676 209.12C124.387 209.242 124.158 209.474 124.04 209.764C123.922 210.055 123.924 210.381 124.046 210.67C124.168 210.959 124.4 211.188 124.691 211.306C124.981 211.424 125.307 211.422 125.596 211.3L229.596 167.53C229.746 167.475 229.884 167.39 230 167.28C230.117 167.171 230.21 167.038 230.274 166.892C230.337 166.745 230.371 166.587 230.371 166.427C230.372 166.267 230.34 166.108 230.278 165.961C230.215 165.814 230.123 165.68 230.008 165.57C229.893 165.459 229.756 165.373 229.606 165.317C229.456 165.26 229.296 165.235 229.137 165.243C228.977 165.25 228.82 165.29 228.676 165.36V165.36Z" fill="#263238"/>
<path d="M231.978 173.19L111.048 224.08C110.898 224.135 110.761 224.22 110.644 224.329C110.528 224.439 110.435 224.571 110.371 224.718C110.307 224.865 110.274 225.023 110.273 225.183C110.273 225.343 110.305 225.502 110.367 225.649C110.429 225.796 110.521 225.929 110.637 226.04C110.752 226.151 110.889 226.237 111.039 226.293C111.189 226.349 111.348 226.374 111.508 226.367C111.668 226.36 111.825 226.32 111.968 226.25L232.888 175.36C233.043 175.309 233.185 175.226 233.306 175.118C233.427 175.009 233.524 174.876 233.591 174.728C233.658 174.58 233.694 174.42 233.697 174.257C233.699 174.095 233.668 173.934 233.605 173.784C233.542 173.634 233.449 173.499 233.331 173.386C233.214 173.274 233.074 173.187 232.921 173.132C232.769 173.076 232.606 173.052 232.444 173.062C232.282 173.072 232.123 173.116 231.978 173.19V173.19Z" fill="#263238"/>
<path d="M235.265 181.02L114.345 231.91C114.195 231.965 114.058 232.05 113.941 232.159C113.825 232.269 113.732 232.401 113.668 232.548C113.604 232.695 113.571 232.853 113.57 233.013C113.57 233.173 113.601 233.332 113.664 233.479C113.726 233.626 113.818 233.759 113.934 233.87C114.049 233.981 114.186 234.067 114.336 234.123C114.485 234.179 114.645 234.204 114.805 234.197C114.965 234.19 115.121 234.15 115.265 234.08L236.165 183.19C236.316 183.135 236.453 183.05 236.57 182.94C236.686 182.831 236.779 182.698 236.843 182.552C236.906 182.405 236.94 182.247 236.94 182.087C236.941 181.927 236.909 181.768 236.847 181.621C236.784 181.474 236.693 181.341 236.577 181.23C236.462 181.119 236.325 181.033 236.175 180.977C236.025 180.921 235.866 180.895 235.706 180.903C235.546 180.91 235.389 180.95 235.245 181.02H235.265Z" fill="#263238"/>
<path d="M238.568 188.85L117.648 239.7C117.494 239.751 117.352 239.834 117.231 239.942C117.11 240.051 117.013 240.183 116.946 240.331C116.878 240.479 116.842 240.64 116.84 240.802C116.838 240.965 116.869 241.126 116.932 241.276C116.995 241.426 117.088 241.561 117.205 241.674C117.323 241.786 117.462 241.872 117.615 241.928C117.768 241.984 117.93 242.008 118.093 241.998C118.255 241.987 118.413 241.944 118.558 241.87L239.478 190.98C239.632 190.929 239.774 190.846 239.895 190.737C240.016 190.629 240.113 190.496 240.181 190.348C240.248 190.2 240.284 190.04 240.286 189.877C240.289 189.715 240.257 189.554 240.195 189.404C240.132 189.254 240.039 189.118 239.921 189.006C239.803 188.894 239.664 188.807 239.511 188.751C239.358 188.696 239.196 188.672 239.033 188.682C238.871 188.692 238.713 188.736 238.568 188.81V188.85Z" fill="#263238"/>
<path d="M191.069 218.05L120.939 247.57C120.789 247.625 120.651 247.71 120.535 247.819C120.418 247.929 120.325 248.061 120.262 248.208C120.198 248.355 120.165 248.513 120.164 248.673C120.163 248.833 120.195 248.992 120.258 249.139C120.32 249.286 120.412 249.419 120.527 249.53C120.643 249.641 120.78 249.727 120.929 249.783C121.079 249.839 121.239 249.864 121.399 249.857C121.559 249.85 121.715 249.81 121.859 249.74L191.989 220.23C192.132 220.169 192.262 220.081 192.371 219.971C192.48 219.86 192.567 219.729 192.625 219.585C192.684 219.441 192.713 219.287 192.712 219.132C192.711 218.977 192.68 218.823 192.619 218.68C192.559 218.537 192.471 218.407 192.36 218.298C192.25 218.189 192.119 218.102 191.975 218.044C191.831 217.985 191.677 217.956 191.521 217.957C191.366 217.958 191.212 217.989 191.069 218.05Z" fill="#263238"/>
<path d="M152.448 65.3999C152.448 65.3999 153.798 76.0199 149.848 77.6799C146.238 79.1999 141.478 73.5099 137.338 75.2499C133.198 76.9899 136.458 92.0399 132.458 93.7299C128.458 95.4199 123.628 89.2299 120.178 90.6799C116.728 92.1299 118.818 99.8799 115.258 101.37C112.318 102.61 108.118 96.4599 104.758 95.1099C104.449 94.9591 104.112 94.8725 103.768 94.8554C103.424 94.8382 103.081 94.8907 102.758 95.0099C99.238 96.4899 100.988 112.65 97.948 113.93C97.0984 114.298 96.1705 114.45 95.248 114.37C94.1158 114.166 92.9683 114.059 91.818 114.05C91.3769 114.094 90.9452 114.205 90.538 114.38C87.948 115.47 88.298 123.98 85.928 124.97C83.558 125.96 81.218 124.74 78.688 125.8C76.158 126.86 76.198 131.29 72.418 132.88L74.018 136.67L166.168 97.9099" fill="#BFBFBF"/>
<path d="M152.448 65.3999C152.448 65.3999 153.798 76.0199 149.848 77.6799C146.238 79.1999 141.478 73.5099 137.338 75.2499C133.198 76.9899 136.458 92.0399 132.458 93.7299C128.458 95.4199 123.628 89.2299 120.178 90.6799C116.728 92.1299 118.818 99.8799 115.258 101.37C112.318 102.61 108.118 96.4599 104.758 95.1099C104.449 94.9591 104.112 94.8725 103.768 94.8554C103.424 94.8382 103.081 94.8907 102.758 95.0099C99.238 96.4899 100.988 112.65 97.948 113.93C97.0984 114.298 96.1705 114.45 95.248 114.37C94.1158 114.166 92.9683 114.059 91.818 114.05C91.3769 114.094 90.9452 114.205 90.538 114.38C87.948 115.47 88.298 123.98 85.928 124.97C83.558 125.96 81.218 124.74 78.688 125.8C76.158 126.86 76.198 131.29 72.418 132.88L74.018 136.67L166.168 97.9099" stroke="#263238" stroke-miterlimit="10"/>
<path d="M158.396 79.5498C158.396 79.5498 159.236 84.6898 157.206 85.5498C155.516 86.2598 154.476 85.2698 152.696 85.2098C151.827 85.1834 150.962 85.3508 150.166 85.6998C148.536 86.3798 148.166 88.5798 147.856 90.9398C147.496 93.8498 147.316 97.0098 145.186 97.9398C143.696 98.5698 142.086 98.1998 140.426 97.6198C137.776 96.6998 134.996 95.2398 132.306 96.3698C131.006 96.9198 130.096 98.3698 129.386 100.08C127.716 104.21 127.196 110.19 125.386 110.95C122.816 112.04 118.106 107.62 115.826 108.58C113.546 109.54 114.476 113.5 112.626 114.28C110.776 115.06 109.716 112.76 106.456 114.13C103.196 115.5 104.786 120.32 100.186 122.26C95.5859 124.2 93.5659 120.63 89.1259 122.5C84.6859 124.37 85.4859 127.75 82.3459 129.07C79.2059 130.39 77.8859 128.07 75.6459 129.07C73.4059 130.07 72.8659 133.56 72.8359 133.78L74.0659 136.7L166.166 97.9098" fill="#00ABFF"/>
<path d="M158.396 79.5498C158.396 79.5498 159.236 84.6898 157.206 85.5498C155.516 86.2598 154.476 85.2698 152.696 85.2098C151.827 85.1834 150.962 85.3508 150.166 85.6998C148.536 86.3798 148.166 88.5798 147.856 90.9398C147.496 93.8498 147.316 97.0098 145.186 97.9398C143.696 98.5698 142.086 98.1998 140.426 97.6198C137.776 96.6998 134.996 95.2398 132.306 96.3698C131.006 96.9198 130.096 98.3698 129.386 100.08C127.716 104.21 127.196 110.19 125.386 110.95C122.816 112.04 118.106 107.62 115.826 108.58C113.546 109.54 114.476 113.5 112.626 114.28C110.776 115.06 109.716 112.76 106.456 114.13C103.196 115.5 104.786 120.32 100.186 122.26C95.5859 124.2 93.5659 120.63 89.1259 122.5C84.6859 124.37 85.4859 127.75 82.3459 129.07C79.2059 130.39 77.8859 128.07 75.6459 129.07C73.4059 130.07 72.8659 133.56 72.8359 133.78L74.0659 136.7L166.166 97.9098" stroke="#263238" stroke-miterlimit="10"/>
<path d="M55.3672 92.3599L74.0172 136.67L170.447 96.0799" stroke="#263238" stroke-linecap="round" stroke-linejoin="round"/>
<path d="M140.07 113.96L108.07 127.44C107.781 127.56 107.552 127.791 107.432 128.081C107.313 128.371 107.314 128.696 107.435 128.985C107.556 129.274 107.786 129.503 108.076 129.622C108.366 129.741 108.691 129.74 108.98 129.62L140.98 116.14C141.123 116.079 141.253 115.991 141.362 115.881C141.471 115.77 141.557 115.639 141.616 115.495C141.674 115.351 141.704 115.197 141.703 115.042C141.702 114.887 141.67 114.733 141.61 114.59C141.549 114.447 141.461 114.317 141.351 114.208C141.24 114.099 141.109 114.012 140.965 113.954C140.821 113.895 140.667 113.866 140.512 113.867C140.357 113.868 140.203 113.899 140.06 113.96H140.07Z" fill="#263238"/>
<path d="M164.106 57.733L161.018 59.0323C160.697 59.1672 160.547 59.5366 160.682 59.8573L161.981 62.9451C162.116 63.2658 162.485 63.4164 162.806 63.2814L165.894 61.9822C166.215 61.8472 166.365 61.4779 166.23 61.1572L164.931 58.0694C164.796 57.7487 164.427 57.5981 164.106 57.733Z" fill="#BFBFBF" stroke="#263238" stroke-miterlimit="10"/>
<path d="M180.859 52.49L168.059 57.88C167.928 57.9306 167.782 57.9287 167.651 57.8747C167.521 57.8208 167.417 57.7188 167.359 57.59C167.306 57.46 167.307 57.3144 167.362 57.185C167.416 57.0557 167.519 56.9532 167.649 56.9L180.449 51.51C180.579 51.4571 180.725 51.458 180.854 51.5123C180.984 51.5667 181.086 51.6701 181.139 51.8C181.167 51.8635 181.182 51.932 181.183 52.0014C181.184 52.0708 181.171 52.1397 181.145 52.204C181.119 52.2683 181.08 52.3267 181.031 52.3758C180.982 52.425 180.924 52.4638 180.859 52.49V52.49Z" fill="#263238"/>
<path d="M177.849 56.26L168.949 60C168.816 60.0543 168.667 60.0538 168.535 59.9985C168.403 59.9431 168.298 59.8376 168.244 59.705C168.189 59.5723 168.19 59.4236 168.245 59.2914C168.3 59.1591 168.406 59.0543 168.539 59L177.439 55.25C177.567 55.1965 177.712 55.196 177.841 55.2484C177.97 55.3008 178.073 55.4019 178.129 55.53C178.16 55.596 178.177 55.6677 178.18 55.7408C178.183 55.8138 178.171 55.8867 178.145 55.9549C178.119 56.0232 178.079 56.0854 178.028 56.1379C177.977 56.1903 177.916 56.2318 177.849 56.26V56.26Z" fill="#263238"/>
<path d="M168.122 67.2526L165.034 68.5518C164.713 68.6867 164.563 69.0561 164.697 69.3768L165.997 72.4646C166.132 72.7853 166.501 72.9359 166.822 72.801L169.91 71.5017C170.23 71.3668 170.381 70.9974 170.246 70.6767L168.947 67.5889C168.812 67.2682 168.442 67.1176 168.122 67.2526Z" fill="#00ABFF" stroke="#263238" stroke-miterlimit="10"/>
<path d="M184.858 62.0099L172.058 67.3999C171.928 67.4527 171.782 67.4519 171.653 67.3975C171.524 67.3431 171.421 67.2397 171.368 67.1099C171.34 67.0463 171.325 66.9778 171.324 66.9084C171.323 66.839 171.336 66.7702 171.362 66.7059C171.388 66.6416 171.427 66.5831 171.476 66.534C171.525 66.4849 171.584 66.4461 171.648 66.4199L184.448 61.0299C184.514 61.003 184.584 60.9892 184.655 60.9895C184.726 60.9898 184.796 61.004 184.861 61.0314C184.927 61.0588 184.986 61.0988 185.036 61.1492C185.086 61.1995 185.126 61.2592 185.153 61.3249C185.18 61.3906 185.193 61.4609 185.193 61.5318C185.193 61.6028 185.179 61.673 185.151 61.7385C185.124 61.8039 185.084 61.8634 185.034 61.9134C184.983 61.9634 184.924 62.003 184.858 62.0299V62.0099Z" fill="#263238"/>
<path d="M181.845 65.7799L172.955 69.5199C172.823 69.5756 172.674 69.5763 172.54 69.5219C172.407 69.4676 172.301 69.3625 172.245 69.2299C172.19 69.0973 172.189 68.948 172.243 68.8148C172.298 68.6817 172.403 68.5756 172.535 68.5199L181.435 64.7799C181.501 64.753 181.571 64.7392 181.642 64.7395C181.713 64.7398 181.784 64.754 181.849 64.7814C181.914 64.8088 181.974 64.8488 182.024 64.8992C182.074 64.9495 182.114 65.0092 182.14 65.0749C182.167 65.1406 182.181 65.2109 182.181 65.2818C182.181 65.3528 182.166 65.423 182.139 65.4885C182.112 65.5539 182.072 65.6134 182.021 65.6634C181.971 65.7134 181.911 65.753 181.845 65.7799V65.7799Z" fill="#263238"/>
<path opacity="0.2" d="M127.979 263.97L114.109 269.81L87.9688 207.7C90.3037 205.384 91.8352 202.38 92.3387 199.13C93.8987 190.81 92.7988 164.06 113.629 161.3C134.459 158.54 116.889 205.38 117.849 214.3C118.729 222.44 130.599 246.07 127.979 263.97Z" fill="black" fill-opacity="0.7"/>
<path d="M262.54 207.34L127.98 263.97L114.11 269.81L87.9695 207.7L27.2695 63.47L175.7 1L262.54 207.34Z" stroke="#263238" stroke-linecap="round" stroke-linejoin="round"/>
<path d="M119.6 217.7C121.94 209.7 131.06 184.08 129.86 172.75C129.762 171.807 129.547 170.88 129.22 169.99C126.02 161.53 112.94 162.35 107.91 169.36C102.4 177.07 97.91 190.95 97.51 199.36C97.1564 203.579 95.7837 207.649 93.51 211.22C92.7244 212.539 91.8385 213.796 90.86 214.98L61.04 144.23C58.0274 146.739 55.3964 149.673 53.23 152.94C52.012 154.762 51.2254 156.838 50.93 159.01C50.32 165.99 42.42 194.7 39.17 206.7C39.1 206.96 39.03 207.21 38.97 207.45C35.81 219.07 44.15 262.23 41.76 274.77C39.37 287.31 37.9 287.02 37.55 295.93C37.3 302.43 28 322.19 17.55 342.48C11.55 354.11 5.23 365.89 0 375.48L76.32 372.31C77.64 363.04 79 353.25 80.24 343.77C80.779 339.827 81.5402 335.917 82.52 332.06V332.06C84.2 325.26 86.25 319.11 87.52 315.51C89.1417 310.222 90.477 304.851 91.52 299.42C100.4 290.02 112.04 275.25 115.41 265.25V265.18C116.235 263.126 116.498 260.889 116.17 258.7C115.798 256.903 115.594 255.075 115.56 253.24C115.17 242.38 117.64 224.35 119.6 217.7Z" fill="white"/>
<path opacity="0.4" d="M93.5295 211.29C91.1595 216.04 88.3095 220.65 86.5295 225.97C84.7495 231.29 82.7595 232.05 77.4195 236.22C72.0795 240.39 68.1795 233.52 68.1795 233.52C68.1795 233.52 75.2495 226.18 72.8995 222.09C70.5495 218 61.7495 207.83 62.2695 202.22C62.7895 196.61 56.9395 184.03 56.9395 184.03C56.9395 184.03 70.2695 176.2 67.6795 167.03C66.2695 162.03 59.2895 156.7 53.2695 152.91C55.4359 149.643 58.0669 146.708 61.0795 144.2L90.9195 215.02C91.883 213.845 92.7555 212.598 93.5295 211.29V211.29Z" fill="#00ABFF"/>
<path opacity="0.4" d="M45.1698 254.7C45.3498 255.3 49.6898 269.63 46.0298 275.6C42.3698 281.57 38.6098 289.49 40.3998 297.6C41.8198 304.08 29.8198 327.48 17.5898 342.5C28.0098 322.21 37.3098 302.45 37.5898 295.95C37.9398 287.04 39.4098 287.31 41.7998 274.79C44.1898 262.27 35.7998 219.09 39.0098 207.47C39.0698 207.23 39.1398 206.98 39.2098 206.72C41.5398 219.89 46.9598 246.12 48.4498 254.55C50.2798 265.31 45.3298 255.15 45.1698 254.7Z" fill="#00ABFF"/>
<path opacity="0.4" d="M72.6094 341.2C81.4794 303.01 111.329 273.73 115.369 265.25C111.999 275.25 100.369 290.02 91.4794 299.42C90.4364 304.851 89.1011 310.223 87.4794 315.51C86.2294 319.11 84.1794 325.26 82.4794 332.06C73.8494 342.29 72.6094 341.2 72.6094 341.2Z" fill="#00ABFF"/>
<path opacity="0.4" d="M119.598 217.7C117.598 224.35 115.168 242.38 115.548 253.21C113.978 246.41 110.958 237.77 110.458 225.74C109.608 205.34 121.168 212.7 117.168 202.61C113.168 192.52 101.648 205.44 107.308 184.17C111.438 168.64 123.208 168.78 129.248 169.99C129.576 170.88 129.791 171.807 129.888 172.75C131.058 184.08 121.938 209.7 119.598 217.7Z" fill="#00ABFF"/>
<path d="M11.6094 354.43C21.1694 336.94 30.4794 318.95 37.1694 299.55C37.9694 296.76 36.8994 293.12 37.7094 290.33C46.7694 265.14 36.4894 238.91 38.1794 213.1C39.6094 202.93 42.8594 192.7 46.1694 182.43C47.6994 175.02 48.2694 166.72 50.7194 159.26C53.2394 153.64 55.7194 147.11 61.0894 144.26C71.2894 167.63 81.4494 191.11 90.9294 215.08C95.2194 212.6 95.9294 207.08 96.6294 202.43C98.9294 191.3 101.259 181.1 105.469 171.73C109.749 164.2 120.649 160.99 127.339 167.14C129.258 169.062 130.355 171.655 130.399 174.37C129.099 187.29 125.039 200.37 120.949 212.45C119.339 218.03 117.699 222.7 117.009 228.24C117.079 230.08 117.119 230.99 117.199 232.83C114.829 242.12 117.009 250.3 116.469 259.52C114.399 276.15 101.089 287.73 91.4694 300.08C89.0894 309.37 86.7194 318.66 83.4694 327.99C79.4694 341.99 78.1894 355.79 76.8194 369.24" stroke="#263238" stroke-linecap="round" stroke-linejoin="round"/>
<path d="M90.8906 215.05C89.0804 218.542 87.6071 222.199 86.4906 225.97C85.2406 230.87 78.9106 230.17 75.6406 233.21" stroke="#263238" stroke-linecap="round" stroke-linejoin="round"/>
<path d="M67.0078 206.42C67.0078 206.42 75.6178 209.42 80.6378 213.37C85.6578 217.32 89.3578 218.24 89.3578 218.24" stroke="#263238" stroke-linecap="round" stroke-linejoin="round"/>
<path d="M61.5195 185.07C61.5195 185.07 68.5195 187.02 73.6195 184.57C73.8523 182.075 74.2904 179.603 74.9295 177.18" stroke="#263238" stroke-linecap="round" stroke-linejoin="round"/>
<path d="M75.2812 185.58C75.2812 185.58 75.3513 186.58 78.8913 186.58" stroke="#263238" stroke-linecap="round" stroke-linejoin="round"/>
<path d="M91.4825 299.42C86.6306 304.318 82.9041 310.215 80.5625 316.7" stroke="#263238" stroke-linecap="round" stroke-linejoin="round"/>
<path d="M38.5301 209.62C38.2101 215.62 45.2501 236.9 47.3801 247.48C49.5101 258.06 50.3201 265.54 50.3201 265.54" stroke="#263238" stroke-linecap="round" stroke-linejoin="round"/>
</svg>
