<svg width="133" height="55" viewBox="0 0 133 55" fill="none" xmlns="http://www.w3.org/2000/svg">
<path d="M60.8901 45.9032C58.8203 48.9007 55.9082 51.2172 52.522 52.5599C49.1358 53.9025 45.4275 54.2111 41.866 53.4464C38.3045 52.6818 35.0496 50.8784 32.513 48.2641C29.9763 45.6499 28.2717 42.3422 27.6146 38.7593C26.9576 35.1763 27.3776 31.479 28.8217 28.1348C30.2657 24.7906 32.6688 21.9496 35.7273 19.971C38.7858 17.9924 42.3622 16.965 46.0045 17.0188C49.6468 17.0726 53.1914 18.2051 56.1901 20.2732C60.2111 23.0495 62.965 27.309 63.8463 32.1151C64.7277 36.9213 63.6643 41.8808 60.8901 45.9032V45.9032Z" fill="#00ABFF"/>
<path opacity="0.3" d="M58.4907 44.2432C56.7473 46.7643 54.2955 48.7118 51.4453 49.8397C48.5951 50.9675 45.4745 51.2249 42.478 50.5794C39.4816 49.9339 36.7437 48.4144 34.6107 46.2131C32.4777 44.0118 31.0453 41.2275 30.4945 38.2121C29.9437 35.1968 30.2993 32.0859 31.5164 29.2727C32.7334 26.4594 34.7573 24.0702 37.332 22.407C39.9068 20.7439 42.9169 19.8815 45.9817 19.9289C49.0466 19.9762 52.0286 20.9312 54.5507 22.6732C57.9324 25.012 60.247 28.5978 60.9858 32.6426C61.7246 36.6873 60.8272 40.8599 58.4907 44.2432V44.2432Z" fill="black" fill-opacity="0.7"/>
<path d="M58.4907 44.2432C56.7473 46.7643 54.2955 48.7118 51.4453 49.8397C48.5951 50.9675 45.4745 51.2249 42.478 50.5794C39.4816 49.9339 36.7437 48.4144 34.6107 46.2131C32.4777 44.0118 31.0453 41.2275 30.4945 38.2121C29.9437 35.1968 30.2993 32.0859 31.5164 29.2727C32.7334 26.4594 34.7573 24.0702 37.332 22.407C39.9068 20.7439 42.9169 19.8815 45.9817 19.9289C49.0466 19.9762 52.0286 20.9312 54.5507 22.6732C57.9324 25.012 60.247 28.5978 60.9858 32.6426C61.7246 36.6873 60.8272 40.8599 58.4907 44.2432V44.2432Z" stroke="#263238" stroke-linecap="round" stroke-linejoin="round"/>
<path d="M49.7117 27.6833L50.4617 26.6133L52.3217 27.8933L51.5717 28.9733C52.9617 30.4233 52.9317 32.2333 51.5717 34.1933L51.2516 34.6533L49.1017 33.1633L49.5217 32.5633C50.2317 31.5633 50.0916 30.8533 49.3716 30.3533C48.6516 29.8533 47.9617 29.9533 47.2417 30.9933C46.5217 32.0333 46.4417 32.9933 47.1317 35.3133C47.9617 38.0933 47.8116 39.6733 46.6716 41.3133C45.3116 43.3133 43.5916 43.9533 41.7516 43.1733L41.0217 44.2233L39.1917 42.9533L39.9216 41.8933C38.5116 40.4333 38.5616 38.6033 39.9216 36.6333L40.6017 35.6333L42.7516 37.1233L41.9717 38.2533C41.2517 39.2533 41.4516 39.9733 42.1716 40.4833C42.8916 40.9933 43.6117 40.9233 44.3317 39.8833C45.0517 38.8433 45.1417 37.8233 44.4417 35.5633C43.5917 32.8133 43.7517 31.2133 44.9017 29.5633C46.1917 27.6233 47.8817 26.9333 49.7117 27.6833Z" fill="#00ABFF" stroke="#263238" stroke-linecap="round" stroke-linejoin="round"/>
<path opacity="0.2" d="M40.5989 20.4932C40.6013 24.7992 39.4833 29.0318 37.3548 32.775C35.2263 36.5182 32.1607 39.6433 28.4589 41.8432C27.5805 39.4806 27.1965 36.9627 27.3309 34.4456C27.4652 31.9286 28.1151 29.4659 29.2401 27.2103C30.3651 24.9546 31.9413 22.954 33.8711 21.3324C35.8009 19.7108 38.0432 18.5028 40.4589 17.7832C40.5562 18.6832 40.603 19.588 40.5989 20.4932V20.4932Z" fill="black" fill-opacity="0.7"/>
<path d="M60.8901 45.9032C58.8203 48.9007 55.9082 51.2172 52.522 52.5599C49.1358 53.9025 45.4275 54.2111 41.866 53.4464C38.3045 52.6818 35.0496 50.8784 32.513 48.2641C29.9763 45.6499 28.2717 42.3422 27.6146 38.7593C26.9576 35.1763 27.3776 31.479 28.8217 28.1348C30.2657 24.7906 32.6688 21.9496 35.7273 19.971C38.7858 17.9924 42.3622 16.965 46.0045 17.0188C49.6468 17.0726 53.1914 18.2051 56.1901 20.2732C60.2111 23.0495 62.965 27.309 63.8463 32.1151C64.7277 36.9213 63.6643 41.8808 60.8901 45.9032V45.9032Z" stroke="#263238" stroke-linecap="round" stroke-linejoin="round"/>
<path d="M19.43 38.3532C29.6086 38.3532 37.86 30.1018 37.86 19.9232C37.86 9.74458 29.6086 1.49319 19.43 1.49319C9.2514 1.49319 1 9.74458 1 19.9232C1 30.1018 9.2514 38.3532 19.43 38.3532Z" fill="#00ABFF" stroke="#263238" stroke-linecap="round" stroke-linejoin="round"/>
<path opacity="0.3" d="M19.4297 35.4231C27.9901 35.4231 34.9297 28.4835 34.9297 19.9231C34.9297 11.3627 27.9901 4.4231 19.4297 4.4231C10.8693 4.4231 3.92969 11.3627 3.92969 19.9231C3.92969 28.4835 10.8693 35.4231 19.4297 35.4231Z" fill="black" fill-opacity="0.7"/>
<path d="M19.4297 35.4231C27.9901 35.4231 34.9297 28.4835 34.9297 19.9231C34.9297 11.3627 27.9901 4.4231 19.4297 4.4231C10.8693 4.4231 3.92969 11.3627 3.92969 19.9231C3.92969 28.4835 10.8693 35.4231 19.4297 35.4231Z" stroke="#263238" stroke-linecap="round" stroke-linejoin="round"/>
<path d="M18.3013 11.2932V9.99316H20.5612V11.2932C22.5612 11.7032 23.5612 13.2032 23.5612 15.5932V16.1132H20.9413V15.3831C20.9413 14.1231 20.4412 13.6432 19.5612 13.6432C18.6812 13.6432 18.1813 14.1231 18.1813 15.3831C18.1813 16.6431 18.6813 17.5132 20.5413 19.0032C22.8013 20.8132 23.5413 22.1932 23.5413 24.2032C23.5413 26.5932 22.5413 28.1332 20.5413 28.5332V29.8132H18.2812V28.5332C16.2812 28.1332 15.2812 26.5932 15.2812 24.2032V23.0032H17.8913V24.3831C17.8913 25.6431 18.4413 26.0932 19.3213 26.0932C20.2013 26.0932 20.7613 25.6431 20.7613 24.3831C20.7613 23.1231 20.2613 22.2232 18.3913 20.7632C16.1313 18.9732 15.3913 17.5732 15.3913 15.5532C15.3813 13.2332 16.3613 11.7232 18.3013 11.2932Z" fill="#00ABFF" stroke="#263238" stroke-linecap="round" stroke-linejoin="round"/>
<path d="M122.865 35.4039C128.357 26.8337 125.861 15.4345 117.291 9.94305C108.72 4.45163 97.3212 6.94748 91.8298 15.5177C86.3384 24.0879 88.8342 35.4871 97.4044 40.9785C105.975 46.4699 117.374 43.9741 122.865 35.4039Z" fill="#00ABFF" stroke="#263238" stroke-linecap="round" stroke-linejoin="round"/>
<path opacity="0.3" d="M118.699 14.9233C120.786 17.1693 122.16 19.9839 122.647 23.0109C123.134 26.0378 122.712 29.1413 121.436 31.9287C120.159 34.7161 118.084 37.0623 115.474 38.6704C112.863 40.2785 109.835 41.0763 106.771 40.963C103.707 40.8497 100.746 39.8303 98.2612 38.0337C95.7768 36.2372 93.881 33.7442 92.8135 30.8701C91.7461 27.996 91.555 24.8699 92.2644 21.8871C92.9738 18.9044 94.5518 16.1991 96.7989 14.1133C98.2891 12.7265 100.038 11.6473 101.946 10.9373C103.854 10.2274 105.883 9.90067 107.917 9.97591C109.951 10.0511 111.951 10.5268 113.801 11.3758C115.651 12.2247 117.315 13.4302 118.699 14.9233V14.9233Z" fill="black" fill-opacity="0.7"/>
<path d="M118.699 14.9233C120.786 17.1693 122.16 19.9839 122.647 23.0109C123.134 26.0378 122.712 29.1413 121.436 31.9287C120.159 34.7161 118.084 37.0623 115.474 38.6704C112.863 40.2785 109.835 41.0763 106.771 40.963C103.707 40.8497 100.746 39.8303 98.2612 38.0337C95.7768 36.2372 93.881 33.7442 92.8135 30.8701C91.7461 27.996 91.555 24.8699 92.2644 21.8871C92.9738 18.9044 94.5518 16.1991 96.7989 14.1133C98.2891 12.7265 100.038 11.6473 101.946 10.9373C103.854 10.2274 105.883 9.90067 107.917 9.97591C109.951 10.0511 111.951 10.5268 113.801 11.3758C115.651 12.2247 117.315 13.4302 118.699 14.9233V14.9233Z" stroke="#263238" stroke-linecap="round" stroke-linejoin="round"/>
<path d="M100.648 19.9233L99.7578 18.9233L101.408 17.3833L102.298 18.3833C104.018 17.3833 105.778 17.7633 107.398 19.5133L107.778 19.9133L105.868 21.6933L105.368 21.1633C104.508 20.2433 103.818 20.2333 103.178 20.8333C102.538 21.4333 102.488 22.1233 103.338 23.0433C104.188 23.9633 105.168 24.2633 107.538 24.0933C110.428 23.8733 111.938 24.3533 113.308 25.8333C114.928 27.5833 115.218 29.4033 114.058 31.0333L114.928 31.9733L113.268 33.5133L112.398 32.5733C110.668 33.6333 108.888 33.1933 107.268 31.4433L106.438 30.5633L108.358 28.7833L109.298 29.7833C110.158 30.7033 110.868 30.6633 111.518 30.0633C112.168 29.4633 112.258 28.7533 111.398 27.8333C110.538 26.9133 109.558 26.5933 107.208 26.8333C104.328 27.0633 102.798 26.5633 101.438 25.0833C99.8278 23.3233 99.5178 21.5533 100.648 19.9233Z" fill="#00ABFF" stroke="#263238" stroke-linecap="round" stroke-linejoin="round"/>
</svg>
