<svg width="185" height="385" viewBox="0 0 185 385" fill="none" xmlns="http://www.w3.org/2000/svg">
<path opacity="0.2" d="M43.0009 222.85C43.0009 222.85 42.9209 261.09 43.0009 263.32C43.0809 265.55 46.0009 278.98 46.0009 278.98L36.7109 296.1L44.7109 302.54L60.2609 287.26C60.2609 287.26 73.5009 295.43 75.9209 307.13C78.3409 318.83 92.7509 327.35 107.701 359.75C122.651 392.15 139.701 287.26 139.701 287.26L93.571 229.18L43.0009 222.85Z" fill="black" fill-opacity="0.7"/>
<path d="M184.02 17.41L169.89 155.29L161.2 240.11L39.76 227.67L16.13 225.25L1 223.7L14.41 92.8L23.82 1L184.02 17.41Z" fill="white"/>
<path d="M137.49 22.6L68.3405 15.51C68.0319 15.4785 67.7201 15.5081 67.4229 15.5971C67.1258 15.686 66.849 15.8327 66.6085 16.0286C66.368 16.2246 66.1684 16.4659 66.0212 16.739C65.874 17.012 65.782 17.3114 65.7505 17.62C65.719 17.9286 65.7486 18.2404 65.8375 18.5376C65.9265 18.8348 66.0732 19.1115 66.2691 19.352C66.465 19.5925 66.7064 19.7921 66.9794 19.9393C67.2525 20.0865 67.5519 20.1785 67.8605 20.21L137.01 27.3C137.634 27.3637 138.257 27.1771 138.742 26.7814C139.228 26.3857 139.537 25.8133 139.601 25.19C139.664 24.5668 139.478 23.9437 139.082 23.458C138.686 22.9723 138.114 22.6637 137.49 22.6V22.6Z" fill="#263238"/>
<path d="M119.212 30.45L84.6416 26.9C84.3289 26.8692 84.0166 26.9634 83.7731 27.162C83.5295 27.3606 83.3744 27.6475 83.3416 27.96C83.3264 28.1143 83.3418 28.2701 83.3869 28.4185C83.4319 28.5669 83.5058 28.7049 83.6042 28.8247C83.7027 28.9445 83.8238 29.0437 83.9606 29.1167C84.0974 29.1897 84.2473 29.235 84.4016 29.25L118.972 32.8C119.284 32.8308 119.597 32.7366 119.84 32.538C120.084 32.3394 120.239 32.0525 120.272 31.74C120.288 31.5854 120.274 31.4291 120.229 31.2802C120.185 31.1313 120.111 30.9927 120.012 30.8726C119.914 30.7525 119.792 30.6533 119.654 30.5807C119.517 30.5082 119.366 30.4637 119.212 30.45V30.45Z" fill="#263238"/>
<path d="M157.261 132.21L45.0206 120.71C44.7165 120.676 44.411 120.761 44.1684 120.947C43.9259 121.134 43.7653 121.407 43.7206 121.71C43.6898 122.023 43.784 122.335 43.9826 122.579C44.1811 122.822 44.468 122.977 44.7806 123.01L157.021 134.6C157.175 134.615 157.331 134.6 157.479 134.555C157.627 134.51 157.765 134.436 157.885 134.337C158.005 134.239 158.104 134.118 158.177 133.981C158.25 133.844 158.296 133.694 158.311 133.54C158.333 133.383 158.323 133.223 158.282 133.07C158.241 132.918 158.169 132.774 158.071 132.65C157.972 132.526 157.85 132.423 157.711 132.347C157.571 132.271 157.418 132.225 157.261 132.21V132.21Z" fill="#263238"/>
<path d="M156.43 140.66L25.8795 127.29C25.7257 127.273 25.5702 127.287 25.4219 127.331C25.2735 127.375 25.1354 127.448 25.0154 127.546C24.8955 127.643 24.796 127.764 24.7229 127.9C24.6498 128.037 24.6045 128.186 24.5895 128.34C24.5551 128.644 24.6402 128.95 24.8267 129.192C25.0133 129.435 25.2868 129.595 25.5895 129.64L156.1 143.01C156.254 143.026 156.41 143.011 156.558 142.966C156.707 142.922 156.845 142.849 156.966 142.751C157.086 142.653 157.186 142.532 157.259 142.395C157.333 142.259 157.379 142.109 157.395 141.955C157.41 141.801 157.395 141.645 157.351 141.496C157.307 141.348 157.233 141.209 157.135 141.089C157.037 140.969 156.917 140.869 156.78 140.795C156.644 140.722 156.494 140.676 156.34 140.66H156.43Z" fill="#263238"/>
<path d="M118.979 145.37L24.9785 135.74C24.6669 135.707 24.3548 135.799 24.111 135.996C23.8672 136.193 23.7117 136.478 23.6785 136.79C23.6454 137.102 23.7374 137.414 23.9343 137.657C24.1312 137.901 24.4169 138.057 24.7285 138.09L118.729 147.72C118.883 147.735 119.039 147.72 119.187 147.675C119.335 147.63 119.473 147.556 119.593 147.457C119.713 147.359 119.812 147.238 119.885 147.101C119.958 146.964 120.003 146.814 120.019 146.66C120.035 146.507 120.021 146.352 119.978 146.204C119.935 146.057 119.863 145.919 119.766 145.799C119.67 145.679 119.55 145.58 119.415 145.506C119.28 145.432 119.132 145.386 118.979 145.37V145.37Z" fill="#263238"/>
<path d="M23.5368 144.853L19.7188 182.118L151.29 195.598L155.108 158.333L23.5368 144.853Z" fill="#BFBFBF" stroke="#263238" stroke-miterlimit="10"/>
<path d="M83.8757 101.732C96.3037 91.3769 97.9845 72.9078 87.6298 60.4798C77.2752 48.0517 58.8061 46.3709 46.378 56.7255C33.95 67.0802 32.2691 85.5493 42.6238 97.9774C52.9785 110.405 71.4476 112.086 83.8757 101.732Z" fill="#00ABFF"/>
<path opacity="0.5" d="M83.8757 101.732C96.3037 91.377 97.9845 72.9079 87.6298 60.4798C77.2752 48.0518 58.8061 46.3709 46.378 56.7256C33.95 67.0803 32.2691 85.5494 42.6238 97.9774C52.9785 110.406 71.4476 112.086 83.8757 101.732Z" fill="white"/>
<path d="M83.8757 101.732C96.3037 91.3769 97.9845 72.9078 87.6298 60.4798C77.2752 48.0517 58.8061 46.3709 46.378 56.7255C33.95 67.0802 32.2691 85.5493 42.6238 97.9774C52.9785 110.405 71.4476 112.086 83.8757 101.732Z" stroke="#263238" stroke-miterlimit="10"/>
<path d="M65.9688 79.1599L90.3287 91.4099C92.6018 86.6899 93.505 81.4268 92.9358 76.219C92.3666 71.0112 90.3477 66.0675 87.1087 61.95L65.9688 79.1599Z" fill="white"/>
<path d="M66.1328 77.8401L86.5328 61.2401C83.4867 57.6108 79.567 54.8165 75.1428 53.1201L71.4328 63.2201L66.1328 77.8401Z" fill="#00ABFF"/>
<path d="M68.4287 51.48L65.9688 75.6L74.2687 52.79C72.3749 52.1444 70.4169 51.7052 68.4287 51.48Z" fill="#757575"/>
<path d="M64.7009 78.94L67.5309 51.38C62.7094 50.975 57.8652 51.8264 53.4707 53.8511C49.0762 55.8758 45.2814 59.0047 42.4563 62.9327C39.6311 66.8608 37.872 71.4538 37.3506 76.2642C36.8291 81.0745 37.5631 85.9378 39.4809 90.38L64.7009 78.94Z" fill="#999999"/>
<path d="M62.2816 107.08C67.8432 107.646 73.447 106.534 78.3712 103.887C83.2955 101.241 87.3148 97.1807 89.9116 92.23L65.1216 79.76L39.8516 91.24C41.9151 95.5844 45.0628 99.324 48.9915 102.098C52.9201 104.873 57.4972 106.588 62.2816 107.08V107.08Z" fill="#BFBFBF"/>
<path d="M112.127 60.2245L108.795 59.8831C108.449 59.8476 108.139 60.0994 108.104 60.4456L107.762 63.7781C107.727 64.1242 107.979 64.4336 108.325 64.4691L111.657 64.8105C112.004 64.846 112.313 64.5941 112.348 64.248L112.69 60.9154C112.725 60.5693 112.473 60.26 112.127 60.2245Z" fill="#00ABFF" stroke="#263238" stroke-miterlimit="10"/>
<path d="M158.56 66.68L115.5 62.27C115.399 62.2236 115.315 62.1465 115.26 62.0496C115.205 61.9527 115.182 61.841 115.195 61.7303C115.207 61.6196 115.253 61.5156 115.328 61.433C115.403 61.3503 115.502 61.2933 115.61 61.27L158.67 65.6C158.8 65.6255 158.916 65.6987 158.995 65.8052C159.073 65.9116 159.109 66.0437 159.095 66.1753C159.082 66.3069 159.019 66.4286 158.92 66.5165C158.821 66.6043 158.693 66.652 158.56 66.65V66.68Z" fill="#263238"/>
<path d="M154.11 68.54L115.27 64.54C115.131 64.5249 115.003 64.4555 114.915 64.3468C114.827 64.2382 114.786 64.0992 114.8 63.96C114.806 63.8907 114.826 63.8233 114.859 63.7619C114.891 63.7004 114.936 63.6462 114.99 63.6023C115.044 63.5585 115.107 63.526 115.173 63.5067C115.24 63.4874 115.31 63.4817 115.38 63.49L154.22 67.49C154.349 67.5156 154.465 67.5887 154.544 67.6952C154.622 67.8017 154.658 67.9337 154.644 68.0653C154.631 68.197 154.568 68.3187 154.469 68.4065C154.37 68.4944 154.242 68.542 154.11 68.54Z" fill="#263238"/>
<path d="M111.076 70.494L107.744 70.1526C107.398 70.1171 107.088 70.369 107.053 70.7151L106.712 74.0476C106.676 74.3938 106.928 74.7031 107.274 74.7386L110.607 75.08C110.953 75.1155 111.262 74.8636 111.298 74.5175L111.639 71.185C111.674 70.8388 111.423 70.5295 111.076 70.494Z" fill="#757575" stroke="#263238" stroke-linecap="round" stroke-linejoin="round"/>
<path d="M157.508 76.9501L114.428 72.5401C114.298 72.5145 114.182 72.4414 114.104 72.3349C114.025 72.2284 113.989 72.0964 114.003 71.9648C114.017 71.8331 114.079 71.7114 114.178 71.6236C114.277 71.5357 114.405 71.4881 114.538 71.49L157.588 75.9001C157.728 75.9152 157.856 75.9843 157.946 76.0926C158.035 76.2009 158.079 76.3399 158.068 76.4801C158.053 76.6153 157.986 76.7396 157.882 76.8271C157.778 76.9146 157.644 76.9586 157.508 76.9501V76.9501Z" fill="#263238"/>
<path d="M153.051 78.8199L114.221 74.8199C114.08 74.8067 113.951 74.7381 113.861 74.6293C113.77 74.5206 113.727 74.3805 113.741 74.2399C113.754 74.0994 113.822 73.9698 113.931 73.8798C114.04 73.7898 114.18 73.7467 114.321 73.7599L153.161 77.7599C153.23 77.7671 153.298 77.788 153.359 77.8213C153.421 77.8546 153.475 77.8997 153.519 77.954C153.563 78.0084 153.596 78.0708 153.616 78.1379C153.636 78.205 153.643 78.2753 153.636 78.3449C153.628 78.4145 153.608 78.482 153.574 78.5436C153.541 78.6051 153.496 78.6595 153.442 78.7036C153.387 78.7477 153.325 78.7807 153.258 78.8006C153.191 78.8206 153.12 78.8271 153.051 78.8199Z" fill="#263238"/>
<path d="M110.022 80.7736L106.689 80.4321C106.343 80.3967 106.034 80.6485 105.998 80.9946L105.657 84.3272C105.621 84.6733 105.873 84.9827 106.219 85.0181L109.552 85.3596C109.898 85.395 110.207 85.1432 110.243 84.7971L110.584 81.4645C110.62 81.1184 110.368 80.809 110.022 80.7736Z" fill="#999999" stroke="#263238" stroke-linecap="round" stroke-linejoin="round"/>
<path d="M156.428 87.2299L113.428 82.8099C113.355 82.8089 113.282 82.7924 113.215 82.7618C113.148 82.7311 113.089 82.6868 113.04 82.6318C112.991 82.5767 112.954 82.5121 112.932 82.442C112.909 82.372 112.901 82.298 112.909 82.2248C112.917 82.1516 112.94 82.0808 112.976 82.0169C113.013 81.953 113.062 81.8974 113.121 81.8537C113.181 81.81 113.248 81.779 113.32 81.7629C113.392 81.7468 113.466 81.7458 113.538 81.7599L156.588 86.1699C156.658 86.1772 156.726 86.198 156.787 86.2313C156.849 86.2646 156.903 86.3097 156.947 86.3641C156.991 86.4184 157.024 86.4809 157.044 86.5479C157.064 86.615 157.071 86.6853 157.063 86.7549C157.056 86.8245 157.035 86.892 157.002 86.9536C156.969 87.0151 156.924 87.0695 156.869 87.1136C156.815 87.1577 156.753 87.1907 156.685 87.2106C156.618 87.2306 156.548 87.2372 156.478 87.2299H156.428Z" fill="#263238"/>
<path d="M152 89.0901L113.16 85.0901C113.021 85.0749 112.894 85.0055 112.806 84.8968C112.718 84.7882 112.676 84.6492 112.69 84.5101C112.705 84.3703 112.774 84.242 112.883 84.1523C112.991 84.0627 113.13 84.0188 113.27 84.03L152.11 88.03C152.251 88.0446 152.38 88.1145 152.469 88.2242C152.558 88.3339 152.6 88.4745 152.585 88.6151C152.571 88.7556 152.501 88.8846 152.391 88.9737C152.281 89.0628 152.141 89.1046 152 89.0901V89.0901Z" fill="#263238"/>
<path d="M108.975 91.0519L105.642 90.7105C105.296 90.675 104.987 90.9268 104.951 91.2729L104.61 94.6055C104.575 94.9516 104.826 95.261 105.172 95.2964L108.505 95.6379C108.851 95.6734 109.161 95.4215 109.196 95.0754L109.537 91.7428C109.573 91.3967 109.321 91.0874 108.975 91.0519Z" fill="#BFBFBF" stroke="#263238" stroke-miterlimit="10"/>
<path d="M155.431 97.5L112.381 93.0901C112.311 93.0838 112.243 93.0638 112.182 93.0312C112.12 92.9986 112.065 92.954 112.02 92.9001C111.975 92.8462 111.942 92.7839 111.922 92.717C111.901 92.65 111.894 92.5797 111.901 92.5101C111.916 92.3703 111.985 92.242 112.094 92.1523C112.202 92.0627 112.341 92.0188 112.481 92.03L155.541 96.4501C155.615 96.4511 155.687 96.4675 155.754 96.4982C155.821 96.5289 155.881 96.5732 155.93 96.6282C155.978 96.6833 156.015 96.7479 156.038 96.818C156.06 96.888 156.068 96.962 156.06 97.0352C156.053 97.1084 156.03 97.1792 155.993 97.2431C155.957 97.307 155.907 97.3626 155.848 97.4063C155.789 97.45 155.721 97.4809 155.649 97.4971C155.578 97.5132 155.503 97.5142 155.431 97.5V97.5Z" fill="#263238"/>
<path d="M150.947 99.3601L112.108 95.3601C111.978 95.3346 111.862 95.2614 111.783 95.1549C111.705 95.0485 111.669 94.9165 111.683 94.7848C111.696 94.6532 111.759 94.5315 111.858 94.4436C111.957 94.3558 112.085 94.3082 112.218 94.3101L151.058 98.3101C151.14 98.2925 151.225 98.2947 151.306 98.3164C151.387 98.3382 151.461 98.3788 151.524 98.4351C151.586 98.4914 151.634 98.5616 151.664 98.64C151.694 98.7185 151.704 98.8029 151.695 98.8863C151.686 98.9697 151.657 99.0498 151.611 99.1199C151.565 99.19 151.503 99.2481 151.43 99.2895C151.357 99.3308 151.275 99.3543 151.191 99.3579C151.107 99.3615 151.024 99.3451 150.947 99.3101V99.3601Z" fill="#263238"/>
<path d="M107.92 101.321L104.588 100.98C104.242 100.945 103.932 101.196 103.897 101.542L103.555 104.875C103.52 105.221 103.772 105.531 104.118 105.566L107.45 105.907C107.796 105.943 108.106 105.691 108.141 105.345L108.483 102.012C108.518 101.666 108.266 101.357 107.92 101.321Z" fill="white" stroke="#263238" stroke-linecap="round" stroke-linejoin="round"/>
<path d="M154.35 107.77L111.289 103.36C111.188 103.314 111.104 103.237 111.049 103.14C110.994 103.043 110.971 102.931 110.984 102.82C110.996 102.71 111.043 102.606 111.117 102.523C111.192 102.44 111.291 102.383 111.4 102.36L154.43 106.72C154.512 106.703 154.597 106.705 154.678 106.726C154.759 106.748 154.833 106.789 154.896 106.845C154.958 106.901 155.006 106.972 155.036 107.05C155.066 107.128 155.076 107.213 155.067 107.296C155.058 107.38 155.029 107.46 154.983 107.53C154.937 107.6 154.875 107.658 154.802 107.699C154.729 107.741 154.647 107.764 154.563 107.768C154.479 107.771 154.396 107.755 154.32 107.72L154.35 107.77Z" fill="#263238"/>
<path d="M149.901 109.6L111.061 105.6C110.988 105.599 110.915 105.583 110.848 105.552C110.781 105.521 110.722 105.477 110.673 105.422C110.624 105.367 110.587 105.302 110.564 105.232C110.542 105.162 110.534 105.088 110.542 105.015C110.55 104.942 110.572 104.871 110.609 104.807C110.646 104.743 110.695 104.687 110.754 104.644C110.813 104.6 110.881 104.569 110.953 104.553C111.025 104.537 111.099 104.536 111.171 104.55L150.001 108.55C150.075 108.55 150.149 108.565 150.216 108.595C150.284 108.624 150.345 108.668 150.395 108.723C150.445 108.777 150.483 108.842 150.506 108.912C150.53 108.982 150.538 109.057 150.531 109.13C150.524 109.204 150.502 109.275 150.466 109.34C150.429 109.404 150.38 109.461 150.32 109.505C150.261 109.549 150.193 109.58 150.121 109.597C150.049 109.613 149.974 109.614 149.901 109.6V109.6Z" fill="#263238"/>
<path d="M135.191 183.034L137.648 183.286L139.089 169.229L136.631 168.978L135.191 183.034Z" fill="#757575" stroke="#263238" stroke-linecap="round" stroke-linejoin="round"/>
<path d="M135.414 180.908L137.871 181.16L138.549 174.545L136.092 174.293L135.414 180.908Z" fill="#00ABFF" stroke="#263238" stroke-miterlimit="10"/>
<path d="M141.098 180.047L143.555 180.299L144.995 166.243L142.538 165.991L141.098 180.047Z" fill="#757575" stroke="#263238" stroke-linecap="round" stroke-linejoin="round"/>
<path d="M142.147 169.705L141.469 176.32L143.926 176.572L144.604 169.956L142.147 169.705Z" fill="#00ABFF" stroke="#263238" stroke-miterlimit="10"/>
<path d="M146.348 183.298L148.805 183.55L150.245 169.494L147.788 169.242L146.348 183.298Z" fill="#757575" stroke="#263238" stroke-linecap="round" stroke-linejoin="round"/>
<path d="M146.887 178.023L149.344 178.275L150.022 171.66L147.564 171.408L146.887 178.023Z" fill="#00ABFF" stroke="#263238" stroke-miterlimit="10"/>
<path d="M129.941 179.692L132.398 179.944L133.839 165.887L131.381 165.635L129.941 179.692Z" fill="#757575" stroke="#263238" stroke-linecap="round" stroke-linejoin="round"/>
<path d="M130.168 177.556L132.625 177.808L133.303 171.192L130.846 170.941L130.168 177.556Z" fill="#00ABFF" stroke="#263238" stroke-miterlimit="10"/>
<path d="M123.988 183.268L126.445 183.52L127.886 169.463L125.428 169.212L123.988 183.268Z" fill="#757575" stroke="#263238" stroke-linecap="round" stroke-linejoin="round"/>
<path d="M124.144 181.691L126.602 181.943L127.279 175.328L124.822 175.076L124.144 181.691Z" fill="#00ABFF" stroke="#263238" stroke-miterlimit="10"/>
<path d="M118.824 179.072L121.281 179.324L122.721 165.268L120.264 165.016L118.824 179.072Z" fill="#757575" stroke="#263238" stroke-linecap="round" stroke-linejoin="round"/>
<path d="M118.879 178.562L121.336 178.814L122.014 172.198L119.557 171.947L118.879 178.562Z" fill="#00ABFF" stroke="#263238" stroke-miterlimit="10"/>
<path d="M112.531 185.859L114.988 186.11L116.428 172.054L113.971 171.802L112.531 185.859Z" fill="#757575" stroke="#263238" stroke-linecap="round" stroke-linejoin="round"/>
<path d="M112.574 185.337L115.031 185.589L115.709 178.974L113.252 178.722L112.574 185.337Z" fill="#00ABFF" stroke="#263238" stroke-miterlimit="10"/>
<path d="M107.91 176.43L110.367 176.682L111.807 162.626L109.35 162.374L107.91 176.43Z" fill="#757575" stroke="#263238" stroke-linecap="round" stroke-linejoin="round"/>
<path d="M108.129 174.316L110.586 174.567L111.264 167.952L108.807 167.7L108.129 174.316Z" fill="#00ABFF" stroke="#263238" stroke-miterlimit="10"/>
<path d="M102.449 175.059L104.906 175.311L106.346 161.254L103.889 161.002L102.449 175.059Z" fill="#757575" stroke="#263238" stroke-linecap="round" stroke-linejoin="round"/>
<path d="M103 169.744L105.457 169.995L106.135 163.38L103.678 163.128L103 169.744Z" fill="#00ABFF" stroke="#263238" stroke-miterlimit="10"/>
<path d="M96.0272 183.308L98.4844 183.56L99.9246 169.503L97.4674 169.252L96.0272 183.308Z" fill="#757575" stroke="#263238" stroke-linecap="round" stroke-linejoin="round"/>
<path d="M96.621 177.475L99.0781 177.727L99.7559 171.112L97.2988 170.86L96.621 177.475Z" fill="#00ABFF" stroke="#263238" stroke-miterlimit="10"/>
<path d="M91.121 176.552L93.5781 176.804L95.0183 162.748L92.5612 162.496L91.121 176.552Z" fill="#757575" stroke="#263238" stroke-linecap="round" stroke-linejoin="round"/>
<path d="M91.3944 173.909L93.8516 174.16L94.5294 167.545L92.0722 167.293L91.3944 173.909Z" fill="#00ABFF" stroke="#263238" stroke-miterlimit="10"/>
<path d="M85.1991 179.671L87.6562 179.923L89.0964 165.866L86.6393 165.614L85.1991 179.671Z" fill="#757575" stroke="#263238" stroke-linecap="round" stroke-linejoin="round"/>
<path d="M85.4335 177.536L87.8906 177.788L88.5684 171.172L86.1113 170.921L85.4335 177.536Z" fill="#00ABFF" stroke="#263238" stroke-miterlimit="10"/>
<path d="M79.0194 185.411L81.4766 185.662L82.9168 171.606L80.4596 171.354L79.0194 185.411Z" fill="#757575" stroke="#263238" stroke-linecap="round" stroke-linejoin="round"/>
<path d="M79.039 185.399L81.4961 185.651L82.1739 179.036L79.7168 178.784L79.039 185.399Z" fill="#00ABFF" stroke="#263238" stroke-miterlimit="10"/>
<path d="M74.41 175.933L76.8672 176.185L78.3074 162.129L75.8502 161.877L74.41 175.933Z" fill="#757575" stroke="#263238" stroke-linecap="round" stroke-linejoin="round"/>
<path d="M74.5702 174.335L77.0273 174.587L77.7051 167.972L75.248 167.72L74.5702 174.335Z" fill="#00ABFF" stroke="#263238" stroke-miterlimit="10"/>
<path d="M69.496 169.198L71.9531 169.449L73.3933 155.393L70.9362 155.141L69.496 169.198Z" fill="#757575" stroke="#263238" stroke-linecap="round" stroke-linejoin="round"/>
<path d="M69.6757 167.601L72.1328 167.852L72.8106 161.237L70.3535 160.985L69.6757 167.601Z" fill="#00ABFF" stroke="#263238" stroke-miterlimit="10"/>
<path d="M63.2069 176.064L65.6641 176.316L67.1043 162.26L64.6471 162.008L63.2069 176.064Z" fill="#757575" stroke="#263238" stroke-linecap="round" stroke-linejoin="round"/>
<path d="M63.746 170.779L66.2031 171.031L66.8809 164.416L64.4238 164.164L63.746 170.779Z" fill="#00ABFF" stroke="#263238" stroke-miterlimit="10"/>
<path d="M56.8632 183.44L59.3203 183.692L60.7605 169.635L58.3034 169.384L56.8632 183.44Z" fill="#757575" stroke="#263238" stroke-linecap="round" stroke-linejoin="round"/>
<path d="M57.5116 177.078L59.9688 177.33L60.6465 170.715L58.1894 170.463L57.5116 177.078Z" fill="#00ABFF" stroke="#263238" stroke-miterlimit="10"/>
<path d="M52.1444 174.927L54.6016 175.179L56.0418 161.122L53.5846 160.871L52.1444 174.927Z" fill="#757575" stroke="#263238" stroke-linecap="round" stroke-linejoin="round"/>
<path d="M52.3554 172.822L54.8125 173.074L55.4903 166.458L53.0332 166.207L52.3554 172.822Z" fill="#00ABFF" stroke="#263238" stroke-miterlimit="10"/>
<path d="M46.8475 172.032L49.3047 172.284L50.7449 158.227L48.2877 157.976L46.8475 172.032Z" fill="#757575" stroke="#263238" stroke-linecap="round" stroke-linejoin="round"/>
<path d="M47.4491 166.198L49.9062 166.45L50.584 159.834L48.1269 159.583L47.4491 166.198Z" fill="#00ABFF" stroke="#263238" stroke-miterlimit="10"/>
<path d="M40.8554 175.851L43.3125 176.103L44.7527 162.047L42.2956 161.795L40.8554 175.851Z" fill="#757575" stroke="#263238" stroke-linecap="round" stroke-linejoin="round"/>
<path d="M40.8632 175.839L43.3203 176.091L43.9981 169.475L41.541 169.223L40.8632 175.839Z" fill="#00ABFF" stroke="#263238" stroke-miterlimit="10"/>
<path d="M35.7772 170.883L38.2344 171.135L39.6746 157.079L37.2174 156.827L35.7772 170.883Z" fill="#757575" stroke="#263238" stroke-linecap="round" stroke-linejoin="round"/>
<path d="M35.8866 169.835L38.3438 170.087L39.0215 163.472L36.5644 163.22L35.8866 169.835Z" fill="#00ABFF" stroke="#263238" stroke-miterlimit="10"/>
<path d="M30.0507 172.214L32.5078 172.466L33.948 158.41L31.4909 158.158L30.0507 172.214Z" fill="#757575" stroke="#263238" stroke-linecap="round" stroke-linejoin="round"/>
<path d="M30.1054 171.684L32.5625 171.936L33.2403 165.32L30.7832 165.069L30.1054 171.684Z" fill="#00ABFF" stroke="#263238" stroke-miterlimit="10"/>
<path d="M24.703 169.837L27.1602 170.089L28.6003 156.033L26.1432 155.781L24.703 169.837Z" fill="#757575" stroke="#263238" stroke-linecap="round" stroke-linejoin="round"/>
<path d="M25.41 162.967L27.8672 163.219L28.545 156.604L26.0878 156.352L25.41 162.967Z" fill="#00ABFF" stroke="#263238" stroke-miterlimit="10"/>
<path d="M150.279 200.28L38.0489 188.77C37.7362 188.739 37.424 188.834 37.1804 189.032C36.9369 189.231 36.7818 189.518 36.7489 189.83C36.7323 189.984 36.7464 190.139 36.7903 190.288C36.8342 190.436 36.9071 190.574 37.0048 190.694C37.1024 190.814 37.2229 190.914 37.3592 190.987C37.4955 191.06 37.645 191.105 37.7989 191.12L150.039 202.6C150.352 202.631 150.664 202.537 150.907 202.338C151.151 202.139 151.306 201.853 151.339 201.54C151.361 201.233 151.263 200.93 151.065 200.695C150.867 200.459 150.585 200.311 150.279 200.28V200.28Z" fill="#263238"/>
<path d="M149.428 208.73L18.9082 195.35C18.5955 195.319 18.2833 195.413 18.0397 195.612C17.7961 195.811 17.641 196.097 17.6082 196.41C17.5917 196.565 17.6061 196.721 17.6506 196.87C17.6952 197.019 17.7689 197.157 17.8676 197.277C17.9663 197.397 18.0879 197.497 18.2254 197.569C18.3628 197.642 18.5134 197.686 18.6682 197.7L149.178 211.08C149.489 211.108 149.799 211.012 150.04 210.814C150.282 210.616 150.435 210.331 150.468 210.02C150.485 209.867 150.471 209.712 150.428 209.564C150.385 209.417 150.313 209.279 150.216 209.159C150.119 209.039 150 208.94 149.865 208.866C149.73 208.792 149.581 208.746 149.428 208.73Z" fill="#263238"/>
<path d="M93.73 211.6L18.04 203.84C17.7273 203.809 17.4151 203.903 17.1715 204.102C16.928 204.301 16.7729 204.587 16.74 204.9C16.7249 205.054 16.7402 205.21 16.7853 205.359C16.8304 205.507 16.9042 205.645 17.0027 205.765C17.1011 205.885 17.2222 205.984 17.359 206.057C17.4959 206.13 17.6457 206.175 17.8 206.19L93.49 213.95C93.6443 213.966 93.8003 213.951 93.9488 213.907C94.0974 213.862 94.2358 213.789 94.356 213.691C94.4763 213.593 94.5761 213.472 94.6497 213.336C94.7233 213.199 94.7693 213.049 94.7851 212.895C94.8008 212.741 94.786 212.585 94.7415 212.436C94.697 212.288 94.6237 212.149 94.5257 212.029C94.4278 211.909 94.3071 211.809 94.1706 211.735C94.034 211.662 93.8843 211.616 93.73 211.6V211.6Z" fill="#263238"/>
<path opacity="0.2" d="M162.66 136.09C158.79 135.78 157.45 141.95 157.45 141.95C157.45 141.95 151.33 133.95 152.3 115.07C152.3 115.07 149.3 106.71 141.3 111.76C133.3 116.81 124.99 134.6 126.97 154L111.43 102.31C106.05 103.45 95.12 110.68 98 145.59L81 127.59C81 127.59 76.4 126.11 73.8 130.18C71.2 134.25 72.44 163.4 74.59 174.3C76.74 185.2 71.26 207.1 71.26 207.1C71.26 207.1 65.4 182.3 54.8 176.02L14.43 92.8L1 223.7L16.13 225.25L40.43 213.42C40.29 218.89 40.16 223.92 39.76 227.67L161.2 240.11L169.89 155.29C166.94 144.72 164.12 136.2 162.66 136.09Z" fill="black" fill-opacity="0.7"/>
<path d="M184.02 17.41L169.89 155.29L161.2 240.11L39.76 227.67L16.13 225.25L1 223.7L14.41 92.8L23.82 1L184.02 17.41Z" stroke="#263238" stroke-linecap="round" stroke-linejoin="round"/>
<path d="M182.019 372.37L111.019 384.45C111.019 384.45 98.6594 318.8 91.2894 308.45C83.9194 298.1 85.2894 293.85 81.6894 286.88C79.5294 282.67 68.6894 274.82 60.1994 267.07C59.4594 266.4 58.7394 265.73 58.0494 265.07C57.7494 264.8 57.4694 264.51 57.1894 264.24C56.0594 263.12 55.0094 262.03 54.0794 260.96C53.7394 260.58 53.406 260.2 53.0794 259.82C51.5029 258.065 50.3289 255.986 49.6394 253.73C49.6089 253.629 49.5888 253.525 49.5794 253.42C49.5504 253.298 49.5304 253.175 49.5194 253.05C49.3294 251.5 49.1294 249.73 48.9294 247.81C48.9294 247.43 48.8494 247.03 48.7994 246.63L48.7394 246.15C48.5694 244.55 48.3794 242.85 48.1594 241.1C47.9394 239.35 47.6994 237.37 47.4194 235.46C47.3294 234.8 47.2394 234.14 47.1294 233.46C47.0194 232.72 46.8994 231.98 46.7794 231.23L46.4294 229.3C46.4294 229.19 46.3794 229.09 46.3694 229L45.9494 226.78C45.9221 226.699 45.9053 226.615 45.8994 226.53C45.7594 225.88 45.6294 225.24 45.4794 224.59C45.1694 223.14 44.8194 221.72 44.4794 220.34C43.791 217.743 42.905 215.202 41.8294 212.74C36.7094 201.31 43.3694 205.44 39.3594 176.03C39.3594 176.03 42.3094 169.21 50.7194 174.66C51.3692 175.084 51.9967 175.541 52.5994 176.03V176.03C54.3038 177.408 55.8082 179.017 57.0694 180.81C58.7792 183.251 60.0827 185.953 60.9294 188.81C62.3039 193.445 62.6923 198.316 62.0694 203.11C62.0694 203.11 68.3894 224.77 71.7194 229.7C75.0494 234.63 88.8194 206.31 87.9294 203.01C87.6169 201.53 87.3799 200.034 87.2194 198.53C87.1594 198.04 87.0994 197.53 87.0294 196.97C86.9594 196.41 86.8994 195.85 86.8394 195.26C86.8394 194.98 86.7694 194.68 86.7294 194.39C86.7294 194.27 86.7294 194.15 86.7294 194.04C86.6094 192.91 86.4694 191.71 86.3394 190.47C86.3394 190.12 86.2694 189.79 86.2294 189.47C86.1694 188.88 86.1094 188.27 86.0494 187.67C86.0434 187.57 86.0434 187.47 86.0494 187.37C86.0494 187.03 85.9694 186.68 85.9394 186.37C85.8594 185.67 85.7894 184.96 85.7194 184.25C85.6494 183.54 85.5994 183.03 85.5394 182.42C85.4194 181.27 85.3094 180.12 85.1994 179.01C85.1194 178.18 85.0394 177.36 84.9694 176.56C84.9694 176.38 84.9694 176.2 84.9194 176.03C84.4994 171.63 84.1694 168.03 84.0494 166.47C84.0494 166.47 74.0494 151.65 73.0494 144.67C72.0494 137.69 72.1094 130.34 76.2994 127.35C86.2194 120.29 83.2994 131.67 87.7594 136.35C92.2194 141.03 99.0094 148.78 102.869 151.19C106.429 153.45 109.609 162.19 110.059 163.51C109.549 161.59 104.459 142.71 104.349 138.91C104.219 134.91 101.159 113.75 106.349 106.16C111.539 98.57 118.459 104.46 119.099 105.96C119.739 107.46 119.929 127.96 121.759 133.66C123.589 139.36 131.249 163.13 131.249 163.13C131.249 163.13 131.569 140.01 133.249 129.66C134.929 119.31 139.469 111.22 143.869 110.76C148.269 110.3 152.339 115.15 152.339 115.15C152.339 115.15 150.599 131.65 151.099 135.46C151.599 139.27 150.379 153.03 152.469 160.46C152.469 160.46 152.229 140.75 155.289 138.23C158.349 135.71 160.979 134.5 162.699 136.23C164.419 137.96 164.789 149.6 166.539 156.62C168.289 163.64 168.069 173.18 169.219 184.13C170.369 195.08 174.899 210.28 173.999 218.97C173.099 227.66 170.329 249.21 168.099 261.86C165.869 274.51 160.179 291.86 160.179 291.86C160.179 291.86 162.769 301.11 162.269 309.36C161.769 317.61 182.019 372.37 182.019 372.37Z" fill="white"/>
<path opacity="0.4" d="M121.668 133.6C123.028 137.82 127.578 151.94 129.838 158.99C129.838 158.99 119.918 166.28 120.158 173.06C120.398 179.84 118.348 193.53 113.888 193.13C109.428 192.73 109.888 164.28 108.378 159.49C109.288 161.55 109.868 163.22 109.988 163.55C109.658 162.32 104.358 142.73 104.248 138.85C104.248 137.94 104.038 136.12 103.828 133.77C103.828 133.77 113.698 124.32 120.938 130.1C121.102 131.282 121.346 132.451 121.668 133.6Z" fill="#00ABFF"/>
<path opacity="0.4" d="M151.16 141.72C146.54 146.1 139.57 153.84 138.69 161.31C138.69 161.31 141.26 182.17 140.16 191.31L131.16 163.1C131.16 163.1 131.48 139.98 133.16 129.63C133.16 129.35 133.26 129.06 133.31 128.78C138.928 125.921 145.127 124.392 151.43 124.31C151.044 127.987 150.913 131.685 151.04 135.38C151.191 137.49 151.231 139.606 151.16 141.72V141.72Z" fill="#00ABFF"/>
<path opacity="0.4" d="M155.25 138.12C155.14 138.19 154.87 138.41 154.48 138.74C154.712 138.29 154.973 137.856 155.26 137.44L155.25 138.12Z" fill="#00ABFF"/>
<path opacity="0.4" d="M157.6 195.79C157.6 195.79 151.66 173.51 151.6 155.57C151.55 148.93 152.32 142.88 154.47 138.79C154.702 138.34 154.962 137.906 155.25 137.49V138.13C156.325 137.202 157.515 136.416 158.79 135.79C157.12 138.39 155.2 143.48 157.42 151.79C160.91 164.7 157.87 180.53 157.6 195.79Z" fill="#00ABFF"/>
<path opacity="0.4" d="M75.6705 238.25C75.6705 238.25 77.2605 259.48 60.2005 267.08C59.4605 266.41 58.7405 265.74 58.0505 265.08C57.7505 264.81 57.4705 264.52 57.1905 264.25C56.0605 263.13 55.0105 262.04 54.0805 260.97C53.7305 260.58 53.4205 260.2 53.0805 259.83C51.504 258.075 50.33 255.996 49.6405 253.74C49.61 253.639 49.5899 253.535 49.5805 253.43C49.5515 253.308 49.5315 253.185 49.5205 253.06C49.3305 251.51 49.1305 249.74 48.9305 247.82C48.9305 247.44 48.8505 247.04 48.8005 246.64L48.7405 246.16C48.5705 244.56 48.3805 242.86 48.1605 241.11C47.9405 239.36 47.7005 237.38 47.4205 235.47C47.3205 234.81 47.2305 234.14 47.1305 233.47C47.0205 232.73 46.9005 231.99 46.7805 231.24L46.4305 229.3C46.4305 229.19 46.3805 229.09 46.3705 229L45.9505 226.78C45.9232 226.699 45.9064 226.615 45.9005 226.53C45.7605 225.88 45.6305 225.24 45.4805 224.59C45.1605 223.15 44.8105 221.73 44.4805 220.34C51.2305 213.85 66.8105 217.92 59.2705 202.87C59.2705 202.87 63.0705 189.99 52.6005 176.03C59.7605 181.8 63.4305 191.95 62.0705 203.03C62.0705 203.03 68.3905 224.69 71.7205 229.62C75.0505 234.55 88.8205 206.23 87.9305 202.93C87.618 201.45 87.381 199.954 87.2205 198.45C87.1605 197.96 87.1005 197.45 87.0305 196.89C86.9605 196.33 86.9005 195.77 86.8405 195.18C86.8405 194.9 86.7705 194.6 86.7305 194.31C86.7305 194.19 86.7305 194.07 86.7305 193.96C86.6105 192.82 86.4805 191.63 86.3405 190.39C86.3405 190.04 86.2705 189.71 86.2305 189.39C86.1705 188.8 86.1105 188.19 86.0505 187.59C86.0445 187.49 86.0445 187.39 86.0505 187.29C86.0505 186.95 85.9705 186.6 85.9405 186.29C85.8605 185.59 85.7905 184.88 85.7205 184.17C85.6505 183.46 85.6005 182.95 85.5405 182.34C85.4205 181.19 85.3105 180.04 85.2005 178.93C85.1205 178.1 85.0505 177.27 84.9705 176.48C84.9705 176.3 84.9705 176.12 84.9205 175.95C85.1905 177.26 90.2605 201.4 93.1605 207.02C96.0705 212.78 83.4305 243.25 75.6705 238.25Z" fill="#00ABFF"/>
<path opacity="0.4" d="M168.06 261.72C165.83 274.38 160.14 291.72 160.14 291.72C160.14 291.72 162.73 300.97 162.23 309.22C162.09 311.44 163.47 317.05 165.53 324.05C164.93 322.51 158.53 305.99 158.66 300.23C158.79 294.18 157.07 292.51 153.66 285.08C150.25 277.65 145.15 278.47 145.15 278.47C145.15 278.47 143.15 297 138.51 284.82C133.87 272.64 132.96 258.47 144.69 209.27C144.69 209.27 146.46 215.44 144.98 233.77C143.5 252.1 147.88 257.65 147.88 257.65C154.463 246.176 159.695 233.978 163.47 221.3C163.47 221.3 161.95 242.69 160.6 252.43C159.25 262.17 165.41 241.14 169.71 228.15C173.71 215.96 173.9 211.32 172.36 202.64C173.5 208.75 174.36 214.64 173.92 218.85C173.06 227.5 170.29 249.07 168.06 261.72Z" fill="#00ABFF"/>
<path opacity="0.4" d="M87.8281 302.96C91.2881 308.46 99.7581 315.73 104.828 335.84C109.898 355.95 106.698 377.96 106.698 377.96L87.8281 302.96Z" fill="#00ABFF"/>
<path opacity="0.2" d="M60.9394 188.77C60.9394 188.77 43.2294 197.77 41.8294 212.77C36.7094 201.34 43.3694 205.47 39.3594 176.06C39.3594 176.06 42.3094 169.24 50.7194 174.69C51.3692 175.114 51.9967 175.571 52.5994 176.06V176.06C54.3038 177.438 55.8082 179.047 57.0694 180.84L60.9394 188.77Z" fill="black" fill-opacity="0.7"/>
<path d="M111.022 384.45C111.022 384.45 98.6615 318.8 91.2915 308.45C83.9215 298.1 85.2916 293.85 81.6916 286.88C78.0916 279.91 50.7615 262.95 49.5515 253.04C48.3415 243.13 46.9515 224.17 41.8315 212.73C36.7115 201.29 43.3716 205.43 39.3516 176.02C39.3516 176.02 42.3516 169.2 50.7216 174.65C59.0916 180.1 63.5515 191 62.0815 203.07C62.0815 203.07 68.4015 224.71 71.7415 229.65C75.0815 234.59 88.8215 206.26 87.9315 202.95C87.0415 199.64 84.4015 171.49 83.9915 166.35C83.9915 166.35 73.9915 151.52 72.9915 144.54C71.9915 137.56 72.0515 130.21 76.2415 127.23C86.1615 120.17 83.2415 131.55 87.7015 136.23C92.1615 140.91 98.9515 148.65 102.802 151.07C106.652 153.49 110.012 163.6 110.012 163.6C110.012 163.6 104.362 142.86 104.252 138.85C104.142 134.84 101.062 113.69 106.252 106.11C111.442 98.5299 118.372 104.4 119.012 105.9C119.652 107.4 119.842 127.9 121.682 133.6L131.152 163.07C131.152 163.07 131.482 139.95 133.212 129.6C134.942 119.25 139.432 111.16 143.832 110.7C148.232 110.24 152.302 115.09 152.302 115.09C152.302 115.09 150.562 131.59 151.052 135.4C151.542 139.21 150.342 152.96 152.432 160.4C152.432 160.4 152.192 140.69 155.252 138.17C158.312 135.65 160.942 134.44 162.662 136.17C164.382 137.9 164.752 149.54 166.502 156.56C168.252 163.58 168.032 173.12 169.182 184.07C170.332 195.02 174.862 210.22 173.962 218.9C173.062 227.58 170.292 249.15 168.052 261.81C165.812 274.47 160.152 291.81 160.152 291.81C160.152 291.81 162.732 301.06 162.232 309.31C161.732 317.56 182.012 372.48 182.012 372.48" stroke="#263238" stroke-linecap="round" stroke-linejoin="round"/>
<path d="M131.148 163.05C133.218 167.91 138.328 188.43 140.148 191.27C141.076 192.845 142.427 194.127 144.048 194.97" stroke="#263238" stroke-linecap="round" stroke-linejoin="round"/>
<path d="M152.433 160.35C152.433 160.35 151.993 164.56 154.263 177.96C156.533 191.36 157.643 197.07 158.913 200.06" stroke="#263238" stroke-linecap="round" stroke-linejoin="round"/>
<path d="M110.008 163.6C112.778 171.77 114.348 184.79 115.928 188.71C117.508 192.63 118.928 193.44 118.928 193.44" stroke="#263238" stroke-linecap="round" stroke-linejoin="round"/>
<path d="M114.5 183.18C116.168 184.447 117.489 186.116 118.34 188.03" stroke="#263238" stroke-linecap="round" stroke-linejoin="round"/>
<path d="M71.7422 229.66C71.7422 229.66 73.2522 240.49 80.0422 239.66" stroke="#263238" stroke-linecap="round" stroke-linejoin="round"/>
<path d="M87.9325 202.96C87.9325 202.96 89.6925 215.84 86.8125 221.3" stroke="#263238" stroke-linecap="round" stroke-linejoin="round"/>
<path d="M142.17 203.08C142.17 203.08 146.73 205.87 143.68 214.08C140.63 222.29 135.32 255.31 135.32 255.31" stroke="#263238" stroke-linecap="round" stroke-linejoin="round"/>
<path d="M162.02 211.72C163.93 219.12 164.1 219.31 161.02 228.4C157.94 237.49 152.91 259.76 152.91 259.76" stroke="#263238" stroke-linecap="round" stroke-linejoin="round"/>
<path d="M160.15 291.7C160.15 291.7 157.15 285.7 159.63 280.7" stroke="#263238" stroke-linecap="round" stroke-linejoin="round"/>
<path d="M91.2891 308.46C91.2891 308.46 98.8291 319.05 102.109 330.9" stroke="#263238" stroke-linecap="round" stroke-linejoin="round"/>
<path d="M146.77 122.83L148.81 120.82L149.73 120.55L149.67 121.55L147.8 123.94L146.77 122.83Z" fill="#757575" stroke="#263238" stroke-linecap="round" stroke-linejoin="round"/>
<path d="M148.43 123.95L145.11 131.47L55.9105 250.41L45.9805 244.07L59.4305 227.15L139.55 126.65L146.62 122.16C147.053 122.272 147.449 122.496 147.767 122.811C148.085 123.125 148.314 123.518 148.43 123.95Z" fill="#00ABFF"/>
<path opacity="0.3" d="M148.43 123.95L145.11 131.47L55.9105 250.41L45.9805 244.07L59.4305 227.15C65.6305 226.51 66.6705 230.15 66.6705 230.15L143.52 129.85C142.76 127.15 139.52 126.63 139.52 126.63L146.59 122.14C147.031 122.249 147.435 122.474 147.759 122.793C148.082 123.111 148.314 123.511 148.43 123.95V123.95Z" fill="black" fill-opacity="0.7"/>
<path d="M148.43 123.95L145.11 131.47L55.9105 250.41L45.9805 244.07L59.4305 227.15L139.55 126.65L146.62 122.16C147.053 122.272 147.449 122.496 147.767 122.811C148.085 123.125 148.314 123.518 148.43 123.95Z" stroke="#263238" stroke-linecap="round" stroke-linejoin="round"/>
<path d="M85.0002 215.19C85.0002 215.19 75.0001 234.95 65.4601 248.93L58.6201 250.7C58.6201 250.7 42.9201 266.3 33.3401 274.09C31.6008 273.01 30.0249 271.686 28.6602 270.16C28.6602 270.16 42.2601 244.04 57.3102 227.51C59.0735 228.136 60.7348 229.019 62.2401 230.13C64.1928 231.515 65.9314 233.179 67.4001 235.07L84.1701 213.97L85.0002 215.19Z" fill="#00ABFF"/>
<path opacity="0.3" d="M84.9998 215.19C84.9998 215.19 74.9998 234.95 65.4598 248.93L58.6198 250.7C58.6198 250.7 42.9198 266.3 33.3398 274.09L33.5999 269.85C43.9899 253.98 57.1898 236.67 62.2398 230.13C64.1925 231.515 65.9311 233.179 67.3998 235.07L58.0798 247.51L63.4198 246.51L84.1698 213.93L84.9998 215.19Z" fill="black" fill-opacity="0.7"/>
<path d="M85.0002 215.19C85.0002 215.19 75.0001 234.95 65.4601 248.93L58.6201 250.7C58.6201 250.7 42.9201 266.3 33.3401 274.09C31.6008 273.01 30.0249 271.686 28.6602 270.16C28.6602 270.16 42.2601 244.04 57.3102 227.51C59.0735 228.136 60.7348 229.019 62.2401 230.13C64.1928 231.515 65.9314 233.179 67.4001 235.07L84.1701 213.97L85.0002 215.19Z" stroke="#263238" stroke-linecap="round" stroke-linejoin="round"/>
<path d="M118.91 193.42L91.0502 220.42L86.6002 224.74C89.6502 216.9 88.1702 204.74 87.9802 203.31C87.9802 203.23 87.9802 203.18 87.9802 203.18C87.9802 203.18 87.9802 203.02 87.9802 202.97C87.6677 201.49 87.4307 199.994 87.2702 198.49C87.2102 198 87.1502 197.49 87.0802 196.93C87.0102 196.37 86.9502 195.81 86.8902 195.22C86.8902 194.94 86.8202 194.64 86.7802 194.35C86.7802 194.23 86.7802 194.11 86.7802 194C86.6602 192.87 86.5202 191.67 86.3902 190.43C86.3902 190.08 86.3202 189.75 86.2802 189.43C86.2202 188.84 86.1602 188.23 86.1002 187.63C86.0943 187.53 86.0943 187.43 86.1002 187.33C86.1002 186.99 86.0202 186.64 85.9902 186.33C85.9102 185.63 85.8402 184.92 85.7702 184.21C85.7002 183.5 85.6502 182.99 85.5902 182.38C85.4702 181.23 85.3602 180.08 85.2502 178.97C85.1702 178.14 85.0902 177.32 85.0202 176.52C85.0202 176.34 85.0202 176.16 84.9702 175.99C84.5502 171.59 84.2202 167.99 84.1002 166.43C84.1002 166.43 74.1002 151.61 73.1002 144.63C72.1002 137.65 72.1602 130.3 76.3502 127.31C86.2702 120.25 83.3502 131.63 87.8102 136.31C92.2702 140.99 99.0602 148.74 102.92 151.15C106.78 153.56 110.01 163.6 110.01 163.6C112.78 171.76 114.35 184.78 115.93 188.7C117.51 192.62 118.91 193.42 118.91 193.42Z" fill="white"/>
<path d="M114.5 183.18C116.168 184.447 117.489 186.116 118.34 188.03" stroke="#263238" stroke-linecap="round" stroke-linejoin="round"/>
<path opacity="0.4" d="M87.6608 136.27C92.0808 140.99 98.8708 148.65 102.731 151.09C102.191 150.82 95.0808 147.36 91.1108 151.21C86.9808 155.21 83.9908 166.36 83.9908 166.36C83.9908 166.36 73.9908 151.54 72.9908 144.56C71.9908 137.58 72.0508 130.23 76.2408 127.24C86.1208 120.18 83.2208 131.6 87.6608 136.27Z" fill="#00ABFF"/>
<path opacity="0.4" d="M91.0487 220.44L86.5988 224.76C89.6488 216.92 88.1687 204.76 87.9787 203.33C87.9915 203.217 87.9915 203.103 87.9787 202.99C87.6662 201.51 87.4292 200.014 87.2687 198.51C87.2087 198.02 87.1487 197.51 87.0787 196.95C87.0087 196.39 86.9487 195.83 86.8887 195.24C86.8887 194.96 86.8187 194.66 86.7787 194.37C86.7787 194.25 86.7787 194.13 86.7787 194.02C86.6587 192.88 86.5287 191.69 86.3887 190.45C86.3887 190.1 86.3187 189.77 86.2787 189.45C86.2187 188.86 86.1588 188.25 86.0988 187.65C86.0928 187.55 86.0928 187.45 86.0988 187.35C86.0988 187.01 86.0187 186.66 85.9887 186.35C85.9087 185.65 85.8387 184.94 85.7687 184.23C85.6987 183.52 85.6487 183.01 85.5887 182.4C85.4687 181.25 85.3587 180.1 85.2487 178.99C85.1687 178.16 85.0987 177.33 85.0187 176.54C85.0187 176.36 85.0188 176.18 84.9688 176.01C85.2388 177.32 90.3087 201.46 93.2087 207.08C94.1887 209.12 93.1687 214.6 91.0487 220.44Z" fill="#00ABFF"/>
<path d="M118.918 193.42C118.918 193.42 117.508 192.61 115.918 188.69C114.328 184.77 112.768 171.75 109.998 163.58C109.998 163.58 106.608 153.58 102.748 151.12C98.8877 148.66 92.0877 141 87.6477 136.28C83.2077 131.56 86.1077 120.18 76.1877 127.28C71.9977 130.28 71.9077 137.62 72.9377 144.59C73.9677 151.56 83.9377 166.4 83.9377 166.4C84.3477 171.54 86.9877 199.7 87.8777 203" stroke="#263238" stroke-linecap="round" stroke-linejoin="round"/>
<path d="M87.9325 202.96C87.9325 202.96 89.6925 215.84 86.8125 221.3" stroke="#263238" stroke-linecap="round" stroke-linejoin="round"/>
</svg>
