<svg width="446" height="384" viewBox="0 0 446 384" fill="none" xmlns="http://www.w3.org/2000/svg">
<path d="M228.583 1.04872L208.181 5.34451C205.43 5.9237 203.669 8.6232 204.249 11.374L208.544 31.7767C209.124 34.5275 211.823 36.2879 214.574 35.7088L234.977 31.413C237.727 30.8338 239.488 28.1343 238.909 25.3835L234.613 4.98079C234.034 2.22998 231.334 0.469529 228.583 1.04872Z" stroke="#263238" stroke-linecap="round" stroke-linejoin="round"/>
<path d="M220.286 12.1806L222.886 24.5606" stroke="#263238" stroke-linecap="round" stroke-linejoin="round"/>
<path d="M227.779 17.0607L215.399 19.6707" stroke="#263238" stroke-linecap="round" stroke-linejoin="round"/>
<path d="M434.255 219.192L413.853 223.488C411.102 224.067 409.341 226.766 409.921 229.517L414.216 249.92C414.796 252.671 417.495 254.431 420.246 253.852L440.649 249.556C443.399 248.977 445.16 246.277 444.581 243.527L440.285 223.124C439.706 220.373 437.006 218.613 434.255 219.192Z" stroke="#263238" stroke-linecap="round" stroke-linejoin="round"/>
<path d="M430.719 231.201L423.809 241.801" stroke="#263238" stroke-linecap="round" stroke-linejoin="round"/>
<path d="M432.558 239.961L421.958 233.041" stroke="#263238" stroke-linecap="round" stroke-linejoin="round"/>
<path d="M158.788 352.004L137.938 350.753C135.127 350.584 132.712 352.726 132.543 355.537L131.292 376.387C131.123 379.198 133.265 381.614 136.077 381.783L156.927 383.034C159.738 383.202 162.153 381.06 162.322 378.249L163.573 357.399C163.742 354.588 161.6 352.172 158.788 352.004Z" stroke="#263238" stroke-width="1.0018" stroke-linecap="round" stroke-linejoin="round"/>
<path d="M154.457 366.141L141.817 365.411" stroke="#263238" stroke-linecap="round" stroke-linejoin="round"/>
<path d="M34.3824 206.873L14.5903 200.316C11.9218 199.431 9.04187 200.878 8.15779 203.546L1.60069 223.339C0.716615 226.007 2.16318 228.887 4.83167 229.771L24.6238 236.328C27.2923 237.212 30.1722 235.766 31.0563 233.097L37.6134 213.305C38.4974 210.637 37.0509 207.757 34.3824 206.873Z" stroke="#263238" stroke-linecap="round" stroke-linejoin="round"/>
<path d="M27.526 214.351L11.696 222.301" stroke="#263238" stroke-linecap="round" stroke-linejoin="round"/>
<path d="M18.449 211.131C18.6389 211.522 18.7091 211.961 18.6508 212.392C18.5926 212.822 18.4085 213.227 18.1217 213.553C17.8348 213.88 17.4579 214.115 17.0381 214.229C16.6184 214.342 16.1744 214.33 15.7619 214.192C15.3493 214.055 14.9865 213.798 14.7189 213.456C14.4512 213.113 14.2907 212.699 14.2573 212.265C14.2239 211.832 14.3191 211.398 14.5311 211.018C14.7431 210.639 15.0624 210.33 15.449 210.131C15.7107 209.994 15.9971 209.912 16.2912 209.889C16.5853 209.866 16.8811 209.902 17.161 209.995C17.4409 210.088 17.6991 210.237 17.9204 210.432C18.1417 210.627 18.3214 210.865 18.449 211.131V211.131Z" stroke="#263238" stroke-linecap="round" stroke-linejoin="round"/>
<path d="M24.7263 223.591C24.9162 223.982 24.9864 224.421 24.9282 224.851C24.8699 225.282 24.6859 225.687 24.399 226.013C24.1121 226.34 23.7352 226.575 23.3155 226.689C22.8957 226.802 22.4518 226.79 22.0392 226.652C21.6267 226.515 21.2639 226.258 20.9962 225.916C20.7286 225.573 20.568 225.159 20.5346 224.725C20.5012 224.292 20.5965 223.858 20.8084 223.478C21.0204 223.099 21.3397 222.79 21.7263 222.591C21.988 222.454 22.2744 222.372 22.5685 222.349C22.8626 222.326 23.1584 222.362 23.4383 222.455C23.7182 222.548 23.9765 222.697 24.1977 222.892C24.419 223.087 24.5988 223.325 24.7263 223.591V223.591Z" stroke="#263238" stroke-linecap="round" stroke-linejoin="round"/>
</svg>
