<svg width="345" height="238" viewBox="0 0 345 238" fill="none" xmlns="http://www.w3.org/2000/svg">
<g clip-path="url(#clip0_38_1544)">
<path d="M208.352 37.8409C196.689 44.511 188.464 55.7293 178.496 64.7351C166.099 75.8923 151.009 83.6287 134.713 87.1825C121.352 90.0739 107.391 90.1167 94.5161 94.665C69.3963 103.478 52.192 129.635 51.7591 156.23C51.3261 182.825 66.4568 208.607 88.6958 223.187C96.2698 228.155 104.561 231.932 113.281 234.384C129.636 238.986 146.979 238.783 163.879 237.025C193.071 233.984 223.675 217.404 242.076 194.032C250.279 183.586 257.211 172.203 262.728 160.121C271.841 140.254 277.018 118.81 277.971 96.9739C278.746 78.2677 277.971 57.5305 263.129 43.8963C248.287 30.2622 225.748 27.8838 208.352 37.8409Z" fill="#A4EFFF"/>
<path opacity="0.7" d="M208.352 37.8409C196.689 44.511 188.464 55.7293 178.496 64.7351C166.099 75.8923 151.009 83.6287 134.713 87.1825C121.352 90.0739 107.391 90.1167 94.5161 94.665C69.3963 103.478 52.192 129.635 51.7591 156.23C51.3261 182.825 66.4568 208.607 88.6958 223.187C96.2698 228.155 104.561 231.932 113.281 234.384C129.636 238.986 146.979 238.783 163.879 237.025C193.071 233.984 223.675 217.404 242.076 194.032C250.279 183.586 257.211 172.203 262.728 160.121C271.841 140.254 277.018 118.81 277.971 96.9739C278.746 78.2677 277.971 57.5305 263.129 43.8963C248.287 30.2622 225.748 27.8838 208.352 37.8409Z" fill="white"/>
<path d="M204.902 74.7273H59.4294C56.0188 74.7273 53.2539 77.4922 53.2539 80.9028V162.454C53.2539 165.865 56.0188 168.629 59.4294 168.629H204.902C208.313 168.629 211.078 165.865 211.078 162.454V80.9028C211.078 77.4922 208.313 74.7273 204.902 74.7273Z" fill="white"/>
<path d="M211.078 80.9026V83.3452H53.2539V80.9026C53.2539 79.2616 53.9034 77.6873 55.0606 76.5236C56.2177 75.36 57.7884 74.7017 59.4294 74.6926H204.93C205.742 74.6953 206.545 74.8583 207.294 75.1721C208.042 75.4859 208.722 75.9444 209.293 76.5213C209.864 77.0982 210.316 77.7822 210.622 78.5341C210.928 79.2859 211.083 80.0908 211.078 80.9026Z" fill="#A4EFFF"/>
<path d="M204.902 74.7273H59.4294C56.0188 74.7273 53.2539 77.4922 53.2539 80.9028V162.454C53.2539 165.865 56.0188 168.629 59.4294 168.629H204.902C208.313 168.629 211.078 165.865 211.078 162.454V80.9028C211.078 77.4922 208.313 74.7273 204.902 74.7273Z" stroke="#263238" stroke-linecap="round" stroke-linejoin="round"/>
<path d="M211.078 80.9026V83.3452H53.2539V80.9026C53.2539 79.2616 53.9034 77.6873 55.0606 76.5236C56.2177 75.36 57.7884 74.7017 59.4294 74.6926H204.93C205.741 74.6953 206.545 74.8583 207.294 75.1721C208.042 75.4859 208.722 75.9444 209.293 76.5213C209.864 77.0982 210.316 77.7822 210.622 78.5341C210.928 79.2859 211.083 80.0908 211.078 80.9026V80.9026Z" stroke="#263238" stroke-linecap="round" stroke-linejoin="round"/>
<path d="M70.9795 79.0329C70.9809 79.3457 70.8894 79.6519 70.7166 79.9127C70.5438 80.1734 70.2975 80.377 70.0089 80.4977C69.7203 80.6183 69.4024 80.6506 69.0954 80.5904C68.7884 80.5302 68.5063 80.3803 68.2846 80.1596C68.0629 79.9389 67.9117 79.6573 67.8502 79.3506C67.7887 79.0439 67.8196 78.7259 67.939 78.4367C68.0583 78.1476 68.2609 77.9004 68.5209 77.7265C68.7808 77.5526 69.0866 77.4597 69.3994 77.4597C69.8173 77.4597 70.2182 77.6252 70.5143 77.9201C70.8104 78.2149 70.9777 78.615 70.9795 79.0329Z" fill="#263238"/>
<path d="M79.2271 79.0329C79.2284 79.3457 79.1369 79.6519 78.9641 79.9127C78.7914 80.1734 78.5451 80.377 78.2565 80.4977C77.9679 80.6183 77.6499 80.6506 77.343 80.5904C77.036 80.5302 76.7538 80.3803 76.5321 80.1596C76.3105 79.9389 76.1593 79.6573 76.0978 79.3506C76.0362 79.0439 76.0671 78.7259 76.1865 78.4367C76.3059 78.1476 76.5084 77.9004 76.7684 77.7265C77.0284 77.5526 77.3342 77.4597 77.647 77.4597C78.0649 77.4597 78.4657 77.6252 78.7619 77.9201C79.058 78.2149 79.2253 78.615 79.2271 79.0329Z" fill="#263238"/>
<path d="M85.8892 80.6128C86.7618 80.6128 87.4693 79.9054 87.4693 79.0327C87.4693 78.1601 86.7618 77.4526 85.8892 77.4526C85.0165 77.4526 84.3091 78.1601 84.3091 79.0327C84.3091 79.9054 85.0165 80.6128 85.8892 80.6128Z" fill="#263238"/>
<path d="M109.78 90.1831H65.1579C63.7517 90.1831 62.6118 91.323 62.6118 92.7292V114.195C62.6118 115.601 63.7517 116.741 65.1579 116.741H109.78C111.186 116.741 112.326 115.601 112.326 114.195V92.7292C112.326 91.323 111.186 90.1831 109.78 90.1831Z" stroke="#263238" stroke-linecap="round" stroke-linejoin="round"/>
<path d="M65.5366 113.402H108.641" stroke="#263238" stroke-linecap="round" stroke-linejoin="round"/>
<path d="M73.7383 108.33H68.7358V113.333H73.7383V108.33Z" fill="#A4EFFF" stroke="#263238" stroke-miterlimit="10"/>
<path d="M81.0616 101.755H76.0591V113.402H81.0616V101.755Z" fill="#A4EFFF" stroke="#263238" stroke-miterlimit="10"/>
<path d="M89.3062 103.756H84.3037V113.519H89.3062V103.756Z" fill="#A4EFFF" stroke="#263238" stroke-miterlimit="10"/>
<path d="M97.9747 94.0334H92.9722V113.181H97.9747V94.0334Z" fill="#A4EFFF" stroke="#263238" stroke-miterlimit="10"/>
<path d="M106.632 94.1851H101.629V113.333H106.632V94.1851Z" fill="#A4EFFF" stroke="#263238" stroke-miterlimit="10"/>
<path d="M173.964 118.114C181.688 118.114 187.95 111.853 187.95 104.128C187.95 96.4037 181.688 90.1418 173.964 90.1418C166.239 90.1418 159.978 96.4037 159.978 104.128C159.978 111.853 166.239 118.114 173.964 118.114Z" fill="#A4EFFF" stroke="#263238" stroke-miterlimit="10"/>
<path d="M175.108 112.85V114.285H172.762V112.85C171.798 112.617 170.946 112.055 170.352 111.262C169.757 110.468 169.458 109.493 169.505 108.503V107.854L172.161 107.564V108.254C172.161 109.586 172.851 110.393 173.935 110.393C174.17 110.413 174.406 110.381 174.628 110.301C174.85 110.22 175.052 110.092 175.219 109.927C175.387 109.761 175.517 109.561 175.6 109.34C175.683 109.119 175.718 108.883 175.701 108.647C175.701 107.371 174.507 106.274 173.1 105.108C171.43 103.728 169.767 102.086 169.767 99.7672C169.767 97.4488 170.857 95.8825 172.762 95.4133V93.9712H175.108V95.3995C177.033 95.848 178.15 97.4695 178.15 99.781V100.25L175.494 100.533V100.05C175.494 98.6701 174.949 97.9111 173.983 97.9111C173.017 97.9111 172.472 98.5114 172.472 99.6568C172.472 100.933 173.7 102.003 175.08 103.196C176.722 104.576 178.413 106.219 178.413 108.537C178.453 109.529 178.145 110.504 177.541 111.292C176.937 112.08 176.076 112.631 175.108 112.85Z" fill="#263238"/>
<path d="M61.4531 130.307H65.5379" stroke="#263238" stroke-linecap="round" stroke-linejoin="round"/>
<path d="M61.4531 138.2H65.5379" stroke="#263238" stroke-linecap="round" stroke-linejoin="round"/>
<path d="M61.4531 146.101H65.5379" stroke="#263238" stroke-linecap="round" stroke-linejoin="round"/>
<path d="M61.4531 153.994H65.5379" stroke="#263238" stroke-linecap="round" stroke-linejoin="round"/>
<path d="M74.5415 159.956V156.782" stroke="#263238" stroke-linecap="round" stroke-linejoin="round"/>
<path d="M81.0127 159.956V156.782" stroke="#263238" stroke-linecap="round" stroke-linejoin="round"/>
<path d="M87.4844 159.956V156.782" stroke="#263238" stroke-linecap="round" stroke-linejoin="round"/>
<path d="M93.9639 159.956V156.782" stroke="#263238" stroke-linecap="round" stroke-linejoin="round"/>
<path d="M100.438 159.956V156.782" stroke="#263238" stroke-linecap="round" stroke-linejoin="round"/>
<path d="M106.907 159.956V156.782" stroke="#263238" stroke-linecap="round" stroke-linejoin="round"/>
<path d="M113.381 159.956V156.782" stroke="#263238" stroke-linecap="round" stroke-linejoin="round"/>
<path d="M119.86 159.956V156.782" stroke="#263238" stroke-linecap="round" stroke-linejoin="round"/>
<path d="M126.332 159.956V156.782" stroke="#263238" stroke-linecap="round" stroke-linejoin="round"/>
<path d="M132.803 159.956V156.782" stroke="#263238" stroke-linecap="round" stroke-linejoin="round"/>
<path d="M139.277 159.956V156.782" stroke="#263238" stroke-linecap="round" stroke-linejoin="round"/>
<path d="M145.757 159.956V156.782" stroke="#263238" stroke-linecap="round" stroke-linejoin="round"/>
<path d="M152.226 159.956V156.782" stroke="#263238" stroke-linecap="round" stroke-linejoin="round"/>
<path d="M158.7 159.956V156.782" stroke="#263238" stroke-linecap="round" stroke-linejoin="round"/>
<path d="M165.171 159.956V156.782" stroke="#263238" stroke-linecap="round" stroke-linejoin="round"/>
<path d="M171.403 159.956V156.782" stroke="#263238" stroke-linecap="round" stroke-linejoin="round"/>
<path d="M177.632 159.956V156.782" stroke="#263238" stroke-linecap="round" stroke-linejoin="round"/>
<path d="M183.858 159.956V156.782" stroke="#263238" stroke-linecap="round" stroke-linejoin="round"/>
<path d="M200.335 125.477V156.154C200.335 158.259 198.196 159.956 195.56 159.956H66.2402C65.4527 159.984 64.6695 159.83 63.9514 159.505C63.2333 159.181 62.5998 158.695 62.1002 158.086C61.6685 157.533 61.4265 156.856 61.4102 156.154V125.477C61.4102 123.407 63.5492 121.675 66.185 121.675H195.56C198.196 121.675 200.335 123.372 200.335 125.477Z" stroke="#A4EFFF" stroke-linecap="round" stroke-linejoin="round"/>
<path d="M160.979 66.0608L119.696 121.675L103.909 142.941L86.6589 131.956L65.5518 159.956H65.2482C64.5864 159.957 63.9359 159.784 63.3611 159.456C62.7863 159.128 62.307 158.656 61.9707 158.086L85.686 126.615L102.936 137.579L114.742 121.709L157.791 63.7493L160.979 66.0608Z" fill="#263238"/>
<path d="M150.501 66.7646L165.674 57.5669L161.479 73.4783L158.802 66.116L150.501 66.7646Z" fill="#263238"/>
<path d="M294.098 214.259H51.4321" stroke="#263238" stroke-linecap="round" stroke-linejoin="round"/>
<path d="M279.489 99.8567C279.489 99.8567 279.489 97.0139 275.508 93.0395C271.527 89.0651 268.974 86.7881 268.974 86.7881C268.974 86.7881 266.98 93.3224 270.678 97.3037C273.395 100.108 276.342 102.679 279.489 104.99V99.8567Z" fill="#A4EFFF"/>
<path d="M273.713 117.611C273.713 117.611 273.713 114.768 269.732 110.787C265.751 106.805 263.198 104.535 263.198 104.535C263.198 104.535 261.211 111.069 264.902 115.051C267.622 117.854 270.569 120.427 273.713 122.744V117.611Z" fill="#A4EFFF"/>
<path d="M279.234 104.7C279.234 104.7 279.537 101.871 283.912 98.3318C288.286 94.7921 291.074 92.8118 291.074 92.8118C291.074 92.8118 292.357 99.5393 288.266 103.086C285.268 105.582 282.066 107.823 278.695 109.786L279.234 104.7Z" fill="#A4EFFF"/>
<path d="M272.258 125.663C272.258 125.663 272.858 122.903 277.578 119.825C282.297 116.748 285.271 115.078 285.271 115.078C285.271 115.078 285.844 121.888 281.421 125.007C278.179 127.174 274.761 129.064 271.202 130.658L272.258 125.663Z" fill="#A4EFFF"/>
<path d="M273.574 148.509C273.574 148.509 273.574 145.666 277.549 141.691C281.523 137.717 284.083 135.44 284.083 135.44C284.083 135.44 286.077 141.981 282.379 145.956C279.666 148.764 276.721 151.338 273.574 153.649V148.509Z" fill="#A4EFFF"/>
<path d="M273.507 154.091C273.507 154.091 273.907 151.276 270.533 146.777C267.159 142.278 264.958 139.656 264.958 139.656C264.958 139.656 262.074 145.866 265.158 150.31C267.451 153.466 270.004 156.425 272.79 159.155L273.507 154.091Z" fill="#A4EFFF"/>
<path d="M269.58 170.616C269.58 170.616 269.58 167.78 273.561 163.799C277.542 159.818 280.095 157.589 280.095 157.589C280.095 157.589 282.089 164.123 278.391 168.098C275.675 170.904 272.727 173.478 269.58 175.791V170.616Z" fill="#A4EFFF"/>
<path d="M272.236 185.61C272.236 185.61 271.546 182.85 274.368 178.02C277.19 173.19 279.108 170.326 279.108 170.326C279.108 170.326 282.683 176.15 280.123 180.931C278.202 184.33 276 187.561 273.54 190.591L272.236 185.61Z" fill="#A4EFFF"/>
<path d="M279.848 99.1528C279.647 102.11 279.283 105.054 278.758 107.971C277.185 116.099 273.238 121.343 271.679 128.671C270.119 135.999 274.625 145.473 273.417 154.891C272.21 164.31 268.532 169.56 269.567 175.853C270.602 182.146 276.122 199.175 276.122 199.175" stroke="#263238" stroke-width="1.17749" stroke-linecap="round" stroke-linejoin="round"/>
<path d="M279.199 106.591L283.484 103.293" stroke="#263238" stroke-width="1.17749" stroke-linecap="round" stroke-linejoin="round"/>
<path d="M279.394 102.803L277.606 99.6084" stroke="#263238" stroke-width="1.17749" stroke-linecap="round" stroke-linejoin="round"/>
<path d="M271.919 128.34C271.919 128.34 275.507 125.642 279.199 122.951" stroke="#263238" stroke-width="1.17749" stroke-linecap="round" stroke-linejoin="round"/>
<path d="M273.715 122.709C273.715 122.709 270.72 116.844 267.332 112.953" stroke="#263238" stroke-width="1.17749" stroke-linecap="round" stroke-linejoin="round"/>
<path d="M273.714 152.552C275.77 148.777 278.361 145.318 281.408 142.285" stroke="#263238" stroke-width="1.17749" stroke-linecap="round" stroke-linejoin="round"/>
<path d="M273.016 156.54C271.916 153.973 270.605 151.501 269.097 149.15C267.027 146.059 266.696 145.659 266.696 145.659" stroke="#263238" stroke-width="1.17749" stroke-linecap="round" stroke-linejoin="round"/>
<path d="M269.58 175.846C270.491 173.587 271.573 171.4 272.816 169.305C274.057 167.354 275.455 165.508 276.997 163.785" stroke="#263238" stroke-width="1.17749" stroke-linecap="round" stroke-linejoin="round"/>
<path d="M273.533 190.557C273.325 188.401 273.697 186.229 274.61 184.264C276.107 181.373 277.798 177.578 278.501 176.088" stroke="#263238" stroke-width="1.17749" stroke-linecap="round" stroke-linejoin="round"/>
<path d="M253.435 137.82C253.435 137.82 253.125 136.047 255.188 133.115C257.251 130.182 258.638 128.478 258.638 128.478C258.638 128.478 260.59 132.356 258.707 135.254C257.307 137.305 255.738 139.234 254.015 141.022L253.435 137.82Z" fill="#A4EFFF"/>
<path d="M258.982 148.35C258.982 148.35 258.672 146.563 260.735 143.637C262.798 140.712 264.185 139.007 264.185 139.007C264.185 139.007 266.138 142.892 264.254 145.783C262.856 147.835 261.287 149.765 259.562 151.552L258.982 148.35Z" fill="#A4EFFF"/>
<path d="M254.118 140.829C254.118 140.829 253.635 139.09 250.495 137.379C247.356 135.668 245.403 134.688 245.403 134.688C245.403 134.688 245.327 139.014 248.287 140.829C250.437 142.069 252.688 143.126 255.015 143.989L254.118 140.829Z" fill="#A4EFFF"/>
<path d="M260.768 153.214C260.768 153.214 260.078 151.538 256.793 150.137C253.509 148.736 251.446 147.998 251.446 147.998C251.446 147.998 251.825 152.324 254.951 153.801C257.22 154.807 259.57 155.622 261.975 156.237L260.768 153.214Z" fill="#A4EFFF"/>
<path d="M262.425 167.67C262.425 167.67 262.115 165.89 259.189 163.827C256.263 161.764 254.407 160.611 254.407 160.611C254.407 160.611 253.869 164.938 256.622 167.021C258.629 168.479 260.754 169.765 262.977 170.865L262.425 167.67Z" fill="#A4EFFF"/>
<path d="M263.069 171.182C263.069 171.182 262.51 169.464 264.138 166.276C265.767 163.088 266.898 161.205 266.898 161.205C266.898 161.205 269.382 164.765 267.933 167.904C266.828 170.132 265.54 172.265 264.083 174.28L263.069 171.182Z" fill="#A4EFFF"/>
<path d="M268.064 185.555C268.064 185.555 268.271 183.761 271.072 181.532C273.874 179.303 275.661 178.082 275.661 178.082C275.661 178.082 276.447 182.36 273.819 184.609C271.899 186.18 269.851 187.587 267.698 188.818L268.064 185.555Z" fill="#A4EFFF"/>
<path d="M267.324 181.125C267.324 181.125 267.013 179.338 264.087 177.275C261.162 175.212 259.313 174.066 259.313 174.066C259.313 174.066 258.774 178.393 261.521 180.477C263.53 181.933 265.658 183.219 267.882 184.32L267.324 181.125Z" fill="#A4EFFF"/>
<path d="M267.281 190.813C267.281 190.813 267.44 189.005 265.128 186.272C262.817 183.54 261.32 181.946 261.32 181.946C261.32 181.946 259.705 185.983 261.837 188.708C263.412 190.63 265.143 192.419 267.012 194.056L267.281 190.813Z" fill="#A4EFFF"/>
<path d="M253.122 137.406C253.571 139.241 254.122 141.049 254.771 142.823C256.634 147.743 259.67 150.606 261.45 155.036C263.231 159.466 261.45 165.89 263.21 171.665C264.969 177.44 267.867 180.318 267.888 184.395C267.909 188.473 266.336 199.741 266.336 199.741" stroke="#263238" stroke-width="1.17749" stroke-linecap="round" stroke-linejoin="round"/>
<path d="M254.346 142.009L251.303 140.415" stroke="#263238" stroke-width="1.17749" stroke-linecap="round" stroke-linejoin="round"/>
<path d="M253.807 139.656L254.586 137.462" stroke="#263238" stroke-width="1.17749" stroke-linecap="round" stroke-linejoin="round"/>
<path d="M261.272 154.85C261.272 154.85 258.726 153.553 256.125 152.262" stroke="#263238" stroke-width="1.17749" stroke-linecap="round" stroke-linejoin="round"/>
<path d="M259.534 151.551C260.283 149.189 261.27 146.91 262.48 144.748" stroke="#263238" stroke-width="1.17749" stroke-linecap="round" stroke-linejoin="round"/>
<path d="M262.776 170.237C261.078 168.093 259.079 166.206 256.842 164.634" stroke="#263238" stroke-width="1.17749" stroke-linecap="round" stroke-linejoin="round"/>
<path d="M263.645 172.665C264.048 170.941 264.595 169.254 265.28 167.621C266.239 165.448 266.404 165.165 266.404 165.165" stroke="#263238" stroke-width="1.17749" stroke-linecap="round" stroke-linejoin="round"/>
<path d="M267.758 187.473C268.745 186.246 269.84 185.11 271.028 184.078C271.785 183.517 272.496 182.897 273.154 182.222" stroke="#263238" stroke-width="1.17749" stroke-linecap="round" stroke-linejoin="round"/>
<path d="M267.891 184.396C267.066 183.079 266.144 181.827 265.131 180.649C264.14 179.567 263.062 178.568 261.909 177.661" stroke="#263238" stroke-width="1.17749" stroke-linecap="round" stroke-linejoin="round"/>
<path d="M267.027 194.056C266.917 192.674 266.441 191.348 265.647 190.212C264.391 188.556 262.887 186.362 262.321 185.5" stroke="#263238" stroke-width="1.17749" stroke-linecap="round" stroke-linejoin="round"/>
<path d="M280.263 219.172H262.144C261.784 219.172 261.438 219.031 261.18 218.78C260.922 218.528 260.773 218.186 260.764 217.826L258.163 197.775H284.189L281.588 217.826C281.58 218.177 281.438 218.511 281.192 218.761C280.946 219.011 280.614 219.158 280.263 219.172Z" fill="#263238"/>
<path d="M283.98 201.163H258.187C257.651 201.164 257.135 200.953 256.753 200.576C256.372 200.198 256.156 199.685 256.152 199.148C256.161 198.612 256.377 198.1 256.755 197.721C257.134 197.341 257.645 197.123 258.18 197.112H283.98C284.247 197.111 284.511 197.163 284.758 197.265C285.005 197.366 285.229 197.516 285.418 197.704C285.608 197.892 285.758 198.116 285.86 198.363C285.962 198.61 286.015 198.874 286.015 199.141C286.014 199.407 285.961 199.671 285.858 199.917C285.755 200.162 285.605 200.386 285.416 200.573C285.227 200.761 285.003 200.91 284.756 201.011C284.51 201.112 284.246 201.164 283.98 201.163Z" fill="#263238"/>
<path d="M225.839 148.564C225.838 154.227 223.918 159.722 220.394 164.154C216.869 168.586 211.946 171.694 206.429 172.969H206.353C205.698 173.114 205.042 173.245 204.366 173.342C203.18 173.511 201.983 173.596 200.785 173.597C194.236 173.574 187.956 170.987 183.291 166.39C178.626 161.794 175.946 155.554 175.825 149.006C175.704 142.458 178.152 136.123 182.644 131.357C187.137 126.592 193.317 123.775 199.86 123.51C200.088 123.51 200.33 123.51 200.55 123.51C200.624 123.503 200.698 123.503 200.771 123.51C200.856 123.503 200.942 123.503 201.027 123.51C204.407 123.532 207.746 124.248 210.838 125.615C215.298 127.568 219.092 130.78 221.756 134.855C224.42 138.931 225.839 143.695 225.839 148.564Z" fill="#A4EFFF"/>
<path opacity="0.4" d="M210.849 125.621C181.917 124.117 181.779 156.237 181.779 156.237C181.779 156.237 177.363 145.756 184.573 134.157C188.603 127.664 195.613 124.8 201.037 123.531C204.416 123.548 207.756 124.26 210.849 125.621Z" fill="white"/>
<path d="M225.837 148.564C225.837 154.241 223.909 159.749 220.369 164.187C216.828 168.624 211.886 171.728 206.351 172.99C204.525 173.41 202.657 173.621 200.783 173.618C194.138 173.74 187.717 171.218 182.932 166.607C178.147 161.995 175.39 155.671 175.267 149.026C175.144 142.381 177.666 135.96 182.278 131.175C186.89 126.39 193.214 123.633 199.859 123.51C200.162 123.51 200.473 123.51 200.783 123.51C207.427 123.512 213.799 126.152 218.497 130.85C223.195 135.548 225.835 141.92 225.837 148.564V148.564Z" stroke="#263238" stroke-linecap="round" stroke-linejoin="round"/>
<path d="M225.837 148.564C225.837 154.241 223.909 159.749 220.368 164.187C216.828 168.624 211.886 171.728 206.351 172.99C206.048 172.99 205.737 172.99 205.427 172.99C199.277 172.974 193.348 170.697 188.768 166.592C184.188 162.488 181.277 156.843 180.589 150.732C179.902 144.62 181.485 138.47 185.038 133.45C188.591 128.431 193.866 124.893 199.859 123.51C200.162 123.51 200.473 123.51 200.783 123.51C207.427 123.512 213.799 126.152 218.497 130.85C223.195 135.548 225.835 141.92 225.837 148.564V148.564Z" stroke="#263238" stroke-linecap="round" stroke-linejoin="round"/>
<path d="M209.414 164.22L210.062 166.87L205.729 167.925L205.08 165.283C201.203 165.283 198.091 162.764 197.097 158.721L196.8 157.52L201.582 155.788L201.886 157.037C202.486 159.494 204.107 160.673 206.129 160.177C206.573 160.108 206.996 159.943 207.37 159.694C207.744 159.446 208.06 159.119 208.296 158.737C208.531 158.354 208.681 157.925 208.734 157.479C208.788 157.034 208.744 156.581 208.606 156.154C208.027 153.794 205.322 152.318 202.189 150.793C198.484 148.999 194.661 146.722 193.613 142.437C192.591 138.255 193.875 134.771 197.18 133.046L196.531 130.396L200.858 129.341L201.506 131.983C205.267 131.928 208.068 134.405 209.096 138.683L209.31 139.553L204.535 141.284L204.294 140.325C203.659 137.724 202.32 136.627 200.54 137.062C198.76 137.496 198.022 138.856 198.539 140.967C199.119 143.327 201.858 144.748 204.956 146.335C208.62 148.191 212.484 150.406 213.533 154.684C214.589 158.804 212.905 162.474 209.414 164.22Z" stroke="#263238" stroke-miterlimit="10"/>
<path opacity="0.3" d="M209.414 164.22L210.062 166.87L205.729 167.925L205.08 165.283C201.203 165.283 198.091 162.764 197.097 158.721L196.8 157.52L201.582 155.788L201.886 157.037C202.486 159.494 204.107 160.673 206.129 160.177C206.573 160.108 206.996 159.943 207.37 159.694C207.744 159.446 208.06 159.119 208.296 158.737C208.531 158.354 208.681 157.925 208.734 157.479C208.788 157.034 208.744 156.581 208.606 156.154C208.027 153.794 205.322 152.318 202.189 150.793C198.484 148.999 194.661 146.722 193.613 142.437C192.591 138.255 193.875 134.771 197.18 133.046L196.531 130.396L200.858 129.341L201.506 131.983C205.267 131.928 208.068 134.405 209.096 138.683L209.31 139.553L204.535 141.284L204.294 140.325C203.659 137.724 202.32 136.627 200.54 137.062C198.76 137.496 198.022 138.856 198.539 140.967C199.119 143.327 201.858 144.748 204.956 146.335C208.62 148.191 212.484 150.406 213.533 154.684C214.589 158.804 212.905 162.474 209.414 164.22Z" fill="black"/>
<path d="M187.977 170.106L193.269 169.864" stroke="#263238" stroke-linecap="round" stroke-linejoin="round"/>
<path d="M185.432 168.346L190.048 167.953" stroke="#263238" stroke-linecap="round" stroke-linejoin="round"/>
<path d="M183.362 166.49L187.978 166.097" stroke="#263238" stroke-linecap="round" stroke-linejoin="round"/>
<path d="M182.726 131.19H186.68" stroke="#263238" stroke-linecap="round" stroke-linejoin="round"/>
<path d="M184.677 129.368L188.617 129.189" stroke="#263238" stroke-linecap="round" stroke-linejoin="round"/>
<path d="M187.149 127.54L191.303 127.146" stroke="#263238" stroke-linecap="round" stroke-linejoin="round"/>
<path opacity="0.3" d="M206.429 172.969H206.353C204.527 173.39 202.659 173.6 200.785 173.597C194.236 173.574 187.956 170.987 183.291 166.39C178.626 161.794 175.946 155.554 175.825 149.006C175.704 142.458 178.152 136.123 182.644 131.357C187.137 126.592 193.317 123.775 199.86 123.51C200.088 123.51 200.33 123.51 200.55 123.51C194.444 125.435 184.197 130.355 181.458 140.615C177.587 155.195 186.302 171.748 206.429 172.969Z" fill="black"/>
<path opacity="0.1" d="M225.837 148.564C225.836 154.227 223.916 159.722 220.391 164.154C216.866 168.586 211.944 171.694 206.427 172.969H206.351C205.695 173.114 205.04 173.245 204.364 173.342L210.85 125.601C215.309 127.558 219.102 130.772 221.764 134.85C224.425 138.928 225.841 143.694 225.837 148.564Z" fill="black"/>
<path d="M240.053 109.124C238.069 111.926 235.194 113.973 231.897 114.93C228.6 115.888 225.075 115.699 221.899 114.395L221.809 114.354C221.338 114.147 220.878 113.916 220.429 113.664C219.923 113.392 219.434 113.087 218.967 112.753C215.91 110.419 213.854 107.011 213.212 103.219C212.571 99.427 213.394 95.5329 215.513 92.3236C217.632 89.1143 220.891 86.8291 224.63 85.9297C228.37 85.0303 232.311 85.5838 235.658 87.4784L235.996 87.6923C236.155 87.782 236.306 87.8924 236.465 88.0028C236.624 88.1132 236.927 88.3409 237.155 88.5203C240.171 90.9395 242.151 94.4185 242.689 98.2474C243.228 102.076 242.285 105.966 240.053 109.124Z" fill="#A4EFFF"/>
<path opacity="0.4" d="M217.185 109.331C217.185 109.331 214.708 102.038 217.999 96.6694C222.139 89.9419 228.48 86.8714 237.112 88.5274C237.112 88.5274 232.434 85.3672 224.602 87.6097C216.771 89.8522 212.569 100.63 217.185 109.331Z" fill="white"/>
<path d="M240.05 109.131C238.065 111.93 235.188 113.975 231.891 114.929C228.594 115.884 225.071 115.694 221.896 114.388C220.849 113.96 219.853 113.414 218.929 112.76C215.854 110.401 213.797 106.954 213.182 103.127C212.566 99.2996 213.438 95.3819 215.618 92.1769C217.799 88.9719 221.123 86.7225 224.908 85.8899C228.694 85.0574 232.655 85.7047 235.979 87.6992C236.131 87.7889 236.29 87.8924 236.442 88.0028C239.717 90.3301 241.935 93.8607 242.612 97.821C243.288 101.781 242.367 105.848 240.05 109.131Z" stroke="#263238" stroke-linecap="round" stroke-linejoin="round"/>
<path d="M240.051 109.131C238.065 111.931 235.189 113.975 231.892 114.93C228.595 115.884 225.072 115.694 221.897 114.389L221.435 114.085C218.437 111.912 216.337 108.719 215.53 105.105C214.722 101.492 215.263 97.7083 217.05 94.4659C218.838 91.2236 221.748 88.7462 225.235 87.5C228.721 86.2538 232.543 86.3247 235.98 87.6994C236.132 87.7891 236.291 87.8926 236.443 88.003C239.718 90.3302 241.936 93.8608 242.613 97.8211C243.289 101.781 242.368 105.848 240.051 109.131Z" stroke="#263238" stroke-linecap="round" stroke-linejoin="round"/>
<path d="M226.463 111.146L225.863 112.677L223.351 111.691L223.952 110.152C223.02 109.496 222.345 108.536 222.043 107.437C221.741 106.338 221.83 105.169 222.296 104.128L222.572 103.438L225.539 104.246L225.256 104.977C224.697 106.398 225.076 107.544 226.249 108.006C226.493 108.127 226.76 108.194 227.032 108.202C227.303 108.21 227.574 108.158 227.824 108.051C228.074 107.944 228.298 107.784 228.48 107.582C228.662 107.38 228.798 107.141 228.878 106.881C229.417 105.501 228.595 103.838 227.581 101.996C226.38 99.8157 225.29 97.3593 226.263 94.8753C227.236 92.3913 229.072 91.1769 231.3 91.4805L231.907 89.9487L234.412 90.9354L233.812 92.4603C235.689 93.7437 236.206 95.9103 235.233 98.4288L235.033 98.9256L232.066 98.1183L232.287 97.5594C232.88 96.0552 232.604 95.0409 231.597 94.6338C230.59 94.2267 229.727 94.6338 229.244 95.8689C228.706 97.2489 229.568 98.8911 230.541 100.754C231.707 102.955 232.839 105.398 231.866 107.875C231.497 108.971 230.752 109.9 229.763 110.499C228.774 111.098 227.605 111.327 226.463 111.146V111.146Z" stroke="#263238" stroke-miterlimit="10"/>
<path opacity="0.3" d="M226.463 111.146L225.863 112.677L223.351 111.691L223.952 110.152C223.02 109.496 222.345 108.536 222.043 107.437C221.741 106.338 221.83 105.169 222.296 104.128L222.572 103.438L225.539 104.246L225.256 104.977C224.697 106.398 225.076 107.544 226.249 108.006C226.493 108.127 226.76 108.194 227.032 108.202C227.303 108.21 227.574 108.158 227.824 108.051C228.074 107.944 228.298 107.784 228.48 107.582C228.662 107.38 228.798 107.141 228.878 106.881C229.417 105.501 228.595 103.838 227.581 101.996C226.38 99.8157 225.29 97.3593 226.263 94.8753C227.236 92.3913 229.072 91.1769 231.3 91.4805L231.907 89.9487L234.412 90.9354L233.812 92.4603C235.689 93.7437 236.206 95.9103 235.233 98.4288L235.033 98.9256L232.066 98.1183L232.287 97.5594C232.88 96.0552 232.604 95.0409 231.597 94.6338C230.59 94.2267 229.727 94.6338 229.244 95.8689C228.706 97.2489 229.568 98.8911 230.541 100.754C231.707 102.955 232.839 105.398 231.866 107.875C231.497 108.971 230.752 109.9 229.763 110.499C228.774 111.098 227.605 111.327 226.463 111.146Z" fill="black"/>
<path opacity="0.3" d="M235.62 87.4853C231.48 86.747 226.236 86.3399 223.407 88.1753C218.211 91.508 214.975 95.7101 215.023 102.52C215.071 109.331 221.433 114.105 221.433 114.105L221.806 114.375C220.791 113.951 219.826 113.416 218.929 112.781C215.872 110.446 213.815 107.039 213.174 103.247C212.533 99.4546 213.355 95.5605 215.475 92.3512C217.594 89.1419 220.853 86.8567 224.592 85.9573C228.331 85.0579 232.273 85.6114 235.62 87.506V87.4853Z" fill="black"/>
<path opacity="0.1" d="M240.052 109.124C238.068 111.926 235.193 113.973 231.896 114.93C228.598 115.888 225.074 115.699 221.898 114.395L221.808 114.354C221.337 114.147 220.877 113.916 220.428 113.664L237.112 88.5271C240.133 90.9403 242.119 94.4151 242.666 98.2426C243.212 102.07 242.277 105.962 240.052 109.124Z" fill="black"/>
</g>
<defs>
<clipPath id="clip0_38_1544">
<rect width="345" height="238" fill="white"/>
</clipPath>
</defs>
</svg>
