<svg width="345" height="230" viewBox="0 0 345 230" fill="none" xmlns="http://www.w3.org/2000/svg">
<path d="M319.023 161.198C319.023 161.198 334.07 94.6681 293.075 56.9251C256.886 23.6073 199.593 10.6445 152.89 38.1801C136.251 47.9965 124.14 67.0589 104.7 72.9469C82.9051 79.5525 54.8819 81.9123 34.6419 110.207C14.4019 138.502 21.6699 174.846 48.6535 194.194C75.6371 213.541 122.861 194.654 165.415 193.246C207.97 191.839 296.699 243.294 319.023 161.198Z" fill="#A4EFFF"/>
<path opacity="0.7" d="M319.023 161.198C319.023 161.198 334.07 94.6681 293.075 56.9251C256.886 23.6073 199.593 10.6445 152.89 38.1801C136.251 47.9965 124.14 67.0589 104.7 72.9469C82.9051 79.5525 54.8819 81.9123 34.6419 110.207C14.4019 138.502 21.6699 174.846 48.6535 194.194C75.6371 213.541 122.861 194.654 165.415 193.246C207.97 191.839 296.699 243.294 319.023 161.198Z" fill="white"/>
<path d="M329.36 206.135H335.8" stroke="#263238" stroke-linecap="round" stroke-linejoin="round"/>
<path d="M27.5972 206.135H326.137" stroke="#263238" stroke-linecap="round" stroke-linejoin="round"/>
<path d="M14.2583 206.135H23.9183" stroke="#263238" stroke-linecap="round" stroke-linejoin="round"/>
<g opacity="0.2">
<path opacity="0.2" d="M66.3524 108.155C65.1487 108.155 63.9721 108.512 62.9713 109.181C61.9705 109.849 61.1905 110.8 60.7299 111.912C60.2692 113.024 60.1487 114.248 60.3835 115.428C60.6184 116.609 61.198 117.693 62.0491 118.544C62.9002 119.395 63.9846 119.975 65.1651 120.21C66.3457 120.445 67.5693 120.324 68.6813 119.863C69.7934 119.403 70.7438 118.623 71.4126 117.622C72.0813 116.621 72.4382 115.444 72.4382 114.241C72.437 112.627 71.7954 111.08 70.6544 109.939C69.5133 108.798 67.9661 108.156 66.3524 108.155V108.155ZM66.9734 117.958V118.542H65.9384V117.958C65.0184 117.774 64.5584 117.074 64.5584 115.984V115.432H65.7774V116.067C65.7774 116.637 66.0304 116.844 66.4306 116.844C66.8308 116.844 67.0838 116.637 67.0838 116.067C67.0838 114.416 64.6182 114.333 64.6182 112.042C64.6182 110.966 65.0782 110.276 65.9476 110.082V109.48H66.9826V110.078C67.875 110.262 68.335 110.947 68.335 112.037V112.29H67.1574V111.955C67.1574 111.384 66.9274 111.163 66.5272 111.163C66.127 111.163 65.897 111.384 65.897 111.955C65.897 113.606 68.358 113.689 68.358 115.98C68.335 117.074 67.8658 117.76 66.9734 117.958Z" stroke="black" stroke-miterlimit="10"/>
<path opacity="0.2" d="M66.3543 105.712C64.6673 105.711 63.018 106.211 61.6149 107.147C60.2118 108.084 59.118 109.416 58.4718 110.974C57.8256 112.532 57.6561 114.247 57.9846 115.902C58.3132 117.556 59.125 119.076 60.3176 120.27C61.5101 121.463 63.0297 122.276 64.6842 122.605C66.3387 122.934 68.0537 122.766 69.6123 122.12C71.1709 121.475 72.5032 120.382 73.4405 118.979C74.3778 117.577 74.8781 115.928 74.8781 114.241C74.8781 111.98 73.9802 109.811 72.3818 108.212C70.7834 106.613 68.6154 105.714 66.3543 105.712V105.712ZM66.3543 121.242C64.9685 121.242 63.6138 120.831 62.4616 120.061C61.3094 119.291 60.4115 118.197 59.8813 116.916C59.3512 115.636 59.2128 114.227 59.4834 112.868C59.7541 111.509 60.4218 110.26 61.4021 109.281C62.3823 108.301 63.6311 107.634 64.9904 107.364C66.3497 107.095 67.7584 107.234 69.0385 107.765C70.3186 108.296 71.4124 109.195 72.1817 110.347C72.9509 111.5 73.361 112.855 73.3601 114.241C73.3577 116.098 72.6186 117.878 71.3052 119.19C69.9917 120.503 68.2112 121.241 66.3543 121.242Z" stroke="black" stroke-miterlimit="10"/>
</g>
<g opacity="0.2">
<path opacity="0.2" d="M189.52 46.2205C187.964 46.2196 186.442 46.6801 185.148 47.5439C183.854 48.4077 182.845 49.6358 182.249 51.0731C181.653 52.5103 181.497 54.0921 181.8 55.6182C182.103 57.1444 182.851 58.5464 183.951 59.6469C185.051 60.7475 186.453 61.4971 187.979 61.801C189.505 62.1049 191.086 61.9494 192.524 61.3541C193.962 60.7589 195.19 59.7507 196.055 58.4571C196.919 57.1634 197.381 55.6424 197.381 54.0865C197.379 52.0018 196.55 50.0032 195.076 48.5287C193.602 47.0542 191.604 46.2241 189.52 46.2205V46.2205ZM190.334 58.8797V59.6341H189V58.8797C187.831 58.6405 187.238 57.7343 187.238 56.3267V55.6137H188.779V56.4325C188.779 57.1731 189.106 57.4399 189.625 57.4399C190.145 57.4399 190.467 57.1731 190.467 56.4325C190.467 54.2981 187.279 54.1923 187.279 51.2253C187.279 49.8453 187.859 48.9253 189 48.6907V47.9225H190.334V48.6907C191.493 48.9299 192.086 49.8177 192.086 51.2253V51.5519H190.541V51.1241C190.541 50.3835 190.246 50.0983 189.727 50.0983C189.207 50.0983 188.912 50.3835 188.912 51.1241C188.912 53.2585 192.1 53.3643 192.1 56.3267C192.1 57.7527 191.493 58.6589 190.334 58.8797Z" stroke="black" stroke-miterlimit="10"/>
<path opacity="0.2" d="M189.519 43.0649C187.335 43.0649 185.201 43.7124 183.385 44.9255C181.57 46.1386 180.154 47.8628 179.319 49.8801C178.483 51.8974 178.265 54.1172 178.691 56.2587C179.117 58.4003 180.168 60.3674 181.712 61.9114C183.256 63.4554 185.223 64.5068 187.365 64.9328C189.506 65.3588 191.726 65.1402 193.743 64.3046C195.761 63.469 197.485 62.054 198.698 60.2384C199.911 58.4229 200.559 56.2884 200.559 54.1049C200.559 51.177 199.395 48.3689 197.325 46.2985C195.255 44.2281 192.447 43.0649 189.519 43.0649V43.0649ZM189.519 63.1439C187.727 63.1449 185.975 62.6144 184.485 61.6197C182.995 60.625 181.834 59.2108 181.147 57.5558C180.461 55.9009 180.281 54.0796 180.63 52.3224C180.979 50.5651 181.841 48.9508 183.108 47.6836C184.374 46.4165 185.988 45.5534 187.745 45.2035C189.502 44.8537 191.324 45.0328 192.979 45.7182C194.634 46.4036 196.049 47.5645 197.045 49.054C198.04 50.5436 198.571 52.295 198.571 54.0865C198.569 56.4872 197.614 58.7888 195.917 60.4868C194.22 62.1847 191.919 63.1403 189.519 63.1439V63.1439Z" stroke="black" stroke-miterlimit="10"/>
</g>
<g opacity="0.2">
<path opacity="0.2" d="M131.74 21.1045C129.514 21.1054 127.338 21.7663 125.488 23.0037C123.638 24.2411 122.196 25.9994 121.344 28.0563C120.493 30.1132 120.271 32.3763 120.706 34.5595C121.14 36.7427 122.213 38.7479 123.787 40.3217C125.362 41.8954 127.367 42.967 129.551 43.4009C131.734 43.8349 133.997 43.6117 136.054 42.7596C138.11 41.9075 139.868 40.4648 141.105 38.6138C142.341 36.7629 143.001 34.5868 143.001 32.3607C142.999 29.3753 141.811 26.513 139.7 24.4024C137.589 22.2919 134.726 21.1057 131.74 21.1045V21.1045ZM132.886 39.2423V40.3233H130.977V39.2423C129.302 38.9019 128.451 37.6093 128.451 35.5945V34.5733H130.659V35.7417C130.659 36.8043 131.119 37.1861 131.869 37.1861C132.619 37.1861 133.079 36.8043 133.079 35.7417C133.079 32.6873 128.516 32.5217 128.516 28.2943C128.516 26.2979 129.344 25.0237 130.977 24.6649V23.5609H132.886V24.6649C134.542 25.0053 135.388 26.2749 135.388 28.2943V28.7543H133.185V28.1425C133.185 27.0845 132.757 26.6797 132.016 26.6797C131.276 26.6797 130.848 27.0845 130.848 28.1425C130.848 31.2015 135.411 31.3625 135.411 35.5945C135.411 37.6093 134.542 38.9019 132.886 39.2423Z" stroke="black" stroke-miterlimit="10"/>
<path opacity="0.2" d="M131.741 16.5828C128.62 16.5837 125.57 17.5098 122.976 19.2441C120.382 20.9783 118.36 23.4428 117.167 26.326C115.974 29.2091 115.662 32.3814 116.271 35.4417C116.88 38.5021 118.383 41.313 120.59 43.5191C122.797 45.7253 125.608 47.2275 128.669 47.8359C131.729 48.4444 134.902 48.1316 137.784 46.9373C140.667 45.743 143.131 43.7207 144.865 41.1261C146.598 38.5315 147.523 35.4812 147.523 32.3608C147.523 30.2884 147.115 28.2363 146.322 26.3217C145.529 24.4071 144.366 22.6676 142.9 21.2024C141.435 19.7372 139.695 18.5751 137.78 17.7825C135.865 16.9898 133.813 16.5822 131.741 16.5828V16.5828ZM131.741 45.3236C129.177 45.3236 126.671 44.5633 124.539 43.1389C122.407 41.7146 120.746 39.6901 119.765 37.3214C118.784 34.9528 118.527 32.3464 119.027 29.8318C119.527 27.3173 120.762 25.0076 122.575 23.1947C124.387 21.3818 126.697 20.1472 129.212 19.647C131.726 19.1469 134.333 19.4036 136.701 20.3847C139.07 21.3658 141.094 23.0273 142.519 25.159C143.943 27.2907 144.703 29.797 144.703 32.3608C144.7 35.7976 143.333 39.0926 140.903 41.5228C138.473 43.953 135.178 45.3199 131.741 45.3236Z" stroke="black" stroke-miterlimit="10"/>
</g>
<g opacity="0.2">
<path opacity="0.2" d="M246.184 37.9175H241.584V48.4975H246.184V37.9175Z" stroke="black" stroke-miterlimit="10"/>
<path opacity="0.2" d="M252.162 31.6157H247.562V48.4977H252.162V31.6157Z" stroke="black" stroke-miterlimit="10"/>
<path opacity="0.2" d="M258.144 33.856H253.544V48.4978H258.144V33.856Z" stroke="black" stroke-miterlimit="10"/>
<path opacity="0.2" d="M264.126 30.2126H259.526V48.4976H264.126V30.2126Z" stroke="black" stroke-miterlimit="10"/>
<path opacity="0.2" d="M249.733 27.2457L255.087 32.5955L262.066 27.4021L263.188 25.4471L264.379 26.1371L264.375 22.4663L261.201 24.3063L262.392 24.9917L261.362 26.7765L255.175 31.3857L249.6 25.8105L242.985 35.5119L243.744 36.0317L249.733 27.2457Z" stroke="black" stroke-miterlimit="10"/>
</g>
<g opacity="0.2">
<path opacity="0.2" d="M54.5411 44.9971H50.6357V53.9763H54.5411V44.9971Z" stroke="black" stroke-miterlimit="10"/>
<path opacity="0.2" d="M59.6193 39.647H55.7139V53.9806H59.6193V39.647Z" stroke="black" stroke-miterlimit="10"/>
<path opacity="0.2" d="M64.694 41.5469H60.7886V53.9761H64.694V41.5469Z" stroke="black" stroke-miterlimit="10"/>
<path opacity="0.2" d="M69.7716 38.4556H65.8662V53.976H69.7716V38.4556Z" stroke="black" stroke-miterlimit="10"/>
<path opacity="0.2" d="M57.5587 35.9395L62.099 40.4797L68.0238 36.0683L68.976 34.4123L69.988 34.9965L69.9834 31.8823L67.2878 33.4417L68.2998 34.0213L67.4258 35.5393L62.1726 39.4493L57.4437 34.7205L51.8271 42.9545L52.4711 43.3961L57.5587 35.9395Z" stroke="black" stroke-miterlimit="10"/>
</g>
<g opacity="0.2">
<path opacity="0.2" d="M299.926 112.902H292.901V129.053H299.926V112.902Z" stroke="black" stroke-miterlimit="10"/>
<path opacity="0.2" d="M309.053 103.283H302.028V129.057H309.053V103.283Z" stroke="black" stroke-miterlimit="10"/>
<path opacity="0.2" d="M318.183 106.701H311.159V129.053H318.183V106.701Z" stroke="black" stroke-miterlimit="10"/>
<path opacity="0.2" d="M327.31 101.145H320.286V129.053H327.31V101.145Z" stroke="black" stroke-miterlimit="10"/>
<path opacity="0.2" d="M305.344 96.6135L313.514 104.778L324.167 96.8481L325.878 93.8673L327.7 94.9161L327.691 89.3179L322.847 92.1239L324.664 93.1681L323.095 95.8959L313.647 102.929L305.142 94.4193L295.04 109.231L296.199 110.022L305.344 96.6135Z" stroke="black" stroke-miterlimit="10"/>
</g>
<path d="M323.378 163.144C323.378 163.144 324.758 162.081 324.859 162.003C325.779 161.083 327.039 158.783 326.391 157.495C326.277 157.282 326.119 157.095 325.928 156.947C325.737 156.799 325.517 156.693 325.282 156.636C325.047 156.578 324.803 156.571 324.565 156.615C324.328 156.658 324.102 156.751 323.902 156.888C323.037 157.435 322.669 158.645 322.587 159.611C322.499 160.747 323.378 163.139 323.378 163.144Z" fill="#263238"/>
<path d="M335.056 160.466C334.008 159.459 331.436 159.979 330.295 160.6C330.199 160.65 328.75 161.662 328.768 161.681H328.796C328.391 161.759 327.954 161.846 327.48 161.957C326.611 162.159 325.64 162.417 324.573 162.734C323.436 163.082 322.319 163.493 321.229 163.967C320.008 164.498 318.835 165.133 317.724 165.867C317.724 165.867 317.701 165.89 317.687 165.894C317.949 165.563 318.662 164.611 318.708 164.514C319.361 163.392 319.964 160.834 318.993 159.762C318.827 159.587 318.626 159.449 318.403 159.357C318.18 159.265 317.94 159.221 317.699 159.227C317.458 159.234 317.221 159.291 317.003 159.395C316.785 159.499 316.592 159.648 316.436 159.831C315.746 160.59 315.709 161.855 315.888 162.808C316.091 163.884 317.452 165.821 317.558 165.977C316.448 166.754 315.39 167.604 314.393 168.521C313.809 169.05 313.234 169.606 312.668 170.168C312.889 169.873 313.087 169.606 313.128 169.565C313.781 168.447 314.384 165.885 313.413 164.813C313.247 164.638 313.045 164.5 312.822 164.408C312.599 164.315 312.358 164.271 312.117 164.278C311.875 164.284 311.638 164.341 311.42 164.445C311.202 164.55 311.008 164.698 310.851 164.882C310.161 165.641 310.124 166.906 310.304 167.858C310.483 168.811 311.615 170.503 311.918 170.945L311.27 171.594C310.244 172.642 309.223 173.696 308.188 174.694C307.824 175.048 307.452 175.384 307.084 175.72C307.277 175.458 307.443 175.232 307.461 175.195C308.114 174.078 308.717 171.515 307.746 170.444C307.58 170.269 307.379 170.131 307.156 170.038C306.933 169.946 306.693 169.902 306.452 169.908C306.211 169.915 305.974 169.972 305.756 170.076C305.538 170.18 305.345 170.329 305.189 170.513C304.499 171.272 304.462 172.537 304.641 173.489C304.821 174.441 305.842 175.968 306.201 176.493C305.81 176.824 305.419 177.16 305.028 177.463C304.756 177.666 304.508 177.877 304.223 178.066L303.395 178.636C302.852 178.977 302.3 179.335 301.766 179.653L300.662 180.32C301.026 179.97 301.729 179.276 301.785 179.211C302.467 178.297 302.904 177.223 303.054 176.092C303.136 175.994 303.208 175.887 303.27 175.775C303.392 175.567 303.469 175.335 303.496 175.095C303.522 174.856 303.498 174.613 303.425 174.383C303.352 174.153 303.231 173.941 303.07 173.761C302.91 173.581 302.713 173.436 302.493 173.337C301.154 172.776 298.942 174.183 298.1 175.177C298.049 175.232 297.58 175.927 297.29 176.368C297.419 176.083 297.553 175.807 297.681 175.513C297.944 174.929 298.187 174.34 298.454 173.71L298.808 172.79C298.937 172.477 299.029 172.132 299.14 171.801C299.383 171.032 299.6 170.237 299.788 169.432C300.299 169.662 302.12 170.448 303.096 170.448C304.071 170.448 305.299 170.186 305.92 169.367C306.073 169.18 306.184 168.963 306.247 168.73C306.311 168.497 306.324 168.253 306.287 168.014C306.249 167.775 306.162 167.547 306.031 167.344C305.899 167.142 305.727 166.969 305.524 166.837C304.282 166.078 301.886 167.136 300.901 167.987C300.837 168.038 300.202 168.723 299.857 169.11C299.972 168.627 300.087 168.144 300.184 167.651C300.464 166.225 300.708 164.772 300.952 163.327L301.187 162.003C301.371 162.085 303.514 163.065 304.609 163.07C305.575 163.07 306.812 162.803 307.433 161.984C307.586 161.797 307.697 161.58 307.76 161.347C307.823 161.114 307.835 160.87 307.798 160.632C307.76 160.394 307.672 160.166 307.541 159.964C307.409 159.762 307.236 159.59 307.033 159.459C305.796 158.7 303.395 159.758 302.433 160.604C302.355 160.669 301.44 161.658 301.219 161.924C301.394 160.949 301.578 159.983 301.794 159.036C302.085 157.758 302.457 156.499 302.907 155.268C302.99 155.31 305.207 156.34 306.348 156.345C307.314 156.345 308.551 156.078 309.172 155.264C309.325 155.076 309.436 154.859 309.499 154.625C309.562 154.392 309.574 154.148 309.537 153.909C309.499 153.671 309.411 153.443 309.28 153.24C309.148 153.037 308.975 152.865 308.772 152.734C307.535 151.975 305.133 153.033 304.172 153.879C304.094 153.948 303.109 155.011 302.944 155.218C302.971 155.149 302.99 155.07 303.017 155.001C303.504 153.78 304.098 152.604 304.793 151.487C305.17 150.866 305.566 150.291 305.961 149.744C306.357 149.978 308.183 151.032 309.181 151.147C310.18 151.262 311.403 151.124 312.107 150.383C312.279 150.214 312.414 150.01 312.502 149.785C312.591 149.561 312.631 149.32 312.62 149.079C312.609 148.837 312.548 148.601 312.439 148.385C312.331 148.169 312.179 147.979 311.992 147.825C310.842 146.933 308.34 147.724 307.272 148.456C307.213 148.497 306.665 148.966 306.27 149.316C306.454 149.072 306.638 148.815 306.817 148.585C307.489 147.715 308.16 146.961 308.758 146.285C309.099 145.907 309.416 145.576 309.72 145.268C310.23 145.295 312.286 145.383 313.211 145.024C314.136 144.665 315.171 143.984 315.456 142.995C315.531 142.766 315.556 142.523 315.531 142.283C315.506 142.043 315.43 141.811 315.309 141.602C315.188 141.393 315.024 141.212 314.828 141.071C314.632 140.93 314.409 140.832 314.172 140.783C312.746 140.521 310.888 142.375 310.276 143.52C310.226 143.617 309.572 145.259 309.6 145.263H309.632C309.338 145.553 309.025 145.866 308.712 146.22C308.096 146.869 307.41 147.6 306.716 148.47C305.959 149.387 305.256 150.347 304.609 151.345C303.88 152.459 303.252 153.637 302.732 154.863C302.735 154.879 302.735 154.894 302.732 154.91C302.774 154.486 302.838 153.295 302.833 153.203C302.76 151.91 301.854 149.449 300.451 149.063C300.215 149.009 299.971 149.005 299.734 149.051C299.497 149.098 299.272 149.194 299.074 149.332C298.877 149.471 298.71 149.65 298.586 149.857C298.462 150.064 298.382 150.295 298.353 150.535C298.197 151.547 298.864 152.623 299.535 153.318C300.299 154.104 302.507 154.969 302.682 155.038C302.183 156.299 301.769 157.591 301.444 158.907C301.246 159.675 301.076 160.452 300.915 161.234C300.915 160.866 300.952 160.535 300.947 160.489C300.874 159.192 299.972 156.731 298.565 156.349C298.329 156.295 298.085 156.29 297.847 156.336C297.61 156.382 297.385 156.478 297.187 156.617C296.989 156.756 296.823 156.935 296.699 157.142C296.575 157.35 296.496 157.581 296.467 157.821C296.311 158.833 296.978 159.91 297.654 160.604C298.33 161.299 300.202 162.085 300.699 162.283L300.52 163.203C300.244 164.648 299.968 166.087 299.659 167.49C299.549 167.987 299.425 168.47 299.301 168.953C299.301 168.627 299.333 168.355 299.328 168.309C299.255 167.017 298.353 164.556 296.945 164.169C296.71 164.115 296.466 164.111 296.229 164.158C295.992 164.204 295.767 164.3 295.569 164.439C295.371 164.577 295.205 164.756 295.081 164.963C294.956 165.171 294.877 165.401 294.848 165.641C294.691 166.653 295.358 167.73 296.035 168.424C296.711 169.119 298.404 169.832 298.992 170.071C298.85 170.563 298.707 171.055 298.532 171.525C298.413 171.847 298.325 172.159 298.192 172.472C298.059 172.785 297.939 173.098 297.815 173.392C297.553 173.972 297.286 174.579 297.019 175.14C296.835 175.531 296.651 175.904 296.467 176.276C296.582 175.784 296.789 174.818 296.794 174.735C296.918 173.443 296.398 170.871 295.064 170.296C294.839 170.207 294.598 170.165 294.356 170.175C294.115 170.185 293.878 170.245 293.661 170.352C293.444 170.459 293.252 170.611 293.097 170.797C292.943 170.983 292.829 171.2 292.764 171.433C292.456 172.412 292.953 173.576 293.514 174.367C294.13 175.237 296.094 176.391 296.343 176.534C296.035 177.15 295.736 177.748 295.423 178.305C295.036 179.041 294.668 179.722 294.319 180.347C294.475 180.577 294.673 180.863 294.903 181.189C295.303 180.444 295.736 179.611 296.186 178.696C296.499 178.07 296.821 177.399 297.143 176.7C297.848 176.895 298.564 177.049 299.287 177.16C299.388 178.25 300.322 180.163 300.446 180.407C299.848 180.757 299.268 181.088 298.712 181.392C297.76 181.916 296.872 182.381 296.085 182.772L296.66 183.512C297.415 183.107 298.243 182.647 299.135 182.132C299.742 181.783 300.382 181.396 301.035 180.991C301.219 181.203 302.714 182.933 303.684 183.379C304.563 183.788 305.796 184.064 306.702 183.581C306.919 183.476 307.112 183.325 307.267 183.14C307.422 182.955 307.536 182.739 307.602 182.507C307.668 182.275 307.684 182.031 307.65 181.792C307.615 181.553 307.53 181.324 307.401 181.12C306.592 179.91 303.97 179.869 302.723 180.2C302.649 180.223 301.877 180.541 301.389 180.748C301.656 180.582 301.918 180.426 302.189 180.251C302.728 179.91 303.257 179.556 303.827 179.174L304.646 178.586C304.922 178.397 305.189 178.162 305.465 177.946C306.09 177.44 306.702 176.893 307.305 176.327C307.604 176.787 308.685 178.461 309.503 179C310.322 179.538 311.486 179.993 312.457 179.657C312.687 179.585 312.9 179.464 313.08 179.304C313.261 179.144 313.407 178.948 313.507 178.728C313.607 178.508 313.66 178.269 313.662 178.028C313.664 177.786 313.615 177.547 313.519 177.325C312.903 176.01 310.299 175.573 309.03 175.734C308.951 175.734 308.041 175.968 307.544 176.097C307.903 175.757 308.266 175.416 308.62 175.057C309.641 174.027 310.64 172.951 311.647 171.879C311.951 171.552 312.263 171.226 312.567 170.904C312.673 171.074 313.924 173.075 314.83 173.664C315.64 174.202 316.817 174.662 317.783 174.321C318.014 174.249 318.226 174.129 318.407 173.97C318.588 173.81 318.733 173.614 318.833 173.394C318.934 173.175 318.986 172.937 318.989 172.696C318.991 172.454 318.942 172.215 318.846 171.994C318.23 170.674 315.626 170.237 314.361 170.398C314.264 170.398 312.953 170.733 312.622 170.83C313.303 170.117 314.002 169.409 314.692 168.742C315.639 167.834 316.644 166.988 317.701 166.212C317.751 166.29 319.044 168.387 319.973 169.004C320.783 169.542 321.96 170.002 322.931 169.662C323.146 169.586 323.345 169.468 323.515 169.315C323.684 169.162 323.822 168.977 323.919 168.77C324.016 168.563 324.071 168.339 324.081 168.111C324.09 167.882 324.054 167.654 323.975 167.44C323.359 166.12 320.755 165.683 319.485 165.844C319.384 165.844 317.977 166.202 317.724 166.304L317.908 166.161C318.988 165.411 320.134 164.758 321.33 164.211C321.983 163.902 322.632 163.64 323.262 163.401C323.464 163.815 324.403 165.701 325.18 166.354C325.958 167.007 327.043 167.559 328.046 167.329C328.282 167.283 328.505 167.187 328.702 167.049C328.899 166.91 329.064 166.732 329.187 166.526C329.311 166.319 329.39 166.089 329.419 165.851C329.448 165.612 329.427 165.37 329.357 165.14C328.897 163.76 326.367 163.042 325.07 163.065C325.001 163.065 324.283 163.157 323.763 163.231C324.053 163.13 324.348 163.015 324.624 162.923C325.663 162.568 326.638 162.306 327.503 162.085C327.995 161.961 328.423 161.86 328.883 161.768C329.293 162.072 330.962 163.277 331.928 163.493C332.894 163.709 334.141 163.705 334.923 163.033C335.112 162.881 335.268 162.691 335.378 162.475C335.489 162.259 335.553 162.022 335.565 161.78C335.578 161.537 335.539 161.295 335.451 161.068C335.364 160.842 335.229 160.637 335.056 160.466Z" fill="#263238"/>
<path d="M303.281 146.951C303.829 147.945 305.885 149.458 305.89 149.458C305.894 149.458 306.474 147.802 306.497 147.692C306.768 146.422 306.543 143.81 305.287 143.092C305.074 142.977 304.84 142.909 304.599 142.89C304.358 142.872 304.116 142.905 303.889 142.987C303.661 143.068 303.454 143.197 303.279 143.364C303.105 143.531 302.968 143.733 302.877 143.957C302.458 144.9 302.817 146.1 303.281 146.951Z" fill="#263238"/>
<path d="M81.8153 51.1195C81.8567 51.1195 80.7435 48.3595 80.6515 48.1939C79.6027 46.2803 76.4563 43.1891 74.0505 43.6491C73.6538 43.7359 73.2798 43.9053 72.9529 44.1462C72.626 44.3871 72.3534 44.6942 72.1529 45.0474C71.9525 45.4006 71.8286 45.792 71.7894 46.1962C71.7502 46.6004 71.7965 47.0084 71.9253 47.3935C72.4221 49.0495 74.2253 50.2041 75.7341 50.7745C77.5281 51.4461 81.8107 51.1195 81.8153 51.1195Z" fill="#263238"/>
<path d="M82.8356 30.9901C80.7288 32.2275 80.393 36.6251 80.8668 38.7549C80.9082 38.9389 81.8788 41.7495 81.9156 41.7219L81.957 41.6897C81.9018 42.3843 81.8466 43.1295 81.8006 43.9437C81.7362 45.4479 81.6718 47.1637 81.727 49.0037C81.7621 51.0043 81.9157 53.0012 82.187 54.9837C82.479 57.2062 82.9686 59.3984 83.6498 61.5341C83.6618 61.5575 83.671 61.5822 83.6774 61.6077C83.2634 61.0235 82.0444 59.4319 81.934 59.3077C80.4206 57.7345 76.5658 55.5909 74.367 56.6627C74.0075 56.8519 73.6918 57.1147 73.4404 57.4339C73.189 57.7531 73.0075 58.1215 72.9077 58.5154C72.808 58.9093 72.7921 59.3197 72.8613 59.7201C72.9304 60.1205 73.083 60.5018 73.309 60.8395C74.229 62.3069 76.2484 62.9463 77.8768 63.0935C79.7168 63.2591 83.475 61.9435 83.774 61.8377C84.5204 63.9938 85.4102 66.0977 86.4374 68.1351C87.0308 69.3265 87.6656 70.5041 88.3142 71.6817C87.937 71.1895 87.5966 70.7617 87.5414 70.6927C86.028 69.1241 82.1732 66.9759 79.979 68.0523C79.6193 68.2406 79.3032 68.5026 79.0513 68.8212C78.7995 69.1398 78.6176 69.5079 78.5173 69.9014C78.4171 70.2949 78.4008 70.7052 78.4696 71.1054C78.5384 71.5056 78.6906 71.8869 78.9164 72.2245C79.8364 73.6919 81.8604 74.3313 83.4842 74.4785C85.108 74.6257 88.3648 73.5585 89.2158 73.2825C89.4734 73.7425 89.7218 74.2025 89.9748 74.6257C91.203 76.7739 92.4358 78.9083 93.5812 81.0427C93.986 81.7925 94.3586 82.5469 94.7312 83.3013C94.3954 82.8643 94.1102 82.5009 94.0596 82.4503C92.5462 80.8771 88.6914 78.7289 86.4926 79.8053C86.1331 79.9945 85.8174 80.2573 85.566 80.5765C85.3146 80.8957 85.1331 81.2641 85.0333 81.658C84.9336 82.0519 84.9177 82.4623 84.9869 82.8627C85.056 83.2631 85.2086 83.6445 85.4346 83.9821C86.3546 85.4449 88.374 86.0889 89.9978 86.2361C91.6216 86.3833 94.5656 85.4311 95.5822 85.0861C95.941 85.8727 96.2998 86.6547 96.6126 87.4321C96.815 87.9657 97.045 88.4671 97.2198 89.0145C97.3946 89.5619 97.5786 90.0863 97.758 90.6153C98.0662 91.6457 98.3882 92.7037 98.678 93.7157C98.8712 94.4195 99.046 95.0957 99.2208 95.7719C98.8298 95.0175 98.0294 93.5593 97.9466 93.4489C96.7815 91.9205 95.2435 90.7167 93.48 89.9529C93.3571 89.7781 93.2186 89.6149 93.066 89.4653C92.7851 89.1719 92.4456 88.941 92.0696 88.7873C91.6936 88.6337 91.2895 88.5608 90.8835 88.5733C90.4776 88.5859 90.0787 88.6837 89.713 88.8603C89.3472 89.037 89.0227 89.2885 88.7604 89.5987C87.2378 91.5123 88.5028 95.7397 89.7126 97.5567C89.7862 97.6625 90.6878 98.7435 91.272 99.3967L90.0668 98.3709C89.2434 97.6809 88.4016 97.0139 87.5 96.2963C87.04 95.9605 86.58 95.6246 86.12 95.2889C85.66 94.9531 85.1586 94.6311 84.6756 94.2999C83.5394 93.5501 82.3526 92.8509 81.1382 92.1655C81.7408 91.4479 83.8522 88.8535 84.303 87.2803C84.7538 85.7071 84.8826 83.6003 83.843 82.2203C83.6098 81.888 83.3092 81.6085 82.9609 81.4C82.6125 81.1915 82.2242 81.0586 81.8212 81.01C81.4181 80.9614 81.0094 80.9982 80.6214 81.118C80.2335 81.2377 79.8752 81.4377 79.5696 81.7051C77.771 83.3657 78.3874 87.7357 79.3074 89.7137C79.3626 89.8379 80.1814 91.1857 80.646 91.9171C79.9146 91.5123 79.1878 91.1075 78.4334 90.7211C76.2576 89.6125 74.0174 88.5545 71.791 87.5011C71.1056 87.1745 70.411 86.8433 69.7532 86.5121C69.9694 86.2591 72.5408 83.2323 73.0468 81.4521C73.5068 79.8835 73.631 77.7721 72.5868 76.3921C72.3535 76.0593 72.0528 75.7794 71.7042 75.5704C71.3557 75.3614 70.9671 75.2281 70.5636 75.1791C70.1602 75.1301 69.751 75.1664 69.3625 75.2859C68.9741 75.4053 68.6151 75.6051 68.3088 75.8723C66.5148 77.5329 67.1266 81.9029 68.0466 83.8855C68.1156 84.0327 69.2978 85.9693 69.6244 86.4477C68.1294 85.7209 66.6482 84.9803 65.2176 84.1937C63.2803 83.1396 61.4134 81.9611 59.6286 80.6655C59.7298 80.5459 62.43 77.3995 62.9452 75.6055C63.4052 74.0369 63.5248 71.9255 62.4852 70.5455C62.2519 70.2127 61.9512 69.9328 61.6026 69.7238C61.2541 69.5148 60.8655 69.3815 60.462 69.3325C60.0586 69.2835 59.6494 69.3198 59.2609 69.4393C58.8724 69.5587 58.5135 69.7585 58.2072 70.0257C56.4132 71.6863 57.025 76.0563 57.945 78.0343C58.0186 78.1907 59.2882 80.2745 59.5458 80.6333C59.4446 80.5597 59.3296 80.4907 59.2284 80.4171C57.4832 79.0578 55.8622 77.5461 54.3846 75.8999C53.552 75.0075 52.8022 74.1059 52.0846 73.2135C52.6458 72.6799 55.1896 70.2051 55.8336 68.6135C56.4776 67.0219 56.818 65.0071 55.9394 63.5213C55.7439 63.165 55.4756 62.8539 55.152 62.6082C54.8284 62.3624 54.4567 62.1874 54.0611 62.0945C53.6655 62.0017 53.2548 61.9931 52.8556 62.0693C52.4565 62.1455 52.0778 62.3048 51.7442 62.5369C49.78 63.9905 49.9042 68.4019 50.6034 70.4719C50.6402 70.5823 51.1554 71.6863 51.5234 72.4821C51.2106 72.0773 50.8794 71.6587 50.6034 71.2631C49.504 69.7773 48.5886 68.3467 47.7882 67.0725C47.3282 66.3457 46.9464 65.6925 46.5876 65.0531C46.8682 64.2389 47.9676 60.9499 47.7974 59.2847C47.6272 57.6195 47.0246 55.6599 45.5388 54.7399C45.2016 54.5206 44.8224 54.3739 44.4254 54.3092C44.0283 54.2445 43.6222 54.2631 43.2328 54.3639C42.8433 54.4647 42.4792 54.6455 42.1634 54.8948C41.8477 55.144 41.5873 55.4563 41.3988 55.8117C40.3224 58.0059 42.4706 61.8607 44.0438 63.3787C44.1818 63.5075 46.5416 65.3107 46.5554 65.2693V65.2233C46.8866 65.8305 47.2546 66.4837 47.6686 67.1875C48.4414 68.4801 49.3292 69.9475 50.401 71.4517C51.5342 73.0985 52.763 74.6775 54.081 76.1805C55.5518 77.872 57.1697 79.4299 58.9156 80.8357L58.9846 80.8817C58.313 80.6241 56.4178 79.9617 56.266 79.9387C54.1362 79.4787 49.7386 79.8007 48.4966 81.9075C48.3013 82.2636 48.1831 82.6568 48.1495 83.0616C48.116 83.4664 48.1679 83.8737 48.302 84.2571C48.436 84.6405 48.6491 84.9915 48.9275 85.2873C49.2059 85.583 49.5434 85.8169 49.918 85.9739C51.4866 86.6961 53.5336 86.1073 54.978 85.3345C56.5972 84.4651 59.0122 81.2911 59.2054 81.0381C61.019 82.4225 62.923 83.6842 64.9048 84.8147C66.0548 85.4817 67.2324 86.1165 68.4238 86.7375C67.835 86.5351 67.3106 86.3603 67.237 86.3419C65.1026 85.8819 60.705 86.1993 59.4676 88.3107C59.2715 88.6664 59.1524 89.0594 59.1182 89.4641C59.084 89.8689 59.1353 90.2763 59.269 90.6599C59.4026 91.0435 59.6155 91.3946 59.8939 91.6905C60.1722 91.9863 60.5097 92.2203 60.8844 92.3771C62.4576 93.0993 64.5 92.5105 65.9444 91.7377C67.3888 90.9649 69.514 88.2877 70.0614 87.5747C70.5214 87.8093 70.9814 88.0347 71.4414 88.2785C73.6494 89.3917 75.8574 90.4957 77.9918 91.6411C78.7416 92.0459 79.4684 92.4691 80.1952 92.8923C79.6754 92.7129 79.2338 92.5657 79.1648 92.5519C77.035 92.0919 72.6328 92.4093 71.3954 94.5207C71.1994 94.8766 71.0806 95.2699 71.0466 95.6749C71.0127 96.0799 71.0645 96.4874 71.1986 96.8711C71.3327 97.2547 71.5461 97.6058 71.8249 97.9014C72.1037 98.1971 72.4417 98.4307 72.8168 98.5871C74.3854 99.3047 76.4324 98.7205 77.8768 97.9477C79.3212 97.1749 81.2394 94.7553 81.8972 93.9135C82.6286 94.3735 83.3646 94.8335 84.05 95.2935C84.51 95.6293 84.97 95.9191 85.43 96.2779L86.764 97.3175C87.5874 98.0075 88.443 98.6975 89.2296 99.4059C89.7816 99.8659 90.2968 100.326 90.8166 100.818C90.076 100.409 88.5994 99.6313 88.4706 99.5807C86.4374 98.7895 82.0306 98.4537 80.4942 100.353C80.2462 100.675 80.0688 101.046 79.9736 101.44C79.8784 101.835 79.8676 102.246 79.9418 102.645C80.0161 103.045 80.1737 103.424 80.4044 103.758C80.6351 104.092 80.9338 104.374 81.2808 104.585C82.7252 105.538 84.832 105.266 86.373 104.723C88.0612 104.121 90.8304 101.467 91.1754 101.135C92.0356 101.913 92.8636 102.676 93.6364 103.408C94.6484 104.369 95.5822 105.28 96.4332 106.131C96.8932 105.984 97.4314 105.795 98.0662 105.57C97.0404 104.581 95.895 103.5 94.6208 102.35C93.7514 101.559 92.7808 100.731 91.824 99.8889C92.4726 98.8392 93.0579 97.7516 93.5766 96.6321C95.389 96.9725 98.908 96.3377 99.3634 96.2503C99.6532 97.3727 99.9246 98.4675 100.159 99.5071C100.578 101.292 100.923 102.934 101.213 104.397C101.673 104.213 102.174 104.015 102.675 103.808C102.363 102.428 101.999 100.85 101.571 99.1621C101.282 98.0213 100.95 96.8069 100.596 95.5649C101.024 95.3671 104.502 93.7249 105.656 92.3771C106.723 91.1397 107.735 89.2675 107.367 87.5793C107.295 87.178 107.139 86.7966 106.909 86.4599C106.679 86.1233 106.381 85.839 106.033 85.6258C105.686 85.4125 105.297 85.2751 104.893 85.2225C104.489 85.1699 104.078 85.2034 103.687 85.3207C101.36 86.0751 100.09 90.2979 100.095 92.4829C100.095 92.6117 100.256 94.0101 100.371 94.8887C100.224 94.3827 100.086 93.8905 99.9108 93.3707C99.6072 92.3403 99.276 91.3191 98.9172 90.2197L98.3422 88.6327C98.1628 88.0991 97.9052 87.5563 97.6844 87.0135C97.1462 85.7623 96.5436 84.5203 95.9088 83.2829C96.8288 83.0115 99.9982 82.0133 101.245 80.9461C102.491 79.8789 103.766 78.1861 103.66 76.4657C103.649 76.0596 103.553 75.6603 103.378 75.2939C103.203 74.9274 102.952 74.602 102.643 74.339C102.333 74.0759 101.972 73.8811 101.582 73.7672C101.192 73.6533 100.782 73.6229 100.38 73.6781C97.965 74.0691 96.0652 78.0527 95.7386 80.2147C95.7386 80.3481 95.6604 81.9213 95.6466 82.7907C95.2556 82.0501 94.8738 81.3049 94.4552 80.5689C93.2546 78.4437 91.9712 76.3277 90.697 74.2117C90.306 73.5631 89.9288 72.9145 89.5424 72.2613C89.8644 72.1739 93.6824 71.0653 95.0624 69.8739C96.2998 68.8113 97.5832 67.1139 97.4774 65.3935C97.4669 64.9872 97.3709 64.5878 97.1957 64.2212C97.0205 63.8545 96.77 63.5289 96.4606 63.2655C96.1512 63.002 95.7898 62.8068 95.3999 62.6923C95.01 62.5779 94.6003 62.5469 94.1976 62.6013C91.7826 62.9969 89.8828 66.9759 89.5608 69.1379C89.5332 69.2989 89.4504 71.5667 89.4596 72.1463C88.6178 70.7157 87.7898 69.2805 87.0308 67.8315C85.9924 65.8851 85.0842 63.872 84.3122 61.8055C84.464 61.7641 88.4522 60.6279 89.8782 59.4043C91.1156 58.3463 92.399 56.6443 92.2932 54.9239C92.2827 54.5176 92.1867 54.1182 92.0115 53.7516C91.8363 53.3849 91.5858 53.0593 91.2764 52.7959C90.967 52.5324 90.6056 52.3372 90.2157 52.2227C89.8258 52.1083 89.4161 52.0773 89.0134 52.1317C86.5984 52.5273 84.7032 56.5109 84.3766 58.6683C84.349 58.8385 84.2616 61.2811 84.28 61.7227C84.234 61.6031 84.1742 61.4835 84.1328 61.3639C83.4157 59.268 82.8847 57.113 82.5458 54.9239C82.3434 53.7187 82.2192 52.5549 82.1226 51.4187C82.8862 51.2853 86.373 50.6275 87.7806 49.6707C89.1882 48.7139 90.5912 47.2051 90.674 45.4801C90.7077 45.0754 90.6558 44.6681 90.5218 44.2848C90.3877 43.9015 90.1745 43.5507 89.8959 43.2552C89.6174 42.9598 89.2798 42.7262 88.905 42.5698C88.5303 42.4134 88.1268 42.3377 87.7208 42.3475C85.2782 42.4717 82.9506 46.2207 82.394 48.3275C82.3618 48.4425 82.1824 49.6431 82.0628 50.5217C82.026 50.0111 81.98 49.4821 81.957 48.9899C81.8604 47.1499 81.8834 45.4433 81.9202 43.9299C81.9478 43.0789 81.9892 42.3061 82.0306 41.5839C82.7114 41.0595 85.43 38.9113 86.2212 37.4439C87.0124 35.9765 87.6012 33.9617 86.8606 32.3839C86.701 32.0167 86.4669 31.6867 86.1731 31.4147C85.8793 31.1427 85.5323 30.9346 85.154 30.8036C84.7757 30.6726 84.3743 30.6215 83.9753 30.6536C83.5762 30.6857 83.1881 30.8003 82.8356 30.9901Z" fill="#263238"/>
<path d="M46.3765 76.2311C48.2395 75.8033 51.6343 73.1675 51.6343 73.1629C51.6343 73.1583 49.2193 71.4563 49.0537 71.3689C47.1217 70.3477 42.7931 69.5289 41.0405 71.2171C40.7568 71.5081 40.5377 71.8558 40.3975 72.2373C40.2573 72.6188 40.1992 73.0256 40.227 73.4311C40.2548 73.8366 40.3678 74.2317 40.5587 74.5905C40.7496 74.9494 41.0141 75.2639 41.3349 75.5135C42.6597 76.6221 44.7849 76.5991 46.3765 76.2311Z" fill="#263238"/>
<path d="M94.7589 59.2063H293.897C294.667 59.2063 295.429 59.3579 296.14 59.6524C296.851 59.9469 297.497 60.3786 298.041 60.9228C298.586 61.467 299.017 62.113 299.312 62.824C299.606 63.535 299.758 64.2971 299.758 65.0667V196.061H88.9077V65.0621C88.9089 63.5102 89.5256 62.0222 90.6226 60.9244C91.7195 59.8266 93.207 59.2087 94.7589 59.2063Z" fill="#263238" stroke="#263238" stroke-linecap="round" stroke-linejoin="round"/>
<path d="M267.269 189.474H122.365V196.613H267.269V189.474Z" fill="#263238" stroke="#263238" stroke-linecap="round" stroke-linejoin="round"/>
<path d="M267.269 192.91H122.365V196.613H267.269V192.91Z" fill="white" stroke="#263238" stroke-linecap="round" stroke-linejoin="round"/>
<path d="M71.854 200.845C71.854 200.845 74.2368 203.752 81.376 206.135H308.253C308.253 206.135 313.543 204.81 315.921 201.107L71.854 200.845Z" fill="#263238" stroke="#263238" stroke-linecap="round" stroke-linejoin="round"/>
<path d="M314.657 195.633H73.1482C72.1675 195.633 71.3726 196.428 71.3726 197.409V199.419C71.3726 200.399 72.1675 201.194 73.1482 201.194H314.657C315.638 201.194 316.433 200.399 316.433 199.419V197.409C316.433 196.428 315.638 195.633 314.657 195.633Z" fill="white" stroke="#263238" stroke-linecap="round" stroke-linejoin="round"/>
<path d="M196.139 63.3415C196.139 62.9775 196.031 62.6218 195.828 62.3192C195.626 62.0166 195.339 61.7808 195.003 61.6415C194.666 61.5023 194.296 61.4658 193.94 61.5368C193.583 61.6078 193.255 61.7831 192.997 62.0404C192.74 62.2977 192.565 62.6256 192.494 62.9825C192.423 63.3394 192.459 63.7094 192.599 64.0456C192.738 64.3818 192.974 64.6692 193.276 64.8714C193.579 65.0735 193.935 65.1815 194.299 65.1815C194.787 65.1815 195.255 64.9876 195.6 64.6425C195.945 64.2975 196.139 63.8295 196.139 63.3415Z" fill="#263238"/>
<path d="M90.8938 97.7174C90.7535 97.7174 90.6189 97.6617 90.5197 97.5625C90.4205 97.4632 90.3647 97.3287 90.3647 97.1884V81.852C90.3659 81.7121 90.4221 81.5782 90.521 81.4793C90.62 81.3803 90.7538 81.3242 90.8938 81.323C91.0341 81.323 91.1686 81.3787 91.2678 81.4779C91.367 81.5772 91.4228 81.7117 91.4228 81.852V97.1884C91.4234 97.258 91.4101 97.3271 91.3837 97.3916C91.3574 97.456 91.3184 97.5146 91.2692 97.5638C91.2199 97.6131 91.1614 97.652 91.0969 97.6784C91.0325 97.7048 90.9634 97.718 90.8938 97.7174Z" fill="#263238" stroke="white" stroke-width="0.691688" stroke-linejoin="round"/>
<path d="M291.201 69.8967H97.4629V179.381H291.201V69.8967Z" fill="white" stroke="#263238" stroke-linecap="round" stroke-linejoin="round"/>
<path d="M291.202 69.8967H129.66V76.3735H291.202V69.8967Z" fill="#A4EFFF" stroke="#263238" stroke-linecap="round" stroke-linejoin="round"/>
<path d="M105.436 137.636H239.572" stroke="#CCCCCC" stroke-linecap="round" stroke-linejoin="round"/>
<path d="M105.436 134.872H239.572" stroke="#CCCCCC" stroke-linecap="round" stroke-linejoin="round"/>
<path d="M105.436 132.103H239.572" stroke="#CCCCCC" stroke-linecap="round" stroke-linejoin="round"/>
<path d="M105.436 129.333H239.572" stroke="#CCCCCC" stroke-linecap="round" stroke-linejoin="round"/>
<path d="M105.436 126.564H239.572" stroke="#CCCCCC" stroke-linecap="round" stroke-linejoin="round"/>
<path d="M105.436 123.795H239.572" stroke="#CCCCCC" stroke-linecap="round" stroke-linejoin="round"/>
<path d="M105.436 121.026H239.572" stroke="#CCCCCC" stroke-linecap="round" stroke-linejoin="round"/>
<path d="M105.436 118.257H239.572" stroke="#CCCCCC" stroke-linecap="round" stroke-linejoin="round"/>
<path d="M105.436 115.488H239.572" stroke="#CCCCCC" stroke-linecap="round" stroke-linejoin="round"/>
<path d="M105.436 112.719H239.572" stroke="#CCCCCC" stroke-linecap="round" stroke-linejoin="round"/>
<path d="M105.436 109.949H239.572" stroke="#CCCCCC" stroke-linecap="round" stroke-linejoin="round"/>
<path d="M105.436 107.18H239.572" stroke="#CCCCCC" stroke-linecap="round" stroke-linejoin="round"/>
<path d="M105.436 104.411H239.572" stroke="#CCCCCC" stroke-linecap="round" stroke-linejoin="round"/>
<path d="M105.436 101.642H239.572" stroke="#CCCCCC" stroke-linecap="round" stroke-linejoin="round"/>
<path d="M105.436 98.8723H239.572" stroke="#CCCCCC" stroke-linecap="round" stroke-linejoin="round"/>
<path d="M105.436 96.1077H239.572" stroke="#CCCCCC" stroke-linecap="round" stroke-linejoin="round"/>
<path d="M115.281 93.0305H110.051V137.333H115.281V93.0305Z" fill="#A4EFFF"/>
<path d="M122.204 117.024H116.974V137.328H122.204V117.024Z" fill="#A4EFFF"/>
<path d="M129.127 120.718H123.896V137.333H129.127V120.718Z" fill="#A4EFFF"/>
<path d="M136.05 99.4888H130.819V137.328H136.05V99.4888Z" fill="#A4EFFF"/>
<path d="M142.972 118.257H137.742V137.333H142.972V118.257Z" fill="#A4EFFF"/>
<path d="M149.895 109.641H144.665V137.329H149.895V109.641Z" fill="#A4EFFF"/>
<path d="M156.812 98.8723H151.582V137.328H156.812V98.8723Z" fill="#A4EFFF"/>
<path d="M163.735 87.1836H158.504V137.333H163.735V87.1836Z" fill="#A4EFFF"/>
<path d="M170.657 111.182H165.427V137.333H170.657V111.182Z" fill="#A4EFFF"/>
<path d="M177.583 122.254H172.353V137.329H177.583V122.254Z" fill="#A4EFFF"/>
<path d="M184.506 128.409H179.276V137.333H184.506V128.409Z" fill="#A4EFFF"/>
<path d="M191.426 121.334H186.195V137.333H191.426V121.334Z" fill="#A4EFFF"/>
<path d="M198.348 105.952H193.118V137.333H198.348V105.952Z" fill="#A4EFFF"/>
<path d="M205.271 131.795H200.041V137.333H205.271V131.795Z" fill="#A4EFFF"/>
<path d="M212.194 120.718H206.964V137.333H212.194V120.718Z" fill="#A4EFFF"/>
<path d="M219.116 128.101H213.886V137.328H219.116V128.101Z" fill="#A4EFFF"/>
<path d="M226.039 87.4922H220.809V137.333H226.039V87.4922Z" fill="#A4EFFF"/>
<path d="M232.956 96.1077H227.726V137.333H232.956V96.1077Z" fill="#A4EFFF"/>
<path d="M107.468 81.1531V80.7253H108.213V81.1531C108.857 81.2865 109.188 81.7833 109.188 82.5653V82.7493H108.328V82.5101C108.328 82.0961 108.162 81.9397 107.868 81.9397C107.574 81.9397 107.408 82.0961 107.408 82.5101C107.408 83.6969 109.179 83.7567 109.179 85.4081C109.179 86.1901 108.843 86.6961 108.199 86.8249V87.2481H107.454V86.8249C106.805 86.6961 106.474 86.1901 106.474 85.4081V85.0079H107.33V85.4679C107.33 85.8819 107.514 86.0291 107.79 86.0291C108.066 86.0291 108.25 85.8819 108.25 85.4679C108.25 84.2811 106.474 84.2213 106.474 82.5699C106.511 81.7925 106.833 81.2957 107.468 81.1531Z" fill="#263238"/>
<path d="M111.135 81.8798C110.846 81.8798 110.675 82.0362 110.675 82.4502V83.0666H109.815V82.5054C109.815 81.5854 110.275 81.0564 111.168 81.0564C112.06 81.0564 112.525 81.5808 112.525 82.5054C112.525 84.3224 110.717 84.9986 110.717 85.9508C110.714 85.9922 110.714 86.0336 110.717 86.075H112.437V86.8984H109.811V86.19C109.811 84.488 111.609 84.2074 111.609 82.5422C111.605 81.9948 111.425 81.8798 111.135 81.8798Z" fill="#263238"/>
<path d="M112.997 82.4824C112.997 81.5624 113.484 81.0334 114.377 81.0334C115.269 81.0334 115.757 81.5578 115.757 82.4824V85.4909C115.757 86.4109 115.269 86.9398 114.377 86.9398C113.484 86.9398 112.997 86.4109 112.997 85.4909V82.4824ZM113.917 85.546C113.917 85.96 114.096 86.1165 114.377 86.1165C114.657 86.1165 114.837 85.96 114.837 85.546V82.4272C114.837 82.0132 114.657 81.8568 114.377 81.8568C114.096 81.8568 113.917 82.0132 113.917 82.4272V85.546Z" fill="#263238"/>
<path d="M117.216 86.02V86.894H116.342V86.02H117.216Z" fill="#263238"/>
<path d="M119.625 82.5192C119.625 81.9948 119.441 81.8568 119.165 81.8568C118.889 81.8568 118.705 82.0132 118.705 82.4272V82.7998H117.85V82.4824C117.85 81.5624 118.31 81.0334 119.202 81.0334C120.094 81.0334 120.554 81.5578 120.554 82.4824V82.6342C120.554 83.2506 120.357 83.6416 119.92 83.821C120.139 83.9314 120.319 84.108 120.433 84.3259C120.547 84.5438 120.589 84.792 120.554 85.0355V85.4955C120.554 86.4155 120.094 86.9445 119.202 86.9445C118.31 86.9445 117.85 86.4155 117.85 85.4955V85.0355H118.678V85.5599C118.678 85.9739 118.862 86.1303 119.138 86.1303C119.414 86.1303 119.598 85.9877 119.598 85.4771V85.0171C119.598 84.4835 119.414 84.2856 119.004 84.2856H118.696V83.4576H119.05C119.391 83.4576 119.598 83.3104 119.598 82.8504L119.625 82.5192Z" fill="#263238"/>
<path d="M121.087 82.533C121.087 81.5578 121.547 81.0334 122.467 81.0334C123.387 81.0334 123.82 81.5578 123.82 82.4824V82.6342H122.959V82.4272C122.959 82.0132 122.78 81.8568 122.499 81.8568C122.219 81.8568 121.993 82.0132 121.993 82.5652V83.6232C122.066 83.4623 122.186 83.3272 122.337 83.236C122.488 83.1447 122.663 83.1017 122.84 83.1126C123.507 83.1126 123.843 83.5726 123.843 84.4328V85.4909C123.843 86.4109 123.36 86.9398 122.463 86.9398C121.566 86.9398 121.083 86.4109 121.083 85.4909L121.087 82.533ZM122.007 84.5065V85.5598C122.007 85.9738 122.191 86.121 122.467 86.121C122.743 86.121 122.927 85.9738 122.927 85.5598V84.5203C122.927 84.1063 122.748 83.9498 122.467 83.9498C122.187 83.9498 121.993 84.0925 121.993 84.5065H122.007Z" fill="#263238"/>
<path d="M125.711 86.9398C125.517 86.9592 125.322 86.9348 125.139 86.8683C124.956 86.8019 124.79 86.6951 124.654 86.556C124.518 86.4168 124.415 86.2488 124.353 86.0644C124.291 85.88 124.271 85.684 124.294 85.4908V85.0308C124.267 84.7977 124.306 84.5616 124.405 84.3489C124.504 84.1361 124.66 83.955 124.856 83.8256C124.66 83.7057 124.504 83.5323 124.404 83.326C124.305 83.1197 124.267 82.8892 124.294 82.6618V82.4778C124.283 82.2847 124.312 82.0913 124.378 81.9096C124.445 81.7278 124.547 81.5615 124.68 81.4209C124.813 81.2803 124.973 81.1682 125.151 81.0917C125.329 81.0151 125.52 80.9756 125.713 80.9756C125.907 80.9756 126.098 81.0151 126.276 81.0917C126.454 81.1682 126.614 81.2803 126.747 81.4209C126.88 81.5615 126.982 81.7278 127.049 81.9096C127.115 82.0913 127.144 82.2847 127.133 82.4778V82.6618C127.159 82.889 127.12 83.1189 127.02 83.3249C126.921 83.5309 126.765 83.7045 126.571 83.8256C126.767 83.955 126.923 84.1361 127.022 84.3489C127.121 84.5616 127.16 84.7977 127.133 85.0308V85.4908C127.156 85.6842 127.135 85.8804 127.072 86.0647C127.009 86.2491 126.906 86.417 126.769 86.556C126.633 86.6951 126.467 86.8017 126.284 86.8682C126.101 86.9346 125.905 86.9591 125.711 86.9398ZM125.201 82.8412C125.201 83.3012 125.417 83.4484 125.711 83.4484C126.006 83.4484 126.226 83.3012 126.226 82.8412V82.5192C126.226 81.9948 126.001 81.8568 125.711 81.8568C125.421 81.8568 125.201 81.9948 125.201 82.5192V82.8412ZM125.711 86.1164C126.001 86.1164 126.217 85.9738 126.226 85.4632V84.925C126.226 84.465 126.033 84.2764 125.711 84.2764C125.389 84.2764 125.201 84.4742 125.201 84.925V85.4632C125.201 85.9738 125.426 86.1164 125.711 86.1164Z" fill="#263238"/>
<path d="M127.677 86.8756V86.02H128.556V86.802L128.156 87.722H127.788L128.027 86.8986L127.677 86.8756Z" fill="#263238"/>
<path d="M130.542 81.8798C130.252 81.8798 130.082 82.0362 130.082 82.4502V83.0666H129.212V82.5054C129.212 81.5854 129.672 81.0564 130.565 81.0564C131.457 81.0564 131.945 81.5808 131.945 82.5054C131.945 84.3224 130.137 84.9986 130.137 85.9508C130.135 85.9922 130.135 86.0336 130.137 86.075H131.857V86.8984H129.212V86.19C129.212 84.488 131.011 84.2074 131.011 82.5422C131.011 81.9948 130.832 81.8798 130.542 81.8798Z" fill="#263238"/>
<path d="M134.232 82.5192C134.232 81.9948 134.048 81.8568 133.772 81.8568C133.496 81.8568 133.312 82.0132 133.312 82.4272V82.7998H132.433V82.4824C132.433 81.5624 132.893 81.0334 133.786 81.0334C134.678 81.0334 135.138 81.5578 135.138 82.4824V82.6342C135.138 83.2506 134.94 83.6416 134.503 83.821C134.723 83.9314 134.902 84.108 135.016 84.3259C135.13 84.5438 135.173 84.792 135.138 85.0355V85.4955C135.138 86.4155 134.678 86.9445 133.786 86.9445C132.893 86.9445 132.433 86.4155 132.433 85.4955V85.0355H133.289V85.5599C133.289 85.9739 133.473 86.1303 133.749 86.1303C134.025 86.1303 134.209 85.9877 134.209 85.4771V85.0171C134.209 84.4835 134.025 84.2856 133.615 84.2856H133.307V83.4576H133.661C134.002 83.4576 134.209 83.3104 134.209 82.8504L134.232 82.5192Z" fill="#263238"/>
<path d="M285.436 81.8433H242.597V137.503H285.436V81.8433Z" fill="#263238"/>
<path d="M250.014 85.2607H255.685" stroke="#757575" stroke-miterlimit="10"/>
<path d="M258.878 85.2607H264.55" stroke="#757575" stroke-miterlimit="10"/>
<path d="M267.743 85.2607H273.415" stroke="#757575" stroke-miterlimit="10"/>
<path d="M276.604 85.2607H282.276" stroke="#757575" stroke-miterlimit="10"/>
<path d="M257.305 82.6758V136.735" stroke="white" stroke-miterlimit="10"/>
<path d="M248.432 82.6758V136.735" stroke="white" stroke-miterlimit="10"/>
<path d="M266.323 82.6758V136.735" stroke="white" stroke-miterlimit="10"/>
<path d="M275.338 82.6758V136.735" stroke="white" stroke-miterlimit="10"/>
<path d="M245.828 84.1616L244.789 85.9694H246.872L245.828 84.1616Z" fill="white"/>
<path d="M250.014 89.4517H255.685" stroke="#757575" stroke-miterlimit="10"/>
<path d="M258.878 89.4517H264.55" stroke="#757575" stroke-miterlimit="10"/>
<path d="M267.743 89.4517H273.415" stroke="#757575" stroke-miterlimit="10"/>
<path d="M276.604 89.4517H282.276" stroke="#757575" stroke-miterlimit="10"/>
<path d="M245.828 90.1601L246.872 88.3523H244.789L245.828 90.1601Z" fill="#A4EFFF"/>
<path d="M250.014 93.6377H255.685" stroke="#757575" stroke-miterlimit="10"/>
<path d="M258.878 93.6377H264.55" stroke="#757575" stroke-miterlimit="10"/>
<path d="M267.743 93.6377H273.415" stroke="#757575" stroke-miterlimit="10"/>
<path d="M276.604 93.6377H282.276" stroke="#757575" stroke-miterlimit="10"/>
<path d="M245.828 92.5427L244.789 94.3505H246.872L245.828 92.5427Z" fill="white"/>
<path d="M250.014 97.8281H255.685" stroke="#757575" stroke-miterlimit="10"/>
<path d="M258.878 97.8281H264.55" stroke="#757575" stroke-miterlimit="10"/>
<path d="M267.743 97.8281H273.415" stroke="#757575" stroke-miterlimit="10"/>
<path d="M276.604 97.8281H282.276" stroke="#757575" stroke-miterlimit="10"/>
<path d="M245.828 98.5366L246.872 96.7334H244.789L245.828 98.5366Z" fill="#A4EFFF"/>
<path d="M250.014 102.019H255.685" stroke="#757575" stroke-miterlimit="10"/>
<path d="M258.878 102.019H264.55" stroke="#757575" stroke-miterlimit="10"/>
<path d="M267.743 102.019H273.415" stroke="#757575" stroke-miterlimit="10"/>
<path d="M276.604 102.019H282.276" stroke="#757575" stroke-miterlimit="10"/>
<path d="M245.828 102.727L246.872 100.924H244.789L245.828 102.727Z" fill="#A4EFFF"/>
<path d="M250.014 106.209H255.685" stroke="#757575" stroke-miterlimit="10"/>
<path d="M258.878 106.209H264.55" stroke="#757575" stroke-miterlimit="10"/>
<path d="M267.743 106.209H273.415" stroke="#757575" stroke-miterlimit="10"/>
<path d="M276.604 106.209H282.276" stroke="#757575" stroke-miterlimit="10"/>
<path d="M245.828 106.918L246.872 105.115H244.789L245.828 106.918Z" fill="#A4EFFF"/>
<path d="M250.014 110.4H255.685" stroke="#757575" stroke-miterlimit="10"/>
<path d="M258.878 110.4H264.55" stroke="#757575" stroke-miterlimit="10"/>
<path d="M267.743 110.4H273.415" stroke="#757575" stroke-miterlimit="10"/>
<path d="M276.604 110.4H282.276" stroke="#757575" stroke-miterlimit="10"/>
<path d="M245.828 109.301L244.789 111.108H246.872L245.828 109.301Z" fill="white"/>
<path d="M250.014 114.591H255.685" stroke="#757575" stroke-miterlimit="10"/>
<path d="M258.878 114.591H264.55" stroke="#757575" stroke-miterlimit="10"/>
<path d="M267.743 114.591H273.415" stroke="#757575" stroke-miterlimit="10"/>
<path d="M276.604 114.591H282.276" stroke="#757575" stroke-miterlimit="10"/>
<path d="M245.828 113.491L244.789 115.299H246.872L245.828 113.491Z" fill="white"/>
<path d="M250.014 118.781H255.685" stroke="#757575" stroke-miterlimit="10"/>
<path d="M258.878 118.781H264.55" stroke="#757575" stroke-miterlimit="10"/>
<path d="M267.743 118.781H273.415" stroke="#757575" stroke-miterlimit="10"/>
<path d="M276.604 118.781H282.276" stroke="#757575" stroke-miterlimit="10"/>
<path d="M245.828 119.489L246.872 117.682H244.789L245.828 119.489Z" fill="#A4EFFF"/>
<path d="M250.014 122.967H255.685" stroke="#757575" stroke-miterlimit="10"/>
<path d="M258.878 122.967H264.55" stroke="#757575" stroke-miterlimit="10"/>
<path d="M267.743 122.967H273.415" stroke="#757575" stroke-miterlimit="10"/>
<path d="M276.604 122.967H282.276" stroke="#757575" stroke-miterlimit="10"/>
<path d="M245.828 121.873L244.789 123.68H246.872L245.828 121.873Z" fill="white"/>
<path d="M250.014 127.158H255.685" stroke="#757575" stroke-miterlimit="10"/>
<path d="M258.878 127.158H264.55" stroke="#757575" stroke-miterlimit="10"/>
<path d="M267.743 127.158H273.415" stroke="#757575" stroke-miterlimit="10"/>
<path d="M276.604 127.158H282.276" stroke="#757575" stroke-miterlimit="10"/>
<path d="M245.828 127.866L246.872 126.063H244.789L245.828 127.866Z" fill="#A4EFFF"/>
<path d="M244.213 87.1978H284.33" stroke="white" stroke-miterlimit="10"/>
<path d="M244.213 91.3879H284.33" stroke="white" stroke-miterlimit="10"/>
<path d="M244.213 95.5786H284.33" stroke="white" stroke-miterlimit="10"/>
<path d="M244.213 99.7693H284.33" stroke="white" stroke-miterlimit="10"/>
<path d="M244.213 103.96H284.33" stroke="white" stroke-miterlimit="10"/>
<path d="M244.213 108.151H284.33" stroke="white" stroke-miterlimit="10"/>
<path d="M244.213 112.336H284.33" stroke="white" stroke-miterlimit="10"/>
<path d="M244.213 116.527H284.33" stroke="white" stroke-miterlimit="10"/>
<path d="M244.213 120.718H284.33" stroke="white" stroke-miterlimit="10"/>
<path d="M244.213 124.908H284.33" stroke="white" stroke-miterlimit="10"/>
<path d="M244.213 129.099H284.33" stroke="white" stroke-miterlimit="10"/>
<path d="M244.213 133.289H284.33" stroke="white" stroke-miterlimit="10"/>
<path d="M250.014 131.348H255.685" stroke="#757575" stroke-miterlimit="10"/>
<path d="M258.878 131.348H264.55" stroke="#757575" stroke-miterlimit="10"/>
<path d="M267.743 131.348H273.415" stroke="#757575" stroke-miterlimit="10"/>
<path d="M276.604 131.348H282.276" stroke="#757575" stroke-miterlimit="10"/>
<path d="M245.828 130.254L244.789 132.057H246.872L245.828 130.254Z" fill="white"/>
<path d="M250.014 135.539H255.685" stroke="#757575" stroke-miterlimit="10"/>
<path d="M258.878 135.539H264.55" stroke="#757575" stroke-miterlimit="10"/>
<path d="M267.743 135.539H273.415" stroke="#757575" stroke-miterlimit="10"/>
<path d="M276.604 135.539H282.276" stroke="#757575" stroke-miterlimit="10"/>
<path d="M245.828 136.247L246.872 134.44H244.789L245.828 136.247Z" fill="#A4EFFF"/>
<path d="M235.389 153.488C235.389 152.775 235.715 152.389 236.405 152.389C237.095 152.389 237.394 152.775 237.394 153.451V153.562H236.764V153.41C236.764 153.106 236.635 152.991 236.423 152.991C236.212 152.991 236.056 153.106 236.056 153.511V154.284C236.107 154.167 236.193 154.068 236.303 154.001C236.412 153.935 236.539 153.903 236.667 153.911C237.159 153.911 237.408 154.256 237.408 154.877V155.65C237.417 155.788 237.398 155.927 237.352 156.058C237.305 156.188 237.232 156.308 237.138 156.409C237.043 156.511 236.928 156.591 236.801 156.647C236.674 156.702 236.537 156.73 236.398 156.73C236.26 156.73 236.122 156.702 235.995 156.647C235.868 156.591 235.754 156.511 235.659 156.409C235.564 156.308 235.491 156.188 235.445 156.058C235.398 155.927 235.379 155.788 235.389 155.65V153.488ZM236.056 154.932V155.691C236.056 155.995 236.184 156.105 236.396 156.105C236.607 156.105 236.741 155.995 236.741 155.691V154.932C236.741 154.629 236.607 154.514 236.396 154.514C236.184 154.514 236.056 154.629 236.056 154.932Z" fill="#263238"/>
<path d="M237.771 153.451C237.762 153.313 237.781 153.174 237.828 153.044C237.874 152.913 237.947 152.793 238.042 152.692C238.136 152.591 238.251 152.51 238.378 152.455C238.505 152.4 238.642 152.371 238.781 152.371C238.92 152.371 239.057 152.4 239.184 152.455C239.311 152.51 239.426 152.591 239.52 152.692C239.615 152.793 239.688 152.913 239.734 153.044C239.781 153.174 239.8 153.313 239.791 153.451V155.65C239.8 155.788 239.781 155.927 239.734 156.058C239.688 156.188 239.615 156.308 239.52 156.409C239.426 156.511 239.311 156.591 239.184 156.647C239.057 156.702 238.92 156.73 238.781 156.73C238.642 156.73 238.505 156.702 238.378 156.647C238.251 156.591 238.136 156.511 238.042 156.409C237.947 156.308 237.874 156.188 237.828 156.058C237.781 155.927 237.762 155.788 237.771 155.65V153.451ZM238.434 155.691C238.434 155.995 238.567 156.11 238.779 156.11C238.99 156.11 239.124 155.995 239.124 155.691V153.391C239.124 153.088 238.99 152.973 238.779 152.973C238.567 152.973 238.434 153.088 238.434 153.391V155.691Z" fill="#263238"/>
<path d="M240.185 153.083C240.177 152.995 240.188 152.905 240.217 152.821C240.246 152.736 240.292 152.659 240.352 152.593C240.413 152.528 240.486 152.475 240.568 152.439C240.649 152.404 240.737 152.385 240.827 152.385C240.916 152.385 241.004 152.404 241.086 152.439C241.167 152.475 241.241 152.528 241.301 152.593C241.361 152.659 241.407 152.736 241.436 152.821C241.465 152.905 241.476 152.995 241.468 153.083V154.463C241.476 154.552 241.465 154.642 241.436 154.726C241.407 154.81 241.361 154.888 241.301 154.953C241.241 155.019 241.167 155.072 241.086 155.107C241.004 155.143 240.916 155.162 240.827 155.162C240.737 155.162 240.649 155.143 240.568 155.107C240.486 155.072 240.413 155.019 240.352 154.953C240.292 154.888 240.246 154.81 240.217 154.726C240.188 154.642 240.177 154.552 240.185 154.463V153.083ZM240.608 154.505C240.608 154.689 240.686 154.767 240.824 154.767C240.962 154.767 241.045 154.689 241.045 154.505V153.051C241.045 152.863 240.958 152.784 240.824 152.784C240.691 152.784 240.608 152.863 240.608 153.051V154.505ZM242.494 152.435H242.881L241.215 156.667H240.82L242.494 152.435ZM242.283 154.629C242.275 154.54 242.286 154.451 242.315 154.366C242.344 154.282 242.39 154.205 242.45 154.139C242.51 154.073 242.584 154.021 242.665 153.985C242.747 153.949 242.835 153.931 242.924 153.931C243.013 153.931 243.102 153.949 243.183 153.985C243.265 154.021 243.338 154.073 243.398 154.139C243.459 154.205 243.505 154.282 243.534 154.366C243.562 154.451 243.573 154.54 243.566 154.629V156.009C243.573 156.098 243.562 156.187 243.534 156.272C243.505 156.356 243.459 156.433 243.398 156.499C243.338 156.565 243.265 156.617 243.183 156.653C243.102 156.689 243.013 156.707 242.924 156.707C242.835 156.707 242.747 156.689 242.665 156.653C242.584 156.617 242.51 156.565 242.45 156.499C242.39 156.433 242.344 156.356 242.315 156.272C242.286 156.187 242.275 156.098 242.283 156.009V154.629ZM242.706 156.05C242.706 156.239 242.784 156.317 242.922 156.317C243.06 156.317 243.143 156.239 243.143 156.05V154.597C243.143 154.413 243.055 154.335 242.922 154.335C242.789 154.335 242.706 154.413 242.706 154.597V156.05Z" fill="#263238"/>
<path d="M236.715 160.121C236.715 159.74 236.582 159.661 236.37 159.661C236.159 159.661 236.025 159.772 236.025 160.075V160.347H235.395V160.08C235.373 159.941 235.382 159.799 235.423 159.665C235.464 159.531 235.535 159.408 235.631 159.305C235.727 159.203 235.845 159.123 235.977 159.073C236.108 159.024 236.249 159.004 236.389 159.017C237.042 159.017 237.378 159.404 237.378 160.08V160.19C237.405 160.366 237.375 160.545 237.292 160.701C237.209 160.858 237.078 160.984 236.918 161.06C237.077 161.142 237.207 161.271 237.289 161.43C237.371 161.59 237.402 161.77 237.378 161.948V162.283C237.378 162.96 237.042 163.346 236.389 163.346C236.249 163.359 236.108 163.34 235.977 163.29C235.845 163.24 235.727 163.161 235.631 163.058C235.535 162.956 235.464 162.833 235.423 162.698C235.382 162.564 235.373 162.422 235.395 162.283V161.929H236.025V162.325C236.025 162.624 236.159 162.739 236.37 162.739C236.582 162.739 236.715 162.638 236.715 162.279V161.943C236.715 161.552 236.582 161.405 236.255 161.405H236.034V160.802H236.292C236.54 160.802 236.692 160.692 236.692 160.342L236.715 160.121Z" fill="#263238"/>
<path d="M237.771 160.08C237.762 159.942 237.781 159.803 237.828 159.672C237.874 159.542 237.947 159.422 238.042 159.321C238.136 159.219 238.251 159.139 238.378 159.083C238.505 159.028 238.642 159 238.781 159C238.92 159 239.057 159.028 239.184 159.083C239.311 159.139 239.426 159.219 239.52 159.321C239.615 159.422 239.688 159.542 239.734 159.672C239.781 159.803 239.8 159.942 239.791 160.08V162.283C239.8 162.422 239.781 162.56 239.734 162.691C239.688 162.822 239.615 162.941 239.52 163.043C239.426 163.144 239.311 163.225 239.184 163.28C239.057 163.335 238.92 163.364 238.781 163.364C238.642 163.364 238.505 163.335 238.378 163.28C238.251 163.225 238.136 163.144 238.042 163.043C237.947 162.941 237.874 162.822 237.828 162.691C237.781 162.56 237.762 162.422 237.771 162.283V160.08ZM238.434 162.325C238.434 162.624 238.567 162.739 238.779 162.739C238.99 162.739 239.124 162.624 239.124 162.325V160.025C239.124 159.721 238.99 159.611 238.779 159.611C238.567 159.611 238.434 159.721 238.434 160.025V162.325Z" fill="#263238"/>
<path d="M240.185 159.726C240.177 159.637 240.188 159.547 240.217 159.463C240.246 159.379 240.292 159.301 240.352 159.236C240.413 159.17 240.486 159.118 240.568 159.082C240.649 159.046 240.737 159.027 240.827 159.027C240.916 159.027 241.004 159.046 241.086 159.082C241.167 159.118 241.241 159.17 241.301 159.236C241.361 159.301 241.407 159.379 241.436 159.463C241.465 159.547 241.476 159.637 241.468 159.726V161.106C241.476 161.195 241.465 161.284 241.436 161.368C241.407 161.453 241.361 161.53 241.301 161.596C241.241 161.661 241.167 161.714 241.086 161.75C241.004 161.786 240.916 161.804 240.827 161.804C240.737 161.804 240.649 161.786 240.568 161.75C240.486 161.714 240.413 161.661 240.352 161.596C240.292 161.53 240.246 161.453 240.217 161.368C240.188 161.284 240.177 161.195 240.185 161.106V159.726ZM240.608 161.147C240.608 161.336 240.686 161.414 240.824 161.414C240.962 161.414 241.045 161.336 241.045 161.147V159.698C241.045 159.51 240.958 159.431 240.824 159.431C240.691 159.431 240.608 159.51 240.608 159.698V161.147ZM242.494 159.082H242.881L241.22 163.3H240.824L242.494 159.082ZM242.283 161.271C242.275 161.182 242.286 161.093 242.315 161.009C242.344 160.924 242.39 160.847 242.45 160.781C242.51 160.716 242.584 160.663 242.665 160.627C242.747 160.591 242.835 160.573 242.924 160.573C243.013 160.573 243.102 160.591 243.183 160.627C243.265 160.663 243.338 160.716 243.398 160.781C243.459 160.847 243.505 160.924 243.534 161.009C243.562 161.093 243.573 161.182 243.566 161.271V162.651C243.573 162.74 243.562 162.83 243.534 162.914C243.505 162.998 243.459 163.076 243.398 163.141C243.338 163.207 243.265 163.259 243.183 163.295C243.102 163.331 243.013 163.35 242.924 163.35C242.835 163.35 242.747 163.331 242.665 163.295C242.584 163.259 242.51 163.207 242.45 163.141C242.39 163.076 242.344 162.998 242.315 162.914C242.286 162.83 242.275 162.74 242.283 162.651V161.271ZM242.706 162.693C242.706 162.881 242.784 162.96 242.922 162.96C243.06 162.96 243.143 162.881 243.143 162.693V161.244C243.143 161.055 243.055 160.977 242.922 160.977C242.789 160.977 242.706 161.055 242.706 161.244V162.693Z" fill="#263238"/>
<path d="M236.408 166.281C236.196 166.281 236.063 166.396 236.063 166.699V167.159H235.433V166.75C235.41 166.611 235.42 166.469 235.461 166.335C235.502 166.201 235.573 166.078 235.669 165.975C235.765 165.872 235.883 165.793 236.014 165.743C236.145 165.693 236.286 165.674 236.426 165.687C237.075 165.687 237.415 166.074 237.415 166.75C237.415 168.079 236.09 168.59 236.09 169.271C236.086 169.3 236.086 169.329 236.09 169.358H237.36V169.965H235.437V169.446C235.437 168.199 236.757 167.992 236.757 166.773C236.753 166.382 236.619 166.281 236.408 166.281Z" fill="#263238"/>
<path d="M237.771 166.741C237.762 166.602 237.781 166.463 237.828 166.333C237.874 166.202 237.947 166.083 238.042 165.981C238.136 165.88 238.251 165.799 238.378 165.744C238.505 165.689 238.642 165.66 238.781 165.66C238.92 165.66 239.057 165.689 239.184 165.744C239.311 165.799 239.426 165.88 239.52 165.981C239.615 166.083 239.688 166.202 239.734 166.333C239.781 166.463 239.8 166.602 239.791 166.741V168.939C239.8 169.078 239.781 169.216 239.734 169.347C239.688 169.478 239.615 169.597 239.52 169.699C239.426 169.8 239.311 169.881 239.184 169.936C239.057 169.991 238.92 170.02 238.781 170.02C238.642 170.02 238.505 169.991 238.378 169.936C238.251 169.881 238.136 169.8 238.042 169.699C237.947 169.597 237.874 169.478 237.828 169.347C237.781 169.216 237.762 169.078 237.771 168.939V166.741ZM238.434 168.981C238.434 169.284 238.567 169.399 238.779 169.399C238.99 169.399 239.124 169.284 239.124 168.981V166.681C239.124 166.377 238.99 166.262 238.779 166.262C238.567 166.262 238.434 166.377 238.434 166.681V168.981Z" fill="#263238"/>
<path d="M240.185 166.373C240.177 166.284 240.188 166.195 240.217 166.11C240.246 166.026 240.292 165.948 240.352 165.883C240.413 165.817 240.486 165.765 240.568 165.729C240.649 165.693 240.737 165.675 240.827 165.675C240.916 165.675 241.004 165.693 241.086 165.729C241.167 165.765 241.241 165.817 241.301 165.883C241.361 165.948 241.407 166.026 241.436 166.11C241.465 166.195 241.476 166.284 241.468 166.373V167.753C241.476 167.842 241.465 167.931 241.436 168.016C241.407 168.1 241.361 168.177 241.301 168.243C241.241 168.309 241.167 168.361 241.086 168.397C241.004 168.433 240.916 168.451 240.827 168.451C240.737 168.451 240.649 168.433 240.568 168.397C240.486 168.361 240.413 168.309 240.352 168.243C240.292 168.177 240.246 168.1 240.217 168.016C240.188 167.931 240.177 167.842 240.185 167.753V166.373ZM240.608 167.79C240.608 167.978 240.686 168.057 240.824 168.057C240.962 168.057 241.045 167.978 241.045 167.79V166.341C241.045 166.152 240.958 166.074 240.824 166.074C240.691 166.074 240.608 166.152 240.608 166.341V167.79ZM242.494 165.724H242.881L241.215 169.956H240.82L242.494 165.724ZM242.283 167.9C242.275 167.811 242.286 167.722 242.315 167.638C242.344 167.553 242.39 167.476 242.45 167.41C242.51 167.344 242.584 167.292 242.665 167.256C242.747 167.22 242.835 167.202 242.924 167.202C243.013 167.202 243.102 167.22 243.183 167.256C243.265 167.292 243.338 167.344 243.398 167.41C243.459 167.476 243.505 167.553 243.534 167.638C243.562 167.722 243.573 167.811 243.566 167.9V169.28C243.573 169.369 243.562 169.458 243.534 169.543C243.505 169.627 243.459 169.705 243.398 169.77C243.338 169.836 243.265 169.888 243.183 169.924C243.102 169.96 243.013 169.979 242.924 169.979C242.835 169.979 242.747 169.96 242.665 169.924C242.584 169.888 242.51 169.836 242.45 169.77C242.39 169.705 242.344 169.627 242.315 169.543C242.286 169.458 242.275 169.369 242.283 169.28V167.9ZM242.706 169.322C242.706 169.51 242.784 169.588 242.922 169.588C243.06 169.588 243.143 169.51 243.143 169.322V167.9C243.143 167.716 243.055 167.638 242.922 167.638C242.789 167.638 242.706 167.716 242.706 167.9V169.322Z" fill="#263238"/>
<path d="M207.167 170.619C205.98 169.858 204.96 168.864 204.17 167.696C203.38 166.527 202.837 165.21 202.574 163.825C202.311 162.439 202.333 161.015 202.64 159.638C202.947 158.262 203.532 156.963 204.359 155.82C205.185 154.678 206.237 153.716 207.448 152.994C208.659 152.272 210.005 151.805 211.404 151.622C212.802 151.439 214.223 151.542 215.579 151.927C216.936 152.312 218.2 152.97 219.293 153.861" stroke="#263238" stroke-width="6" stroke-linejoin="round"/>
<path d="M221.021 168.185C219.44 170.257 217.137 171.658 214.571 172.109C212.004 172.56 209.362 172.028 207.17 170.618" stroke="#757575" stroke-width="6" stroke-linejoin="round"/>
<path d="M219.296 153.861C221.389 155.555 222.74 157.999 223.062 160.673C223.384 163.347 222.652 166.042 221.021 168.185" stroke="#A4EFFF" stroke-width="6" stroke-linejoin="round"/>
<path d="M230.759 156.575C231.729 156.575 232.516 155.788 232.516 154.818C232.516 153.847 231.729 153.061 230.759 153.061C229.788 153.061 229.001 153.847 229.001 154.818C229.001 155.788 229.788 156.575 230.759 156.575Z" fill="#263238"/>
<path d="M230.759 163.024C231.729 163.024 232.516 162.237 232.516 161.267C232.516 160.296 231.729 159.51 230.759 159.51C229.788 159.51 229.001 160.296 229.001 161.267C229.001 162.237 229.788 163.024 230.759 163.024Z" fill="#C4F0D1"/>
<path d="M230.759 169.473C231.729 169.473 232.516 168.686 232.516 167.716C232.516 166.745 231.729 165.959 230.759 165.959C229.788 165.959 229.001 166.745 229.001 167.716C229.001 168.686 229.788 169.473 230.759 169.473Z" fill="#757575"/>
<path d="M244.459 143.584H203.781V144.978H244.459V143.584Z" fill="#CCCCCC"/>
<path d="M111.499 148.198H192.574" stroke="#CCCCCC" stroke-linecap="round" stroke-linejoin="round"/>
<path d="M111.499 151.993H192.574" stroke="#CCCCCC" stroke-linecap="round" stroke-linejoin="round"/>
<path d="M111.499 155.788H192.574" stroke="#CCCCCC" stroke-linecap="round" stroke-linejoin="round"/>
<path d="M111.499 159.583H192.574" stroke="#CCCCCC" stroke-linecap="round" stroke-linejoin="round"/>
<path d="M111.499 163.378H192.574" stroke="#CCCCCC" stroke-linecap="round" stroke-linejoin="round"/>
<path d="M111.499 167.173H192.574" stroke="#CCCCCC" stroke-linecap="round" stroke-linejoin="round"/>
<path d="M111.499 170.968H192.574" stroke="#CCCCCC" stroke-linecap="round" stroke-linejoin="round"/>
<path d="M111.499 174.763H192.574" stroke="#CCCCCC" stroke-linecap="round" stroke-linejoin="round"/>
<path d="M105.755 148.198H109.66" stroke="#CCCCCC" stroke-linecap="round" stroke-linejoin="round"/>
<path d="M105.755 151.993H109.66" stroke="#CCCCCC" stroke-linecap="round" stroke-linejoin="round"/>
<path d="M105.755 155.788H109.66" stroke="#CCCCCC" stroke-linecap="round" stroke-linejoin="round"/>
<path d="M105.755 159.583H109.66" stroke="#CCCCCC" stroke-linecap="round" stroke-linejoin="round"/>
<path d="M105.755 163.378H109.66" stroke="#CCCCCC" stroke-linecap="round" stroke-linejoin="round"/>
<path d="M105.755 167.173H109.66" stroke="#CCCCCC" stroke-linecap="round" stroke-linejoin="round"/>
<path d="M105.755 170.968H109.66" stroke="#CCCCCC" stroke-linecap="round" stroke-linejoin="round"/>
<path d="M105.755 174.763H109.66" stroke="#CCCCCC" stroke-linecap="round" stroke-linejoin="round"/>
<path d="M112.94 156.933L113.906 156.073L114.445 157.366L115.733 156.506L116.165 157.582L117.347 154.463L117.885 155.429L118.207 157.472L119.39 157.904L119.928 159.73L120.682 160.485L121.326 158.976L122.83 162.095L123.474 161.878L124.873 169.836L125.411 168.654L126.377 171.019L127.881 161.773L129.174 163.921L130.25 161.878L131 163.599L131.966 162.739L132.72 164.569L134.441 162.739L135.195 165.108L136.911 165.968L137.771 163.921L138.636 163.815L139.386 162.527H140.14L140.674 165.641L141.539 162.417L142.61 162.205L143.687 161.451L144.653 162.095L145.407 164.997L146.157 164.459L147.45 166.612L148.199 165.319L148.848 166.612L149.386 166.179L150.246 166.396L151.856 164.247L152.933 165.43L153.683 163.277L154.543 163.921L155.403 158.764L156.052 159.514L157.445 154.679H157.984L158.306 152.31L159.382 152.205L159.81 149.84L160.886 152.743L161.53 151.455L162.285 156.289L163.251 156.611L163.789 155.001L165.62 153.709L166.586 156.073L166.691 160.268L167.984 160.912L169.166 158.764L170.132 159.086L171.314 158.976L172.069 160.485L172.929 158.442H173.573L175.615 163.065L176.154 161.451L177.014 161.556L178.086 164.137L179.268 162.311L180.128 153.603L181.31 155.001L181.743 148.12L182.819 149.408L183.357 153.065L184.645 152.527L185.611 155.54L186.366 155.862L186.793 161.451L187.442 160.163L187.764 158.654L189.484 159.086L190.234 158.654L191.633 160.59" stroke="#A4EFFF" stroke-width="2" stroke-miterlimit="10"/>
<path d="M115.847 141.491H106.187V146.386H115.847V141.491Z" fill="white" stroke="#263238" stroke-linecap="round" stroke-linejoin="round"/>
<path d="M115.846 141.491V142.655C115.537 142.655 115.241 142.533 115.023 142.314C114.805 142.096 114.682 141.8 114.682 141.491H115.846Z" fill="white" stroke="#263238" stroke-linecap="round" stroke-linejoin="round"/>
<path d="M114.691 146.386C114.691 146.335 114.691 146.284 114.691 146.229C114.691 145.921 114.814 145.625 115.032 145.406C115.251 145.188 115.547 145.065 115.855 145.065" fill="white"/>
<path d="M114.691 146.386C114.691 146.335 114.691 146.284 114.691 146.229C114.691 145.921 114.814 145.625 115.032 145.406C115.251 145.188 115.547 145.065 115.855 145.065" stroke="#263238" stroke-linecap="round" stroke-linejoin="round"/>
<path d="M106.187 142.655H106.219C106.527 142.655 106.823 142.533 107.042 142.314C107.26 142.096 107.383 141.8 107.383 141.491" fill="white"/>
<path d="M106.187 142.655H106.219C106.527 142.655 106.823 142.533 107.042 142.314C107.26 142.096 107.383 141.8 107.383 141.491" stroke="#263238" stroke-linecap="round" stroke-linejoin="round"/>
<path d="M107.38 146.229C107.38 146.284 107.38 146.335 107.38 146.386H106.193V145.065H106.225C106.532 145.068 106.826 145.192 107.042 145.41C107.258 145.628 107.38 145.922 107.38 146.229Z" fill="white" stroke="#263238" stroke-linecap="round" stroke-linejoin="round"/>
<path d="M112.525 143.938C112.525 143.64 112.436 143.348 112.271 143.1C112.105 142.852 111.869 142.659 111.594 142.545C111.318 142.43 111.014 142.4 110.722 142.459C110.429 142.517 110.16 142.661 109.949 142.872C109.738 143.083 109.595 143.351 109.536 143.644C109.478 143.937 109.508 144.24 109.622 144.516C109.736 144.792 109.93 145.027 110.178 145.193C110.426 145.359 110.718 145.447 111.016 145.447C111.416 145.447 111.8 145.288 112.083 145.005C112.366 144.722 112.525 144.339 112.525 143.938Z" fill="white" stroke="#263238" stroke-linecap="round" stroke-linejoin="round"/>
<path d="M110.89 143V142.857H111.139V143C111.35 143.041 111.461 143.207 111.461 143.46V143.52H111.175V143.437C111.175 143.304 111.12 143.248 111.024 143.248C110.927 143.248 110.876 143.304 110.876 143.437C110.876 143.833 111.461 143.851 111.461 144.398C111.473 144.501 111.446 144.605 111.387 144.69C111.328 144.774 111.239 144.834 111.139 144.858V144.996H110.89V144.9C110.789 144.877 110.699 144.817 110.639 144.732C110.579 144.647 110.552 144.543 110.564 144.44V144.311H110.858V144.44C110.858 144.573 110.918 144.624 111.014 144.624C111.111 144.624 111.171 144.573 111.171 144.44C111.171 144.044 110.582 144.026 110.582 143.478C110.564 143.375 110.585 143.267 110.642 143.179C110.7 143.09 110.788 143.026 110.89 143Z" fill="#263238"/>
<path d="M159.481 143.584H118.803V144.978H159.481V143.584Z" fill="#CCCCCC"/>
<path d="M284.501 147.839H252.646V150.875H284.501V147.839Z" fill="#CCCCCC"/>
<path d="M262.808 147.839H252.646V150.875H262.808V147.839Z" fill="#A4EFFF"/>
<path d="M284.501 155.687H252.646V158.723H284.501V155.687Z" fill="#CCCCCC"/>
<path d="M273.949 155.687H252.646V158.723H273.949V155.687Z" fill="#A4EFFF"/>
<path d="M284.501 163.534H252.646V166.57H284.501V163.534Z" fill="#CCCCCC"/>
<path d="M257.141 163.534H252.646V166.57H257.141V163.534Z" fill="#A4EFFF"/>
<path d="M284.501 171.377H252.646V174.413H284.501V171.377Z" fill="#CCCCCC"/>
<path d="M280.591 171.377H252.646V174.413H280.591V171.377Z" fill="#A4EFFF"/>
<path d="M284.292 143.584H252.534V144.978H284.292V143.584Z" fill="#CCCCCC"/>
<path d="M109.148 198.992C118.25 189.889 118.25 175.131 109.148 166.029C100.045 156.926 85.2874 156.926 76.185 166.029C67.0826 175.131 67.0826 189.889 76.185 198.992C85.2874 208.094 100.045 208.094 109.148 198.992Z" fill="white" stroke="#263238" stroke-linecap="round" stroke-linejoin="round"/>
<path d="M104.239 163.08H105.223" stroke="#263238" stroke-linecap="round" stroke-linejoin="round"/>
<path d="M106.452 164.795H107.8" stroke="#263238" stroke-linecap="round" stroke-linejoin="round"/>
<path d="M108.907 167.256H110.011" stroke="#263238" stroke-linecap="round" stroke-linejoin="round"/>
<path d="M111.365 170.573H112.469" stroke="#263238" stroke-linecap="round" stroke-linejoin="round"/>
<path d="M113.579 175.117H114.807" stroke="#263238" stroke-linecap="round" stroke-linejoin="round"/>
<path d="M114.623 182.51H115.975" stroke="#263238" stroke-linecap="round" stroke-linejoin="round"/>
<path d="M104.239 201.65H105.223" stroke="#263238" stroke-linecap="round" stroke-linejoin="round"/>
<path d="M106.452 199.93H107.8" stroke="#263238" stroke-linecap="round" stroke-linejoin="round"/>
<path d="M108.907 197.474H110.011" stroke="#263238" stroke-linecap="round" stroke-linejoin="round"/>
<path d="M111.365 194.157H112.469" stroke="#263238" stroke-linecap="round" stroke-linejoin="round"/>
<path d="M113.579 189.612H114.807" stroke="#263238" stroke-linecap="round" stroke-linejoin="round"/>
<path d="M114.022 187.781C116.935 175.243 109.132 162.716 96.5931 159.803C84.0544 156.89 71.528 164.693 68.6148 177.232C65.7015 189.77 73.5045 202.297 86.0433 205.21C98.5821 208.123 111.108 200.32 114.022 187.781Z" fill="white" stroke="#263238" stroke-linecap="round" stroke-linejoin="round"/>
<path d="M110.734 187.019C113.227 176.297 106.556 165.584 95.8344 163.091C85.1124 160.598 74.3994 167.268 71.9063 177.99C69.4132 188.712 76.084 199.425 86.806 201.918C97.528 204.412 108.241 197.741 110.734 187.019Z" fill="white" stroke="#263238" stroke-linecap="round" stroke-linejoin="round"/>
<path d="M89.6581 169.322V167.403H92.9747V169.322C95.8543 169.915 97.3309 172.128 97.3309 175.633V176.442H93.4945V175.375C93.4945 173.535 92.7539 172.827 91.4659 172.827C90.1779 172.827 89.4327 173.531 89.4327 175.375C89.4327 180.688 97.3677 180.946 97.3677 188.324C97.3677 191.829 95.8543 194.079 92.9747 194.672V196.554H89.6581V194.672C86.7417 194.079 85.2651 191.829 85.2651 188.324V186.553H89.1015V188.6C89.1015 190.44 89.9157 191.112 91.2037 191.112C92.4917 191.112 93.3105 190.445 93.3105 188.6C93.3105 183.287 85.3755 183.03 85.3755 175.651C85.3755 172.164 86.8153 169.952 89.6581 169.322Z" fill="white" stroke="#263238" stroke-linecap="round" stroke-linejoin="round"/>
<path d="M88.6716 169.322V167.403H91.9928V169.322C94.8724 169.915 96.3444 172.128 96.3444 175.633V176.442H92.508V175.375C92.508 173.535 91.772 172.827 90.4794 172.827C89.1868 172.827 88.4508 173.531 88.4508 175.375C88.4508 180.688 96.3812 180.946 96.3812 188.324C96.3812 191.829 94.8724 194.079 91.9928 194.672V196.554H88.6716V194.672C85.7552 194.079 84.2832 191.829 84.2832 188.324V186.553H88.1334V188.6C88.1334 190.44 88.943 191.112 90.2356 191.112C91.5282 191.112 92.3378 190.445 92.3378 188.6C92.3378 183.287 84.4074 183.03 84.4074 175.651C84.3936 172.164 85.8334 169.952 88.6716 169.322Z" fill="white" stroke="#263238" stroke-linecap="round" stroke-linejoin="round"/>
<path d="M44.516 143.571H83.8828V140.07H44.516V143.571Z" fill="white" stroke="#263238" stroke-linecap="round" stroke-linejoin="round"/>
<path d="M81.8008 140.153V143.423" stroke="#263238" stroke-linecap="round" stroke-linejoin="round"/>
<path d="M82.9419 140.153V143.423" stroke="#263238" stroke-linecap="round" stroke-linejoin="round"/>
<path d="M79.5273 140.153V143.423" stroke="#263238" stroke-linecap="round" stroke-linejoin="round"/>
<path d="M77.251 140.153V143.423" stroke="#263238" stroke-linecap="round" stroke-linejoin="round"/>
<path d="M74.978 140.153V143.423" stroke="#263238" stroke-linecap="round" stroke-linejoin="round"/>
<path d="M72.7017 140.153V143.423" stroke="#263238" stroke-linecap="round" stroke-linejoin="round"/>
<path d="M69.2935 140.153V143.423" stroke="#263238" stroke-linecap="round" stroke-linejoin="round"/>
<path d="M63.6025 140.153V143.423" stroke="#263238" stroke-linecap="round" stroke-linejoin="round"/>
<path d="M44.516 147.25H83.8828V143.75H44.516V147.25Z" fill="white" stroke="#263238" stroke-linecap="round" stroke-linejoin="round"/>
<path d="M81.8008 143.833V147.103" stroke="#263238" stroke-linecap="round" stroke-linejoin="round"/>
<path d="M82.9419 143.833V147.103" stroke="#263238" stroke-linecap="round" stroke-linejoin="round"/>
<path d="M79.5273 143.833V147.103" stroke="#263238" stroke-linecap="round" stroke-linejoin="round"/>
<path d="M77.251 143.833V147.103" stroke="#263238" stroke-linecap="round" stroke-linejoin="round"/>
<path d="M74.978 143.833V147.103" stroke="#263238" stroke-linecap="round" stroke-linejoin="round"/>
<path d="M72.7017 143.833V147.103" stroke="#263238" stroke-linecap="round" stroke-linejoin="round"/>
<path d="M69.2935 143.833V147.103" stroke="#263238" stroke-linecap="round" stroke-linejoin="round"/>
<path d="M63.6025 143.833V147.103" stroke="#263238" stroke-linecap="round" stroke-linejoin="round"/>
<path d="M44.516 139.95H83.8828V136.45H44.516V139.95Z" fill="white" stroke="#263238" stroke-linecap="round" stroke-linejoin="round"/>
<path d="M81.8008 136.528V139.794" stroke="#263238" stroke-linecap="round" stroke-linejoin="round"/>
<path d="M82.9419 136.528V139.794" stroke="#263238" stroke-linecap="round" stroke-linejoin="round"/>
<path d="M79.5273 136.528V139.794" stroke="#263238" stroke-linecap="round" stroke-linejoin="round"/>
<path d="M77.251 136.528V139.794" stroke="#263238" stroke-linecap="round" stroke-linejoin="round"/>
<path d="M74.978 136.528V139.794" stroke="#263238" stroke-linecap="round" stroke-linejoin="round"/>
<path d="M72.7017 136.528V139.794" stroke="#263238" stroke-linecap="round" stroke-linejoin="round"/>
<path d="M69.2935 136.528V139.794" stroke="#263238" stroke-linecap="round" stroke-linejoin="round"/>
<path d="M63.6025 136.528V139.794" stroke="#263238" stroke-linecap="round" stroke-linejoin="round"/>
<path d="M44.516 150.931H83.8828V147.43H44.516V150.931Z" fill="white" stroke="#263238" stroke-linecap="round" stroke-linejoin="round"/>
<path d="M81.8008 147.513V150.784" stroke="#263238" stroke-linecap="round" stroke-linejoin="round"/>
<path d="M82.9419 147.513V150.784" stroke="#263238" stroke-linecap="round" stroke-linejoin="round"/>
<path d="M79.5273 147.513V150.784" stroke="#263238" stroke-linecap="round" stroke-linejoin="round"/>
<path d="M77.251 147.513V150.784" stroke="#263238" stroke-linecap="round" stroke-linejoin="round"/>
<path d="M74.978 147.513V150.784" stroke="#263238" stroke-linecap="round" stroke-linejoin="round"/>
<path d="M72.7017 147.513V150.784" stroke="#263238" stroke-linecap="round" stroke-linejoin="round"/>
<path d="M69.2935 147.513V150.784" stroke="#263238" stroke-linecap="round" stroke-linejoin="round"/>
<path d="M63.6025 147.513V150.784" stroke="#263238" stroke-linecap="round" stroke-linejoin="round"/>
<path d="M45.4389 154.611H84.8057V151.11H45.4389V154.611Z" fill="white" stroke="#263238" stroke-linecap="round" stroke-linejoin="round"/>
<path d="M82.7197 151.193V154.463" stroke="#263238" stroke-linecap="round" stroke-linejoin="round"/>
<path d="M83.8613 151.193V154.463" stroke="#263238" stroke-linecap="round" stroke-linejoin="round"/>
<path d="M80.4468 151.193V154.463" stroke="#263238" stroke-linecap="round" stroke-linejoin="round"/>
<path d="M78.1704 151.193V154.463" stroke="#263238" stroke-linecap="round" stroke-linejoin="round"/>
<path d="M75.897 151.193V154.463" stroke="#263238" stroke-linecap="round" stroke-linejoin="round"/>
<path d="M73.6211 151.193V154.463" stroke="#263238" stroke-linecap="round" stroke-linejoin="round"/>
<path d="M70.2124 151.193V154.463" stroke="#263238" stroke-linecap="round" stroke-linejoin="round"/>
<path d="M64.522 151.193V154.463" stroke="#263238" stroke-linecap="round" stroke-linejoin="round"/>
<path d="M44.516 158.291H83.8828V154.79H44.516V158.291Z" fill="white" stroke="#263238" stroke-linecap="round" stroke-linejoin="round"/>
<path d="M81.8008 154.873V158.144" stroke="#263238" stroke-linecap="round" stroke-linejoin="round"/>
<path d="M82.9419 154.873V158.144" stroke="#263238" stroke-linecap="round" stroke-linejoin="round"/>
<path d="M79.5273 154.873V158.144" stroke="#263238" stroke-linecap="round" stroke-linejoin="round"/>
<path d="M77.251 154.873V158.144" stroke="#263238" stroke-linecap="round" stroke-linejoin="round"/>
<path d="M74.978 154.873V158.144" stroke="#263238" stroke-linecap="round" stroke-linejoin="round"/>
<path d="M72.7017 154.873V158.144" stroke="#263238" stroke-linecap="round" stroke-linejoin="round"/>
<path d="M69.2935 154.873V158.144" stroke="#263238" stroke-linecap="round" stroke-linejoin="round"/>
<path d="M63.6025 154.873V158.144" stroke="#263238" stroke-linecap="round" stroke-linejoin="round"/>
<path d="M46.3578 161.971H85.7246V158.47H46.3578V161.971Z" fill="white" stroke="#263238" stroke-linecap="round" stroke-linejoin="round"/>
<path d="M83.6392 158.553V161.823" stroke="#263238" stroke-linecap="round" stroke-linejoin="round"/>
<path d="M84.7803 158.553V161.823" stroke="#263238" stroke-linecap="round" stroke-linejoin="round"/>
<path d="M81.3691 158.553V161.823" stroke="#263238" stroke-linecap="round" stroke-linejoin="round"/>
<path d="M79.0898 158.553V161.823" stroke="#263238" stroke-linecap="round" stroke-linejoin="round"/>
<path d="M76.8193 158.553V161.823" stroke="#263238" stroke-linecap="round" stroke-linejoin="round"/>
<path d="M74.54 158.553V161.823" stroke="#263238" stroke-linecap="round" stroke-linejoin="round"/>
<path d="M71.1318 158.553V161.823" stroke="#263238" stroke-linecap="round" stroke-linejoin="round"/>
<path d="M65.4443 158.553V161.823" stroke="#263238" stroke-linecap="round" stroke-linejoin="round"/>
<path d="M47.0458 165.651H86.4126V162.15H47.0458V165.651Z" fill="white" stroke="#263238" stroke-linecap="round" stroke-linejoin="round"/>
<path d="M84.3301 162.233V165.504" stroke="#263238" stroke-linecap="round" stroke-linejoin="round"/>
<path d="M85.4717 162.233V165.504" stroke="#263238" stroke-linecap="round" stroke-linejoin="round"/>
<path d="M82.0571 162.233V165.504" stroke="#263238" stroke-linecap="round" stroke-linejoin="round"/>
<path d="M79.7808 162.233V165.504" stroke="#263238" stroke-linecap="round" stroke-linejoin="round"/>
<path d="M77.5073 162.233V165.504" stroke="#263238" stroke-linecap="round" stroke-linejoin="round"/>
<path d="M75.231 162.233V165.504" stroke="#263238" stroke-linecap="round" stroke-linejoin="round"/>
<path d="M71.8228 162.233V165.504" stroke="#263238" stroke-linecap="round" stroke-linejoin="round"/>
<path d="M66.1323 162.233V165.504" stroke="#263238" stroke-linecap="round" stroke-linejoin="round"/>
<path d="M45.2074 169.331H84.5742V165.83H45.2074V169.331Z" fill="white" stroke="#263238" stroke-linecap="round" stroke-linejoin="round"/>
<path d="M82.4917 165.913V169.184" stroke="#263238" stroke-linecap="round" stroke-linejoin="round"/>
<path d="M83.6299 165.913V169.184" stroke="#263238" stroke-linecap="round" stroke-linejoin="round"/>
<path d="M80.2183 165.913V169.184" stroke="#263238" stroke-linecap="round" stroke-linejoin="round"/>
<path d="M77.9419 165.913V169.184" stroke="#263238" stroke-linecap="round" stroke-linejoin="round"/>
<path d="M75.6689 165.913V169.184" stroke="#263238" stroke-linecap="round" stroke-linejoin="round"/>
<path d="M73.3926 165.913V169.184" stroke="#263238" stroke-linecap="round" stroke-linejoin="round"/>
<path d="M69.9844 165.913V169.184" stroke="#263238" stroke-linecap="round" stroke-linejoin="round"/>
<path d="M64.2935 165.913V169.184" stroke="#263238" stroke-linecap="round" stroke-linejoin="round"/>
<path d="M46.2235 173.011H85.5903V169.51H46.2235V173.011Z" fill="white" stroke="#263238" stroke-linecap="round" stroke-linejoin="round"/>
<path d="M83.5078 169.593V172.864" stroke="#263238" stroke-linecap="round" stroke-linejoin="round"/>
<path d="M84.6489 169.593V172.864" stroke="#263238" stroke-linecap="round" stroke-linejoin="round"/>
<path d="M81.2349 169.593V172.864" stroke="#263238" stroke-linecap="round" stroke-linejoin="round"/>
<path d="M78.9585 169.593V172.864" stroke="#263238" stroke-linecap="round" stroke-linejoin="round"/>
<path d="M76.6851 169.593V172.864" stroke="#263238" stroke-linecap="round" stroke-linejoin="round"/>
<path d="M74.4087 169.593V172.864" stroke="#263238" stroke-linecap="round" stroke-linejoin="round"/>
<path d="M71.0005 169.593V172.864" stroke="#263238" stroke-linecap="round" stroke-linejoin="round"/>
<path d="M65.3096 169.593V172.864" stroke="#263238" stroke-linecap="round" stroke-linejoin="round"/>
<path d="M44.516 176.691H83.8828V173.19H44.516V176.691Z" fill="white" stroke="#263238" stroke-linecap="round" stroke-linejoin="round"/>
<path d="M81.8008 173.273V176.544" stroke="#263238" stroke-linecap="round" stroke-linejoin="round"/>
<path d="M82.9419 173.273V176.544" stroke="#263238" stroke-linecap="round" stroke-linejoin="round"/>
<path d="M79.5273 173.273V176.544" stroke="#263238" stroke-linecap="round" stroke-linejoin="round"/>
<path d="M77.251 173.273V176.544" stroke="#263238" stroke-linecap="round" stroke-linejoin="round"/>
<path d="M74.978 173.273V176.544" stroke="#263238" stroke-linecap="round" stroke-linejoin="round"/>
<path d="M72.7017 173.273V176.544" stroke="#263238" stroke-linecap="round" stroke-linejoin="round"/>
<path d="M69.2935 173.273V176.544" stroke="#263238" stroke-linecap="round" stroke-linejoin="round"/>
<path d="M63.6025 173.273V176.544" stroke="#263238" stroke-linecap="round" stroke-linejoin="round"/>
<path d="M44.516 180.371H83.8828V176.87H44.516V180.371Z" fill="white" stroke="#263238" stroke-linecap="round" stroke-linejoin="round"/>
<path d="M81.8008 176.953V180.224" stroke="#263238" stroke-linecap="round" stroke-linejoin="round"/>
<path d="M82.9419 176.953V180.224" stroke="#263238" stroke-linecap="round" stroke-linejoin="round"/>
<path d="M79.5273 176.953V180.224" stroke="#263238" stroke-linecap="round" stroke-linejoin="round"/>
<path d="M77.251 176.953V180.224" stroke="#263238" stroke-linecap="round" stroke-linejoin="round"/>
<path d="M74.978 176.953V180.224" stroke="#263238" stroke-linecap="round" stroke-linejoin="round"/>
<path d="M72.7017 176.953V180.224" stroke="#263238" stroke-linecap="round" stroke-linejoin="round"/>
<path d="M69.2935 176.953V180.224" stroke="#263238" stroke-linecap="round" stroke-linejoin="round"/>
<path d="M63.6025 176.953V180.224" stroke="#263238" stroke-linecap="round" stroke-linejoin="round"/>
<path d="M42.4462 184.051H81.813V180.55H42.4462V184.051Z" fill="white" stroke="#263238" stroke-linecap="round" stroke-linejoin="round"/>
<path d="M79.7305 180.633V183.903" stroke="#263238" stroke-linecap="round" stroke-linejoin="round"/>
<path d="M80.8721 180.633V183.903" stroke="#263238" stroke-linecap="round" stroke-linejoin="round"/>
<path d="M77.4575 180.633V183.903" stroke="#263238" stroke-linecap="round" stroke-linejoin="round"/>
<path d="M75.1812 180.633V183.903" stroke="#263238" stroke-linecap="round" stroke-linejoin="round"/>
<path d="M72.9077 180.633V183.903" stroke="#263238" stroke-linecap="round" stroke-linejoin="round"/>
<path d="M70.6318 180.633V183.903" stroke="#263238" stroke-linecap="round" stroke-linejoin="round"/>
<path d="M67.2236 180.633V183.903" stroke="#263238" stroke-linecap="round" stroke-linejoin="round"/>
<path d="M61.5327 180.633V183.903" stroke="#263238" stroke-linecap="round" stroke-linejoin="round"/>
<path d="M43.3685 187.73H82.7354V184.23H43.3685V187.73Z" fill="white" stroke="#263238" stroke-linecap="round" stroke-linejoin="round"/>
<path d="M80.6499 184.313V187.584" stroke="#263238" stroke-linecap="round" stroke-linejoin="round"/>
<path d="M81.791 184.313V187.584" stroke="#263238" stroke-linecap="round" stroke-linejoin="round"/>
<path d="M78.377 184.313V187.584" stroke="#263238" stroke-linecap="round" stroke-linejoin="round"/>
<path d="M76.1006 184.313V187.584" stroke="#263238" stroke-linecap="round" stroke-linejoin="round"/>
<path d="M73.8271 184.313V187.584" stroke="#263238" stroke-linecap="round" stroke-linejoin="round"/>
<path d="M71.5508 184.313V187.584" stroke="#263238" stroke-linecap="round" stroke-linejoin="round"/>
<path d="M68.1426 184.313V187.584" stroke="#263238" stroke-linecap="round" stroke-linejoin="round"/>
<path d="M62.4517 184.313V187.584" stroke="#263238" stroke-linecap="round" stroke-linejoin="round"/>
<path d="M43.5971 191.411H82.9639V187.91H43.5971V191.411Z" fill="white" stroke="#263238" stroke-linecap="round" stroke-linejoin="round"/>
<path d="M80.8813 187.993V191.264" stroke="#263238" stroke-linecap="round" stroke-linejoin="round"/>
<path d="M82.0225 187.993V191.264" stroke="#263238" stroke-linecap="round" stroke-linejoin="round"/>
<path d="M78.6079 187.993V191.264" stroke="#263238" stroke-linecap="round" stroke-linejoin="round"/>
<path d="M76.332 187.993V191.264" stroke="#263238" stroke-linecap="round" stroke-linejoin="round"/>
<path d="M74.0586 187.993V191.264" stroke="#263238" stroke-linecap="round" stroke-linejoin="round"/>
<path d="M71.7822 187.993V191.264" stroke="#263238" stroke-linecap="round" stroke-linejoin="round"/>
<path d="M68.374 187.993V191.264" stroke="#263238" stroke-linecap="round" stroke-linejoin="round"/>
<path d="M62.6831 187.993V191.264" stroke="#263238" stroke-linecap="round" stroke-linejoin="round"/>
<path d="M44.516 195.091H83.8828V191.59H44.516V195.091Z" fill="white" stroke="#263238" stroke-linecap="round" stroke-linejoin="round"/>
<path d="M81.8008 191.673V194.943" stroke="#263238" stroke-linecap="round" stroke-linejoin="round"/>
<path d="M82.9419 191.673V194.943" stroke="#263238" stroke-linecap="round" stroke-linejoin="round"/>
<path d="M79.5273 191.673V194.943" stroke="#263238" stroke-linecap="round" stroke-linejoin="round"/>
<path d="M77.251 191.673V194.943" stroke="#263238" stroke-linecap="round" stroke-linejoin="round"/>
<path d="M74.978 191.673V194.943" stroke="#263238" stroke-linecap="round" stroke-linejoin="round"/>
<path d="M72.7017 191.673V194.943" stroke="#263238" stroke-linecap="round" stroke-linejoin="round"/>
<path d="M69.2935 191.673V194.943" stroke="#263238" stroke-linecap="round" stroke-linejoin="round"/>
<path d="M63.6025 191.673V194.943" stroke="#263238" stroke-linecap="round" stroke-linejoin="round"/>
<path d="M44.516 198.771H83.8828V195.27H44.516V198.771Z" fill="white" stroke="#263238" stroke-linecap="round" stroke-linejoin="round"/>
<path d="M81.8008 195.353V198.624" stroke="#263238" stroke-linecap="round" stroke-linejoin="round"/>
<path d="M82.9419 195.353V198.624" stroke="#263238" stroke-linecap="round" stroke-linejoin="round"/>
<path d="M79.5273 195.353V198.624" stroke="#263238" stroke-linecap="round" stroke-linejoin="round"/>
<path d="M77.251 195.353V198.624" stroke="#263238" stroke-linecap="round" stroke-linejoin="round"/>
<path d="M74.978 195.353V198.624" stroke="#263238" stroke-linecap="round" stroke-linejoin="round"/>
<path d="M72.7017 195.353V198.624" stroke="#263238" stroke-linecap="round" stroke-linejoin="round"/>
<path d="M69.2935 195.353V198.624" stroke="#263238" stroke-linecap="round" stroke-linejoin="round"/>
<path d="M63.6025 195.353V198.624" stroke="#263238" stroke-linecap="round" stroke-linejoin="round"/>
<path d="M43.5971 202.451H82.9639V198.95H43.5971V202.451Z" fill="white" stroke="#263238" stroke-linecap="round" stroke-linejoin="round"/>
<path d="M80.8813 199.033V202.303" stroke="#263238" stroke-linecap="round" stroke-linejoin="round"/>
<path d="M82.0225 199.033V202.303" stroke="#263238" stroke-linecap="round" stroke-linejoin="round"/>
<path d="M78.6079 199.033V202.303" stroke="#263238" stroke-linecap="round" stroke-linejoin="round"/>
<path d="M76.332 199.033V202.303" stroke="#263238" stroke-linecap="round" stroke-linejoin="round"/>
<path d="M74.0586 199.033V202.303" stroke="#263238" stroke-linecap="round" stroke-linejoin="round"/>
<path d="M71.7822 199.033V202.303" stroke="#263238" stroke-linecap="round" stroke-linejoin="round"/>
<path d="M68.374 199.033V202.303" stroke="#263238" stroke-linecap="round" stroke-linejoin="round"/>
<path d="M62.6831 199.033V202.303" stroke="#263238" stroke-linecap="round" stroke-linejoin="round"/>
<path d="M44.516 206.131H83.8828V202.63H44.516V206.131Z" fill="white" stroke="#263238" stroke-linecap="round" stroke-linejoin="round"/>
<path d="M81.8008 202.713V205.984" stroke="#263238" stroke-linecap="round" stroke-linejoin="round"/>
<path d="M82.9419 202.713V205.984" stroke="#263238" stroke-linecap="round" stroke-linejoin="round"/>
<path d="M79.5273 202.713V205.984" stroke="#263238" stroke-linecap="round" stroke-linejoin="round"/>
<path d="M77.251 202.713V205.984" stroke="#263238" stroke-linecap="round" stroke-linejoin="round"/>
<path d="M74.978 202.713V205.984" stroke="#263238" stroke-linecap="round" stroke-linejoin="round"/>
<path d="M72.7017 202.713V205.984" stroke="#263238" stroke-linecap="round" stroke-linejoin="round"/>
<path d="M69.2935 202.713V205.984" stroke="#263238" stroke-linecap="round" stroke-linejoin="round"/>
<path d="M63.6025 202.713V205.984" stroke="#263238" stroke-linecap="round" stroke-linejoin="round"/>
<path d="M267.722 191.208C264.539 187.666 255.895 185.127 245.725 185.127C236.226 185.127 228.061 187.344 224.431 190.523L222.417 190.491V194.217C222.417 199.235 232.854 203.306 245.725 203.306C258.596 203.306 269.033 199.235 269.033 194.217V191.231L267.722 191.208Z" fill="white" stroke="#263238" stroke-linecap="round" stroke-linejoin="round"/>
<path d="M245.725 200.321C258.597 200.321 269.033 196.252 269.033 191.232C269.033 186.212 258.597 182.142 245.725 182.142C232.852 182.142 222.417 186.212 222.417 191.232C222.417 196.252 232.852 200.321 245.725 200.321Z" fill="white" stroke="#263238" stroke-linecap="round" stroke-linejoin="round"/>
<path d="M245.725 199.005C256.733 199.005 265.657 195.524 265.657 191.231C265.657 186.938 256.733 183.457 245.725 183.457C234.717 183.457 225.793 186.938 225.793 191.231C225.793 195.524 234.717 199.005 245.725 199.005Z" fill="white" stroke="#263238" stroke-linecap="round" stroke-linejoin="round"/>
<path d="M244.074 186.089V185.339H247.396V186.089C250.275 186.319 251.752 187.183 251.752 188.55V188.867H247.911V188.448C247.911 187.731 247.175 187.455 245.882 187.455C244.59 187.455 243.854 187.731 243.854 188.448C243.854 190.523 251.789 190.624 251.789 193.508C251.789 194.888 250.275 195.753 247.396 195.983V196.719H244.074V195.96C241.163 195.73 239.686 194.852 239.686 193.485V192.795H243.522V193.587C243.522 194.309 244.332 194.566 245.625 194.566C246.917 194.566 247.727 194.309 247.727 193.587C247.727 191.517 239.796 191.415 239.796 188.527C239.787 187.22 241.227 186.332 244.074 186.089Z" fill="white" stroke="#263238" stroke-linecap="round" stroke-linejoin="round"/>
<path d="M244.074 185.55V184.805H247.396V185.55C250.275 185.78 251.752 186.645 251.752 188.011V188.329H247.911V187.91C247.911 187.193 247.175 186.921 245.882 186.921C244.59 186.921 243.854 187.193 243.854 187.91C243.854 189.985 251.789 190.086 251.789 192.97C251.789 194.35 250.275 195.215 247.396 195.445V196.176H244.074V195.445C241.163 195.215 239.686 194.336 239.686 192.97V192.28H243.522V193.071C243.522 193.794 244.332 194.051 245.625 194.051C246.917 194.051 247.727 193.794 247.727 193.071C247.727 191.001 239.796 190.9 239.796 188.011C239.787 186.659 241.227 185.799 244.074 185.55Z" fill="white" stroke="#263238" stroke-linecap="round" stroke-linejoin="round"/>
<path d="M223.914 197.423V194.75" stroke="#263238" stroke-linecap="round" stroke-linejoin="round"/>
<path d="M225.722 198.651V196.195" stroke="#263238" stroke-linecap="round" stroke-linejoin="round"/>
<path d="M227.669 199.805V197.133" stroke="#263238" stroke-linecap="round" stroke-linejoin="round"/>
<path d="M230.343 200.961V198.072" stroke="#263238" stroke-linecap="round" stroke-linejoin="round"/>
<path d="M233.523 200.358V199.083" stroke="#263238" stroke-linecap="round" stroke-linejoin="round"/>
<path d="M233.523 201.904V201.397" stroke="#263238" stroke-linecap="round" stroke-linejoin="round"/>
<path d="M237.635 202.768V199.953" stroke="#263238" stroke-linecap="round" stroke-linejoin="round"/>
<path d="M243.125 201.25V200.238" stroke="#263238" stroke-linecap="round" stroke-linejoin="round"/>
<path d="M243.125 203.201V202.405" stroke="#263238" stroke-linecap="round" stroke-linejoin="round"/>
<path d="M291.74 197.289C288.8 193.324 280.341 190.035 270.193 189.327C260.717 188.66 252.424 190.431 248.573 193.531L246.563 193.356L246.319 197.289C245.988 202.593 256.131 207.616 268.974 208.518C281.818 209.42 292.517 205.855 292.835 200.56L293.032 197.409L291.74 197.289Z" fill="white" stroke="#263238" stroke-linecap="round" stroke-linejoin="round"/>
<path d="M293.185 196.396C293.556 191.087 283.42 186.052 270.545 185.15C257.67 184.249 246.931 187.823 246.559 193.133C246.188 198.442 256.324 203.477 269.199 204.378C282.074 205.28 292.813 201.706 293.185 196.396Z" fill="white" stroke="#263238" stroke-width="1.00245" stroke-linecap="round" stroke-linejoin="round"/>
<path d="M289.672 197.194C289.997 192.663 281.357 188.352 270.375 187.565C259.393 186.778 250.226 189.812 249.902 194.343C249.577 198.874 258.216 203.185 269.199 203.972C280.181 204.76 289.347 201.725 289.672 197.194Z" fill="white" stroke="#263238" stroke-linecap="round" stroke-linejoin="round"/>
<path d="M268.454 190.224L268.504 189.438L271.817 189.668L271.766 190.459C274.623 190.919 276.039 191.917 275.947 193.361V193.697L272.12 193.426L272.148 192.966C272.194 192.207 271.476 191.866 270.188 191.779C268.9 191.692 268.141 191.926 268.095 192.699C267.957 194.884 275.869 195.546 275.676 198.587C275.589 200.027 274.02 200.85 271.131 200.887L271.085 201.66L267.769 201.43L267.819 200.652C264.926 200.192 263.509 199.176 263.601 197.736L263.647 197.005L267.474 197.271L267.424 198.109C267.378 198.868 268.169 199.199 269.457 199.291C270.745 199.383 271.573 199.162 271.619 198.403C271.757 196.213 263.849 195.556 264.038 192.515C264.13 191.098 265.62 190.284 268.454 190.224Z" fill="white" stroke="#263238" stroke-linecap="round" stroke-linejoin="round"/>
<path d="M268.51 189.658L268.561 188.867L271.873 189.101L271.822 189.893C274.679 190.353 276.095 191.351 276.003 192.795V193.126L272.172 192.86L272.199 192.4C272.25 191.641 271.532 191.3 270.24 191.208C268.947 191.116 268.197 191.355 268.151 192.128C268.013 194.318 275.921 194.98 275.732 198.021C275.64 199.461 274.076 200.284 271.187 200.321L271.137 201.094L267.825 200.864L267.875 200.086C264.982 199.626 263.565 198.61 263.657 197.165L263.703 196.438L267.53 196.705L267.48 197.542C267.429 198.301 268.225 198.633 269.513 198.72C270.801 198.807 271.629 198.596 271.675 197.837C271.813 195.647 263.905 194.985 264.094 191.949C264.163 190.527 265.658 189.718 268.51 189.658Z" fill="white" stroke="#263238" stroke-linecap="round" stroke-linejoin="round"/>
<path d="M247.615 200.781L247.79 197.961" stroke="#263238" stroke-linecap="round" stroke-linejoin="round"/>
<path d="M249.338 202.202L249.499 199.612" stroke="#263238" stroke-linecap="round" stroke-linejoin="round"/>
<path d="M251.205 203.56L251.384 200.74" stroke="#263238" stroke-linecap="round" stroke-linejoin="round"/>
<path d="M253.794 204.967L253.987 201.917" stroke="#263238" stroke-linecap="round" stroke-linejoin="round"/>
<path d="M257.005 204.553L257.093 203.209" stroke="#263238" stroke-linecap="round" stroke-linejoin="round"/>
<path d="M256.905 206.181L256.938 205.647" stroke="#263238" stroke-linecap="round" stroke-linejoin="round"/>
<path d="M260.958 207.386L261.142 204.41" stroke="#263238" stroke-linecap="round" stroke-linejoin="round"/>
<path d="M266.533 206.168L266.602 205.101" stroke="#263238" stroke-linecap="round" stroke-linejoin="round"/>
<path d="M266.401 208.229L266.452 207.387" stroke="#263238" stroke-linecap="round" stroke-linejoin="round"/>
</svg>
