<svg width="344" height="199" viewBox="0 0 344 199" fill="none" xmlns="http://www.w3.org/2000/svg">
<g clip-path="url(#clip0_38_1408)">
<path d="M298.284 183.896C313.42 171.773 322.134 153.375 322.405 134.002C322.575 121.791 321.699 106.448 317.589 93.3221C304.04 50.0228 265.755 26.564 237.749 21.526C209.743 16.488 180.902 25.703 159.156 40.304C137.411 54.9051 139.507 52.409 102.305 46.9817C65.1022 41.5544 34.5963 57.4287 24.5653 86.6445C14.5342 115.86 45.0447 132.422 48.3884 147.723C51.7321 163.025 45.8658 190.162 103.988 196.839C162.11 203.517 179.668 170.962 208.491 180.145C231.699 187.533 266.273 209.517 298.284 183.896Z" fill="#A4EFFF"/>
<path opacity="0.7" d="M298.284 183.896C313.42 171.773 322.134 153.375 322.405 134.002C322.575 121.791 321.699 106.448 317.589 93.3221C304.04 50.0228 265.755 26.564 237.749 21.526C209.743 16.488 180.902 25.703 159.156 40.304C137.411 54.9051 139.507 52.409 102.305 46.9817C65.1022 41.5544 34.5963 57.4287 24.5653 86.6445C14.5342 115.86 45.0447 132.422 48.3884 147.723C51.7321 163.025 45.8658 190.162 103.988 196.839C162.11 203.517 179.668 170.962 208.491 180.145C231.699 187.533 266.273 209.517 298.284 183.896Z" fill="white"/>
<path opacity="0.3" d="M152.716 135.467V132.87C152.716 127.75 149.299 125.936 145.813 125.936C144.902 125.919 143.998 126.088 143.154 126.432C142.311 126.776 141.546 127.289 140.907 127.937C140.269 128.586 139.769 129.358 139.439 130.207C139.109 131.055 138.956 131.961 138.988 132.87V135.467H138.016V149.839H153.611V135.467H152.716ZM146.272 143.354V145.955H144.795V143.354C144.371 143.183 144.019 142.869 143.801 142.468C143.582 142.066 143.51 141.601 143.598 141.152C143.685 140.703 143.926 140.299 144.279 140.008C144.632 139.717 145.076 139.558 145.534 139.558C145.991 139.558 146.435 139.717 146.788 140.008C147.141 140.299 147.382 140.703 147.47 141.152C147.557 141.601 147.485 142.066 147.267 142.468C147.048 142.869 146.697 143.183 146.272 143.354V143.354ZM150.556 135.453H141.071V132.857C141.073 131.602 141.574 130.399 142.463 129.512C143.352 128.625 144.557 128.127 145.813 128.125C148.428 128.125 150.556 129.912 150.556 132.857V135.453Z" stroke="black" stroke-miterlimit="10"/>
<path opacity="0.3" d="M302.005 17.7153H257.817C254.402 17.7153 251.634 20.4784 251.634 23.8869C251.634 27.2953 254.402 30.0584 257.817 30.0584H302.005C305.419 30.0584 308.187 27.2953 308.187 23.8869C308.187 20.4784 305.419 17.7153 302.005 17.7153Z" stroke="black" stroke-miterlimit="10"/>
<g opacity="0.3">
<path opacity="0.3" d="M263.396 23.3122L264.68 24.732L264.061 25.19L263.102 23.5L262.153 25.19L261.533 24.732L262.818 23.3122L260.933 22.9229L261.167 22.1809L262.942 22.9595L262.721 21.0405H263.501L263.276 22.9595L265.051 22.1947L265.281 22.9366L263.396 23.3122Z" fill="black"/>
<path opacity="0.3" d="M268.194 23.3122L269.482 24.732L268.863 25.19L267.905 23.5L266.946 25.19L266.327 24.732L267.602 23.3122L265.717 22.9229L265.946 22.1809L267.721 22.9595L267.506 21.0405H268.281L268.074 22.9595L269.849 22.1947L270.083 22.9366L268.194 23.3122Z" fill="black"/>
<path opacity="0.3" d="M272.996 23.3122L274.285 24.732L273.666 25.19L272.703 23.5L271.758 25.19L271.134 24.732L272.414 23.3122L270.529 22.9229L270.758 22.1809L272.533 22.9595L272.318 21.0405H273.093L272.909 22.9595L274.684 22.1947L274.918 22.9366L272.996 23.3122Z" fill="black"/>
<path opacity="0.3" d="M277.799 23.3122L279.088 24.732L278.469 25.19L277.496 23.5046L276.579 25.19L275.96 24.732L277.24 23.3122L275.354 22.9229L275.584 22.1809L277.359 22.9595L277.139 21.0405H277.918L277.712 22.9595L279.487 22.1947L279.716 22.9366L277.799 23.3122Z" fill="black"/>
<path opacity="0.3" d="M282.601 23.3122L283.889 24.732L283.266 25.19L282.307 23.5L281.358 25.19L280.738 24.732L282.014 23.3122L280.128 22.9229L280.362 22.1809L282.137 22.9595L281.917 21.0405H282.697L282.491 22.9595L284.266 22.1947L284.495 22.9366L282.601 23.3122Z" fill="black"/>
<path opacity="0.3" d="M287.398 23.3122L288.687 24.732L288.067 25.19L287.127 23.5046L286.159 25.19L285.54 24.732L286.815 23.3122L284.93 22.9229L285.16 22.1809L286.935 22.9595L286.719 21.0405H287.494L287.288 22.9595L289.063 22.1947L289.297 22.9366L287.398 23.3122Z" fill="black"/>
<path opacity="0.3" d="M292.199 23.3122L293.488 24.732L292.869 25.19L291.906 23.5L290.961 25.19L290.337 24.732L291.617 23.3122L289.731 22.9229L289.961 22.1809L291.736 22.9595L291.52 21.0405H292.295L292.089 22.9595L293.864 22.1947L294.098 22.9366L292.199 23.3122Z" fill="black"/>
<path opacity="0.3" d="M297.001 23.3122L298.29 24.732L297.675 25.19L296.712 23.5L295.758 25.19L295.139 24.732L296.418 23.3122L294.533 22.9229L294.763 22.1809L296.538 22.9595L296.299 21.0405H297.079L296.872 22.9595L298.647 22.1947L298.877 22.9366L297.001 23.3122Z" fill="black"/>
</g>
<g opacity="0.3">
<path opacity="0.3" d="M46.9587 58.5366C46.9596 58.0998 46.8307 57.6725 46.5883 57.3089C46.3459 56.9453 46.001 56.6616 45.5971 56.4938C45.1932 56.326 44.7485 56.2817 44.3194 56.3663C43.8902 56.451 43.4959 56.6609 43.1863 56.9694C42.8766 57.278 42.6656 57.6713 42.5799 58.0997C42.4943 58.528 42.5378 58.9721 42.705 59.3757C42.8721 59.7794 43.1555 60.1244 43.5192 60.3672C43.8828 60.61 44.3104 60.7396 44.7479 60.7396C45.3334 60.7396 45.895 60.5076 46.3095 60.0946C46.724 59.6816 46.9574 59.1213 46.9587 58.5366V58.5366Z" stroke="black" stroke-miterlimit="10"/>
<path opacity="0.3" d="M65.3879 58.5366C65.3888 58.0996 65.2598 57.6722 65.0172 57.3084C64.7746 56.9447 64.4294 56.661 64.0252 56.4934C63.6211 56.3257 63.1762 56.2816 62.7469 56.3667C62.3176 56.4517 61.9233 56.662 61.6138 56.971C61.3044 57.2801 61.0937 57.6738 61.0086 58.1025C60.9234 58.5311 60.9676 58.9754 61.1355 59.3789C61.3034 59.7825 61.5874 60.1272 61.9517 60.3694C62.316 60.6117 62.744 60.7405 63.1817 60.7396C63.7668 60.7396 64.3279 60.5075 64.7417 60.0943C65.1554 59.6812 65.3879 59.1209 65.3879 58.5366Z" stroke="black" stroke-miterlimit="10"/>
<path opacity="0.3" d="M81.5682 60.7442C82.7892 60.7442 83.779 59.7559 83.779 58.5367C83.779 57.3175 82.7892 56.3291 81.5682 56.3291C80.3472 56.3291 79.3574 57.3175 79.3574 58.5367C79.3574 59.7559 80.3472 60.7442 81.5682 60.7442Z" stroke="black" stroke-miterlimit="10"/>
<path opacity="0.3" d="M46.9587 72.5057C46.9587 72.069 46.829 71.6422 46.5861 71.2792C46.3431 70.9162 45.9979 70.6332 45.5939 70.4661C45.1899 70.2991 44.7454 70.2553 44.3166 70.3405C43.8877 70.4257 43.4938 70.6359 43.1846 70.9447C42.8754 71.2534 42.6649 71.6468 42.5796 72.075C42.4943 72.5032 42.5381 72.9471 42.7054 73.3505C42.8727 73.7538 43.1561 74.0986 43.5196 74.3412C43.8832 74.5837 44.3106 74.7132 44.7479 74.7132C45.0384 74.7138 45.3261 74.6571 45.5946 74.5464C45.8631 74.4357 46.1071 74.2731 46.3125 74.068C46.5179 73.8629 46.6807 73.6193 46.7916 73.3512C46.9025 73.0831 46.9593 72.7957 46.9587 72.5057V72.5057Z" stroke="black" stroke-miterlimit="10"/>
<path opacity="0.3" d="M65.3879 72.5056C65.3879 72.0688 65.2581 71.6418 65.015 71.2787C64.7718 70.9156 64.4263 70.6326 64.022 70.4657C63.6178 70.2988 63.1731 70.2553 62.7441 70.3408C62.3151 70.4264 61.9212 70.6371 61.6122 70.9463C61.3032 71.2555 61.093 71.6493 61.0082 72.0778C60.9234 72.5063 60.9679 72.9503 61.1359 73.3536C61.3039 73.7569 61.588 74.1014 61.9522 74.3434C62.3163 74.5854 62.7442 74.7141 63.1817 74.7132C63.4718 74.7132 63.759 74.6561 64.027 74.5451C64.295 74.4341 64.5384 74.2714 64.7433 74.0663C64.9482 73.8613 65.1106 73.6179 65.2212 73.3501C65.3318 73.0823 65.3885 72.7953 65.3879 72.5056V72.5056Z" stroke="black" stroke-miterlimit="10"/>
<path opacity="0.3" d="M83.7756 72.5056C83.7756 72.0688 83.6458 71.6418 83.4027 71.2787C83.1595 70.9156 82.814 70.6326 82.4098 70.4657C82.0055 70.2988 81.5608 70.2553 81.1318 70.3408C80.7028 70.4264 80.3089 70.6371 79.9999 70.9463C79.6909 71.2555 79.4807 71.6493 79.3959 72.0778C79.3111 72.5063 79.3556 72.9503 79.5236 73.3536C79.6916 73.7569 79.9757 74.1014 80.3399 74.3434C80.704 74.5854 81.1319 74.7141 81.5694 74.7132C81.8595 74.7132 82.1467 74.6561 82.4147 74.5451C82.6827 74.4341 82.9261 74.2714 83.131 74.0663C83.3359 73.8613 83.4983 73.6179 83.6089 73.3501C83.7195 73.0823 83.7762 72.7953 83.7756 72.5056V72.5056Z" stroke="black" stroke-miterlimit="10"/>
<path opacity="0.3" d="M46.9587 86.479C46.9596 86.0422 46.8307 85.6149 46.5883 85.2513C46.3459 84.8877 46.001 84.604 45.5971 84.4362C45.1932 84.2684 44.7485 84.224 44.3194 84.3087C43.8902 84.3934 43.4959 84.6033 43.1863 84.9118C42.8766 85.2204 42.6656 85.6137 42.5799 86.0421C42.4943 86.4704 42.5378 86.9145 42.705 87.3182C42.8721 87.7218 43.1555 88.0668 43.5192 88.3096C43.8828 88.5524 44.3104 88.682 44.7479 88.682C45.3334 88.682 45.895 88.45 46.3095 88.037C46.724 87.624 46.9574 87.0637 46.9587 86.479V86.479Z" stroke="black" stroke-miterlimit="10"/>
<path opacity="0.3" d="M65.3879 86.479C65.3888 86.042 65.2598 85.6145 65.0172 85.2508C64.7746 84.8871 64.4294 84.6034 64.0252 84.4358C63.6211 84.2681 63.1762 84.224 62.7469 84.309C62.3176 84.3941 61.9233 84.6044 61.6138 84.9134C61.3044 85.2224 61.0937 85.6162 61.0086 86.0449C60.9234 86.4735 60.9676 86.9178 61.1355 87.3213C61.3034 87.7249 61.5874 88.0696 61.9517 88.3119C62.316 88.5541 62.744 88.6829 63.1817 88.682C63.7668 88.682 64.3279 88.4499 64.7417 88.0367C65.1554 87.6236 65.3879 87.0633 65.3879 86.479Z" stroke="black" stroke-miterlimit="10"/>
<path opacity="0.3" d="M83.7756 86.479C83.7765 86.042 83.6475 85.6145 83.4049 85.2508C83.1623 84.8871 82.8171 84.6034 82.4129 84.4358C82.0088 84.2681 81.5639 84.224 81.1346 84.309C80.7053 84.3941 80.311 84.6044 80.0015 84.9134C79.6921 85.2224 79.4814 85.6162 79.3963 86.0449C79.3111 86.4735 79.3553 86.9178 79.5232 87.3213C79.6911 87.7249 79.9751 88.0696 80.3394 88.3119C80.7037 88.5541 81.1317 88.6829 81.5694 88.682C82.1545 88.682 82.7156 88.4499 83.1294 88.0367C83.5431 87.6236 83.7756 87.0633 83.7756 86.479Z" stroke="black" stroke-miterlimit="10"/>
</g>
<path opacity="0.3" d="M316.15 90.8125C320.021 86.9473 320.021 80.6806 316.15 76.8155C312.279 72.9503 306.004 72.9503 302.133 76.8155C298.262 80.6806 298.262 86.9473 302.133 90.8125C306.004 94.6776 312.279 94.6776 316.15 90.8125Z" stroke="black" stroke-miterlimit="10"/>
<g opacity="0.3">
<path opacity="0.3" d="M310.163 90.093V91.0503H308.498V90.0885C307.058 89.7908 306.324 88.6778 306.334 86.9283V86.5206H308.255V87.0565C308.255 87.9725 308.622 88.3297 309.269 88.3297C309.916 88.3297 310.287 87.9862 310.287 87.0611C310.287 84.4092 306.329 84.2627 306.343 80.5758C306.343 78.8216 307.113 77.6995 308.554 77.411V76.4858H310.214V77.4293C311.668 77.727 312.402 78.8583 312.397 80.6078V81.4918H310.471V80.475C310.471 79.559 310.072 79.2201 309.425 79.2201C308.778 79.2201 308.37 79.5453 308.365 80.4659C308.365 83.1223 312.328 83.2688 312.31 86.9557C312.31 88.6824 311.585 89.7679 310.163 90.093Z" stroke="black" stroke-miterlimit="10"/>
</g>
<path opacity="0.3" d="M149.807 178.486C152.295 176.001 152.295 171.973 149.807 169.489C147.319 167.005 143.285 167.005 140.797 169.489C138.309 171.973 138.309 176.001 140.797 178.486C143.285 180.97 147.319 180.97 149.807 178.486Z" stroke="black" stroke-miterlimit="10"/>
<g opacity="0.3">
<path opacity="0.3" d="M145.956 178.02V178.62H144.888V178.002C143.97 177.809 143.512 177.086 143.512 175.973V175.712H144.746V176.055C144.746 176.646 144.979 176.875 145.392 176.875C145.805 176.875 146.048 176.651 146.048 176.06C146.048 174.356 143.507 174.26 143.516 171.892C143.516 170.765 144.007 170.06 144.934 169.858V169.254H146.002V169.858C146.92 170.051 147.41 170.774 147.406 171.901V172.469H146.172V171.819C146.172 171.228 145.915 171.013 145.502 171.013C145.09 171.013 144.823 171.223 144.819 171.814C144.819 173.518 147.365 173.614 147.355 175.982C147.337 177.113 146.869 177.823 145.956 178.02Z" stroke="black" stroke-miterlimit="10"/>
</g>
<path opacity="0.3" d="M222.176 27.5486C223.436 27.5541 224.67 27.1861 225.72 26.4914C226.771 25.7967 227.592 24.8065 228.079 23.6458C228.566 22.4852 228.698 21.2065 228.457 19.9712C228.216 18.736 227.614 17.5999 226.726 16.7066C225.839 15.8132 224.706 15.2028 223.47 14.9525C222.235 14.7023 220.954 14.8234 219.788 15.3005C218.622 15.7777 217.623 16.5895 216.919 17.6332C216.215 18.6769 215.837 19.9057 215.833 21.1641C215.829 21.9993 215.99 22.827 216.307 23.6C216.624 24.3729 217.09 25.076 217.679 25.6689C218.268 26.2618 218.969 26.733 219.74 27.0555C220.512 27.3781 221.34 27.5456 222.176 27.5486V27.5486Z" stroke="black" stroke-miterlimit="10"/>
<g opacity="0.3">
<path opacity="0.3" d="M222.852 25.2221V25.8358H221.783V25.2175C220.866 25.0252 220.384 24.3015 220.407 23.184V22.9229H221.641V23.2664C221.641 23.8618 221.875 24.0863 222.292 24.0908C222.71 24.0954 222.943 23.8664 222.948 23.2756C222.948 21.5673 220.402 21.4757 220.412 19.1032C220.412 17.9811 220.907 17.2712 221.833 17.0743V16.488H222.911V17.0834C223.852 17.2758 224.319 17.9994 224.315 19.1261V19.694H223.081V19.0391C223.081 18.4437 222.82 18.233 222.407 18.2284C221.994 18.2239 221.728 18.4391 221.728 19.0299C221.728 20.7383 224.269 20.8299 224.26 23.2023C224.232 24.3153 223.769 25.0252 222.852 25.2221Z" stroke="black" stroke-miterlimit="10"/>
</g>
<path opacity="0.3" d="M69.7298 45.0183C73.0328 41.7201 73.0328 36.3727 69.7298 33.0745C66.4268 29.7763 61.0716 29.7763 57.7687 33.0745C54.4657 36.3727 54.4657 41.7201 57.7687 45.0183C61.0716 48.3165 66.4268 48.3165 69.7298 45.0183Z" stroke="black" stroke-miterlimit="10"/>
<g opacity="0.3">
<path opacity="0.3" d="M64.6232 44.4258V45.2411H63.2014V44.3983C61.9721 44.1419 61.3667 43.1938 61.3667 41.6961V41.3526H63.0041V41.8106C63.0041 42.5984 63.316 42.8961 63.8664 42.9007C64.4168 42.9052 64.7333 42.603 64.7379 41.8152C64.7379 39.5527 61.3575 39.429 61.3713 36.2826C61.3713 34.7849 62.0272 33.8277 63.2564 33.5804V32.7834H64.6737V33.5849C65.9213 33.8414 66.5451 34.8078 66.5405 36.3009V37.0566H64.8893V36.1818C64.8893 35.394 64.5453 35.1101 63.9719 35.1055C63.3986 35.1009 63.0546 35.3849 63.0546 36.1726C63.0546 38.4627 66.435 38.5634 66.4212 41.7099C66.4579 43.1984 65.8479 44.1373 64.6232 44.4258Z" stroke="black" stroke-miterlimit="10"/>
</g>
<path d="M13.7588 198.772H326.569" stroke="#263238" stroke-linecap="round" stroke-linejoin="round"/>
<path d="M167.698 34.1757L167.029 34.0154" stroke="#263238" stroke-linecap="round" stroke-linejoin="round"/>
<path d="M165.693 33.7133C154.604 31.3317 143.105 31.6267 132.153 34.5741C121.201 37.5214 111.112 43.0359 102.723 50.6593" stroke="#263238" stroke-linecap="round" stroke-linejoin="round" stroke-dasharray="2.98 2.98"/>
<path d="M102.224 51.1035L101.724 51.5615" stroke="#263238" stroke-linecap="round" stroke-linejoin="round"/>
<path d="M164.351 29.1011L160.704 36.4337L168.887 35.9207L164.351 29.1011Z" fill="#263238"/>
<path d="M186.942 49.2516L149.06 44.9685L141.648 110.333L179.53 114.616L186.942 49.2516Z" fill="white" stroke="#B2B2B2" stroke-linecap="round" stroke-linejoin="round"/>
<path d="M151.166 50.7328L145.139 103.994C145.417 104.025 145.687 104.111 145.933 104.246C146.178 104.382 146.394 104.564 146.569 104.783C146.744 105.003 146.873 105.254 146.95 105.523C147.028 105.792 147.051 106.074 147.019 106.352C146.969 106.785 146.787 107.191 146.496 107.516L175.452 110.79C175.265 110.448 175.176 110.062 175.195 109.673C175.213 109.284 175.338 108.907 175.556 108.584C175.775 108.261 176.078 108.005 176.432 107.842C176.787 107.679 177.179 107.617 177.566 107.662L183.607 54.4014C183.328 54.3701 183.059 54.2842 182.813 54.1486C182.568 54.0131 182.352 53.8306 182.177 53.6115C182.002 53.3924 181.872 53.1411 181.795 52.8719C181.718 52.6027 181.695 52.3209 181.726 52.0427L153.541 48.8367C153.512 49.1176 153.427 49.3899 153.291 49.6378C153.155 49.8856 152.971 50.104 152.75 50.2804C152.529 50.4568 152.275 50.5876 152.003 50.6653C151.731 50.7429 151.447 50.7659 151.166 50.7328Z" fill="white" stroke="#B2B2B2" stroke-linecap="round" stroke-linejoin="round"/>
<path d="M174.174 80.7366C174.688 75.2945 170.686 70.4673 165.236 69.9548C159.786 69.4423 154.951 73.4385 154.438 78.8806C153.925 84.3227 157.927 89.1498 163.377 89.6624C168.827 90.1749 173.661 86.1787 174.174 80.7366Z" fill="white" stroke="#B2B2B2" stroke-linecap="round" stroke-linejoin="round"/>
<path d="M170.649 79.5636L171.603 79.6873L171.392 81.3315L170.438 81.2078C169.98 82.5818 168.769 83.191 167.03 82.9665L166.627 82.9162L166.874 81.0155L167.402 81.0796C168.319 81.1987 168.714 80.8781 168.778 80.2369C168.842 79.5957 168.558 79.188 167.645 79.069C165.008 78.73 164.375 82.6459 160.71 82.1788C158.972 81.9544 157.958 81.0613 157.839 79.6002L156.921 79.4812L157.132 77.8324L158.05 77.9514C158.508 76.5454 159.738 75.9591 161.481 76.179L162.357 76.2935L162.113 78.1942L161.109 78.0659C160.192 77.9468 159.811 78.3087 159.733 78.9499C159.655 79.5911 159.93 80.0353 160.843 80.1498C163.48 80.4888 164.113 76.5728 167.778 77.04C169.512 77.2599 170.521 78.1163 170.649 79.5636Z" fill="white" stroke="#B2B2B2" stroke-linecap="round" stroke-linejoin="round"/>
<path d="M160.119 44.8465L122.008 45.8762L123.79 111.635L161.901 110.605L160.119 44.8465Z" fill="white" stroke="#B2B2B2" stroke-linecap="round" stroke-linejoin="round"/>
<path d="M124.899 51.2685L126.358 104.854C126.924 104.84 127.473 105.05 127.884 105.439C128.295 105.828 128.535 106.364 128.55 106.929C128.559 107.365 128.436 107.792 128.197 108.157L157.323 107.369C157.06 107.019 156.915 106.596 156.905 106.16C156.897 105.88 156.945 105.602 157.044 105.34C157.144 105.079 157.295 104.839 157.487 104.636C157.68 104.433 157.911 104.269 158.167 104.155C158.422 104.041 158.698 103.978 158.978 103.971L157.524 50.38C157.244 50.3879 156.965 50.3406 156.704 50.2409C156.442 50.1411 156.202 49.9908 155.999 49.7985C155.795 49.6063 155.631 49.3759 155.517 49.1204C155.403 48.865 155.34 48.5895 155.332 48.3098L126.977 49.0747C126.985 49.355 126.938 49.6341 126.838 49.8961C126.737 50.1581 126.587 50.3978 126.394 50.6015C126.201 50.8052 125.969 50.969 125.713 51.0835C125.457 51.1979 125.18 51.2608 124.899 51.2685Z" fill="white" stroke="#B2B2B2" stroke-linecap="round" stroke-linejoin="round"/>
<path d="M149.277 84.914C152.969 80.8788 152.687 74.6184 148.646 70.9312C144.605 67.2439 138.335 67.526 134.643 71.5612C130.95 75.5965 131.233 81.8568 135.274 85.5441C139.315 89.2313 145.584 88.9492 149.277 84.914Z" fill="white" stroke="#B2B2B2" stroke-linecap="round" stroke-linejoin="round"/>
<path d="M148.246 76.9437L149.204 76.9162L149.25 78.5742L148.292 78.6062C148.039 80.0489 146.952 80.8184 145.2 80.8687H144.792L144.737 78.9497H145.274C146.191 78.9222 146.535 78.5421 146.517 77.9009C146.498 77.2597 146.136 76.8979 145.214 76.9208C142.554 76.9986 142.54 80.9649 138.848 81.0748C137.096 81.1252 135.949 80.4016 135.61 78.9726L134.669 79.0001L134.624 77.3421L135.564 77.3147C135.816 75.8491 136.94 75.0796 138.674 75.0247L139.559 74.9972L139.637 76.9437L138.623 76.9712C137.706 76.9986 137.38 77.4292 137.398 78.0566C137.417 78.6841 137.761 79.1009 138.683 79.0734C141.343 78.9955 141.357 75.0292 145.049 74.9239C146.76 74.8689 147.893 75.5697 148.246 76.9437Z" fill="white" stroke="#B2B2B2" stroke-linecap="round" stroke-linejoin="round"/>
<path d="M141.519 42.1679L105.365 54.2473L126.269 116.63L162.423 104.551L141.519 42.1679Z" fill="white" stroke="#B2B2B2" stroke-linecap="round" stroke-linejoin="round"/>
<path d="M109.711 58.5781L126.741 109.416C127.007 109.327 127.287 109.291 127.567 109.31C127.847 109.329 128.12 109.403 128.37 109.528C128.621 109.653 128.845 109.825 129.029 110.036C129.213 110.248 129.354 110.493 129.443 110.758C129.583 111.171 129.591 111.618 129.466 112.036L157.096 102.807C156.744 102.548 156.481 102.186 156.344 101.772C156.165 101.236 156.206 100.652 156.457 100.146C156.709 99.6404 157.152 99.2551 157.687 99.0744L140.657 48.2364C140.12 48.4149 139.534 48.3734 139.028 48.121C138.521 47.8685 138.136 47.4258 137.956 46.8899L111.055 55.8759C111.145 56.1414 111.181 56.422 111.162 56.7017C111.144 56.9813 111.07 57.2545 110.945 57.5056C110.82 57.7566 110.647 57.9806 110.435 58.1646C110.223 58.3487 109.977 58.4892 109.711 58.5781Z" fill="white" stroke="#B2B2B2" stroke-linecap="round" stroke-linejoin="round"/>
<path d="M142.724 83.8944C145.208 79.0235 143.268 73.0639 138.39 70.5832C133.512 68.1024 127.544 70.04 125.059 74.9108C122.575 79.7816 124.515 85.7413 129.393 88.222C134.271 90.7027 140.239 88.7652 142.724 83.8944Z" fill="white" stroke="#B2B2B2" stroke-linecap="round" stroke-linejoin="round"/>
<path d="M139.178 75.753L140.049 75.3454L140.751 76.8522L139.884 77.2552C140.224 78.6842 139.531 79.82 137.944 80.562L137.577 80.7314L136.765 78.9956L137.247 78.7666C138.086 78.3773 138.247 77.8964 137.971 77.3102C137.696 76.7239 137.224 76.5407 136.389 76.93C133.981 78.0521 135.541 81.7024 132.197 83.2596C130.605 84.0016 129.266 83.7909 128.385 82.6138L127.532 83.0123L126.844 81.5238L127.697 81.1253C127.349 79.678 128.055 78.533 129.647 77.7957L130.463 77.4018L131.275 79.1376L130.358 79.5681C129.518 79.9574 129.39 80.4841 129.665 81.052C129.94 81.62 130.408 81.8627 131.247 81.4734C133.655 80.3513 132.091 76.701 135.44 75.1438C136.999 74.4156 138.306 74.5988 139.178 75.753Z" fill="white" stroke="#B2B2B2" stroke-linecap="round" stroke-linejoin="round"/>
<path d="M121.188 45.2239L90.5459 67.8735L129.741 120.746L160.384 98.0968L121.188 45.2239Z" fill="white" stroke="#B2B2B2" stroke-linecap="round" stroke-linejoin="round"/>
<path d="M96.0176 70.6558L127.95 113.74C128.264 113.509 128.636 113.368 129.024 113.333C129.413 113.298 129.803 113.37 130.154 113.541C130.505 113.711 130.802 113.975 131.013 114.302C131.224 114.63 131.342 115.008 131.353 115.398L154.773 98.0854C154.402 97.9627 154.073 97.7407 153.821 97.4436C153.568 97.1466 153.402 96.7859 153.341 96.4011C153.28 96.0163 153.326 95.6221 153.474 95.2616C153.622 94.9012 153.867 94.5883 154.181 94.3573L122.249 51.2961C121.792 51.6305 121.221 51.77 120.661 51.6841C120.101 51.5983 119.598 51.294 119.263 50.8381L96.4625 67.6879C96.7956 68.1411 96.9358 68.7074 96.8524 69.2634C96.7691 69.8194 96.469 70.3199 96.0176 70.6558Z" fill="white" stroke="#B2B2B2" stroke-linecap="round" stroke-linejoin="round"/>
<path d="M130.462 91.548C135.188 88.7909 136.782 82.7297 134.021 78.0097C131.26 73.2898 125.19 71.6985 120.463 74.4555C115.736 77.2125 114.143 83.2738 116.904 87.9937C119.665 92.7137 125.735 94.305 130.462 91.548Z" fill="white" stroke="#B2B2B2" stroke-linecap="round" stroke-linejoin="round"/>
<path d="M128.923 77.5575L129.565 76.843L130.803 77.9514L130.161 78.6659C131.033 79.8475 130.845 81.162 129.675 82.4673L129.404 82.7695L127.973 81.4871L128.331 81.0887C128.946 80.4063 128.905 79.8979 128.423 79.4674C127.941 79.0368 127.437 79.0506 126.818 79.7376C125.043 81.7116 127.909 84.455 125.442 87.203C124.267 88.5037 122.956 88.838 121.685 88.0961L121.057 88.7968L119.818 87.6885L120.447 86.9877C119.557 85.7969 119.759 84.4641 120.933 83.1634L121.525 82.5039L122.956 83.7863L122.277 84.5374C121.658 85.2244 121.74 85.742 122.222 86.1725C122.703 86.603 123.226 86.6305 123.841 85.9435C125.616 83.9649 122.749 81.2215 125.217 78.4781C126.377 77.1865 127.657 76.843 128.923 77.5575Z" fill="white" stroke="#B2B2B2" stroke-linecap="round" stroke-linejoin="round"/>
<path d="M106.582 56.1036L76.3726 79.3259L116.559 131.452L146.768 108.229L106.582 56.1036Z" fill="white" stroke="#B2B2B2" stroke-linecap="round" stroke-linejoin="round"/>
<path d="M81.8994 81.9821L114.644 124.457C114.952 124.218 115.321 124.068 115.709 124.024C116.097 123.981 116.489 124.044 116.844 124.208C117.198 124.372 117.5 124.631 117.717 124.955C117.934 125.279 118.058 125.657 118.074 126.046L141.164 108.294C140.791 108.179 140.457 107.963 140.198 107.67C139.94 107.378 139.767 107.02 139.699 106.636C139.631 106.252 139.67 105.856 139.812 105.493C139.953 105.129 140.193 104.812 140.503 104.575L107.759 62.1095C107.537 62.2807 107.283 62.4064 107.012 62.4795C106.741 62.5526 106.459 62.5716 106.181 62.5355C105.902 62.4993 105.634 62.4087 105.391 62.2688C105.148 62.1289 104.935 61.9425 104.764 61.7202L82.2893 78.996C82.6317 79.4445 82.7829 80.0099 82.7098 80.5692C82.6368 81.1284 82.3456 81.6363 81.8994 81.9821Z" fill="white" stroke="#B2B2B2" stroke-linecap="round" stroke-linejoin="round"/>
<path d="M121.404 95.0538C122.112 89.6337 118.287 84.666 112.859 83.9582C107.431 83.2504 102.456 87.0705 101.747 92.4906C101.038 97.9108 104.864 102.878 110.292 103.586C115.72 104.294 120.695 100.474 121.404 95.0538Z" fill="white" stroke="#B2B2B2" stroke-linecap="round" stroke-linejoin="round"/>
<path d="M115.095 88.394L115.747 87.6887L116.967 88.8108L116.32 89.5161C117.178 90.7115 116.971 92.0214 115.783 93.313L115.508 93.6107L114.095 92.3099L114.458 91.9161C115.082 91.2382 115.049 90.7298 114.572 90.2947C114.095 89.8596 113.586 89.8642 112.963 90.5421C111.16 92.4977 113.995 95.2778 111.495 97.9891C110.307 99.2807 108.986 99.5967 107.725 98.8364L107.069 99.5143L105.849 98.3922L106.486 97.7006C105.61 96.4961 105.83 95.1679 107.018 93.8809L107.619 93.2305L109.032 94.5267L108.344 95.2732C107.72 95.951 107.793 96.4732 108.27 96.9083C108.747 97.3434 109.266 97.3663 109.894 96.6976C111.692 94.7465 108.862 91.9664 111.362 89.2505C112.573 87.9773 113.839 87.6475 115.095 88.394Z" fill="white" stroke="#B2B2B2" stroke-linecap="round" stroke-linejoin="round"/>
<path d="M85.5249 75.4661L65.1699 107.655L120.873 142.777L141.228 110.588L85.5249 75.4661Z" fill="white" stroke="#B2B2B2" stroke-linecap="round" stroke-linejoin="round"/>
<path d="M71.2941 108.267L116.702 136.882C116.91 136.553 117.205 136.287 117.554 136.113C117.903 135.939 118.293 135.864 118.682 135.896C119.071 135.928 119.443 136.066 119.759 136.295C120.074 136.524 120.321 136.835 120.472 137.194L136.03 112.595C135.641 112.613 135.253 112.524 134.91 112.338C134.568 112.152 134.282 111.875 134.086 111.539C133.89 111.202 133.79 110.818 133.797 110.428C133.804 110.039 133.918 109.659 134.127 109.329L88.7188 80.7087C88.5697 80.946 88.3751 81.1515 88.1463 81.3135C87.9175 81.4756 87.659 81.591 87.3854 81.6531C87.1119 81.7152 86.8288 81.7228 86.5523 81.6755C86.2758 81.6282 86.0114 81.5269 85.7742 81.3774L70.6382 105.322C70.8753 105.472 71.0803 105.667 71.2417 105.896C71.403 106.126 71.5174 106.385 71.5784 106.658C71.6393 106.932 71.6456 107.215 71.5968 107.491C71.548 107.767 71.4451 108.03 71.2941 108.267Z" fill="white" stroke="#B2B2B2" stroke-linecap="round" stroke-linejoin="round"/>
<path d="M103.2 119.02C108.674 119.02 113.112 114.589 113.112 109.123C113.112 103.657 108.674 99.2256 103.2 99.2256C97.7262 99.2256 93.2886 103.657 93.2886 109.123C93.2886 114.589 97.7262 119.02 103.2 119.02Z" fill="white" stroke="#B2B2B2" stroke-linecap="round" stroke-linejoin="round"/>
<path d="M105.723 103.279L106.242 102.473L107.641 103.389L107.122 104.195C108.173 105.221 108.196 106.549 107.246 108.024L107.031 108.363L105.411 107.327L105.7 106.869C106.2 106.091 106.081 105.596 105.535 105.248C104.989 104.9 104.494 104.996 103.994 105.77C102.554 108.005 105.829 110.259 103.829 113.359C102.88 114.834 101.637 115.37 100.265 114.843L99.7561 115.631L98.3572 114.715L98.8663 113.927C97.7976 112.892 97.7839 111.546 98.7333 110.071L99.2149 109.324L100.829 110.364L100.279 111.216C99.779 111.99 99.9442 112.489 100.485 112.842C101.027 113.194 101.549 113.13 102.049 112.352C103.49 110.121 100.215 107.868 102.215 104.767C103.155 103.315 104.357 102.775 105.723 103.279Z" fill="white" stroke="#B2B2B2" stroke-linecap="round" stroke-linejoin="round"/>
<path d="M71.5283 93.7261L60.6621 130.216L123.808 148.965L134.674 112.475L71.5283 93.7261Z" fill="white" stroke="#B2B2B2" stroke-linecap="round" stroke-linejoin="round"/>
<path d="M66.708 129.156L118.161 144.43C118.271 144.056 118.482 143.718 118.771 143.455C119.059 143.192 119.415 143.014 119.799 142.94C120.183 142.865 120.58 142.898 120.946 143.034C121.313 143.17 121.635 143.405 121.876 143.711L130.178 115.819C129.762 115.952 129.315 115.952 128.899 115.819C128.63 115.74 128.38 115.608 128.162 115.432C127.944 115.256 127.763 115.039 127.629 114.793C127.495 114.548 127.412 114.278 127.382 114C127.353 113.721 127.379 113.44 127.458 113.172L76.0006 97.9067C75.9211 98.175 75.7895 98.4251 75.6133 98.6425C75.437 98.86 75.2196 99.0407 74.9734 99.1743C74.7272 99.3078 74.4571 99.3916 74.1784 99.4209C73.8998 99.4502 73.6181 99.4243 73.3495 99.3449L65.2632 126.495C65.5338 126.574 65.7861 126.705 66.0055 126.882C66.2249 127.059 66.4071 127.277 66.5414 127.525C66.6758 127.772 66.7597 128.044 66.7882 128.324C66.8168 128.604 66.7896 128.887 66.708 129.156Z" fill="white" stroke="#B2B2B2" stroke-linecap="round" stroke-linejoin="round"/>
<path d="M107.42 123.038C108.365 117.654 104.76 112.524 99.368 111.581C93.976 110.637 88.839 114.237 87.894 119.621C86.9491 125.005 90.5541 130.135 95.9461 131.078C101.338 132.022 106.475 128.422 107.42 123.038Z" fill="white" stroke="#B2B2B2" stroke-linecap="round" stroke-linejoin="round"/>
<path d="M98.5884 115.05L98.8819 114.134L100.464 114.642L100.171 115.558C101.455 116.282 101.817 117.559 101.281 119.222L101.157 119.607L99.3222 119.02L99.4873 118.512C99.7717 117.637 99.524 117.188 98.9094 116.991C98.2948 116.795 97.8361 117.014 97.5334 117.907C96.7216 120.436 100.464 121.768 99.336 125.281C98.7993 126.948 97.7352 127.791 96.2721 127.631L95.9831 128.524L94.4007 128.02L94.6897 127.104C93.3917 126.38 93.0293 125.084 93.5659 123.413L93.8366 122.57L95.6712 123.156L95.3593 124.123C95.0796 125.002 95.3593 125.442 95.9785 125.639C96.5977 125.835 97.0839 125.639 97.3545 124.764C98.171 122.236 94.4282 120.903 95.5566 117.39C96.1161 115.746 97.139 114.912 98.5884 115.05Z" fill="white" stroke="#B2B2B2" stroke-linecap="round" stroke-linejoin="round"/>
<path d="M127.127 158.575L127.28 120.506L61.402 120.242L61.249 158.311L127.127 158.575Z" fill="white" stroke="#B2B2B2" stroke-linecap="round" stroke-linejoin="round"/>
<path d="M121.78 123.229L68.1161 123.014C68.116 123.404 68.0084 123.787 67.8051 124.12C67.6017 124.453 67.3105 124.724 66.9633 124.903C66.616 125.081 66.2262 125.161 65.8365 125.134C65.4469 125.106 65.0723 124.972 64.754 124.745L64.6348 153.842C64.9932 153.591 65.4214 153.458 65.8594 153.462C66.1395 153.463 66.4166 153.519 66.6749 153.628C66.9332 153.736 67.1676 153.894 67.3648 154.092C67.562 154.291 67.7181 154.526 67.8242 154.785C67.9303 155.044 67.9842 155.321 67.983 155.601L121.647 155.816C121.648 155.536 121.705 155.259 121.813 155C121.922 154.742 122.08 154.507 122.28 154.31C122.479 154.112 122.715 153.956 122.975 153.85C123.235 153.744 123.513 153.69 123.794 153.691L123.908 125.368C123.628 125.368 123.35 125.312 123.091 125.204C122.833 125.096 122.598 124.938 122.4 124.74C122.202 124.541 122.046 124.305 121.939 124.046C121.833 123.787 121.779 123.509 121.78 123.229Z" fill="white" stroke="#B2B2B2" stroke-linecap="round" stroke-linejoin="round"/>
<path d="M103.651 142.58C105.402 137.401 102.617 131.785 97.4298 130.037C92.2432 128.289 86.6194 131.071 84.8689 136.25C83.1183 141.429 85.9039 147.044 91.0905 148.792C96.2772 150.54 101.901 147.759 103.651 142.58Z" fill="white" stroke="#B2B2B2" stroke-linecap="round" stroke-linejoin="round"/>
<path d="M95.2879 145.69V146.647H93.623V145.69C92.1874 145.387 91.4489 144.279 91.4581 142.525V142.122H93.3799V142.658C93.3799 143.574 93.7423 143.931 94.389 143.935C95.0357 143.94 95.4072 143.587 95.4072 142.667C95.4072 140.01 91.4489 139.864 91.4673 136.177C91.4673 134.427 92.2332 133.305 93.6735 133.017V132.073H95.3384V133.012C96.797 133.314 97.5308 134.441 97.5216 136.191V137.079H95.6044V136.067C95.6044 135.151 95.2054 134.808 94.5587 134.808C93.912 134.808 93.5037 135.137 93.4992 136.058C93.4992 138.714 97.462 138.856 97.4437 142.543C97.4391 144.27 96.7098 145.383 95.2879 145.69Z" fill="white" stroke="#B2B2B2" stroke-linecap="round" stroke-linejoin="round"/>
<path d="M171.33 45.9376C171.329 44.4474 171.623 42.9717 172.194 41.5948C172.764 40.2179 173.601 38.9667 174.656 37.9128C175.711 36.8588 176.964 36.0228 178.342 35.4524C179.721 34.882 181.199 34.5884 182.691 34.5884H243.754C245.246 34.5878 246.725 34.8809 248.104 35.4511C249.483 36.0212 250.736 36.8572 251.792 37.9112C252.847 38.9651 253.684 40.2165 254.255 41.5937C254.826 42.971 255.12 44.4471 255.119 45.9376V187.423C255.12 188.914 254.826 190.39 254.255 191.767C253.684 193.144 252.847 194.395 251.792 195.449C250.736 196.503 249.483 197.339 248.104 197.91C246.725 198.48 245.246 198.773 243.754 198.772H182.691C181.199 198.772 179.721 198.479 178.342 197.908C176.964 197.338 175.711 196.502 174.656 195.448C173.601 194.394 172.764 193.143 172.194 191.766C171.623 190.389 171.329 188.913 171.33 187.423V45.9376ZM177.614 179.316C177.614 185.586 179.99 190.666 186.264 190.666H240.167C241.661 190.668 243.141 190.376 244.522 189.807C245.903 189.238 247.158 188.402 248.215 187.348C249.273 186.294 250.112 185.042 250.684 183.664C251.256 182.286 251.551 180.808 251.551 179.316V48.5482C251.55 45.5386 250.352 42.6526 248.221 40.5244C246.089 38.3963 243.199 37.2002 240.185 37.199H217.61V37.2814C216.94 39.6813 215.403 41.234 213.706 41.234H212.725C211.028 41.234 209.491 39.6813 208.822 37.2814L208.799 37.199H186.264C179.999 37.1807 177.614 42.2645 177.614 48.5482V179.316Z" fill="#707070" stroke="#263238" stroke-linecap="round" stroke-linejoin="round"/>
<path d="M245.323 37.1804H222.788V37.2629C222.123 39.6628 220.587 41.2154 218.885 41.2154H217.885C216.184 41.2154 214.647 39.6628 213.982 37.2629L213.959 37.1804H191.425C189.931 37.1804 188.451 37.4746 187.071 38.0461C185.691 38.6176 184.437 39.4552 183.382 40.511C182.326 41.5668 181.489 42.8201 180.919 44.1992C180.349 45.5783 180.057 47.056 180.059 48.548V185.737C180.059 187.465 180.746 189.121 181.969 190.343C183.193 191.564 184.852 192.25 186.581 192.25H250.175C251.905 192.25 253.564 191.564 254.787 190.343C256.011 189.121 256.698 187.465 256.698 185.737V48.548C256.7 47.0553 256.408 45.5767 255.837 44.1971C255.266 42.8174 254.429 41.5637 253.372 40.5078C252.315 39.4518 251.061 38.6144 249.679 38.0435C248.298 37.4725 246.818 37.1792 245.323 37.1804Z" fill="white" stroke="#263238" stroke-linecap="round" stroke-linejoin="round"/>
<path d="M200.381 50.4949L179.448 74.3704V119.625L185.667 125.066L229.066 75.5704L200.381 50.4949Z" fill="white" stroke="#B2B2B2" stroke-linecap="round" stroke-linejoin="round"/>
<path d="M223.182 74.8785L201.84 56.2241C201.656 56.4348 201.431 56.607 201.18 56.731C200.929 56.8549 200.656 56.9282 200.376 56.9465C200.097 56.9648 199.816 56.9278 199.551 56.8376C199.286 56.7474 199.041 56.6059 198.831 56.4211L179.448 78.5287V115.169L184.493 119.584C184.535 119.196 184.682 118.827 184.919 118.517C185.157 118.207 185.475 117.969 185.839 117.827C186.203 117.685 186.598 117.646 186.983 117.713C187.368 117.781 187.727 117.953 188.02 118.21L223.379 77.8784C222.955 77.5061 222.697 76.9814 222.66 76.4191C222.623 75.8568 222.81 75.3028 223.182 74.8785Z" fill="white" stroke="#B2B2B2" stroke-linecap="round" stroke-linejoin="round"/>
<path d="M203.093 87.989C203.203 82.5228 198.854 78.003 193.38 77.8937C187.905 77.7843 183.379 82.1269 183.27 87.5931C183.16 93.0593 187.509 97.5791 192.983 97.6884C198.457 97.7977 202.984 93.4552 203.093 87.989Z" fill="white" stroke="#B2B2B2" stroke-width="1.0002" stroke-linecap="round" stroke-linejoin="round"/>
<path d="M198.199 91.4764L198.878 92.1542L197.704 93.3267L197.025 92.6488C195.796 93.4549 194.488 93.1893 193.25 91.9527L192.966 91.6641L194.342 90.2901L194.722 90.6703C195.374 91.3252 195.883 91.3115 196.341 90.8535C196.8 90.3955 196.8 89.8917 196.158 89.2367C194.282 87.3589 191.379 90.0657 188.773 87.4505C187.535 86.2094 187.274 84.8812 188.085 83.6583L187.42 82.9896L188.599 81.8171L189.264 82.4858C190.507 81.666 191.824 81.9408 193.062 83.182L193.69 83.8094L192.314 85.1834L191.599 84.4644C190.948 83.8094 190.425 83.8598 189.966 84.3178C189.507 84.7758 189.457 85.2934 190.108 85.9483C191.984 87.8261 194.888 85.1193 197.493 87.7345C198.713 88.9619 198.988 90.2535 198.199 91.4764Z" fill="white" stroke="#B2B2B2" stroke-linecap="round" stroke-linejoin="round"/>
<path d="M225.824 66.7629L179.448 94.133V117.697L188.511 133.003L245.225 99.5328L225.824 66.7629Z" fill="white" stroke="#B2B2B2" stroke-linecap="round" stroke-linejoin="round"/>
<path d="M239.854 97.0459L225.406 72.662C224.918 72.9496 224.336 73.0321 223.787 72.8913C223.239 72.7504 222.768 72.3978 222.48 71.9109L179.448 97.3161V111.111L189.112 127.439C189.272 127.084 189.528 126.779 189.85 126.559C190.172 126.339 190.548 126.212 190.938 126.191C191.328 126.17 191.715 126.257 192.059 126.442C192.403 126.626 192.689 126.901 192.887 127.237L239.102 99.9634C238.959 99.7227 238.865 99.4561 238.825 99.179C238.785 98.9019 238.801 98.6197 238.871 98.3486C238.941 98.0775 239.064 97.8228 239.232 97.5993C239.401 97.3757 239.612 97.1877 239.854 97.0459Z" fill="white" stroke="#B2B2B2" stroke-linecap="round" stroke-linejoin="round"/>
<path d="M216.79 102.25C218.097 96.9422 214.848 91.5808 209.533 90.2751C204.217 88.9693 198.848 92.2138 197.54 97.5217C196.232 102.83 199.482 108.191 204.797 109.497C210.113 110.802 215.482 107.558 216.79 102.25Z" fill="white" stroke="#B2B2B2" stroke-linecap="round" stroke-linejoin="round"/>
<path d="M210.729 105.171L211.128 106.045L209.615 106.732L209.216 105.858C207.785 106.183 206.652 105.482 205.927 103.888L205.757 103.517L207.505 102.725L207.73 103.21C208.11 104.053 208.592 104.218 209.179 103.952C209.766 103.687 209.959 103.21 209.578 102.372C208.477 99.954 204.808 101.456 203.281 98.122C202.556 96.5282 202.776 95.1908 203.969 94.3252L203.579 93.4687L205.088 92.7817L205.478 93.6382C206.932 93.3039 208.069 94.0229 208.794 95.6168L209.161 96.4228L207.413 97.2198L206.991 96.3038C206.61 95.4656 206.101 95.3282 205.514 95.5984C204.927 95.8687 204.693 96.3358 205.056 97.174C206.156 99.5922 209.826 98.0671 211.353 101.424C212.105 102.995 211.904 104.3 210.729 105.171Z" fill="white" stroke="#B2B2B2" stroke-linecap="round" stroke-linejoin="round"/>
<path d="M243.56 84.2905L179.448 95.6077V100.041L185.323 133.228L250.193 121.778L243.56 84.2905Z" fill="white" stroke="#B2B2B2" stroke-linecap="round" stroke-linejoin="round"/>
<path d="M238.631 87.936L185.774 97.2747C185.871 97.8315 185.744 98.4042 185.418 98.867C185.093 99.3298 184.598 99.6449 184.04 99.7433C183.611 99.8184 183.169 99.7593 182.774 99.5738L187.843 128.24C188.119 127.964 188.465 127.769 188.844 127.676C189.223 127.584 189.621 127.597 189.993 127.714C190.365 127.831 190.698 128.048 190.956 128.341C191.213 128.634 191.385 128.992 191.452 129.376L244.314 120.046C244.265 119.771 244.271 119.489 244.331 119.215C244.392 118.942 244.506 118.684 244.666 118.454C244.827 118.225 245.031 118.03 245.267 117.879C245.503 117.729 245.767 117.626 246.043 117.578L241.108 89.6856C240.83 89.7342 240.545 89.7274 240.27 89.6656C239.995 89.6039 239.735 89.4883 239.504 89.3257C239.274 89.1631 239.079 88.9566 238.929 88.7181C238.779 88.4795 238.677 88.2138 238.631 87.936Z" fill="white" stroke="#B2B2B2" stroke-linecap="round" stroke-linejoin="round"/>
<path d="M222.523 114.522C225.699 110.07 224.66 103.89 220.202 100.718C215.744 97.5463 209.555 98.5838 206.378 103.036C203.202 107.487 204.241 113.668 208.699 116.839C213.157 120.011 219.346 118.974 222.523 114.522Z" fill="white" stroke="#B2B2B2" stroke-linecap="round" stroke-linejoin="round"/>
<path d="M216.52 114.816L216.671 115.764L215.034 116.03L214.878 115.082C213.41 115.022 212.502 114.047 212.222 112.334L212.158 111.931L214.052 111.624L214.139 112.151C214.286 113.067 214.708 113.351 215.346 113.245C215.983 113.14 216.29 112.737 216.144 111.826C215.717 109.206 211.777 109.714 211.186 106.073C210.901 104.346 211.47 103.114 212.846 102.592L212.695 101.676L214.332 101.411L214.483 102.327C215.969 102.382 216.882 103.375 217.162 105.107L217.304 105.977L215.41 106.288L215.245 105.285C215.098 104.369 214.644 104.113 214.006 104.214C213.369 104.314 213.02 104.713 213.167 105.624C213.594 108.244 217.533 107.736 218.125 111.377C218.405 113.071 217.873 114.28 216.52 114.816Z" fill="white" stroke="#B2B2B2" stroke-linecap="round" stroke-linejoin="round"/>
<path d="M252.261 133.83L252.235 95.761L186.357 95.8069L186.383 133.876L252.261 133.83Z" fill="#A4EFFF" stroke="#263238" stroke-linecap="round" stroke-linejoin="round"/>
<path d="M246.729 98.5024L193.065 98.5345C193.066 98.9247 192.96 99.3078 192.758 99.6418C192.556 99.9758 192.265 100.248 191.919 100.429C191.572 100.609 191.183 100.691 190.793 100.666C190.403 100.64 190.027 100.508 189.708 100.284V129.381C190.026 129.155 190.401 129.022 190.791 128.995C191.181 128.969 191.571 129.05 191.917 129.23C192.264 129.409 192.555 129.681 192.757 130.015C192.959 130.348 193.066 130.731 193.065 131.121L246.729 131.089C246.729 130.524 246.954 129.982 247.353 129.582C247.753 129.181 248.296 128.956 248.862 128.955V100.632C248.296 100.631 247.755 100.406 247.355 100.007C246.955 99.6079 246.73 99.0669 246.729 98.5024Z" fill="white" stroke="#263238" stroke-miterlimit="10"/>
<path d="M221.227 124.508C226.595 123.44 230.08 118.228 229.01 112.868C227.94 107.507 222.721 104.027 217.353 105.095C211.984 106.164 208.499 111.375 209.569 116.736C210.639 122.097 215.858 125.577 221.227 124.508Z" fill="#263238"/>
<path d="M220.362 121.086V122.043H218.701V121.086C217.261 120.793 216.522 119.684 216.518 117.935V117.527H218.44V118.063C218.44 118.979 218.811 119.336 219.458 119.332C220.105 119.327 220.472 118.984 220.472 118.063C220.472 115.407 216.5 115.279 216.5 111.592C216.5 109.837 217.252 108.715 218.692 108.418V107.479H220.352V108.418C221.811 108.711 222.549 109.837 222.549 111.587V112.471H220.632V111.454C220.632 110.538 220.228 110.199 219.582 110.204C218.935 110.208 218.527 110.534 218.527 111.454C218.527 114.111 222.499 114.239 222.503 117.926C222.481 119.662 221.76 120.77 220.362 121.086Z" fill="white"/>
<path d="M217.749 161.216C222.815 161.216 226.922 157.115 226.922 152.056C226.922 146.997 222.815 142.896 217.749 142.896C212.682 142.896 208.575 146.997 208.575 152.056C208.575 157.115 212.682 161.216 217.749 161.216Z" fill="#263238" stroke="#263238" stroke-miterlimit="10"/>
<path d="M218.663 156.636L213.434 149.674C213.326 149.53 213.247 149.366 213.202 149.191C213.157 149.016 213.147 148.834 213.173 148.656C213.199 148.477 213.259 148.305 213.351 148.15C213.443 147.995 213.565 147.859 213.71 147.751C213.854 147.643 214.019 147.564 214.194 147.519C214.369 147.474 214.551 147.464 214.73 147.49C214.909 147.515 215.081 147.576 215.236 147.668C215.392 147.76 215.528 147.881 215.636 148.026L218.663 152.056L225.818 142.53C226.037 142.238 226.363 142.045 226.725 141.994C227.086 141.942 227.453 142.036 227.745 142.255C228.037 142.473 228.23 142.799 228.281 143.16C228.333 143.52 228.239 143.887 228.02 144.178L218.663 156.636Z" fill="#A4EFFF" stroke="#263238" stroke-linecap="round" stroke-linejoin="round"/>
<path d="M256.688 53.1282V48.5482C256.688 45.5382 255.491 42.6515 253.36 40.5231C251.228 38.3947 248.337 37.199 245.323 37.199H222.788V37.2814C222.123 39.6813 220.587 41.234 218.885 41.234H217.885C216.184 41.234 214.647 39.6813 213.982 37.2814L213.959 37.199H191.425C188.41 37.199 185.52 38.3947 183.388 40.5231C181.257 42.6515 180.059 45.5382 180.059 48.5482V53.1282H256.688Z" fill="#A4EFFF" stroke="#263238" stroke-linecap="round" stroke-linejoin="round"/>
<path d="M180.059 182.742V185.738C180.059 187.465 180.746 189.121 181.969 190.343C183.193 191.564 184.852 192.25 186.581 192.25H250.175C251.905 192.25 253.564 191.564 254.787 190.343C256.011 189.121 256.698 187.465 256.698 185.738V182.742H180.059Z" fill="#A4EFFF" stroke="#263238" stroke-linecap="round" stroke-linejoin="round"/>
<path d="M260.264 45.9376C260.265 44.4471 259.971 42.971 259.4 41.5937C258.829 40.2165 257.992 38.9651 256.936 37.9112C255.881 36.8572 254.628 36.0212 253.248 35.4511C251.869 34.8809 250.391 34.5878 248.898 34.5884H187.85C184.835 34.5884 181.944 35.7841 179.813 37.9125C177.681 40.0409 176.484 42.9276 176.484 45.9376V187.423C176.484 190.433 177.681 193.32 179.813 195.448C181.944 197.577 184.835 198.772 187.85 198.772H248.894C250.387 198.773 251.865 198.481 253.245 197.911C254.625 197.341 255.879 196.505 256.935 195.451C257.991 194.397 258.828 193.145 259.4 191.768C259.971 190.39 260.265 188.914 260.264 187.423V45.9376ZM256.686 179.316C256.687 180.807 256.393 182.283 255.822 183.66C255.251 185.038 254.414 186.289 253.359 187.343C252.303 188.397 251.05 189.233 249.671 189.803C248.292 190.373 246.813 190.666 245.321 190.666H191.423C189.93 190.666 188.452 190.373 187.072 189.803C185.693 189.233 184.44 188.397 183.385 187.343C182.329 186.289 181.492 185.038 180.921 183.66C180.35 182.283 180.056 180.807 180.057 179.316V48.5482C180.057 45.5382 181.254 42.6515 183.386 40.5231C185.517 38.3947 188.408 37.199 191.423 37.199H213.939L213.962 37.2814C214.627 39.6813 216.163 41.234 217.865 41.234H218.842C220.543 41.234 222.08 39.6813 222.745 37.2814V37.199H245.279C246.775 37.1936 248.258 37.4831 249.641 38.051C251.025 38.619 252.283 39.4541 253.343 40.5085C254.403 41.5629 255.243 42.8159 255.817 44.1955C256.391 45.5752 256.686 47.0543 256.686 48.5482V179.316Z" fill="#707070" stroke="#263238" stroke-linecap="round" stroke-linejoin="round"/>
<path d="M246.906 36.1504H189.844C186.651 36.1504 183.588 37.417 181.33 39.6717C179.072 41.9264 177.804 44.9843 177.804 48.1729V185.188C177.804 186.767 178.115 188.33 178.72 189.789C179.325 191.248 180.212 192.573 181.33 193.689C182.448 194.806 183.775 195.691 185.236 196.296C186.697 196.9 188.263 197.211 189.844 197.211H246.906C248.488 197.211 250.053 196.9 251.514 196.296C252.975 195.691 254.302 194.806 255.42 193.689C256.538 192.573 257.425 191.248 258.03 189.789C258.635 188.33 258.946 186.767 258.946 185.188V48.1729C258.946 44.9843 257.678 41.9264 255.42 39.6717C253.162 37.417 250.1 36.1504 246.906 36.1504ZM256.69 179.317C256.69 180.807 256.397 182.283 255.826 183.661C255.255 185.038 254.418 186.289 253.362 187.343C252.307 188.397 251.054 189.233 249.674 189.803C248.295 190.373 246.817 190.666 245.324 190.666H191.426C189.933 190.666 188.455 190.373 187.076 189.803C185.697 189.233 184.443 188.397 183.388 187.343C182.332 186.289 181.495 185.038 180.924 183.661C180.353 182.283 180.06 180.807 180.06 179.317V48.5485C180.06 45.5384 181.258 42.6517 183.389 40.5233C185.521 38.3949 188.412 37.1992 191.426 37.1992H213.942L213.965 37.2817C214.63 39.6816 216.167 41.2342 217.868 41.2342H218.845C220.547 41.2342 222.083 39.6816 222.748 37.2817V37.1992H245.283C246.779 37.1938 248.261 37.4833 249.645 38.0513C251.029 38.6192 252.287 39.4543 253.346 40.5087C254.406 41.5631 255.247 42.8161 255.821 44.1957C256.395 45.5754 256.69 47.0546 256.69 48.5485V179.317Z" fill="#263238" stroke="#263238" stroke-linecap="round" stroke-linejoin="round"/>
<path d="M219.207 37.7256C219.207 37.5143 219.144 37.3078 219.026 37.1322C218.909 36.9566 218.741 36.8199 218.546 36.7392C218.35 36.6586 218.135 36.6377 217.928 36.6793C217.72 36.7208 217.53 36.8229 217.381 36.9726C217.231 37.1223 217.13 37.3129 217.089 37.5202C217.049 37.7275 217.07 37.9422 217.152 38.1371C217.234 38.3321 217.371 38.4984 217.548 38.6151C217.724 38.7318 217.931 38.7936 218.143 38.7927C218.283 38.7927 218.421 38.7651 218.551 38.7114C218.68 38.6577 218.798 38.579 218.897 38.4799C218.996 38.3807 219.074 38.2631 219.127 38.1336C219.18 38.0042 219.207 37.8655 219.207 37.7256Z" fill="#707070"/>
<path d="M186.88 41.8064C186.88 42.8873 185.664 43.272 185.66 44.0964V44.1514H186.838V44.5132H185.265V44.2109C185.265 43.0568 186.481 42.8369 186.481 41.8248C186.481 41.4538 186.357 41.2614 186.059 41.2614C185.76 41.2614 185.641 41.4721 185.641 41.7881V42.1041H185.265V41.811C185.265 41.266 185.517 40.895 186.072 40.895C186.627 40.895 186.88 41.2614 186.88 41.8064Z" fill="#263238"/>
<path d="M188.829 41.802V41.8936C188.847 42.0472 188.815 42.2026 188.736 42.3358C188.657 42.4691 188.537 42.5728 188.393 42.631C188.537 42.69 188.658 42.7945 188.737 42.9286C188.815 43.0626 188.848 43.2187 188.829 43.3729V43.6477C188.829 44.1927 188.572 44.5637 188.022 44.5637C187.471 44.5637 187.219 44.2065 187.219 43.6477V43.4004H187.591V43.6706C187.591 43.9958 187.724 44.1882 188.013 44.1882C188.302 44.1882 188.43 44.0004 188.43 43.6386V43.3592C188.43 43.0065 188.283 42.8416 187.971 42.8279H187.756V42.4707H187.99C188.052 42.4713 188.113 42.4585 188.17 42.4332C188.226 42.408 188.277 42.3708 188.318 42.3243C188.359 42.2778 188.389 42.223 188.407 42.1637C188.425 42.1044 188.429 42.0419 188.421 41.9806V41.8203C188.421 41.4493 188.292 41.2615 188.003 41.2615C187.714 41.2615 187.581 41.4631 187.581 41.7837V41.9669H187.21V41.802C187.21 41.257 187.462 40.886 188.013 40.886C188.563 40.886 188.829 41.257 188.829 41.802Z" fill="#263238"/>
<path d="M189.602 42.0723V42.5944H189.217V42.0723H189.602ZM189.602 44.0188V44.5134H189.217V44.0188H189.602Z" fill="#263238"/>
<path d="M190.412 42.3971C190.463 42.3022 190.54 42.2238 190.634 42.171C190.728 42.1183 190.836 42.0935 190.944 42.0994C191.402 42.0994 191.609 42.4383 191.609 42.9467V43.6475C191.609 44.1925 191.347 44.5635 190.801 44.5635C190.256 44.5635 189.994 44.2062 189.994 43.6475V43.4047H190.37V43.6704C190.37 43.9955 190.503 44.1879 190.788 44.1879C191.072 44.1879 191.21 43.9955 191.21 43.6704V42.9788C191.21 42.6582 191.077 42.4612 190.788 42.4612C190.736 42.4588 190.683 42.4669 190.635 42.4851C190.586 42.5033 190.541 42.5313 190.503 42.5672C190.466 42.6032 190.435 42.6465 190.415 42.6944C190.394 42.7423 190.384 42.7939 190.384 42.846V42.9284H190.012L190.109 40.9407H191.522V41.2979H190.467L190.412 42.3971Z" fill="#263238"/>
<path d="M193.598 41.7973V41.866H193.222V41.7744C193.222 41.4493 193.089 41.2615 192.8 41.2615C192.511 41.2615 192.341 41.4538 192.341 41.8386V42.6401C192.384 42.5229 192.463 42.4226 192.567 42.3541C192.671 42.2855 192.795 42.2525 192.919 42.2599C193.378 42.2599 193.584 42.5897 193.584 43.1072V43.6477C193.584 44.1927 193.314 44.5637 192.768 44.5637C192.222 44.5637 191.942 44.2064 191.942 43.6477V41.8157C191.942 41.2477 192.199 40.8997 192.768 40.8997C193.337 40.8997 193.598 41.2523 193.598 41.7973ZM192.383 43.1347V43.6706C192.383 43.9957 192.516 44.1881 192.809 44.1881C193.103 44.1881 193.231 43.9957 193.231 43.6706V43.1347C193.231 42.8141 193.094 42.6217 192.809 42.6217C192.525 42.6217 192.383 42.8141 192.383 43.1347Z" fill="#263238"/>
<path d="M232.687 41.9531H231.678V44.4767H232.687V41.9531Z" fill="#263238"/>
<path d="M234.034 41.4492H233.025V44.4766H234.034V41.4492Z" fill="#263238"/>
<path d="M235.382 41.0918H234.373V44.481H235.382V41.0918Z" fill="#263238"/>
<path d="M236.732 40.4646H235.723V44.4767H236.732V40.4646Z" fill="#263238"/>
<path d="M249.258 44.4262H243.181V40.7073H249.258V44.4262ZM243.53 44.0919H248.924V41.0462H243.516L243.53 44.0919Z" fill="#263238"/>
<path d="M247.225 41.4126H244.024V43.7072H247.225V41.4126Z" fill="#263238"/>
<path d="M249.798 42.1223H249.036V42.9925H249.798V42.1223Z" fill="#263238"/>
<path d="M240.956 43.6064C240.916 43.605 240.876 43.594 240.841 43.5743C239.603 42.8415 238.791 43.5193 238.754 43.5468C238.734 43.568 238.709 43.5849 238.682 43.5964C238.655 43.6079 238.625 43.6138 238.596 43.6138C238.566 43.6138 238.537 43.6079 238.51 43.5964C238.483 43.5849 238.458 43.568 238.438 43.5468C238.396 43.5048 238.373 43.448 238.373 43.3888C238.373 43.3296 238.396 43.2728 238.438 43.2308C238.484 43.1942 239.525 42.3148 241.052 43.2308C241.093 43.2571 241.125 43.2958 241.142 43.3412C241.16 43.3867 241.162 43.4365 241.149 43.4834C241.137 43.5304 241.109 43.572 241.071 43.6024C241.033 43.6327 240.986 43.6502 240.937 43.6522L240.956 43.6064Z" fill="#263238"/>
<path d="M241.411 42.8463C241.371 42.8442 241.332 42.8333 241.296 42.8142C239.512 41.7516 238.31 42.7776 238.301 42.7867C238.258 42.8287 238.201 42.8522 238.141 42.8522C238.081 42.8522 238.023 42.8287 237.98 42.7867C237.96 42.7643 237.945 42.7382 237.935 42.7098C237.926 42.6815 237.922 42.6515 237.924 42.6216C237.926 42.5917 237.934 42.5626 237.948 42.5359C237.961 42.5092 237.98 42.4854 238.003 42.4661C238.003 42.4661 239.462 41.2158 241.53 42.4432C241.581 42.4737 241.618 42.5231 241.633 42.5806C241.647 42.6381 241.638 42.699 241.608 42.7501C241.586 42.7813 241.556 42.8065 241.522 42.8233C241.487 42.8401 241.449 42.848 241.411 42.8463Z" fill="#263238"/>
<path d="M241.828 41.9622C241.787 41.9636 241.747 41.9524 241.713 41.9301C239.452 40.5882 237.948 41.8523 237.884 41.9301C237.863 41.9513 237.838 41.9682 237.811 41.9797C237.784 41.9912 237.755 41.9971 237.725 41.9971C237.696 41.9971 237.667 41.9912 237.639 41.9797C237.612 41.9682 237.588 41.9513 237.567 41.9301C237.525 41.8881 237.502 41.8313 237.502 41.7721C237.502 41.7129 237.525 41.6561 237.567 41.6141C237.567 41.6141 239.37 40.0707 241.924 41.5866C241.95 41.6017 241.973 41.6218 241.991 41.6458C242.009 41.6697 242.022 41.697 242.029 41.726C242.036 41.755 242.038 41.7852 242.033 41.8147C242.029 41.8443 242.018 41.8726 242.002 41.8981C241.98 41.9211 241.953 41.9387 241.922 41.9498C241.892 41.9609 241.86 41.9652 241.828 41.9622Z" fill="#263238"/>
<path d="M240.273 43.9683C240.273 44.1189 240.213 44.2634 240.107 44.3699C240 44.4764 239.855 44.5362 239.705 44.5362C239.554 44.5362 239.409 44.4764 239.302 44.3699C239.196 44.2634 239.136 44.1189 239.136 43.9683C239.136 43.8177 239.196 43.6732 239.302 43.5667C239.409 43.4602 239.554 43.4004 239.705 43.4004C239.855 43.4004 240 43.4602 240.107 43.5667C240.213 43.6732 240.273 43.8177 240.273 43.9683Z" fill="#263238"/>
<path d="M174.572 63.282H172.187V72.6756H174.572V63.282Z" fill="#263238" stroke="#263238" stroke-linecap="round" stroke-linejoin="round"/>
</g>
<defs>
<clipPath id="clip0_38_1408">
<rect width="344" height="199" fill="white"/>
</clipPath>
</defs>
</svg>
