<svg width="374" height="232" viewBox="0 0 374 232" fill="none" xmlns="http://www.w3.org/2000/svg">
<path d="M369.751 172.765C369.751 172.765 388.548 89.4585 337.334 42.1977C292.125 0.478002 220.55 -15.7537 162.204 18.7257C141.419 31.0175 126.288 54.887 102.002 62.2598C74.7746 70.5311 39.7659 73.486 14.4806 108.916C-10.8048 144.346 -1.72504 189.855 31.9849 214.082C65.6949 238.308 124.69 214.658 177.853 212.895C231.015 211.133 341.862 275.564 369.751 172.765Z" fill="#A4EFFF"/>
<path opacity="0.7" d="M369.751 172.765C369.751 172.765 388.548 89.4585 337.334 42.1977C292.125 0.478002 220.55 -15.7537 162.204 18.7257C141.419 31.0175 126.288 54.887 102.002 62.2598C74.7746 70.5311 39.7659 73.486 14.4806 108.916C-10.8048 144.346 -1.72504 189.855 31.9849 214.082C65.6949 238.308 124.69 214.658 177.853 212.895C231.015 211.133 341.862 275.564 369.751 172.765Z" fill="white"/>
</svg>
