<svg width="329" height="300" viewBox="0 0 329 300" fill="none" xmlns="http://www.w3.org/2000/svg">
<path d="M226.959 8.84184C210.057 18.5087 198.136 34.7672 183.69 47.8189C165.723 63.9889 143.854 75.201 120.236 80.3515C100.872 84.542 80.6396 84.6039 61.9799 91.1957C25.5744 103.969 0.640536 141.877 0.0131222 180.42C-0.614291 218.963 21.3142 256.329 53.5447 277.46C64.5215 284.66 76.5384 290.133 89.1756 293.688C112.878 300.357 138.013 300.062 162.505 297.514C204.813 293.107 249.166 269.079 275.835 235.206C287.723 220.067 297.77 203.569 305.765 186.059C318.973 157.267 326.475 126.188 327.856 94.5419C328.979 67.4314 327.856 37.3775 306.346 17.6179C284.836 -2.14177 252.171 -5.58867 226.959 8.84184Z" fill="#A4EFFF"/>
<path opacity="0.7" d="M226.959 8.84184C210.057 18.5087 198.136 34.7672 183.69 47.8189C165.723 63.9889 143.854 75.201 120.236 80.3515C100.872 84.542 80.6396 84.6039 61.9799 91.1957C25.5744 103.969 0.640536 141.877 0.0131222 180.42C-0.614291 218.963 21.3142 256.329 53.5447 277.46C64.5215 284.66 76.5384 290.133 89.1756 293.688C112.878 300.357 138.013 300.062 162.505 297.514C204.813 293.107 249.166 269.079 275.835 235.206C287.723 220.067 297.77 203.569 305.765 186.059C318.973 157.267 326.475 126.188 327.856 94.5419C328.979 67.4314 327.856 37.3775 306.346 17.6179C284.836 -2.14177 252.171 -5.58867 226.959 8.84184Z" fill="white"/>
</svg>
