<svg width="226" height="119" viewBox="0 0 226 119" fill="none" xmlns="http://www.w3.org/2000/svg">
<path d="M1 71.2627H168.573" stroke="#CCCCCC" stroke-linecap="round" stroke-linejoin="round"/>
<path d="M1 67.8008H168.573" stroke="#CCCCCC" stroke-linecap="round" stroke-linejoin="round"/>
<path d="M1 64.3335H168.573" stroke="#CCCCCC" stroke-linecap="round" stroke-linejoin="round"/>
<path d="M1 60.8657H168.573" stroke="#CCCCCC" stroke-linecap="round" stroke-linejoin="round"/>
<path d="M1 57.3984H168.573" stroke="#CCCCCC" stroke-linecap="round" stroke-linejoin="round"/>
<path d="M1 53.9307H168.573" stroke="#CCCCCC" stroke-linecap="round" stroke-linejoin="round"/>
<path d="M1 50.4634H168.573" stroke="#CCCCCC" stroke-linecap="round" stroke-linejoin="round"/>
<path d="M1 46.9956H168.573" stroke="#CCCCCC" stroke-linecap="round" stroke-linejoin="round"/>
<path d="M1 43.5283H168.573" stroke="#CCCCCC" stroke-linecap="round" stroke-linejoin="round"/>
<path d="M1 40.061H168.573" stroke="#CCCCCC" stroke-linecap="round" stroke-linejoin="round"/>
<path d="M1 36.5933H168.573" stroke="#CCCCCC" stroke-linecap="round" stroke-linejoin="round"/>
<path d="M1 33.126H168.573" stroke="#CCCCCC" stroke-linecap="round" stroke-linejoin="round"/>
<path d="M1 29.6582H168.573" stroke="#CCCCCC" stroke-linecap="round" stroke-linejoin="round"/>
<path d="M1 26.1909H168.573" stroke="#CCCCCC" stroke-linecap="round" stroke-linejoin="round"/>
<path d="M1 22.7231H168.573" stroke="#CCCCCC" stroke-linecap="round" stroke-linejoin="round"/>
<path d="M1 19.2612H168.573" stroke="#CCCCCC" stroke-linecap="round" stroke-linejoin="round"/>
<path d="M13.2996 15.4082H6.76562V70.8827H13.2996V15.4082Z" fill="#A4EFFF"/>
<path d="M21.948 45.4521H15.4141V70.8768H21.948V45.4521Z" fill="#A4EFFF"/>
<path d="M30.5965 50.0776H24.0625V70.8828H30.5965V50.0776Z" fill="#A4EFFF"/>
<path d="M39.2449 23.4951H32.7109V70.8769H39.2449V23.4951Z" fill="#A4EFFF"/>
<path d="M47.8933 46.9956H41.3594V70.8823H47.8933V46.9956Z" fill="#A4EFFF"/>
<path d="M56.5418 36.2075H50.0078V70.877H56.5418V36.2075Z" fill="#A4EFFF"/>
<path d="M65.1824 22.7231H58.6484V70.8768H65.1824V22.7231Z" fill="#A4EFFF"/>
<path d="M73.8309 8.08691H67.2969V70.8824H73.8309V8.08691Z" fill="#A4EFFF"/>
<path d="M82.4793 38.1367H75.9453V70.8823H82.4793V38.1367Z" fill="#A4EFFF"/>
<path d="M91.1316 52.0015H84.5977V70.877H91.1316V52.0015Z" fill="#A4EFFF"/>
<path d="M99.78 59.708H93.2461V70.8824H99.78V59.708Z" fill="#A4EFFF"/>
<path d="M108.425 50.8491H101.891V70.8824H108.425V50.8491Z" fill="#A4EFFF"/>
<path d="M117.073 31.5879H110.539V70.8826H117.073V31.5879Z" fill="#A4EFFF"/>
<path d="M125.721 63.9478H119.188V70.8828H125.721V63.9478Z" fill="#A4EFFF"/>
<path d="M134.37 50.0776H127.836V70.8828H134.37V50.0776Z" fill="#A4EFFF"/>
<path d="M143.018 59.3223H136.484V70.8768H143.018V59.3223Z" fill="#A4EFFF"/>
<path d="M151.667 8.47314H145.133V70.8827H151.667V8.47314Z" fill="#A4EFFF"/>
<path d="M160.307 19.2612H153.773V70.8823H160.307V19.2612Z" fill="#A4EFFF"/>
<path d="M3.53816 0.535675V0H4.46913V0.535675C5.27366 0.702715 5.68742 1.3248 5.68742 2.304V2.5344H4.61279V2.23487C4.61279 1.71647 4.40591 1.52064 4.03812 1.52064C3.67034 1.52064 3.46345 1.71647 3.46345 2.23487C3.46345 3.72095 5.67594 3.79583 5.67594 5.86367C5.67594 6.84287 5.25642 7.47647 4.45189 7.63775V8.16767H3.52092V7.63775C2.71064 7.47647 2.29688 6.84287 2.29688 5.86367V5.36256H3.36576V5.93856C3.36576 6.45695 3.59563 6.64128 3.94043 6.64128C4.28523 6.64128 4.5151 6.45695 4.5151 5.93856C4.5151 4.45248 2.29688 4.37759 2.29688 2.30976C2.34285 1.33632 2.74512 0.714235 3.53816 0.535675Z" fill="#263238"/>
<path d="M8.11988 1.44559C7.75784 1.44559 7.54522 1.64143 7.54522 2.15983V2.93167H6.47059V2.22895C6.47059 1.07695 7.04525 0.414551 8.1601 0.414551C9.27495 0.414551 9.85536 1.07119 9.85536 2.22895C9.85536 4.50415 7.59693 5.35088 7.59693 6.5432C7.59407 6.595 7.59407 6.64691 7.59693 6.69871H9.74617V7.72976H6.46484V6.84271C6.46484 4.71151 8.71178 4.36015 8.71178 2.27503C8.70604 1.58959 8.48192 1.44559 8.11988 1.44559Z" fill="#263238"/>
<path d="M10.4453 2.20014C10.4453 1.04814 11.0545 0.385742 12.1693 0.385742C13.2842 0.385742 13.8933 1.04238 13.8933 2.20014V5.96718C13.8933 7.11918 13.2842 7.78158 12.1693 7.78158C11.0545 7.78158 10.4453 7.11918 10.4453 5.96718V2.20014ZM11.5947 6.0363C11.5947 6.5547 11.8188 6.75054 12.1693 6.75054C12.5199 6.75054 12.744 6.5547 12.744 6.0363V2.13102C12.744 1.61262 12.5199 1.41678 12.1693 1.41678C11.8188 1.41678 11.5947 1.61262 11.5947 2.13102V6.0363Z" fill="#263238"/>
<path d="M15.7169 6.62988V7.72427H14.625V6.62988H15.7169Z" fill="#263238"/>
<path d="M18.726 2.24622C18.726 1.58958 18.4961 1.41678 18.1514 1.41678C17.8066 1.41678 17.5767 1.61262 17.5767 2.13102V2.59758H16.5078V2.20014C16.5078 1.04814 17.0825 0.385742 18.1973 0.385742C19.3122 0.385742 19.8868 1.04238 19.8868 2.20014V2.39022C19.8868 3.16206 19.6397 3.65166 19.0938 3.8763C19.3683 4.01447 19.5926 4.23561 19.7349 4.50848C19.8772 4.78135 19.9303 5.09215 19.8868 5.39694V5.97294C19.8868 7.12494 19.3122 7.78734 18.1973 7.78734C17.0825 7.78734 16.5078 7.12494 16.5078 5.97294V5.39694H17.5422V6.05358C17.5422 6.57198 17.7721 6.76782 18.1169 6.76782C18.4617 6.76782 18.6915 6.58927 18.6915 5.94991V5.37391C18.6915 4.70575 18.4617 4.45806 17.9502 4.45806H17.5652V3.42126H18.0077C18.4329 3.42126 18.6915 3.23694 18.6915 2.66094L18.726 2.24622Z" fill="#263238"/>
<path d="M20.5526 2.2635C20.5526 1.04238 21.1273 0.385742 22.2766 0.385742C23.426 0.385742 23.9661 1.04238 23.9661 2.20014V2.39022H22.8915V2.13102C22.8915 1.61262 22.6674 1.41678 22.3168 1.41678C21.9663 1.41678 21.6847 1.61262 21.6847 2.30382V3.62862C21.7753 3.42702 21.925 3.25787 22.1139 3.14366C22.3028 3.02945 22.5219 2.97559 22.7421 2.98926C23.5754 2.98926 23.9949 3.56526 23.9949 4.64238V5.96718C23.9949 7.11918 23.3915 7.78158 22.2709 7.78158C21.1503 7.78158 20.5469 7.11918 20.5469 5.96718L20.5526 2.2635ZM21.702 4.73454V6.05358C21.702 6.57198 21.9318 6.7563 22.2766 6.7563C22.6214 6.7563 22.8513 6.57198 22.8513 6.05358V4.75182C22.8513 4.23342 22.6272 4.03758 22.2766 4.03758C21.9261 4.03758 21.6847 4.21614 21.6847 4.73454H21.702Z" fill="#263238"/>
<path d="M26.329 7.78172C26.087 7.80601 25.8427 7.77542 25.6142 7.69222C25.3857 7.60902 25.1787 7.47534 25.0087 7.30108C24.8387 7.12683 24.7101 6.91646 24.6322 6.68558C24.5543 6.4547 24.5293 6.20922 24.559 5.96733V5.39133C24.5253 5.09941 24.5729 4.80384 24.6967 4.53744C24.8205 4.27103 25.0155 4.04422 25.2601 3.8822C25.0163 3.73208 24.8206 3.51496 24.6963 3.25662C24.572 2.99829 24.5244 2.70962 24.559 2.42492V2.19453C24.5452 1.95266 24.5809 1.71053 24.6638 1.48297C24.7467 1.2554 24.875 1.04719 25.041 0.871089C25.207 0.694986 25.4071 0.554694 25.629 0.458812C25.851 0.362931 26.0902 0.313477 26.3318 0.313477C26.5735 0.313477 26.8127 0.362931 27.0346 0.458812C27.2566 0.554694 27.4567 0.694986 27.6227 0.871089C27.7887 1.04719 27.917 1.2554 27.9999 1.48297C28.0828 1.71053 28.1184 1.95266 28.1047 2.19453V2.42492C28.1372 2.70941 28.0886 2.99731 27.9645 3.25524C27.8404 3.51316 27.6459 3.73054 27.4036 3.8822C27.6482 4.04422 27.8432 4.27103 27.967 4.53744C28.0907 4.80384 28.1384 5.09941 28.1047 5.39133V5.96733C28.1334 6.20953 28.1075 6.4551 28.029 6.68595C27.9504 6.91679 27.8211 7.12701 27.6507 7.30113C27.4803 7.47525 27.2731 7.60882 27.0443 7.69199C26.8156 7.77517 26.5711 7.80583 26.329 7.78172V7.78172ZM25.6911 2.64956C25.6911 3.22556 25.9612 3.40989 26.329 3.40989C26.6968 3.40989 26.9726 3.22556 26.9726 2.64956V2.24637C26.9726 1.58973 26.691 1.41692 26.329 1.41692C25.9669 1.41692 25.6911 1.58973 25.6911 2.24637V2.64956ZM26.329 6.75069C26.691 6.75069 26.9611 6.57212 26.9726 5.93276V5.25884C26.9726 4.68284 26.7312 4.44669 26.329 4.44669C25.9267 4.44669 25.6911 4.69436 25.6911 5.25884V5.93276C25.6911 6.57212 25.9727 6.75069 26.329 6.75069Z" fill="#263238"/>
<path d="M28.7852 7.70124V6.62988H29.8828V7.60908L29.3828 8.76107H28.9231L29.2219 7.73004L28.7852 7.70124Z" fill="#263238"/>
<path d="M32.3639 1.44559C32.0019 1.44559 31.7893 1.64143 31.7893 2.15983V2.93167H30.7031V2.22895C30.7031 1.07695 31.2778 0.414551 32.3927 0.414551C33.5075 0.414551 34.1167 1.07119 34.1167 2.22895C34.1167 4.50415 31.8582 5.35088 31.8582 6.5432C31.8554 6.595 31.8554 6.64691 31.8582 6.69871H34.0075V7.72976H30.7031V6.84271C30.7031 4.71151 32.9501 4.36015 32.9501 2.27503C32.9501 1.58959 32.726 1.44559 32.3639 1.44559Z" fill="#263238"/>
<path d="M36.9735 2.24622C36.9735 1.58958 36.7436 1.41678 36.3988 1.41678C36.054 1.41678 35.8242 1.61262 35.8242 2.13102V2.59758H34.7266V2.20014C34.7266 1.04814 35.3012 0.385742 36.4161 0.385742C37.5309 0.385742 38.1056 1.04238 38.1056 2.20014V2.39022C38.1056 3.16206 37.8585 3.65166 37.3125 3.8763C37.5871 4.01447 37.8113 4.23561 37.9536 4.50848C38.0959 4.78135 38.1491 5.09215 38.1056 5.39694V5.97294C38.1056 7.12494 37.5309 7.78734 36.4161 7.78734C35.3012 7.78734 34.7266 7.12494 34.7266 5.97294V5.39694H35.7954V6.05358C35.7954 6.57198 36.0253 6.76782 36.3701 6.76782C36.7149 6.76782 36.9448 6.58927 36.9448 5.94991V5.37391C36.9448 4.70575 36.7149 4.45806 36.2035 4.45806H35.8184V3.42126H36.2609C36.6862 3.42126 36.9448 3.23694 36.9448 2.66094L36.9735 2.24622Z" fill="#263238"/>
<path d="M225.87 1.3999H172.352V71.0959H225.87V1.3999Z" fill="#263238"/>
<path d="M181.617 5.6792H188.703" stroke="#757575" stroke-miterlimit="10"/>
<path d="M192.691 5.6792H199.777" stroke="#757575" stroke-miterlimit="10"/>
<path d="M203.766 5.6792H210.851" stroke="#757575" stroke-miterlimit="10"/>
<path d="M214.836 5.6792H221.922" stroke="#757575" stroke-miterlimit="10"/>
<path d="M190.727 2.44238V70.1339" stroke="white" stroke-miterlimit="10"/>
<path d="M179.641 2.44238V70.1339" stroke="white" stroke-miterlimit="10"/>
<path d="M201.992 2.44238V70.1339" stroke="white" stroke-miterlimit="10"/>
<path d="M213.254 2.44238V70.1339" stroke="white" stroke-miterlimit="10"/>
<path d="M176.389 4.30273L175.09 6.56643H177.693L176.389 4.30273Z" fill="white"/>
<path d="M181.617 10.9268H188.703" stroke="#757575" stroke-miterlimit="10"/>
<path d="M192.691 10.9268H199.777" stroke="#757575" stroke-miterlimit="10"/>
<path d="M203.766 10.9268H210.851" stroke="#757575" stroke-miterlimit="10"/>
<path d="M214.836 10.9268H221.922" stroke="#757575" stroke-miterlimit="10"/>
<path d="M176.389 11.814L177.693 9.55029H175.09L176.389 11.814Z" fill="#A4EFFF"/>
<path d="M181.617 16.1685H188.703" stroke="#757575" stroke-miterlimit="10"/>
<path d="M192.691 16.1685H199.777" stroke="#757575" stroke-miterlimit="10"/>
<path d="M203.766 16.1685H210.851" stroke="#757575" stroke-miterlimit="10"/>
<path d="M214.836 16.1685H221.922" stroke="#757575" stroke-miterlimit="10"/>
<path d="M176.389 14.7974L175.09 17.061H177.693L176.389 14.7974Z" fill="white"/>
<path d="M181.617 21.4155H188.703" stroke="#757575" stroke-miterlimit="10"/>
<path d="M192.691 21.4155H199.777" stroke="#757575" stroke-miterlimit="10"/>
<path d="M203.766 21.4155H210.851" stroke="#757575" stroke-miterlimit="10"/>
<path d="M214.836 21.4155H221.922" stroke="#757575" stroke-miterlimit="10"/>
<path d="M176.389 22.3028L177.693 20.0449H175.09L176.389 22.3028Z" fill="#A4EFFF"/>
<path d="M181.617 26.6631H188.703" stroke="#757575" stroke-miterlimit="10"/>
<path d="M192.691 26.6631H199.777" stroke="#757575" stroke-miterlimit="10"/>
<path d="M203.766 26.6631H210.851" stroke="#757575" stroke-miterlimit="10"/>
<path d="M214.836 26.6631H221.922" stroke="#757575" stroke-miterlimit="10"/>
<path d="M176.389 27.5499L177.693 25.292H175.09L176.389 27.5499Z" fill="#A4EFFF"/>
<path d="M181.617 31.9106H188.703" stroke="#757575" stroke-miterlimit="10"/>
<path d="M192.691 31.9106H199.777" stroke="#757575" stroke-miterlimit="10"/>
<path d="M203.766 31.9106H210.851" stroke="#757575" stroke-miterlimit="10"/>
<path d="M214.836 31.9106H221.922" stroke="#757575" stroke-miterlimit="10"/>
<path d="M176.389 32.7975L177.693 30.5396H175.09L176.389 32.7975Z" fill="#A4EFFF"/>
<path d="M181.617 37.1577H188.703" stroke="#757575" stroke-miterlimit="10"/>
<path d="M192.691 37.1577H199.777" stroke="#757575" stroke-miterlimit="10"/>
<path d="M203.766 37.1577H210.851" stroke="#757575" stroke-miterlimit="10"/>
<path d="M214.836 37.1577H221.922" stroke="#757575" stroke-miterlimit="10"/>
<path d="M176.389 35.7812L175.09 38.0449H177.693L176.389 35.7812Z" fill="white"/>
<path d="M181.617 42.4053H188.703" stroke="#757575" stroke-miterlimit="10"/>
<path d="M192.691 42.4053H199.777" stroke="#757575" stroke-miterlimit="10"/>
<path d="M203.766 42.4053H210.851" stroke="#757575" stroke-miterlimit="10"/>
<path d="M214.836 42.4053H221.922" stroke="#757575" stroke-miterlimit="10"/>
<path d="M176.389 41.0283L175.09 43.292H177.693L176.389 41.0283Z" fill="white"/>
<path d="M181.617 47.6523H188.703" stroke="#757575" stroke-miterlimit="10"/>
<path d="M192.691 47.6523H199.777" stroke="#757575" stroke-miterlimit="10"/>
<path d="M203.766 47.6523H210.851" stroke="#757575" stroke-miterlimit="10"/>
<path d="M214.836 47.6523H221.922" stroke="#757575" stroke-miterlimit="10"/>
<path d="M176.389 48.5396L177.693 46.2759H175.09L176.389 48.5396Z" fill="#A4EFFF"/>
<path d="M181.617 52.894H188.703" stroke="#757575" stroke-miterlimit="10"/>
<path d="M192.691 52.894H199.777" stroke="#757575" stroke-miterlimit="10"/>
<path d="M203.766 52.894H210.851" stroke="#757575" stroke-miterlimit="10"/>
<path d="M214.836 52.894H221.922" stroke="#757575" stroke-miterlimit="10"/>
<path d="M176.389 51.5234L175.09 53.7871H177.693L176.389 51.5234Z" fill="white"/>
<path d="M181.617 58.1416H188.703" stroke="#757575" stroke-miterlimit="10"/>
<path d="M192.691 58.1416H199.777" stroke="#757575" stroke-miterlimit="10"/>
<path d="M203.766 58.1416H210.851" stroke="#757575" stroke-miterlimit="10"/>
<path d="M214.836 58.1416H221.922" stroke="#757575" stroke-miterlimit="10"/>
<path d="M176.389 59.0284L177.693 56.7705H175.09L176.389 59.0284Z" fill="#A4EFFF"/>
<path d="M174.371 8.10449H224.488" stroke="white" stroke-miterlimit="10"/>
<path d="M174.371 13.3516H224.488" stroke="white" stroke-miterlimit="10"/>
<path d="M174.371 18.599H224.488" stroke="white" stroke-miterlimit="10"/>
<path d="M174.371 23.8462H224.488" stroke="white" stroke-miterlimit="10"/>
<path d="M174.371 29.0938H224.488" stroke="white" stroke-miterlimit="10"/>
<path d="M174.371 34.3413H224.488" stroke="white" stroke-miterlimit="10"/>
<path d="M174.371 39.5825H224.488" stroke="white" stroke-miterlimit="10"/>
<path d="M174.371 44.8301H224.488" stroke="white" stroke-miterlimit="10"/>
<path d="M174.371 50.0776H224.488" stroke="white" stroke-miterlimit="10"/>
<path d="M174.371 55.3248H224.488" stroke="white" stroke-miterlimit="10"/>
<path d="M174.371 60.5723H224.488" stroke="white" stroke-miterlimit="10"/>
<path d="M174.371 65.8193H224.488" stroke="white" stroke-miterlimit="10"/>
<path d="M181.617 63.3887H188.703" stroke="#757575" stroke-miterlimit="10"/>
<path d="M192.691 63.3887H199.777" stroke="#757575" stroke-miterlimit="10"/>
<path d="M203.766 63.3887H210.851" stroke="#757575" stroke-miterlimit="10"/>
<path d="M214.836 63.3887H221.922" stroke="#757575" stroke-miterlimit="10"/>
<path d="M176.389 62.0181L175.09 64.276H177.693L176.389 62.0181Z" fill="white"/>
<path d="M181.617 68.6362H188.703" stroke="#757575" stroke-miterlimit="10"/>
<path d="M192.691 68.6362H199.777" stroke="#757575" stroke-miterlimit="10"/>
<path d="M203.766 68.6362H210.851" stroke="#757575" stroke-miterlimit="10"/>
<path d="M214.836 68.6362H221.922" stroke="#757575" stroke-miterlimit="10"/>
<path d="M176.389 69.5234L177.693 67.2598H175.09L176.389 69.5234Z" fill="#A4EFFF"/>
<path d="M163.347 91.1115C163.347 90.2187 163.755 89.7349 164.617 89.7349C165.479 89.7349 165.852 90.2187 165.852 91.0654V91.2037H165.065V91.0136C165.065 90.6334 164.904 90.4894 164.64 90.4894C164.375 90.4894 164.18 90.6334 164.18 91.1403V92.108C164.244 91.9611 164.352 91.8376 164.489 91.7542C164.626 91.6708 164.784 91.6314 164.944 91.6414C165.559 91.6414 165.869 92.0734 165.869 92.851V93.8187C165.881 93.9919 165.857 94.1657 165.799 94.3292C165.741 94.4928 165.65 94.6426 165.532 94.7694C165.413 94.8962 165.27 94.9974 165.111 95.0665C164.953 95.1356 164.781 95.1713 164.608 95.1713C164.435 95.1713 164.263 95.1356 164.105 95.0665C163.946 94.9974 163.803 94.8962 163.684 94.7694C163.566 94.6426 163.475 94.4928 163.417 94.3292C163.359 94.1657 163.335 93.9919 163.347 93.8187V91.1115ZM164.18 92.9201V93.8705C164.18 94.2507 164.341 94.3889 164.605 94.3889C164.869 94.3889 165.036 94.2507 165.036 93.8705V92.9201C165.036 92.54 164.869 92.396 164.605 92.396C164.341 92.396 164.18 92.54 164.18 92.9201V92.9201Z" fill="#263238"/>
<path d="M166.323 91.0655C166.312 90.8923 166.335 90.7185 166.394 90.555C166.452 90.3914 166.543 90.2416 166.661 90.1148C166.779 89.9879 166.922 89.8868 167.081 89.8177C167.24 89.7486 167.411 89.7129 167.585 89.7129C167.758 89.7129 167.929 89.7486 168.088 89.8177C168.247 89.8868 168.39 89.9879 168.508 90.1148C168.626 90.2416 168.717 90.3914 168.776 90.555C168.834 90.7185 168.858 90.8923 168.846 91.0655V93.8188C168.858 93.992 168.834 94.1657 168.776 94.3293C168.717 94.4928 168.626 94.6426 168.508 94.7695C168.39 94.8963 168.247 94.9974 168.088 95.0665C167.929 95.1357 167.758 95.1713 167.585 95.1713C167.411 95.1713 167.24 95.1357 167.081 95.0665C166.922 94.9974 166.779 94.8963 166.661 94.7695C166.543 94.6426 166.452 94.4928 166.394 94.3293C166.335 94.1657 166.312 93.992 166.323 93.8188V91.0655ZM167.151 93.8706C167.151 94.2508 167.317 94.3948 167.582 94.3948C167.846 94.3948 168.013 94.2508 168.013 93.8706V90.9906C168.013 90.6104 167.846 90.4664 167.582 90.4664C167.317 90.4664 167.151 90.6104 167.151 90.9906V93.8706Z" fill="#263238"/>
<path d="M169.339 90.605C169.329 90.4937 169.343 90.3817 169.379 90.2761C169.415 90.1705 169.473 90.0735 169.548 89.9913C169.623 89.9091 169.715 89.8434 169.817 89.7985C169.919 89.7536 170.029 89.7305 170.14 89.7305C170.252 89.7305 170.362 89.7536 170.464 89.7985C170.566 89.8434 170.658 89.9091 170.733 89.9913C170.808 90.0735 170.866 90.1705 170.902 90.2761C170.938 90.3817 170.952 90.4937 170.942 90.605V92.333C170.952 92.4442 170.938 92.5562 170.902 92.6618C170.866 92.7674 170.808 92.8644 170.733 92.9466C170.658 93.0288 170.566 93.0945 170.464 93.1394C170.362 93.1843 170.252 93.2074 170.14 93.2074C170.029 93.2074 169.919 93.1843 169.817 93.1394C169.715 93.0945 169.623 93.0288 169.548 92.9466C169.473 92.8644 169.415 92.7674 169.379 92.6618C169.343 92.5562 169.329 92.4442 169.339 92.333V90.605ZM169.867 92.3848C169.867 92.6152 169.965 92.7131 170.138 92.7131C170.31 92.7131 170.413 92.6152 170.413 92.3848V90.5646C170.413 90.3285 170.304 90.2306 170.138 90.2306C169.971 90.2306 169.867 90.3285 169.867 90.5646V92.3848ZM172.224 89.7928H172.706L170.626 95.092H170.132L172.224 89.7928ZM171.959 92.5403C171.95 92.4291 171.964 92.3171 172 92.2115C172.036 92.1058 172.093 92.0088 172.169 91.9266C172.244 91.8444 172.335 91.7788 172.437 91.7339C172.539 91.689 172.65 91.6658 172.761 91.6658C172.872 91.6658 172.982 91.689 173.084 91.7339C173.186 91.7788 173.278 91.8444 173.353 91.9266C173.429 92.0088 173.486 92.1058 173.522 92.2115C173.558 92.3171 173.572 92.4291 173.563 92.5403V94.2683C173.572 94.3795 173.558 94.4915 173.522 94.5972C173.486 94.7028 173.429 94.7998 173.353 94.882C173.278 94.9642 173.186 95.0298 173.084 95.0747C172.982 95.1196 172.872 95.1428 172.761 95.1428C172.65 95.1428 172.539 95.1196 172.437 95.0747C172.335 95.0298 172.244 94.9642 172.169 94.882C172.093 94.7998 172.036 94.7028 172 94.5972C171.964 94.4915 171.95 94.3795 171.959 94.2683V92.5403ZM172.488 94.3201C172.488 94.5563 172.586 94.6542 172.758 94.6542C172.931 94.6542 173.034 94.5563 173.034 94.3201V92.5C173.034 92.2696 172.925 92.1717 172.758 92.1717C172.591 92.1717 172.488 92.2696 172.488 92.5V94.3201Z" fill="#263238"/>
<path d="M165.004 99.4176C165.004 98.9396 164.837 98.8416 164.573 98.8416C164.308 98.8416 164.142 98.9799 164.142 99.36V99.6999H163.355V99.3658C163.327 99.1922 163.339 99.0145 163.39 98.8463C163.441 98.6781 163.53 98.5239 163.65 98.3955C163.769 98.267 163.917 98.1678 164.081 98.1053C164.245 98.0429 164.421 98.0189 164.596 98.0352C165.412 98.0352 165.831 98.5191 165.831 99.3658V99.504C165.865 99.7233 165.828 99.9477 165.724 100.144C165.62 100.34 165.457 100.497 165.257 100.593C165.456 100.696 165.618 100.858 165.721 101.057C165.823 101.256 165.862 101.482 165.831 101.704V102.125C165.831 102.972 165.412 103.455 164.596 103.455C164.421 103.472 164.245 103.448 164.081 103.385C163.917 103.323 163.769 103.224 163.65 103.095C163.53 102.967 163.441 102.813 163.39 102.644C163.339 102.476 163.327 102.298 163.355 102.125V101.681H164.142V102.177C164.142 102.551 164.308 102.695 164.573 102.695C164.837 102.695 165.004 102.568 165.004 102.119V101.699C165.004 101.209 164.837 101.025 164.429 101.025H164.153V100.27H164.475C164.785 100.27 164.975 100.132 164.975 99.6941L165.004 99.4176Z" fill="#263238"/>
<path d="M166.323 99.3658C166.312 99.1926 166.335 99.0188 166.394 98.8552C166.452 98.6917 166.543 98.5419 166.661 98.4151C166.779 98.2882 166.922 98.1871 167.081 98.118C167.24 98.0489 167.411 98.0132 167.585 98.0132C167.758 98.0132 167.929 98.0489 168.088 98.118C168.247 98.1871 168.39 98.2882 168.508 98.4151C168.626 98.5419 168.717 98.6917 168.776 98.8552C168.834 99.0188 168.858 99.1926 168.846 99.3658V102.125C168.858 102.298 168.834 102.472 168.776 102.635C168.717 102.799 168.626 102.949 168.508 103.076C168.39 103.202 168.247 103.303 168.088 103.373C167.929 103.442 167.758 103.477 167.585 103.477C167.411 103.477 167.24 103.442 167.081 103.373C166.922 103.303 166.779 103.202 166.661 103.076C166.543 102.949 166.452 102.799 166.394 102.635C166.335 102.472 166.312 102.298 166.323 102.125V99.3658ZM167.151 102.177C167.151 102.551 167.317 102.695 167.582 102.695C167.846 102.695 168.013 102.551 168.013 102.177V99.2966C168.013 98.9165 167.846 98.7783 167.582 98.7783C167.317 98.7783 167.151 98.9165 167.151 99.2966V102.177Z" fill="#263238"/>
<path d="M169.339 98.9223C169.329 98.8111 169.343 98.6991 169.379 98.5935C169.415 98.4878 169.473 98.3908 169.548 98.3086C169.623 98.2264 169.715 98.1608 169.817 98.1159C169.919 98.071 170.029 98.0479 170.14 98.0479C170.252 98.0479 170.362 98.071 170.464 98.1159C170.566 98.1608 170.658 98.2264 170.733 98.3086C170.808 98.3908 170.866 98.4878 170.902 98.5935C170.938 98.6991 170.952 98.8111 170.942 98.9223V100.65C170.952 100.762 170.938 100.874 170.902 100.979C170.866 101.085 170.808 101.182 170.733 101.264C170.658 101.346 170.566 101.412 170.464 101.457C170.362 101.502 170.252 101.525 170.14 101.525C170.029 101.525 169.919 101.502 169.817 101.457C169.715 101.412 169.623 101.346 169.548 101.264C169.473 101.182 169.415 101.085 169.379 100.979C169.343 100.874 169.329 100.762 169.339 100.65V98.9223ZM169.867 100.702C169.867 100.938 169.965 101.036 170.138 101.036C170.31 101.036 170.413 100.938 170.413 100.702V98.8878C170.413 98.6516 170.304 98.5537 170.138 98.5537C169.971 98.5537 169.867 98.6516 169.867 98.8878V100.702ZM172.224 98.1159H172.706L170.632 103.398H170.138L172.224 98.1159ZM171.959 100.858C171.95 100.746 171.964 100.634 172 100.529C172.036 100.423 172.093 100.326 172.169 100.244C172.244 100.162 172.335 100.096 172.437 100.051C172.539 100.006 172.65 99.9832 172.761 99.9832C172.872 99.9832 172.982 100.006 173.084 100.051C173.186 100.096 173.278 100.162 173.353 100.244C173.429 100.326 173.486 100.423 173.522 100.529C173.558 100.634 173.572 100.746 173.563 100.858V102.586C173.572 102.697 173.558 102.809 173.522 102.915C173.486 103.02 173.429 103.117 173.353 103.199C173.278 103.282 173.186 103.347 173.084 103.392C172.982 103.437 172.872 103.46 172.761 103.46C172.65 103.46 172.539 103.437 172.437 103.392C172.335 103.347 172.244 103.282 172.169 103.199C172.093 103.117 172.036 103.02 172 102.915C171.964 102.809 171.95 102.697 171.959 102.586V100.858ZM172.488 102.638C172.488 102.874 172.586 102.972 172.758 102.972C172.931 102.972 173.034 102.874 173.034 102.638V100.823C173.034 100.587 172.925 100.489 172.758 100.489C172.591 100.489 172.488 100.587 172.488 100.823V102.638Z" fill="#263238"/>
<path d="M164.62 107.13C164.355 107.13 164.189 107.274 164.189 107.655V108.231H163.401V107.718C163.373 107.544 163.386 107.367 163.437 107.198C163.488 107.03 163.577 106.876 163.697 106.748C163.816 106.619 163.964 106.52 164.128 106.457C164.292 106.395 164.468 106.371 164.643 106.387C165.453 106.387 165.878 106.871 165.878 107.718C165.878 109.383 164.223 110.022 164.223 110.874C164.218 110.911 164.218 110.948 164.223 110.984H165.809V111.744H163.407V111.093C163.407 109.532 165.056 109.273 165.056 107.747C165.051 107.257 164.884 107.13 164.62 107.13Z" fill="#263238"/>
<path d="M166.323 107.706C166.312 107.533 166.335 107.359 166.394 107.196C166.452 107.032 166.543 106.882 166.661 106.755C166.779 106.629 166.922 106.527 167.081 106.458C167.24 106.389 167.411 106.354 167.585 106.354C167.758 106.354 167.929 106.389 168.088 106.458C168.247 106.527 168.39 106.629 168.508 106.755C168.626 106.882 168.717 107.032 168.776 107.196C168.834 107.359 168.858 107.533 168.846 107.706V110.459C168.858 110.633 168.834 110.806 168.776 110.97C168.717 111.133 168.626 111.283 168.508 111.41C168.39 111.537 168.247 111.638 168.088 111.707C167.929 111.776 167.758 111.812 167.585 111.812C167.411 111.812 167.24 111.776 167.081 111.707C166.922 111.638 166.779 111.537 166.661 111.41C166.543 111.283 166.452 111.133 166.394 110.97C166.335 110.806 166.312 110.633 166.323 110.459V107.706ZM167.151 110.511C167.151 110.891 167.317 111.035 167.582 111.035C167.846 111.035 168.013 110.891 168.013 110.511V107.631C168.013 107.251 167.846 107.107 167.582 107.107C167.317 107.107 167.151 107.251 167.151 107.631V110.511Z" fill="#263238"/>
<path d="M169.339 107.246C169.329 107.134 169.343 107.022 169.379 106.917C169.415 106.811 169.473 106.714 169.548 106.632C169.623 106.55 169.715 106.484 169.817 106.439C169.919 106.394 170.029 106.371 170.14 106.371C170.252 106.371 170.362 106.394 170.464 106.439C170.566 106.484 170.658 106.55 170.733 106.632C170.808 106.714 170.866 106.811 170.902 106.917C170.938 107.022 170.952 107.134 170.942 107.246V108.974C170.952 109.085 170.938 109.197 170.902 109.302C170.866 109.408 170.808 109.505 170.733 109.587C170.658 109.669 170.566 109.735 170.464 109.78C170.362 109.825 170.252 109.848 170.14 109.848C170.029 109.848 169.919 109.825 169.817 109.78C169.715 109.735 169.623 109.669 169.548 109.587C169.473 109.505 169.415 109.408 169.379 109.302C169.343 109.197 169.329 109.085 169.339 108.974V107.246ZM169.867 109.02C169.867 109.256 169.965 109.354 170.138 109.354C170.31 109.354 170.413 109.256 170.413 109.02V107.205C170.413 106.969 170.304 106.871 170.138 106.871C169.971 106.871 169.867 106.969 169.867 107.205V109.02ZM172.224 106.433H172.706L170.626 111.733H170.132L172.224 106.433ZM171.959 109.158C171.95 109.047 171.964 108.935 172 108.829C172.036 108.723 172.093 108.626 172.169 108.544C172.244 108.462 172.335 108.396 172.437 108.351C172.539 108.307 172.65 108.283 172.761 108.283C172.872 108.283 172.982 108.307 173.084 108.351C173.186 108.396 173.278 108.462 173.353 108.544C173.429 108.626 173.486 108.723 173.522 108.829C173.558 108.935 173.572 109.047 173.563 109.158V110.886C173.572 110.997 173.558 111.109 173.522 111.215C173.486 111.32 173.429 111.417 173.353 111.5C173.278 111.582 173.186 111.647 173.084 111.692C172.982 111.737 172.872 111.76 172.761 111.76C172.65 111.76 172.539 111.737 172.437 111.692C172.335 111.647 172.244 111.582 172.169 111.5C172.093 111.417 172.036 111.32 172 111.215C171.964 111.109 171.95 110.997 171.959 110.886V109.158ZM172.488 110.938C172.488 111.174 172.586 111.272 172.758 111.272C172.931 111.272 173.034 111.174 173.034 110.938V109.158C173.034 108.928 172.925 108.83 172.758 108.83C172.591 108.83 172.488 108.928 172.488 109.158V110.938Z" fill="#263238"/>
<path d="M128.091 112.562C126.607 111.61 125.333 110.365 124.346 108.902C123.359 107.439 122.681 105.79 122.352 104.055C122.023 102.32 122.052 100.536 122.435 98.8129C122.819 97.0894 123.549 95.4626 124.582 94.032C125.615 92.6014 126.928 91.3973 128.441 90.4933C129.955 89.5893 131.636 89.0045 133.383 88.7748C135.13 88.5451 136.905 88.6752 138.599 89.1573C140.294 89.6393 141.873 90.4631 143.239 91.5782" stroke="#263238" stroke-width="6" stroke-linejoin="round"/>
<path d="M145.397 109.515C143.423 112.109 140.546 113.863 137.339 114.428C134.133 114.992 130.832 114.326 128.094 112.562" stroke="#757575" stroke-width="6" stroke-linejoin="round"/>
<path d="M143.242 91.5781C145.857 93.7004 147.545 96.7601 147.947 100.109C148.35 103.457 147.435 106.831 145.397 109.515" stroke="#A4EFFF" stroke-width="6" stroke-linejoin="round"/>
<path d="M157.562 94.9768C158.775 94.9768 159.758 93.9917 159.758 92.7765C159.758 91.5613 158.775 90.5762 157.562 90.5762C156.35 90.5762 155.367 91.5613 155.367 92.7765C155.367 93.9917 156.35 94.9768 157.562 94.9768Z" fill="#263238"/>
<path d="M157.562 103.052C158.775 103.052 159.758 102.067 159.758 100.852C159.758 99.6365 158.775 98.6514 157.562 98.6514C156.35 98.6514 155.367 99.6365 155.367 100.852C155.367 102.067 156.35 103.052 157.562 103.052Z" fill="#C4F0D1"/>
<path d="M157.562 111.128C158.775 111.128 159.758 110.143 159.758 108.927C159.758 107.712 158.775 106.727 157.562 106.727C156.35 106.727 155.367 107.712 155.367 108.927C155.367 110.143 156.35 111.128 157.562 111.128Z" fill="#757575"/>
<path d="M174.677 78.7104H123.859V80.4557H174.677V78.7104Z" fill="#CCCCCC"/>
<path d="M8.57422 84.4878H109.859" stroke="#CCCCCC" stroke-linecap="round" stroke-linejoin="round"/>
<path d="M8.57422 89.2397H109.859" stroke="#CCCCCC" stroke-linecap="round" stroke-linejoin="round"/>
<path d="M8.57422 93.9917H109.859" stroke="#CCCCCC" stroke-linecap="round" stroke-linejoin="round"/>
<path d="M8.57422 98.7437H109.859" stroke="#CCCCCC" stroke-linecap="round" stroke-linejoin="round"/>
<path d="M8.57422 103.496H109.859" stroke="#CCCCCC" stroke-linecap="round" stroke-linejoin="round"/>
<path d="M8.57422 108.248H109.859" stroke="#CCCCCC" stroke-linecap="round" stroke-linejoin="round"/>
<path d="M8.57422 113H109.859" stroke="#CCCCCC" stroke-linecap="round" stroke-linejoin="round"/>
<path d="M8.57422 117.751H109.859" stroke="#CCCCCC" stroke-linecap="round" stroke-linejoin="round"/>
<path d="M1.39844 84.4878H6.27736" stroke="#CCCCCC" stroke-linecap="round" stroke-linejoin="round"/>
<path d="M1.39844 89.2397H6.27736" stroke="#CCCCCC" stroke-linecap="round" stroke-linejoin="round"/>
<path d="M1.39844 93.9917H6.27736" stroke="#CCCCCC" stroke-linecap="round" stroke-linejoin="round"/>
<path d="M1.39844 98.7437H6.27736" stroke="#CCCCCC" stroke-linecap="round" stroke-linejoin="round"/>
<path d="M1.39844 103.496H6.27736" stroke="#CCCCCC" stroke-linecap="round" stroke-linejoin="round"/>
<path d="M1.39844 108.248H6.27736" stroke="#CCCCCC" stroke-linecap="round" stroke-linejoin="round"/>
<path d="M1.39844 113H6.27736" stroke="#CCCCCC" stroke-linecap="round" stroke-linejoin="round"/>
<path d="M1.39844 117.751H6.27736" stroke="#CCCCCC" stroke-linecap="round" stroke-linejoin="round"/>
<path d="M10.375 95.4258L11.5818 94.3487L12.2542 95.9673L13.8632 94.8901L14.4034 96.238L15.8803 92.3327L16.5527 93.5423L16.9549 96.0997L18.4318 96.6412L19.1042 98.9279L20.0466 99.8725L20.8512 97.9833L22.7303 101.889L23.5349 101.618L25.2818 111.583L25.9542 110.102L27.161 113.063L29.0402 101.485L30.655 104.175L31.9997 101.618L32.9364 103.772L34.1432 102.695L35.0857 104.987L37.2349 102.695L38.1774 105.661L40.3209 106.738L41.3955 104.175L42.4759 104.043L43.4126 102.43H44.355L45.0217 106.329L46.102 102.292L47.441 102.027L48.7857 101.082L49.9925 101.889L50.935 105.523L51.8717 104.849L53.4865 107.545L54.4232 105.926L55.2335 107.545L55.9058 107.003L56.9805 107.274L58.9918 104.584L60.3365 106.065L61.2732 103.369L62.3478 104.175L63.4225 97.7183L64.2328 98.6572L65.974 92.6034H66.6464L67.0486 89.637L68.3934 89.5045L68.9278 86.5439L70.2725 90.1784L71.077 88.5656L72.0195 94.6194L73.2263 95.0226L73.8987 93.0066L76.1858 91.388L77.3926 94.3487L77.5248 99.6018L79.1396 100.408L80.6165 97.7183L81.8233 98.1215L83.3002 97.9833L84.2427 99.8725L85.3173 97.3151H86.1218L88.6733 103.104L89.3457 101.082L90.4203 101.215L91.7593 104.446L93.2362 102.159L94.3108 91.2556L95.7877 93.0066L96.3279 84.3896L97.6726 86.0024L98.345 90.5816L99.954 89.9077L101.161 93.6805L102.103 94.0837L102.638 101.082L103.448 99.4693L103.85 97.58L106 98.1215L106.936 97.58L108.683 100.005" stroke="#A4EFFF" stroke-width="2" stroke-miterlimit="10"/>
<path d="M14.0055 76.0898H1.9375V82.2185H14.0055V76.0898Z" fill="white" stroke="#263238" stroke-linecap="round" stroke-linejoin="round"/>
<path d="M14.0047 76.0898V77.5471C13.6191 77.5471 13.2493 77.3936 12.9766 77.1203C12.704 76.847 12.5508 76.4763 12.5508 76.0898H14.0047Z" fill="white" stroke="#263238" stroke-linecap="round" stroke-linejoin="round"/>
<path d="M12.5625 82.2181C12.5625 82.1547 12.5625 82.0913 12.5625 82.0222C12.5625 81.6357 12.7157 81.2651 12.9883 80.9918C13.261 80.7185 13.6308 80.5649 14.0164 80.5649" fill="white"/>
<path d="M12.5625 82.2181C12.5625 82.1547 12.5625 82.0913 12.5625 82.0222C12.5625 81.6357 12.7157 81.2651 12.9883 80.9918C13.261 80.7185 13.6308 80.5649 14.0164 80.5649" stroke="#263238" stroke-linecap="round" stroke-linejoin="round"/>
<path d="M1.9375 77.5471H1.97773C2.36334 77.5471 2.73314 77.3936 3.00581 77.1203C3.27847 76.847 3.43166 76.4763 3.43166 76.0898" fill="white"/>
<path d="M1.9375 77.5471H1.97773C2.36334 77.5471 2.73314 77.3936 3.00581 77.1203C3.27847 76.847 3.43166 76.4763 3.43166 76.0898" stroke="#263238" stroke-linecap="round" stroke-linejoin="round"/>
<path d="M3.42796 82.0222C3.42796 82.0913 3.42796 82.1547 3.42796 82.2181H1.94531V80.5649H1.98553C2.36914 80.568 2.73601 80.7229 3.00619 80.9958C3.27638 81.2688 3.42798 81.6377 3.42796 82.0222V82.0222Z" fill="white" stroke="#263238" stroke-linecap="round" stroke-linejoin="round"/>
<path d="M9.85574 79.1539C9.85574 78.7803 9.7452 78.415 9.53808 78.1043C9.33096 77.7936 9.03658 77.5515 8.69216 77.4085C8.34774 77.2655 7.96875 77.2281 7.60311 77.301C7.23748 77.3739 6.90162 77.5538 6.63801 77.818C6.3744 78.0822 6.19489 78.4189 6.12216 78.7854C6.04943 79.1518 6.08675 79.5317 6.22942 79.8769C6.37208 80.2222 6.61367 80.5172 6.92364 80.7248C7.23361 80.9324 7.59804 81.0432 7.97084 81.0432C8.47075 81.0432 8.95019 80.8442 9.30367 80.4899C9.65716 80.1356 9.85574 79.655 9.85574 79.1539V79.1539Z" fill="white" stroke="#263238" stroke-linecap="round" stroke-linejoin="round"/>
<path d="M7.81368 77.9789V77.8003H8.124V77.9789C8.38835 78.0307 8.52627 78.2381 8.52627 78.5548V78.6297H8.16998V78.5261C8.16998 78.359 8.10102 78.2899 7.98033 78.2899C7.85965 78.2899 7.79644 78.359 7.79644 78.5261C7.79644 79.0214 8.52627 79.0445 8.52627 79.7299C8.54105 79.8586 8.50829 79.9883 8.43417 80.0944C8.36005 80.2005 8.24971 80.2758 8.124 80.3059V80.4787H7.81368V80.3577C7.68691 80.3288 7.57522 80.2541 7.49995 80.1478C7.42468 80.0416 7.39112 79.9112 7.40567 79.7817V79.6205H7.77345V79.7817C7.77345 79.9488 7.84816 80.0121 7.96884 80.0121C8.08952 80.0121 8.16422 79.9488 8.16422 79.7817C8.16422 79.2864 7.42865 79.2633 7.42865 78.5779C7.40568 78.4478 7.4326 78.3138 7.50399 78.2027C7.57538 78.0916 7.68599 78.0117 7.81368 77.9789Z" fill="#263238"/>
<path d="M68.517 78.7104H17.6992V80.4557H68.517V78.7104Z" fill="#CCCCCC"/>
<path d="M224.702 84.0386H184.906V87.8402H224.702V84.0386Z" fill="#CCCCCC"/>
<path d="M197.601 84.0386H184.906V87.8402H197.601V84.0386Z" fill="#A4EFFF"/>
<path d="M224.702 93.8647H184.906V97.6663H224.702V93.8647Z" fill="#CCCCCC"/>
<path d="M211.519 93.8647H184.906V97.6663H211.519V93.8647Z" fill="#A4EFFF"/>
<path d="M224.702 103.691H184.906V107.493H224.702V103.691Z" fill="#CCCCCC"/>
<path d="M190.521 103.691H184.906V107.493H190.521V103.691Z" fill="#A4EFFF"/>
<path d="M224.702 113.512H184.906V117.314H224.702V113.512Z" fill="#CCCCCC"/>
<path d="M219.817 113.512H184.906V117.314H219.817V113.512Z" fill="#A4EFFF"/>
<path d="M224.441 78.7104H184.766V80.4557H224.441V78.7104Z" fill="#CCCCCC"/>
</svg>
