<svg width="316" height="100" viewBox="0 0 316 100" fill="none" xmlns="http://www.w3.org/2000/svg">
<path d="M84.3282 79.3135C95.6996 67.9156 95.6996 49.4362 84.3282 38.0383C72.9568 26.6405 54.5201 26.6405 43.1486 38.0383C31.7772 49.4361 31.7772 67.9157 43.1486 79.3135C54.5201 90.7113 72.9568 90.7113 84.3282 79.3135Z" fill="white" stroke="#263238" stroke-linecap="round" stroke-linejoin="round"/>
<path d="M78.1956 34.3448H79.4253" stroke="#263238" stroke-linecap="round" stroke-linejoin="round"/>
<path d="M80.9612 36.4933H82.6449" stroke="#263238" stroke-linecap="round" stroke-linejoin="round"/>
<path d="M84.0276 39.5748H85.4068" stroke="#263238" stroke-linecap="round" stroke-linejoin="round"/>
<path d="M87.0979 43.7277H88.4771" stroke="#263238" stroke-linecap="round" stroke-linejoin="round"/>
<path d="M89.8635 49.4186H91.3979" stroke="#263238" stroke-linecap="round" stroke-linejoin="round"/>
<path d="M91.1682 58.6749H92.8577" stroke="#263238" stroke-linecap="round" stroke-linejoin="round"/>
<path d="M78.1956 82.6422H79.4253" stroke="#263238" stroke-linecap="round" stroke-linejoin="round"/>
<path d="M80.9612 80.4879H82.6449" stroke="#263238" stroke-linecap="round" stroke-linejoin="round"/>
<path d="M84.0276 77.4122H85.4068" stroke="#263238" stroke-linecap="round" stroke-linejoin="round"/>
<path d="M87.0979 73.2594H88.4771" stroke="#263238" stroke-linecap="round" stroke-linejoin="round"/>
<path d="M89.8635 67.5685H91.3979" stroke="#263238" stroke-linecap="round" stroke-linejoin="round"/>
<path d="M90.4174 65.2763C94.0568 49.5755 84.3087 33.8904 68.6443 30.2425C52.9799 26.5946 37.3311 36.3653 33.6916 52.0661C30.0522 67.7668 39.8003 83.452 55.4647 87.0999C71.1291 90.7478 86.7779 80.977 90.4174 65.2763Z" fill="white" stroke="#263238" stroke-linecap="round" stroke-linejoin="round"/>
<path d="M86.3104 64.3213C89.425 50.8955 81.0913 37.481 67.6965 34.3592C54.3018 31.2374 40.9183 39.5904 37.8038 53.0162C34.6892 66.442 43.0229 79.8565 56.4176 82.9783C69.8123 86.1002 83.1958 77.7471 86.3104 64.3213Z" fill="white" stroke="#263238" stroke-linecap="round" stroke-linejoin="round"/>
<path d="M59.9805 42.1613V39.7594H64.1238V42.1613C67.7213 42.9044 69.5659 45.6749 69.5659 50.064V51.0778H64.7732V49.7415C64.7732 47.4375 63.848 46.5504 62.2389 46.5504C60.6299 46.5504 59.6989 47.4317 59.6989 49.7415C59.6989 56.3943 69.6119 56.7168 69.6119 65.9559C69.6119 70.345 67.7213 73.1617 64.1238 73.9047V76.2605H59.9805V73.9047C56.3371 73.1617 54.4924 70.345 54.4924 65.9559V63.7383H59.2852V66.3015C59.2852 68.6055 60.3023 69.4464 61.9114 69.4464C63.5204 69.4464 64.5434 68.6112 64.5434 66.3015C64.5434 59.6487 54.6304 59.3261 54.6304 50.0871C54.6304 45.721 56.4291 42.9504 59.9805 42.1613Z" fill="white" stroke="#263238" stroke-linecap="round" stroke-linejoin="round"/>
<path d="M58.7482 42.1613V39.7594H62.8973V42.1613C66.4947 42.9044 68.3336 45.6749 68.3336 50.064V51.0778H63.5409V49.7415C63.5409 47.4375 62.6214 46.5504 61.0066 46.5504C59.3918 46.5504 58.4723 47.4317 58.4723 49.7415C58.4723 56.3943 68.3796 56.7168 68.3796 65.9559C68.3796 70.345 66.4947 73.1617 62.8973 73.9047V76.2605H58.7482V73.9047C55.1048 73.1617 53.2659 70.345 53.2659 65.9559V63.7383H58.0758V66.3015C58.0758 68.6055 59.0872 69.4464 60.702 69.4464C62.3169 69.4464 63.3283 68.6112 63.3283 66.3015C63.3283 59.6487 53.421 59.3261 53.421 50.0871C53.4038 45.721 55.2025 42.9504 58.7482 42.1613Z" fill="white" stroke="#263238" stroke-linecap="round" stroke-linejoin="round"/>
<path d="M3.5859 9.91663L52.7659 9.91663V5.53329L3.5859 5.53329V9.91663Z" fill="white" stroke="#263238" stroke-linecap="round" stroke-linejoin="round"/>
<path d="M50.1643 5.63684V9.73222" stroke="#263238" stroke-linecap="round" stroke-linejoin="round"/>
<path d="M51.5901 5.63684V9.73222" stroke="#263238" stroke-linecap="round" stroke-linejoin="round"/>
<path d="M47.3245 5.63684V9.73222" stroke="#263238" stroke-linecap="round" stroke-linejoin="round"/>
<path d="M44.4807 5.63684V9.73222" stroke="#263238" stroke-linecap="round" stroke-linejoin="round"/>
<path d="M41.6409 5.63684V9.73222" stroke="#263238" stroke-linecap="round" stroke-linejoin="round"/>
<path d="M38.7971 5.63684V9.73222" stroke="#263238" stroke-linecap="round" stroke-linejoin="round"/>
<path d="M34.5393 5.63684V9.73222" stroke="#263238" stroke-linecap="round" stroke-linejoin="round"/>
<path d="M27.4299 5.63684V9.73222" stroke="#263238" stroke-linecap="round" stroke-linejoin="round"/>
<path d="M3.5859 14.5245L52.7659 14.5245V10.1412L3.5859 10.1412V14.5245Z" fill="white" stroke="#263238" stroke-linecap="round" stroke-linejoin="round"/>
<path d="M50.1643 10.2448V14.3401" stroke="#263238" stroke-linecap="round" stroke-linejoin="round"/>
<path d="M51.5901 10.2448V14.3401" stroke="#263238" stroke-linecap="round" stroke-linejoin="round"/>
<path d="M47.3245 10.2448V14.3401" stroke="#263238" stroke-linecap="round" stroke-linejoin="round"/>
<path d="M44.4807 10.2448V14.3401" stroke="#263238" stroke-linecap="round" stroke-linejoin="round"/>
<path d="M41.6409 10.2448V14.3401" stroke="#263238" stroke-linecap="round" stroke-linejoin="round"/>
<path d="M38.7971 10.2448V14.3401" stroke="#263238" stroke-linecap="round" stroke-linejoin="round"/>
<path d="M34.5393 10.2448V14.3401" stroke="#263238" stroke-linecap="round" stroke-linejoin="round"/>
<path d="M27.4299 10.2448V14.3401" stroke="#263238" stroke-linecap="round" stroke-linejoin="round"/>
<path d="M3.5859 5.38342L52.7659 5.38342V1.00005L3.5859 1.00005V5.38342Z" fill="white" stroke="#263238" stroke-linecap="round" stroke-linejoin="round"/>
<path d="M50.1643 1.09827V5.18788" stroke="#263238" stroke-linecap="round" stroke-linejoin="round"/>
<path d="M51.5901 1.09827V5.18788" stroke="#263238" stroke-linecap="round" stroke-linejoin="round"/>
<path d="M47.3245 1.09827V5.18788" stroke="#263238" stroke-linecap="round" stroke-linejoin="round"/>
<path d="M44.4807 1.09827V5.18788" stroke="#263238" stroke-linecap="round" stroke-linejoin="round"/>
<path d="M41.6409 1.09827V5.18788" stroke="#263238" stroke-linecap="round" stroke-linejoin="round"/>
<path d="M38.7971 1.09827V5.18788" stroke="#263238" stroke-linecap="round" stroke-linejoin="round"/>
<path d="M34.5393 1.09827V5.18788" stroke="#263238" stroke-linecap="round" stroke-linejoin="round"/>
<path d="M27.4299 1.09827V5.18788" stroke="#263238" stroke-linecap="round" stroke-linejoin="round"/>
<path d="M3.5859 19.1324L52.7659 19.1324V14.7491L3.5859 14.7491V19.1324Z" fill="white" stroke="#263238" stroke-linecap="round" stroke-linejoin="round"/>
<path d="M50.1643 14.8531V18.9485" stroke="#263238" stroke-linecap="round" stroke-linejoin="round"/>
<path d="M51.5901 14.8531V18.9485" stroke="#263238" stroke-linecap="round" stroke-linejoin="round"/>
<path d="M47.3245 14.8531V18.9485" stroke="#263238" stroke-linecap="round" stroke-linejoin="round"/>
<path d="M44.4807 14.8531V18.9485" stroke="#263238" stroke-linecap="round" stroke-linejoin="round"/>
<path d="M41.6409 14.8531V18.9485" stroke="#263238" stroke-linecap="round" stroke-linejoin="round"/>
<path d="M38.7971 14.8531V18.9485" stroke="#263238" stroke-linecap="round" stroke-linejoin="round"/>
<path d="M34.5393 14.8531V18.9485" stroke="#263238" stroke-linecap="round" stroke-linejoin="round"/>
<path d="M27.4299 14.8531V18.9485" stroke="#263238" stroke-linecap="round" stroke-linejoin="round"/>
<path d="M4.73823 23.7408L53.9182 23.7408V19.3575L4.73823 19.3575V23.7408Z" fill="white" stroke="#263238" stroke-linecap="round" stroke-linejoin="round"/>
<path d="M51.3127 19.4611V23.5564" stroke="#263238" stroke-linecap="round" stroke-linejoin="round"/>
<path d="M52.7385 19.4611V23.5564" stroke="#263238" stroke-linecap="round" stroke-linejoin="round"/>
<path d="M48.4729 19.4611V23.5564" stroke="#263238" stroke-linecap="round" stroke-linejoin="round"/>
<path d="M45.6292 19.4611V23.5564" stroke="#263238" stroke-linecap="round" stroke-linejoin="round"/>
<path d="M42.7893 19.4611V23.5564" stroke="#263238" stroke-linecap="round" stroke-linejoin="round"/>
<path d="M39.9456 19.4611V23.5564" stroke="#263238" stroke-linecap="round" stroke-linejoin="round"/>
<path d="M35.6877 19.4611V23.5564" stroke="#263238" stroke-linecap="round" stroke-linejoin="round"/>
<path d="M28.5784 19.4611V23.5564" stroke="#263238" stroke-linecap="round" stroke-linejoin="round"/>
<path d="M3.5859 28.3488L52.7659 28.3488V23.9654L3.5859 23.9654V28.3488Z" fill="white" stroke="#263238" stroke-linecap="round" stroke-linejoin="round"/>
<path d="M50.1643 24.069V28.1643" stroke="#263238" stroke-linecap="round" stroke-linejoin="round"/>
<path d="M51.5901 24.069V28.1643" stroke="#263238" stroke-linecap="round" stroke-linejoin="round"/>
<path d="M47.3245 24.069V28.1643" stroke="#263238" stroke-linecap="round" stroke-linejoin="round"/>
<path d="M44.4807 24.069V28.1643" stroke="#263238" stroke-linecap="round" stroke-linejoin="round"/>
<path d="M41.6409 24.069V28.1643" stroke="#263238" stroke-linecap="round" stroke-linejoin="round"/>
<path d="M38.7971 24.069V28.1643" stroke="#263238" stroke-linecap="round" stroke-linejoin="round"/>
<path d="M34.5393 24.069V28.1643" stroke="#263238" stroke-linecap="round" stroke-linejoin="round"/>
<path d="M27.4299 24.069V28.1643" stroke="#263238" stroke-linecap="round" stroke-linejoin="round"/>
<path d="M5.88668 32.9567L55.0667 32.9567V28.5733L5.88668 28.5733V32.9567Z" fill="white" stroke="#263238" stroke-linecap="round" stroke-linejoin="round"/>
<path d="M52.4612 28.6769V32.7722" stroke="#263238" stroke-linecap="round" stroke-linejoin="round"/>
<path d="M53.887 28.6769V32.7722" stroke="#263238" stroke-linecap="round" stroke-linejoin="round"/>
<path d="M49.6252 28.6769V32.7722" stroke="#263238" stroke-linecap="round" stroke-linejoin="round"/>
<path d="M46.7776 28.6769V32.7722" stroke="#263238" stroke-linecap="round" stroke-linejoin="round"/>
<path d="M43.9417 28.6769V32.7722" stroke="#263238" stroke-linecap="round" stroke-linejoin="round"/>
<path d="M41.094 28.6769V32.7722" stroke="#263238" stroke-linecap="round" stroke-linejoin="round"/>
<path d="M36.8362 28.6769V32.7722" stroke="#263238" stroke-linecap="round" stroke-linejoin="round"/>
<path d="M29.7307 28.6769V32.7722" stroke="#263238" stroke-linecap="round" stroke-linejoin="round"/>
<path d="M6.74607 37.5646L55.926 37.5646V33.1812L6.74607 33.1812V37.5646Z" fill="white" stroke="#263238" stroke-linecap="round" stroke-linejoin="round"/>
<path d="M53.3245 33.2848V37.3802" stroke="#263238" stroke-linecap="round" stroke-linejoin="round"/>
<path d="M54.7502 33.2848V37.3802" stroke="#263238" stroke-linecap="round" stroke-linejoin="round"/>
<path d="M50.4846 33.2848V37.3802" stroke="#263238" stroke-linecap="round" stroke-linejoin="round"/>
<path d="M47.6409 33.2848V37.3802" stroke="#263238" stroke-linecap="round" stroke-linejoin="round"/>
<path d="M44.801 33.2848V37.3802" stroke="#263238" stroke-linecap="round" stroke-linejoin="round"/>
<path d="M41.9573 33.2848V37.3802" stroke="#263238" stroke-linecap="round" stroke-linejoin="round"/>
<path d="M37.6995 33.2848V37.3802" stroke="#263238" stroke-linecap="round" stroke-linejoin="round"/>
<path d="M30.5901 33.2848V37.3802" stroke="#263238" stroke-linecap="round" stroke-linejoin="round"/>
<path d="M4.44917 42.1725L53.6292 42.1725V37.7892L4.44917 37.7892V42.1725Z" fill="white" stroke="#263238" stroke-linecap="round" stroke-linejoin="round"/>
<path d="M51.0276 37.8932V41.9886" stroke="#263238" stroke-linecap="round" stroke-linejoin="round"/>
<path d="M52.4495 37.8932V41.9886" stroke="#263238" stroke-linecap="round" stroke-linejoin="round"/>
<path d="M48.1877 37.8932V41.9886" stroke="#263238" stroke-linecap="round" stroke-linejoin="round"/>
<path d="M45.344 37.8932V41.9886" stroke="#263238" stroke-linecap="round" stroke-linejoin="round"/>
<path d="M42.5042 37.8932V41.9886" stroke="#263238" stroke-linecap="round" stroke-linejoin="round"/>
<path d="M39.6604 37.8932V41.9886" stroke="#263238" stroke-linecap="round" stroke-linejoin="round"/>
<path d="M35.4026 37.8932V41.9886" stroke="#263238" stroke-linecap="round" stroke-linejoin="round"/>
<path d="M28.2932 37.8932V41.9886" stroke="#263238" stroke-linecap="round" stroke-linejoin="round"/>
<path d="M5.7187 46.7804L54.8987 46.7804V42.3971L5.7187 42.3971V46.7804Z" fill="white" stroke="#263238" stroke-linecap="round" stroke-linejoin="round"/>
<path d="M52.2971 42.5011V46.5965" stroke="#263238" stroke-linecap="round" stroke-linejoin="round"/>
<path d="M53.7229 42.5011V46.5965" stroke="#263238" stroke-linecap="round" stroke-linejoin="round"/>
<path d="M49.4573 42.5011V46.5965" stroke="#263238" stroke-linecap="round" stroke-linejoin="round"/>
<path d="M46.6135 42.5011V46.5965" stroke="#263238" stroke-linecap="round" stroke-linejoin="round"/>
<path d="M43.7737 42.5011V46.5965" stroke="#263238" stroke-linecap="round" stroke-linejoin="round"/>
<path d="M40.9299 42.5011V46.5965" stroke="#263238" stroke-linecap="round" stroke-linejoin="round"/>
<path d="M36.6721 42.5011V46.5965" stroke="#263238" stroke-linecap="round" stroke-linejoin="round"/>
<path d="M29.5627 42.5011V46.5965" stroke="#263238" stroke-linecap="round" stroke-linejoin="round"/>
<path d="M3.5859 51.3888L52.7659 51.3888V47.0055L3.5859 47.0055V51.3888Z" fill="white" stroke="#263238" stroke-linecap="round" stroke-linejoin="round"/>
<path d="M50.1643 47.109V51.2044" stroke="#263238" stroke-linecap="round" stroke-linejoin="round"/>
<path d="M51.5901 47.109V51.2044" stroke="#263238" stroke-linecap="round" stroke-linejoin="round"/>
<path d="M47.3245 47.109V51.2044" stroke="#263238" stroke-linecap="round" stroke-linejoin="round"/>
<path d="M44.4807 47.109V51.2044" stroke="#263238" stroke-linecap="round" stroke-linejoin="round"/>
<path d="M41.6409 47.109V51.2044" stroke="#263238" stroke-linecap="round" stroke-linejoin="round"/>
<path d="M38.7971 47.109V51.2044" stroke="#263238" stroke-linecap="round" stroke-linejoin="round"/>
<path d="M34.5393 47.109V51.2044" stroke="#263238" stroke-linecap="round" stroke-linejoin="round"/>
<path d="M27.4299 47.109V51.2044" stroke="#263238" stroke-linecap="round" stroke-linejoin="round"/>
<path d="M3.5859 55.9967L52.7659 55.9967V51.6134L3.5859 51.6134V55.9967Z" fill="white" stroke="#263238" stroke-linecap="round" stroke-linejoin="round"/>
<path d="M50.1643 51.7169V55.8123" stroke="#263238" stroke-linecap="round" stroke-linejoin="round"/>
<path d="M51.5901 51.7169V55.8123" stroke="#263238" stroke-linecap="round" stroke-linejoin="round"/>
<path d="M47.3245 51.7169V55.8123" stroke="#263238" stroke-linecap="round" stroke-linejoin="round"/>
<path d="M44.4807 51.7169V55.8123" stroke="#263238" stroke-linecap="round" stroke-linejoin="round"/>
<path d="M41.6409 51.7169V55.8123" stroke="#263238" stroke-linecap="round" stroke-linejoin="round"/>
<path d="M38.7971 51.7169V55.8123" stroke="#263238" stroke-linecap="round" stroke-linejoin="round"/>
<path d="M34.5393 51.7169V55.8123" stroke="#263238" stroke-linecap="round" stroke-linejoin="round"/>
<path d="M27.4299 51.7169V55.8123" stroke="#263238" stroke-linecap="round" stroke-linejoin="round"/>
<path d="M0.999958 60.6046L50.1799 60.6046V56.2213L0.999958 56.2213V60.6046Z" fill="white" stroke="#263238" stroke-linecap="round" stroke-linejoin="round"/>
<path d="M47.5784 56.3248V60.4202" stroke="#263238" stroke-linecap="round" stroke-linejoin="round"/>
<path d="M49.0042 56.3248V60.4202" stroke="#263238" stroke-linecap="round" stroke-linejoin="round"/>
<path d="M44.7385 56.3248V60.4202" stroke="#263238" stroke-linecap="round" stroke-linejoin="round"/>
<path d="M41.8948 56.3248V60.4202" stroke="#263238" stroke-linecap="round" stroke-linejoin="round"/>
<path d="M39.0549 56.3248V60.4202" stroke="#263238" stroke-linecap="round" stroke-linejoin="round"/>
<path d="M36.2112 56.3248V60.4202" stroke="#263238" stroke-linecap="round" stroke-linejoin="round"/>
<path d="M31.9534 56.3248V60.4202" stroke="#263238" stroke-linecap="round" stroke-linejoin="round"/>
<path d="M24.844 56.3248V60.4202" stroke="#263238" stroke-linecap="round" stroke-linejoin="round"/>
<path d="M2.15229 65.2125H51.3323V60.8292L2.15229 60.8292V65.2125Z" fill="white" stroke="#263238" stroke-linecap="round" stroke-linejoin="round"/>
<path d="M48.7268 60.9327V65.0281" stroke="#263238" stroke-linecap="round" stroke-linejoin="round"/>
<path d="M50.1526 60.9327V65.0281" stroke="#263238" stroke-linecap="round" stroke-linejoin="round"/>
<path d="M45.887 60.9327V65.0281" stroke="#263238" stroke-linecap="round" stroke-linejoin="round"/>
<path d="M43.0432 60.9327V65.0281" stroke="#263238" stroke-linecap="round" stroke-linejoin="round"/>
<path d="M40.2034 60.9327V65.0281" stroke="#263238" stroke-linecap="round" stroke-linejoin="round"/>
<path d="M37.3596 60.9327V65.0281" stroke="#263238" stroke-linecap="round" stroke-linejoin="round"/>
<path d="M33.1018 60.9327V65.0281" stroke="#263238" stroke-linecap="round" stroke-linejoin="round"/>
<path d="M25.9924 60.9327V65.0281" stroke="#263238" stroke-linecap="round" stroke-linejoin="round"/>
<path d="M2.43745 69.8204H51.6174V65.4371H2.43745V69.8204Z" fill="white" stroke="#263238" stroke-linecap="round" stroke-linejoin="round"/>
<path d="M49.0159 65.5411V69.6366" stroke="#263238" stroke-linecap="round" stroke-linejoin="round"/>
<path d="M50.4417 65.5411V69.6366" stroke="#263238" stroke-linecap="round" stroke-linejoin="round"/>
<path d="M46.176 65.5411V69.6366" stroke="#263238" stroke-linecap="round" stroke-linejoin="round"/>
<path d="M43.3323 65.5411V69.6366" stroke="#263238" stroke-linecap="round" stroke-linejoin="round"/>
<path d="M40.4924 65.5411V69.6366" stroke="#263238" stroke-linecap="round" stroke-linejoin="round"/>
<path d="M37.6487 65.5411V69.6366" stroke="#263238" stroke-linecap="round" stroke-linejoin="round"/>
<path d="M33.3909 65.5411V69.6366" stroke="#263238" stroke-linecap="round" stroke-linejoin="round"/>
<path d="M26.2815 65.5411V69.6366" stroke="#263238" stroke-linecap="round" stroke-linejoin="round"/>
<path d="M3.5859 74.4288H52.7659V70.0455H3.5859V74.4288Z" fill="white" stroke="#263238" stroke-linecap="round" stroke-linejoin="round"/>
<path d="M50.1643 70.149V74.2444" stroke="#263238" stroke-linecap="round" stroke-linejoin="round"/>
<path d="M51.5901 70.149V74.2444" stroke="#263238" stroke-linecap="round" stroke-linejoin="round"/>
<path d="M47.3245 70.149V74.2444" stroke="#263238" stroke-linecap="round" stroke-linejoin="round"/>
<path d="M44.4807 70.149V74.2444" stroke="#263238" stroke-linecap="round" stroke-linejoin="round"/>
<path d="M41.6409 70.149V74.2444" stroke="#263238" stroke-linecap="round" stroke-linejoin="round"/>
<path d="M38.7971 70.149V74.2444" stroke="#263238" stroke-linecap="round" stroke-linejoin="round"/>
<path d="M34.5393 70.149V74.2444" stroke="#263238" stroke-linecap="round" stroke-linejoin="round"/>
<path d="M27.4299 70.149V74.2444" stroke="#263238" stroke-linecap="round" stroke-linejoin="round"/>
<path d="M3.5859 79.0367H52.7659V74.6534H3.5859V79.0367Z" fill="white" stroke="#263238" stroke-linecap="round" stroke-linejoin="round"/>
<path d="M50.1643 74.757V78.8523" stroke="#263238" stroke-linecap="round" stroke-linejoin="round"/>
<path d="M51.5901 74.757V78.8523" stroke="#263238" stroke-linecap="round" stroke-linejoin="round"/>
<path d="M47.3245 74.757V78.8523" stroke="#263238" stroke-linecap="round" stroke-linejoin="round"/>
<path d="M44.4807 74.757V78.8523" stroke="#263238" stroke-linecap="round" stroke-linejoin="round"/>
<path d="M41.6409 74.757V78.8523" stroke="#263238" stroke-linecap="round" stroke-linejoin="round"/>
<path d="M38.7971 74.757V78.8523" stroke="#263238" stroke-linecap="round" stroke-linejoin="round"/>
<path d="M34.5393 74.757V78.8523" stroke="#263238" stroke-linecap="round" stroke-linejoin="round"/>
<path d="M27.4299 74.757V78.8523" stroke="#263238" stroke-linecap="round" stroke-linejoin="round"/>
<path d="M2.43745 83.6447H51.6174V79.2613H2.43745V83.6447Z" fill="white" stroke="#263238" stroke-linecap="round" stroke-linejoin="round"/>
<path d="M49.0159 79.3649V83.4603" stroke="#263238" stroke-linecap="round" stroke-linejoin="round"/>
<path d="M50.4417 79.3649V83.4603" stroke="#263238" stroke-linecap="round" stroke-linejoin="round"/>
<path d="M46.176 79.3649V83.4603" stroke="#263238" stroke-linecap="round" stroke-linejoin="round"/>
<path d="M43.3323 79.3649V83.4603" stroke="#263238" stroke-linecap="round" stroke-linejoin="round"/>
<path d="M40.4924 79.3649V83.4603" stroke="#263238" stroke-linecap="round" stroke-linejoin="round"/>
<path d="M37.6487 79.3649V83.4603" stroke="#263238" stroke-linecap="round" stroke-linejoin="round"/>
<path d="M33.3909 79.3649V83.4603" stroke="#263238" stroke-linecap="round" stroke-linejoin="round"/>
<path d="M26.2815 79.3649V83.4603" stroke="#263238" stroke-linecap="round" stroke-linejoin="round"/>
<path d="M3.5859 88.2526H52.7659V83.8692H3.5859V88.2526Z" fill="white" stroke="#263238" stroke-linecap="round" stroke-linejoin="round"/>
<path d="M50.1643 83.9728V88.0681" stroke="#263238" stroke-linecap="round" stroke-linejoin="round"/>
<path d="M51.5901 83.9728V88.0681" stroke="#263238" stroke-linecap="round" stroke-linejoin="round"/>
<path d="M47.3245 83.9728V88.0681" stroke="#263238" stroke-linecap="round" stroke-linejoin="round"/>
<path d="M44.4807 83.9728V88.0681" stroke="#263238" stroke-linecap="round" stroke-linejoin="round"/>
<path d="M41.6409 83.9728V88.0681" stroke="#263238" stroke-linecap="round" stroke-linejoin="round"/>
<path d="M38.7971 83.9728V88.0681" stroke="#263238" stroke-linecap="round" stroke-linejoin="round"/>
<path d="M34.5393 83.9728V88.0681" stroke="#263238" stroke-linecap="round" stroke-linejoin="round"/>
<path d="M27.4299 83.9728V88.0681" stroke="#263238" stroke-linecap="round" stroke-linejoin="round"/>
<path d="M282.431 69.567C278.454 65.1318 267.657 61.9523 254.951 61.9523C243.084 61.9523 232.883 64.7286 228.349 68.7087L225.832 68.6684V73.334C225.832 79.6181 238.871 84.7157 254.951 84.7157C271.03 84.7157 284.069 79.6181 284.069 73.334V69.5958L282.431 69.567Z" fill="white" stroke="#263238" stroke-linecap="round" stroke-linejoin="round"/>
<path d="M254.951 80.978C271.032 80.978 284.069 75.8822 284.069 69.5962C284.069 63.3103 271.032 58.2145 254.951 58.2145C238.869 58.2145 225.832 63.3103 225.832 69.5962C225.832 75.8822 238.869 80.978 254.951 80.978Z" fill="white" stroke="#263238" stroke-linecap="round" stroke-linejoin="round"/>
<path d="M254.951 79.3302C268.703 79.3302 279.852 74.972 279.852 69.5958C279.852 64.2197 268.703 59.8615 254.951 59.8615C241.199 59.8615 230.051 64.2197 230.051 69.5958C230.051 74.972 241.199 79.3302 254.951 79.3302Z" fill="white" stroke="#263238" stroke-linecap="round" stroke-linejoin="round"/>
<path d="M252.889 63.1563V62.2174H257.038V63.1563C260.635 63.4443 262.48 64.5272 262.48 66.2379V66.6353H257.682V66.1112C257.682 65.2126 256.762 64.867 255.147 64.867C253.532 64.867 252.613 65.2126 252.613 66.1112C252.613 68.7089 262.526 68.8357 262.526 72.4472C262.526 74.1752 260.635 75.2581 257.038 75.5461V76.4677H252.889V75.5173C249.251 75.2293 247.406 74.1291 247.406 72.4184V71.5544H252.199V72.5451C252.199 73.4494 253.211 73.772 254.825 73.772C256.44 73.772 257.452 73.4494 257.452 72.5451C257.452 69.9531 247.544 69.8264 247.544 66.2091C247.533 64.5732 249.332 63.4616 252.889 63.1563Z" fill="white" stroke="#263238" stroke-linecap="round" stroke-linejoin="round"/>
<path d="M252.889 62.4826V61.5494H257.038V62.4826C260.635 62.7706 262.48 63.8534 262.48 65.5642V65.9616H257.682V65.4374C257.682 64.5389 256.762 64.199 255.147 64.199C253.532 64.199 252.613 64.5389 252.613 65.4374C252.613 68.0352 262.526 68.1619 262.526 71.7735C262.526 73.5015 260.635 74.5843 257.038 74.8723V75.7882H252.889V74.8723C249.251 74.5843 247.406 73.4842 247.406 71.7735V70.9095H252.199V71.9002C252.199 72.8045 253.211 73.1271 254.825 73.1271C256.44 73.1271 257.452 72.8045 257.452 71.9002C257.452 69.3082 247.544 69.1814 247.544 65.5642C247.533 63.8707 249.332 62.7936 252.889 62.4826Z" fill="white" stroke="#263238" stroke-linecap="round" stroke-linejoin="round"/>
<path d="M227.703 77.3491V74.0026" stroke="#263238" stroke-linecap="round" stroke-linejoin="round"/>
<path d="M229.961 78.887V75.8112" stroke="#263238" stroke-linecap="round" stroke-linejoin="round"/>
<path d="M232.395 80.3325V76.986" stroke="#263238" stroke-linecap="round" stroke-linejoin="round"/>
<path d="M235.735 81.7785V78.1613" stroke="#263238" stroke-linecap="round" stroke-linejoin="round"/>
<path d="M239.707 81.0239V79.4283" stroke="#263238" stroke-linecap="round" stroke-linejoin="round"/>
<path d="M239.707 82.9595V82.3258" stroke="#263238" stroke-linecap="round" stroke-linejoin="round"/>
<path d="M244.844 84.0419V80.5167" stroke="#263238" stroke-linecap="round" stroke-linejoin="round"/>
<path d="M251.703 82.1414V80.8741" stroke="#263238" stroke-linecap="round" stroke-linejoin="round"/>
<path d="M251.703 84.5835V83.587" stroke="#263238" stroke-linecap="round" stroke-linejoin="round"/>
<path d="M312.436 77.1819C308.764 72.2168 298.196 68.0984 285.519 67.2114C273.681 66.3762 263.32 68.5938 258.51 72.476L255.998 72.2571L255.694 77.1819C255.28 83.8232 267.951 90.1131 283.996 91.242C300.041 92.371 313.407 87.907 313.804 81.2773L314.051 77.3317L312.436 77.1819Z" fill="white" stroke="#263238" stroke-linecap="round" stroke-linejoin="round"/>
<path d="M314.242 76.0637C314.706 69.4151 302.043 63.1104 285.958 61.9819C269.873 60.8533 256.458 65.3282 255.993 71.9768C255.529 78.6255 268.192 84.9301 284.277 86.0587C300.361 87.1872 313.777 82.7123 314.242 76.0637Z" fill="white" stroke="#263238" stroke-width="1.00245" stroke-linecap="round" stroke-linejoin="round"/>
<path d="M309.853 77.0624C310.259 71.3891 299.465 65.9908 285.745 65.0051C272.025 64.0193 260.574 67.8194 260.168 73.4927C259.763 79.1661 270.556 84.5644 284.276 85.5501C297.996 86.5359 309.447 82.7358 309.853 77.0624Z" fill="white" stroke="#263238" stroke-linecap="round" stroke-linejoin="round"/>
<path d="M283.346 68.3347L283.409 67.3497L287.546 67.6377L287.483 68.6285C291.052 69.2045 292.822 70.4544 292.707 72.263V72.6835L287.926 72.3437L287.96 71.7677C288.018 70.8173 287.121 70.391 285.512 70.2816C283.903 70.1721 282.955 70.4659 282.897 71.4336C282.725 74.1696 292.609 74.999 292.368 78.8064C292.259 80.6093 290.299 81.6403 286.69 81.6864L286.633 82.6541L282.489 82.3661L282.553 81.3927C278.938 80.8167 277.168 79.5437 277.283 77.7408L277.34 76.8249L282.122 77.159L282.058 78.2074C282.001 79.1578 282.989 79.5725 284.598 79.6877C286.207 79.8029 287.242 79.5264 287.299 78.576C287.472 75.8342 277.593 75.0106 277.829 71.2032C277.944 69.4291 279.806 68.4096 283.346 68.3347Z" fill="white" stroke="#263238" stroke-linecap="round" stroke-linejoin="round"/>
<path d="M283.416 67.6261L283.479 66.6354L287.617 66.9291L287.553 67.9199C291.122 68.4959 292.892 69.7458 292.777 71.5544V71.9691L287.99 71.6351L288.025 71.0591C288.088 70.1087 287.191 69.6824 285.577 69.5672C283.962 69.452 283.025 69.7516 282.968 70.7192C282.795 73.461 292.674 74.2904 292.438 78.0978C292.323 79.9007 290.369 80.9317 286.76 80.9778L286.697 81.9455L282.56 81.6575L282.623 80.684C279.008 80.108 277.238 78.8351 277.353 77.0264L277.411 76.1164L282.192 76.4504L282.129 77.4988C282.065 78.4492 283.06 78.8639 284.669 78.9733C286.278 79.0828 287.312 78.8178 287.37 77.8674C287.542 75.1256 277.663 74.2962 277.899 70.4946C277.985 68.7147 279.853 67.701 283.416 67.6261Z" fill="white" stroke="#263238" stroke-linecap="round" stroke-linejoin="round"/>
<path d="M257.313 81.554L257.531 78.0231" stroke="#263238" stroke-linecap="round" stroke-linejoin="round"/>
<path d="M259.465 83.3333L259.666 80.0905" stroke="#263238" stroke-linecap="round" stroke-linejoin="round"/>
<path d="M261.797 85.033L262.021 81.5021" stroke="#263238" stroke-linecap="round" stroke-linejoin="round"/>
<path d="M265.031 86.7955L265.273 82.9767" stroke="#263238" stroke-linecap="round" stroke-linejoin="round"/>
<path d="M269.043 86.2768L269.152 84.5948" stroke="#263238" stroke-linecap="round" stroke-linejoin="round"/>
<path d="M268.918 88.3158L268.958 87.6476" stroke="#263238" stroke-linecap="round" stroke-linejoin="round"/>
<path d="M273.981 89.825L274.211 86.0983" stroke="#263238" stroke-linecap="round" stroke-linejoin="round"/>
<path d="M280.946 88.2988L281.032 86.9625" stroke="#263238" stroke-linecap="round" stroke-linejoin="round"/>
<path d="M280.781 90.8794L280.845 89.8253" stroke="#263238" stroke-linecap="round" stroke-linejoin="round"/>
</svg>
