<svg width="100" height="130" viewBox="0 0 100 130" fill="none" xmlns="http://www.w3.org/2000/svg">
<path d="M74.2986 92.3843C74.2971 100.591 71.5154 108.556 66.4069 114.979C61.2985 121.402 54.1646 125.905 46.1686 127.754H46.0586C45.1086 127.964 44.1586 128.154 43.1786 128.294C41.4594 128.539 39.7251 128.663 37.9886 128.664C28.4972 128.63 19.3965 124.881 12.6353 118.22C5.87404 111.559 1.98997 102.515 1.81479 93.0247C1.63961 83.5349 5.18724 74.3537 11.698 67.4474C18.2087 60.541 27.165 56.4586 36.6486 56.0744C36.9786 56.0744 37.3286 56.0744 37.6486 56.0744C37.7551 56.0644 37.8622 56.0644 37.9686 56.0744C38.0918 56.0644 38.2155 56.0644 38.3386 56.0744C43.2375 56.106 48.0777 57.1441 52.5586 59.1244C59.0224 61.956 64.5209 66.6098 68.3819 72.5167C72.2429 78.4236 74.2989 85.3276 74.2986 92.3843Z" fill="#A4EFFF"/>
<path opacity="0.4" d="M52.5737 59.1345C10.6437 56.9545 10.4437 103.504 10.4437 103.504C10.4437 103.504 4.04369 88.3145 14.4937 71.5045C20.3337 62.0945 30.4937 57.9445 38.3537 56.1045C43.2512 56.1298 48.0913 57.1611 52.5737 59.1345V59.1345Z" fill="white"/>
<path d="M74.2962 92.3842C74.2958 100.611 71.5014 108.595 66.3708 115.026C61.2402 121.457 54.0776 125.956 46.0562 127.784C43.4095 128.393 40.702 128.699 37.9862 128.694C28.3562 128.872 19.05 125.217 12.1149 118.533C5.17981 111.849 1.18388 102.684 1.00619 93.0542C0.828494 83.4242 4.4836 74.118 11.1674 67.1829C17.8512 60.2478 27.0162 56.2519 36.6462 56.0742C37.0862 56.0742 37.5362 56.0742 37.9862 56.0742C47.6154 56.0769 56.8494 59.9032 63.6583 66.7121C70.4672 73.521 74.2935 82.755 74.2962 92.3842V92.3842Z" stroke="#263238" stroke-linecap="round" stroke-linejoin="round"/>
<path d="M74.2964 92.3842C74.296 100.611 71.5016 108.595 66.371 115.026C61.2404 121.457 54.0778 125.956 46.0564 127.784C45.6164 127.784 45.1664 127.784 44.7164 127.784C35.8036 127.761 27.2106 124.461 20.573 118.512C13.9355 112.564 9.71683 104.383 8.7201 95.526C7.72337 86.6691 10.0182 77.7549 15.1676 70.4801C20.3171 63.2054 27.9617 58.0781 36.6464 56.0742C37.0864 56.0742 37.5364 56.0742 37.9864 56.0742C47.6156 56.0769 56.8496 59.9032 63.6585 66.7121C70.4674 73.521 74.2937 82.755 74.2964 92.3842V92.3842Z" stroke="#263238" stroke-linecap="round" stroke-linejoin="round"/>
<path d="M50.4941 115.074L51.4341 118.914L45.1541 120.444L44.2141 116.614C38.5941 116.614 34.0841 112.964 32.6441 107.104L32.2141 105.364L39.1441 102.854L39.5841 104.664C40.4541 108.224 42.8041 109.934 45.7341 109.214C46.3772 109.114 46.991 108.876 47.533 108.516C48.0751 108.155 48.5325 107.682 48.8738 107.127C49.2151 106.573 49.4321 105.952 49.5098 105.305C49.5875 104.659 49.5242 104.004 49.324 103.384C48.484 99.9644 44.5641 97.8244 40.0241 95.6144C34.6541 93.0144 29.1141 89.7144 27.5941 83.5044C26.1141 77.4444 27.9741 72.3944 32.7641 69.8944L31.824 66.0544L38.0941 64.5244L39.0341 68.3544C44.4841 68.2744 48.5441 71.8644 50.0341 78.0644L50.3441 79.3244L43.4241 81.8344L43.074 80.4444C42.154 76.6744 40.2141 75.0844 37.6341 75.7144C35.0541 76.3444 33.9841 78.3144 34.7341 81.3744C35.5741 84.7944 39.5441 86.8544 44.0341 89.1544C49.3441 91.8444 54.9441 95.0544 56.4641 101.254C57.9941 107.224 55.5541 112.544 50.4941 115.074Z" stroke="#263238" stroke-miterlimit="10"/>
<path opacity="0.3" d="M50.4941 115.074L51.4341 118.914L45.1541 120.444L44.2141 116.614C38.5941 116.614 34.0841 112.964 32.6441 107.104L32.2141 105.364L39.1441 102.854L39.5841 104.664C40.4541 108.224 42.8041 109.934 45.7341 109.214C46.3772 109.114 46.991 108.876 47.533 108.516C48.0751 108.155 48.5325 107.682 48.8738 107.127C49.2151 106.573 49.4321 105.952 49.5098 105.305C49.5875 104.659 49.5242 104.004 49.324 103.384C48.484 99.9644 44.5641 97.8244 40.0241 95.6144C34.6541 93.0144 29.1141 89.7144 27.5941 83.5044C26.1141 77.4444 27.9741 72.3944 32.7641 69.8944L31.824 66.0544L38.0941 64.5244L39.0341 68.3544C44.4841 68.2744 48.5441 71.8644 50.0341 78.0644L50.3441 79.3244L43.4241 81.8344L43.074 80.4444C42.154 76.6744 40.2141 75.0844 37.6341 75.7144C35.0541 76.3444 33.9841 78.3144 34.7341 81.3744C35.5741 84.7944 39.5441 86.8544 44.0341 89.1544C49.3441 91.8444 54.9441 95.0544 56.4641 101.254C57.9941 107.224 55.5541 112.544 50.4941 115.074Z" fill="black"/>
<path d="M19.4258 123.604L27.0958 123.254" stroke="#263238" stroke-linecap="round" stroke-linejoin="round"/>
<path d="M15.7383 121.054L22.4283 120.484" stroke="#263238" stroke-linecap="round" stroke-linejoin="round"/>
<path d="M12.7383 118.364L19.4283 117.794" stroke="#263238" stroke-linecap="round" stroke-linejoin="round"/>
<path d="M11.8164 67.2046H17.5464" stroke="#263238" stroke-linecap="round" stroke-linejoin="round"/>
<path d="M14.6445 64.5647L20.3545 64.3047" stroke="#263238" stroke-linecap="round" stroke-linejoin="round"/>
<path d="M18.2266 61.9142L24.2466 61.3442" stroke="#263238" stroke-linecap="round" stroke-linejoin="round"/>
<path opacity="0.3" d="M46.1686 127.754H46.0586C43.412 128.363 40.7045 128.669 37.9886 128.664C28.4972 128.63 19.3965 124.881 12.6353 118.22C5.87404 111.558 1.98997 102.514 1.81479 93.0246C1.63961 83.5348 5.18724 74.3536 11.698 67.4473C18.2087 60.5409 27.165 56.4585 36.6486 56.0742C36.9786 56.0742 37.3286 56.0742 37.6486 56.0742C28.7986 58.8642 13.9486 65.9942 9.97863 80.8642C4.36863 101.994 16.9986 125.984 46.1686 127.754Z" fill="black"/>
<path opacity="0.1" d="M74.2958 92.3845C74.2943 100.591 71.5125 108.556 66.4041 114.979C61.2956 121.402 54.1618 125.906 46.1658 127.754H46.0558C45.1058 127.964 44.1558 128.154 43.1758 128.294L52.5758 59.1045C59.0389 61.9405 64.5354 66.5987 68.3929 72.5093C72.2504 78.4198 74.3016 85.3265 74.2958 92.3845Z" fill="black"/>
<path d="M94.8988 35.2245C92.0236 39.2856 87.8566 42.2521 83.0781 43.6397C78.2996 45.0273 73.1919 44.754 68.5888 42.8645L68.4587 42.8045C67.776 42.5043 67.1085 42.1706 66.4587 41.8045C65.7248 41.4099 65.0167 40.969 64.3388 40.4845C59.909 37.1015 56.9284 32.1631 55.9993 26.6673C55.0702 21.1714 56.2618 15.5277 59.3334 10.8766C62.4049 6.2254 67.1275 2.91351 72.5468 1.61006C77.9661 0.306606 83.6781 1.10876 88.5288 3.85446L89.0187 4.16446C89.2487 4.29446 89.4688 4.45446 89.6988 4.61446C89.9288 4.77446 90.3688 5.10446 90.6988 5.36446C95.07 8.87063 97.9386 13.9127 98.7191 19.4617C99.4996 25.0108 98.1332 30.6485 94.8988 35.2245Z" fill="#A4EFFF"/>
<path opacity="0.4" d="M61.7564 35.5246C61.7564 35.5246 58.1664 24.9546 62.9364 17.1746C68.9364 7.42463 78.1265 2.97464 90.6365 5.37464C90.6365 5.37464 83.8564 0.794637 72.5064 4.04464C61.1564 7.29464 55.0664 22.9146 61.7564 35.5246Z" fill="white"/>
<path d="M94.8954 35.2347C92.0175 39.2923 87.8493 42.2548 83.071 43.6387C78.2927 45.0226 73.1864 44.7463 68.5854 42.8547C67.0669 42.2342 65.6243 41.4424 64.2854 40.4947C59.8279 37.0753 56.8475 32.0801 55.9551 26.5335C55.0628 20.9868 56.3262 15.309 59.4864 10.6641C62.6465 6.01915 67.4639 2.75917 72.9507 1.55255C78.4376 0.345925 84.1782 1.28408 88.9954 4.17467C89.2154 4.30467 89.4454 4.45467 89.6654 4.61467C94.4118 7.98748 97.6275 13.1043 98.6079 18.8439C99.5882 24.5835 98.2532 30.4777 94.8954 35.2347Z" stroke="#263238" stroke-linecap="round" stroke-linejoin="round"/>
<path d="M94.8965 35.2347C92.0186 39.2923 87.8504 42.2548 83.0721 43.6387C78.2938 45.0226 73.1875 44.7462 68.5865 42.8547L67.9165 42.4147C63.5721 39.2655 60.5283 34.6372 59.3579 29.4007C58.1875 24.1641 58.9713 18.6803 61.5616 13.9813C64.152 9.28221 68.3705 5.69183 73.4231 3.88575C78.4758 2.07967 84.0143 2.18242 88.9965 4.17467C89.2165 4.30467 89.4465 4.45467 89.6665 4.61467C94.4129 7.98747 97.6286 13.1043 98.6089 18.8439C99.5893 24.5835 98.2543 30.4777 94.8965 35.2347Z" stroke="#263238" stroke-linecap="round" stroke-linejoin="round"/>
<path d="M75.204 38.1546L74.334 40.3746L70.694 38.9446L71.564 36.7146C70.2135 35.7637 69.2355 34.3728 68.7977 32.7802C68.3598 31.1875 68.4893 29.4922 69.164 27.9846L69.564 26.9846L73.864 28.1546L73.454 29.2146C72.644 31.2746 73.194 32.9346 74.894 33.6046C75.2469 33.7802 75.6337 33.877 76.0277 33.8883C76.4216 33.8997 76.8134 33.8253 77.1758 33.6702C77.5381 33.5152 77.8625 33.2833 78.1264 32.9905C78.3902 32.6977 78.5873 32.3511 78.704 31.9746C79.484 29.9746 78.294 27.5646 76.824 24.8946C75.084 21.7346 73.504 18.1746 74.914 14.5746C76.324 10.9746 78.984 9.21457 82.214 9.65457L83.094 7.43457L86.724 8.86457L85.854 11.0746C88.574 12.9346 89.324 16.0746 87.914 19.7246L87.624 20.4446L83.324 19.2746L83.644 18.4646C84.504 16.2846 84.104 14.8146 82.644 14.2246C81.184 13.6346 79.934 14.2246 79.234 16.0146C78.454 18.0146 79.704 20.3946 81.114 23.0946C82.804 26.2846 84.444 29.8246 83.034 33.4146C82.4994 35.0024 81.4196 36.3497 79.9863 37.2173C78.553 38.085 76.8588 38.417 75.204 38.1546V38.1546Z" stroke="#263238" stroke-miterlimit="10"/>
<path opacity="0.3" d="M75.204 38.1546L74.334 40.3746L70.694 38.9446L71.564 36.7146C70.2135 35.7637 69.2355 34.3728 68.7977 32.7802C68.3598 31.1875 68.4893 29.4922 69.164 27.9846L69.564 26.9846L73.864 28.1546L73.454 29.2146C72.644 31.2746 73.194 32.9346 74.894 33.6046C75.2469 33.7802 75.6337 33.877 76.0277 33.8883C76.4216 33.8997 76.8134 33.8253 77.1758 33.6702C77.5381 33.5152 77.8625 33.2833 78.1264 32.9905C78.3902 32.6977 78.5873 32.3511 78.704 31.9746C79.484 29.9746 78.294 27.5646 76.824 24.8946C75.084 21.7346 73.504 18.1746 74.914 14.5746C76.324 10.9746 78.984 9.21457 82.214 9.65457L83.094 7.43457L86.724 8.86457L85.854 11.0746C88.574 12.9346 89.324 16.0746 87.914 19.7246L87.624 20.4446L83.324 19.2746L83.644 18.4646C84.504 16.2846 84.104 14.8146 82.644 14.2246C81.184 13.6346 79.934 14.2246 79.234 16.0146C78.454 18.0146 79.704 20.3946 81.114 23.0946C82.804 26.2846 84.444 29.8246 83.034 33.4146C82.4994 35.0024 81.4196 36.3497 79.9863 37.2173C78.553 38.085 76.8588 38.417 75.204 38.1546V38.1546Z" fill="black"/>
<path opacity="0.3" d="M88.4741 3.8645C82.4741 2.7945 74.8741 2.2045 70.7741 4.8645C63.2441 9.6945 58.5541 15.7845 58.6241 25.6545C58.6941 35.5245 67.9141 42.4445 67.9141 42.4445L68.454 42.8345C66.9833 42.2203 65.5848 41.4456 64.2841 40.5245C59.8543 37.1415 56.8737 32.2032 55.9446 26.7073C55.0155 21.2114 56.2071 15.5678 59.2787 10.9166C62.3502 6.26544 67.0727 2.95355 72.492 1.6501C77.9113 0.346645 83.6234 1.1488 88.4741 3.8945V3.8645Z" fill="black"/>
<path opacity="0.1" d="M94.897 35.2245C92.0219 39.2857 87.8549 42.2522 83.0764 43.6398C78.2979 45.0274 73.1902 44.7541 68.587 42.8645L68.457 42.8045C67.7743 42.5043 67.1068 42.1706 66.457 41.8045L90.6371 5.37451C95.0149 8.87184 97.8934 13.9078 98.685 19.4549C99.4766 25.002 98.1218 30.6422 94.897 35.2245Z" fill="black"/>
</svg>
