<svg width="348" height="143" viewBox="0 0 348 143" fill="none" xmlns="http://www.w3.org/2000/svg">
<g opacity="0.2">
<path opacity="0.2" d="M20.6341 115.665C19.1304 115.665 17.6605 116.111 16.4102 116.949C15.1599 117.786 14.1854 118.976 13.61 120.369C13.0345 121.761 12.884 123.293 13.1773 124.772C13.4707 126.25 14.1948 127.608 15.2581 128.674C16.3213 129.739 17.676 130.465 19.1509 130.759C20.6257 131.053 22.1543 130.902 23.5436 130.325C24.9328 129.749 26.1202 128.772 26.9556 127.519C27.791 126.266 28.2369 124.792 28.2369 123.285C28.2354 121.264 27.4339 119.327 26.0084 117.898C24.5829 116.469 22.65 115.666 20.6341 115.665V115.665ZM21.4099 127.939V128.671H20.1169V127.939C18.9676 127.709 18.3929 126.833 18.3929 125.468V124.777H19.9158V125.572C19.9158 126.286 20.2318 126.545 20.7318 126.545C21.2317 126.545 21.5478 126.286 21.5478 125.572C21.5478 123.504 18.4676 123.4 18.4676 120.532C18.4676 119.184 19.0423 118.32 20.1284 118.078V117.323H21.4214V118.072C22.5362 118.303 23.1109 119.161 23.1109 120.526V120.843H21.6398V120.422C21.6398 119.708 21.3524 119.432 20.8525 119.432C20.3525 119.432 20.0652 119.708 20.0652 120.422C20.0652 122.49 23.1396 122.594 23.1396 125.462C23.1109 126.833 22.5247 127.691 21.4099 127.939Z" stroke="black" stroke-miterlimit="10"/>
<path opacity="0.2" d="M20.6366 112.606C18.5292 112.605 16.4687 113.23 14.7158 114.403C12.963 115.576 11.5965 117.243 10.7892 119.194C9.98195 121.146 9.77014 123.293 10.1806 125.365C10.591 127.437 11.6053 129.34 13.0951 130.834C14.5849 132.328 16.4833 133.346 18.5502 133.758C20.6171 134.171 22.7596 133.96 24.7068 133.152C26.654 132.344 28.3183 130.975 29.4892 129.219C30.6602 127.462 31.2852 125.397 31.2852 123.285C31.2852 120.454 30.1635 117.738 28.1667 115.736C26.1698 113.733 23.4613 112.607 20.6366 112.606V112.606ZM20.6366 132.052C18.9054 132.052 17.213 131.537 15.7736 130.573C14.3342 129.609 13.2124 128.238 12.5501 126.635C11.8879 125.032 11.7149 123.268 12.0531 121.566C12.3912 119.864 13.2254 118.301 14.4499 117.074C15.6745 115.848 17.2346 115.012 18.9327 114.675C20.6308 114.337 22.3908 114.511 23.9899 115.176C25.5891 115.841 26.9556 116.966 27.9166 118.41C28.8776 119.853 29.39 121.55 29.3888 123.285C29.3858 125.61 28.4625 127.839 26.8217 129.483C25.1808 131.126 22.9564 132.05 20.6366 132.052Z" stroke="black" stroke-miterlimit="10"/>
</g>
<g opacity="0.2">
<path opacity="0.2" d="M174.504 38.1113C172.561 38.1102 170.66 38.6869 169.043 39.7685C167.427 40.8501 166.166 42.388 165.422 44.1877C164.677 45.9873 164.481 47.9679 164.86 49.879C165.239 51.79 166.174 53.5455 167.548 54.9236C168.922 56.3017 170.673 57.2403 172.579 57.6208C174.486 58.0014 176.462 57.8066 178.258 57.0613C180.054 56.316 181.589 55.0536 182.669 53.4337C183.749 51.8138 184.326 49.9092 184.326 47.9609C184.322 45.3506 183.287 42.8479 181.446 41.0016C179.605 39.1553 177.109 38.1159 174.504 38.1113V38.1113ZM175.522 53.9628V54.9075H173.855V53.9628C172.395 53.6633 171.654 52.5286 171.654 50.766V49.8732H173.579V50.8985C173.579 51.8259 173.987 52.16 174.637 52.16C175.286 52.16 175.688 51.8259 175.688 50.8985C175.688 48.2259 171.706 48.0934 171.706 44.3782C171.706 42.6502 172.43 41.4982 173.855 41.2044V40.2425H175.522V41.2044C176.97 41.504 177.711 42.6156 177.711 44.3782V44.7872H175.78V44.2515C175.78 43.3241 175.412 42.967 174.763 42.967C174.114 42.967 173.746 43.3241 173.746 44.2515C173.746 46.9241 177.728 47.0566 177.728 50.766C177.728 52.5516 176.97 53.6864 175.522 53.9628Z" stroke="black" stroke-miterlimit="10"/>
<path opacity="0.2" d="M174.503 34.1602C171.775 34.1602 169.109 34.9709 166.841 36.4899C164.572 38.0089 162.805 40.1679 161.761 42.6939C160.717 45.2199 160.444 47.9995 160.976 50.6811C161.508 53.3627 162.822 55.8259 164.751 57.7592C166.679 59.6925 169.137 61.0091 171.812 61.5425C174.488 62.0759 177.261 61.8022 179.781 60.7559C182.301 59.7096 184.455 57.9377 185.971 55.6644C187.486 53.391 188.295 50.7183 188.295 47.9842C188.295 44.3178 186.842 40.8016 184.255 38.2091C181.669 35.6166 178.161 34.1602 174.503 34.1602V34.1602ZM174.503 59.3026C172.265 59.3037 170.077 58.6395 168.215 57.394C166.353 56.1485 164.902 54.3776 164.045 52.3053C163.188 50.233 162.963 47.9524 163.399 45.752C163.835 43.5516 164.912 41.5302 166.494 39.9435C168.076 38.3568 170.093 37.2761 172.288 36.838C174.483 36.3999 176.758 36.6242 178.826 37.4824C180.894 38.3407 182.661 39.7943 183.905 41.6596C185.149 43.5248 185.812 45.7177 185.812 47.9611C185.809 50.9671 184.617 53.8492 182.497 55.9753C180.377 58.1014 177.502 59.298 174.503 59.3026V59.3026Z" stroke="black" stroke-miterlimit="10"/>
</g>
<g opacity="0.2">
<path opacity="0.2" d="M102.322 6.66211C99.541 6.66325 96.8228 7.49086 94.5111 9.0403C92.1993 10.5897 90.3978 12.7914 89.3344 15.367C88.271 17.9426 87.9933 20.7764 88.5365 23.5101C89.0798 26.2438 90.4195 28.7547 92.3864 30.7253C94.3532 32.6959 96.8589 34.0378 99.5865 34.5811C102.314 35.1245 105.141 34.8451 107.71 33.7781C110.28 32.7111 112.475 30.9046 114.02 28.5868C115.565 26.2691 116.39 23.5443 116.39 20.7568C116.387 17.0186 114.903 13.4345 112.266 10.7917C109.628 8.14892 106.052 6.66363 102.322 6.66211V6.66211ZM103.753 29.3738V30.7274H101.368V29.3738C99.2762 28.9476 98.2131 27.329 98.2131 24.8061V23.5274H100.972V24.9904C100.972 26.321 101.546 26.7991 102.483 26.7991C103.42 26.7991 103.994 26.321 103.994 24.9904C103.994 21.1658 98.2936 20.9584 98.2936 15.665C98.2936 13.1651 99.328 11.5696 101.368 11.1203V9.73795H103.753V11.1203C105.822 11.5466 106.879 13.1363 106.879 15.665V16.241H104.126V15.4749C104.126 14.1501 103.592 13.6432 102.667 13.6432C101.742 13.6432 101.207 14.1501 101.207 15.4749C101.207 19.3053 106.908 19.5069 106.908 24.8061C106.908 27.329 105.822 28.9476 103.753 29.3738Z" stroke="black" stroke-miterlimit="10"/>
<path opacity="0.2" d="M102.323 1C98.4243 1.00114 94.6139 2.16082 91.3732 4.33242C88.1325 6.50402 85.607 9.59001 84.116 13.2002C82.625 16.8104 82.2354 20.7826 82.9966 24.6147C83.7578 28.4468 85.6356 31.9665 88.3925 34.729C91.1493 37.4915 94.6615 39.3725 98.4849 40.1344C102.308 40.8963 106.271 40.5047 109.873 39.0092C113.474 37.5136 116.552 34.9814 118.718 31.7325C120.883 28.4836 122.039 24.6641 122.039 20.7568C122.039 18.1618 121.529 15.5923 120.538 13.1949C119.547 10.7975 118.095 8.61926 116.264 6.7846C114.433 4.94993 112.259 3.49478 109.867 2.50225C107.475 1.50971 104.911 0.999244 102.323 1V1ZM102.323 36.9885C99.1196 36.9885 95.9886 36.0365 93.3255 34.253C90.6624 32.4694 88.5868 29.9343 87.3611 26.9684C86.1354 24.0024 85.8147 20.7388 86.4396 17.5902C87.0644 14.4415 88.6068 11.5493 90.8715 9.27927C93.1363 7.00923 96.0218 5.46331 99.1632 4.83701C102.305 4.21071 105.561 4.53215 108.52 5.76068C111.479 6.98922 114.008 9.06968 115.787 11.739C117.567 14.4083 118.517 17.5465 118.517 20.7568C118.512 25.0603 116.804 29.1862 113.768 32.2293C110.732 35.2723 106.616 36.9839 102.323 36.9885Z" stroke="black" stroke-miterlimit="10"/>
</g>
<g opacity="0.2">
<path opacity="0.2" d="M245.294 27.7148H239.547V40.9628H245.294V27.7148Z" stroke="black" stroke-miterlimit="10"/>
<path opacity="0.2" d="M252.762 19.8237H247.016V40.9629H252.762V19.8237Z" stroke="black" stroke-miterlimit="10"/>
<path opacity="0.2" d="M260.235 22.6289H254.488V40.963H260.235V22.6289Z" stroke="black" stroke-miterlimit="10"/>
<path opacity="0.2" d="M267.708 18.0669H261.961V40.9629H267.708V18.0669Z" stroke="black" stroke-miterlimit="10"/>
<path opacity="0.2" d="M249.727 14.3518L256.416 21.0507L265.134 14.5477L266.536 12.0997L268.025 12.9637L268.019 8.36719L264.054 10.6712L265.542 11.5294L264.255 13.7643L256.526 19.5358L249.561 12.5547L241.297 24.7025L242.245 25.3534L249.727 14.3518Z" stroke="black" stroke-miterlimit="10"/>
</g>
<g opacity="0.2">
<path opacity="0.2" d="M5.87892 36.5796H1V47.8231H5.87892V36.5796Z" stroke="black" stroke-miterlimit="10"/>
<path opacity="0.2" d="M12.2227 29.8804H7.34375V47.8285H12.2227V29.8804Z" stroke="black" stroke-miterlimit="10"/>
<path opacity="0.2" d="M18.5625 32.2593H13.6836V47.8228H18.5625V32.2593Z" stroke="black" stroke-miterlimit="10"/>
<path opacity="0.2" d="M24.9063 28.3887H20.0273V47.8229H24.9063V28.3887Z" stroke="black" stroke-miterlimit="10"/>
<path opacity="0.2" d="M9.64863 25.238L15.3206 30.9232L22.7223 25.3993L23.9119 23.3257L25.1761 24.0572L25.1704 20.1577L21.8028 22.1104L23.0671 22.8361L21.9752 24.7369L15.4125 29.6329L9.50496 23.7116L2.48828 34.022L3.29282 34.575L9.64863 25.238Z" stroke="black" stroke-miterlimit="10"/>
</g>
<g opacity="0.2">
<path opacity="0.2" d="M312.431 121.609H303.656V141.832H312.431V121.609Z" stroke="black" stroke-miterlimit="10"/>
<path opacity="0.2" d="M323.834 109.564H315.059V141.838H323.834V109.564Z" stroke="black" stroke-miterlimit="10"/>
<path opacity="0.2" d="M335.24 113.844H326.465V141.832H335.24V113.844Z" stroke="black" stroke-miterlimit="10"/>
<path opacity="0.2" d="M346.642 106.886H337.867V141.832H346.642V106.886Z" stroke="black" stroke-miterlimit="10"/>
<path opacity="0.2" d="M319.201 101.213L329.407 111.437L342.716 101.506L344.854 97.7738L347.129 99.0871L347.118 92.0771L341.067 95.5908L343.337 96.8983L341.377 100.314L329.573 109.121L318.948 98.465L306.328 117.012L307.776 118.003L319.201 101.213Z" stroke="black" stroke-miterlimit="10"/>
</g>
</svg>
