<svg width="103" height="188" viewBox="0 0 103 188" fill="none" xmlns="http://www.w3.org/2000/svg">
<path d="M1 13.836C0.99932 12.1506 1.33112 10.4816 1.97646 8.9243C2.62179 7.36699 3.56802 5.95191 4.76108 4.75991C5.95414 3.5679 7.37064 2.62233 8.92969 1.97719C10.4887 1.33206 12.1598 1 13.8474 1H82.8975C84.5855 0.99932 86.2571 1.33087 87.8167 1.9757C89.3764 2.62053 90.7935 3.566 91.9871 4.75807C93.1807 5.95015 94.1274 7.36545 94.7731 8.9231C95.4188 10.4807 95.7507 12.1502 95.7501 13.836V173.857C95.7507 175.542 95.4188 177.212 94.7731 178.77C94.1274 180.327 93.1807 181.742 91.9871 182.935C90.7935 184.127 89.3764 185.072 87.8167 185.717C86.2571 186.362 84.5855 186.693 82.8975 186.693H13.8474C12.1598 186.693 10.4887 186.361 8.92969 185.715C7.37064 185.07 5.95414 184.125 4.76108 182.933C3.56802 181.741 2.62179 180.326 1.97646 178.768C1.33112 177.211 0.99932 175.542 1 173.857V13.836ZM8.10573 164.688C8.10573 171.779 10.7924 177.524 17.8878 177.524H78.8415C80.5311 177.527 82.2046 177.197 83.7663 176.553C85.3281 175.909 86.7474 174.964 87.9431 173.772C89.1387 172.58 90.0873 171.164 90.7345 169.605C91.3817 168.046 91.7148 166.375 91.7148 164.688V16.7886C91.7134 13.3847 90.3589 10.1206 87.9489 7.71371C85.5389 5.30678 82.2705 3.95398 78.8622 3.9526H53.3335V4.04584C52.5762 6.76016 50.8387 8.51618 48.9196 8.51618H47.8097C45.8906 8.51618 44.1531 6.76016 43.3958 4.04584L43.3699 3.9526H17.8878C10.8028 3.93188 8.10573 9.68168 8.10573 16.7886V164.688Z" fill="#707070" stroke="#263238" stroke-linecap="round" stroke-linejoin="round"/>
<path d="M84.6722 3.93164H59.1901V4.02488C58.438 6.7392 56.7005 8.49522 54.7763 8.49522H53.6455C51.7213 8.49522 49.9838 6.7392 49.2317 4.02488L49.2057 3.93164H23.7237C22.0341 3.93164 20.3611 4.26434 18.8004 4.91071C17.2397 5.55707 15.8219 6.50443 14.6282 7.69856C13.4345 8.89269 12.4882 10.3102 11.8435 11.8699C11.1988 13.4296 10.8684 15.101 10.8711 16.7884V171.95C10.8711 173.904 11.6482 175.777 13.0313 177.159C14.4145 178.54 16.2905 179.316 18.2466 179.316H90.1597C92.1158 179.316 93.9917 178.54 95.3749 177.159C96.7581 175.777 97.5351 173.904 97.5351 171.95V16.7884C97.5378 15.1001 97.2071 13.4279 96.5617 11.8675C95.9164 10.3071 94.9692 8.88915 93.7744 7.69489C92.5795 6.50062 91.1605 5.55349 89.5986 4.90773C88.0367 4.26198 86.3626 3.93028 84.6722 3.93164V3.93164Z" fill="white" stroke="#263238" stroke-linecap="round" stroke-linejoin="round"/>
<path d="M33.8517 18.9902L10.1797 45.9936V97.1771L17.2128 103.331L66.2891 47.3507L33.8517 18.9902Z" fill="white" stroke="#B2B2B2" stroke-linecap="round" stroke-linejoin="round"/>
<path d="M59.6346 46.5684L35.501 25.4702C35.2926 25.7085 35.0391 25.9033 34.7551 26.0435C34.4711 26.1837 34.1622 26.2665 33.8461 26.2872C33.53 26.3079 33.2129 26.266 32.913 26.1641C32.6131 26.0621 32.3363 25.902 32.0986 25.693L10.1797 50.6968V92.1368L15.885 97.1303C15.9321 96.6917 16.0989 96.2744 16.3672 95.9239C16.6355 95.5735 16.995 95.3034 17.4066 95.1431C17.8181 94.9827 18.2658 94.9383 18.7008 95.0147C19.1358 95.0911 19.5415 95.2854 19.8736 95.5763L59.8576 49.9612C59.3786 49.5402 59.0861 48.9467 59.0443 48.3108C59.0025 47.6749 59.2148 47.0483 59.6346 46.5684V46.5684Z" fill="white" stroke="#B2B2B2" stroke-linecap="round" stroke-linejoin="round"/>
<path d="M36.9183 61.3964C37.0421 55.2141 32.1243 50.1021 25.9341 49.9785C19.7438 49.8548 14.6253 54.7663 14.5015 60.9486C14.3777 67.1309 19.2955 72.2428 25.4857 72.3665C31.676 72.4901 36.7945 67.5786 36.9183 61.3964Z" fill="white" stroke="#B2B2B2" stroke-width="1.0002" stroke-linecap="round" stroke-linejoin="round"/>
<path d="M31.384 65.3406L32.1516 66.1073L30.8238 67.4334L30.0562 66.6667C28.6662 67.5784 27.188 67.278 25.7876 65.8794L25.466 65.553L27.022 63.999L27.4525 64.429C28.189 65.1697 28.7647 65.1542 29.2834 64.6362C29.8021 64.1182 29.8021 63.5484 29.0759 62.8076C26.9546 60.6838 23.6714 63.7452 20.7254 60.7874C19.325 59.3836 19.0293 57.8814 19.9474 56.4984L19.1953 55.7421L20.5283 54.416L21.2804 55.1723C22.6859 54.2451 24.1745 54.5559 25.5749 55.9597L26.2855 56.6693L24.7295 58.2233L23.9204 57.4101C23.1839 56.6693 22.5926 56.7263 22.0739 57.2443C21.5553 57.7623 21.4982 58.3476 22.2347 59.0884C24.3561 61.2122 27.6392 58.1508 30.5852 61.1086C31.9649 62.4968 32.2761 63.9576 31.384 65.3406Z" fill="white" stroke="#B2B2B2" stroke-linecap="round" stroke-linejoin="round"/>
<path d="M62.6221 37.3896L10.1797 68.3453V94.9964L20.4285 112.308L84.5617 74.4526L62.6221 37.3896Z" fill="white" stroke="#B2B2B2" stroke-linecap="round" stroke-linejoin="round"/>
<path d="M78.4881 71.6398L62.1501 44.0614C61.5985 44.3868 60.94 44.48 60.3195 44.3207C59.699 44.1614 59.1672 43.7626 58.841 43.2119L10.1797 71.9454V87.5475L21.108 106.014C21.2896 105.613 21.5783 105.269 21.9424 105.02C22.3066 104.771 22.7323 104.627 23.1729 104.603C23.6135 104.58 24.0521 104.678 24.4408 104.886C24.8295 105.095 25.1532 105.406 25.3766 105.786L77.6375 74.9394C77.4757 74.6672 77.3693 74.3657 77.3244 74.0523C77.2796 73.7388 77.2972 73.4197 77.3763 73.113C77.4553 72.8064 77.5942 72.5184 77.785 72.2656C77.9758 72.0128 78.2148 71.8001 78.4881 71.6398Z" fill="white" stroke="#B2B2B2" stroke-linecap="round" stroke-linejoin="round"/>
<path d="M52.4061 77.5258C53.8848 71.5225 50.2106 65.4587 44.1996 63.9819C38.1886 62.5052 32.117 66.1747 30.6383 72.1779C29.1596 78.1812 32.8338 84.245 38.8449 85.7218C44.8559 87.1986 50.9275 83.5291 52.4061 77.5258Z" fill="white" stroke="#B2B2B2" stroke-linecap="round" stroke-linejoin="round"/>
<path d="M45.553 80.8288L46.0042 81.8182L44.2926 82.5952L43.8414 81.6058C42.2231 81.9736 40.942 81.181 40.1225 79.3784L39.9306 78.9588L41.9067 78.0627L42.1609 78.6118C42.5914 79.5649 43.136 79.7514 43.7999 79.4509C44.4638 79.1505 44.6816 78.6118 44.2511 77.6638C43.0063 74.9288 38.857 76.6278 37.1298 72.8568C36.3103 71.0541 36.5593 69.5416 37.9078 68.5626L37.467 67.5939L39.1734 66.8169L39.6142 67.7856C41.2584 67.4074 42.5447 68.2207 43.3642 70.0233L43.7791 70.935L41.803 71.8363L41.3258 70.8003C40.8953 69.8524 40.3196 69.697 39.6557 70.0026C38.9918 70.3082 38.7273 70.8366 39.1371 71.7845C40.3819 74.5196 44.5312 72.7946 46.2583 76.5916C47.109 78.3683 46.8807 79.8446 45.553 80.8288Z" fill="white" stroke="#B2B2B2" stroke-linecap="round" stroke-linejoin="round"/>
<path d="M82.6789 57.2134L10.1797 70.0132V75.0274L16.8238 112.562L90.1789 99.6117L82.6789 57.2134Z" fill="white" stroke="#B2B2B2" stroke-linecap="round" stroke-linejoin="round"/>
<path d="M77.1046 61.3364L17.3335 71.8984C17.4435 72.5283 17.2989 73.1759 16.9314 73.6994C16.5638 74.2228 16.0033 74.5792 15.3729 74.6905C14.8874 74.7755 14.3874 74.7085 13.9414 74.4988L19.6727 106.92C19.9846 106.608 20.3763 106.388 20.805 106.283C21.2338 106.178 21.6831 106.193 22.1041 106.325C22.5252 106.458 22.9017 106.703 23.1927 107.034C23.4837 107.366 23.6781 107.771 23.7546 108.205L83.5309 97.6534C83.4757 97.3418 83.4824 97.0225 83.5508 96.7135C83.6192 96.4046 83.7478 96.1121 83.9294 95.8528C84.111 95.5935 84.342 95.3725 84.6091 95.2024C84.8762 95.0323 85.1743 94.9164 85.4863 94.8614L79.9054 63.3152C79.5913 63.3701 79.2694 63.3625 78.9582 63.2926C78.6471 63.2228 78.3529 63.0921 78.0926 62.9082C77.8322 62.7242 77.6109 62.4906 77.4413 62.2209C77.2718 61.9511 77.1573 61.6505 77.1046 61.3364Z" fill="white" stroke="#B2B2B2" stroke-linecap="round" stroke-linejoin="round"/>
<path d="M58.8895 91.4054C62.4816 86.3704 61.3066 79.3806 56.2652 75.7932C51.2237 72.2057 44.2249 73.3792 40.6329 78.4142C37.0408 83.4491 38.2158 90.4389 43.2572 94.0264C48.2987 97.6138 55.2975 96.4403 58.8895 91.4054Z" fill="white" stroke="#B2B2B2" stroke-linecap="round" stroke-linejoin="round"/>
<path d="M52.1009 91.738L52.2721 92.8103L50.4205 93.1107L50.2441 92.0385C48.5844 91.9711 47.5575 90.8678 47.2411 88.9305L47.1685 88.4746L49.3105 88.1276L49.4091 88.7233C49.5751 89.7593 50.0522 90.0804 50.7732 89.9613C51.4941 89.8422 51.8416 89.3863 51.6756 88.3555C51.1933 85.3925 46.738 85.9675 46.0689 81.8494C45.7473 79.8966 46.3905 78.5031 47.9465 77.9126L47.7753 76.8766L49.6269 76.5762L49.7981 77.6122C51.4785 77.6743 52.5107 78.7984 52.8271 80.7564L52.9879 81.7406L50.8458 82.0929L50.6591 80.9585C50.4931 79.9225 49.9796 79.6324 49.2587 79.7463C48.5378 79.8603 48.1436 80.311 48.3095 81.3418C48.7919 84.3047 53.2472 83.7298 53.9162 87.8479C54.2326 89.7645 53.631 91.132 52.1009 91.738Z" fill="white" stroke="#B2B2B2" stroke-linecap="round" stroke-linejoin="round"/>
<path d="M92.5184 113.243L92.4883 70.1865L17.9922 70.2385L18.0223 113.295L92.5184 113.243Z" fill="#A4EFFF" stroke="#263238" stroke-linecap="round" stroke-linejoin="round"/>
<path d="M86.2619 73.2871L25.5779 73.3234C25.5791 73.7647 25.4589 74.198 25.2303 74.5757C25.0018 74.9535 24.6737 75.2613 24.2819 75.4655C23.8901 75.6697 23.4497 75.7625 23.0087 75.7336C22.5677 75.7048 22.1431 75.5556 21.7812 75.3021V108.211C22.1419 107.956 22.5659 107.805 23.0066 107.775C23.4474 107.745 23.888 107.836 24.2801 108.04C24.6722 108.243 25.0007 108.55 25.2297 108.927C25.4586 109.305 25.579 109.738 25.5779 110.179L86.2619 110.143C86.2619 109.504 86.5158 108.89 86.968 108.438C87.4201 107.985 88.0336 107.73 88.6737 107.729V75.6958C88.0345 75.6944 87.4218 75.4402 86.9698 74.9888C86.5178 74.5374 86.2633 73.9255 86.2619 73.2871V73.2871Z" fill="white" stroke="#263238" stroke-miterlimit="10"/>
<path d="M57.424 102.7C63.4949 101.492 67.4356 95.597 66.2258 89.5339C65.0161 83.4709 59.1139 79.5353 53.043 80.7435C46.9722 81.9517 43.0315 87.8462 44.2413 93.9093C45.451 99.9723 51.3532 103.908 57.424 102.7Z" fill="#263238"/>
<path d="M56.4453 98.8292V99.9119H54.5677V98.8292C52.9391 98.4977 52.104 97.2442 52.0989 95.2654V94.8044H54.2721V95.4104C54.2721 96.4464 54.6922 96.8505 55.4235 96.8453C56.1549 96.8401 56.5698 96.4516 56.5698 95.4104C56.5698 92.406 52.0781 92.261 52.0781 88.0911C52.0781 86.1072 52.9287 84.8381 54.5573 84.5014V83.4395H56.4349V84.5014C58.0843 84.8329 58.9194 86.1072 58.9194 88.0859V89.0857H56.7513V87.9357C56.7513 86.8997 56.2949 86.5164 55.5636 86.5216C54.8322 86.5267 54.3706 86.8945 54.3706 87.9357C54.3706 90.9401 58.8623 91.0851 58.8675 95.255C58.8415 97.2183 58.0272 98.4718 56.4453 98.8292Z" fill="white"/>
<path d="M53.4905 144.217C59.2196 144.217 63.8639 139.578 63.8639 133.857C63.8639 128.135 59.2196 123.497 53.4905 123.497C47.7615 123.497 43.1172 128.135 43.1172 133.857C43.1172 139.578 47.7615 144.217 53.4905 144.217Z" fill="#263238" stroke="#263238" stroke-miterlimit="10"/>
<path d="M54.5248 139.036L48.612 131.163C48.4894 131 48.4002 130.814 48.3495 130.616C48.2988 130.418 48.2875 130.213 48.3164 130.011C48.3453 129.809 48.4138 129.614 48.5179 129.439C48.622 129.263 48.7597 129.11 48.9232 128.987C49.0867 128.865 49.2727 128.776 49.4706 128.725C49.6686 128.674 49.8745 128.663 50.0768 128.692C50.2791 128.721 50.4737 128.789 50.6496 128.893C50.8254 128.997 50.979 129.135 51.1016 129.298L54.5248 133.856L62.616 123.082C62.8636 122.752 63.2322 122.534 63.6407 122.476C64.0493 122.418 64.4642 122.524 64.7944 122.771C65.1245 123.019 65.3428 123.387 65.4011 123.795C65.4595 124.203 65.3532 124.617 65.1056 124.947L54.5248 139.036Z" fill="#A4EFFF" stroke="#263238" stroke-linecap="round" stroke-linejoin="round"/>
<path d="M97.5247 21.9687V16.7887C97.5247 13.3843 96.1706 10.1194 93.7603 7.71223C91.3499 5.305 88.0808 3.95264 84.6721 3.95264H59.19V4.04588C58.438 6.7602 56.7005 8.51621 54.7762 8.51621H53.6455C51.7212 8.51621 49.9837 6.7602 49.2317 4.04588L49.2057 3.95264H23.7236C20.3149 3.95264 17.0458 5.305 14.6355 7.71223C12.2252 10.1194 10.8711 13.3843 10.8711 16.7887V21.9687H97.5247Z" fill="#A4EFFF" stroke="#263238" stroke-linecap="round" stroke-linejoin="round"/>
<path d="M10.8711 168.562V171.95C10.8711 173.904 11.6481 175.777 13.0313 177.159C14.4145 178.54 16.2904 179.316 18.2465 179.316H90.1597C92.1157 179.316 93.9917 178.54 95.3749 177.159C96.758 175.777 97.5351 173.904 97.5351 171.95V168.562H10.8711Z" fill="#A4EFFF" stroke="#263238" stroke-linecap="round" stroke-linejoin="round"/>
<path d="M101.568 13.836C101.568 12.1502 101.236 10.4807 100.591 8.9231C99.9452 7.36545 98.9985 5.95015 97.8049 4.75807C96.6113 3.566 95.1942 2.62053 93.6345 1.9757C92.0749 1.33087 90.4032 0.99932 88.7152 1H19.6807C16.272 1 13.0029 2.35237 10.5926 4.75959C8.18224 7.16682 6.82812 10.4317 6.82812 13.836V173.857C6.82812 177.261 8.18224 180.526 10.5926 182.933C13.0029 185.34 16.272 186.693 19.6807 186.693H88.7101C90.3985 186.694 92.0707 186.363 93.6309 185.718C95.1912 185.074 96.6089 184.129 97.8031 182.936C98.9972 181.744 99.9444 180.329 100.59 178.771C101.236 177.213 101.568 175.543 101.568 173.857V13.836ZM97.5222 164.688C97.5229 166.374 97.1909 168.043 96.5452 169.601C95.8996 171.159 94.9529 172.574 93.7593 173.766C92.5657 174.958 91.1486 175.904 89.5889 176.548C88.0293 177.193 86.3576 177.525 84.6696 177.524H23.7211C22.0331 177.525 20.3615 177.193 18.8018 176.548C17.2422 175.904 15.825 174.958 14.6314 173.766C13.4378 172.574 12.4912 171.159 11.8455 169.601C11.1998 168.043 10.8679 166.374 10.8685 164.688V16.7886C10.8685 13.3843 12.2227 10.1194 14.633 7.71219C17.0433 5.30497 20.3124 3.9526 23.7211 3.9526H49.1825L49.2084 4.04584C49.9604 6.76016 51.698 8.51618 53.6222 8.51618H54.727C56.6513 8.51618 58.3888 6.76016 59.1409 4.04584V3.9526H84.623C86.3147 3.94647 87.991 4.27395 89.5557 4.91627C91.1205 5.5586 92.5429 6.50312 93.7413 7.69567C94.9397 8.88822 95.8906 10.3053 96.5394 11.8657C97.1882 13.4261 97.5222 15.0991 97.5222 16.7886V164.688Z" fill="#707070" stroke="#263238" stroke-linecap="round" stroke-linejoin="round"/>
<path d="M86.4627 2.7666H21.9353C18.3244 2.7666 14.8614 4.19919 12.3081 6.74922C9.75475 9.29924 8.32031 12.7578 8.32031 16.3641V171.329C8.32031 173.115 8.67248 174.883 9.3567 176.533C10.0409 178.182 11.0438 179.681 12.3081 180.944C13.5723 182.207 15.0732 183.208 16.7251 183.891C18.3769 184.575 20.1474 184.927 21.9353 184.927H86.4627C88.2506 184.927 90.0211 184.575 91.6729 183.891C93.3248 183.208 94.8257 182.207 96.0899 180.944C97.3542 179.681 98.3571 178.182 99.0413 176.533C99.7255 174.883 100.078 173.115 100.078 171.329V16.3641C100.078 12.7578 98.6433 9.29924 96.0899 6.74922C93.5366 4.19919 90.0736 2.7666 86.4627 2.7666ZM97.5258 164.688C97.5265 166.374 97.1945 168.044 96.5489 169.601C95.9032 171.159 94.9565 172.574 93.7629 173.766C92.5693 174.958 91.1522 175.904 89.5926 176.549C88.0329 177.193 86.3613 177.525 84.6733 177.524H23.7247C22.0367 177.525 20.3651 177.193 18.8054 176.549C17.2458 175.904 15.8287 174.958 14.6351 173.766C13.4415 172.574 12.4948 171.159 11.8491 169.601C11.2034 168.044 10.8715 166.374 10.8722 164.688V16.7889C10.8722 13.3845 12.2263 10.1196 14.6366 7.71241C17.0469 5.30519 20.316 3.95282 23.7247 3.95282H49.1861L49.212 4.04606C49.9641 6.76038 51.7016 8.5164 53.6259 8.5164H54.7306C56.6549 8.5164 58.3924 6.76038 59.1445 4.04606V3.95282H84.6266C86.3183 3.94669 87.9946 4.27417 89.5594 4.91649C91.1241 5.55882 92.5465 6.50334 93.7449 7.69589C94.9433 8.88844 95.8942 10.3055 96.543 11.8659C97.1919 13.4263 97.5258 15.0993 97.5258 16.7889V164.688Z" fill="#263238" stroke="#263238" stroke-linecap="round" stroke-linejoin="round"/>
<path d="M55.1396 4.54824C55.1396 4.30931 55.0686 4.07575 54.9356 3.87716C54.8026 3.67857 54.6135 3.52388 54.3924 3.43269C54.1713 3.34149 53.928 3.31789 53.6935 3.36488C53.4589 3.41187 53.2436 3.52734 53.0748 3.69665C52.906 3.86597 52.7913 4.0815 52.7453 4.31597C52.6992 4.55043 52.7239 4.79327 52.8161 5.01371C52.9084 5.23416 53.0641 5.4223 53.2635 5.5543C53.4629 5.68629 53.6971 5.7562 53.9363 5.75518C54.0948 5.75518 54.2517 5.72392 54.398 5.66321C54.5444 5.60249 54.6772 5.5135 54.789 5.40136C54.9008 5.28922 54.9894 5.15612 55.0495 5.00972C55.1097 4.86332 55.1403 4.70649 55.1396 4.54824V4.54824Z" fill="#707070"/>
<path d="M18.5835 9.16363C18.5835 10.3861 17.209 10.8212 17.2039 11.7536V11.8158H18.5368V12.225H16.7578V11.8831C16.7578 10.5778 18.1323 10.3291 18.1323 9.18435C18.1323 8.76477 17.9922 8.54721 17.6551 8.54721C17.318 8.54721 17.1831 8.78549 17.1831 9.14291V9.50033H16.7578V9.16881C16.7578 8.55239 17.0431 8.13281 17.6706 8.13281C18.2982 8.13281 18.5835 8.54721 18.5835 9.16363Z" fill="#263238"/>
<path d="M20.7879 9.15856V9.26216C20.8087 9.4359 20.7718 9.61166 20.6828 9.76236C20.5937 9.91306 20.4575 10.0303 20.2952 10.0961C20.4579 10.1629 20.5943 10.2811 20.6833 10.4327C20.7723 10.5843 20.8091 10.7608 20.7879 10.9353V11.2461C20.7879 11.8625 20.4975 12.2821 19.8751 12.2821C19.2527 12.2821 18.9674 11.8781 18.9674 11.2461V10.9664H19.3875V11.272C19.3875 11.6398 19.5379 11.8573 19.8647 11.8573C20.1915 11.8573 20.3367 11.645 20.3367 11.2357V10.9198C20.3367 10.5209 20.1707 10.3344 19.818 10.3189H19.5742V9.91484H19.8388C19.9089 9.91551 19.9783 9.90107 20.0423 9.87251C20.1064 9.84394 20.1634 9.80192 20.2097 9.74931C20.256 9.6967 20.2904 9.63473 20.3105 9.56765C20.3306 9.50056 20.336 9.42994 20.3263 9.36058V9.17928C20.3263 8.7597 20.1811 8.54732 19.8543 8.54732C19.5276 8.54732 19.3772 8.77524 19.3772 9.13784V9.34504H18.957V9.15856C18.957 8.54214 19.2423 8.12256 19.8647 8.12256C20.4871 8.12256 20.7879 8.54214 20.7879 9.15856Z" fill="#263238"/>
<path d="M21.6622 9.46436V10.0549H21.2266V9.46436H21.6622ZM21.6622 11.6659V12.2253H21.2266V11.6659H21.6622Z" fill="#263238"/>
<path d="M22.5775 9.83181C22.6354 9.72443 22.7227 9.63574 22.8293 9.57611C22.9358 9.51648 23.0572 9.48839 23.1791 9.49511C23.6978 9.49511 23.9312 9.87843 23.9312 10.4534V11.246C23.9312 11.8624 23.6356 12.282 23.0183 12.282C22.4011 12.282 22.1055 11.8779 22.1055 11.246V10.9714H22.5308V11.2718C22.5308 11.6396 22.6812 11.8572 23.0028 11.8572C23.3244 11.8572 23.48 11.6396 23.48 11.2718V10.4897C23.48 10.1271 23.3295 9.90433 23.0028 9.90433C22.9438 9.90152 22.8849 9.9107 22.8297 9.93131C22.7744 9.95192 22.7239 9.98352 22.6812 10.0242C22.6385 10.0649 22.6046 10.1138 22.5814 10.168C22.5582 10.2222 22.5463 10.2805 22.5463 10.3395V10.4327H22.1262L22.2351 8.18457H23.8327V8.58861H22.6397L22.5775 9.83181Z" fill="#263238"/>
<path d="M26.181 9.15346V9.23116H25.7557V9.12756C25.7557 8.75978 25.6053 8.5474 25.2785 8.5474C24.9517 8.5474 24.7598 8.76496 24.7598 9.20008V10.1066C24.8077 9.97408 24.8972 9.86061 25.015 9.78312C25.1328 9.70563 25.2726 9.66827 25.4134 9.67664C25.932 9.67664 26.1654 10.0496 26.1654 10.6349V11.2462C26.1654 11.8626 25.8594 12.2822 25.2422 12.2822C24.625 12.2822 24.3086 11.8781 24.3086 11.2462V9.17418C24.3086 8.53186 24.599 8.13818 25.2422 8.13818C25.8853 8.13818 26.181 8.53704 26.181 9.15346ZM24.8065 10.666V11.2721C24.8065 11.6399 24.9569 11.8574 25.2889 11.8574C25.6208 11.8574 25.766 11.6399 25.766 11.2721V10.666C25.766 10.3034 25.6104 10.0859 25.2889 10.0859C24.9673 10.0859 24.8065 10.3034 24.8065 10.666Z" fill="#263238"/>
<path d="M70.3833 9.32959H69.2422V12.1838H70.3833V9.32959Z" fill="#263238"/>
<path d="M71.9067 8.75977H70.7656V12.1838H71.9067V8.75977Z" fill="#263238"/>
<path d="M73.4301 8.35547H72.2891V12.1887H73.4301V8.35547Z" fill="#263238"/>
<path d="M74.9575 7.646H73.8164V12.1837H74.9575V7.646Z" fill="#263238"/>
<path d="M89.1223 12.1266H82.25V7.92041H89.1223V12.1266ZM82.6442 11.7484H88.7437V8.30373H82.6286L82.6442 11.7484Z" fill="#263238"/>
<path d="M86.8234 8.71826H83.2031V11.3134H86.8234V8.71826Z" fill="#263238"/>
<path d="M89.7321 9.521H88.8711V10.5052H89.7321V9.521Z" fill="#263238"/>
<path d="M79.7337 11.1992C79.6882 11.1977 79.6437 11.1852 79.604 11.163C78.2036 10.3342 77.2855 11.1008 77.2441 11.1319C77.2208 11.1559 77.1931 11.1749 77.1623 11.1879C77.1316 11.201 77.0985 11.2077 77.0651 11.2077C77.0317 11.2077 76.9987 11.201 76.9679 11.1879C76.9372 11.1749 76.9094 11.1559 76.8862 11.1319C76.839 11.0844 76.8125 11.0201 76.8125 10.9532C76.8125 10.8863 76.839 10.822 76.8862 10.7745C76.938 10.733 78.1154 9.73848 79.8426 10.7745C79.8889 10.8043 79.9246 10.848 79.9443 10.8994C79.9641 10.9508 79.967 11.0071 79.9525 11.0602C79.9381 11.1133 79.907 11.1604 79.864 11.1947C79.8209 11.229 79.768 11.2488 79.7129 11.251L79.7337 11.1992Z" fill="#263238"/>
<path d="M80.2486 10.3396C80.2032 10.3373 80.1589 10.3249 80.1189 10.3034C78.1013 9.10161 76.7423 10.2619 76.732 10.2723C76.6835 10.3198 76.6183 10.3463 76.5505 10.3463C76.4826 10.3463 76.4174 10.3198 76.3689 10.2723C76.3464 10.247 76.3291 10.2174 76.3182 10.1853C76.3073 10.1533 76.3029 10.1193 76.3053 10.0855C76.3078 10.0517 76.3169 10.0188 76.3323 9.98857C76.3476 9.95837 76.3689 9.93155 76.3949 9.90969C76.3949 9.90969 78.0442 8.49554 80.3834 9.88379C80.4411 9.91826 80.4827 9.97411 80.4992 10.0392C80.5157 10.1042 80.5058 10.1731 80.4716 10.2309C80.4465 10.2662 80.4129 10.2946 80.3739 10.3136C80.335 10.3326 80.2919 10.3416 80.2486 10.3396V10.3396Z" fill="#263238"/>
<path d="M80.7201 9.33995C80.6742 9.3415 80.6289 9.32884 80.5905 9.30369C78.0335 7.78595 76.3323 9.21563 76.2597 9.30369C76.2365 9.32766 76.2086 9.34672 76.1779 9.35974C76.1472 9.37276 76.1141 9.37946 76.0807 9.37946C76.0473 9.37946 76.0143 9.37276 75.9836 9.35974C75.9528 9.34672 75.925 9.32766 75.9018 9.30369C75.8546 9.25616 75.8281 9.19193 75.8281 9.12498C75.8281 9.05804 75.8546 8.99381 75.9018 8.94627C75.9018 8.94627 77.9401 7.20061 80.8291 8.91519C80.8583 8.93226 80.8838 8.95499 80.9042 8.98205C80.9245 9.00912 80.9392 9.03996 80.9474 9.07278C80.9556 9.10559 80.9572 9.13972 80.952 9.17314C80.9468 9.20657 80.935 9.23863 80.9172 9.26743C80.8919 9.29343 80.861 9.31343 80.8269 9.32598C80.7928 9.33853 80.7563 9.3433 80.7201 9.33995V9.33995Z" fill="#263238"/>
<path d="M78.9621 11.6086C78.9621 11.779 78.8944 11.9424 78.7737 12.0628C78.6531 12.1833 78.4895 12.2509 78.3189 12.2509C78.1484 12.2509 77.9848 12.1833 77.8642 12.0628C77.7436 11.9424 77.6758 11.779 77.6758 11.6086C77.6758 11.4383 77.7436 11.2749 77.8642 11.1544C77.9848 11.034 78.1484 10.9663 78.3189 10.9663C78.4895 10.9663 78.6531 11.034 78.7737 11.1544C78.8944 11.2749 78.9621 11.4383 78.9621 11.6086Z" fill="#263238"/>
<path d="M4.66582 33.4526H1.96875V44.0768H4.66582V33.4526Z" fill="#263238" stroke="#263238" stroke-linecap="round" stroke-linejoin="round"/>
</svg>
