<svg width="231" height="162" viewBox="0 0 231 162" fill="none" xmlns="http://www.w3.org/2000/svg">
<path d="M220.78 24.8701H9.95C5.00705 24.8701 1 28.8772 1 33.8201V152.01C1 156.953 5.00705 160.96 9.95 160.96H220.78C225.723 160.96 229.73 156.953 229.73 152.01V33.8201C229.73 28.8772 225.723 24.8701 220.78 24.8701Z" fill="white"/>
<path d="M229.73 33.8198V37.3598H1V33.8198C0.999963 31.4415 1.94131 29.1599 3.61834 27.4735C5.29537 25.7871 7.57172 24.833 9.95 24.8198H220.82C221.997 24.8237 223.161 25.0599 224.246 25.5147C225.331 25.9695 226.316 26.634 227.143 27.4701C227.971 28.3062 228.626 29.2975 229.07 30.3871C229.514 31.4768 229.738 32.6433 229.73 33.8198V33.8198Z" fill="#A4EFFF"/>
<path d="M220.78 24.8701H9.95C5.00705 24.8701 1 28.8772 1 33.8201V152.01C1 156.953 5.00705 160.96 9.95 160.96H220.78C225.723 160.96 229.73 156.953 229.73 152.01V33.8201C229.73 28.8772 225.723 24.8701 220.78 24.8701Z" stroke="#263238" stroke-linecap="round" stroke-linejoin="round"/>
<path d="M229.73 33.8198V37.3598H1V33.8198C0.999963 31.4415 1.94131 29.1599 3.61834 27.4735C5.29537 25.7871 7.57172 24.833 9.95 24.8198H220.82C221.997 24.8237 223.161 25.0599 224.246 25.5147C225.331 25.9695 226.316 26.634 227.143 27.4701C227.971 28.3062 228.626 29.2975 229.07 30.3871C229.514 31.4768 229.738 32.6433 229.73 33.8198V33.8198Z" stroke="#263238" stroke-linecap="round" stroke-linejoin="round"/>
<path d="M26.6894 31.1101C26.6913 31.5634 26.5587 32.0071 26.3083 32.385C26.0579 32.7629 25.7009 33.058 25.2826 33.2329C24.8644 33.4077 24.4036 33.4545 23.9588 33.3673C23.5139 33.2801 23.1049 33.0627 22.7836 32.7429C22.4624 32.423 22.2433 32.015 22.1541 31.5705C22.0649 31.126 22.1097 30.6651 22.2827 30.2461C22.4558 29.827 22.7493 29.4688 23.1261 29.2167C23.5029 28.9646 23.946 28.8301 24.3994 28.8301C25.005 28.8301 25.5859 29.07 26.0151 29.4973C26.4443 29.9246 26.6867 30.5045 26.6894 31.1101Z" fill="#263238"/>
<path d="M38.6425 31.1101C38.6445 31.5634 38.5118 32.0071 38.2614 32.385C38.011 32.7629 37.654 33.058 37.2358 33.2329C36.8175 33.4077 36.3568 33.4545 35.9119 33.3673C35.467 33.2801 35.058 33.0627 34.7368 32.7429C34.4155 32.423 34.1964 32.015 34.1072 31.5705C34.0181 31.126 34.0628 30.6651 34.2359 30.2461C34.4089 29.827 34.7024 29.4688 35.0792 29.2167C35.456 28.9646 35.8991 28.8301 36.3525 28.8301C36.9581 28.8301 37.5391 29.07 37.9682 29.4973C38.3974 29.9246 38.6398 30.5045 38.6425 31.1101V31.1101Z" fill="#263238"/>
<path d="M48.2978 33.3998C49.5625 33.3998 50.5878 32.3746 50.5878 31.1098C50.5878 29.8451 49.5625 28.8198 48.2978 28.8198C47.0331 28.8198 46.0078 29.8451 46.0078 31.1098C46.0078 32.3746 47.0331 33.3998 48.2978 33.3998Z" fill="#263238"/>
<path d="M82.9225 47.27H18.2525C16.2146 47.27 14.5625 48.9221 14.5625 50.96V82.07C14.5625 84.108 16.2146 85.76 18.2525 85.76H82.9225C84.9604 85.76 86.6125 84.108 86.6125 82.07V50.96C86.6125 48.9221 84.9604 47.27 82.9225 47.27Z" stroke="#263238" stroke-linecap="round" stroke-linejoin="round"/>
<path d="M18.8008 80.9199H81.2708" stroke="#263238" stroke-linecap="round" stroke-linejoin="round"/>
<path d="M30.6875 73.5698H23.4375V80.8198H30.6875V73.5698Z" fill="#A4EFFF" stroke="#263238" stroke-miterlimit="10"/>
<path d="M41.3008 64.04H34.0508V80.92H41.3008V64.04Z" fill="#A4EFFF" stroke="#263238" stroke-miterlimit="10"/>
<path d="M53.25 66.9399H46V81.0899H53.25V66.9399Z" fill="#A4EFFF" stroke="#263238" stroke-miterlimit="10"/>
<path d="M65.8125 52.8501H58.5625V80.6001H65.8125V52.8501Z" fill="#A4EFFF" stroke="#263238" stroke-miterlimit="10"/>
<path d="M78.3594 53.0698H71.1094V80.8198H78.3594V53.0698Z" fill="#A4EFFF" stroke="#263238" stroke-miterlimit="10"/>
<path d="M175.942 87.75C187.137 87.75 196.212 78.6748 196.212 67.48C196.212 56.2852 187.137 47.21 175.942 47.21C164.747 47.21 155.672 56.2852 155.672 67.48C155.672 78.6748 164.747 87.75 175.942 87.75Z" fill="#A4EFFF" stroke="#263238" stroke-miterlimit="10"/>
<path d="M177.6 80.1198V82.1998H174.2V80.1198C172.803 79.782 171.568 78.9683 170.707 77.8185C169.845 76.6687 169.411 75.2548 169.48 73.8198V72.8798L173.33 72.4598V73.4598C173.33 75.3898 174.33 76.5598 175.9 76.5598C176.24 76.588 176.583 76.5422 176.905 76.4255C177.226 76.3088 177.518 76.1239 177.762 75.8836C178.005 75.6432 178.193 75.3531 178.314 75.0331C178.434 74.7131 178.484 74.3708 178.46 74.0298C178.46 72.1798 176.73 70.5898 174.69 68.8998C172.27 66.8998 169.86 64.5198 169.86 61.1598C169.86 57.7998 171.44 55.5298 174.2 54.8498V52.7598H177.6V54.8298C180.39 55.4798 182.01 57.8298 182.01 61.1798V61.8598L178.16 62.2698V61.5698C178.16 59.5698 177.37 58.4698 175.97 58.4698C174.57 58.4698 173.78 59.3398 173.78 60.9998C173.78 62.8498 175.56 64.3998 177.56 66.1298C179.94 68.1298 182.39 70.5098 182.39 73.8698C182.448 75.3073 182.001 76.7199 181.126 77.8619C180.251 79.0038 179.003 79.8028 177.6 80.1198V80.1198Z" fill="#263238"/>
<path d="M12.8828 105.42H18.8028" stroke="#263238" stroke-linecap="round" stroke-linejoin="round"/>
<path d="M12.8828 116.86H18.8028" stroke="#263238" stroke-linecap="round" stroke-linejoin="round"/>
<path d="M12.8828 128.31H18.8028" stroke="#263238" stroke-linecap="round" stroke-linejoin="round"/>
<path d="M12.8828 139.75H18.8028" stroke="#263238" stroke-linecap="round" stroke-linejoin="round"/>
<path d="M31.8516 148.39V143.79" stroke="#263238" stroke-linecap="round" stroke-linejoin="round"/>
<path d="M41.2305 148.39V143.79" stroke="#263238" stroke-linecap="round" stroke-linejoin="round"/>
<path d="M50.6094 148.39V143.79" stroke="#263238" stroke-linecap="round" stroke-linejoin="round"/>
<path d="M60 148.39V143.79" stroke="#263238" stroke-linecap="round" stroke-linejoin="round"/>
<path d="M69.3828 148.39V143.79" stroke="#263238" stroke-linecap="round" stroke-linejoin="round"/>
<path d="M78.7578 148.39V143.79" stroke="#263238" stroke-linecap="round" stroke-linejoin="round"/>
<path d="M88.1406 148.39V143.79" stroke="#263238" stroke-linecap="round" stroke-linejoin="round"/>
<path d="M97.5312 148.39V143.79" stroke="#263238" stroke-linecap="round" stroke-linejoin="round"/>
<path d="M106.91 148.39V143.79" stroke="#263238" stroke-linecap="round" stroke-linejoin="round"/>
<path d="M116.289 148.39V143.79" stroke="#263238" stroke-linecap="round" stroke-linejoin="round"/>
<path d="M125.672 148.39V143.79" stroke="#263238" stroke-linecap="round" stroke-linejoin="round"/>
<path d="M135.062 148.39V143.79" stroke="#263238" stroke-linecap="round" stroke-linejoin="round"/>
<path d="M144.438 148.39V143.79" stroke="#263238" stroke-linecap="round" stroke-linejoin="round"/>
<path d="M153.82 148.39V143.79" stroke="#263238" stroke-linecap="round" stroke-linejoin="round"/>
<path d="M163.199 148.39V143.79" stroke="#263238" stroke-linecap="round" stroke-linejoin="round"/>
<path d="M172.23 148.39V143.79" stroke="#263238" stroke-linecap="round" stroke-linejoin="round"/>
<path d="M181.258 148.39V143.79" stroke="#263238" stroke-linecap="round" stroke-linejoin="round"/>
<path d="M190.281 148.39V143.79" stroke="#263238" stroke-linecap="round" stroke-linejoin="round"/>
<path d="M214.16 98.4202V142.88C214.16 145.93 211.06 148.39 207.24 148.39H19.8203C18.6791 148.431 17.544 148.207 16.5033 147.737C15.4626 147.267 14.5445 146.563 13.8203 145.68C13.1947 144.879 12.844 143.897 12.8203 142.88V98.4202C12.8203 95.4202 15.9203 92.9102 19.7403 92.9102H207.24C211.06 92.9102 214.16 95.3702 214.16 98.4202Z" stroke="#A4EFFF" stroke-linecap="round" stroke-linejoin="round"/>
<path d="M157.123 12.31L97.2928 92.91L74.4128 123.73L49.4128 107.81L18.8228 148.39H18.3828C17.4237 148.391 16.481 148.141 15.6479 147.666C14.8148 147.191 14.1202 146.506 13.6328 145.68L48.0028 100.07L73.0028 115.96L90.1128 92.96L152.503 8.95996L157.123 12.31Z" fill="#263238"/>
<path d="M141.938 13.33L163.928 0L157.848 23.06L153.967 12.39L141.938 13.33Z" fill="#263238"/>
</svg>
