<svg width="145" height="134" viewBox="0 0 145 134" fill="none" xmlns="http://www.w3.org/2000/svg">
<path d="M143.799 9.01146L100.961 4.16724L92.5794 78.0952L135.417 82.9394L143.799 9.01146Z" fill="white" stroke="#B2B2B2" stroke-linecap="round" stroke-linejoin="round"/>
<path d="M103.343 10.6868L96.5273 70.925C96.8425 70.9604 97.1475 71.0575 97.4251 71.2108C97.7026 71.3641 97.9471 71.5705 98.1446 71.8183C98.3421 72.0661 98.4888 72.3504 98.5762 72.6548C98.6636 72.9593 98.69 73.278 98.6539 73.5927C98.5976 74.0817 98.391 74.5413 98.0626 74.9084L130.806 78.6121C130.595 78.2253 130.494 77.788 130.515 77.3479C130.536 76.9079 130.677 76.4821 130.924 76.1169C131.171 75.7518 131.514 75.4614 131.914 75.2775C132.315 75.0936 132.759 75.0232 133.197 75.0741L140.028 14.8359C139.713 14.8005 139.408 14.7034 139.13 14.5501C138.853 14.3968 138.608 14.1904 138.411 13.9426C138.213 13.6948 138.066 13.4105 137.979 13.1061C137.892 12.8016 137.865 12.4829 137.901 12.1682L106.029 8.54224C105.996 8.86 105.899 9.16797 105.746 9.44827C105.592 9.72857 105.385 9.97563 105.135 10.1751C104.885 10.3746 104.598 10.5225 104.29 10.6104C103.982 10.6982 103.66 10.7242 103.343 10.6868V10.6868Z" fill="white" stroke="#B2B2B2" stroke-linecap="round" stroke-linejoin="round"/>
<path d="M129.361 44.6212C129.942 38.4662 125.416 33.0066 119.253 32.427C113.09 31.8473 107.623 36.3671 107.043 42.5221C106.463 48.6771 110.988 54.1367 117.151 54.7163C123.314 55.296 128.781 50.7762 129.361 44.6212Z" fill="white" stroke="#B2B2B2" stroke-linecap="round" stroke-linejoin="round"/>
<path d="M125.375 43.2946L126.454 43.4345L126.215 45.2941L125.137 45.1542C124.618 46.7082 123.249 47.3972 121.283 47.1434L120.827 47.0864L121.107 44.9367L121.703 45.0092C122.74 45.1439 123.186 44.7813 123.259 44.0561C123.332 43.3309 123.01 42.8699 121.978 42.7352C118.996 42.3519 118.28 46.7808 114.136 46.2524C112.17 45.9986 111.024 44.9885 110.889 43.3361L109.852 43.2014L110.09 41.3366L111.127 41.4713C111.646 39.881 113.036 39.2179 115.007 39.4666L115.998 39.5961L115.723 41.7458L114.587 41.6008C113.55 41.4661 113.119 41.8753 113.031 42.6005C112.943 43.3257 113.254 43.8282 114.286 43.9577C117.268 44.341 117.984 39.9121 122.128 40.4404C124.089 40.6891 125.23 41.6577 125.375 43.2946Z" fill="white" stroke="#B2B2B2" stroke-linecap="round" stroke-linejoin="round"/>
<path d="M113.467 4.02945L70.3711 5.19409L72.3862 79.5672L115.482 78.4026L113.467 4.02945Z" fill="white" stroke="#B2B2B2" stroke-linecap="round" stroke-linejoin="round"/>
<path d="M73.6406 11.2928L75.29 71.8988C75.9302 71.8821 76.5509 72.1198 77.0157 72.5598C77.4806 72.9998 77.7516 73.606 77.7692 74.2454C77.7788 74.7377 77.6396 75.2214 77.3698 75.6336L110.305 74.7426C110.009 74.3471 109.844 73.869 109.833 73.3751C109.824 73.0588 109.878 72.7437 109.991 72.4481C110.104 72.1524 110.274 71.8819 110.492 71.6519C110.709 71.422 110.97 71.2371 111.26 71.1079C111.549 70.9788 111.861 70.9078 112.178 70.8991L110.533 10.2879C110.217 10.2969 109.901 10.2434 109.605 10.1306C109.309 10.0177 109.038 9.84774 108.808 9.6303C108.578 9.41286 108.393 9.15224 108.263 8.86333C108.134 8.57442 108.063 8.26289 108.054 7.94653L75.9902 8.81159C75.9992 9.12862 75.9455 9.4443 75.8323 9.74061C75.719 10.0369 75.5484 10.308 75.3302 10.5385C75.112 10.7689 74.8505 10.9541 74.5606 11.0835C74.2707 11.213 73.9581 11.2841 73.6406 11.2928V11.2928Z" fill="white" stroke="#B2B2B2" stroke-linecap="round" stroke-linejoin="round"/>
<path d="M101.207 49.346C105.383 44.7821 105.063 37.7016 100.493 33.5313C95.9236 29.361 88.834 29.6801 84.6584 34.244C80.4827 38.8078 80.8022 45.8883 85.3719 50.0586C89.9416 54.2289 97.0312 53.9099 101.207 49.346Z" fill="white" stroke="#B2B2B2" stroke-linecap="round" stroke-linejoin="round"/>
<path d="M100.041 40.3315L101.125 40.3004L101.177 42.1756L100.093 42.2118C99.8077 43.8435 98.5784 44.7138 96.5971 44.7707H96.1355L96.0733 42.6003H96.6801C97.7175 42.5692 98.1064 42.1393 98.0857 41.4141C98.065 40.6889 97.6552 40.2797 96.6127 40.3056C93.6044 40.3936 93.5889 44.8795 89.4136 45.0038C87.4323 45.0608 86.1357 44.2424 85.7518 42.6262L84.6886 42.6573L84.6367 40.7821L85.7 40.7511C85.9852 39.0935 87.256 38.2232 89.2165 38.1611L90.2175 38.13L90.3057 40.3315L89.1595 40.3626C88.1221 40.3936 87.7539 40.8806 87.7746 41.5902C87.7954 42.2999 88.1844 42.7713 89.2269 42.7402C92.2352 42.6521 92.2507 38.1662 96.426 38.0471C98.3606 37.9849 99.6417 38.7775 100.041 40.3315Z" fill="white" stroke="#B2B2B2" stroke-linecap="round" stroke-linejoin="round"/>
<path d="M92.4345 0.999945L51.5508 14.6619L75.1887 85.2175L116.072 71.5556L92.4345 0.999945Z" fill="white" stroke="#B2B2B2" stroke-linecap="round" stroke-linejoin="round"/>
<path d="M56.4648 19.5599L75.7229 77.0579C76.0233 76.9571 76.3406 76.9164 76.6567 76.9382C76.9729 76.9599 77.2816 77.0436 77.5653 77.1846C77.849 77.3255 78.1021 77.521 78.3102 77.7596C78.5183 77.9983 78.6772 78.2756 78.7779 78.5757C78.9365 79.0431 78.9456 79.5481 78.8038 80.0209L110.048 69.5832C109.65 69.2902 109.353 68.8812 109.198 68.4125C108.995 67.8066 109.042 67.1453 109.326 66.5735C109.611 66.0016 110.111 65.5658 110.717 65.3615L91.4593 7.8635C90.852 8.0654 90.1892 8.01845 89.6165 7.73294C89.0438 7.44744 88.6078 6.94669 88.4043 6.34058L57.9845 16.5037C58.0863 16.804 58.1276 17.1214 58.1062 17.4377C58.0849 17.754 58.0012 18.063 57.86 18.3469C57.7188 18.6309 57.5229 18.8842 57.2835 19.0923C57.0441 19.3005 56.7659 19.4594 56.4648 19.5599V19.5599Z" fill="white" stroke="#B2B2B2" stroke-linecap="round" stroke-linejoin="round"/>
<path d="M93.7964 48.1927C96.6057 42.6838 94.4115 35.9434 88.8955 33.1377C83.3795 30.332 76.6305 32.5234 73.8211 38.0323C71.0118 43.5412 73.206 50.2816 78.722 53.0873C84.238 55.893 90.987 53.7016 93.7964 48.1927Z" fill="white" stroke="#B2B2B2" stroke-linecap="round" stroke-linejoin="round"/>
<path d="M89.7868 38.9847L90.7723 38.5237L91.5658 40.2279L90.5856 40.6837C90.9694 42.2999 90.1862 43.5845 88.3916 44.4237L87.9767 44.6153L87.0586 42.6521L87.6032 42.3931C88.5524 41.9528 88.7339 41.4089 88.4227 40.7459C88.1115 40.0828 87.5773 39.8756 86.6333 40.3159C83.9103 41.585 85.6738 45.7135 81.8927 47.4747C80.0929 48.3139 78.5784 48.0756 77.5826 46.7443L76.6178 47.195L75.8398 45.5115L76.8046 45.0608C76.4104 43.4239 77.2091 42.1289 79.0089 41.295L79.9321 40.8495L80.8502 42.8127L79.8128 43.2996C78.8637 43.7399 78.7185 44.3356 79.0297 44.9779C79.3409 45.6203 79.8699 45.8948 80.819 45.4545C83.542 44.1854 81.7734 40.0569 85.5597 38.2957C87.3231 37.4721 88.8013 37.6793 89.7868 38.9847Z" fill="white" stroke="#B2B2B2" stroke-linecap="round" stroke-linejoin="round"/>
<path d="M69.444 4.45617L34.793 30.073L79.1154 89.8725L113.766 64.2557L69.444 4.45617Z" fill="white" stroke="#B2B2B2" stroke-linecap="round" stroke-linejoin="round"/>
<path d="M40.9805 33.2198L77.09 81.948C77.4453 81.6869 77.8654 81.5279 78.3047 81.4882C78.744 81.4485 79.1859 81.5296 79.5823 81.7228C79.9788 81.916 80.3147 82.2138 80.5538 82.584C80.7929 82.9543 80.9259 83.3828 80.9385 83.8232L107.422 64.2428C107.003 64.104 106.63 63.8529 106.345 63.5169C106.059 63.1809 105.872 62.773 105.803 62.3378C105.734 61.9026 105.786 61.4568 105.953 61.0491C106.121 60.6414 106.397 60.2876 106.753 60.0263L70.643 11.3239C70.1263 11.702 69.4805 11.8599 68.8474 11.7627C68.2143 11.6656 67.6457 11.3215 67.2665 10.8059L41.4836 29.8631C41.8603 30.3757 42.0188 31.0162 41.9245 31.645C41.8303 32.2738 41.4909 32.8398 40.9805 33.2198Z" fill="white" stroke="#B2B2B2" stroke-linecap="round" stroke-linejoin="round"/>
<path d="M79.9301 56.849C85.2753 53.7308 87.0773 46.8755 83.9551 41.5372C80.8329 36.1989 73.9687 34.3991 68.6236 37.5173C63.2784 40.6355 61.4764 47.4909 64.5986 52.8292C67.7208 58.1674 74.5849 59.9672 79.9301 56.849Z" fill="white" stroke="#B2B2B2" stroke-linecap="round" stroke-linejoin="round"/>
<path d="M78.19 41.0256L78.9162 40.2175L80.3166 41.4711L79.5904 42.2792C80.5759 43.6156 80.3632 45.1023 79.0406 46.5786L78.7346 46.9204L77.1164 45.47L77.521 45.0194C78.216 44.2476 78.1693 43.6726 77.6247 43.1857C77.0801 42.6987 76.5096 42.7143 75.8094 43.4913C73.8021 45.7239 77.0438 48.8267 74.2534 51.9347C72.9256 53.4058 71.4422 53.7839 70.0055 52.9448L69.2949 53.7373L67.8945 52.4838L68.6051 51.6912C67.5989 50.3444 67.8271 48.837 69.1549 47.3659L69.824 46.62L71.4422 48.0704L70.6746 48.9199C69.9744 49.6969 70.0677 50.2823 70.6123 50.7692C71.1569 51.2561 71.7482 51.2872 72.4432 50.5102C74.4505 48.2724 71.2088 45.1696 73.9992 42.0668C75.3114 40.606 76.7585 40.2175 78.19 41.0256Z" fill="white" stroke="#B2B2B2" stroke-linecap="round" stroke-linejoin="round"/>
<path d="M52.9271 16.7611L18.7656 43.0256L64.2088 101.98L98.3702 75.7156L52.9271 16.7611Z" fill="white" stroke="#B2B2B2" stroke-linecap="round" stroke-linejoin="round"/>
<path d="M25.0156 46.0298L62.0433 94.0692C62.3922 93.7988 62.8089 93.6296 63.2477 93.5799C63.6865 93.5303 64.1306 93.6023 64.5312 93.7879C64.9318 93.9735 65.2736 94.2656 65.519 94.6323C65.7645 94.9989 65.9042 95.426 65.9229 95.8666L92.0326 75.7889C91.6107 75.6582 91.233 75.414 90.9408 75.0831C90.6486 74.7523 90.4533 74.3475 90.3762 73.9131C90.299 73.4787 90.3431 73.0315 90.5035 72.6205C90.6639 72.2094 90.9345 71.8504 91.2857 71.5828L54.2581 23.5538C54.0069 23.7474 53.7199 23.8896 53.4137 23.9723C53.1074 24.055 52.7878 24.0765 52.4731 24.0356C52.1585 23.9947 51.855 23.8922 51.5802 23.734C51.3053 23.5757 51.0643 23.3649 50.8712 23.1135L25.4565 42.6525C25.8437 43.1598 26.0146 43.7993 25.9321 44.4318C25.8495 45.0643 25.5201 45.6387 25.0156 46.0298V46.0298Z" fill="white" stroke="#B2B2B2" stroke-linecap="round" stroke-linejoin="round"/>
<path d="M69.6872 60.8141C70.4888 54.6839 66.1626 49.0654 60.0245 48.2649C53.8864 47.4644 48.2607 51.7849 47.4592 57.9152C46.6576 64.0454 50.9837 69.6638 57.1218 70.4644C63.2599 71.2649 68.8856 66.9443 69.6872 60.8141Z" fill="white" stroke="#B2B2B2" stroke-linecap="round" stroke-linejoin="round"/>
<path d="M62.5539 53.2818L63.2905 52.4841L64.6701 53.7532L63.9388 54.5509C64.9087 55.9029 64.6753 57.3844 63.3319 58.8452L63.0207 59.1819L61.4233 57.7107L61.833 57.2653C62.5384 56.4986 62.5021 55.9236 61.9627 55.4315C61.4232 54.9394 60.8475 54.9446 60.1422 55.7113C58.1038 57.9231 61.3091 61.0674 58.4824 64.1339C57.1391 65.5947 55.6453 65.9521 54.219 65.0922L53.4773 65.8589L52.0977 64.5898L52.8186 63.8076C51.828 62.4453 52.0769 60.9431 53.4203 59.4875L54.0997 58.7519L55.6972 60.2179L54.9192 61.0622C54.2138 61.8288 54.2968 62.4194 54.8362 62.9115C55.3756 63.4036 55.9617 63.4295 56.6723 62.6732C58.7055 60.4665 55.5053 57.3222 58.332 54.2505C59.7013 52.8105 61.1328 52.4375 62.5539 53.2818Z" fill="white" stroke="#B2B2B2" stroke-linecap="round" stroke-linejoin="round"/>
<path d="M29.1154 38.6604L6.09766 75.0662L69.0872 114.789L92.1049 78.3835L29.1154 38.6604Z" fill="white" stroke="#B2B2B2" stroke-linecap="round" stroke-linejoin="round"/>
<path d="M13.0229 75.7577L64.3709 108.122C64.6063 107.75 64.9394 107.449 65.3342 107.252C65.7289 107.055 66.17 106.971 66.6096 107.007C67.0493 107.043 67.4705 107.199 67.8275 107.458C68.1844 107.717 68.4636 108.068 68.6344 108.475L86.2276 80.6528C85.7868 80.6736 85.3487 80.5733 84.9611 80.3627C84.5735 80.1521 84.2511 79.8393 84.0291 79.4584C83.8071 79.0775 83.6941 78.6431 83.7022 78.2025C83.7103 77.7619 83.8393 77.3319 84.0751 76.9594L32.7271 44.5896C32.5584 44.8579 32.3384 45.0904 32.0797 45.2736C31.821 45.4569 31.5286 45.5874 31.2193 45.6576C30.91 45.7279 30.5898 45.7365 30.2772 45.683C29.9645 45.6295 29.6655 45.515 29.3973 45.3459L12.2812 72.4269C12.5493 72.5966 12.7813 72.8175 12.9637 73.0769C13.1461 73.3363 13.2755 73.6291 13.3444 73.9385C13.4133 74.248 13.4204 74.5679 13.3652 74.8801C13.3101 75.1923 13.1937 75.4905 13.0229 75.7577V75.7577Z" fill="white" stroke="#B2B2B2" stroke-linecap="round" stroke-linejoin="round"/>
<path d="M49.1029 87.9204C55.2931 87.9204 60.3113 82.9087 60.3113 76.7264C60.3113 70.5442 55.2931 65.5325 49.1029 65.5325C42.9127 65.5325 37.8945 70.5442 37.8945 76.7264C37.8945 82.9087 42.9127 87.9204 49.1029 87.9204Z" fill="white" stroke="#B2B2B2" stroke-linecap="round" stroke-linejoin="round"/>
<path d="M51.9557 70.1165L52.5418 69.2048L54.1238 70.2408L53.5377 71.1525C54.7254 72.3128 54.7514 73.815 53.6777 75.483L53.4339 75.8663L51.6031 74.6956L51.9298 74.1776C52.4952 73.297 52.3603 72.7376 51.7431 72.3439C51.1259 71.9502 50.5657 72.059 50.0004 72.9344C48.3718 75.4623 52.075 78.0108 49.8136 81.5177C48.74 83.1857 47.3344 83.7917 45.7836 83.196L45.2079 84.087L43.626 83.051L44.2017 82.16C42.9932 80.9893 42.9776 79.4664 44.0513 77.7985L44.5959 76.9541L46.4216 78.13L45.7992 79.0935C45.2338 79.9689 45.4205 80.5335 46.0326 80.9324C46.6446 81.3312 47.2359 81.2587 47.8012 80.3781C49.4298 77.8554 45.7266 75.3069 47.9879 71.8C49.0512 70.158 50.4101 69.5467 51.9557 70.1165Z" fill="white" stroke="#B2B2B2" stroke-linecap="round" stroke-linejoin="round"/>
<path d="M13.2876 59.3125L1 100.583L72.4061 121.788L84.6938 80.518L13.2876 59.3125Z" fill="white" stroke="#B2B2B2" stroke-linecap="round" stroke-linejoin="round"/>
<path d="M7.83692 99.3839L66.0209 116.659C66.1448 116.235 66.3832 115.854 66.7099 115.556C67.0367 115.259 67.4392 115.057 67.8732 114.973C68.3072 114.889 68.7561 114.926 69.1704 115.08C69.5848 115.234 69.9487 115.499 70.2221 115.846L79.61 84.2998C79.1394 84.4504 78.6335 84.4504 78.1629 84.2998C77.8591 84.21 77.5759 84.0614 77.3296 83.8624C77.0834 83.6633 76.8787 83.4178 76.7275 83.1397C76.5763 82.8617 76.4814 82.5566 76.4482 82.2419C76.4151 81.9272 76.4443 81.6091 76.5343 81.3057L18.3451 64.0408C18.2553 64.3442 18.1065 64.627 17.9072 64.873C17.7079 65.119 17.462 65.3233 17.1836 65.4743C16.9052 65.6254 16.5997 65.7202 16.2846 65.7533C15.9695 65.7864 15.651 65.7572 15.3472 65.6673L6.20312 96.3743C6.50915 96.4634 6.79446 96.6122 7.04256 96.812C7.29066 97.0119 7.49663 97.2589 7.64856 97.5388C7.80048 97.8187 7.89536 98.1258 7.92769 98.4425C7.96002 98.7592 7.92917 99.0792 7.83692 99.3839V99.3839Z" fill="white" stroke="#B2B2B2" stroke-linecap="round" stroke-linejoin="round"/>
<path d="M53.8744 92.4643C54.943 86.3749 50.8663 80.5733 44.769 79.5061C38.6717 78.439 32.8627 82.5103 31.7941 88.5998C30.7256 94.6893 34.8022 100.491 40.8995 101.558C46.9968 102.625 52.8059 98.5538 53.8744 92.4643Z" fill="white" stroke="#B2B2B2" stroke-linecap="round" stroke-linejoin="round"/>
<path d="M43.8875 83.4293L44.2194 82.3933L46.0088 82.9683L45.6769 84.0043C47.1292 84.8227 47.5389 86.268 46.9321 88.1483L46.792 88.5834L44.7174 87.9204L44.9041 87.3454C45.2257 86.356 44.9456 85.8484 44.2506 85.6256C43.5555 85.4029 43.0369 85.6515 42.6946 86.6616C41.7765 89.521 46.0089 91.0284 44.7329 95.0014C44.1261 96.887 42.9228 97.8401 41.2682 97.6588L40.9415 98.6689L39.1521 98.0991L39.4788 97.0631C38.011 96.2446 37.6012 94.7787 38.2081 92.888L38.5141 91.9349L40.5888 92.5979L40.2361 93.6909C39.9197 94.6855 40.2361 95.1827 40.9363 95.4055C41.6365 95.6282 42.1863 95.4055 42.4923 94.4161C43.4155 91.5567 39.1832 90.0494 40.4591 86.0763C41.0919 84.2167 42.2485 83.2739 43.8875 83.4293Z" fill="white" stroke="#B2B2B2" stroke-linecap="round" stroke-linejoin="round"/>
<path d="M76.159 132.657L76.332 89.6008L1.83656 89.3022L1.6635 132.358L76.159 132.657Z" fill="white" stroke="#B2B2B2" stroke-linecap="round" stroke-linejoin="round"/>
<path d="M70.1129 92.6807L9.42887 92.4373C9.42881 92.8785 9.30714 93.3111 9.07721 93.6879C8.84727 94.0646 8.51793 94.3709 8.12529 94.5731C7.73265 94.7753 7.29184 94.8657 6.85118 94.8343C6.41052 94.803 5.98701 94.6511 5.62705 94.3953L5.49219 127.304C5.89749 127.02 6.38177 126.869 6.87703 126.874C7.19375 126.875 7.50711 126.939 7.7992 127.061C8.09129 127.184 8.35641 127.362 8.5794 127.587C8.80239 127.811 8.9789 128.078 9.09884 128.37C9.21879 128.663 9.27982 128.977 9.27846 129.293L69.9625 129.536C69.9638 129.219 70.0277 128.906 70.1504 128.613C70.2731 128.321 70.4523 128.056 70.6777 127.833C70.9031 127.609 71.1703 127.433 71.4641 127.313C71.7579 127.193 72.0724 127.132 72.3898 127.133L72.5195 95.0998C72.2023 95.0991 71.8884 95.036 71.5957 94.914C71.303 94.792 71.0373 94.6135 70.8138 94.3888C70.5902 94.1641 70.4133 93.8976 70.293 93.6045C70.1727 93.3114 70.1115 92.9975 70.1129 92.6807V92.6807Z" fill="white" stroke="#B2B2B2" stroke-linecap="round" stroke-linejoin="round"/>
<path d="M49.613 114.566C51.5926 108.708 48.4426 102.357 42.5775 100.38C36.7123 98.4033 30.3529 101.549 28.3733 107.407C26.3938 113.264 29.5437 119.616 35.4089 121.593C41.2741 123.57 47.6335 120.424 49.613 114.566Z" fill="white" stroke="#B2B2B2" stroke-linecap="round" stroke-linejoin="round"/>
<path d="M40.1552 118.084V119.166H38.2724V118.084C36.649 117.742 35.8139 116.488 35.8243 114.504V114.048H37.9975V114.654C37.9975 115.69 38.4073 116.094 39.1386 116.1C39.8699 116.105 40.29 115.706 40.29 114.665C40.29 111.66 35.814 111.495 35.8347 107.325C35.8347 105.346 36.7009 104.077 38.3295 103.75V102.683H40.2122V103.745C41.8616 104.087 42.6914 105.361 42.6811 107.34V108.345H40.5131V107.2C40.5131 106.164 40.0618 105.776 39.3305 105.776C38.5992 105.776 38.1376 106.149 38.1324 107.19C38.1324 110.194 42.6137 110.355 42.5929 114.525C42.5877 116.478 41.763 117.736 40.1552 118.084Z" fill="white" stroke="#B2B2B2" stroke-linecap="round" stroke-linejoin="round"/>
</svg>
