<svg width="354" height="192" viewBox="0 0 354 192" fill="none" xmlns="http://www.w3.org/2000/svg">
<path d="M352.69 184.74H1" stroke="#263238" stroke-linecap="round" stroke-linejoin="round"/>
<path d="M331.518 18.94C331.518 18.94 331.518 14.82 325.748 9.06C319.978 3.3 316.278 0 316.278 0C316.278 0 313.388 9.47001 318.748 15.24C322.685 19.3045 326.957 23.031 331.518 26.38V18.94Z" fill="#A4EFFF"/>
<path d="M323.147 44.6702C323.147 44.6702 323.147 40.5502 317.377 34.7802C311.607 29.0102 307.907 25.7202 307.907 25.7202C307.907 25.7202 305.027 35.1902 310.377 40.9602C314.319 45.0227 318.59 48.7521 323.147 52.1102V44.6702Z" fill="#A4EFFF"/>
<path d="M331.147 25.96C331.147 25.96 331.587 21.86 337.927 16.73C344.267 11.6 348.307 8.72998 348.307 8.72998C348.307 8.72998 350.167 18.48 344.237 23.62C339.892 27.2372 335.253 30.4852 330.367 33.33L331.147 25.96Z" fill="#A4EFFF"/>
<path d="M321.038 56.34C321.038 56.34 321.908 52.34 328.748 47.88C335.588 43.42 339.898 41 339.898 41C339.898 41 340.728 50.87 334.318 55.39C329.619 58.5304 324.665 61.27 319.508 63.58L321.038 56.34Z" fill="#A4EFFF"/>
<path d="M322.945 89.4498C322.945 89.4498 322.945 85.3298 328.705 79.5698C334.465 73.8098 338.175 70.5098 338.175 70.5098C338.175 70.5098 341.065 79.9898 335.705 85.7498C331.774 89.82 327.506 93.55 322.945 96.8998V89.4498Z" fill="#A4EFFF"/>
<path d="M322.848 97.5401C322.848 97.5401 323.428 93.4601 318.538 86.9401C313.648 80.4201 310.458 76.6201 310.458 76.6201C310.458 76.6201 306.278 85.6201 310.748 92.0601C314.071 96.6342 317.771 100.922 321.808 104.88L322.848 97.5401Z" fill="#A4EFFF"/>
<path d="M317.156 121.49C317.156 121.49 317.156 117.38 322.926 111.61C328.696 105.84 332.396 102.61 332.396 102.61C332.396 102.61 335.286 112.08 329.926 117.84C325.99 121.908 321.718 125.638 317.156 128.99V121.49Z" fill="#A4EFFF"/>
<path d="M321.006 143.22C321.006 143.22 320.006 139.22 324.096 132.22C328.186 125.22 330.966 121.07 330.966 121.07C330.966 121.07 336.146 129.51 332.436 136.44C329.653 141.365 326.462 146.048 322.896 150.44L321.006 143.22Z" fill="#A4EFFF"/>
<path d="M332.038 17.9199C331.747 22.2057 331.219 26.4722 330.458 30.6999C328.178 42.4799 322.458 50.0799 320.198 60.6999C317.938 71.3199 324.468 85.0499 322.718 98.6999C320.968 112.35 315.638 119.96 317.138 129.08C318.638 138.2 326.638 162.88 326.638 162.88" stroke="#263238" stroke-width="1.17749" stroke-linecap="round" stroke-linejoin="round"/>
<path d="M331.098 28.6999L337.308 23.9199" stroke="#263238" stroke-width="1.17749" stroke-linecap="round" stroke-linejoin="round"/>
<path d="M331.379 23.2101L328.789 18.5801" stroke="#263238" stroke-width="1.17749" stroke-linecap="round" stroke-linejoin="round"/>
<path d="M320.547 60.2202C320.547 60.2202 325.747 56.3102 331.097 52.4102" stroke="#263238" stroke-width="1.17749" stroke-linecap="round" stroke-linejoin="round"/>
<path d="M323.148 52.0599C323.148 52.0599 318.808 43.5599 313.898 37.9199" stroke="#263238" stroke-width="1.17749" stroke-linecap="round" stroke-linejoin="round"/>
<path d="M323.148 95.3102C326.128 89.8383 329.883 84.8264 334.298 80.4302" stroke="#263238" stroke-width="1.17749" stroke-linecap="round" stroke-linejoin="round"/>
<path d="M322.137 101.09C320.542 97.3693 318.642 93.7871 316.457 90.3798C313.457 85.8998 312.977 85.3198 312.977 85.3198" stroke="#263238" stroke-width="1.17749" stroke-linecap="round" stroke-linejoin="round"/>
<path d="M317.156 129.07C318.477 125.795 320.045 122.626 321.846 119.59C323.645 116.763 325.672 114.087 327.906 111.59" stroke="#263238" stroke-width="1.17749" stroke-linecap="round" stroke-linejoin="round"/>
<path d="M322.886 150.39C322.585 147.265 323.123 144.117 324.446 141.27C326.616 137.08 329.066 131.58 330.086 129.42" stroke="#263238" stroke-width="1.17749" stroke-linecap="round" stroke-linejoin="round"/>
<path d="M293.758 73.9599C293.758 73.9599 293.308 71.3899 296.298 67.1399C299.288 62.8899 301.298 60.4199 301.298 60.4199C301.298 60.4199 304.128 66.0399 301.398 70.2399C299.37 73.2124 297.096 76.0089 294.598 78.5999L293.758 73.9599Z" fill="#A4EFFF"/>
<path d="M301.798 89.2202C301.798 89.2202 301.348 86.6302 304.338 82.3902C307.328 78.1502 309.338 75.6802 309.338 75.6802C309.338 75.6802 312.168 81.3102 309.438 85.5002C307.412 88.4745 305.137 91.2712 302.638 93.8602L301.798 89.2202Z" fill="#A4EFFF"/>
<path d="M294.747 78.3201C294.747 78.3201 294.047 75.8001 289.497 73.3201C284.947 70.8401 282.117 69.42 282.117 69.42C282.117 69.42 282.007 75.6901 286.297 78.3201C289.413 80.1174 292.675 81.6495 296.047 82.9L294.747 78.3201Z" fill="#A4EFFF"/>
<path d="M304.385 96.27C304.385 96.27 303.385 93.84 298.625 91.81C293.865 89.78 290.875 88.71 290.875 88.71C290.875 88.71 291.425 94.9799 295.955 97.1199C299.244 98.5784 302.649 99.7592 306.135 100.65L304.385 96.27Z" fill="#A4EFFF"/>
<path d="M306.787 117.22C306.787 117.22 306.337 114.64 302.097 111.65C297.857 108.66 295.167 106.99 295.167 106.99C295.167 106.99 294.387 113.26 298.377 116.28C301.285 118.393 304.366 120.256 307.587 121.85L306.787 117.22Z" fill="#A4EFFF"/>
<path d="M307.72 122.31C307.72 122.31 306.91 119.82 309.27 115.2C311.63 110.58 313.27 107.85 313.27 107.85C313.27 107.85 316.87 113.01 314.77 117.56C313.169 120.789 311.302 123.88 309.19 126.8L307.72 122.31Z" fill="#A4EFFF"/>
<path d="M314.96 143.14C314.96 143.14 315.26 140.54 319.32 137.31C323.38 134.08 325.97 132.31 325.97 132.31C325.97 132.31 327.11 138.51 323.3 141.77C320.517 144.046 317.55 146.086 314.43 147.87L314.96 143.14Z" fill="#A4EFFF"/>
<path d="M313.887 136.72C313.887 136.72 313.437 134.13 309.197 131.14C304.957 128.15 302.277 126.49 302.277 126.49C302.277 126.49 301.497 132.76 305.477 135.78C308.389 137.891 311.473 139.754 314.697 141.35L313.887 136.72Z" fill="#A4EFFF"/>
<path d="M313.825 150.76C313.825 150.76 314.055 148.14 310.705 144.18C307.355 140.22 305.185 137.91 305.185 137.91C305.185 137.91 302.845 143.76 305.935 147.71C308.217 150.496 310.726 153.088 313.435 155.46L313.825 150.76Z" fill="#A4EFFF"/>
<path d="M293.305 73.3599C293.956 76.0187 294.753 78.6394 295.695 81.2099C298.395 88.3399 302.795 92.4899 305.375 98.9099C307.955 105.33 305.375 114.64 307.925 123.01C310.475 131.38 314.675 135.55 314.705 141.46C314.735 147.37 312.455 163.7 312.455 163.7" stroke="#263238" stroke-width="1.17749" stroke-linecap="round" stroke-linejoin="round"/>
<path d="M295.078 80.0302L290.668 77.7202" stroke="#263238" stroke-width="1.17749" stroke-linecap="round" stroke-linejoin="round"/>
<path d="M294.297 76.6199L295.427 73.4399" stroke="#263238" stroke-width="1.17749" stroke-linecap="round" stroke-linejoin="round"/>
<path d="M305.116 98.6401C305.116 98.6401 301.426 96.7601 297.656 94.8901" stroke="#263238" stroke-width="1.17749" stroke-linecap="round" stroke-linejoin="round"/>
<path d="M302.598 93.86C303.682 90.4368 305.113 87.1331 306.868 84" stroke="#263238" stroke-width="1.17749" stroke-linecap="round" stroke-linejoin="round"/>
<path d="M307.295 120.94C304.835 117.833 301.938 115.098 298.695 112.82" stroke="#263238" stroke-width="1.17749" stroke-linecap="round" stroke-linejoin="round"/>
<path d="M308.555 124.46C309.139 121.961 309.932 119.516 310.925 117.15C312.315 114 312.555 113.59 312.555 113.59" stroke="#263238" stroke-width="1.17749" stroke-linecap="round" stroke-linejoin="round"/>
<path d="M314.516 145.92C315.947 144.143 317.533 142.496 319.256 141C320.353 140.187 321.383 139.288 322.336 138.31" stroke="#263238" stroke-width="1.17749" stroke-linecap="round" stroke-linejoin="round"/>
<path d="M314.709 141.46C313.514 139.552 312.177 137.737 310.709 136.03C309.273 134.462 307.711 133.014 306.039 131.7" stroke="#263238" stroke-width="1.17749" stroke-linecap="round" stroke-linejoin="round"/>
<path d="M313.457 155.46C313.298 153.458 312.607 151.536 311.457 149.89C309.637 147.49 307.457 144.31 306.637 143.06" stroke="#263238" stroke-width="1.17749" stroke-linecap="round" stroke-linejoin="round"/>
<path d="M332.639 191.86H306.379C305.858 191.86 305.356 191.656 304.983 191.292C304.609 190.928 304.392 190.432 304.379 189.91L300.609 160.85H338.329L334.559 189.91C334.547 190.418 334.342 190.903 333.985 191.265C333.628 191.627 333.147 191.84 332.639 191.86Z" fill="#263238"/>
<path d="M338.025 165.76H300.645C299.867 165.763 299.12 165.457 298.567 164.91C298.014 164.362 297.701 163.618 297.695 162.84V162.84C297.708 162.063 298.022 161.322 298.57 160.772C299.118 160.222 299.859 159.906 300.635 159.89H338.025C338.412 159.889 338.796 159.964 339.153 160.111C339.511 160.258 339.837 160.475 340.111 160.748C340.385 161.021 340.602 161.345 340.751 161.703C340.899 162.06 340.975 162.443 340.975 162.83V162.83C340.974 163.216 340.897 163.598 340.748 163.954C340.599 164.311 340.381 164.634 340.107 164.906C339.833 165.178 339.508 165.394 339.151 165.54C338.794 165.687 338.411 165.761 338.025 165.76V165.76Z" fill="#263238"/>
</svg>
