<svg width="319" height="192" viewBox="0 0 319 192" fill="none" xmlns="http://www.w3.org/2000/svg">
<path opacity="0.3" d="M125.592 137.446V134.509C125.592 128.718 121.728 126.667 117.786 126.667C116.756 126.648 115.733 126.839 114.779 127.228C113.825 127.617 112.96 128.196 112.238 128.93C111.516 129.664 110.951 130.537 110.578 131.497C110.205 132.456 110.031 133.481 110.068 134.509V137.446H108.969V153.701H126.603V137.446H125.592ZM118.305 146.366V149.309H116.635V146.366C116.155 146.173 115.757 145.818 115.51 145.364C115.263 144.91 115.182 144.384 115.28 143.876C115.379 143.369 115.652 142.911 116.051 142.582C116.45 142.253 116.952 142.074 117.47 142.074C117.987 142.074 118.489 142.253 118.888 142.582C119.288 142.911 119.56 143.369 119.659 143.876C119.758 144.384 119.677 144.91 119.43 145.364C119.182 145.818 118.785 146.173 118.305 146.366V146.366ZM123.149 137.431H112.423V134.494C112.426 133.075 112.992 131.714 113.997 130.711C115.003 129.708 116.365 129.144 117.786 129.143C120.742 129.143 123.149 131.163 123.149 134.494V137.431Z" stroke="black" stroke-miterlimit="10"/>
<path opacity="0.3" d="M294.409 4.26855H244.441C240.579 4.26855 237.449 7.39363 237.449 11.2486C237.449 15.1036 240.579 18.2287 244.441 18.2287H294.409C298.271 18.2287 301.401 15.1036 301.401 11.2486C301.401 7.39363 298.271 4.26855 294.409 4.26855Z" stroke="black" stroke-miterlimit="10"/>
<g opacity="0.3">
<path opacity="0.3" d="M250.75 10.5986L252.202 12.2044L251.502 12.7224L250.418 10.811L249.344 12.7224L248.644 12.2044L250.097 10.5986L247.965 10.1583L248.229 9.31912L250.237 10.1997L249.988 8.0293H250.869L250.615 10.1997L252.623 9.33466L252.882 10.1738L250.75 10.5986Z" fill="black"/>
<path opacity="0.3" d="M256.176 10.5986L257.633 12.2044L256.933 12.7224L255.849 10.811L254.765 12.7224L254.065 12.2044L255.507 10.5986L253.375 10.1583L253.634 9.31912L255.642 10.1997L255.398 8.0293H256.274L256.041 10.1997L258.048 9.33466L258.313 10.1738L256.176 10.5986Z" fill="black"/>
<path opacity="0.3" d="M261.607 10.5986L263.064 12.2044L262.364 12.7224L261.275 10.811L260.206 12.7224L259.501 12.2044L260.948 10.5986L258.816 10.1583L259.076 9.31912L261.083 10.1997L260.839 8.0293H261.716L261.508 10.1997L263.516 9.33466L263.78 10.1738L261.607 10.5986Z" fill="black"/>
<path opacity="0.3" d="M267.038 10.5986L268.495 12.2044L267.795 12.7224L266.696 10.8161L265.658 12.7224L264.958 12.2044L266.405 10.5986L264.273 10.1583L264.533 9.31912L266.54 10.1997L266.291 8.0293H267.173L266.939 10.1997L268.947 9.33466L269.206 10.1738L267.038 10.5986Z" fill="black"/>
<path opacity="0.3" d="M272.467 10.5986L273.925 12.2044L273.22 12.7224L272.136 10.811L271.062 12.7224L270.362 12.2044L271.804 10.5986L269.672 10.1583L269.936 9.31912L271.944 10.1997L271.695 8.0293H272.576L272.343 10.1997L274.35 9.33466L274.61 10.1738L272.467 10.5986Z" fill="black"/>
<path opacity="0.3" d="M277.892 10.5986L279.349 12.2044L278.649 12.7224L277.586 10.8161L276.492 12.7224L275.791 12.2044L277.233 10.5986L275.102 10.1583L275.361 9.31912L277.368 10.1997L277.124 8.0293H278.001L277.768 10.1997L279.775 9.33466L280.039 10.1738L277.892 10.5986Z" fill="black"/>
<path opacity="0.3" d="M283.322 10.5986L284.779 12.2044L284.079 12.7224L282.99 10.811L281.921 12.7224L281.216 12.2044L282.663 10.5986L280.531 10.1583L280.791 9.31912L282.798 10.1997L282.554 8.0293H283.431L283.197 10.1997L285.204 9.33466L285.469 10.1738L283.322 10.5986Z" fill="black"/>
<path opacity="0.3" d="M288.751 10.5986L290.209 12.2044L289.514 12.7224L288.425 10.811L287.346 12.7224L286.646 12.2044L288.093 10.5986L285.961 10.1583L286.22 9.31912L288.228 10.1997L287.958 8.0293H288.84L288.606 10.1997L290.613 9.33466L290.873 10.1738L288.751 10.5986Z" fill="black"/>
</g>
<g opacity="0.3">
<path opacity="0.3" d="M5.99994 50.4375C6.00097 49.9435 5.85522 49.4602 5.58114 49.049C5.30707 48.6377 4.91699 48.3169 4.46027 48.1271C4.00355 47.9373 3.50072 47.8871 3.01544 47.9829C2.53015 48.0786 2.08421 48.316 1.73406 48.665C1.38392 49.014 1.1453 49.4588 1.04842 49.9433C0.951535 50.4278 1.00074 50.93 1.1898 51.3866C1.37887 51.8431 1.69929 52.2333 2.11052 52.5079C2.52175 52.7825 3.0053 52.9291 3.49997 52.9291C4.16211 52.9291 4.7972 52.6667 5.26589 52.1996C5.73457 51.7325 5.99857 51.0988 5.99994 50.4375V50.4375Z" stroke="black" stroke-miterlimit="10"/>
<path opacity="0.3" d="M26.8398 50.4375C26.8408 49.9432 26.6949 49.4598 26.4206 49.0484C26.1463 48.637 25.7559 48.3162 25.2989 48.1266C24.8419 47.937 24.3388 47.8871 23.8534 47.9833C23.3679 48.0794 22.922 48.3173 22.5721 48.6668C22.2221 49.0163 21.9839 49.4617 21.8876 49.9465C21.7913 50.4313 21.8413 50.9337 22.0311 51.3902C22.221 51.8466 22.5422 52.2365 22.9541 52.5104C23.3661 52.7844 23.8501 52.9301 24.345 52.9291C25.0067 52.9291 25.6412 52.6666 26.1091 52.1993C26.577 51.732 26.8398 51.0983 26.8398 50.4375Z" stroke="black" stroke-miterlimit="10"/>
<path opacity="0.3" d="M45.1367 52.9344C46.5174 52.9344 47.6367 51.8166 47.6367 50.4377C47.6367 49.0588 46.5174 47.9409 45.1367 47.9409C43.756 47.9409 42.6367 49.0588 42.6367 50.4377C42.6367 51.8166 43.756 52.9344 45.1367 52.9344Z" stroke="black" stroke-miterlimit="10"/>
<path opacity="0.3" d="M5.99994 66.2365C5.99994 65.7427 5.85332 65.26 5.57862 64.8494C5.30392 64.4388 4.91348 64.1188 4.45667 63.9298C3.99986 63.7408 3.4972 63.6914 3.01225 63.7877C2.52731 63.8841 2.08185 64.1219 1.73223 64.471C1.3826 64.8202 1.1445 65.2651 1.04804 65.7494C0.951576 66.2337 1.00108 66.7358 1.1903 67.192C1.37952 67.6482 1.69994 68.0381 2.11106 68.3125C2.52218 68.5868 3.00552 68.7333 3.49997 68.7333C3.82846 68.7339 4.15386 68.6698 4.45748 68.5446C4.7611 68.4194 5.03696 68.2355 5.26924 68.0035C5.50152 67.7715 5.68564 67.496 5.81103 67.1928C5.93643 66.8896 6.00062 66.5646 5.99994 66.2365V66.2365Z" stroke="black" stroke-miterlimit="10"/>
<path opacity="0.3" d="M26.8398 66.2365C26.8398 65.7425 26.693 65.2595 26.4181 64.8488C26.1432 64.4381 25.7524 64.1181 25.2953 63.9293C24.8382 63.7405 24.3353 63.6913 23.8502 63.7881C23.3651 63.8849 22.9197 64.1232 22.5702 64.4729C22.2208 64.8226 21.9831 65.2679 21.8873 65.7526C21.7914 66.2372 21.8416 66.7394 22.0316 67.1956C22.2216 67.6517 22.5429 68.0413 22.9547 68.315C23.3665 68.5887 23.8503 68.7343 24.345 68.7332C24.6731 68.7332 24.9979 68.6686 25.3009 68.5431C25.6039 68.4176 25.8792 68.2336 26.1109 68.0017C26.3427 67.7697 26.5263 67.4945 26.6514 67.1916C26.7764 66.8887 26.8405 66.5641 26.8398 66.2365V66.2365Z" stroke="black" stroke-miterlimit="10"/>
<path opacity="0.3" d="M47.6328 66.2365C47.6328 65.7425 47.486 65.2595 47.2111 64.8488C46.9361 64.4381 46.5454 64.1181 46.0883 63.9293C45.6312 63.7405 45.1282 63.6913 44.6432 63.7881C44.1581 63.8849 43.7126 64.1232 43.3632 64.4729C43.0138 64.8226 42.7761 65.2679 42.6802 65.7526C42.5843 66.2372 42.6346 66.7394 42.8246 67.1956C43.0146 67.6517 43.3359 68.0413 43.7477 68.315C44.1595 68.5887 44.6433 68.7343 45.138 68.7332C45.466 68.7332 45.7909 68.6686 46.0939 68.5431C46.3969 68.4176 46.6722 68.2336 46.9039 68.0017C47.1356 67.7697 47.3193 67.4945 47.4444 67.1916C47.5694 66.8887 47.6334 66.5641 47.6328 66.2365V66.2365Z" stroke="black" stroke-miterlimit="10"/>
<path opacity="0.3" d="M5.99994 82.0405C6.00097 81.5465 5.85522 81.0633 5.58114 80.652C5.30707 80.2407 4.91699 79.9199 4.46027 79.7301C4.00355 79.5403 3.50072 79.4902 3.01544 79.5859C2.53015 79.6817 2.08421 79.9191 1.73406 80.268C1.38392 80.617 1.1453 81.0619 1.04842 81.5463C0.951535 82.0308 1.00074 82.5331 1.1898 82.9896C1.37887 83.4461 1.69929 83.8364 2.11052 84.111C2.52175 84.3856 3.0053 84.5321 3.49997 84.5321C4.16211 84.5321 4.7972 84.2698 5.26589 83.8027C5.73457 83.3355 5.99857 82.7018 5.99994 82.0405V82.0405Z" stroke="black" stroke-miterlimit="10"/>
<path opacity="0.3" d="M26.8398 82.0405C26.8408 81.5463 26.6949 81.0628 26.4206 80.6514C26.1463 80.2401 25.7559 79.9192 25.2989 79.7296C24.8419 79.54 24.3388 79.4901 23.8534 79.5863C23.3679 79.6825 22.922 79.9204 22.5721 80.2699C22.2221 80.6194 21.9839 81.0647 21.8876 81.5495C21.7913 82.0343 21.8413 82.5368 22.0311 82.9932C22.221 83.4497 22.5422 83.8395 22.9541 84.1135C23.3661 84.3875 23.8501 84.5331 24.345 84.5321C25.0067 84.5321 25.6412 84.2696 26.1091 83.8023C26.577 83.3351 26.8398 82.7013 26.8398 82.0405Z" stroke="black" stroke-miterlimit="10"/>
<path opacity="0.3" d="M47.6328 82.0405C47.6338 81.5463 47.4879 81.0628 47.2136 80.6514C46.9393 80.2401 46.5489 79.9192 46.0919 79.7296C45.6349 79.54 45.1318 79.4901 44.6463 79.5863C44.1609 79.6825 43.715 79.9204 43.365 80.2699C43.0151 80.6194 42.7769 81.0647 42.6806 81.5495C42.5843 82.0343 42.6342 82.5368 42.8241 82.9932C43.014 83.4497 43.3352 83.8395 43.7471 84.1135C44.159 84.3875 44.6431 84.5331 45.138 84.5321C45.7996 84.5321 46.4342 84.2696 46.9021 83.8023C47.3699 83.3351 47.6328 82.7013 47.6328 82.0405Z" stroke="black" stroke-miterlimit="10"/>
</g>
<path opacity="0.3" d="M310.405 86.9417C314.783 82.5702 314.783 75.4826 310.405 71.111C306.028 66.7395 298.932 66.7395 294.554 71.111C290.177 75.4826 290.177 82.5702 294.554 86.9417C298.932 91.3132 306.028 91.3132 310.405 86.9417Z" stroke="black" stroke-miterlimit="10"/>
<g opacity="0.3">
<path opacity="0.3" d="M303.636 86.1281V87.2107H301.753V86.1229C300.124 85.7862 299.294 84.5275 299.305 82.5487V82.0877H301.478V82.6937C301.478 83.7297 301.893 84.1338 302.624 84.1338C303.356 84.1338 303.776 83.7453 303.776 82.6989C303.776 79.6997 299.3 79.5339 299.315 75.364C299.315 73.3801 300.187 72.111 301.815 71.7846V70.7383H303.693V71.8054C305.337 72.1421 306.167 73.4215 306.162 75.4003V76.4H303.983V75.2501C303.983 74.2141 303.532 73.8307 302.801 73.8307C302.069 73.8307 301.608 74.1985 301.602 75.2397C301.602 78.2441 306.084 78.4099 306.063 82.5798C306.063 84.5326 305.244 85.7603 303.636 86.1281Z" stroke="black" stroke-miterlimit="10"/>
</g>
<path opacity="0.3" d="M122.302 186.1C125.116 183.291 125.116 178.735 122.302 175.925C119.489 173.115 114.927 173.115 112.114 175.925C109.3 178.735 109.3 183.291 112.114 186.1C114.927 188.91 119.489 188.91 122.302 186.1Z" stroke="black" stroke-miterlimit="10"/>
<g opacity="0.3">
<path opacity="0.3" d="M117.948 185.574V186.252H116.74V185.553C115.702 185.335 115.184 184.517 115.184 183.258V182.963H116.579V183.351C116.579 184.02 116.843 184.279 117.31 184.279C117.777 184.279 118.052 184.025 118.052 183.357C118.052 181.43 115.178 181.321 115.189 178.643C115.189 177.369 115.744 176.571 116.791 176.343V175.659H118V176.343C119.037 176.561 119.592 177.379 119.587 178.653V179.296H118.192V178.56C118.192 177.892 117.901 177.648 117.435 177.648C116.968 177.648 116.667 177.887 116.662 178.555C116.662 180.482 119.54 180.591 119.53 183.269C119.509 184.548 118.98 185.351 117.948 185.574Z" stroke="black" stroke-miterlimit="10"/>
</g>
<path opacity="0.3" d="M204.138 15.39C205.563 15.3961 206.958 14.98 208.146 14.1943C209.335 13.4086 210.263 12.2886 210.814 10.9759C211.364 9.66326 211.513 8.21695 211.241 6.81993C210.968 5.42291 210.287 4.13794 209.283 3.12757C208.28 2.1172 206.999 1.42681 205.602 1.14374C204.205 0.860675 202.756 0.997642 201.437 1.53732C200.119 2.07699 198.99 2.99513 198.194 4.1756C197.398 5.35606 196.97 6.74581 196.965 8.16906C196.961 9.11368 197.143 10.0498 197.501 10.9241C197.86 11.7983 198.387 12.5934 199.053 13.264C199.719 13.9346 200.511 14.4675 201.384 14.8323C202.256 15.1971 203.192 15.3866 204.138 15.39V15.39Z" stroke="black" stroke-miterlimit="10"/>
<g opacity="0.3">
<path opacity="0.3" d="M204.902 12.7586V13.4528H203.694V12.7535C202.656 12.5359 202.112 11.7175 202.138 10.4535V10.1583H203.533V10.5468C203.533 11.2202 203.797 11.474 204.269 11.4792C204.741 11.4844 205.006 11.2254 205.011 10.5571C205.011 8.62499 202.132 8.52139 202.143 5.83815C202.143 4.56905 202.703 3.76615 203.751 3.54341V2.88037H204.97V3.55377C206.033 3.77133 206.562 4.58977 206.557 5.86405V6.50637H205.161V5.76563C205.161 5.09223 204.866 4.85395 204.399 4.84877C203.932 4.84359 203.631 5.08705 203.631 5.75527C203.631 7.68741 206.505 7.79101 206.494 10.4743C206.463 11.733 205.939 12.5359 204.902 12.7586Z" stroke="black" stroke-miterlimit="10"/>
</g>
<path opacity="0.3" d="M31.7497 35.1483C35.4848 31.418 35.4848 25.3701 31.7497 21.6398C28.0146 17.9096 21.9589 17.9096 18.2239 21.6398C14.4888 25.3701 14.4888 31.418 18.2239 35.1483C21.9589 38.8785 28.0146 38.8785 31.7497 35.1483Z" stroke="black" stroke-miterlimit="10"/>
<g opacity="0.3">
<path opacity="0.3" d="M25.9755 34.4781V35.4002H24.3676V34.447C22.9776 34.157 22.293 33.0847 22.293 31.3908V31.0023H24.1446V31.5203C24.1446 32.4113 24.4973 32.748 25.1197 32.7532C25.7421 32.7583 26.1 32.4165 26.1052 31.5255C26.1052 28.9666 22.2826 28.8267 22.2982 25.2681C22.2982 23.5742 23.0398 22.4916 24.4299 22.2119V21.3105H26.0326V22.217C27.4433 22.5071 28.1487 23.6001 28.1435 25.2888V26.1435H26.2763V25.1541C26.2763 24.2631 25.8873 23.942 25.239 23.9368C24.5907 23.9316 24.2017 24.2528 24.2017 25.1437C24.2017 27.7337 28.0242 27.8477 28.0087 31.4064C28.0502 33.0899 27.3604 34.1518 25.9755 34.4781Z" stroke="black" stroke-miterlimit="10"/>
</g>
</svg>
