<svg width="308" height="186" viewBox="0 0 308 186" fill="none" xmlns="http://www.w3.org/2000/svg">
<path d="M30.216 1H278.995C279.956 1 280.908 1.18981 281.797 1.55859C282.685 1.92737 283.492 2.46789 284.172 3.14931C284.852 3.83073 285.391 4.6397 285.759 5.53001C286.127 6.42033 286.316 7.37456 286.316 8.33823V172.366H22.9062V8.33248C22.9078 6.38925 23.6782 4.52595 25.0486 3.15134C26.4189 1.77673 28.2773 1.00305 30.216 1V1Z" fill="#263238" stroke="#263238" stroke-linecap="round" stroke-linejoin="round"/>
<path d="M245.729 164.117H64.7031V173.057H245.729V164.117Z" fill="#263238" stroke="#263238" stroke-linecap="round" stroke-linejoin="round"/>
<path d="M245.729 168.42H64.7031V173.057H245.729V168.42Z" fill="white" stroke="#263238" stroke-linecap="round" stroke-linejoin="round"/>
<path d="M1.60156 178.356C1.60156 178.356 4.57833 181.996 13.4972 184.98H296.929C296.929 184.98 303.537 183.321 306.508 178.684L1.60156 178.356Z" fill="#263238" stroke="#263238" stroke-linecap="round" stroke-linejoin="round"/>
<path d="M304.93 171.83H3.21821C1.99313 171.83 1 172.825 1 174.053V176.571C1 177.798 1.99313 178.794 3.21821 178.794H304.93C306.155 178.794 307.148 177.798 307.148 176.571V174.053C307.148 172.825 306.155 171.83 304.93 171.83Z" fill="white" stroke="#263238" stroke-linecap="round" stroke-linejoin="round"/>
<path d="M156.867 6.17802C156.867 5.72234 156.732 5.27688 156.479 4.89799C156.227 4.5191 155.868 4.22379 155.448 4.04941C155.028 3.87502 154.566 3.82939 154.12 3.91829C153.674 4.00719 153.264 4.22663 152.943 4.54885C152.621 4.87107 152.402 5.2816 152.314 5.72853C152.225 6.17547 152.271 6.63872 152.445 7.05973C152.618 7.48073 152.913 7.84057 153.291 8.09373C153.669 8.3469 154.114 8.48203 154.568 8.48203C155.178 8.48203 155.762 8.23928 156.194 7.8072C156.625 7.37512 156.867 6.78908 156.867 6.17802Z" fill="#263238"/>
<path d="M25.3874 49.2225C25.2122 49.2225 25.0441 49.1527 24.9201 49.0285C24.7962 48.9043 24.7266 48.7358 24.7266 48.5601V29.3563C24.7281 29.181 24.7982 29.0134 24.9218 28.8895C25.0454 28.7656 25.2126 28.6954 25.3874 28.6938V28.6938C25.5627 28.6938 25.7308 28.7636 25.8547 28.8879C25.9787 29.0121 26.0483 29.1806 26.0483 29.3563V48.5601C26.0491 48.6473 26.0325 48.7338 25.9996 48.8145C25.9666 48.8952 25.918 48.9685 25.8565 49.0302C25.7949 49.0919 25.7218 49.1406 25.6412 49.1736C25.5607 49.2067 25.4744 49.2233 25.3874 49.2225Z" fill="#263238" stroke="white" stroke-width="0.691688" stroke-linejoin="round"/>
<path d="M275.626 14.3862H33.5938V151.48H275.626V14.3862Z" fill="white" stroke="#263238" stroke-linecap="round" stroke-linejoin="round"/>
<path d="M275.628 14.3862H73.8164V22.4963H275.628V14.3862Z" fill="#A4EFFF" stroke="#263238" stroke-linecap="round" stroke-linejoin="round"/>
</svg>
