<svg width="340" height="201" viewBox="0 0 340 201" fill="none" xmlns="http://www.w3.org/2000/svg">
<path d="M311.803 185.212C328.919 171.501 338.774 150.693 339.08 128.781C339.272 114.972 338.281 97.6186 333.634 82.7727C318.313 33.801 275.019 7.26906 243.35 1.57106C211.68 -4.12694 179.066 6.29522 154.476 22.8091C129.886 39.3229 132.256 36.4998 90.1874 30.3615C48.1183 24.2232 13.6218 42.1771 2.27858 75.2203C-9.06467 108.264 25.437 126.994 29.2181 144.301C32.9992 161.607 26.3655 192.299 92.0909 199.851C157.816 207.404 177.671 170.584 210.264 180.97C236.508 189.325 275.606 214.189 311.803 185.212Z" fill="#A4EFFF"/>
<path opacity="0.7" d="M311.803 185.212C328.919 171.501 338.774 150.693 339.08 128.781C339.272 114.972 338.281 97.6186 333.634 82.7727C318.313 33.801 275.019 7.26906 243.35 1.57106C211.68 -4.12694 179.066 6.29522 154.476 22.8091C129.886 39.3229 132.256 36.4998 90.1874 30.3615C48.1183 24.2232 13.6218 42.1771 2.27858 75.2203C-9.06467 108.264 25.437 126.994 29.2181 144.301C32.9992 161.607 26.3655 192.299 92.0909 199.851C157.816 207.404 177.671 170.584 210.264 180.97C236.508 189.325 275.606 214.189 311.803 185.212Z" fill="white"/>
</svg>
