<svg width="369" height="192" viewBox="0 0 369 192" fill="none" xmlns="http://www.w3.org/2000/svg">
<path d="M353.742 165.912C353.742 165.912 355.466 164.581 355.593 164.484C356.742 163.332 358.317 160.452 357.506 158.839C357.364 158.572 357.167 158.338 356.928 158.153C356.689 157.968 356.414 157.835 356.121 157.763C355.828 157.691 355.523 157.682 355.226 157.737C354.929 157.791 354.646 157.907 354.397 158.078C353.317 158.764 352.857 160.279 352.754 161.488C352.645 162.911 353.742 165.906 353.742 165.912Z" fill="#263238"/>
<path d="M368.332 162.56C367.022 161.298 363.809 161.949 362.384 162.727C362.263 162.79 360.453 164.057 360.476 164.08H360.511C360.005 164.178 359.459 164.288 358.867 164.426C357.781 164.679 356.568 165.002 355.235 165.399C353.815 165.835 352.42 166.35 351.057 166.943C349.532 167.608 348.067 168.404 346.678 169.322C346.678 169.322 346.65 169.351 346.632 169.357C346.96 168.942 347.851 167.75 347.908 167.629C348.724 166.223 349.477 163.021 348.264 161.679C348.057 161.459 347.806 161.286 347.527 161.171C347.249 161.055 346.949 161 346.648 161.008C346.346 161.016 346.05 161.088 345.778 161.218C345.506 161.349 345.265 161.535 345.069 161.765C344.207 162.715 344.161 164.299 344.385 165.492C344.638 166.839 346.339 169.264 346.472 169.46C345.085 170.433 343.764 171.497 342.518 172.646C341.788 173.308 341.07 174.005 340.363 174.708C340.639 174.339 340.886 174.005 340.937 173.953C341.754 172.553 342.506 169.345 341.294 168.003C341.086 167.784 340.834 167.611 340.555 167.495C340.276 167.38 339.976 167.324 339.674 167.332C339.372 167.34 339.076 167.412 338.803 167.542C338.531 167.673 338.289 167.859 338.093 168.089C337.231 169.04 337.185 170.624 337.409 171.816C337.633 173.008 339.047 175.128 339.426 175.681L338.616 176.493C337.334 177.807 336.059 179.126 334.766 180.375C334.312 180.819 333.846 181.239 333.386 181.66C333.628 181.332 333.835 181.049 333.858 181.003C334.674 179.604 335.426 176.395 334.214 175.053C334.006 174.834 333.755 174.661 333.477 174.546C333.198 174.43 332.898 174.375 332.597 174.383C332.296 174.391 332 174.463 331.728 174.593C331.456 174.723 331.214 174.91 331.019 175.14C330.157 176.09 330.111 177.674 330.335 178.866C330.559 180.059 331.835 181.971 332.283 182.628C331.795 183.042 331.306 183.463 330.818 183.843C330.479 184.096 330.168 184.361 329.812 184.598L328.778 185.312C328.099 185.738 327.41 186.187 326.743 186.585L325.364 187.42C325.818 186.982 326.697 186.112 326.766 186.032C327.619 184.887 328.165 183.543 328.352 182.127C328.455 182.003 328.545 181.87 328.622 181.729C328.775 181.468 328.871 181.178 328.904 180.878C328.937 180.578 328.907 180.274 328.816 179.986C328.724 179.698 328.573 179.432 328.372 179.207C328.172 178.981 327.926 178.8 327.651 178.676C325.979 177.974 323.215 179.736 322.163 180.98C322.1 181.049 321.514 181.919 321.152 182.472C321.313 182.115 321.479 181.769 321.64 181.401C321.968 180.669 322.272 179.932 322.606 179.143L323.048 177.991C323.209 177.599 323.324 177.167 323.462 176.752C323.766 175.791 324.037 174.794 324.272 173.786C324.91 174.074 327.186 175.059 328.404 175.059C329.622 175.059 331.157 174.731 331.932 173.705C332.123 173.471 332.263 173.199 332.342 172.907C332.42 172.615 332.437 172.31 332.391 172.011C332.344 171.712 332.235 171.426 332.071 171.172C331.907 170.919 331.691 170.702 331.438 170.537C329.887 169.587 326.893 170.912 325.663 171.977C325.582 172.041 324.789 172.899 324.358 173.383C324.502 172.778 324.646 172.173 324.766 171.557C325.117 169.771 325.421 167.951 325.726 166.143L326.019 164.484C326.249 164.587 328.927 165.814 330.295 165.82C331.501 165.82 333.047 165.486 333.823 164.461C334.014 164.226 334.152 163.954 334.231 163.663C334.309 163.371 334.325 163.066 334.278 162.767C334.231 162.469 334.122 162.184 333.957 161.931C333.792 161.678 333.576 161.462 333.323 161.298C331.777 160.348 328.778 161.673 327.576 162.733C327.479 162.813 326.335 164.052 326.059 164.386C326.278 163.165 326.508 161.955 326.778 160.768C327.142 159.168 327.606 157.593 328.168 156.051C328.272 156.103 331.042 157.393 332.467 157.399C333.674 157.399 335.22 157.065 335.995 156.045C336.186 155.81 336.325 155.538 336.403 155.246C336.482 154.954 336.498 154.648 336.451 154.349C336.404 154.051 336.294 153.765 336.13 153.511C335.965 153.258 335.749 153.042 335.495 152.877C333.95 151.927 330.95 153.252 329.749 154.311C329.651 154.398 328.421 155.728 328.214 155.988C328.249 155.901 328.272 155.803 328.306 155.717C328.914 154.187 329.657 152.714 330.525 151.316C330.996 150.539 331.49 149.819 331.984 149.133C332.478 149.427 334.76 150.746 336.007 150.89C337.254 151.034 338.782 150.861 339.662 149.934C339.877 149.722 340.045 149.467 340.156 149.186C340.266 148.904 340.316 148.603 340.303 148.3C340.289 147.998 340.212 147.703 340.077 147.432C339.942 147.162 339.751 146.923 339.518 146.731C338.081 145.614 334.955 146.605 333.622 147.52C333.547 147.572 332.863 148.16 332.369 148.598C332.599 148.292 332.829 147.97 333.053 147.682C333.892 146.593 334.731 145.648 335.478 144.802C335.903 144.329 336.3 143.915 336.679 143.529C337.317 143.563 339.886 143.673 341.041 143.223C342.196 142.774 343.489 141.922 343.845 140.683C343.939 140.396 343.971 140.092 343.939 139.791C343.908 139.491 343.813 139.2 343.662 138.939C343.51 138.677 343.306 138.451 343.061 138.274C342.816 138.097 342.537 137.974 342.242 137.913C340.461 137.584 338.139 139.906 337.375 141.34C337.311 141.461 336.495 143.517 336.53 143.523H336.57C336.202 143.886 335.811 144.278 335.421 144.721C334.651 145.533 333.794 146.449 332.927 147.538C331.981 148.686 331.103 149.888 330.295 151.138C329.384 152.534 328.599 154.008 327.95 155.544C327.953 155.563 327.953 155.583 327.95 155.602C328.002 155.072 328.082 153.58 328.076 153.465C327.985 151.846 326.852 148.765 325.1 148.281C324.805 148.213 324.5 148.208 324.204 148.266C323.908 148.325 323.627 148.444 323.38 148.618C323.133 148.792 322.925 149.016 322.77 149.275C322.615 149.535 322.516 149.824 322.479 150.124C322.284 151.391 323.117 152.739 323.956 153.609C324.91 154.594 327.668 155.677 327.887 155.763C327.263 157.341 326.747 158.959 326.341 160.607C326.094 161.569 325.881 162.543 325.68 163.522C325.68 163.061 325.726 162.646 325.72 162.589C325.628 160.964 324.502 157.883 322.744 157.405C322.449 157.336 322.144 157.331 321.847 157.388C321.551 157.446 321.27 157.566 321.023 157.74C320.775 157.914 320.567 158.138 320.412 158.398C320.257 158.657 320.159 158.947 320.123 159.248C319.928 160.515 320.761 161.863 321.606 162.733C322.45 163.602 324.789 164.587 325.41 164.835L325.186 165.987C324.841 167.796 324.496 169.599 324.111 171.355C323.973 171.977 323.818 172.582 323.663 173.187C323.663 172.778 323.703 172.438 323.697 172.381C323.606 170.762 322.479 167.68 320.721 167.197C320.427 167.129 320.121 167.124 319.825 167.182C319.529 167.24 319.248 167.36 319.001 167.534C318.754 167.708 318.547 167.932 318.391 168.191C318.236 168.45 318.137 168.74 318.1 169.04C317.905 170.307 318.738 171.655 319.583 172.525C320.428 173.394 322.542 174.287 323.278 174.587C323.1 175.203 322.922 175.819 322.703 176.407C322.554 176.81 322.445 177.202 322.278 177.593C322.111 177.985 321.962 178.377 321.807 178.745C321.479 179.471 321.146 180.231 320.813 180.934C320.583 181.424 320.353 181.89 320.123 182.357C320.267 181.741 320.525 180.531 320.531 180.427C320.686 178.809 320.037 175.589 318.37 174.869C318.09 174.757 317.788 174.705 317.486 174.717C317.184 174.729 316.888 174.804 316.617 174.939C316.346 175.073 316.107 175.263 315.914 175.496C315.721 175.729 315.579 176 315.497 176.292C315.112 177.519 315.733 178.976 316.434 179.967C317.204 181.055 319.658 182.501 319.968 182.679C319.583 183.451 319.209 184.2 318.819 184.897C318.336 185.819 317.876 186.671 317.439 187.455C317.635 187.743 317.882 188.1 318.169 188.509C318.669 187.575 319.209 186.533 319.773 185.387C320.163 184.603 320.566 183.762 320.968 182.887C321.848 183.132 322.742 183.324 323.646 183.463C323.772 184.828 324.939 187.224 325.094 187.529C324.347 187.967 323.623 188.382 322.927 188.762C321.738 189.419 320.629 190 319.646 190.49L320.364 191.417C321.307 190.911 322.341 190.335 323.456 189.689C324.215 189.252 325.013 188.768 325.83 188.261C326.059 188.526 327.927 190.692 329.14 191.25C330.237 191.763 331.777 192.109 332.909 191.504C333.181 191.372 333.421 191.183 333.615 190.952C333.809 190.72 333.951 190.45 334.034 190.159C334.116 189.868 334.137 189.563 334.093 189.264C334.05 188.964 333.944 188.678 333.783 188.422C332.771 186.907 329.496 186.855 327.939 187.27C327.847 187.299 326.881 187.696 326.272 187.956C326.605 187.748 326.933 187.552 327.272 187.334C327.944 186.907 328.605 186.464 329.318 185.986L330.341 185.248C330.685 185.012 331.019 184.719 331.364 184.448C332.145 183.814 332.909 183.129 333.662 182.42C334.036 182.996 335.386 185.093 336.409 185.767C337.432 186.441 338.886 187.011 340.098 186.591C340.386 186.499 340.652 186.349 340.878 186.148C341.104 185.948 341.285 185.702 341.41 185.426C341.536 185.151 341.602 184.852 341.604 184.55C341.607 184.247 341.546 183.948 341.426 183.67C340.656 182.023 337.403 181.476 335.817 181.677C335.72 181.677 334.582 181.971 333.961 182.132C334.409 181.706 334.863 181.28 335.306 180.831C336.582 179.54 337.829 178.192 339.087 176.85C339.466 176.441 339.857 176.032 340.236 175.629C340.369 175.842 341.932 178.348 343.064 179.085C344.075 179.759 345.546 180.335 346.753 179.909C347.041 179.818 347.306 179.668 347.532 179.468C347.758 179.268 347.94 179.023 348.065 178.748C348.19 178.473 348.256 178.175 348.259 177.873C348.262 177.571 348.201 177.271 348.081 176.994C347.311 175.341 344.058 174.794 342.478 174.996C342.357 174.996 340.719 175.416 340.305 175.537C341.156 174.644 342.029 173.757 342.891 172.922C344.074 171.785 345.329 170.727 346.65 169.754C346.713 169.852 348.328 172.479 349.489 173.25C350.5 173.924 351.971 174.5 353.184 174.074C353.453 173.979 353.701 173.832 353.913 173.64C354.125 173.448 354.297 173.216 354.418 172.957C354.54 172.698 354.608 172.418 354.62 172.132C354.632 171.846 354.587 171.56 354.488 171.292C353.718 169.639 350.465 169.092 348.879 169.293C348.753 169.293 346.995 169.743 346.678 169.869L346.908 169.691C348.259 168.751 349.689 167.934 351.184 167.248C352 166.863 352.81 166.534 353.597 166.235C353.85 166.753 355.023 169.115 355.994 169.933C356.965 170.751 358.321 171.442 359.574 171.154C359.869 171.095 360.148 170.975 360.393 170.802C360.639 170.629 360.846 170.406 361 170.147C361.154 169.889 361.253 169.601 361.289 169.302C361.326 169.003 361.299 168.7 361.212 168.412C360.637 166.684 357.476 165.785 355.856 165.814C355.77 165.814 354.873 165.929 354.224 166.022C354.586 165.895 354.954 165.751 355.298 165.636C356.597 165.192 357.815 164.864 358.896 164.587C359.511 164.432 360.045 164.305 360.62 164.19C361.131 164.57 363.217 166.079 364.424 166.35C365.631 166.621 367.188 166.615 368.165 165.774C368.402 165.584 368.596 165.346 368.734 165.075C368.873 164.805 368.952 164.508 368.968 164.204C368.984 163.901 368.935 163.597 368.826 163.314C368.716 163.03 368.548 162.773 368.332 162.56V162.56Z" fill="#263238"/>
<path d="M328.635 145.637C329.319 146.881 331.888 148.776 331.894 148.776C331.9 148.776 332.624 146.702 332.652 146.564C332.991 144.974 332.71 141.703 331.141 140.804C330.875 140.66 330.583 140.574 330.282 140.552C329.981 140.529 329.678 140.57 329.394 140.672C329.11 140.774 328.851 140.935 328.633 141.144C328.415 141.354 328.244 141.607 328.13 141.887C327.607 143.068 328.055 144.571 328.635 145.637Z" fill="#263238"/>
<path d="M51.9639 25.6385C52.0157 25.6385 50.625 22.1825 50.51 21.9751C49.1998 19.579 45.2691 15.7082 42.2636 16.2842C41.768 16.393 41.3007 16.6051 40.8923 16.9067C40.4839 17.2084 40.1433 17.5929 39.8929 18.0351C39.6425 18.4774 39.4877 18.9675 39.4388 19.4737C39.3898 19.9798 39.4476 20.4906 39.6086 20.9729C40.2292 23.0465 42.4819 24.4922 44.3668 25.2065C46.608 26.0474 51.9582 25.6385 51.9639 25.6385Z" fill="#263238"/>
<path d="M53.2382 0.432963C50.6062 1.9824 50.1867 7.48896 50.7786 10.1558C50.8303 10.3862 52.0429 13.9056 52.0888 13.871L52.1406 13.8307C52.0716 14.7005 52.0026 15.6336 51.9452 16.6531C51.8647 18.5366 51.7843 20.6851 51.8532 22.9891C51.8971 25.4943 52.089 27.9947 52.4279 30.4771C52.7927 33.2602 53.4042 36.0051 54.2553 38.6794C54.2703 38.7087 54.2818 38.7396 54.2898 38.7715C53.7726 38.04 52.2497 36.047 52.1118 35.8915C50.2212 33.9216 45.4055 31.2374 42.6586 32.5795C42.2094 32.8165 41.815 33.1455 41.5009 33.5452C41.1869 33.9449 40.9602 34.4063 40.8355 34.8995C40.7109 35.3927 40.6911 35.9066 40.7775 36.408C40.8638 36.9093 41.0544 37.3869 41.3368 37.8096C42.4862 39.647 45.009 40.4477 47.0433 40.632C49.3419 40.8394 54.037 39.192 54.4105 39.0595C55.3429 41.7594 56.4545 44.3938 57.7378 46.945C58.4791 48.4368 59.2722 49.9114 60.0825 51.3859C59.6112 50.7696 59.186 50.2339 59.117 50.1475C57.2264 48.1833 52.4107 45.4934 49.6695 46.8413C49.22 47.0772 48.8252 47.4052 48.5106 47.8042C48.196 48.2031 47.9686 48.6639 47.8434 49.1567C47.7182 49.6495 47.6979 50.1632 47.7838 50.6643C47.8697 51.1655 48.0599 51.6429 48.342 52.0656C49.4913 53.903 52.0199 54.7037 54.0485 54.888C56.077 55.0723 60.1457 53.736 61.2088 53.3904C61.5306 53.9664 61.8409 54.5424 62.157 55.0723C63.6914 57.7622 65.2315 60.4349 66.6624 63.1075C67.1681 64.0464 67.6336 64.991 68.0991 65.9357C67.6796 65.3885 67.3233 64.9334 67.26 64.8701C65.3694 62.9002 60.5537 60.2102 57.8068 61.5581C57.3576 61.7951 56.9632 62.1241 56.6491 62.5238C56.3351 62.9235 56.1084 63.3849 55.9837 63.878C55.8591 64.3712 55.8393 64.8852 55.9257 65.3865C56.0121 65.8879 56.2026 66.3654 56.485 66.7882C57.6344 68.6198 60.1572 69.4262 62.1857 69.6106C64.2143 69.7949 67.8922 68.6026 69.1622 68.1706C69.6104 69.1555 70.0587 70.1347 70.4494 71.1082C70.7023 71.7763 70.9896 72.4041 71.208 73.0896C71.4264 73.775 71.6562 74.4317 71.8804 75.0941C72.2654 76.3843 72.6677 77.7091 73.0297 78.9763C73.2711 79.8576 73.4894 80.7043 73.7078 81.551C73.2193 80.6064 72.2194 78.7805 72.116 78.6422C70.6604 76.7284 68.7391 75.2212 66.536 74.2646C66.3824 74.0458 66.2093 73.8414 66.0188 73.6541C65.6678 73.2868 65.2436 72.9976 64.7739 72.8052C64.3042 72.6128 63.7994 72.5215 63.2922 72.5372C62.785 72.553 62.2868 72.6754 61.8299 72.8966C61.373 73.1178 60.9675 73.4328 60.6399 73.8211C58.7377 76.2173 60.3181 81.5107 61.8294 83.7859C61.9214 83.9184 63.0477 85.272 63.7776 86.0899L62.2719 84.8054C61.2433 83.9414 60.1916 83.1062 59.0653 82.2077C58.4906 81.7872 57.916 81.3667 57.3413 80.9462C56.7666 80.5257 56.1402 80.1225 55.5368 79.7078C54.1174 78.7689 52.6348 77.8934 51.1177 77.0352C51.8705 76.1366 54.5082 72.888 55.0714 70.9181C55.6345 68.9482 55.7954 66.3101 54.4967 64.5821C54.2053 64.166 53.8298 63.816 53.3947 63.555C52.9595 63.2939 52.4744 63.1275 51.9708 63.0667C51.4673 63.0058 50.9567 63.0519 50.4721 63.2018C49.9874 63.3517 49.5397 63.6022 49.158 63.9369C46.9111 66.0163 47.6812 71.4883 48.8305 73.9651C48.8994 74.1206 49.9224 75.8083 50.5028 76.7242C49.589 76.2173 48.6811 75.7104 47.7386 75.2266C45.0204 73.8384 42.2218 72.5136 39.4404 71.1946C38.5842 70.7856 37.7164 70.3709 36.8947 69.9562C37.1647 69.6394 40.3771 65.8493 41.0093 63.6202C41.5839 61.656 41.7391 59.0122 40.4346 57.2842C40.1431 56.8675 39.7674 56.517 39.332 56.2553C38.8966 55.9936 38.4111 55.8267 37.9071 55.7653C37.4031 55.7039 36.8918 55.7495 36.4065 55.899C35.9213 56.0485 35.4728 56.2987 35.0902 56.6333C32.849 58.7126 33.6133 64.1846 34.7626 66.6672C34.8488 66.8515 36.3257 69.2765 36.7337 69.8755C34.8661 68.9654 33.0157 68.0381 31.2284 67.0531C28.8082 65.7333 26.4759 64.2576 24.2462 62.6352C24.3727 62.4854 27.746 58.5456 28.3896 56.2992C28.9643 54.335 29.1137 51.6912 27.8149 49.9632C27.5234 49.5465 27.1478 49.196 26.7123 48.9343C26.2769 48.6727 25.7914 48.5057 25.2874 48.4443C24.7834 48.383 24.2722 48.4285 23.7869 48.5781C23.3016 48.7276 22.8531 48.9778 22.4705 49.3123C20.2293 51.3917 20.9936 56.8637 22.143 59.3405C22.2349 59.5363 23.821 62.1456 24.1428 62.5949C24.0164 62.5027 23.8727 62.4163 23.7463 62.3242C21.566 60.6221 19.541 58.7292 17.695 56.6678C16.6549 55.5504 15.7182 54.4214 14.8217 53.304C15.5228 52.6358 18.7007 49.537 19.5052 47.544C20.3098 45.551 20.735 43.0282 19.6374 41.1677C19.3931 40.7216 19.0579 40.3321 18.6537 40.0243C18.2494 39.7165 17.7851 39.4974 17.2909 39.3812C16.7966 39.2649 16.2836 39.2542 15.7849 39.3496C15.2863 39.445 14.8132 39.6445 14.3965 39.935C11.9426 41.7552 12.0978 47.279 12.9713 49.871C13.0173 50.0093 13.6609 51.3917 14.1206 52.3882C13.7298 51.8813 13.3161 51.3571 12.9713 50.8618C11.5978 49.0013 10.4542 47.2099 9.45432 45.6144C8.87965 44.7043 8.40268 43.8864 7.95444 43.0858C8.30499 42.0662 9.67844 37.9478 9.46581 35.8627C9.25319 33.7776 8.50037 31.3238 6.6442 30.1718C6.22289 29.8973 5.74916 29.7136 5.25317 29.6326C4.75718 29.5515 4.24979 29.5749 3.76329 29.7011C3.27679 29.8273 2.82184 30.0537 2.42739 30.3658C2.03295 30.6779 1.70765 31.0689 1.4722 31.5139C0.127478 34.2614 2.81117 39.0883 4.77653 40.9891C4.94893 41.1504 7.89697 43.4083 7.91421 43.3565V43.2989C8.32797 44.0592 8.7877 44.8771 9.3049 45.7584C10.2703 47.377 11.3795 49.2144 12.7184 51.0979C14.1341 53.16 15.6692 55.1372 17.3158 57.0192C19.1532 59.1373 21.1743 61.088 23.3555 62.8483L23.4417 62.9059C22.6027 62.5834 20.2351 61.7539 20.0454 61.7251C17.3847 61.1491 11.8909 61.5523 10.3393 64.1904C10.0953 64.6363 9.9476 65.1287 9.90571 65.6356C9.86381 66.1424 9.92869 66.6525 10.0961 67.1326C10.2636 67.6127 10.5298 68.0522 10.8776 68.4225C11.2254 68.7928 11.647 69.0857 12.115 69.2822C14.0746 70.1865 16.6319 69.4493 18.4364 68.4816C20.4592 67.3929 23.4762 63.4186 23.7176 63.1018C25.9832 64.8353 28.3618 66.4152 30.8377 67.8307C32.2743 68.6659 33.7455 69.4608 35.2339 70.2384C34.4983 69.9849 33.8432 69.7661 33.7512 69.743C31.0848 69.167 25.591 69.5645 24.0451 72.2083C23.8001 72.6537 23.6513 73.1458 23.6086 73.6526C23.5658 74.1595 23.63 74.6696 23.797 75.15C23.9639 75.6303 24.2299 76.07 24.5776 76.4404C24.9253 76.8109 25.347 77.1038 25.8151 77.3002C27.7804 78.2045 30.332 77.4672 32.1364 76.4995C33.9409 75.5318 36.5958 72.1795 37.2797 71.2867C37.8543 71.5805 38.429 71.8627 39.0037 72.168C41.7621 73.5619 44.5205 74.9443 47.1869 76.3786C48.1236 76.8854 49.0316 77.4154 49.9396 77.9453C49.2902 77.7206 48.7385 77.5363 48.6523 77.519C45.9916 76.943 40.4921 77.3405 38.9462 79.9843C38.7013 80.4301 38.5529 80.9225 38.5105 81.4296C38.4681 81.9367 38.5328 82.4471 38.7003 82.9274C38.8679 83.4078 39.1345 83.8474 39.4828 84.2176C39.8311 84.5879 40.2533 84.8804 40.7219 85.0762C42.6816 85.9747 45.2388 85.2432 47.0433 84.2755C48.8477 83.3078 51.2441 80.2781 52.0659 79.224C52.9796 79.8 53.899 80.376 54.7553 80.952C55.33 81.3725 55.9046 81.7354 56.4793 82.1846L58.1458 83.4864C59.1745 84.3504 60.2434 85.2144 61.226 86.1014C61.9156 86.6774 62.5593 87.2534 63.2086 87.8697C62.2834 87.3571 60.4388 86.3837 60.2778 86.3203C57.7378 85.3296 52.2325 84.9091 50.3131 87.288C50.0033 87.6908 49.7817 88.1546 49.6628 88.6491C49.5438 89.1436 49.5303 89.6576 49.623 90.1577C49.7158 90.6578 49.9127 91.1326 50.2009 91.5512C50.4892 91.9699 50.8622 92.3229 51.2958 92.5872C53.1003 93.7795 55.7322 93.4397 57.6574 92.76C59.7664 92.0054 63.2259 88.6819 63.6569 88.2672C64.7315 89.2406 65.7659 90.1968 66.7314 91.1126C67.9956 92.3165 69.1622 93.4569 70.2253 94.5225C70.8 94.3382 71.4724 94.1021 72.2654 93.8198C70.9839 92.5814 69.553 91.2278 67.9611 89.7878C66.875 88.7971 65.6625 87.7603 64.4672 86.7062C65.2775 85.3918 66.0086 84.0301 66.6566 82.6282C68.9208 83.0544 73.317 82.2595 73.886 82.1501C74.248 83.5555 74.5871 84.9264 74.8801 86.2282C75.4031 88.463 75.8341 90.5193 76.1961 92.351C76.7708 92.1206 77.3972 91.8729 78.0236 91.6137C77.6328 89.8857 77.1788 87.9101 76.6444 85.7962C76.2823 84.3677 75.8686 82.847 75.4261 81.2918C75.9605 81.0441 80.305 78.9878 81.7474 77.3002C83.0806 75.7507 84.3449 73.4064 83.8852 71.2925C83.7949 70.7901 83.5998 70.3124 83.3126 69.8909C83.0254 69.4693 82.6525 69.1134 82.2184 68.8464C81.7844 68.5793 81.2989 68.4073 80.7939 68.3414C80.2888 68.2756 79.7756 68.3175 79.2878 68.4643C76.38 69.4089 74.7939 74.6966 74.7997 77.4326C74.7997 77.5939 75.0008 79.3449 75.1445 80.4451C74.9606 79.8115 74.7882 79.1952 74.5698 78.5443C74.1905 77.2541 73.7768 75.9754 73.3285 74.5987L72.6102 72.6115C72.3861 71.9433 72.0643 71.2637 71.7884 70.584C71.1161 69.0173 70.3632 67.4621 69.5702 65.9126C70.7195 65.5728 74.679 64.3229 76.2363 62.9866C77.7937 61.6502 79.3855 59.5305 79.2533 57.3763C79.2403 56.8679 79.1203 56.3679 78.9014 55.909C78.6825 55.4502 78.3695 55.0427 77.9828 54.7133C77.5962 54.3839 77.1445 54.14 76.6574 53.9974C76.1703 53.8548 75.6587 53.8167 75.156 53.8858C72.139 54.3754 69.7656 59.3635 69.3576 62.0707C69.3576 62.2378 69.2599 64.2077 69.2426 65.2963C68.7542 64.3689 68.2772 63.4358 67.7543 62.5142C66.2544 59.8531 64.6511 57.2035 63.0592 54.5539C62.5708 53.7418 62.0995 52.9296 61.6168 52.1117C62.0191 52.0022 66.7888 50.6141 68.5128 49.1222C70.0587 47.7917 71.662 45.6662 71.5298 43.512C71.5166 43.0033 71.3967 42.5032 71.1778 42.0441C70.959 41.585 70.6461 41.1772 70.2595 40.8474C69.873 40.5175 69.4215 40.273 68.9344 40.1297C68.4473 39.9864 67.9355 39.9476 67.4324 40.0157C64.4154 40.511 62.0421 45.4934 61.6398 48.2006C61.6053 48.4022 61.5019 51.2419 61.5134 51.9677C60.4617 50.1763 59.4273 48.3792 58.4791 46.5648C57.1819 44.1276 56.0473 41.6069 55.0829 39.0192C55.2725 38.9674 60.2549 37.5446 62.0363 36.0125C63.5822 34.6877 65.1855 32.5565 65.0533 30.4022C65.0401 29.8936 64.9202 29.3934 64.7013 28.9343C64.4825 28.4752 64.1696 28.0675 63.783 27.7376C63.3965 27.4078 62.945 27.1632 62.4579 27.0199C61.9708 26.8766 61.459 26.8378 60.9559 26.9059C57.9389 27.4013 55.5713 32.3894 55.1633 35.0909C55.1288 35.304 55.0196 38.3626 55.0426 38.9155C54.9852 38.7658 54.9105 38.616 54.8587 38.4662C53.9629 35.8418 53.2995 33.1434 52.8761 30.4022C52.6233 28.8931 52.4681 27.4358 52.3474 26.0131C53.3014 25.8461 57.6574 25.0224 59.4158 23.8243C61.1743 22.6262 62.9271 20.737 63.0305 18.577C63.0726 18.0702 63.0078 17.5603 62.8403 17.0803C62.6728 16.6004 62.4064 16.1611 62.0585 15.7911C61.7105 15.4211 61.2887 15.1287 60.8205 14.9329C60.3523 14.737 59.8483 14.6421 59.3411 14.6544C56.2897 14.8099 53.3818 19.5043 52.6865 22.1424C52.6463 22.2864 52.4221 23.7898 52.2727 24.8899C52.2268 24.2506 52.1693 23.5882 52.1406 22.9718C52.0199 20.6678 52.0486 18.5309 52.0946 16.6358C52.1291 15.5702 52.1808 14.6026 52.2325 13.6982C53.083 13.0416 56.4793 10.3517 57.4677 8.51424C58.4562 6.6768 59.1917 4.15392 58.2665 2.17824C58.0671 1.71851 57.7746 1.30528 57.4076 0.964671C57.0406 0.624063 56.6071 0.363496 56.1345 0.199455C55.6619 0.0354149 55.1604 -0.0285291 54.6619 0.011664C54.1634 0.0518571 53.6786 0.195315 53.2382 0.432963V0.432963Z" fill="#263238"/>
<path d="M7.69091 57.0824C10.0183 56.5468 14.2593 53.2463 14.2593 53.2405C14.2593 53.2348 11.2423 51.1036 11.0355 50.9941C8.62187 49.7154 3.21426 48.6901 1.02478 50.804C0.670318 51.1685 0.396577 51.6038 0.221444 52.0815C0.0463111 52.5592 -0.0262697 53.0686 0.0084432 53.5764C0.0431561 54.0842 0.184379 54.5789 0.422888 55.0282C0.661397 55.4775 0.991822 55.8713 1.39256 56.1839C3.0476 57.572 5.70256 57.5432 7.69091 57.0824Z" fill="#263238"/>
</svg>
