<?xml version="1.0" encoding="utf-8"?>
<svg width="290" height="53" viewBox="0 0 290 53" fill="none" xmlns="http://www.w3.org/2000/svg">
<g clip-path="url(#clip0_33_326)">
<path d="M31.3427 7.57281C31.9194 8.06553 32.1116 8.80462 32.4961 9.42588C33.1582 10.5077 33.767 11.6324 34.3757 12.7571C34.6534 13.2606 34.8563 13.1856 35.102 12.7464C35.9777 11.1933 36.8535 9.64011 37.7506 8.09767C37.9748 7.71206 37.9214 7.49783 37.537 7.31574C37.0564 7.08009 36.5971 6.8123 36.1165 6.57665C35.935 6.48025 35.7321 6.39456 35.7107 6.15891C35.6894 5.91254 35.935 5.91254 36.0845 5.83756C38.7438 4.44508 41.4031 3.0526 44.0517 1.66012C44.34 1.51016 44.607 1.30664 44.8954 1.14597C45.2478 0.942454 45.4614 0.963877 45.4827 1.4566C45.5361 2.93477 45.6323 4.41295 45.6643 5.89112C45.6963 7.64779 46.0595 9.39375 45.974 11.1611C45.9633 11.4075 46.0915 11.7181 45.8459 11.8681C45.5895 12.0288 45.3866 11.761 45.173 11.6431C44.8633 11.461 44.5216 11.3325 44.2439 11.1076C43.6779 10.6577 43.3895 10.7541 43.0371 11.4075C41.638 13.9782 40.1749 16.5168 38.7117 19.0554C38.4127 19.5696 38.4447 19.9766 38.7224 20.4693C41.4778 25.3216 44.2225 30.1846 46.9672 35.0475C49.1886 38.9786 51.41 42.9097 53.6101 46.8408C53.781 47.1407 54.2722 47.3657 54.048 47.7406C53.8344 48.1047 53.3431 47.8905 52.9907 47.8905C50.6945 47.9119 48.409 47.8905 46.1129 47.9119C45.6216 47.9119 45.3653 47.7834 45.109 47.3228C42.6206 42.8454 40.0894 38.3895 37.5797 33.9228C36.501 32.0162 35.433 30.0989 34.3544 28.1923C34.2583 28.0209 34.1942 27.7852 33.9485 27.7745C33.6709 27.7638 33.5854 28.0102 33.4679 28.203C31.5242 31.6199 29.5805 35.0261 27.6581 38.4538C25.9921 41.4315 24.3687 44.4307 22.7561 47.4406C22.5639 47.7941 22.3609 47.9119 21.9978 47.9012C19.7551 47.8798 17.5123 47.8798 15.2695 47.8691C15.3763 47.6441 15.4724 47.4085 15.5899 47.1943C16.6579 45.2769 17.7259 43.3596 18.7939 41.4422C19.2211 40.6925 19.6483 39.9427 20.0755 39.1929C23.4076 33.3766 26.729 27.5496 30.0611 21.7333C30.3388 21.262 30.296 20.8764 30.0184 20.3944C29.0465 18.7234 28.128 17.0203 27.1882 15.3279C27.3698 14.4067 27.9785 13.6997 28.4057 12.8964C29.3562 11.1076 30.4562 9.40446 31.3427 7.57281Z" fill="#1794D1"/>
<path d="M18.7944 41.4425C17.7264 43.3598 16.6584 45.2771 15.5904 47.1945C15.4729 47.4087 15.3768 47.6444 15.27 47.8693C10.3573 47.88 5.43389 47.8907 0.521173 47.8907C0.211458 47.8907 -0.205055 47.9014 0.11534 47.4087C1.53576 45.2878 2.68918 43.0063 3.9494 40.7891C7.45238 34.6193 10.934 28.4495 14.4263 22.269C18.474 15.0924 22.5216 7.91577 26.5693 0.739132C26.6227 0.65344 26.6654 0.557038 26.7081 0.471346C26.8042 0.278541 26.8042 -0.0320893 27.1139 -0.0106665C27.3596 0.0107563 27.3489 0.289253 27.445 0.460635C28.6305 2.57078 29.8159 4.68093 31.0014 6.80178C31.1402 7.04815 31.2364 7.30522 31.3538 7.56229C30.4674 9.39394 29.3674 11.0971 28.4169 12.8859C27.9897 13.6785 27.3809 14.3962 27.1994 15.3173C26.5693 15.5316 26.5693 16.185 26.3023 16.6456C25.1702 18.6165 24.0595 20.5874 22.9381 22.5583C19.5099 28.6102 16.0817 34.6729 12.6535 40.7248C12.3331 41.2925 12.4078 41.421 13.07 41.4317C14.971 41.4425 16.8827 41.4425 18.7944 41.4425Z" fill="#0E3256"/>
<path d="M77.6206 27.9353L75.0148 21.2943H65.1359L62.5087 27.9353H61.1523L69.4399 7.2409H70.8283L78.977 27.9353H77.6206ZM70.1982 8.49413H70.1448L65.5524 20.2017H74.6303L70.1982 8.49413ZM90.9064 27.9353V24.7433C90.5326 25.8252 89.8597 26.6821 88.8558 27.3248C87.8626 27.9675 86.7626 28.2781 85.5558 28.2781C83.2916 28.2781 81.7537 27.5069 80.9314 25.9644C80.4615 25.0968 80.2372 23.8543 80.2372 22.2583V13.0465H81.3372V22.4618C81.3372 25.7074 82.747 27.3355 85.5558 27.3355C87.1898 27.3355 88.4927 26.7571 89.4539 25.611C90.4151 24.4648 90.8957 22.9545 90.8957 21.1015V13.0465H91.9957V27.946H90.9064V27.9353ZM106.745 27.9353V24.7433C105.527 27.0998 103.615 28.2781 101.02 28.2781C98.8949 28.2781 97.2502 27.4962 96.1181 25.9323C95.0928 24.5398 94.5802 22.7296 94.5802 20.5123C94.5802 18.1987 95.1249 16.3349 96.2035 14.9531C97.389 13.4428 99.0551 12.693 101.223 12.693C102.483 12.693 103.615 13.0251 104.63 13.6785C105.645 14.3318 106.349 15.2316 106.734 16.3777V7.2409H107.834V27.9353H106.745ZM105.41 15.7672C104.406 14.3533 103.007 13.6463 101.212 13.6463C99.3541 13.6463 97.9444 14.3426 96.9832 15.735C96.1181 16.9561 95.6802 18.5414 95.6802 20.5123C95.6802 22.4082 96.1288 23.9828 97.0366 25.2361C98.0405 26.6285 99.4395 27.3248 101.234 27.3248C103.007 27.3248 104.406 26.6178 105.41 25.2039C106.296 23.9507 106.745 22.3868 106.745 20.5123C106.745 18.6271 106.296 17.0418 105.41 15.7672ZM123.159 27.9353C122.39 27.9353 121.856 27.7425 121.568 27.3569C121.301 27.0249 121.162 26.5 121.162 25.7609V24.979H121.109C120.746 25.9216 120.084 26.7035 119.144 27.2926C118.119 27.946 116.933 28.2781 115.587 28.2781C112.277 28.2781 110.621 26.8749 110.621 24.0792C110.621 21.4121 112.437 19.9446 116.068 19.6768C118.471 19.5055 119.923 19.2484 120.415 18.927C120.917 18.595 121.162 17.8131 121.162 16.5812C121.162 16.0028 120.895 15.4351 120.361 14.8674C119.614 14.0533 118.514 13.6463 117.051 13.6463C115.705 13.6463 114.637 13.9891 113.825 14.6746C113.024 15.3601 112.576 16.3456 112.501 17.6202H111.39C111.54 14.3318 113.43 12.693 117.051 12.693C120.522 12.693 122.252 13.9891 122.252 16.5812V25.1932C122.252 25.7716 122.294 26.1787 122.369 26.4143C122.508 26.7999 122.796 26.9927 123.234 26.9927C123.426 26.9927 123.693 26.9606 124.046 26.907V27.8389C123.629 27.9032 123.33 27.9353 123.159 27.9353ZM121.162 19.4733C120.799 19.8804 120.073 20.1481 118.994 20.2874C117.916 20.4266 116.848 20.5337 115.79 20.6301C113.078 20.9622 111.721 22.1083 111.721 24.0792C111.721 25.0218 112.052 25.793 112.704 26.3715C113.398 27.0141 114.37 27.3248 115.619 27.3248C117.734 27.3248 119.293 26.5857 120.276 25.0968C120.874 24.1649 121.173 23.2223 121.173 22.2583V19.4733H121.162ZM135.388 14.696C134.448 13.9998 133.295 13.657 131.906 13.657C130.133 13.657 128.713 14.3533 127.656 15.7458C126.673 16.999 126.182 18.5414 126.182 20.3517C126.182 22.4618 126.652 24.1328 127.602 25.3646C128.628 26.6821 130.059 27.3355 131.906 27.3355C133.273 27.3355 134.427 26.907 135.377 26.0501C136.317 25.1932 136.894 24.0792 137.086 22.6974H138.186C137.951 24.4327 137.257 25.8038 136.103 26.7999C134.95 27.7961 133.551 28.2888 131.917 28.2888C129.642 28.2888 127.901 27.4854 126.684 25.8787C125.626 24.4434 125.092 22.601 125.092 20.3409C125.092 18.1772 125.68 16.3777 126.855 14.9531C128.104 13.4428 129.792 12.693 131.906 12.693C133.604 12.693 134.993 13.1 136.071 13.9141C137.225 14.7817 137.876 16.035 138.036 17.6524H136.936C136.84 16.3777 136.328 15.3923 135.388 14.696ZM141.016 27.9353V13.0465H142.116V27.946H141.016V27.9353ZM141.016 7.2409H142.116V10.2294H141.016V7.2409ZM150.916 13.6463C149.763 13.6463 148.802 13.8605 148.022 14.289C147.093 14.8139 146.634 15.5529 146.634 16.517C146.634 17.556 147.157 18.3379 148.193 18.8628C148.77 19.152 149.902 19.4626 151.578 19.7947C153.373 20.1588 154.612 20.5766 155.306 21.0372C156.331 21.712 156.833 22.7617 156.833 24.1649C156.833 25.6324 156.192 26.7249 154.9 27.4426C153.875 27.9996 152.593 28.2781 151.023 28.2781C149.272 28.2781 147.851 27.8282 146.773 26.9177C145.64 25.9751 145.053 24.6576 145.01 22.9759H146.11C146.185 24.3256 146.687 25.3967 147.595 26.1679C148.513 26.9392 149.645 27.3248 151.023 27.3248C152.251 27.3248 153.287 27.1213 154.11 26.7142C155.188 26.1787 155.733 25.3217 155.733 24.1649C155.733 23.0402 155.199 22.2261 154.142 21.7013C153.586 21.4335 152.422 21.1122 150.649 20.748C148.994 20.4159 147.819 20.0303 147.125 19.5911C146.068 18.8949 145.534 17.8666 145.534 16.517C145.534 15.1673 146.11 14.1605 147.264 13.5071C148.204 12.9715 149.421 12.693 150.906 12.693C154.569 12.693 156.395 14.2783 156.395 17.4489H155.295C155.295 14.921 153.832 13.6463 150.916 13.6463ZM181.685 27.9353L180.35 23.5865H172.564L171.101 27.9353H166.53L173.974 7.10165H178.951L186.395 27.9353H181.685ZM176.452 11.8361L173.76 19.9446H179.068L176.452 11.8361ZM198.815 27.9353V25.8359C197.747 27.4962 196.209 28.3316 194.212 28.3316C192.301 28.3316 190.752 27.6033 189.567 26.1572C188.381 24.7005 187.794 22.6867 187.794 20.116C187.794 17.7809 188.37 15.8636 189.513 14.3854C190.656 12.8965 192.237 12.1467 194.223 12.1467C196.092 12.1467 197.566 12.9715 198.623 14.6425V7.11236H202.671V27.946H198.815V27.9353ZM197.961 16.9026C197.395 16.035 196.541 15.5958 195.408 15.5958C194.351 15.5958 193.518 15.9921 192.899 16.774C192.279 17.556 191.97 18.7021 191.97 20.2124C191.97 21.6906 192.258 22.8581 192.845 23.7043C193.433 24.5398 194.266 24.9683 195.312 24.9683C196.359 24.9683 197.203 24.5934 197.833 23.8329C198.484 23.0831 198.805 21.9155 198.805 20.3517C198.815 18.9056 198.527 17.7595 197.961 16.9026ZM214.525 27.9353H210.296L204.881 12.543H209.367L212.518 23.9721L215.871 12.543H220.175L214.525 27.9353ZM222.514 27.9353V12.543H226.562V27.9353H222.514ZM222.514 6.9624H226.562V10.7221H222.514V6.9624ZM238.277 15.6708C237.818 15.3923 237.188 15.2423 236.387 15.2423C234.753 15.2423 233.931 15.7136 233.931 16.6669C233.931 17.1811 234.326 17.5667 235.105 17.8452C235.885 18.113 236.825 18.3272 237.914 18.4986C239.986 18.8199 241.46 19.3662 242.336 20.1267C243.211 20.8872 243.649 21.8941 243.649 23.1366C243.649 24.6576 243.062 25.9002 241.898 26.8749C240.734 27.8496 239.004 28.3316 236.707 28.3316C234.571 28.3316 232.831 27.8925 231.485 27.0141C230.139 26.1358 229.424 24.7647 229.328 22.901H233.503C233.557 24.4541 234.7 25.2361 236.932 25.2361C237.519 25.2361 238.106 25.1182 238.694 24.8826C239.292 24.6469 239.602 24.2399 239.602 23.6508C239.602 23.0723 239.164 22.6653 238.288 22.4297C237.412 22.194 236.355 21.9798 235.116 21.7763C233.333 21.4656 232.008 20.9515 231.165 20.2231C230.321 19.484 229.894 18.4986 229.894 17.2668C229.894 15.7458 230.438 14.5139 231.517 13.5713C232.596 12.618 234.262 12.1467 236.494 12.1467C238.373 12.1467 239.911 12.543 241.107 13.325C242.314 14.1069 243.008 15.4565 243.211 17.3632H239.228C239.057 16.517 238.747 15.9493 238.277 15.6708ZM259.21 26.0823C257.821 27.5818 255.899 28.3316 253.453 28.3316C251.2 28.3316 249.331 27.6247 247.836 26.2215C246.351 24.8076 245.604 22.8153 245.604 20.2338C245.604 17.7488 246.319 15.7886 247.761 14.3318C249.203 12.8644 251.093 12.136 253.443 12.136C255.685 12.136 257.544 12.843 259.039 14.2462C260.534 15.6493 261.282 17.6417 261.282 20.2338C261.292 22.6225 260.598 24.5719 259.21 26.0823ZM253.453 15.5958C251.008 15.5958 249.79 17.1597 249.79 20.2767C249.79 23.4044 251.018 24.9576 253.453 24.9576C255.899 24.9576 257.117 23.3937 257.117 20.2767C257.117 17.1597 255.899 15.5958 253.453 15.5958ZM272.047 16.2599C269.43 16.2599 268.127 17.481 268.127 19.9125V27.9353H264.08V12.543H267.946V15.328C268.523 14.1605 269.131 13.3357 269.793 12.8644C270.456 12.3824 271.278 12.1467 272.282 12.1467C272.41 12.1467 272.688 12.1574 273.104 12.1896V16.3027C272.688 16.2813 272.335 16.2599 272.047 16.2599ZM283.239 15.6708C282.78 15.3923 282.15 15.2423 281.349 15.2423C279.715 15.2423 278.893 15.7136 278.893 16.6669C278.893 17.1811 279.288 17.5667 280.067 17.8452C280.847 18.113 281.787 18.3272 282.876 18.4986C284.948 18.8199 286.422 19.3662 287.298 20.1267C288.173 20.8872 288.611 21.8941 288.611 23.1366C288.611 24.6576 288.024 25.9002 286.86 26.8749C285.696 27.8496 283.966 28.3316 281.669 28.3316C279.533 28.3316 277.793 27.8925 276.447 27.0141C275.101 26.1358 274.386 24.7647 274.29 22.901H278.465C278.519 24.4541 279.662 25.2361 281.894 25.2361C282.481 25.2361 283.068 25.1182 283.656 24.8826C284.254 24.6469 284.564 24.2399 284.564 23.6508C284.564 23.0723 284.126 22.6653 283.25 22.4297C282.374 22.194 281.317 21.9798 280.078 21.7763C278.295 21.4656 276.97 20.9515 276.127 20.2231C275.283 19.484 274.856 18.4986 274.856 17.2668C274.856 15.7458 275.4 14.5139 276.479 13.5713C277.558 12.618 279.224 12.1467 281.456 12.1467C283.335 12.1467 284.873 12.543 286.07 13.325C287.276 14.1069 287.971 15.4565 288.173 17.3632H284.19C284.019 16.517 283.709 15.9493 283.239 15.6708Z" fill="#0E3256"/>
<path d="M71.662 36.1833C70.9785 35.8513 69.9959 35.5942 68.8318 35.5942C65.5425 35.5942 63.3531 37.7044 63.3531 41.3998C63.3531 44.8489 65.3289 47.0554 68.7464 47.0554C69.8464 47.0554 70.9785 46.8305 71.7047 46.4663L72.0785 47.9123C71.4164 48.2444 70.0814 48.5764 68.3726 48.5764C64.4211 48.5764 61.4414 46.07 61.4414 41.4534C61.4414 37.051 64.4211 34.0625 68.7678 34.0625C70.5193 34.0625 71.6193 34.4374 72.0999 34.6945L71.662 36.1833ZM80.6544 48.3836L80.5049 47.109H80.4408C79.8748 47.9016 78.7961 48.6086 77.365 48.6086C75.3252 48.6086 74.2892 47.1625 74.2892 45.7058C74.2892 43.2636 76.4572 41.9247 80.3447 41.9461V41.7426C80.3447 40.9071 80.1204 39.4075 78.0592 39.4075C77.1194 39.4075 76.1475 39.6967 75.432 40.1573L75.0155 38.9469C75.8485 38.4006 77.0553 38.0471 78.3262 38.0471C81.402 38.0471 82.1603 40.1573 82.1603 42.1817V45.9628C82.1603 46.8412 82.203 47.6981 82.3311 48.3836H80.6544ZM80.3874 43.2207C78.3903 43.1779 76.1155 43.5314 76.1155 45.5023C76.1155 46.6912 76.9058 47.2589 77.8456 47.2589C79.1592 47.2589 79.9923 46.4234 80.2806 45.5665C80.3447 45.3737 80.3874 45.1702 80.3874 44.9774V43.2207ZM91.0032 48.6086C89.6682 48.6086 88.5041 48.0194 87.906 47.0233H87.8633V52.5182H86.0477V41.5712C86.0477 40.2751 86.005 39.2361 85.9623 38.2721H87.607L87.6924 40.0073H87.7351C88.4827 38.7755 89.6682 38.0471 91.3129 38.0471C93.7479 38.0471 95.5848 40.1144 95.5848 43.1886C95.5848 46.8198 93.3741 48.6086 91.0032 48.6086ZM90.7468 39.5039C89.4973 39.5039 88.3332 40.4036 87.9808 41.7747C87.9167 41.9996 87.8526 42.2781 87.8526 42.5245V44.2597C87.8526 44.5275 87.8953 44.7846 87.9381 45.0095C88.2691 46.2842 89.3798 47.1625 90.6828 47.1625C92.6158 47.1625 93.7479 45.5772 93.7479 43.2529C93.7479 41.2391 92.6906 39.5039 90.7468 39.5039ZM99.6965 36.5582C99.0558 36.5582 98.5965 36.0548 98.5965 35.4335C98.5965 34.7909 99.0771 34.2874 99.7393 34.2874C100.423 34.2874 100.861 34.7909 100.861 35.4335C100.893 36.0548 100.433 36.5582 99.6965 36.5582ZM100.658 48.3836H98.8208V38.2721H100.658V48.3836ZM106.841 39.6753V45.1274C106.841 46.3806 107.194 47.0875 108.219 47.0875C108.7 47.0875 109.052 47.0233 109.276 46.959L109.362 48.3408C109.009 48.4907 108.443 48.5871 107.738 48.5871C106.884 48.5871 106.201 48.3194 105.763 47.8159C105.239 47.2696 105.058 46.3699 105.058 45.1809V39.6645H103.488V38.2614H105.047V35.8406L106.841 35.3586V38.2614H109.469V39.6645H106.841V39.6753ZM118.044 48.3836L117.895 47.109H117.831C117.265 47.9016 116.186 48.6086 114.755 48.6086C112.715 48.6086 111.679 47.1625 111.679 45.7058C111.679 43.2636 113.847 41.9247 117.735 41.9461V41.7426C117.735 40.9071 117.51 39.4075 115.449 39.4075C114.509 39.4075 113.538 39.6967 112.822 40.1573L112.406 38.9469C113.239 38.4006 114.445 38.0471 115.716 38.0471C118.792 38.0471 119.55 40.1573 119.55 42.1817V45.9628C119.55 46.8412 119.593 47.6981 119.721 48.3836H118.044ZM117.767 43.2207C115.77 43.1779 113.495 43.5314 113.495 45.5023C113.495 46.6912 114.285 47.2589 115.225 47.2589C116.539 47.2589 117.372 46.4234 117.66 45.5665C117.724 45.3737 117.767 45.1702 117.767 44.9774V43.2207ZM123.427 48.3836V33.559H125.264V48.3836H123.427ZM140.686 41.614V41.6783C141.764 42.0532 142.416 43.0601 142.747 44.5168C143.206 46.477 143.537 47.8373 143.826 48.3836H141.957C141.732 47.9873 141.412 46.7769 141.017 45.0202C140.6 43.0815 139.853 42.3424 138.208 42.2888H136.499V48.3836H134.684V34.4909C135.602 34.2981 136.916 34.2017 138.165 34.2017C140.098 34.2017 141.348 34.5552 142.224 35.3479C142.928 35.9691 143.324 36.9331 143.324 38.0257C143.334 39.8788 142.17 41.1106 140.686 41.614ZM138.293 35.6049C137.418 35.6049 136.798 35.6906 136.499 35.7763V40.9178H138.347C140.28 40.9178 141.508 39.8574 141.508 38.2399C141.519 36.419 140.205 35.6263 138.293 35.6049ZM152.594 48.3836L152.444 47.109H152.38C151.814 47.9016 150.735 48.6086 149.304 48.6086C147.264 48.6086 146.229 47.1625 146.229 45.7058C146.229 43.2636 148.397 41.9247 152.284 41.9461V41.7426C152.284 40.9071 152.06 39.4075 149.999 39.4075C149.059 39.4075 148.087 39.6967 147.371 40.1573L146.955 38.9469C147.788 38.4006 148.995 38.0471 150.266 38.0471C153.341 38.0471 154.1 40.1573 154.1 42.1817V45.9628C154.1 46.8412 154.142 47.6981 154.27 48.3836H152.594ZM152.327 43.2207C150.33 43.1779 148.055 43.5314 148.055 45.5023C148.055 46.6912 148.845 47.2589 149.785 47.2589C151.099 47.2589 151.932 46.4234 152.22 45.5665C152.284 45.3737 152.327 45.1702 152.327 44.9774V43.2207ZM158.863 36.5582C158.222 36.5582 157.763 36.0548 157.763 35.4335C157.763 34.7909 158.243 34.2874 158.905 34.2874C159.589 34.2874 160.027 34.7909 160.027 35.4335C160.048 36.0548 159.589 36.5582 158.863 36.5582ZM159.813 48.3836H157.976V38.2721H159.813V48.3836ZM166.809 39.4182C165.73 39.4182 165.121 40.0394 165.121 40.8C165.121 41.6354 165.73 42.0103 167.033 42.5138C168.784 43.1779 169.681 44.0562 169.681 45.5665C169.681 47.3446 168.304 48.5979 165.911 48.5979C164.811 48.5979 163.786 48.3301 163.081 47.9123L163.541 46.5091C164.085 46.8626 165.036 47.2375 165.954 47.2375C167.289 47.2375 167.909 46.5734 167.909 45.7379C167.909 44.8596 167.385 44.3776 166.04 43.8848C164.224 43.2422 163.37 42.2353 163.37 41.0249C163.37 39.3968 164.683 38.0578 166.851 38.0578C167.877 38.0578 168.763 38.347 169.329 38.6898L168.87 40.0287C168.475 39.761 167.748 39.4182 166.809 39.4182ZM173.847 36.5582C173.206 36.5582 172.747 36.0548 172.747 35.4335C172.747 34.7909 173.227 34.2874 173.889 34.2874C174.573 34.2874 175.011 34.7909 175.011 35.4335C175.032 36.0548 174.573 36.5582 173.847 36.5582ZM174.808 48.3836H172.971V38.2721H174.808V48.3836ZM185.53 48.3836V42.5566C185.53 40.9285 184.922 39.5681 183.202 39.5681C181.995 39.5681 181.055 40.4251 180.746 41.4426C180.66 41.6676 180.618 41.9889 180.618 42.2996V48.3729H178.781V41.0035C178.781 39.9645 178.759 39.1076 178.695 38.2721H180.319L180.425 39.943H180.468C180.97 38.979 182.134 38.0471 183.8 38.0471C185.199 38.0471 187.357 38.8826 187.357 42.3531V48.3836H185.53ZM199.873 41.0463V46.9162C199.873 49.2298 199.414 50.6544 198.432 51.5328C197.449 52.454 196.039 52.7432 194.768 52.7432C193.562 52.7432 192.227 52.454 191.415 51.9077L191.874 50.5045C192.536 50.9222 193.583 51.2971 194.832 51.2971C196.701 51.2971 198.079 50.3117 198.079 47.7731V46.6484H198.036C197.47 47.591 196.392 48.3408 194.832 48.3408C192.333 48.3408 190.539 46.2092 190.539 43.4135C190.539 39.9859 192.771 38.0471 195.078 38.0471C196.83 38.0471 197.78 38.9683 198.218 39.8038H198.261L198.346 38.2828H199.948C199.905 39.0004 199.873 39.8145 199.873 41.0463ZM198.058 42.2567C198.058 41.9461 198.036 41.6676 197.951 41.4212C197.62 40.3608 196.723 39.4825 195.388 39.4825C193.636 39.4825 192.387 40.9606 192.387 43.3064C192.387 45.288 193.391 46.9376 195.366 46.9376C196.488 46.9376 197.513 46.2306 197.908 45.0631C198.015 44.7525 198.058 44.399 198.058 44.0776V42.2567ZM217.997 48.3836L216.502 43.9598H211.525L210.073 48.3836H208.204L212.967 34.3088H215.156L219.941 48.3836H217.997ZM214.75 38.4863C214.441 37.5651 214.227 36.7296 214.024 35.9156H213.981C213.778 36.751 213.543 37.608 213.276 38.4649L211.899 42.5352H216.128L214.75 38.4863ZM229.766 48.3836L229.681 46.627H229.638C229.072 47.7517 227.844 48.6086 226.199 48.6086C223.764 48.6086 221.895 46.5413 221.895 43.4671C221.874 40.1037 223.956 38.0364 226.413 38.0364C227.951 38.0364 228.997 38.7648 229.456 39.5789H229.499V33.5483H231.336V45.7593C231.336 46.6591 231.357 47.6767 231.421 48.3729H229.766V48.3836ZM229.488 42.3852C229.488 42.1603 229.467 41.839 229.403 41.614C229.136 40.4465 228.132 39.4825 226.754 39.4825C224.864 39.4825 223.732 41.1534 223.732 43.3921C223.732 45.438 224.736 47.1304 226.712 47.1304C227.94 47.1304 229.061 46.3163 229.392 44.9346C229.456 44.6882 229.478 44.4311 229.478 44.1419V42.3852H229.488ZM239.624 48.3836H237.872L234.038 38.2721H235.992L237.968 43.9491C238.299 44.8703 238.577 45.7058 238.78 46.5413H238.844C239.068 45.7058 239.367 44.8703 239.698 43.9491L241.653 38.2721H243.564L239.624 48.3836ZM247.121 36.5582C246.48 36.5582 246.021 36.0548 246.021 35.4335C246.021 34.7909 246.501 34.2874 247.164 34.2874C247.847 34.2874 248.285 34.7909 248.285 35.4335C248.306 36.0548 247.847 36.5582 247.121 36.5582ZM248.082 48.3836H246.245V38.2721H248.082V48.3836ZM255.077 39.4182C253.999 39.4182 253.39 40.0394 253.39 40.8C253.39 41.6354 253.999 42.0103 255.302 42.5138C257.053 43.1779 257.95 44.0562 257.95 45.5665C257.95 47.3446 256.572 48.5979 254.18 48.5979C253.08 48.5979 252.055 48.3301 251.35 47.9123L251.809 46.5091C252.354 46.8626 253.304 47.2375 254.223 47.2375C255.558 47.2375 256.177 46.5734 256.177 45.7379C256.177 44.8596 255.654 44.3776 254.308 43.8848C252.493 43.2422 251.638 42.2353 251.638 41.0249C251.638 39.3968 252.952 38.0578 255.12 38.0578C256.145 38.0578 257.032 38.347 257.598 38.6898L257.139 40.0287C256.743 39.761 256.006 39.4182 255.077 39.4182ZM265.341 48.6086C262.617 48.6086 260.513 46.6055 260.513 43.4135C260.513 40.0287 262.724 38.0471 265.512 38.0471C268.406 38.0471 270.36 40.1573 270.36 43.2422C270.349 46.9804 267.776 48.6086 265.341 48.6086ZM265.458 39.4182C263.29 39.4182 262.361 41.4212 262.361 43.3493C262.361 45.5665 263.632 47.2375 265.426 47.2375C267.178 47.2375 268.491 45.5879 268.491 43.3171C268.48 41.5926 267.626 39.4182 265.458 39.4182ZM277.954 39.7717C276.661 39.7717 275.743 40.7571 275.497 42.1282C275.454 42.3745 275.412 42.6744 275.412 42.9851V48.3729H273.596V41.4212C273.596 40.2323 273.575 39.204 273.511 38.2721H275.113L275.177 40.2537H275.262C275.721 38.8933 276.821 38.0364 278.05 38.0364C278.253 38.0364 278.402 38.0578 278.573 38.1007V39.8359C278.391 39.7931 278.199 39.7717 277.954 39.7717ZM287.256 45.4808C285.942 48.9513 285.045 50.7187 283.795 51.8113C282.898 52.6039 282.001 52.9145 281.542 53.0002L281.083 51.4578C281.542 51.3078 282.14 51.0186 282.685 50.558C283.187 50.1617 283.806 49.4548 284.223 48.5122C284.308 48.3194 284.372 48.1801 284.372 48.073C284.372 47.9659 284.329 47.8266 284.244 47.591L280.517 38.2828H282.514L284.725 44.2597C284.949 44.9238 285.205 45.7165 285.365 46.327H285.408C285.6 45.7165 285.803 44.9453 286.049 44.2169L288.046 38.2828H289.979L287.256 45.4808Z" fill="#1794D1"/>
</g>
<defs>
<clipPath id="clip0_33_326">
<rect width="290" height="53" fill="white"/>
</clipPath>
</defs>
</svg>
